G04*
G04 #@! TF.GenerationSoftware,Altium Limited,Altium Designer,25.8.1 (18)*
G04*
G04 Layer_Color=39423*
%FSLAX44Y44*%
%MOMM*%
G71*
G04*
G04 #@! TF.SameCoordinates,668C74B0-1D1B-4F50-AB7C-E7AA2C44617E*
G04*
G04*
G04 #@! TF.FilePolarity,Positive*
G04*
G01*
G75*
%ADD13C,0.5000*%
%ADD19C,0.1000*%
%ADD116C,2.0000*%
D13*
X41000Y0D02*
G03*
X41000Y0I-41000J0D01*
G01*
D19*
X275000D02*
G03*
X275000Y0I-275000J0D01*
G01*
D116*
X107300Y319000D02*
G03*
X128980Y327980I0J30661D01*
G01*
X202980Y572020D02*
G03*
X181300Y581000I-21680J-21680D01*
G01*
X-261300D02*
G03*
X-282980Y572020I0J-30661D01*
G01*
X-313980Y327980D02*
G03*
X-292300Y319000I21680J21680D01*
G01*
X-224542Y175587D02*
G03*
X-224542Y-175587I224542J-175587D01*
G01*
X224326Y-175863D02*
G03*
X224516Y175621I-224326J175863D01*
G01*
X-403000Y429700D02*
G03*
X-394020Y408020I30661J0D01*
G01*
Y460980D02*
G03*
X-403000Y439300I21680J-21680D01*
G01*
X259000Y503300D02*
G03*
X250020Y524980I-30661J0D01*
G01*
Y449020D02*
G03*
X259000Y470700I-21680J21680D01*
G01*
X201556Y201556D02*
G03*
X-201556Y201556I-201556J-201556D01*
G01*
Y-201556D02*
G03*
X201556Y-201556I201556J201556D01*
G01*
X-292300Y319000D02*
X-86000D01*
X-51000Y319000D02*
X107300Y319000D01*
X-261300Y581000D02*
X-86000D01*
X-51000Y581000D02*
X181000Y581000D01*
X202980Y572020D02*
X250020Y524980D01*
X128980Y327980D02*
X250020Y449020D01*
X-400000Y50000D02*
Y183000D01*
X-410000Y50000D02*
X-400000D01*
X-518000D02*
X-410000D01*
X-650000D02*
X-552000D01*
X-280000Y15000D02*
X-240000D01*
X-280000Y0D02*
X-240000D01*
X-280000Y-15000D02*
Y15000D01*
X-240000Y-15000D02*
Y15000D01*
X-280000Y-15000D02*
X-240000D01*
X-410000Y-129000D02*
Y50000D01*
Y-350000D02*
Y-163000D01*
X-493000Y330000D02*
X-400000D01*
X245000Y-62500D02*
X267500D01*
X245000Y85000D02*
X267500D01*
X245000Y-77500D02*
X267500D01*
X245000Y100000D02*
X267500D01*
X245000Y70000D02*
Y100000D01*
Y-92500D02*
Y-62500D01*
Y-92500D02*
X267500D01*
X-394020Y408020D02*
X-313980Y327980D01*
X-289500Y565500D02*
X-282980Y572020D01*
X-394020Y460980D02*
X-289500Y565500D01*
X-403000Y429700D02*
Y439300D01*
X-650000Y330000D02*
X-527000D01*
X-400000Y217000D02*
Y330000D01*
X259000Y470700D02*
Y503300D01*
X267500Y70000D02*
Y100000D01*
Y-92500D02*
Y-62500D01*
X245000Y70000D02*
X267500D01*
M02*
