G04*
G04 #@! TF.GenerationSoftware,Altium Limited,Altium Designer,25.8.1 (18)*
G04*
G04 Layer_Physical_Order=6*
G04 Layer_Color=16711680*
%FSLAX44Y44*%
%MOMM*%
G71*
G04*
G04 #@! TF.SameCoordinates,2DE5FF01-4093-4F91-ACCA-3BB073B8CBF2*
G04*
G04*
G04 #@! TF.FilePolarity,Positive*
G04*
G01*
G75*
%ADD15C,0.2000*%
%ADD23R,1.9000X0.6000*%
%ADD27R,1.4542X0.8821*%
G04:AMPARAMS|DCode=28|XSize=1.4542mm|YSize=3.1821mm|CornerRadius=0.4435mm|HoleSize=0mm|Usage=FLASHONLY|Rotation=0.000|XOffset=0mm|YOffset=0mm|HoleType=Round|Shape=RoundedRectangle|*
%AMROUNDEDRECTD28*
21,1,1.4542,2.2951,0,0,0.0*
21,1,0.5671,3.1821,0,0,0.0*
1,1,0.8870,0.2836,-1.1476*
1,1,0.8870,-0.2836,-1.1476*
1,1,0.8870,-0.2836,1.1476*
1,1,0.8870,0.2836,1.1476*
%
%ADD28ROUNDEDRECTD28*%
G04:AMPARAMS|DCode=29|XSize=1.4542mm|YSize=0.8821mm|CornerRadius=0.4411mm|HoleSize=0mm|Usage=FLASHONLY|Rotation=0.000|XOffset=0mm|YOffset=0mm|HoleType=Round|Shape=RoundedRectangle|*
%AMROUNDEDRECTD29*
21,1,1.4542,0.0000,0,0,0.0*
21,1,0.5720,0.8821,0,0,0.0*
1,1,0.8821,0.2860,0.0000*
1,1,0.8821,-0.2860,0.0000*
1,1,0.8821,-0.2860,0.0000*
1,1,0.8821,0.2860,0.0000*
%
%ADD29ROUNDEDRECTD29*%
%ADD30R,1.2000X0.5000*%
%ADD31R,0.5000X1.2000*%
%ADD38R,0.8000X0.8500*%
%ADD39R,0.8500X0.8000*%
%ADD40R,1.5500X1.6000*%
G04:AMPARAMS|DCode=41|XSize=3.45mm|YSize=1.85mm|CornerRadius=0mm|HoleSize=0mm|Usage=FLASHONLY|Rotation=135.000|XOffset=0mm|YOffset=0mm|HoleType=Round|Shape=Rectangle|*
%AMROTATEDRECTD41*
4,1,4,1.8738,-0.5657,0.5657,-1.8738,-1.8738,0.5657,-0.5657,1.8738,1.8738,-0.5657,0.0*
%
%ADD41ROTATEDRECTD41*%

G04:AMPARAMS|DCode=42|XSize=3.45mm|YSize=1.85mm|CornerRadius=0mm|HoleSize=0mm|Usage=FLASHONLY|Rotation=45.000|XOffset=0mm|YOffset=0mm|HoleType=Round|Shape=Rectangle|*
%AMROTATEDRECTD42*
4,1,4,-0.5657,-1.8738,-1.8738,-0.5657,0.5657,1.8738,1.8738,0.5657,-0.5657,-1.8738,0.0*
%
%ADD42ROTATEDRECTD42*%

%ADD43R,0.9000X0.8000*%
%ADD45R,0.8000X0.9000*%
%ADD46R,3.4500X1.8500*%
G04:AMPARAMS|DCode=47|XSize=1.6539mm|YSize=0.5421mm|CornerRadius=0.2711mm|HoleSize=0mm|Usage=FLASHONLY|Rotation=90.000|XOffset=0mm|YOffset=0mm|HoleType=Round|Shape=RoundedRectangle|*
%AMROUNDEDRECTD47*
21,1,1.6539,0.0000,0,0,90.0*
21,1,1.1118,0.5421,0,0,90.0*
1,1,0.5421,0.0000,0.5559*
1,1,0.5421,0.0000,-0.5559*
1,1,0.5421,0.0000,-0.5559*
1,1,0.5421,0.0000,0.5559*
%
%ADD47ROUNDEDRECTD47*%
%ADD48R,0.5421X1.6539*%
%ADD80R,0.5000X1.0000*%
%ADD85C,1.0000*%
%ADD86C,1.0160*%
%ADD90C,0.9000*%
%ADD91C,1.7780*%
%ADD92C,2.8448*%
%ADD93R,2.8448X2.8448*%
%ADD94C,1.6000*%
%ADD95C,2.4000*%
%ADD96C,1.5000*%
%ADD97C,0.5000*%
%ADD98C,0.8000*%
%ADD99C,0.6000*%
%ADD100R,0.9000X0.6000*%
%ADD101R,1.0000X1.4000*%
%ADD102R,1.4000X1.1000*%
%AMCUSTOMSHAPE103*
4,1,5,-0.6875,-0.5000,0.6875,-0.5000,0.1875,0.0000,0.6875,0.5000,-0.6875,0.5000,-0.6875,-0.5000,0.0*%
%ADD103CUSTOMSHAPE103*%

%AMCUSTOMSHAPE104*
4,1,5,0.7125,0.5000,-0.2125,0.5000,-0.7125,0.0000,-0.2125,-0.5000,0.7125,-0.5000,0.7125,0.5000,0.0*%
%ADD104CUSTOMSHAPE104*%

%ADD105R,1.0000X0.5000*%
%AMCUSTOMSHAPE106*
4,1,5,-0.5000,0.7125,-0.5000,-0.2125,-0.0000,-0.7125,0.5000,-0.2125,0.5000,0.7125,-0.5000,0.7125,0.0*%
%ADD106CUSTOMSHAPE106*%

%AMCUSTOMSHAPE107*
4,1,5,0.5000,-0.6875,0.5000,0.6875,0.0000,0.1875,-0.5000,0.6875,-0.5000,-0.6875,0.5000,-0.6875,0.0*%
%ADD107CUSTOMSHAPE107*%

%AMCUSTOMSHAPE108*
4,1,5,0.6875,0.5000,-0.6875,0.5000,-0.1875,0.0000,-0.6875,-0.5000,0.6875,-0.5000,0.6875,0.5000,0.0*%
%ADD108CUSTOMSHAPE108*%

%AMCUSTOMSHAPE109*
4,1,5,-0.7125,-0.5000,0.2125,-0.5000,0.7125,-0.0000,0.2125,0.5000,-0.7125,0.5000,-0.7125,-0.5000,0.0*%
%ADD109CUSTOMSHAPE109*%

%ADD110R,0.6000X0.9000*%
G36*
X-413063Y218000D02*
X-413194D01*
X-415399Y217087D01*
X-417086Y215399D01*
X-418000Y213193D01*
Y210807D01*
X-417086Y208601D01*
X-415399Y206914D01*
X-414853Y206687D01*
Y205313D01*
X-415399Y205087D01*
X-417086Y203399D01*
X-418000Y201194D01*
Y198806D01*
X-417086Y196601D01*
X-415399Y194914D01*
X-414853Y194687D01*
Y193313D01*
X-415399Y193087D01*
X-417086Y191399D01*
X-418000Y189193D01*
Y186807D01*
X-417086Y184601D01*
X-415399Y182913D01*
X-413194Y182000D01*
X-413063D01*
Y63063D01*
X-509879D01*
Y241000D01*
X-510362Y245901D01*
X-511791Y250613D01*
X-514113Y254956D01*
X-517237Y258763D01*
X-521044Y261887D01*
X-525387Y264209D01*
X-530099Y265638D01*
X-535000Y266121D01*
X-646941D01*
Y316937D01*
X-528000D01*
Y316807D01*
X-527087Y314601D01*
X-525399Y312913D01*
X-523194Y312000D01*
X-520807D01*
X-518601Y312913D01*
X-516913Y314601D01*
X-516687Y315147D01*
X-515313D01*
X-515087Y314601D01*
X-513399Y312913D01*
X-511194Y312000D01*
X-508806D01*
X-506601Y312913D01*
X-504913Y314601D01*
X-504687Y315147D01*
X-503313D01*
X-503087Y314601D01*
X-501399Y312913D01*
X-499193Y312000D01*
X-496806D01*
X-494601Y312913D01*
X-492913Y314601D01*
X-492000Y316807D01*
Y316937D01*
X-413063D01*
Y218000D01*
D02*
G37*
G36*
X22860Y271018D02*
X38021Y269310D01*
X53061Y266754D01*
X67714Y263410D01*
X67988Y262895D01*
X68092Y261992D01*
X67399Y261298D01*
X66477Y259702D01*
X66000Y257922D01*
Y256279D01*
X65498Y255818D01*
X64846Y255479D01*
X64792Y255510D01*
X63018Y255985D01*
X61182D01*
X59408Y255510D01*
X57817Y254591D01*
X57713Y254487D01*
X56540Y254974D01*
Y255980D01*
X43460D01*
Y250460D01*
X44000D01*
Y238500D01*
X51674D01*
X55590Y234584D01*
X55591Y234584D01*
X56036Y234286D01*
X56442Y233181D01*
X56346Y232673D01*
X55600Y231382D01*
X55125Y229608D01*
Y227772D01*
X55600Y225998D01*
X56519Y224407D01*
X57817Y223109D01*
X59408Y222190D01*
X61182Y221715D01*
X63018D01*
X64792Y222190D01*
X66383Y223109D01*
X67681Y224407D01*
X68336Y225542D01*
X69771Y225903D01*
X73000Y222674D01*
Y218160D01*
X71730Y217634D01*
X71549Y217815D01*
X69895Y218500D01*
X68105D01*
X66451Y217815D01*
X65185Y216549D01*
X64770Y215547D01*
X63500Y215799D01*
Y220000D01*
X44500D01*
Y229500D01*
X21500D01*
Y223826D01*
X17750Y220075D01*
X15276D01*
X14520Y220832D01*
X12866Y221517D01*
X11076D01*
X9422Y220832D01*
X8156Y219566D01*
X7471Y217912D01*
Y216122D01*
X8156Y214468D01*
X9422Y213202D01*
X11076Y212517D01*
X12866D01*
X14520Y213202D01*
X15276Y213958D01*
X19016D01*
X19017Y213958D01*
X20187Y214191D01*
X21179Y214854D01*
X25826Y219500D01*
X40500D01*
Y210500D01*
X21500D01*
Y200500D01*
X39615D01*
X40101Y199327D01*
X39174Y198400D01*
X30500D01*
Y186400D01*
X43500D01*
Y194074D01*
X50589Y201163D01*
X51081Y201900D01*
X51549Y202094D01*
X52815Y203360D01*
X53380Y203472D01*
X55070Y201782D01*
Y160629D01*
X55070Y160629D01*
X55303Y159458D01*
X55966Y158466D01*
X60545Y153886D01*
X59963Y152897D01*
X59854Y152781D01*
X58105D01*
X56451Y152096D01*
X55770Y151415D01*
X54500Y151941D01*
Y152895D01*
X53815Y154549D01*
X52549Y155815D01*
X50895Y156500D01*
X49105D01*
X47451Y155815D01*
X46185Y154549D01*
X45500Y152895D01*
Y151105D01*
X46185Y149451D01*
X47451Y148185D01*
X49105Y147500D01*
X50895D01*
X52549Y148185D01*
X53230Y148866D01*
X54500Y148340D01*
Y147386D01*
X55185Y145732D01*
X56451Y144466D01*
X58105Y143781D01*
X59895D01*
X61549Y144466D01*
X62083Y145000D01*
X69174D01*
X69337Y144837D01*
X69337Y144837D01*
X70329Y144174D01*
X71500Y143941D01*
X71729Y142699D01*
Y140589D01*
X89929D01*
X90438Y139889D01*
X90656Y139479D01*
X90000Y137895D01*
Y136105D01*
X90685Y134451D01*
X91951Y133185D01*
X93605Y132500D01*
X95395D01*
X97049Y133185D01*
X97805Y133941D01*
X104267D01*
X104267Y133941D01*
X104307Y133949D01*
X105481Y134078D01*
X105939Y133077D01*
X106208Y132429D01*
X107473Y131163D01*
X109127Y130478D01*
X110918D01*
X112571Y131163D01*
X112951Y131543D01*
X113977Y132176D01*
X115243Y130910D01*
X116897Y130225D01*
X118687D01*
X120341Y130910D01*
X120717Y131287D01*
X122185Y131062D01*
X122367Y130880D01*
Y126809D01*
X121298Y126523D01*
X119702Y125601D01*
X118399Y124298D01*
X117477Y122702D01*
X117000Y120922D01*
Y119078D01*
X117477Y117298D01*
X118399Y115702D01*
X119702Y114399D01*
X121298Y113477D01*
X123078Y113000D01*
X124922D01*
X126702Y113477D01*
X128298Y114399D01*
X129601Y115702D01*
X130523Y117298D01*
X131000Y119078D01*
Y120922D01*
X130523Y122702D01*
X129601Y124298D01*
X128485Y125415D01*
Y129769D01*
X128549Y129796D01*
X129815Y131062D01*
X130500Y132716D01*
Y134506D01*
X130791Y134941D01*
X159500D01*
Y129095D01*
X159500Y129095D01*
X159500D01*
X158431Y128545D01*
X158420Y128540D01*
X155020D01*
Y122000D01*
Y115460D01*
X160540D01*
Y116000D01*
X172500D01*
Y118941D01*
X176239D01*
Y111736D01*
X185661D01*
Y132275D01*
X176239D01*
Y125059D01*
X172500D01*
Y128000D01*
X172500D01*
X172500Y129000D01*
X172500D01*
Y141000D01*
X163296D01*
X163000Y141059D01*
X163000Y141059D01*
X130656D01*
X130441Y141274D01*
X129449Y141937D01*
X129161Y141994D01*
X128362Y143383D01*
X128500Y143716D01*
Y145506D01*
X127815Y147160D01*
X126549Y148426D01*
X124895Y149111D01*
X123105D01*
X121451Y148426D01*
X120783Y149419D01*
X120815Y149451D01*
X121500Y151105D01*
Y152895D01*
X120815Y154549D01*
X119549Y155815D01*
X117895Y156500D01*
X116105D01*
X114451Y155815D01*
X113185Y154549D01*
X112500Y152895D01*
Y151105D01*
X113185Y149451D01*
X114451Y148185D01*
X116105Y147500D01*
X117895D01*
X119549Y148185D01*
X120217Y147192D01*
X120185Y147160D01*
X119500Y145506D01*
Y143716D01*
X119380Y143536D01*
X107744D01*
X107744Y143536D01*
X107244Y143947D01*
Y144151D01*
X106559Y145805D01*
X105293Y147071D01*
X103639Y147756D01*
X102600D01*
X102554Y147795D01*
X101975Y149026D01*
X102326Y149551D01*
X102559Y150722D01*
X102559Y150722D01*
Y165985D01*
X102559Y165985D01*
X102326Y167156D01*
X101663Y168148D01*
X95484Y174327D01*
X96045Y175562D01*
X97549Y176185D01*
X98815Y177451D01*
X99500Y179105D01*
Y180895D01*
X99429Y181066D01*
X99870Y181542D01*
X100479Y181851D01*
X101272Y181320D01*
X102443Y181088D01*
X109552D01*
X109552Y181088D01*
X110723Y181320D01*
X111715Y181984D01*
X120163Y190432D01*
X120826Y191424D01*
X121059Y192595D01*
X121059Y192595D01*
Y194545D01*
X121541Y194941D01*
X121541Y194941D01*
X129500D01*
Y192000D01*
X130756D01*
X131462Y190944D01*
X131235Y190395D01*
Y188605D01*
X131919Y186951D01*
X133185Y185685D01*
X133274Y184274D01*
X132869Y183296D01*
X132629Y181476D01*
Y171270D01*
X142500D01*
Y170000D01*
X143770D01*
Y151489D01*
X145336D01*
X147156Y151729D01*
X148853Y152432D01*
X150310Y153550D01*
X151428Y155007D01*
X152131Y156704D01*
X152371Y158525D01*
Y169252D01*
X153641Y169960D01*
X154751Y169500D01*
X156541D01*
X158195Y170185D01*
X158792Y170782D01*
X159399Y170702D01*
X160702Y169399D01*
X162298Y168477D01*
X164078Y168000D01*
X165922D01*
X167702Y168477D01*
X169298Y169399D01*
X170601Y170702D01*
X171523Y172298D01*
X172000Y174078D01*
Y175922D01*
X171523Y177702D01*
X170601Y179298D01*
X169298Y180601D01*
X167702Y181523D01*
X166509Y181843D01*
Y183157D01*
X167702Y183477D01*
X169298Y184399D01*
X170601Y185702D01*
X170671Y185823D01*
X171941Y185483D01*
Y183576D01*
X171941Y183576D01*
X172174Y182405D01*
X172837Y181413D01*
X179480Y174770D01*
X178954Y173500D01*
X178105D01*
X176451Y172815D01*
X175185Y171549D01*
X174500Y169895D01*
Y168105D01*
X175185Y166451D01*
X176451Y165185D01*
X178105Y164500D01*
X179895D01*
X180671Y164821D01*
X181941Y163973D01*
Y162125D01*
X181941Y162125D01*
X181961Y162027D01*
Y153875D01*
X182116Y153094D01*
X182525Y152375D01*
X182116Y151655D01*
X181961Y150875D01*
X181961Y150875D01*
Y148411D01*
X180691Y147885D01*
X180413Y148163D01*
X179421Y148826D01*
X178250Y149059D01*
X178250Y149059D01*
X172500D01*
Y155000D01*
X159500D01*
Y143000D01*
X168704D01*
X169000Y142941D01*
X176983D01*
X178087Y141837D01*
X178087Y141837D01*
X179079Y141174D01*
X180250Y140941D01*
X180250Y140941D01*
X181961D01*
Y137125D01*
X182000Y136928D01*
Y135125D01*
X183803D01*
X184000Y135086D01*
X190591D01*
Y131186D01*
X190254Y130960D01*
X189213Y129402D01*
X188847Y127564D01*
Y116446D01*
X189213Y114608D01*
X190254Y113050D01*
X191812Y112009D01*
X193650Y111643D01*
X195488Y112009D01*
X197046Y113050D01*
X198087Y114608D01*
X198453Y116446D01*
Y127564D01*
X198087Y129402D01*
X197046Y130960D01*
X196709Y131186D01*
Y139350D01*
X196709Y139350D01*
X196476Y140520D01*
X196039Y141174D01*
Y150875D01*
X195884Y151655D01*
X195442Y152317D01*
X195884Y153094D01*
X196039Y153875D01*
X196039Y163125D01*
X196000Y163322D01*
Y165125D01*
X194197D01*
X194000Y165164D01*
X188059D01*
Y173576D01*
X188287Y173854D01*
X188895D01*
X190549Y174539D01*
X191305Y175295D01*
X194379D01*
X202941Y166733D01*
Y165164D01*
X201000D01*
X200803Y165125D01*
X199000D01*
Y163322D01*
X198961Y163125D01*
Y153875D01*
X199116Y153094D01*
X199525Y152375D01*
X199116Y151655D01*
X198961Y150875D01*
X198961Y150875D01*
Y137125D01*
X199000Y136928D01*
Y135125D01*
X200803D01*
X201000Y135086D01*
X203291D01*
Y131186D01*
X202954Y130960D01*
X201913Y129402D01*
X201547Y127564D01*
Y116446D01*
X201913Y114608D01*
X202954Y113050D01*
X204512Y112009D01*
X206350Y111643D01*
X208188Y112009D01*
X209746Y113050D01*
X210787Y114608D01*
X211153Y116446D01*
Y127564D01*
X210787Y129402D01*
X209746Y130960D01*
X209409Y131186D01*
Y135086D01*
X211000D01*
X211197Y135125D01*
X213000D01*
Y136928D01*
X213039Y137125D01*
Y150875D01*
X212884Y151655D01*
X212442Y152317D01*
X212884Y153094D01*
X213039Y153875D01*
X213039Y163125D01*
X213000Y163322D01*
Y165125D01*
X211197D01*
X211000Y165164D01*
X209059D01*
Y167660D01*
X209903Y168148D01*
X210298Y168217D01*
X210601Y167913D01*
X212806Y167000D01*
X214662D01*
X218766Y161601D01*
X227377Y149241D01*
X235281Y136441D01*
X242465Y123223D01*
X246771Y114136D01*
X246092Y113063D01*
X244015D01*
X243719Y113004D01*
X243418D01*
X241485Y112619D01*
X241207Y112504D01*
X240911Y112445D01*
X239091Y111691D01*
X238840Y111524D01*
X238562Y111409D01*
X236924Y110314D01*
X236731Y110121D01*
X220674D01*
X220549Y111391D01*
X221099Y111500D01*
X222836Y112661D01*
X223996Y114398D01*
X224403Y116446D01*
Y120735D01*
X219050D01*
X213696D01*
Y116446D01*
X214104Y114398D01*
X215264Y112661D01*
X217001Y111500D01*
X217551Y111391D01*
X217426Y110121D01*
X105000D01*
X100099Y109638D01*
X95387Y108209D01*
X91044Y105887D01*
X87237Y102763D01*
X84113Y98956D01*
X81791Y94613D01*
X80362Y89901D01*
X79879Y85000D01*
Y25121D01*
X73415D01*
X73266Y25637D01*
X69935Y33679D01*
X65725Y41297D01*
X60687Y48397D01*
X54887Y54887D01*
X48397Y60687D01*
X41297Y65725D01*
X33679Y69935D01*
X25637Y73266D01*
X17273Y75676D01*
X8691Y77134D01*
X0Y77622D01*
X-8691Y77134D01*
X-17273Y75676D01*
X-25637Y73266D01*
X-33679Y69935D01*
X-41297Y65725D01*
X-48397Y60687D01*
X-54887Y54887D01*
X-60687Y48397D01*
X-65725Y41297D01*
X-69935Y33679D01*
X-73266Y25637D01*
X-73415Y25121D01*
X-231731Y25121D01*
X-231924Y25314D01*
X-233562Y26409D01*
X-233840Y26524D01*
X-234091Y26691D01*
X-235912Y27445D01*
X-236207Y27504D01*
X-236485Y27619D01*
X-238418Y28004D01*
X-238719D01*
X-239015Y28063D01*
X-269479D01*
X-270326Y29009D01*
X-269385Y37485D01*
X-266901Y52318D01*
X-263601Y66991D01*
X-259495Y81460D01*
X-254595Y95679D01*
X-248917Y109606D01*
X-242478Y123198D01*
X-235297Y136413D01*
X-227397Y149210D01*
X-218789Y161569D01*
X-214662Y167000D01*
X-212806D01*
X-212231Y167238D01*
X-211512Y166162D01*
X-215330Y162343D01*
X-207892Y154904D01*
X-193898Y168898D01*
X-179904Y182892D01*
X-187343Y190330D01*
X-197735Y179939D01*
X-198811Y180658D01*
X-198750Y180807D01*
Y183193D01*
X-199664Y185399D01*
X-200927Y186662D01*
X-200239Y187647D01*
X-198034Y186734D01*
X-195647D01*
X-193442Y187647D01*
X-191754Y189335D01*
X-190841Y191540D01*
Y193758D01*
X-186865Y197623D01*
X-175474Y207803D01*
X-163546Y217315D01*
X-151104Y226143D01*
X-138187Y234260D01*
X-124834Y241639D01*
X-111089Y248259D01*
X-96994Y254097D01*
X-82594Y259136D01*
X-67934Y263359D01*
X-53061Y266754D01*
X-38020Y269310D01*
X-22860Y271018D01*
X-7628Y271873D01*
X7628D01*
X22860Y271018D01*
D02*
G37*
G36*
X82594Y259136D02*
X96994Y254097D01*
X100541Y252628D01*
X101298Y251730D01*
X101152Y251000D01*
X100886Y251000D01*
X92000D01*
Y238000D01*
X102000D01*
Y241149D01*
X102871Y241510D01*
X104137Y242776D01*
X104822Y244430D01*
Y246220D01*
X104137Y247874D01*
X102871Y249140D01*
X102132Y249446D01*
X102027Y250674D01*
X102463Y251080D01*
X103674Y251330D01*
X111089Y248259D01*
X113505Y247095D01*
X113216Y245825D01*
X111982D01*
X110208Y245350D01*
X108617Y244431D01*
X107319Y243133D01*
X106400Y241542D01*
X105925Y239768D01*
Y237932D01*
X106400Y236158D01*
X107319Y234567D01*
X108057Y233829D01*
X107531Y232559D01*
X102050D01*
X100880Y232326D01*
X99888Y231663D01*
X99888Y231663D01*
X96337Y228113D01*
X95674Y227120D01*
X95650Y227000D01*
X93040D01*
Y227540D01*
X88770D01*
Y220500D01*
Y213460D01*
X93040D01*
Y214000D01*
X102000D01*
Y215460D01*
X106480D01*
Y222000D01*
X109020D01*
Y215460D01*
X114540D01*
Y216000D01*
X117191D01*
Y210408D01*
X117105D01*
X115451Y209723D01*
X114500Y208773D01*
X113549Y209723D01*
X111895Y210408D01*
X110105D01*
X108451Y209723D01*
X107185Y208458D01*
X106500Y206804D01*
Y205014D01*
X107185Y203360D01*
X108451Y202094D01*
X110105Y201409D01*
X111895D01*
X113549Y202094D01*
X113671Y202216D01*
X114941Y201690D01*
Y193862D01*
X112201Y191121D01*
X110703Y191419D01*
X110382Y192195D01*
X109116Y193461D01*
X107462Y194146D01*
X105672D01*
X104018Y193461D01*
X102752Y192195D01*
X102067Y190541D01*
Y190032D01*
X100797Y189018D01*
X100589Y189059D01*
X100589Y189059D01*
X96486D01*
X96233Y190329D01*
X96932Y190618D01*
X98198Y191884D01*
X98883Y193538D01*
Y195328D01*
X98198Y196982D01*
X96932Y198248D01*
X95278Y198933D01*
X94635D01*
X94561Y199044D01*
Y200834D01*
X93876Y202488D01*
X92610Y203754D01*
X90956Y204439D01*
X89166D01*
X88060Y203981D01*
X86790Y204692D01*
Y211540D01*
X83575D01*
X82792Y212726D01*
X83108Y213460D01*
X86230D01*
Y220500D01*
Y227540D01*
X81960D01*
Y227000D01*
X77326D01*
X73134Y231192D01*
Y231993D01*
X73134Y231993D01*
X72901Y233164D01*
X72238Y234156D01*
X67484Y238910D01*
X66492Y239573D01*
X65322Y239806D01*
X65321Y239805D01*
X59020D01*
X56531Y242295D01*
X56621Y242829D01*
X57294Y243167D01*
X57993Y243327D01*
X59408Y242510D01*
X61182Y242035D01*
X63018D01*
X64792Y242510D01*
X66383Y243429D01*
X67681Y244727D01*
X68600Y246318D01*
X69075Y248092D01*
Y249717D01*
X69600Y250194D01*
X70233Y250515D01*
X70298Y250477D01*
X72078Y250000D01*
X73000D01*
Y238000D01*
X83000D01*
Y251000D01*
X78696D01*
X78169Y252270D01*
X78601Y252702D01*
X79523Y254298D01*
X80000Y256078D01*
Y257922D01*
X79814Y258615D01*
X80855Y259637D01*
X82594Y259136D01*
D02*
G37*
G36*
X163546Y217315D02*
X175474Y207803D01*
X186866Y197623D01*
X190841Y193758D01*
Y191540D01*
X191754Y189335D01*
X193442Y187647D01*
X195647Y186734D01*
X198034D01*
X200239Y187647D01*
X200927Y186662D01*
X199664Y185399D01*
X198750Y183193D01*
Y181372D01*
X198443Y181093D01*
X197520Y180710D01*
X196817Y181180D01*
X195646Y181413D01*
X195646Y181413D01*
X191305D01*
X190549Y182169D01*
X188895Y182854D01*
X187105D01*
X185451Y182169D01*
X184185Y180903D01*
X183982Y180413D01*
X182736Y180165D01*
X178059Y184843D01*
Y197000D01*
X177826Y198171D01*
X177163Y199163D01*
X177163Y199163D01*
X171663Y204663D01*
X170671Y205326D01*
X169500Y205559D01*
X169500Y205559D01*
X166977D01*
X166221Y206315D01*
X164567Y207000D01*
X162777D01*
X161123Y206315D01*
X159857Y205049D01*
X159172Y203395D01*
Y201605D01*
X159348Y201179D01*
X158376Y200207D01*
X158309Y200235D01*
Y195306D01*
X155769D01*
Y200525D01*
X155040Y201012D01*
Y204540D01*
X149520D01*
Y198000D01*
X146980D01*
Y204540D01*
X146500D01*
Y211450D01*
X147770Y211791D01*
X148399Y210702D01*
X149702Y209399D01*
X151298Y208477D01*
X153078Y208000D01*
X154922D01*
X156702Y208477D01*
X158298Y209399D01*
X159601Y210702D01*
X160523Y212298D01*
X161000Y214078D01*
Y215922D01*
X160523Y217702D01*
X160326Y218042D01*
X161288Y218918D01*
X163546Y217315D01*
D02*
G37*
G36*
X-560121Y63063D02*
X-646941D01*
Y194675D01*
X-645768Y195161D01*
X-645605Y194998D01*
X-643895Y194011D01*
X-641987Y193500D01*
X-640013D01*
X-638105Y194011D01*
X-636395Y194998D01*
X-634999Y196395D01*
X-634011Y198105D01*
X-633500Y200013D01*
Y201987D01*
X-634011Y203895D01*
X-634999Y205605D01*
X-636395Y207001D01*
X-638105Y207989D01*
X-640013Y208500D01*
X-641987D01*
X-643895Y207989D01*
X-645605Y207001D01*
X-645768Y206838D01*
X-646941Y207325D01*
Y215879D01*
X-560121D01*
Y63063D01*
D02*
G37*
G36*
X82270Y162989D02*
X83860D01*
X85675Y163228D01*
X87230Y163873D01*
X88219Y163507D01*
X88500Y163369D01*
Y163105D01*
X89185Y161451D01*
X90451Y160185D01*
X92105Y159500D01*
X93895D01*
X95171Y160029D01*
X96441Y159418D01*
Y158003D01*
X95385Y157297D01*
X94895Y157500D01*
X93105D01*
X91451Y156815D01*
X90185Y155549D01*
X89500Y153895D01*
Y153411D01*
X73500D01*
Y156960D01*
X74040D01*
Y162864D01*
X75310Y163649D01*
X76325Y163228D01*
X78140Y162989D01*
X79730D01*
Y170000D01*
X82270D01*
Y162989D01*
D02*
G37*
G36*
X-423063Y-128000D02*
X-423194D01*
X-425399Y-128913D01*
X-427086Y-130601D01*
X-428000Y-132807D01*
Y-135194D01*
X-427086Y-137399D01*
X-425399Y-139087D01*
X-424853Y-139313D01*
Y-140687D01*
X-425399Y-140913D01*
X-427086Y-142601D01*
X-428000Y-144806D01*
Y-145000D01*
X-646941D01*
Y36937D01*
X-553000D01*
Y36806D01*
X-552087Y34601D01*
X-550399Y32913D01*
X-548194Y32000D01*
X-545807D01*
X-543601Y32913D01*
X-541913Y34601D01*
X-541687Y35147D01*
X-540313D01*
X-540087Y34601D01*
X-538399Y32913D01*
X-536194Y32000D01*
X-533806D01*
X-531601Y32913D01*
X-529913Y34601D01*
X-529687Y35147D01*
X-528313D01*
X-528087Y34601D01*
X-526399Y32913D01*
X-524193Y32000D01*
X-521806D01*
X-519601Y32913D01*
X-517913Y34601D01*
X-517000Y36806D01*
Y36937D01*
X-423063D01*
Y-128000D01*
D02*
G37*
G36*
X346941Y10000D02*
X298009D01*
X297199Y24632D01*
X297178Y24715D01*
X297185Y24801D01*
X295383Y41026D01*
X295357Y41108D01*
X295359Y41194D01*
X292663Y57295D01*
X292632Y57375D01*
X292630Y57461D01*
X289642Y70744D01*
X289887Y71044D01*
X292209Y75387D01*
X293638Y80099D01*
X294121Y85000D01*
X293638Y89901D01*
X292209Y94613D01*
X289887Y98956D01*
X286763Y102763D01*
X282957Y105887D01*
X278613Y108209D01*
X277701Y108486D01*
X272953Y120128D01*
X272906Y120200D01*
X272885Y120283D01*
X265894Y135036D01*
X265842Y135105D01*
X265817Y135186D01*
X258021Y149530D01*
X257966Y149596D01*
X257936Y149676D01*
X249359Y163567D01*
X249300Y163630D01*
X249266Y163708D01*
X239934Y177104D01*
X239872Y177163D01*
X239834Y177240D01*
X233993Y184706D01*
X233690Y184967D01*
X233423Y185266D01*
X231318Y186850D01*
X230958Y187024D01*
X230623Y187243D01*
X228180Y188228D01*
X227787Y188302D01*
X227407Y188427D01*
X224793Y188747D01*
X224394Y188717D01*
X223994Y188739D01*
X221386Y188371D01*
X221008Y188239D01*
X220617Y188158D01*
X218193Y187127D01*
X217862Y186901D01*
X217505Y186721D01*
X215430Y185098D01*
X214285Y185715D01*
X209797Y190203D01*
X209859Y191472D01*
X210990Y192400D01*
X211275Y192748D01*
X211593Y193065D01*
X213242Y195533D01*
X213414Y195948D01*
X213626Y196345D01*
X214487Y199185D01*
X214531Y199632D01*
X214619Y200072D01*
Y202542D01*
X214560Y202837D01*
Y203139D01*
X214176Y205071D01*
X214060Y205350D01*
X214002Y205645D01*
X213248Y207465D01*
X213080Y207716D01*
X212965Y207994D01*
X211870Y209633D01*
X211657Y209846D01*
X211490Y210096D01*
X210793Y210793D01*
X204939Y216647D01*
X204867Y216695D01*
X204815Y216765D01*
X192470Y227797D01*
X192395Y227841D01*
X192339Y227908D01*
X179394Y238230D01*
X179317Y238270D01*
X179257Y238334D01*
X165754Y247914D01*
X165675Y247950D01*
X165612Y248010D01*
X151593Y256818D01*
X151511Y256849D01*
X151445Y256905D01*
X136954Y264914D01*
X136872Y264940D01*
X136802Y264993D01*
X121885Y272176D01*
X121801Y272198D01*
X121728Y272246D01*
X106432Y278582D01*
X106347Y278599D01*
X106272Y278644D01*
X90645Y284112D01*
X90559Y284124D01*
X90481Y284164D01*
X74572Y288747D01*
X74485Y288755D01*
X74406Y288790D01*
X58264Y292474D01*
X58177Y292477D01*
X58096Y292508D01*
X41773Y295281D01*
X41686Y295279D01*
X41603Y295305D01*
X25151Y297159D01*
X25064Y297152D01*
X24980Y297173D01*
X8450Y298102D01*
X8364Y298090D01*
X8278Y298106D01*
X-8278D01*
X-8364Y298090D01*
X-8450Y298102D01*
X-24980Y297173D01*
X-25064Y297152D01*
X-25151Y297159D01*
X-41603Y295305D01*
X-41686Y295279D01*
X-41773Y295281D01*
X-58096Y292508D01*
X-58177Y292477D01*
X-58264Y292474D01*
X-74406Y288790D01*
X-74485Y288755D01*
X-74572Y288747D01*
X-90481Y284164D01*
X-90559Y284124D01*
X-90645Y284112D01*
X-106272Y278644D01*
X-106347Y278599D01*
X-106432Y278582D01*
X-121728Y272246D01*
X-121801Y272198D01*
X-121885Y272176D01*
X-136802Y264993D01*
X-136872Y264940D01*
X-136954Y264914D01*
X-151445Y256905D01*
X-151511Y256849D01*
X-151593Y256818D01*
X-165612Y248010D01*
X-165675Y247950D01*
X-165754Y247914D01*
X-179257Y238334D01*
X-179317Y238270D01*
X-179394Y238230D01*
X-192339Y227908D01*
X-192395Y227841D01*
X-192470Y227797D01*
X-204815Y216765D01*
X-204867Y216695D01*
X-204939Y216647D01*
X-210793Y210793D01*
X-211724Y209862D01*
X-211947Y209529D01*
X-212211Y209228D01*
X-213528Y206947D01*
X-213656Y206568D01*
X-213833Y206209D01*
X-214515Y203665D01*
X-214541Y203266D01*
X-214619Y202873D01*
Y200239D01*
X-214541Y199847D01*
X-214515Y199448D01*
X-213833Y196903D01*
X-213656Y196545D01*
X-213528Y196166D01*
X-212211Y193885D01*
X-211947Y193584D01*
X-211724Y193251D01*
X-209862Y191388D01*
X-209529Y191166D01*
X-209228Y190902D01*
X-208046Y190220D01*
X-207650Y188525D01*
X-209529Y185706D01*
X-209837Y185399D01*
X-210005Y184993D01*
X-211792Y182311D01*
X-212063Y182219D01*
X-213306Y182330D01*
X-214813Y184443D01*
X-215157Y184767D01*
X-215473Y185118D01*
X-217976Y186987D01*
X-218402Y187191D01*
X-218810Y187428D01*
X-221763Y188446D01*
X-222231Y188510D01*
X-222692Y188612D01*
X-225815Y188681D01*
X-226280Y188599D01*
X-226750Y188556D01*
X-229746Y187670D01*
X-230163Y187450D01*
X-230598Y187266D01*
X-233181Y185509D01*
X-233512Y185172D01*
X-233870Y184864D01*
X-234832Y183634D01*
X-234832Y183634D01*
X-239859Y177205D01*
X-239898Y177129D01*
X-239960Y177069D01*
X-249288Y163676D01*
X-249322Y163597D01*
X-249380Y163534D01*
X-257954Y149646D01*
X-257984Y149565D01*
X-258039Y149499D01*
X-265831Y135158D01*
X-265857Y135076D01*
X-265908Y135007D01*
X-272896Y120257D01*
X-272917Y120174D01*
X-272964Y120103D01*
X-279126Y104989D01*
X-279142Y104904D01*
X-279186Y104830D01*
X-284503Y89399D01*
X-284514Y89314D01*
X-284554Y89238D01*
X-289009Y73536D01*
X-289016Y73450D01*
X-289051Y73372D01*
X-292633Y57448D01*
X-292635Y57362D01*
X-292665Y57282D01*
X-295361Y41185D01*
X-295358Y41099D01*
X-295384Y41017D01*
X-297186Y24795D01*
X-297178Y24710D01*
X-297200Y24627D01*
X-297895Y12072D01*
X-299209Y9613D01*
X-300638Y4901D01*
X-301121Y-0D01*
X-300638Y-4901D01*
X-299209Y-9613D01*
X-297895Y-12072D01*
X-297200Y-24627D01*
X-297178Y-24710D01*
X-297186Y-24795D01*
X-295384Y-41017D01*
X-295358Y-41099D01*
X-295361Y-41185D01*
X-292665Y-57282D01*
X-292635Y-57362D01*
X-292633Y-57448D01*
X-289051Y-73372D01*
X-289016Y-73450D01*
X-289009Y-73536D01*
X-284554Y-89238D01*
X-284514Y-89314D01*
X-284503Y-89399D01*
X-279186Y-104830D01*
X-279142Y-104904D01*
X-279126Y-104989D01*
X-272964Y-120103D01*
X-272917Y-120174D01*
X-272896Y-120257D01*
X-265908Y-135007D01*
X-265857Y-135076D01*
X-265831Y-135158D01*
X-258039Y-149499D01*
X-257984Y-149565D01*
X-257954Y-149646D01*
X-249380Y-163534D01*
X-249322Y-163597D01*
X-249288Y-163676D01*
X-239960Y-177069D01*
X-239898Y-177129D01*
X-239859Y-177205D01*
X-234832Y-183634D01*
X-234832Y-183634D01*
X-233870Y-184864D01*
X-233512Y-185172D01*
X-233181Y-185509D01*
X-230598Y-187266D01*
X-230163Y-187450D01*
X-229746Y-187670D01*
X-226750Y-188556D01*
X-226280Y-188599D01*
X-225815Y-188681D01*
X-222692Y-188612D01*
X-222231Y-188510D01*
X-221763Y-188446D01*
X-218810Y-187428D01*
X-218402Y-187191D01*
X-217976Y-186987D01*
X-215473Y-185118D01*
X-215157Y-184767D01*
X-214815Y-184444D01*
X-208899Y-189515D01*
X-209016Y-190780D01*
X-209228Y-190902D01*
X-209529Y-191166D01*
X-209862Y-191388D01*
X-211724Y-193251D01*
X-211947Y-193584D01*
X-212211Y-193885D01*
X-213528Y-196166D01*
X-213656Y-196545D01*
X-213833Y-196903D01*
X-214515Y-199448D01*
X-214541Y-199847D01*
X-214619Y-200239D01*
Y-202873D01*
X-214541Y-203266D01*
X-214515Y-203665D01*
X-213833Y-206209D01*
X-213656Y-206568D01*
X-213528Y-206947D01*
X-212211Y-209228D01*
X-211947Y-209529D01*
X-211724Y-209862D01*
X-210793Y-210793D01*
X-204939Y-216647D01*
X-204867Y-216695D01*
X-204815Y-216765D01*
X-192470Y-227797D01*
X-192395Y-227841D01*
X-192339Y-227908D01*
X-179394Y-238230D01*
X-179317Y-238270D01*
X-179257Y-238334D01*
X-165754Y-247914D01*
X-165675Y-247950D01*
X-165612Y-248010D01*
X-151593Y-256818D01*
X-151511Y-256849D01*
X-151445Y-256905D01*
X-136954Y-264914D01*
X-136872Y-264940D01*
X-136802Y-264993D01*
X-121885Y-272176D01*
X-121801Y-272198D01*
X-121728Y-272246D01*
X-106432Y-278582D01*
X-106347Y-278599D01*
X-106272Y-278644D01*
X-90645Y-284112D01*
X-90559Y-284124D01*
X-90481Y-284164D01*
X-74572Y-288747D01*
X-74485Y-288755D01*
X-74406Y-288790D01*
X-58264Y-292474D01*
X-58177Y-292477D01*
X-58096Y-292508D01*
X-41773Y-295281D01*
X-41686Y-295279D01*
X-41603Y-295305D01*
X-25151Y-297159D01*
X-25064Y-297152D01*
X-24980Y-297173D01*
X-8450Y-298102D01*
X-8364Y-298090D01*
X-8278Y-298106D01*
X8278D01*
X8364Y-298090D01*
X8450Y-298102D01*
X24980Y-297173D01*
X25064Y-297152D01*
X25151Y-297159D01*
X41603Y-295305D01*
X41686Y-295279D01*
X41773Y-295281D01*
X58096Y-292508D01*
X58177Y-292477D01*
X58264Y-292474D01*
X74406Y-288790D01*
X74485Y-288755D01*
X74572Y-288747D01*
X90481Y-284164D01*
X90558Y-284124D01*
X90645Y-284112D01*
X106272Y-278644D01*
X106347Y-278599D01*
X106432Y-278582D01*
X121728Y-272246D01*
X121801Y-272198D01*
X121885Y-272176D01*
X136802Y-264993D01*
X136872Y-264940D01*
X136954Y-264914D01*
X151445Y-256905D01*
X151511Y-256849D01*
X151593Y-256818D01*
X165612Y-248010D01*
X165675Y-247950D01*
X165754Y-247914D01*
X179257Y-238334D01*
X179317Y-238270D01*
X179394Y-238230D01*
X192339Y-227908D01*
X192395Y-227841D01*
X192470Y-227797D01*
X204815Y-216765D01*
X204867Y-216695D01*
X204939Y-216647D01*
X210793Y-210793D01*
X211490Y-210096D01*
X211657Y-209846D01*
X211870Y-209633D01*
X212965Y-207994D01*
X213080Y-207716D01*
X213248Y-207466D01*
X214002Y-205645D01*
X214060Y-205350D01*
X214176Y-205071D01*
X214560Y-203139D01*
Y-202837D01*
X214619Y-202542D01*
Y-200072D01*
X214531Y-199632D01*
X214487Y-199185D01*
X213626Y-196345D01*
X213414Y-195948D01*
X213242Y-195533D01*
X211593Y-193065D01*
X211275Y-192748D01*
X210990Y-192400D01*
X208696Y-190518D01*
X208300Y-190306D01*
X207926Y-190056D01*
X207493Y-189877D01*
X207287Y-188624D01*
X212791Y-183808D01*
X214055Y-183939D01*
X214671Y-184760D01*
X214969Y-185028D01*
X215230Y-185331D01*
X217303Y-186956D01*
X217660Y-187137D01*
X217990Y-187362D01*
X220413Y-188396D01*
X220805Y-188478D01*
X221182Y-188610D01*
X223790Y-188981D01*
X224190Y-188959D01*
X224589Y-188990D01*
X227204Y-188673D01*
X227584Y-188548D01*
X227977Y-188474D01*
X230421Y-187492D01*
X230756Y-187273D01*
X231117Y-187100D01*
X233223Y-185518D01*
X233490Y-185220D01*
X233793Y-184959D01*
X234606Y-183923D01*
X234606Y-183923D01*
X239650Y-177488D01*
X239689Y-177412D01*
X239751Y-177352D01*
X249111Y-163944D01*
X249146Y-163866D01*
X249205Y-163803D01*
X257808Y-149897D01*
X257838Y-149817D01*
X257893Y-149751D01*
X265714Y-135390D01*
X265739Y-135308D01*
X265791Y-135239D01*
X272804Y-120467D01*
X272825Y-120384D01*
X272872Y-120312D01*
X279056Y-105175D01*
X279073Y-105091D01*
X279116Y-105016D01*
X280602Y-100712D01*
X280613Y-100709D01*
X284956Y-98387D01*
X288763Y-95263D01*
X291887Y-91456D01*
X294209Y-87113D01*
X295638Y-82401D01*
X296121Y-77500D01*
X295638Y-72599D01*
X294209Y-67887D01*
X291887Y-63544D01*
X291397Y-62946D01*
X292612Y-57554D01*
X292614Y-57468D01*
X292645Y-57387D01*
X295350Y-41261D01*
X295348Y-41175D01*
X295374Y-41093D01*
X297182Y-24841D01*
X297175Y-24755D01*
X297196Y-24672D01*
X298102Y-8345D01*
X298090Y-8260D01*
X298106Y-8176D01*
X298106Y-1270D01*
X299376Y0D01*
X346941D01*
Y-346941D01*
X-297000D01*
Y-326000D01*
X-372000D01*
Y-346941D01*
X-396937D01*
Y-163000D01*
Y-161683D01*
X-397015Y-161290D01*
X-397042Y-160891D01*
X-397723Y-158347D01*
X-397900Y-157988D01*
X-398029Y-157609D01*
X-399346Y-155328D01*
X-399610Y-155027D01*
X-399832Y-154695D01*
X-401695Y-152832D01*
X-402027Y-152610D01*
X-402328Y-152346D01*
X-404609Y-151029D01*
X-404988Y-150900D01*
X-405347Y-150723D01*
X-407891Y-150042D01*
X-408290Y-150015D01*
X-408683Y-149937D01*
X-410000D01*
Y-142063D01*
X-408683D01*
X-408291Y-141985D01*
X-407891Y-141958D01*
X-405347Y-141277D01*
X-404988Y-141100D01*
X-404609Y-140971D01*
X-402328Y-139654D01*
X-402027Y-139390D01*
X-401695Y-139168D01*
X-399832Y-137305D01*
X-399610Y-136973D01*
X-399346Y-136672D01*
X-398029Y-134391D01*
X-397900Y-134012D01*
X-397723Y-133653D01*
X-397042Y-131109D01*
X-397015Y-130709D01*
X-396937Y-130317D01*
Y-129000D01*
Y37291D01*
X-396485Y37381D01*
X-396207Y37496D01*
X-395911Y37555D01*
X-394091Y38309D01*
X-393840Y38476D01*
X-393562Y38591D01*
X-391924Y39686D01*
X-391711Y39899D01*
X-391460Y40067D01*
X-390067Y41460D01*
X-389899Y41711D01*
X-389686Y41924D01*
X-388591Y43562D01*
X-388476Y43840D01*
X-388309Y44091D01*
X-387555Y45911D01*
X-387496Y46207D01*
X-387381Y46485D01*
X-386996Y48418D01*
Y48719D01*
X-386937Y49015D01*
Y50000D01*
Y183000D01*
Y184317D01*
X-387015Y184709D01*
X-387042Y185109D01*
X-387723Y187653D01*
X-387900Y188012D01*
X-388029Y188391D01*
X-389346Y190672D01*
X-389610Y190973D01*
X-389832Y191305D01*
X-391695Y193168D01*
X-392027Y193390D01*
X-392328Y193654D01*
X-394609Y194971D01*
X-394988Y195100D01*
X-395347Y195277D01*
X-397891Y195958D01*
X-398290Y195984D01*
X-398683Y196063D01*
X-400000D01*
Y203937D01*
X-398683D01*
X-398291Y204016D01*
X-397891Y204042D01*
X-395347Y204723D01*
X-394988Y204900D01*
X-394609Y205029D01*
X-392328Y206346D01*
X-392027Y206610D01*
X-391695Y206832D01*
X-389832Y208695D01*
X-389610Y209027D01*
X-389346Y209328D01*
X-388029Y211609D01*
X-387900Y211988D01*
X-387723Y212347D01*
X-387042Y214891D01*
X-387015Y215291D01*
X-386937Y215683D01*
Y217000D01*
Y330000D01*
Y330985D01*
X-386996Y331281D01*
Y331582D01*
X-387381Y333515D01*
X-387496Y333793D01*
X-387555Y334089D01*
X-388309Y335909D01*
X-388476Y336160D01*
X-388591Y336438D01*
X-389686Y338076D01*
X-389899Y338289D01*
X-390067Y338540D01*
X-391460Y339933D01*
X-391711Y340101D01*
X-391924Y340314D01*
X-393562Y341409D01*
X-393840Y341524D01*
X-394091Y341691D01*
X-395911Y342445D01*
X-396207Y342504D01*
X-396485Y342619D01*
X-398418Y343004D01*
X-398719D01*
X-399015Y343063D01*
X-494317D01*
X-494710Y342985D01*
X-495109Y342958D01*
X-497653Y342277D01*
X-498012Y342100D01*
X-498391Y341971D01*
X-500672Y340654D01*
X-500973Y340390D01*
X-501305Y340168D01*
X-503168Y338305D01*
X-503390Y337973D01*
X-503654Y337672D01*
X-504971Y335391D01*
X-505100Y335012D01*
X-505277Y334653D01*
X-505958Y332109D01*
X-505984Y331709D01*
X-506063Y331317D01*
Y330000D01*
X-513937D01*
Y330985D01*
X-513996Y331281D01*
Y331582D01*
X-514381Y333515D01*
X-514496Y333793D01*
X-514555Y334089D01*
X-515309Y335909D01*
X-515476Y336160D01*
X-515592Y336438D01*
X-516686Y338076D01*
X-516899Y338289D01*
X-517067Y338540D01*
X-518460Y339933D01*
X-518711Y340101D01*
X-518924Y340314D01*
X-520562Y341409D01*
X-520840Y341524D01*
X-521091Y341691D01*
X-522911Y342445D01*
X-523207Y342504D01*
X-523485Y342619D01*
X-525418Y343004D01*
X-525719D01*
X-526015Y343063D01*
X-646941D01*
Y646941D01*
X346941D01*
X346941Y10000D01*
D02*
G37*
G36*
X236924Y59686D02*
X238562Y58591D01*
X238840Y58476D01*
X239091Y58309D01*
X240911Y57555D01*
X241207Y57496D01*
X241485Y57381D01*
X243418Y56996D01*
X243719D01*
X244015Y56937D01*
X265862D01*
X266898Y52330D01*
X269383Y37493D01*
X271044Y22542D01*
X271877Y7500D01*
X271981Y0D01*
X271877Y-7513D01*
X271041Y-22578D01*
X269375Y-37554D01*
X267381Y-49437D01*
X244015D01*
X243719Y-49496D01*
X243418D01*
X241485Y-49881D01*
X241207Y-49996D01*
X240911Y-50055D01*
X239091Y-50809D01*
X238840Y-50976D01*
X238562Y-51091D01*
X236924Y-52186D01*
X236731Y-52379D01*
X130121D01*
Y-23387D01*
X131294Y-22901D01*
X131395Y-23001D01*
X133105Y-23989D01*
X135013Y-24500D01*
X136987D01*
X138895Y-23989D01*
X139574Y-25063D01*
X136587Y-28050D01*
X135924Y-29042D01*
X135691Y-30213D01*
X135691Y-30213D01*
Y-36500D01*
X132500D01*
Y-48500D01*
X144460D01*
Y-49040D01*
X149980D01*
Y-42500D01*
X151250D01*
Y-41230D01*
X158040D01*
Y-35960D01*
X158788Y-35000D01*
X161960D01*
Y-35540D01*
X170980D01*
Y-25000D01*
Y-14460D01*
X161960D01*
Y-15000D01*
X153059D01*
Y-9801D01*
X154860Y-9319D01*
X157140Y-8002D01*
X159002Y-6140D01*
X160319Y-3860D01*
X160343Y-3770D01*
X161657D01*
X161681Y-3860D01*
X162998Y-6140D01*
X164860Y-8002D01*
X167140Y-9319D01*
X169683Y-10000D01*
X172316D01*
X174860Y-9319D01*
X177140Y-8002D01*
X179002Y-6140D01*
X180319Y-3860D01*
X180343Y-3770D01*
X181657D01*
X181681Y-3860D01*
X182998Y-6140D01*
X184860Y-8002D01*
X187140Y-9319D01*
X189683Y-10000D01*
X192317D01*
X194860Y-9319D01*
X197140Y-8002D01*
X199002Y-6140D01*
X200319Y-3860D01*
X200343Y-3770D01*
X201657D01*
X201681Y-3860D01*
X202998Y-6140D01*
X204860Y-8002D01*
X207140Y-9319D01*
X209683Y-10000D01*
X212316D01*
X214860Y-9319D01*
X217140Y-8002D01*
X219002Y-6140D01*
X219984Y-4439D01*
X220203Y-4371D01*
X221420Y-4486D01*
X222566Y-6472D01*
X224528Y-8434D01*
X226932Y-9822D01*
X229612Y-10540D01*
X229730D01*
Y0D01*
Y10540D01*
X229612D01*
X226932Y9822D01*
X224528Y8434D01*
X222566Y6472D01*
X221420Y4486D01*
X220203Y4371D01*
X219984Y4439D01*
X219161Y5864D01*
X219454Y6815D01*
X219722Y7216D01*
X221099Y7490D01*
X222836Y8650D01*
X223996Y10387D01*
X224403Y12436D01*
Y16725D01*
X219050D01*
X213696D01*
Y12436D01*
X214010Y10861D01*
X213090Y9793D01*
X212316Y10000D01*
X211799D01*
X210921Y11270D01*
X211153Y12436D01*
Y23554D01*
X210787Y25392D01*
X209746Y26950D01*
X208188Y27991D01*
X206350Y28357D01*
X204512Y27991D01*
X202954Y26950D01*
X201913Y25392D01*
X201547Y23554D01*
Y12436D01*
X201913Y10598D01*
X202954Y9040D01*
X203291Y8814D01*
Y7639D01*
X203291Y7639D01*
X203491Y6633D01*
X202998Y6140D01*
X201681Y3860D01*
X201657Y3770D01*
X200343D01*
X200319Y3860D01*
X199002Y6140D01*
X197396Y7746D01*
X197191Y8506D01*
X197279Y9388D01*
X198087Y10598D01*
X198453Y12436D01*
Y23554D01*
X198087Y25392D01*
X197046Y26950D01*
X195488Y27991D01*
X193650Y28357D01*
X191812Y27991D01*
X190254Y26950D01*
X189213Y25392D01*
X188847Y23554D01*
Y12436D01*
X189213Y10598D01*
X188910Y9793D01*
X187140Y9319D01*
X185193Y8194D01*
X184490Y9255D01*
X185387Y10598D01*
X185753Y12436D01*
Y23554D01*
X185387Y25392D01*
X184346Y26950D01*
X182788Y27991D01*
X180950Y28357D01*
X179112Y27991D01*
X177554Y26950D01*
X176513Y25392D01*
X176147Y23554D01*
Y12436D01*
X176513Y10598D01*
X176817Y10143D01*
X175578Y8904D01*
X174860Y9319D01*
X172316Y10000D01*
X169683D01*
X167140Y9319D01*
X164860Y8002D01*
X162998Y6140D01*
X161681Y3860D01*
X161657Y3770D01*
X160343D01*
X160319Y3860D01*
X159002Y6140D01*
X157140Y8002D01*
X154860Y9319D01*
X152317Y10000D01*
X149684D01*
X147140Y9319D01*
X145788Y8538D01*
X141809Y12517D01*
Y14000D01*
X144460D01*
Y13460D01*
X149980D01*
Y20000D01*
Y26540D01*
X144460D01*
Y26000D01*
X132500D01*
Y14000D01*
X135691D01*
Y11250D01*
X135691Y11250D01*
X135924Y10079D01*
X136587Y9087D01*
X141730Y3944D01*
X141681Y3860D01*
X141000Y1317D01*
Y-1317D01*
X141681Y-3860D01*
X142998Y-6140D01*
X144860Y-8002D01*
X146941Y-9204D01*
Y-15000D01*
X143229D01*
X142989Y-14105D01*
X142001Y-12395D01*
X140605Y-10999D01*
X138895Y-10011D01*
X136987Y-9500D01*
X135013D01*
X133105Y-10011D01*
X131395Y-10999D01*
X131294Y-11099D01*
X130121Y-10613D01*
Y59879D01*
X236731D01*
X236924Y59686D01*
D02*
G37*
G36*
X79879Y-47491D02*
X78609Y-47831D01*
X78034Y-46835D01*
X76165Y-44966D01*
X73875Y-43644D01*
X71322Y-42960D01*
X71270D01*
Y-53000D01*
Y-63040D01*
X71322D01*
X73875Y-62356D01*
X76165Y-61034D01*
X78034Y-59165D01*
X78609Y-58169D01*
X79879Y-58509D01*
Y-77500D01*
X80362Y-82401D01*
X81791Y-87113D01*
X84113Y-91456D01*
X87237Y-95263D01*
X91044Y-98387D01*
X95387Y-100709D01*
X100099Y-102138D01*
X105000Y-102621D01*
X121219D01*
X121745Y-103891D01*
X121185Y-104451D01*
X120500Y-106105D01*
Y-107895D01*
X120727Y-108444D01*
X120022Y-109500D01*
X97500D01*
Y-112941D01*
X93500D01*
Y-110000D01*
X94302Y-109062D01*
X94815Y-108549D01*
X95500Y-106895D01*
Y-105105D01*
X94815Y-103451D01*
X93549Y-102185D01*
X91895Y-101500D01*
X90105D01*
X88451Y-102185D01*
X87185Y-103451D01*
X86500Y-105105D01*
Y-106895D01*
X87185Y-108549D01*
X87366Y-108730D01*
X86840Y-110000D01*
X81540D01*
Y-109460D01*
X76020D01*
Y-116000D01*
Y-122540D01*
X81540D01*
Y-122000D01*
X93500D01*
Y-119059D01*
X97500D01*
Y-125500D01*
X98941D01*
Y-131243D01*
X97613Y-132572D01*
X97085D01*
X96040Y-131874D01*
Y-126960D01*
X88770D01*
Y-132000D01*
X86230D01*
Y-126960D01*
X78960D01*
Y-126960D01*
X78911Y-126993D01*
X77895Y-126572D01*
X76105D01*
X74451Y-127257D01*
X73185Y-128523D01*
X72500Y-130177D01*
Y-131967D01*
X73185Y-133621D01*
X74451Y-134887D01*
X74214Y-135422D01*
X74185Y-135451D01*
X73500Y-137105D01*
Y-138000D01*
X71743D01*
X70089Y-138685D01*
X68823Y-139951D01*
X68138Y-141605D01*
Y-143395D01*
X68823Y-145049D01*
X70089Y-146315D01*
X71743Y-147000D01*
X73354D01*
X75516Y-149163D01*
X75516Y-149163D01*
X76509Y-149826D01*
X77679Y-150059D01*
X77679Y-150059D01*
X79500D01*
Y-152941D01*
X68906D01*
X66000Y-150036D01*
Y-148966D01*
X65315Y-147312D01*
X64049Y-146047D01*
X63946Y-144629D01*
X64250Y-143895D01*
Y-142105D01*
X63565Y-140451D01*
X62299Y-139185D01*
X60645Y-138500D01*
X58855D01*
X57201Y-139185D01*
X55935Y-140451D01*
X55250Y-142105D01*
Y-143895D01*
X55935Y-145549D01*
X57201Y-146815D01*
X57304Y-148232D01*
X57000Y-148966D01*
Y-150757D01*
X57685Y-152410D01*
X58951Y-153676D01*
X60605Y-154361D01*
X61674D01*
X65476Y-158163D01*
X66468Y-158826D01*
X67639Y-159059D01*
X79500D01*
Y-160941D01*
X64742D01*
X64539Y-160451D01*
X63273Y-159185D01*
X61619Y-158500D01*
X59829D01*
X58175Y-159185D01*
X56909Y-160451D01*
X56224Y-162105D01*
Y-163895D01*
X56909Y-165549D01*
X58175Y-166815D01*
X59829Y-167500D01*
X61619D01*
X62684Y-167059D01*
X79500D01*
Y-177200D01*
X63451D01*
X63451Y-177200D01*
X62281Y-177433D01*
X61288Y-178096D01*
X61288Y-178096D01*
X59874Y-179510D01*
X59211Y-180502D01*
X59004Y-181542D01*
X57451Y-182185D01*
X56185Y-183451D01*
X55500Y-185105D01*
Y-186895D01*
X56185Y-188549D01*
X57451Y-189815D01*
X59105Y-190500D01*
X60895D01*
X62549Y-189815D01*
X63815Y-188549D01*
X64500Y-186895D01*
Y-185105D01*
X64439Y-184957D01*
X64863Y-184322D01*
X65063Y-183318D01*
X79500D01*
Y-192500D01*
X95500D01*
Y-191059D01*
X98000D01*
X98000Y-191059D01*
X99171Y-190826D01*
X100163Y-190163D01*
X102200Y-188125D01*
X103105Y-188500D01*
X104895D01*
X105246Y-188355D01*
X106301Y-189060D01*
Y-191666D01*
X106301Y-191666D01*
X106534Y-192837D01*
X106797Y-193230D01*
X106407Y-194500D01*
X97500D01*
Y-198526D01*
X96230Y-199053D01*
X95549Y-198372D01*
X93895Y-197687D01*
X92105D01*
X90817Y-198220D01*
X90208Y-198257D01*
X89232Y-197794D01*
X88601Y-196702D01*
X87298Y-195399D01*
X85702Y-194477D01*
X83922Y-194000D01*
X82078D01*
X80298Y-194477D01*
X78702Y-195399D01*
X77399Y-196702D01*
X76477Y-198298D01*
X76000Y-200078D01*
Y-201922D01*
X76477Y-203702D01*
X77399Y-205298D01*
X78702Y-206601D01*
X80298Y-207523D01*
X82078Y-208000D01*
X83922D01*
X85702Y-207523D01*
X87298Y-206601D01*
X88601Y-205298D01*
X89951Y-205501D01*
X90451Y-206001D01*
X92105Y-206686D01*
X93895D01*
X95549Y-206001D01*
X96230Y-205320D01*
X97500Y-205847D01*
Y-210500D01*
X96230Y-210500D01*
X87500D01*
Y-210576D01*
X86230Y-211102D01*
X85855Y-210727D01*
X84270Y-210071D01*
Y-215000D01*
Y-219929D01*
X85750Y-219316D01*
X86288Y-219544D01*
X86960Y-219964D01*
Y-223730D01*
X94000D01*
Y-226270D01*
X86960D01*
Y-230540D01*
X87500D01*
Y-239500D01*
X86638Y-240413D01*
X77362D01*
X76500Y-239500D01*
Y-229500D01*
X63500D01*
X62448Y-228974D01*
X61383Y-227909D01*
X59792Y-226990D01*
X58018Y-226515D01*
X56182D01*
X54408Y-226990D01*
X52817Y-227909D01*
X51519Y-229207D01*
X50600Y-230798D01*
X50125Y-232572D01*
Y-234408D01*
X50600Y-236182D01*
X51519Y-237773D01*
X52817Y-239071D01*
X52941Y-239143D01*
X52601Y-240413D01*
X36750D01*
X34571Y-238233D01*
Y-236793D01*
X34815Y-236549D01*
X35500Y-234895D01*
Y-233105D01*
X34815Y-231451D01*
X33549Y-230185D01*
X31895Y-229500D01*
X30105D01*
X28451Y-230185D01*
X27185Y-231451D01*
X26500Y-233105D01*
Y-234895D01*
X27185Y-236549D01*
X28451Y-237815D01*
X28453Y-237816D01*
Y-239500D01*
X28453Y-239500D01*
X28686Y-240671D01*
X29349Y-241663D01*
X33321Y-245634D01*
X34313Y-246298D01*
X35483Y-246530D01*
X53219D01*
X53559Y-247800D01*
X52817Y-248229D01*
X51519Y-249527D01*
X50600Y-251118D01*
X50125Y-252892D01*
Y-254728D01*
X50600Y-256502D01*
X51519Y-258093D01*
X52817Y-259391D01*
X54408Y-260310D01*
X56182Y-260785D01*
X58018D01*
X59792Y-260310D01*
X61383Y-259391D01*
X62681Y-258093D01*
X63600Y-256502D01*
X64075Y-254728D01*
Y-252892D01*
X63600Y-251118D01*
X62681Y-249527D01*
X61383Y-248229D01*
X60641Y-247800D01*
X60981Y-246530D01*
X77946D01*
X78540Y-247800D01*
X78000Y-249105D01*
Y-250895D01*
X78685Y-252549D01*
X79951Y-253815D01*
X81605Y-254500D01*
X83395D01*
X85049Y-253815D01*
X86315Y-252549D01*
X87000Y-250895D01*
Y-249105D01*
X86460Y-247800D01*
X87054Y-246530D01*
X90510D01*
X90906Y-246939D01*
X91293Y-247673D01*
X90700Y-249105D01*
Y-250895D01*
X91385Y-252549D01*
X92651Y-253815D01*
X93248Y-254062D01*
X93210Y-255421D01*
X82594Y-259136D01*
X67934Y-263359D01*
X53061Y-266754D01*
X38020Y-269310D01*
X22860Y-271018D01*
X7628Y-271873D01*
X-7628D01*
X-22860Y-271018D01*
X-38021Y-269310D01*
X-53061Y-266754D01*
X-67934Y-263359D01*
X-82594Y-259136D01*
X-96994Y-254097D01*
X-111089Y-248259D01*
X-124834Y-241639D01*
X-138186Y-234260D01*
X-151104Y-226143D01*
X-163546Y-217315D01*
X-168286Y-213535D01*
X-168080Y-212075D01*
X-167451Y-211815D01*
X-166185Y-210549D01*
X-165500Y-208895D01*
Y-207105D01*
X-166185Y-205451D01*
X-166941Y-204695D01*
Y-191937D01*
X-163837Y-188833D01*
X-163174Y-187840D01*
X-162941Y-186670D01*
X-162941Y-186670D01*
Y-171144D01*
X-162941Y-171144D01*
X-163174Y-169973D01*
X-163837Y-168981D01*
X-163837Y-168981D01*
X-167983Y-164835D01*
X-168072Y-163934D01*
X-167685Y-163547D01*
X-167000Y-161893D01*
Y-160102D01*
X-167628Y-158585D01*
X-167391Y-158159D01*
X-167270Y-158040D01*
X-166000Y-158572D01*
Y-158900D01*
X-153000D01*
Y-146900D01*
X-166000D01*
Y-149841D01*
X-167000D01*
X-168171Y-150074D01*
X-169163Y-150737D01*
X-169163Y-150737D01*
X-169768Y-151342D01*
X-170941Y-150856D01*
Y-142985D01*
X-171174Y-141815D01*
X-171837Y-140823D01*
X-173941Y-138718D01*
Y-90000D01*
X-174174Y-88829D01*
X-174837Y-87837D01*
X-175830Y-87174D01*
X-177000Y-86941D01*
X-190941D01*
Y-80305D01*
X-190185Y-79549D01*
X-189500Y-77895D01*
Y-76105D01*
X-190185Y-74451D01*
X-191451Y-73185D01*
X-193105Y-72500D01*
X-194895D01*
X-196549Y-73185D01*
X-197815Y-74451D01*
X-198500Y-76105D01*
Y-77895D01*
X-197815Y-79549D01*
X-197059Y-80305D01*
Y-86941D01*
X-228500D01*
Y-83500D01*
X-241500D01*
Y-95500D01*
X-228500D01*
Y-93059D01*
X-180059D01*
Y-139985D01*
X-180059Y-139985D01*
X-179826Y-141156D01*
X-179163Y-142148D01*
X-177059Y-144252D01*
Y-145498D01*
X-178115Y-146203D01*
X-178605Y-146000D01*
X-180395D01*
X-182049Y-146685D01*
X-183315Y-147951D01*
X-184000Y-149605D01*
Y-151395D01*
X-183315Y-153049D01*
X-182049Y-154315D01*
X-180395Y-155000D01*
X-180000Y-155482D01*
X-180059Y-155778D01*
X-180059Y-155778D01*
Y-162472D01*
X-181329Y-162998D01*
X-183765Y-160561D01*
X-191204Y-168000D01*
X-178108Y-181096D01*
X-170670Y-173657D01*
X-172885Y-171442D01*
X-172430Y-170292D01*
X-171301Y-170169D01*
X-169059Y-172411D01*
Y-178973D01*
X-170329Y-179821D01*
X-171105Y-179500D01*
X-172895D01*
X-174549Y-180185D01*
X-175815Y-181451D01*
X-176500Y-183105D01*
Y-184895D01*
X-175815Y-186549D01*
X-174549Y-187815D01*
X-173514Y-188244D01*
X-172884Y-189393D01*
X-172880Y-189770D01*
X-173059Y-190670D01*
X-173059Y-190670D01*
Y-204695D01*
X-173815Y-205451D01*
X-174453Y-206992D01*
X-174652Y-207171D01*
X-175770Y-207538D01*
X-186866Y-197623D01*
X-190841Y-193758D01*
Y-191540D01*
X-191754Y-189335D01*
X-193442Y-187647D01*
X-195647Y-186734D01*
X-198034D01*
X-200239Y-187647D01*
X-200927Y-186662D01*
X-199664Y-185399D01*
X-198750Y-183193D01*
Y-180807D01*
X-198811Y-180658D01*
X-197735Y-179939D01*
X-187343Y-190330D01*
X-179904Y-182892D01*
X-193898Y-168898D01*
X-207892Y-154904D01*
X-215330Y-162343D01*
X-211512Y-166162D01*
X-212231Y-167238D01*
X-212806Y-167000D01*
X-214663D01*
X-218789Y-161570D01*
X-227397Y-149211D01*
X-235297Y-136413D01*
X-242478Y-123198D01*
X-248917Y-109606D01*
X-254595Y-95680D01*
X-259495Y-81460D01*
X-263601Y-66991D01*
X-266901Y-52318D01*
X-269385Y-37485D01*
X-270326Y-29009D01*
X-269479Y-28063D01*
X-239015D01*
X-238719Y-28004D01*
X-238418D01*
X-236485Y-27619D01*
X-236207Y-27504D01*
X-235912Y-27445D01*
X-234091Y-26691D01*
X-233840Y-26524D01*
X-233562Y-26409D01*
X-231924Y-25314D01*
X-231731Y-25121D01*
X-73415Y-25121D01*
X-73266Y-25637D01*
X-69935Y-33679D01*
X-65725Y-41297D01*
X-60687Y-48397D01*
X-54887Y-54887D01*
X-48397Y-60687D01*
X-41297Y-65725D01*
X-33679Y-69935D01*
X-25637Y-73266D01*
X-17273Y-75676D01*
X-8691Y-77134D01*
X0Y-77622D01*
X8691Y-77134D01*
X17273Y-75676D01*
X25637Y-73266D01*
X33679Y-69935D01*
X41297Y-65725D01*
X48397Y-60687D01*
X54887Y-54887D01*
X59026Y-50255D01*
X60175Y-50876D01*
X59960Y-51678D01*
Y-51730D01*
X68730D01*
Y-42960D01*
X68678D01*
X66125Y-43644D01*
X65264Y-44141D01*
X64389Y-43180D01*
X65725Y-41297D01*
X69935Y-33679D01*
X73266Y-25637D01*
X73415Y-25121D01*
X79879D01*
Y-47491D01*
D02*
G37*
G36*
X236924Y-102814D02*
X238562Y-103909D01*
X238840Y-104024D01*
X239091Y-104191D01*
X240911Y-104945D01*
X241207Y-105004D01*
X241485Y-105119D01*
X243418Y-105504D01*
X243719D01*
X244015Y-105563D01*
X249424D01*
X250132Y-106617D01*
X248833Y-109797D01*
X242370Y-123409D01*
X235164Y-136642D01*
X227236Y-149455D01*
X218598Y-161828D01*
X214658Y-167000D01*
X212806D01*
X210601Y-167913D01*
X208913Y-169601D01*
X208000Y-171807D01*
Y-174193D01*
X208645Y-175750D01*
X207670Y-176715D01*
X205944Y-176000D01*
X203556D01*
X201351Y-176913D01*
X199664Y-178601D01*
X198750Y-180807D01*
Y-183193D01*
X199664Y-185399D01*
X200927Y-186662D01*
X200239Y-187647D01*
X198034Y-186734D01*
X195647D01*
X193442Y-187647D01*
X191754Y-189335D01*
X190841Y-191540D01*
Y-193758D01*
X186865Y-197623D01*
X175474Y-207803D01*
X163546Y-217315D01*
X160784Y-219275D01*
X160355Y-218953D01*
X159899Y-218345D01*
X160500Y-216895D01*
Y-215105D01*
X159815Y-213451D01*
X158549Y-212185D01*
X157547Y-211770D01*
X157800Y-210500D01*
X162500D01*
Y-207500D01*
X163549Y-207065D01*
X164815Y-205799D01*
X165500Y-204145D01*
Y-202355D01*
X164815Y-200701D01*
X163549Y-199435D01*
X162500Y-199001D01*
Y-194500D01*
X129523D01*
X128947Y-193230D01*
X129500Y-191895D01*
Y-190105D01*
X128815Y-188451D01*
X127549Y-187185D01*
X125895Y-186500D01*
X125367D01*
X124820Y-185954D01*
Y-173062D01*
X126163Y-171719D01*
X126163Y-171719D01*
X126826Y-170727D01*
X127059Y-169556D01*
X127059Y-169556D01*
Y-160444D01*
X127059Y-160444D01*
X126826Y-159273D01*
X126163Y-158281D01*
X126163Y-158281D01*
X124820Y-156938D01*
Y-134944D01*
X125899Y-134237D01*
X126932Y-134704D01*
X127024Y-135443D01*
X126750Y-136105D01*
Y-137895D01*
X127435Y-139549D01*
X128701Y-140815D01*
X130355Y-141500D01*
X132145D01*
X133799Y-140815D01*
X135065Y-139549D01*
X135750Y-137895D01*
Y-136285D01*
X136163Y-135872D01*
X136163Y-135872D01*
X136826Y-134879D01*
X137059Y-133709D01*
X137059Y-133709D01*
Y-125500D01*
X138941D01*
Y-148259D01*
X135918Y-151283D01*
X134316D01*
X133559Y-150526D01*
X131905Y-149841D01*
X130115D01*
X128461Y-150526D01*
X127196Y-151792D01*
X126510Y-153446D01*
Y-155236D01*
X127196Y-156890D01*
X128461Y-158156D01*
X130115Y-158841D01*
X131905D01*
X133559Y-158156D01*
X134316Y-157400D01*
X137184D01*
X137184Y-157400D01*
X138355Y-157167D01*
X139347Y-156504D01*
X144163Y-151689D01*
X144163Y-151689D01*
X144826Y-150696D01*
X145059Y-149526D01*
X145059Y-149526D01*
Y-147082D01*
X145653Y-146801D01*
X146329Y-146693D01*
X147451Y-147815D01*
X149105Y-148500D01*
X150895D01*
X152549Y-147815D01*
X153815Y-146549D01*
X154500Y-144895D01*
Y-143105D01*
X153815Y-141451D01*
X152549Y-140185D01*
X150895Y-139500D01*
X149105D01*
X147451Y-140185D01*
X146329Y-141307D01*
X145653Y-141199D01*
X145059Y-140918D01*
Y-125500D01*
X162500D01*
Y-109500D01*
X162500D01*
X162090Y-108886D01*
X162500Y-107895D01*
Y-106105D01*
X161815Y-104451D01*
X161255Y-103891D01*
X161781Y-102621D01*
X183883D01*
X184281Y-103619D01*
X184269Y-103653D01*
X183927Y-103996D01*
X183750Y-103961D01*
X183750Y-103961D01*
X170000D01*
X169803Y-104000D01*
X168000D01*
Y-105803D01*
X167961Y-106000D01*
Y-116000D01*
X168000Y-116197D01*
Y-118000D01*
X169441D01*
Y-127500D01*
X164500D01*
Y-138915D01*
X163444Y-139621D01*
X163152Y-139500D01*
X161362D01*
X159708Y-140185D01*
X158442Y-141451D01*
X157757Y-143105D01*
Y-144895D01*
X158442Y-146549D01*
X159708Y-147815D01*
X161362Y-148500D01*
X163152D01*
X163444Y-148379D01*
X164500Y-149085D01*
Y-155340D01*
X163230Y-155866D01*
X162549Y-155185D01*
X160895Y-154500D01*
X159105D01*
X157451Y-155185D01*
X156185Y-156451D01*
X155500Y-158105D01*
Y-159895D01*
X156185Y-161549D01*
X157451Y-162815D01*
X158686Y-163327D01*
Y-164673D01*
X157451Y-165185D01*
X156185Y-166451D01*
X155500Y-168105D01*
Y-169895D01*
X156185Y-171549D01*
X157451Y-172815D01*
X158255Y-173148D01*
Y-174522D01*
X157925Y-174659D01*
X156659Y-175925D01*
X155974Y-177579D01*
Y-179369D01*
X156659Y-181023D01*
X157925Y-182289D01*
X159579Y-182974D01*
X161369D01*
X162957Y-182316D01*
X163351Y-182589D01*
X163960Y-183148D01*
Y-186730D01*
X172500D01*
X181040D01*
Y-182960D01*
X180500D01*
Y-177550D01*
X181770Y-177209D01*
X182399Y-178298D01*
X183702Y-179601D01*
X185298Y-180523D01*
X187078Y-181000D01*
X188922D01*
X190702Y-180523D01*
X192298Y-179601D01*
X193601Y-178298D01*
X194523Y-176702D01*
X195000Y-174922D01*
Y-173078D01*
X194523Y-171298D01*
X194234Y-170798D01*
X195164Y-169868D01*
X196298Y-170523D01*
X198078Y-171000D01*
X199922D01*
X201702Y-170523D01*
X203298Y-169601D01*
X204601Y-168298D01*
X205523Y-166702D01*
X206000Y-164922D01*
Y-163078D01*
X205523Y-161298D01*
X204654Y-159793D01*
X204755Y-159396D01*
X205201Y-158505D01*
X205928Y-158482D01*
X206399Y-159298D01*
X207702Y-160601D01*
X209298Y-161523D01*
X211078Y-162000D01*
X212922D01*
X214702Y-161523D01*
X216298Y-160601D01*
X217601Y-159298D01*
X218523Y-157702D01*
X219000Y-155922D01*
Y-154078D01*
X218523Y-152298D01*
X217601Y-150702D01*
X216298Y-149399D01*
X214702Y-148477D01*
X212922Y-148000D01*
X211078D01*
X209298Y-148477D01*
X207702Y-149399D01*
X206399Y-150702D01*
X205323Y-150048D01*
X205523Y-149702D01*
X206000Y-147922D01*
Y-146078D01*
X205523Y-144298D01*
X204601Y-142702D01*
X203298Y-141399D01*
X201702Y-140477D01*
X199922Y-140000D01*
X198078D01*
X196298Y-140477D01*
X194702Y-141399D01*
X193399Y-142702D01*
X192477Y-144298D01*
X192439Y-144441D01*
X180500D01*
Y-143059D01*
X186000D01*
X187171Y-142826D01*
X188163Y-142163D01*
X188272Y-142000D01*
X188922D01*
X190702Y-141523D01*
X192298Y-140601D01*
X193601Y-139298D01*
X194523Y-137702D01*
X195000Y-135922D01*
Y-134078D01*
X194523Y-132298D01*
X193601Y-130702D01*
X192298Y-129399D01*
X190702Y-128477D01*
X188922Y-128000D01*
X187078D01*
X185298Y-128477D01*
X183702Y-129399D01*
X182399Y-130702D01*
X181770Y-131791D01*
X180500Y-131451D01*
Y-127500D01*
X175559D01*
Y-118039D01*
X183750D01*
X184530Y-117884D01*
X184795Y-117707D01*
X184918Y-117831D01*
X185759Y-118392D01*
X185759Y-118392D01*
X186750Y-118589D01*
X187605Y-118589D01*
Y-111000D01*
X188875D01*
Y-109730D01*
X198590D01*
Y-106000D01*
X198540Y-105750D01*
X198540Y-103460D01*
X199462Y-102621D01*
X236731D01*
X236924Y-102814D01*
D02*
G37*
G36*
X-427086Y-149399D02*
X-425399Y-151087D01*
X-424853Y-151313D01*
Y-152687D01*
X-425399Y-152913D01*
X-427086Y-154601D01*
X-428000Y-156806D01*
Y-159193D01*
X-427086Y-161399D01*
X-425399Y-163086D01*
X-423194Y-164000D01*
X-423063D01*
Y-346941D01*
X-646941D01*
Y-147500D01*
X-427873D01*
X-427086Y-149399D01*
D02*
G37*
%LPC*%
G36*
X-588495Y311430D02*
X-588730D01*
Y301270D01*
X-578570D01*
Y301505D01*
X-579349Y304412D01*
X-580854Y307018D01*
X-582982Y309146D01*
X-585588Y310651D01*
X-588495Y311430D01*
D02*
G37*
G36*
X-591270D02*
X-591505D01*
X-594412Y310651D01*
X-597018Y309146D01*
X-599146Y307018D01*
X-600651Y304412D01*
X-601430Y301505D01*
Y301270D01*
X-591270D01*
Y311430D01*
D02*
G37*
G36*
X-548566Y310890D02*
X-551434D01*
X-554203Y310148D01*
X-556687Y308714D01*
X-558714Y306687D01*
X-560148Y304203D01*
X-560890Y301434D01*
Y298566D01*
X-560148Y295797D01*
X-558714Y293313D01*
X-556687Y291286D01*
X-554203Y289852D01*
X-551434Y289110D01*
X-548566D01*
X-545797Y289852D01*
X-543313Y291286D01*
X-541286Y293313D01*
X-539852Y295797D01*
X-539110Y298566D01*
Y301434D01*
X-539852Y304203D01*
X-541286Y306687D01*
X-543313Y308714D01*
X-545797Y310148D01*
X-548566Y310890D01*
D02*
G37*
G36*
X-578570Y298730D02*
X-588730D01*
Y288570D01*
X-588495D01*
X-585588Y289349D01*
X-582982Y290854D01*
X-580854Y292982D01*
X-579349Y295588D01*
X-578570Y298495D01*
Y298730D01*
D02*
G37*
G36*
X-591270D02*
X-601430D01*
Y298495D01*
X-600651Y295588D01*
X-599146Y292982D01*
X-597018Y290854D01*
X-594412Y289349D01*
X-591505Y288570D01*
X-591270D01*
Y298730D01*
D02*
G37*
G36*
X-458013Y229500D02*
X-459987D01*
X-461895Y228989D01*
X-463605Y228001D01*
X-465001Y226605D01*
X-465989Y224895D01*
X-466500Y222987D01*
Y221013D01*
X-465989Y219105D01*
X-465001Y217395D01*
X-463605Y215998D01*
X-461895Y215011D01*
X-459987Y214500D01*
X-458013D01*
X-456105Y215011D01*
X-454395Y215998D01*
X-452999Y217395D01*
X-452011Y219105D01*
X-451500Y221013D01*
Y222987D01*
X-452011Y224895D01*
X-452999Y226605D01*
X-454395Y228001D01*
X-456105Y228989D01*
X-458013Y229500D01*
D02*
G37*
G36*
X-440684Y217000D02*
X-443316D01*
X-445860Y216318D01*
X-448140Y215002D01*
X-450002Y213140D01*
X-451319Y210860D01*
X-452000Y208316D01*
Y205683D01*
X-451319Y203140D01*
X-450002Y200860D01*
X-448140Y198998D01*
X-445860Y197682D01*
X-445770Y197657D01*
Y196343D01*
X-445860Y196318D01*
X-448140Y195002D01*
X-450002Y193140D01*
X-451319Y190860D01*
X-452000Y188316D01*
Y185683D01*
X-451319Y183140D01*
X-450002Y180860D01*
X-448140Y178998D01*
X-445860Y177682D01*
X-445770Y177657D01*
Y176343D01*
X-445860Y176318D01*
X-448140Y175002D01*
X-449730Y173412D01*
X-451000Y173500D01*
X-451000Y173500D01*
X-451000Y173500D01*
X-463000D01*
Y160500D01*
X-451000D01*
X-451000Y160500D01*
Y160500D01*
X-449730Y160588D01*
X-448140Y158998D01*
X-445860Y157682D01*
X-445770Y157657D01*
Y156343D01*
X-445860Y156319D01*
X-448140Y155002D01*
X-449730Y153412D01*
X-451000Y153500D01*
X-451000Y153500D01*
X-451000Y153500D01*
X-463000D01*
Y140500D01*
X-451000D01*
X-451000Y140500D01*
Y140500D01*
X-449730Y140588D01*
X-448140Y138998D01*
X-446439Y138016D01*
X-446371Y137797D01*
X-446486Y136580D01*
X-448472Y135434D01*
X-450434Y133472D01*
X-451822Y131068D01*
X-452540Y128388D01*
Y128270D01*
X-442000D01*
X-431460D01*
Y128388D01*
X-432178Y131068D01*
X-433566Y133472D01*
X-435528Y135434D01*
X-437514Y136580D01*
X-437629Y137797D01*
X-437561Y138016D01*
X-435860Y138998D01*
X-433998Y140860D01*
X-432682Y143140D01*
X-432467Y143941D01*
X-429317D01*
X-428601Y142702D01*
X-427298Y141399D01*
X-425702Y140477D01*
X-423922Y140000D01*
X-422078D01*
X-420298Y140477D01*
X-418702Y141399D01*
X-417399Y142702D01*
X-416477Y144298D01*
X-416000Y146078D01*
Y147922D01*
X-416477Y149702D01*
X-417399Y151298D01*
X-418702Y152601D01*
X-420298Y153523D01*
X-422078Y154000D01*
X-423922D01*
X-425702Y153523D01*
X-427298Y152601D01*
X-428601Y151298D01*
X-429317Y150059D01*
X-432467D01*
X-432682Y150860D01*
X-433998Y153140D01*
X-435860Y155002D01*
X-438140Y156319D01*
X-438230Y156343D01*
Y157657D01*
X-438140Y157682D01*
X-435860Y158998D01*
X-433998Y160860D01*
X-432682Y163140D01*
X-432467Y163941D01*
X-429317D01*
X-428601Y162702D01*
X-427298Y161399D01*
X-425702Y160477D01*
X-423922Y160000D01*
X-422078D01*
X-420298Y160477D01*
X-418702Y161399D01*
X-417399Y162702D01*
X-416477Y164298D01*
X-416000Y166078D01*
Y167922D01*
X-416477Y169702D01*
X-417399Y171298D01*
X-418702Y172601D01*
X-420298Y173523D01*
X-422078Y174000D01*
X-423922D01*
X-425702Y173523D01*
X-427298Y172601D01*
X-428601Y171298D01*
X-429317Y170059D01*
X-432467D01*
X-432682Y170860D01*
X-433998Y173140D01*
X-435860Y175002D01*
X-438140Y176318D01*
X-438230Y176343D01*
Y177657D01*
X-438140Y177682D01*
X-435860Y178998D01*
X-433998Y180860D01*
X-432682Y183140D01*
X-432000Y185683D01*
Y188316D01*
X-432682Y190860D01*
X-433998Y193140D01*
X-435860Y195002D01*
X-438140Y196318D01*
X-438230Y196343D01*
Y197657D01*
X-438140Y197682D01*
X-435860Y198998D01*
X-433998Y200860D01*
X-432682Y203140D01*
X-432000Y205683D01*
Y208316D01*
X-432682Y210860D01*
X-433998Y213140D01*
X-435860Y215002D01*
X-438140Y216318D01*
X-440684Y217000D01*
D02*
G37*
G36*
X-465000Y173500D02*
X-477000D01*
Y160500D01*
X-474059D01*
Y153500D01*
X-477000D01*
Y140500D01*
X-474059D01*
Y135500D01*
X-477000D01*
Y123540D01*
X-477540D01*
Y118020D01*
X-471000D01*
X-464460D01*
Y123540D01*
X-465000D01*
Y135500D01*
X-467941D01*
Y140500D01*
X-465000D01*
Y153500D01*
X-467941D01*
Y160500D01*
X-465000D01*
Y173500D01*
D02*
G37*
G36*
X-464460Y115480D02*
X-469730D01*
Y109960D01*
X-464460D01*
Y115480D01*
D02*
G37*
G36*
X-472270D02*
X-477540D01*
Y109960D01*
X-472270D01*
Y115480D01*
D02*
G37*
G36*
X-431460Y125730D02*
X-442000D01*
X-452540D01*
Y125612D01*
X-451822Y122932D01*
X-450434Y120528D01*
X-448472Y118566D01*
X-447029Y117733D01*
Y116267D01*
X-448472Y115434D01*
X-450434Y113472D01*
X-451822Y111068D01*
X-452540Y108388D01*
Y108270D01*
X-442000D01*
X-431460D01*
Y108388D01*
X-432178Y111068D01*
X-433566Y113472D01*
X-435528Y115434D01*
X-436970Y116267D01*
Y117733D01*
X-435528Y118566D01*
X-433566Y120528D01*
X-432178Y122932D01*
X-431460Y125612D01*
Y125730D01*
D02*
G37*
G36*
Y105730D02*
X-440730D01*
Y96460D01*
X-440612D01*
X-437932Y97178D01*
X-435528Y98566D01*
X-433566Y100528D01*
X-432178Y102932D01*
X-431460Y105612D01*
Y105730D01*
D02*
G37*
G36*
X-443270D02*
X-452540D01*
Y105612D01*
X-451822Y102932D01*
X-450434Y100528D01*
X-448472Y98566D01*
X-446068Y97178D01*
X-443388Y96460D01*
X-443270D01*
Y105730D01*
D02*
G37*
G36*
X-420210Y91790D02*
X-438730D01*
Y81270D01*
X-420210D01*
Y91790D01*
D02*
G37*
G36*
X-441270D02*
X-459790D01*
Y81270D01*
X-441270D01*
Y91790D01*
D02*
G37*
G36*
X-420210Y78730D02*
X-438730D01*
Y68210D01*
X-420210D01*
Y78730D01*
D02*
G37*
G36*
X-441270D02*
X-459790D01*
Y68210D01*
X-441270D01*
Y78730D01*
D02*
G37*
G36*
X56540Y264040D02*
X51270D01*
Y258520D01*
X56540D01*
Y264040D01*
D02*
G37*
G36*
X48730D02*
X43460D01*
Y258520D01*
X48730D01*
Y264040D01*
D02*
G37*
G36*
X17270Y250870D02*
Y246670D01*
X21470D01*
X20697Y248538D01*
X19138Y250097D01*
X17270Y250870D01*
D02*
G37*
G36*
X21470Y244130D02*
X17270D01*
Y239930D01*
X19138Y240704D01*
X20697Y242262D01*
X21470Y244130D01*
D02*
G37*
G36*
X-657Y256500D02*
X-4343D01*
X-7904Y255546D01*
X-11096Y253703D01*
X-13703Y251096D01*
X-15546Y247904D01*
X-16500Y244343D01*
Y240657D01*
X-15546Y237096D01*
X-13703Y233904D01*
X-11096Y231297D01*
X-7904Y229454D01*
X-4343Y228500D01*
X-657D01*
X2904Y229454D01*
X6096Y231297D01*
X8703Y233904D01*
X10546Y237096D01*
X11418Y240351D01*
X12649Y240916D01*
X12862Y240704D01*
X14730Y239930D01*
Y245400D01*
Y250870D01*
X12862Y250097D01*
X11521Y248755D01*
X10471Y248704D01*
X10034Y248791D01*
X8703Y251096D01*
X6096Y253703D01*
X2904Y255546D01*
X-657Y256500D01*
D02*
G37*
G36*
X-63460Y239040D02*
X-68730D01*
Y233520D01*
X-63460D01*
Y239040D01*
D02*
G37*
G36*
X-71270D02*
X-76540D01*
Y233520D01*
X-71270D01*
Y239040D01*
D02*
G37*
G36*
X-84105Y230500D02*
X-85895D01*
X-87549Y229815D01*
X-88815Y228549D01*
X-89500Y226895D01*
Y225105D01*
X-88815Y223451D01*
X-87549Y222185D01*
X-85895Y221500D01*
X-84105D01*
X-82451Y222185D01*
X-81185Y223451D01*
X-80500Y225105D01*
Y226895D01*
X-81185Y228549D01*
X-82451Y229815D01*
X-84105Y230500D01*
D02*
G37*
G36*
X-38105Y229017D02*
X-39895D01*
X-41549Y228332D01*
X-42815Y227066D01*
X-43500Y225412D01*
Y223622D01*
X-42815Y221968D01*
X-41549Y220702D01*
X-39895Y220017D01*
X-38105D01*
X-36451Y220702D01*
X-35185Y221968D01*
X-34500Y223622D01*
Y225412D01*
X-35185Y227066D01*
X-36451Y228332D01*
X-38105Y229017D01*
D02*
G37*
G36*
X-9105Y225500D02*
X-10895D01*
X-12549Y224815D01*
X-13815Y223549D01*
X-14500Y221895D01*
Y220105D01*
X-13815Y218451D01*
X-12549Y217185D01*
X-10895Y216500D01*
X-9105D01*
X-7451Y217185D01*
X-6185Y218451D01*
X-5500Y220105D01*
Y221895D01*
X-6185Y223549D01*
X-7451Y224815D01*
X-9105Y225500D01*
D02*
G37*
G36*
X-63460Y230980D02*
X-76540D01*
Y225460D01*
X-76000D01*
Y213500D01*
X-64000D01*
Y225460D01*
X-63460D01*
Y230980D01*
D02*
G37*
G36*
X-102730Y205470D02*
Y201270D01*
X-98530D01*
X-99303Y203138D01*
X-100862Y204697D01*
X-102730Y205470D01*
D02*
G37*
G36*
X-70105Y211500D02*
X-71895D01*
X-73549Y210815D01*
X-74815Y209549D01*
X-75500Y207895D01*
Y206105D01*
X-74815Y204451D01*
X-73549Y203185D01*
X-71895Y202500D01*
X-70105D01*
X-69341Y202817D01*
X-67815Y202451D01*
X-66549Y201185D01*
X-64895Y200500D01*
X-63105D01*
X-61451Y201185D01*
X-60185Y202451D01*
X-59500Y204105D01*
Y205895D01*
X-60185Y207549D01*
X-61451Y208815D01*
X-63105Y209500D01*
X-64895D01*
X-65659Y209184D01*
X-67185Y209549D01*
X-68451Y210815D01*
X-70105Y211500D01*
D02*
G37*
G36*
X-98530Y198730D02*
X-102730D01*
Y194530D01*
X-100862Y195303D01*
X-99303Y196862D01*
X-98530Y198730D01*
D02*
G37*
G36*
X-120657Y211100D02*
X-124343D01*
X-127904Y210146D01*
X-131096Y208303D01*
X-133703Y205696D01*
X-135546Y202504D01*
X-136500Y198943D01*
Y195257D01*
X-135546Y191696D01*
X-133703Y188504D01*
X-131096Y185897D01*
X-127904Y184054D01*
X-124343Y183100D01*
X-120657D01*
X-117096Y184054D01*
X-113904Y185897D01*
X-111297Y188504D01*
X-109454Y191696D01*
X-108582Y194951D01*
X-107351Y195516D01*
X-107138Y195303D01*
X-105270Y194530D01*
Y200000D01*
Y205470D01*
X-107138Y204697D01*
X-108479Y203355D01*
X-109529Y203304D01*
X-109966Y203391D01*
X-111297Y205696D01*
X-113904Y208303D01*
X-117096Y210146D01*
X-120657Y211100D01*
D02*
G37*
G36*
X-47471Y200409D02*
X-49261D01*
X-50915Y199723D01*
X-52181Y198458D01*
X-52866Y196804D01*
Y195014D01*
X-52181Y193360D01*
X-50915Y192094D01*
X-49261Y191409D01*
X-47471D01*
X-45817Y192094D01*
X-44551Y193360D01*
X-43866Y195014D01*
Y196804D01*
X-44551Y198458D01*
X-45817Y199723D01*
X-47471Y200409D01*
D02*
G37*
G36*
X-586Y202040D02*
X-1230D01*
Y188770D01*
X12040D01*
Y189414D01*
X11049Y193112D01*
X9135Y196428D01*
X6428Y199135D01*
X3112Y201049D01*
X-586Y202040D01*
D02*
G37*
G36*
X-3770D02*
X-4414D01*
X-8112Y201049D01*
X-11428Y199135D01*
X-14135Y196428D01*
X-16049Y193112D01*
X-17040Y189414D01*
Y188770D01*
X-3770D01*
Y202040D01*
D02*
G37*
G36*
Y186230D02*
X-17040D01*
Y185586D01*
X-16049Y181888D01*
X-15805Y181465D01*
X-16821Y180685D01*
X-17451Y181315D01*
X-19105Y182000D01*
X-20895D01*
X-22549Y181315D01*
X-23815Y180049D01*
X-24500Y178395D01*
Y176605D01*
X-23815Y174951D01*
X-22549Y173685D01*
X-20895Y173000D01*
X-19105D01*
X-17451Y173685D01*
X-16185Y174951D01*
X-15500Y176605D01*
Y178395D01*
X-15502Y178401D01*
X-14361Y178964D01*
X-14135Y178572D01*
X-11428Y175865D01*
X-8112Y173951D01*
X-4414Y172960D01*
X-3770D01*
Y186230D01*
D02*
G37*
G36*
X12040D02*
X-1230D01*
Y172960D01*
X-586D01*
X3112Y173951D01*
X6428Y175865D01*
X9135Y178572D01*
X11049Y181888D01*
X12040Y185586D01*
Y186230D01*
D02*
G37*
G36*
X43500Y184400D02*
X30500D01*
Y172400D01*
X33941D01*
Y168398D01*
X34108Y167558D01*
X30337Y163787D01*
X29674Y162795D01*
X29441Y161624D01*
X29441Y161624D01*
Y156767D01*
X27674Y155000D01*
X18000D01*
Y137000D01*
X32000D01*
Y150674D01*
X34663Y153337D01*
X35326Y154330D01*
X35559Y155500D01*
X35559Y155500D01*
Y160357D01*
X39100Y163898D01*
X40169D01*
X41823Y164583D01*
X43089Y165849D01*
X43774Y167503D01*
Y169293D01*
X43089Y170947D01*
X42906Y171130D01*
X43432Y172400D01*
X43500D01*
Y175201D01*
X44770Y175453D01*
X45185Y174451D01*
X46451Y173185D01*
X48105Y172500D01*
X49895D01*
X51549Y173185D01*
X52815Y174451D01*
X53500Y176105D01*
Y177895D01*
X52815Y179549D01*
X51549Y180815D01*
X49895Y181500D01*
X48105D01*
X46451Y180815D01*
X45185Y179549D01*
X44770Y178547D01*
X43500Y178799D01*
Y184400D01*
D02*
G37*
G36*
X-158105Y174500D02*
X-159895D01*
X-161549Y173815D01*
X-162815Y172549D01*
X-163500Y170895D01*
Y169105D01*
X-162815Y167451D01*
X-161549Y166185D01*
X-159895Y165500D01*
X-158105D01*
X-156451Y166185D01*
X-155185Y167451D01*
X-154500Y169105D01*
Y170895D01*
X-155185Y172549D01*
X-156451Y173815D01*
X-158105Y174500D01*
D02*
G37*
G36*
X-178108Y181096D02*
X-191204Y168000D01*
X-183765Y160561D01*
X-170670Y173657D01*
X-178108Y181096D01*
D02*
G37*
G36*
X-140105Y169500D02*
X-141895D01*
X-143549Y168815D01*
X-144815Y167549D01*
X-145500Y165895D01*
Y164105D01*
X-144815Y162451D01*
X-143549Y161185D01*
X-142436Y160724D01*
X-141922Y159751D01*
X-141939Y159248D01*
X-142500Y157895D01*
Y156105D01*
X-141815Y154451D01*
X-140549Y153185D01*
X-138895Y152500D01*
X-137105D01*
X-135451Y153185D01*
X-134185Y154451D01*
X-133500Y156105D01*
Y157895D01*
X-134185Y159549D01*
X-135451Y160815D01*
X-136564Y161276D01*
X-137078Y162249D01*
X-137061Y162752D01*
X-136500Y164105D01*
Y165895D01*
X-137185Y167549D01*
X-138451Y168815D01*
X-140105Y169500D01*
D02*
G37*
G36*
X141230Y168730D02*
X132629D01*
Y158525D01*
X132869Y156704D01*
X133572Y155007D01*
X134690Y153550D01*
X136147Y152432D01*
X137844Y151729D01*
X139664Y151489D01*
X141230D01*
Y168730D01*
D02*
G37*
G36*
X-70105Y163500D02*
X-71895D01*
X-73549Y162815D01*
X-74815Y161549D01*
X-75500Y159895D01*
Y158105D01*
X-74815Y156451D01*
X-74059Y155695D01*
Y150059D01*
X-76500D01*
Y153000D01*
X-89500D01*
Y141000D01*
X-76500D01*
Y143941D01*
X-71000D01*
X-69830Y144174D01*
X-68837Y144837D01*
X-68174Y145829D01*
X-67941Y147000D01*
Y155695D01*
X-67185Y156451D01*
X-66500Y158105D01*
Y159895D01*
X-67185Y161549D01*
X-68451Y162815D01*
X-70105Y163500D01*
D02*
G37*
G36*
X-22960Y152540D02*
X-31230D01*
Y145770D01*
X-22960D01*
Y152540D01*
D02*
G37*
G36*
X-33770D02*
X-42040D01*
Y145770D01*
X-33770D01*
Y152540D01*
D02*
G37*
G36*
X-193000Y166204D02*
X-206096Y153108D01*
X-198657Y145670D01*
X-185561Y158765D01*
X-193000Y166204D01*
D02*
G37*
G36*
X-120586Y156640D02*
X-121230D01*
Y143370D01*
X-107960D01*
Y144014D01*
X-108951Y147712D01*
X-110865Y151028D01*
X-113572Y153735D01*
X-116888Y155649D01*
X-120586Y156640D01*
D02*
G37*
G36*
X-123770D02*
X-124414D01*
X-128112Y155649D01*
X-131428Y153735D01*
X-134135Y151028D01*
X-136049Y147712D01*
X-137040Y144014D01*
Y143370D01*
X-123770D01*
Y156640D01*
D02*
G37*
G36*
X-6270Y156764D02*
X-6651D01*
X-9890Y156120D01*
X-12941Y154856D01*
X-15686Y153021D01*
X-18021Y150686D01*
X-19856Y147941D01*
X-21120Y144890D01*
X-21690Y142023D01*
X-22960Y142148D01*
Y143230D01*
X-31230D01*
Y136460D01*
X-22960D01*
Y137852D01*
X-21690Y137977D01*
X-21120Y135110D01*
X-19856Y132059D01*
X-18021Y129314D01*
X-15686Y126979D01*
X-12941Y125144D01*
X-9890Y123880D01*
X-6651Y123236D01*
X-6270D01*
Y140000D01*
Y156764D01*
D02*
G37*
G36*
X-3349D02*
X-3730D01*
Y141270D01*
X11764D01*
Y141651D01*
X11120Y144890D01*
X9856Y147941D01*
X8021Y150686D01*
X5686Y153021D01*
X2941Y154856D01*
X-110Y156120D01*
X-3349Y156764D01*
D02*
G37*
G36*
X-33770Y143230D02*
X-42040D01*
Y136460D01*
X-33770D01*
Y143230D01*
D02*
G37*
G36*
X-64105Y141500D02*
X-65895D01*
X-67549Y140815D01*
X-68815Y139549D01*
X-69500Y137895D01*
Y136105D01*
X-68815Y134451D01*
X-67549Y133185D01*
X-65895Y132500D01*
X-64105D01*
X-62451Y133185D01*
X-61185Y134451D01*
X-60500Y136105D01*
Y137895D01*
X-61185Y139549D01*
X-62451Y140815D01*
X-64105Y141500D01*
D02*
G37*
G36*
X-107960Y140830D02*
X-121230D01*
Y127560D01*
X-120586D01*
X-116888Y128551D01*
X-113572Y130465D01*
X-110865Y133172D01*
X-108951Y136488D01*
X-107960Y140186D01*
Y140830D01*
D02*
G37*
G36*
X-123770D02*
X-137040D01*
Y140186D01*
X-136049Y136488D01*
X-134135Y133172D01*
X-131428Y130465D01*
X-128112Y128551D01*
X-124414Y127560D01*
X-123770D01*
Y140830D01*
D02*
G37*
G36*
X11764Y138730D02*
X-3730D01*
Y123236D01*
X-3349D01*
X-110Y123880D01*
X2941Y125144D01*
X5686Y126979D01*
X6787Y128079D01*
X7960Y127593D01*
Y125270D01*
X14230D01*
Y133540D01*
X11612D01*
X10907Y134596D01*
X11120Y135110D01*
X11764Y138349D01*
Y138730D01*
D02*
G37*
G36*
X220320Y132665D02*
Y123275D01*
X224403D01*
Y127564D01*
X223996Y129613D01*
X222836Y131350D01*
X221099Y132510D01*
X220320Y132665D01*
D02*
G37*
G36*
X217780Y132665D02*
X217001Y132510D01*
X215264Y131350D01*
X214104Y129613D01*
X213696Y127564D01*
Y123275D01*
X217780D01*
Y132665D01*
D02*
G37*
G36*
X152480Y128540D02*
X146960D01*
Y123270D01*
X152480D01*
Y128540D01*
D02*
G37*
G36*
Y120730D02*
X146960D01*
Y115460D01*
X152480D01*
Y120730D01*
D02*
G37*
G36*
X-23500Y133000D02*
X-41500D01*
Y118000D01*
X-40270D01*
X-39000Y118000D01*
Y106000D01*
X-26000D01*
Y118000D01*
X-24730Y118000D01*
X-23500D01*
Y133000D01*
D02*
G37*
G36*
X-190105Y106500D02*
X-191895D01*
X-193549Y105815D01*
X-194305Y105059D01*
X-204000D01*
X-204000Y105059D01*
X-205171Y104826D01*
X-206163Y104163D01*
X-206163Y104163D01*
X-211267Y99059D01*
X-215500D01*
Y102000D01*
X-228500D01*
Y90000D01*
X-215500D01*
Y92941D01*
X-210000D01*
X-210000Y92941D01*
X-208829Y93174D01*
X-207837Y93837D01*
X-202733Y98941D01*
X-194305D01*
X-193549Y98185D01*
X-192313Y97673D01*
X-192313Y96327D01*
X-193549Y95815D01*
X-194815Y94549D01*
X-195500Y92895D01*
Y91105D01*
X-194815Y89451D01*
X-193549Y88185D01*
X-192313Y87673D01*
X-192314Y86327D01*
X-193549Y85815D01*
X-194305Y85059D01*
X-215500D01*
Y88000D01*
X-228500D01*
Y76000D01*
X-215500D01*
Y78941D01*
X-194305D01*
X-193549Y78185D01*
X-192313Y77673D01*
X-192313Y76327D01*
X-193549Y75815D01*
X-194815Y74549D01*
X-195500Y72895D01*
Y71105D01*
X-194815Y69451D01*
X-193549Y68185D01*
X-192313Y67673D01*
Y66327D01*
X-193549Y65815D01*
X-194815Y64549D01*
X-195500Y62895D01*
Y61105D01*
X-194815Y59451D01*
X-193549Y58185D01*
X-191895Y57500D01*
X-190105D01*
X-188451Y58185D01*
X-187185Y59451D01*
X-186500Y61105D01*
Y62895D01*
X-187185Y64549D01*
X-188451Y65815D01*
X-189687Y66327D01*
Y67673D01*
X-188451Y68185D01*
X-187185Y69451D01*
X-186500Y71105D01*
Y72895D01*
X-187185Y74549D01*
X-188451Y75815D01*
X-189687Y76327D01*
X-189687Y77673D01*
X-188451Y78185D01*
X-187185Y79451D01*
X-186500Y81105D01*
Y82895D01*
X-187185Y84549D01*
X-188451Y85815D01*
X-189686Y86327D01*
X-189686Y87673D01*
X-188451Y88185D01*
X-187185Y89451D01*
X-186500Y91105D01*
Y92895D01*
X-187185Y94549D01*
X-188451Y95815D01*
X-189687Y96327D01*
X-189687Y97673D01*
X-188451Y98185D01*
X-187185Y99451D01*
X-186500Y101105D01*
Y102895D01*
X-187185Y104549D01*
X-188451Y105815D01*
X-190105Y106500D01*
D02*
G37*
G36*
X-76500Y139000D02*
X-89500D01*
Y127000D01*
X-86059D01*
Y108577D01*
X-85826Y107407D01*
X-85163Y106414D01*
X-84171Y105751D01*
X-83059Y105530D01*
Y103659D01*
X-88000D01*
Y109600D01*
X-102000D01*
Y91600D01*
X-88000D01*
Y97541D01*
X-80000D01*
X-78829Y97774D01*
X-77837Y98437D01*
X-77174Y99429D01*
X-76941Y100600D01*
Y104933D01*
X-75846Y106028D01*
X-75161Y107682D01*
Y109473D01*
X-75846Y111126D01*
X-77112Y112392D01*
X-78766Y113077D01*
X-79941D01*
Y127000D01*
X-76500D01*
Y139000D01*
D02*
G37*
G36*
X23040Y133540D02*
X16770D01*
Y124000D01*
X15500D01*
Y122730D01*
X7960D01*
Y116624D01*
X-21224D01*
Y101059D01*
X-26000D01*
Y104000D01*
X-39000D01*
Y92000D01*
X-26000D01*
Y94941D01*
X-21224D01*
Y84176D01*
X11224D01*
Y114460D01*
X13960D01*
Y108770D01*
X20500D01*
X27040D01*
Y113423D01*
X27040Y113691D01*
X27069Y113923D01*
X27272Y113940D01*
X28500Y112809D01*
Y101000D01*
X40500D01*
Y114000D01*
X41152Y115000D01*
X41500D01*
Y133000D01*
X27500D01*
Y128900D01*
X26105D01*
X24451Y128215D01*
X24310Y128074D01*
X23040Y128600D01*
Y133540D01*
D02*
G37*
G36*
X27040Y106230D02*
X21770D01*
Y100460D01*
X27040D01*
Y106230D01*
D02*
G37*
G36*
X19230D02*
X13960D01*
Y100460D01*
X19230D01*
Y106230D01*
D02*
G37*
G36*
X-142960Y107140D02*
X-151230D01*
Y100370D01*
X-142960D01*
Y107140D01*
D02*
G37*
G36*
X-153770D02*
X-162040D01*
Y100370D01*
X-153770D01*
Y107140D01*
D02*
G37*
G36*
X-126270Y111364D02*
X-126651D01*
X-129890Y110720D01*
X-132941Y109456D01*
X-135686Y107621D01*
X-138021Y105286D01*
X-139856Y102541D01*
X-141120Y99490D01*
X-141690Y96623D01*
X-142960Y96748D01*
Y97830D01*
X-151230D01*
Y91060D01*
X-142960D01*
Y92452D01*
X-141690Y92577D01*
X-141120Y89710D01*
X-139856Y86659D01*
X-138021Y83913D01*
X-135686Y81579D01*
X-132941Y79744D01*
X-129890Y78480D01*
X-126651Y77836D01*
X-126270D01*
Y94600D01*
Y111364D01*
D02*
G37*
G36*
X-123349D02*
X-123730D01*
Y95870D01*
X-108236D01*
Y96251D01*
X-108880Y99490D01*
X-110144Y102541D01*
X-111979Y105286D01*
X-114314Y107621D01*
X-117059Y109456D01*
X-120110Y110720D01*
X-123349Y111364D01*
D02*
G37*
G36*
X-153770Y97830D02*
X-162040D01*
Y91060D01*
X-153770D01*
Y97830D01*
D02*
G37*
G36*
X-59105Y92500D02*
X-60895D01*
X-62549Y91815D01*
X-63815Y90549D01*
X-64500Y88895D01*
Y87105D01*
X-63815Y85451D01*
X-62549Y84185D01*
X-60895Y83500D01*
X-59105D01*
X-57451Y84185D01*
X-56185Y85451D01*
X-55500Y87105D01*
Y88895D01*
X-56185Y90549D01*
X-57451Y91815D01*
X-59105Y92500D01*
D02*
G37*
G36*
X-108236Y93330D02*
X-123730D01*
Y77836D01*
X-123349D01*
X-120110Y78480D01*
X-117059Y79744D01*
X-114314Y81579D01*
X-113213Y82679D01*
X-112040Y82193D01*
Y79870D01*
X-105770D01*
Y88140D01*
X-108388D01*
X-109093Y89196D01*
X-108880Y89710D01*
X-108236Y92949D01*
Y93330D01*
D02*
G37*
G36*
X59895Y87500D02*
X58105D01*
X56451Y86815D01*
X55185Y85549D01*
X54500Y83895D01*
Y82105D01*
X55185Y80451D01*
X56451Y79185D01*
X58105Y78500D01*
X59895D01*
X61549Y79185D01*
X62815Y80451D01*
X63500Y82105D01*
Y83895D01*
X62815Y85549D01*
X61549Y86815D01*
X59895Y87500D01*
D02*
G37*
G36*
X-143500Y87600D02*
X-161500D01*
Y72600D01*
X-160270D01*
X-159000Y72600D01*
Y60600D01*
X-146000D01*
Y72600D01*
X-144730Y72600D01*
X-143500D01*
Y87600D01*
D02*
G37*
G36*
X-96960Y88140D02*
X-103230D01*
Y78600D01*
X-104500D01*
Y77330D01*
X-112040D01*
Y71224D01*
X-141224D01*
Y55659D01*
X-146000D01*
Y58600D01*
X-159000D01*
Y46600D01*
X-146000D01*
Y49541D01*
X-141224D01*
Y38776D01*
X-108776D01*
Y69060D01*
X-106040D01*
Y63370D01*
X-99500D01*
X-92960D01*
Y68023D01*
X-92960Y68291D01*
X-92931Y68523D01*
X-92728Y68540D01*
X-91500Y67409D01*
Y55600D01*
X-79500D01*
Y68600D01*
X-78848Y69600D01*
X-78500D01*
Y87600D01*
X-92500D01*
Y83500D01*
X-93895D01*
X-95549Y82815D01*
X-95690Y82674D01*
X-96960Y83200D01*
Y88140D01*
D02*
G37*
G36*
X-92960Y60830D02*
X-98230D01*
Y55060D01*
X-92960D01*
Y60830D01*
D02*
G37*
G36*
X-100770D02*
X-106040D01*
Y55060D01*
X-100770D01*
Y60830D01*
D02*
G37*
G36*
X-164105Y52500D02*
X-165895D01*
X-167549Y51815D01*
X-168815Y50549D01*
X-169500Y48895D01*
Y47105D01*
X-168815Y45451D01*
X-167549Y44185D01*
X-165895Y43500D01*
X-164105D01*
X-162451Y44185D01*
X-161185Y45451D01*
X-160500Y47105D01*
Y48895D01*
X-161185Y50549D01*
X-162451Y51815D01*
X-164105Y52500D01*
D02*
G37*
G36*
X-587500Y202000D02*
X-600500D01*
Y199059D01*
X-614000D01*
X-614000Y199059D01*
X-615171Y198826D01*
X-616163Y198163D01*
X-619422Y194904D01*
X-620140Y195319D01*
X-622683Y196000D01*
X-625317D01*
X-627860Y195319D01*
X-630140Y194002D01*
X-632002Y192140D01*
X-633318Y189860D01*
X-634000Y187316D01*
Y184683D01*
X-633318Y182140D01*
X-632002Y179860D01*
X-630140Y177998D01*
X-627860Y176681D01*
X-627770Y176657D01*
Y175343D01*
X-627860Y175319D01*
X-630140Y174002D01*
X-632002Y172140D01*
X-633318Y169860D01*
X-634000Y167316D01*
Y164683D01*
X-633318Y162140D01*
X-632002Y159860D01*
X-630140Y157998D01*
X-627860Y156681D01*
X-627770Y156657D01*
Y155343D01*
X-627860Y155318D01*
X-630140Y154002D01*
X-632002Y152140D01*
X-633318Y149860D01*
X-634000Y147317D01*
Y144684D01*
X-633318Y142140D01*
X-632002Y139860D01*
X-630140Y137998D01*
X-628439Y137016D01*
X-628371Y136797D01*
X-628486Y135581D01*
X-630472Y134434D01*
X-632434Y132472D01*
X-633822Y130068D01*
X-634540Y127388D01*
Y127270D01*
X-624000D01*
X-613460D01*
Y127388D01*
X-614178Y130068D01*
X-615566Y132472D01*
X-617528Y134434D01*
X-619514Y135581D01*
X-619629Y136797D01*
X-619561Y137016D01*
X-617860Y137998D01*
X-615998Y139860D01*
X-614682Y142140D01*
X-614467Y142941D01*
X-612000D01*
Y142000D01*
X-610197D01*
X-610000Y141961D01*
X-600750D01*
X-599969Y142116D01*
X-599250Y142525D01*
X-598530Y142116D01*
X-597750Y141961D01*
X-597750Y141961D01*
X-591059D01*
Y136317D01*
X-592298Y135601D01*
X-593601Y134298D01*
X-594523Y132702D01*
X-595000Y130922D01*
Y129078D01*
X-594523Y127298D01*
X-593601Y125702D01*
X-592298Y124399D01*
X-590702Y123477D01*
X-588922Y123000D01*
X-587078D01*
X-585298Y123477D01*
X-583702Y124399D01*
X-582399Y125702D01*
X-581477Y127298D01*
X-581000Y129078D01*
Y130922D01*
X-581477Y132702D01*
X-582399Y134298D01*
X-583702Y135601D01*
X-584941Y136317D01*
Y141961D01*
X-584000D01*
X-583803Y142000D01*
X-582000D01*
Y143803D01*
X-581961Y144000D01*
Y154000D01*
X-582000Y154197D01*
Y156000D01*
X-583803D01*
X-584000Y156039D01*
X-597750D01*
X-598530Y155884D01*
X-599192Y155442D01*
X-599969Y155884D01*
X-600750Y156039D01*
X-610000Y156039D01*
X-610197Y156000D01*
X-612000D01*
Y154197D01*
X-612039Y154000D01*
Y149059D01*
X-614467D01*
X-614682Y149860D01*
X-615998Y152140D01*
X-617860Y154002D01*
X-620140Y155318D01*
X-620230Y155343D01*
Y156657D01*
X-620140Y156681D01*
X-617860Y157998D01*
X-615998Y159860D01*
X-614682Y162140D01*
X-614467Y162941D01*
X-612039D01*
Y160000D01*
X-612000Y159803D01*
Y158000D01*
X-610197D01*
X-610000Y157961D01*
X-600750D01*
X-599969Y158116D01*
X-599250Y158525D01*
X-598530Y158116D01*
X-597750Y157961D01*
X-597750Y157961D01*
X-584000D01*
X-583803Y158000D01*
X-582000D01*
Y159803D01*
X-581961Y160000D01*
Y170000D01*
X-582000Y170197D01*
Y172000D01*
X-583803D01*
X-584000Y172039D01*
X-587816D01*
Y176000D01*
X-587500D01*
Y179941D01*
X-583317D01*
X-582601Y178702D01*
X-581298Y177399D01*
X-579702Y176477D01*
X-577922Y176000D01*
X-576078D01*
X-574298Y176477D01*
X-572702Y177399D01*
X-571399Y178702D01*
X-570477Y180298D01*
X-570000Y182078D01*
Y183922D01*
X-570477Y185702D01*
X-571399Y187298D01*
X-572702Y188601D01*
X-574298Y189523D01*
X-576078Y190000D01*
X-577922D01*
X-579702Y189523D01*
X-581298Y188601D01*
X-582601Y187298D01*
X-583317Y186059D01*
X-587500D01*
Y188000D01*
X-600500D01*
Y176000D01*
X-593934D01*
Y172039D01*
X-597750D01*
X-598530Y171884D01*
X-599192Y171442D01*
X-599969Y171884D01*
X-600750Y172039D01*
X-610000Y172039D01*
X-610197Y172000D01*
X-612000D01*
Y170197D01*
X-612039Y170000D01*
X-612821Y169059D01*
X-614467D01*
X-614682Y169860D01*
X-615998Y172140D01*
X-617860Y174002D01*
X-620140Y175319D01*
X-620230Y175343D01*
Y176657D01*
X-620140Y176681D01*
X-617860Y177998D01*
X-615998Y179860D01*
X-614682Y182140D01*
X-614000Y184683D01*
Y187316D01*
X-614682Y189860D01*
X-615096Y190578D01*
X-612733Y192941D01*
X-600500D01*
Y190000D01*
X-587500D01*
Y202000D01*
D02*
G37*
G36*
X-613460Y124730D02*
X-622730D01*
Y115460D01*
X-622612D01*
X-619932Y116178D01*
X-617528Y117566D01*
X-615566Y119528D01*
X-614178Y121932D01*
X-613460Y124612D01*
Y124730D01*
D02*
G37*
G36*
X-625270D02*
X-634540D01*
Y124612D01*
X-633822Y121932D01*
X-632434Y119528D01*
X-630472Y117566D01*
X-628068Y116178D01*
X-625388Y115460D01*
X-625270D01*
Y124730D01*
D02*
G37*
G36*
X-600210Y91790D02*
X-618730D01*
Y81270D01*
X-600210D01*
Y91790D01*
D02*
G37*
G36*
X-621270D02*
X-639790D01*
Y81270D01*
X-621270D01*
Y91790D01*
D02*
G37*
G36*
X-600210Y78730D02*
X-618730D01*
Y68210D01*
X-600210D01*
Y78730D01*
D02*
G37*
G36*
X-621270D02*
X-639790D01*
Y68210D01*
X-621270D01*
Y78730D01*
D02*
G37*
G36*
X-521013Y6500D02*
X-522987D01*
X-524895Y5989D01*
X-526605Y5002D01*
X-528002Y3605D01*
X-528989Y1895D01*
X-529500Y-13D01*
Y-1987D01*
X-528989Y-3895D01*
X-528002Y-5605D01*
X-526605Y-7002D01*
X-524895Y-7989D01*
X-522987Y-8500D01*
X-521013D01*
X-519105Y-7989D01*
X-517395Y-7002D01*
X-515998Y-5605D01*
X-515011Y-3895D01*
X-514500Y-1987D01*
Y-13D01*
X-515011Y1895D01*
X-515998Y3605D01*
X-517395Y5002D01*
X-519105Y5989D01*
X-521013Y6500D01*
D02*
G37*
G36*
X-598270Y-7460D02*
X-598388D01*
X-601068Y-8178D01*
X-603472Y-9566D01*
X-605434Y-11528D01*
X-606822Y-13932D01*
X-607540Y-16612D01*
Y-16730D01*
X-598270D01*
Y-7460D01*
D02*
G37*
G36*
X-595612D02*
X-595730D01*
Y-18000D01*
Y-28540D01*
X-595612D01*
X-592932Y-27822D01*
X-590528Y-26434D01*
X-588566Y-24472D01*
X-587420Y-22486D01*
X-586203Y-22371D01*
X-585984Y-22439D01*
X-585002Y-24140D01*
X-583140Y-26002D01*
X-580860Y-27318D01*
X-580059Y-27533D01*
Y-32461D01*
X-582000D01*
X-582197Y-32500D01*
X-584000D01*
Y-34303D01*
X-584039Y-34500D01*
Y-43750D01*
X-583884Y-44531D01*
X-583475Y-45250D01*
X-583884Y-45970D01*
X-584039Y-46750D01*
X-584039Y-46750D01*
Y-60500D01*
X-584000Y-60697D01*
Y-62500D01*
X-582197D01*
X-582000Y-62539D01*
X-580059D01*
Y-72000D01*
X-580059Y-72000D01*
X-579826Y-73170D01*
X-579163Y-74163D01*
X-563163Y-90163D01*
X-562170Y-90826D01*
X-561000Y-91059D01*
X-561000Y-91059D01*
X-522305D01*
X-521549Y-91815D01*
X-519895Y-92500D01*
X-518105D01*
X-516451Y-91815D01*
X-515185Y-90549D01*
X-514500Y-88895D01*
Y-87105D01*
X-515185Y-85451D01*
X-516451Y-84185D01*
X-517687Y-83673D01*
Y-82327D01*
X-516451Y-81815D01*
X-515185Y-80549D01*
X-514500Y-78895D01*
Y-77105D01*
X-515185Y-75451D01*
X-516451Y-74185D01*
X-518105Y-73500D01*
X-519895D01*
X-521549Y-74185D01*
X-522305Y-74941D01*
X-547733D01*
X-553941Y-68733D01*
Y-62039D01*
X-552000D01*
X-551803Y-62000D01*
X-550000D01*
Y-60197D01*
X-549961Y-60000D01*
Y-46250D01*
X-550116Y-45470D01*
X-550558Y-44808D01*
X-550116Y-44031D01*
X-549961Y-43250D01*
X-549961Y-34000D01*
X-550000Y-33802D01*
Y-32000D01*
X-551803D01*
X-552000Y-31961D01*
X-553941D01*
Y-27533D01*
X-553140Y-27318D01*
X-550860Y-26002D01*
X-548998Y-24140D01*
X-547682Y-21860D01*
X-547657Y-21770D01*
X-546343D01*
X-546319Y-21860D01*
X-545002Y-24140D01*
X-543140Y-26002D01*
X-540860Y-27318D01*
X-538316Y-28000D01*
X-535684D01*
X-533140Y-27318D01*
X-530860Y-26002D01*
X-528998Y-24140D01*
X-527682Y-21860D01*
X-527000Y-19317D01*
Y-16683D01*
X-527682Y-14140D01*
X-528998Y-11860D01*
X-530860Y-9998D01*
X-533140Y-8681D01*
X-535684Y-8000D01*
X-538316D01*
X-540860Y-8681D01*
X-543140Y-9998D01*
X-545002Y-11860D01*
X-546319Y-14140D01*
X-546343Y-14230D01*
X-547657D01*
X-547682Y-14140D01*
X-548998Y-11860D01*
X-550860Y-9998D01*
X-553140Y-8681D01*
X-555684Y-8000D01*
X-558316D01*
X-560860Y-8681D01*
X-563140Y-9998D01*
X-565002Y-11860D01*
X-566319Y-14140D01*
X-566343Y-14230D01*
X-567657D01*
X-567682Y-14140D01*
X-568998Y-11860D01*
X-570860Y-9998D01*
X-573140Y-8681D01*
X-575684Y-8000D01*
X-578316D01*
X-580860Y-8681D01*
X-583140Y-9998D01*
X-585002Y-11860D01*
X-585984Y-13561D01*
X-586203Y-13629D01*
X-587420Y-13514D01*
X-588566Y-11528D01*
X-590528Y-9566D01*
X-592932Y-8178D01*
X-595612Y-7460D01*
D02*
G37*
G36*
X-598270Y-19270D02*
X-607540D01*
Y-19388D01*
X-606822Y-22068D01*
X-605434Y-24472D01*
X-603472Y-26434D01*
X-601068Y-27822D01*
X-598388Y-28540D01*
X-598270D01*
Y-19270D01*
D02*
G37*
G36*
X325000Y635591D02*
X322259Y635230D01*
X319705Y634172D01*
X317511Y632489D01*
X315828Y630295D01*
X314770Y627741D01*
X314409Y625000D01*
X314770Y622259D01*
X315828Y619705D01*
X317511Y617511D01*
X319705Y615828D01*
X322259Y614770D01*
X325000Y614409D01*
X327741Y614770D01*
X330295Y615828D01*
X332489Y617511D01*
X334172Y619705D01*
X335230Y622259D01*
X335591Y625000D01*
X335230Y627741D01*
X334172Y630295D01*
X332489Y632489D01*
X330295Y634172D01*
X327741Y635230D01*
X325000Y635591D01*
D02*
G37*
G36*
X-625000D02*
X-627741Y635230D01*
X-630295Y634172D01*
X-632489Y632489D01*
X-634172Y630295D01*
X-635230Y627741D01*
X-635591Y625000D01*
X-635230Y622259D01*
X-634172Y619705D01*
X-632489Y617511D01*
X-630295Y615828D01*
X-627741Y614770D01*
X-625000Y614409D01*
X-622259Y614770D01*
X-619705Y615828D01*
X-617511Y617511D01*
X-615828Y619705D01*
X-614770Y622259D01*
X-614409Y625000D01*
X-614770Y627741D01*
X-615828Y630295D01*
X-617511Y632489D01*
X-619705Y634172D01*
X-622259Y635230D01*
X-625000Y635591D01*
D02*
G37*
G36*
X-85015Y594063D02*
X-263298D01*
X-263447Y594033D01*
X-263598Y594048D01*
X-267574Y593656D01*
X-267719Y593612D01*
X-267871D01*
X-271789Y592833D01*
X-271929Y592775D01*
X-272080Y592760D01*
X-275904Y591600D01*
X-276038Y591528D01*
X-276186Y591499D01*
X-279878Y589970D01*
X-280004Y589886D01*
X-280149Y589841D01*
X-283673Y587958D01*
X-283790Y587862D01*
X-283930Y587804D01*
X-287252Y585584D01*
X-287360Y585477D01*
X-287493Y585405D01*
X-290582Y582871D01*
X-290678Y582753D01*
X-290804Y582669D01*
X-292217Y581256D01*
X-292217Y581256D01*
X-292217Y581256D01*
X-403256Y470217D01*
X-404669Y468804D01*
X-404753Y468678D01*
X-404871Y468582D01*
X-407405Y465493D01*
X-407477Y465360D01*
X-407584Y465252D01*
X-409804Y461930D01*
X-409862Y461790D01*
X-409958Y461673D01*
X-411842Y458149D01*
X-411886Y458004D01*
X-411970Y457878D01*
X-413499Y454186D01*
X-413529Y454038D01*
X-413600Y453904D01*
X-414760Y450080D01*
X-414775Y449929D01*
X-414833Y449789D01*
X-415612Y445871D01*
Y445719D01*
X-415656Y445574D01*
X-416048Y441598D01*
X-416033Y441446D01*
X-416063Y441298D01*
Y427702D01*
X-416033Y427553D01*
X-416048Y427402D01*
X-415656Y423426D01*
X-415612Y423281D01*
Y423129D01*
X-414833Y419211D01*
X-414775Y419071D01*
X-414760Y418919D01*
X-413600Y415096D01*
X-413529Y414962D01*
X-413499Y414813D01*
X-411970Y411122D01*
X-411886Y410996D01*
X-411842Y410851D01*
X-409958Y407327D01*
X-409862Y407210D01*
X-409804Y407070D01*
X-407584Y403748D01*
X-407477Y403640D01*
X-407405Y403507D01*
X-404871Y400418D01*
X-404753Y400322D01*
X-404669Y400196D01*
X-403256Y398783D01*
X-323217Y318744D01*
X-321804Y317331D01*
X-321678Y317247D01*
X-321582Y317129D01*
X-318493Y314595D01*
X-318360Y314523D01*
X-318252Y314416D01*
X-314930Y312196D01*
X-314790Y312138D01*
X-314673Y312042D01*
X-311149Y310159D01*
X-311004Y310114D01*
X-310878Y310030D01*
X-307187Y308501D01*
X-307038Y308472D01*
X-306904Y308400D01*
X-303081Y307240D01*
X-302929Y307225D01*
X-302789Y307167D01*
X-298871Y306388D01*
X-298719D01*
X-298574Y306344D01*
X-294598Y305952D01*
X-294447Y305967D01*
X-294298Y305937D01*
X-85015D01*
X-84719Y305996D01*
X-84418D01*
X-82485Y306381D01*
X-82207Y306496D01*
X-81911Y306555D01*
X-80091Y307309D01*
X-79840Y307476D01*
X-79562Y307591D01*
X-77924Y308686D01*
X-77711Y308899D01*
X-77460Y309067D01*
X-76067Y310460D01*
X-75899Y310711D01*
X-75686Y310924D01*
X-74591Y312562D01*
X-74476Y312840D01*
X-74309Y313091D01*
X-73555Y314911D01*
X-73496Y315207D01*
X-73381Y315485D01*
X-72996Y317418D01*
Y317719D01*
X-72937Y318015D01*
Y319985D01*
X-72996Y320281D01*
Y320582D01*
X-73381Y322515D01*
X-73496Y322793D01*
X-73555Y323088D01*
X-74309Y324909D01*
X-74476Y325160D01*
X-74591Y325438D01*
X-75686Y327076D01*
X-75899Y327289D01*
X-76067Y327540D01*
X-77460Y328933D01*
X-77711Y329101D01*
X-77924Y329314D01*
X-79562Y330409D01*
X-79840Y330524D01*
X-80091Y330691D01*
X-81911Y331445D01*
X-82207Y331504D01*
X-82485Y331619D01*
X-84418Y332004D01*
X-84719D01*
X-85015Y332063D01*
X-292225D01*
X-293947Y332147D01*
X-297398Y332833D01*
X-300580Y334149D01*
X-303507Y336102D01*
X-304784Y337257D01*
X-384730Y417203D01*
X-385889Y418483D01*
X-387846Y421411D01*
X-389165Y424596D01*
X-389853Y428051D01*
X-389937Y429775D01*
Y439225D01*
X-389853Y440949D01*
X-389165Y444404D01*
X-387846Y447589D01*
X-385889Y450518D01*
X-384730Y451796D01*
X-273797Y562730D01*
X-272518Y563889D01*
X-269589Y565846D01*
X-266404Y567165D01*
X-262949Y567853D01*
X-261225Y567937D01*
X-85015D01*
X-84719Y567996D01*
X-84418D01*
X-82485Y568381D01*
X-82207Y568496D01*
X-81911Y568555D01*
X-80091Y569309D01*
X-79840Y569476D01*
X-79562Y569591D01*
X-77924Y570686D01*
X-77711Y570899D01*
X-77460Y571067D01*
X-76067Y572460D01*
X-75899Y572711D01*
X-75686Y572924D01*
X-74591Y574562D01*
X-74476Y574840D01*
X-74309Y575091D01*
X-73555Y576911D01*
X-73496Y577207D01*
X-73381Y577485D01*
X-72996Y579418D01*
Y579719D01*
X-72937Y580015D01*
Y581985D01*
X-72996Y582281D01*
Y582582D01*
X-73381Y584515D01*
X-73496Y584793D01*
X-73555Y585089D01*
X-74309Y586909D01*
X-74476Y587160D01*
X-74591Y587438D01*
X-75686Y589076D01*
X-75899Y589289D01*
X-76067Y589540D01*
X-77460Y590933D01*
X-77711Y591101D01*
X-77924Y591314D01*
X-79562Y592408D01*
X-79840Y592524D01*
X-80091Y592691D01*
X-81911Y593445D01*
X-82207Y593504D01*
X-82485Y593619D01*
X-84418Y594004D01*
X-84719D01*
X-85015Y594063D01*
D02*
G37*
G36*
X179167Y518000D02*
X174833D01*
X170583Y517155D01*
X166579Y515496D01*
X162976Y513088D01*
X159911Y510024D01*
X157504Y506421D01*
X155845Y502417D01*
X155000Y498167D01*
Y493833D01*
X155845Y489583D01*
X157504Y485579D01*
X159911Y481976D01*
X162976Y478912D01*
X166579Y476504D01*
X170583Y474846D01*
X174833Y474000D01*
X179167D01*
X183417Y474846D01*
X187421Y476504D01*
X191024Y478912D01*
X194088Y481976D01*
X196496Y485579D01*
X198155Y489583D01*
X199000Y493833D01*
Y498167D01*
X198155Y502417D01*
X196496Y506421D01*
X194088Y510024D01*
X191024Y513088D01*
X187421Y515496D01*
X183417Y517155D01*
X179167Y518000D01*
D02*
G37*
G36*
X183298Y594063D02*
X181000D01*
X-51000Y594063D01*
X-52317D01*
X-52709Y593984D01*
X-53109Y593958D01*
X-55653Y593277D01*
X-56012Y593100D01*
X-56391Y592971D01*
X-58672Y591654D01*
X-58973Y591390D01*
X-59305Y591168D01*
X-61168Y589305D01*
X-61390Y588973D01*
X-61654Y588672D01*
X-62971Y586391D01*
X-63100Y586012D01*
X-63277Y585653D01*
X-63958Y583109D01*
X-63984Y582709D01*
X-64063Y582317D01*
Y579683D01*
X-63984Y579291D01*
X-63958Y578891D01*
X-63277Y576347D01*
X-63100Y575988D01*
X-62971Y575609D01*
X-61654Y573328D01*
X-61390Y573027D01*
X-61168Y572695D01*
X-59305Y570832D01*
X-58973Y570610D01*
X-58672Y570346D01*
X-56391Y569029D01*
X-56012Y568900D01*
X-55653Y568723D01*
X-53109Y568042D01*
X-52709Y568016D01*
X-52317Y567937D01*
X-51000D01*
X181000Y567937D01*
X181225D01*
X182949Y567853D01*
X186404Y567165D01*
X189589Y565846D01*
X192518Y563889D01*
X193797Y562730D01*
X240730Y515797D01*
X241889Y514518D01*
X243846Y511589D01*
X245166Y508404D01*
X245853Y504949D01*
X245937Y503225D01*
Y470775D01*
X245853Y469051D01*
X245166Y465596D01*
X243846Y462411D01*
X241889Y459482D01*
X240730Y458204D01*
X119796Y337270D01*
X118518Y336111D01*
X115589Y334154D01*
X112404Y332835D01*
X108949Y332147D01*
X107225Y332063D01*
X-51000Y332063D01*
X-52317D01*
X-52709Y331984D01*
X-53109Y331958D01*
X-55653Y331277D01*
X-56012Y331100D01*
X-56391Y330971D01*
X-58672Y329654D01*
X-58973Y329390D01*
X-59305Y329168D01*
X-61168Y327305D01*
X-61390Y326973D01*
X-61654Y326672D01*
X-62971Y324391D01*
X-63100Y324012D01*
X-63277Y323653D01*
X-63958Y321109D01*
X-63984Y320709D01*
X-64063Y320317D01*
Y317683D01*
X-63984Y317291D01*
X-63958Y316891D01*
X-63277Y314347D01*
X-63100Y313988D01*
X-62971Y313609D01*
X-61654Y311328D01*
X-61390Y311027D01*
X-61168Y310695D01*
X-59305Y308832D01*
X-58973Y308610D01*
X-58672Y308346D01*
X-56391Y307029D01*
X-56012Y306900D01*
X-55653Y306723D01*
X-53109Y306042D01*
X-52709Y306015D01*
X-52317Y305937D01*
X-51000D01*
X107300Y305937D01*
X109298D01*
X109446Y305967D01*
X109598Y305952D01*
X113574Y306344D01*
X113719Y306388D01*
X113871D01*
X117789Y307167D01*
X117929Y307225D01*
X118081Y307240D01*
X121904Y308400D01*
X122038Y308472D01*
X122186Y308501D01*
X125878Y310030D01*
X126004Y310114D01*
X126149Y310158D01*
X129673Y312042D01*
X129790Y312138D01*
X129930Y312196D01*
X133252Y314416D01*
X133360Y314523D01*
X133493Y314595D01*
X136582Y317129D01*
X136678Y317247D01*
X136804Y317331D01*
X138217Y318743D01*
X138217Y318744D01*
X138217Y318744D01*
X259256Y439783D01*
X260669Y441196D01*
X260753Y441322D01*
X260870Y441418D01*
X263405Y444507D01*
X263477Y444640D01*
X263584Y444748D01*
X265804Y448070D01*
X265862Y448210D01*
X265958Y448327D01*
X267841Y451851D01*
X267885Y451996D01*
X267970Y452122D01*
X269499Y455813D01*
X269528Y455962D01*
X269600Y456096D01*
X270760Y459920D01*
X270775Y460071D01*
X270833Y460211D01*
X271612Y464129D01*
Y464281D01*
X271656Y464426D01*
X272048Y468402D01*
X272033Y468553D01*
X272063Y468702D01*
Y470700D01*
Y503300D01*
Y505298D01*
X272033Y505447D01*
X272048Y505597D01*
X271656Y509574D01*
X271612Y509719D01*
Y509871D01*
X270833Y513789D01*
X270775Y513929D01*
X270760Y514081D01*
X269600Y517904D01*
X269528Y518038D01*
X269499Y518186D01*
X267970Y521878D01*
X267885Y522004D01*
X267841Y522149D01*
X265958Y525673D01*
X265862Y525790D01*
X265804Y525930D01*
X263584Y529252D01*
X263477Y529360D01*
X263405Y529493D01*
X260870Y532582D01*
X260753Y532678D01*
X260669Y532804D01*
X259256Y534217D01*
X259256Y534217D01*
X259256Y534217D01*
X212217Y581256D01*
X210804Y582669D01*
X210678Y582753D01*
X210582Y582871D01*
X207493Y585405D01*
X207360Y585477D01*
X207252Y585584D01*
X203930Y587804D01*
X203790Y587862D01*
X203673Y587958D01*
X200149Y589841D01*
X200004Y589886D01*
X199878Y589970D01*
X196186Y591499D01*
X196038Y591528D01*
X195904Y591600D01*
X192080Y592760D01*
X191929Y592775D01*
X191789Y592833D01*
X187871Y593612D01*
X187719D01*
X187574Y593656D01*
X183598Y594048D01*
X183447Y594033D01*
X183298Y594063D01*
D02*
G37*
G36*
X325000Y-314409D02*
X322259Y-314770D01*
X319705Y-315828D01*
X317511Y-317511D01*
X315828Y-319705D01*
X314770Y-322259D01*
X314409Y-325000D01*
X314770Y-327741D01*
X315828Y-330295D01*
X317511Y-332489D01*
X319705Y-334172D01*
X322259Y-335230D01*
X325000Y-335591D01*
X327741Y-335230D01*
X330295Y-334172D01*
X332489Y-332489D01*
X334172Y-330295D01*
X335230Y-327741D01*
X335591Y-325000D01*
X335230Y-322259D01*
X334172Y-319705D01*
X332489Y-317511D01*
X330295Y-315828D01*
X327741Y-314770D01*
X325000Y-314409D01*
D02*
G37*
%LPD*%
G36*
X327447Y634132D02*
X329727Y633187D01*
X331685Y631685D01*
X333187Y629727D01*
X334132Y627447D01*
X334454Y625000D01*
X334132Y622553D01*
X333187Y620273D01*
X331685Y618315D01*
X329727Y616813D01*
X327447Y615868D01*
X325000Y615546D01*
X322553Y615868D01*
X320273Y616813D01*
X318315Y618315D01*
X316813Y620273D01*
X315868Y622553D01*
X315546Y625000D01*
X315868Y627447D01*
X316813Y629727D01*
X318315Y631685D01*
X320273Y633187D01*
X322553Y634132D01*
X325000Y634454D01*
X327447Y634132D01*
D02*
G37*
%LPC*%
G36*
X325932Y632080D02*
X324068D01*
X322267Y631598D01*
X320653Y630665D01*
X319335Y629347D01*
X318403Y627733D01*
X317920Y625932D01*
Y624068D01*
X318403Y622267D01*
X319335Y620653D01*
X320653Y619335D01*
X322267Y618402D01*
X324068Y617920D01*
X325932D01*
X327733Y618402D01*
X329347Y619335D01*
X330665Y620653D01*
X331598Y622267D01*
X332080Y624068D01*
Y625932D01*
X331598Y627733D01*
X330665Y629347D01*
X329347Y630665D01*
X327733Y631598D01*
X325932Y632080D01*
D02*
G37*
%LPD*%
G36*
X-622553Y634132D02*
X-620273Y633187D01*
X-618315Y631685D01*
X-616813Y629727D01*
X-615868Y627447D01*
X-615546Y625000D01*
X-615868Y622553D01*
X-616813Y620273D01*
X-618315Y618315D01*
X-620273Y616813D01*
X-622553Y615868D01*
X-625000Y615546D01*
X-627447Y615868D01*
X-629727Y616813D01*
X-631685Y618315D01*
X-633187Y620273D01*
X-634132Y622553D01*
X-634454Y625000D01*
X-634132Y627447D01*
X-633187Y629727D01*
X-631685Y631685D01*
X-629727Y633187D01*
X-627447Y634132D01*
X-625000Y634454D01*
X-622553Y634132D01*
D02*
G37*
%LPC*%
G36*
X-624068Y632080D02*
X-625932D01*
X-627733Y631598D01*
X-629347Y630665D01*
X-630665Y629347D01*
X-631598Y627733D01*
X-632080Y625932D01*
Y624068D01*
X-631598Y622267D01*
X-630665Y620653D01*
X-629347Y619335D01*
X-627733Y618402D01*
X-625932Y617920D01*
X-624068D01*
X-622267Y618402D01*
X-620653Y619335D01*
X-619335Y620653D01*
X-618402Y622267D01*
X-617920Y624068D01*
Y625932D01*
X-618402Y627733D01*
X-619335Y629347D01*
X-620653Y630665D01*
X-622267Y631598D01*
X-624068Y632080D01*
D02*
G37*
%LPD*%
G36*
X327447Y-315868D02*
X329727Y-316813D01*
X331685Y-318315D01*
X333187Y-320273D01*
X334132Y-322553D01*
X334454Y-325000D01*
X334132Y-327447D01*
X333187Y-329727D01*
X331685Y-331685D01*
X329727Y-333187D01*
X327447Y-334132D01*
X325000Y-334454D01*
X322553Y-334132D01*
X320273Y-333187D01*
X318315Y-331685D01*
X316813Y-329727D01*
X315868Y-327447D01*
X315546Y-325000D01*
X315868Y-322553D01*
X316813Y-320273D01*
X318315Y-318315D01*
X320273Y-316813D01*
X322553Y-315868D01*
X325000Y-315546D01*
X327447Y-315868D01*
D02*
G37*
%LPC*%
G36*
X325932Y-317920D02*
X324068D01*
X322267Y-318403D01*
X320653Y-319335D01*
X319335Y-320653D01*
X318403Y-322267D01*
X317920Y-324068D01*
Y-325932D01*
X318403Y-327733D01*
X319335Y-329347D01*
X320653Y-330665D01*
X322267Y-331598D01*
X324068Y-332080D01*
X325932D01*
X327733Y-331598D01*
X329347Y-330665D01*
X330665Y-329347D01*
X331598Y-327733D01*
X332080Y-325932D01*
Y-324068D01*
X331598Y-322267D01*
X330665Y-320653D01*
X329347Y-319335D01*
X327733Y-318403D01*
X325932Y-317920D01*
D02*
G37*
G36*
X158040Y26540D02*
X152520D01*
Y21270D01*
X158040D01*
Y26540D01*
D02*
G37*
G36*
X220320Y28655D02*
Y19265D01*
X224403D01*
Y23554D01*
X223996Y25603D01*
X222836Y27339D01*
X221099Y28500D01*
X220320Y28655D01*
D02*
G37*
G36*
X217780Y28655D02*
X217001Y28500D01*
X215264Y27339D01*
X214104Y25603D01*
X213696Y23554D01*
Y19265D01*
X217780D01*
Y28655D01*
D02*
G37*
G36*
X158040Y18730D02*
X152520D01*
Y13460D01*
X158040D01*
Y18730D01*
D02*
G37*
G36*
X249730Y10540D02*
X249612D01*
X246932Y9822D01*
X244528Y8434D01*
X242566Y6472D01*
X241733Y5030D01*
X240267D01*
X239434Y6472D01*
X237472Y8434D01*
X235068Y9822D01*
X232388Y10540D01*
X232270D01*
Y0D01*
Y-10540D01*
X232388D01*
X235068Y-9822D01*
X237472Y-8434D01*
X239434Y-6472D01*
X240267Y-5030D01*
X241733D01*
X242566Y-6472D01*
X244528Y-8434D01*
X246932Y-9822D01*
X249612Y-10540D01*
X249730D01*
Y0D01*
Y10540D01*
D02*
G37*
G36*
X252388D02*
X252270D01*
Y1270D01*
X261540D01*
Y1388D01*
X260822Y4068D01*
X259434Y6472D01*
X257472Y8434D01*
X255068Y9822D01*
X252388Y10540D01*
D02*
G37*
G36*
X261540Y-1270D02*
X252270D01*
Y-10540D01*
X252388D01*
X255068Y-9822D01*
X257472Y-8434D01*
X259434Y-6472D01*
X260822Y-4068D01*
X261540Y-1388D01*
Y-1270D01*
D02*
G37*
G36*
X182540Y-14460D02*
X173520D01*
Y-23730D01*
X182540D01*
Y-14460D01*
D02*
G37*
G36*
X262290Y-23210D02*
X243770D01*
Y-33730D01*
X262290D01*
Y-23210D01*
D02*
G37*
G36*
X241230D02*
X222710D01*
Y-33730D01*
X241230D01*
Y-23210D01*
D02*
G37*
G36*
X182540Y-26270D02*
X173520D01*
Y-35540D01*
X182540D01*
Y-26270D01*
D02*
G37*
G36*
X262290Y-36270D02*
X243770D01*
Y-46790D01*
X262290D01*
Y-36270D01*
D02*
G37*
G36*
X241230D02*
X222710D01*
Y-46790D01*
X241230D01*
Y-36270D01*
D02*
G37*
G36*
X158040Y-43770D02*
X152520D01*
Y-49040D01*
X158040D01*
Y-43770D01*
D02*
G37*
G36*
X-164907Y-36900D02*
X-166697D01*
X-168351Y-37585D01*
X-169617Y-38851D01*
X-170302Y-40505D01*
Y-42295D01*
X-169617Y-43949D01*
X-168351Y-45215D01*
X-166697Y-45900D01*
X-164907D01*
X-163253Y-45215D01*
X-161987Y-43949D01*
X-161302Y-42295D01*
Y-40505D01*
X-161987Y-38851D01*
X-163253Y-37585D01*
X-164907Y-36900D01*
D02*
G37*
G36*
X68730Y-54270D02*
X59960D01*
Y-54322D01*
X60553Y-56534D01*
X59747Y-57633D01*
X59251Y-57500D01*
X56749D01*
X54333Y-58147D01*
X52167Y-59398D01*
X50398Y-61167D01*
X49148Y-63333D01*
X48500Y-65749D01*
Y-68251D01*
X49148Y-70667D01*
X50398Y-72833D01*
X52167Y-74602D01*
X54333Y-75853D01*
X56749Y-76500D01*
X59251D01*
X61667Y-75853D01*
X63833Y-74602D01*
X65602Y-72833D01*
X66853Y-70667D01*
X67500Y-68251D01*
Y-65749D01*
X67006Y-63907D01*
X67959Y-62847D01*
X68678Y-63040D01*
X68730D01*
Y-54270D01*
D02*
G37*
G36*
X-59105Y-53500D02*
X-60895D01*
X-62549Y-54185D01*
X-63815Y-55451D01*
X-64500Y-57105D01*
Y-58895D01*
X-63815Y-60549D01*
X-62549Y-61815D01*
X-60895Y-62500D01*
X-59105D01*
X-57451Y-61815D01*
X-56185Y-60549D01*
X-55500Y-58895D01*
Y-57105D01*
X-56185Y-55451D01*
X-57451Y-54185D01*
X-59105Y-53500D01*
D02*
G37*
G36*
X-136460Y-60960D02*
X-141730D01*
Y-66730D01*
X-136460D01*
Y-60960D01*
D02*
G37*
G36*
X-144270D02*
X-149540D01*
Y-66730D01*
X-144270D01*
Y-60960D01*
D02*
G37*
G36*
X-169277Y-62500D02*
X-171067D01*
X-172721Y-63185D01*
X-173986Y-64451D01*
X-174672Y-66105D01*
Y-67895D01*
X-173986Y-69549D01*
X-172721Y-70815D01*
X-171067Y-71500D01*
X-169277D01*
X-167623Y-70815D01*
X-166357Y-69549D01*
X-165672Y-67895D01*
Y-66105D01*
X-166357Y-64451D01*
X-167623Y-63185D01*
X-169277Y-62500D01*
D02*
G37*
G36*
X-101276Y-44676D02*
X-133724D01*
Y-74960D01*
X-136460D01*
Y-69270D01*
X-143000D01*
X-149540D01*
Y-73923D01*
X-149540Y-74191D01*
X-149569Y-74423D01*
X-149772Y-74440D01*
X-151000Y-73309D01*
Y-61500D01*
X-163000D01*
Y-74500D01*
X-163652Y-75500D01*
X-164000D01*
Y-82022D01*
X-165056Y-82727D01*
X-165605Y-82500D01*
X-167395D01*
X-169049Y-83185D01*
X-170315Y-84451D01*
X-171000Y-86105D01*
Y-87895D01*
X-170315Y-89549D01*
X-169049Y-90815D01*
X-167395Y-91500D01*
X-165605D01*
X-165056Y-91273D01*
X-164000Y-91978D01*
Y-93500D01*
X-150000D01*
Y-86000D01*
X-148605D01*
X-146951Y-85315D01*
X-146810Y-85174D01*
X-145540Y-85700D01*
Y-94040D01*
X-139270D01*
Y-84500D01*
X-138000D01*
Y-83230D01*
X-130460D01*
Y-77124D01*
X-101276D01*
Y-61559D01*
X-96500D01*
Y-64500D01*
X-83500D01*
Y-52500D01*
X-96500D01*
Y-55441D01*
X-101276D01*
Y-44676D01*
D02*
G37*
G36*
X-234105Y-61500D02*
X-235895D01*
X-237549Y-62185D01*
X-238815Y-63451D01*
X-239500Y-65105D01*
Y-66895D01*
X-238947Y-68230D01*
X-239381Y-69186D01*
X-239660Y-69500D01*
X-241500D01*
Y-81500D01*
X-228500D01*
Y-69500D01*
X-230340D01*
X-230619Y-69186D01*
X-231053Y-68230D01*
X-230500Y-66895D01*
Y-65105D01*
X-231185Y-63451D01*
X-232451Y-62185D01*
X-234105Y-61500D01*
D02*
G37*
G36*
X-23105Y-75500D02*
X-24895D01*
X-26549Y-76185D01*
X-27815Y-77451D01*
X-28500Y-79105D01*
Y-80895D01*
X-27815Y-82549D01*
X-26549Y-83815D01*
X-24895Y-84500D01*
X-23105D01*
X-21451Y-83815D01*
X-20185Y-82549D01*
X-19500Y-80895D01*
Y-79105D01*
X-20185Y-77451D01*
X-21451Y-76185D01*
X-23105Y-75500D01*
D02*
G37*
G36*
X-118770Y-83736D02*
X-119151D01*
X-122390Y-84380D01*
X-125441Y-85644D01*
X-128186Y-87479D01*
X-129287Y-88579D01*
X-130460Y-88093D01*
Y-85770D01*
X-136730D01*
Y-94040D01*
X-134112D01*
X-133407Y-95096D01*
X-133620Y-95610D01*
X-134264Y-98849D01*
Y-99230D01*
X-118770D01*
Y-83736D01*
D02*
G37*
G36*
X71395Y-81469D02*
X69605D01*
X67951Y-82154D01*
X66685Y-83420D01*
X66000Y-85074D01*
Y-86864D01*
X66685Y-88518D01*
X67951Y-89784D01*
X69605Y-90469D01*
X71395D01*
X73049Y-89784D01*
X74315Y-88518D01*
X75000Y-86864D01*
Y-85074D01*
X74315Y-83420D01*
X73049Y-82154D01*
X71395Y-81469D01*
D02*
G37*
G36*
X-38105Y-82500D02*
X-39895D01*
X-41549Y-83185D01*
X-42815Y-84451D01*
X-43500Y-86105D01*
Y-87895D01*
X-42815Y-89549D01*
X-41549Y-90815D01*
X-39895Y-91500D01*
X-38105D01*
X-36451Y-90815D01*
X-35185Y-89549D01*
X-34500Y-87895D01*
Y-86105D01*
X-35185Y-84451D01*
X-36451Y-83185D01*
X-38105Y-82500D01*
D02*
G37*
G36*
X-16230Y-83500D02*
X-18020D01*
X-19674Y-84185D01*
X-20940Y-85451D01*
X-21625Y-87105D01*
Y-88895D01*
X-20940Y-90549D01*
X-19674Y-91815D01*
X-18020Y-92500D01*
X-16230D01*
X-14576Y-91815D01*
X-13310Y-90549D01*
X-12625Y-88895D01*
Y-87105D01*
X-13310Y-85451D01*
X-14576Y-84185D01*
X-16230Y-83500D01*
D02*
G37*
G36*
X-83500Y-66500D02*
X-96500D01*
Y-78500D01*
X-97770Y-78500D01*
X-99000D01*
Y-93500D01*
X-81000D01*
Y-78500D01*
X-82230D01*
X-83500Y-78500D01*
Y-66500D01*
D02*
G37*
G36*
X-80460Y-96960D02*
X-88730D01*
Y-103730D01*
X-80460D01*
Y-96960D01*
D02*
G37*
G36*
X-115849Y-83736D02*
X-116230D01*
Y-100500D01*
Y-117264D01*
X-115849D01*
X-112610Y-116620D01*
X-109559Y-115356D01*
X-106814Y-113521D01*
X-104479Y-111186D01*
X-102644Y-108441D01*
X-101380Y-105390D01*
X-100810Y-102523D01*
X-99540Y-102648D01*
Y-103730D01*
X-91270D01*
Y-96960D01*
X-99540D01*
Y-98352D01*
X-100810Y-98477D01*
X-101380Y-95610D01*
X-102644Y-92559D01*
X-104479Y-89814D01*
X-106814Y-87479D01*
X-109559Y-85644D01*
X-112610Y-84380D01*
X-115849Y-83736D01*
D02*
G37*
G36*
X-4210Y-100434D02*
X-9480D01*
Y-106204D01*
X-4210D01*
Y-100434D01*
D02*
G37*
G36*
X-12020D02*
X-17290D01*
Y-106204D01*
X-12020D01*
Y-100434D01*
D02*
G37*
G36*
X73480Y-109460D02*
X67960D01*
Y-111187D01*
X66690Y-111933D01*
X65645Y-111500D01*
X63855D01*
X62201Y-112185D01*
X60935Y-113451D01*
X60250Y-115105D01*
Y-116895D01*
X60935Y-118549D01*
X62201Y-119815D01*
X63855Y-120500D01*
X65645D01*
X66690Y-120067D01*
X67960Y-120813D01*
Y-122540D01*
X73480D01*
Y-116000D01*
Y-109460D01*
D02*
G37*
G36*
X-80460Y-106270D02*
X-88730D01*
Y-113040D01*
X-80460D01*
Y-106270D01*
D02*
G37*
G36*
X-91270D02*
X-99540D01*
Y-113040D01*
X-91270D01*
Y-106270D01*
D02*
G37*
G36*
X30974Y-84150D02*
X-1474D01*
Y-114434D01*
X-4210D01*
Y-108744D01*
X-10750D01*
X-17290D01*
Y-113397D01*
X-17290Y-113665D01*
X-17319Y-113897D01*
X-17522Y-113914D01*
X-18750Y-112783D01*
Y-100974D01*
X-30750D01*
Y-113974D01*
X-31402Y-114974D01*
X-31750D01*
Y-132974D01*
X-17750D01*
Y-128874D01*
X-16355D01*
X-14701Y-128189D01*
X-14560Y-128048D01*
X-13290Y-128574D01*
Y-133514D01*
X-7020D01*
Y-123974D01*
X-5750D01*
Y-122704D01*
X1790D01*
Y-116598D01*
X30974D01*
Y-101033D01*
X35750D01*
Y-103974D01*
X48750D01*
Y-91974D01*
X35750D01*
Y-94915D01*
X30974D01*
Y-84150D01*
D02*
G37*
G36*
X-140500Y-97500D02*
X-154500D01*
Y-103441D01*
X-162500D01*
X-163671Y-103674D01*
X-164663Y-104337D01*
X-165326Y-105330D01*
X-165559Y-106500D01*
Y-110833D01*
X-166654Y-111928D01*
X-167339Y-113582D01*
Y-115372D01*
X-166654Y-117027D01*
X-165388Y-118292D01*
X-163734Y-118977D01*
X-162559D01*
Y-132900D01*
X-166000D01*
Y-144900D01*
X-153000D01*
Y-132900D01*
X-156441D01*
Y-114477D01*
X-156674Y-113307D01*
X-157337Y-112315D01*
X-158329Y-111651D01*
X-159441Y-111430D01*
Y-109559D01*
X-154500D01*
Y-115500D01*
X-140500D01*
Y-97500D01*
D02*
G37*
G36*
X-118770Y-101770D02*
X-134264D01*
Y-102151D01*
X-133620Y-105390D01*
X-132356Y-108441D01*
X-130521Y-111186D01*
X-128186Y-113521D01*
X-125441Y-115356D01*
X-122390Y-116620D01*
X-119151Y-117264D01*
X-118770D01*
Y-101770D01*
D02*
G37*
G36*
X-131631Y-115500D02*
X-133421D01*
X-135075Y-116185D01*
X-136341Y-117451D01*
X-137026Y-119105D01*
Y-120895D01*
X-136341Y-122549D01*
X-135075Y-123815D01*
X-133421Y-124500D01*
X-131631D01*
X-129977Y-123815D01*
X-128711Y-122549D01*
X-128026Y-120895D01*
Y-119105D01*
X-128711Y-117451D01*
X-129977Y-116185D01*
X-131631Y-115500D01*
D02*
G37*
G36*
X13480Y-123210D02*
X13099D01*
X9860Y-123854D01*
X6809Y-125118D01*
X4064Y-126952D01*
X2963Y-128053D01*
X1790Y-127567D01*
Y-125244D01*
X-4480D01*
Y-133514D01*
X-1862D01*
X-1157Y-134570D01*
X-1370Y-135084D01*
X-2014Y-138323D01*
Y-138704D01*
X13480D01*
Y-123210D01*
D02*
G37*
G36*
X-59105Y-121500D02*
X-60895D01*
X-62549Y-122185D01*
X-63815Y-123451D01*
X-64500Y-125105D01*
Y-126895D01*
X-63815Y-128549D01*
X-62549Y-129815D01*
X-60895Y-130500D01*
X-59105D01*
X-57451Y-129815D01*
X-56185Y-128549D01*
X-55500Y-126895D01*
Y-125105D01*
X-56185Y-123451D01*
X-57451Y-122185D01*
X-59105Y-121500D01*
D02*
G37*
G36*
X48750Y-105974D02*
X35750D01*
Y-117974D01*
X34480Y-117974D01*
X33250D01*
Y-132974D01*
X51250D01*
Y-117974D01*
X50020D01*
X48750Y-117974D01*
Y-105974D01*
D02*
G37*
G36*
X51790Y-136434D02*
X43520D01*
Y-143204D01*
X51790D01*
Y-136434D01*
D02*
G37*
G36*
X16401Y-123210D02*
X16020D01*
Y-139974D01*
Y-156738D01*
X16401D01*
X19640Y-156094D01*
X22691Y-154830D01*
X25436Y-152995D01*
X27771Y-150660D01*
X29606Y-147915D01*
X30870Y-144864D01*
X31440Y-141997D01*
X32710Y-142122D01*
Y-143204D01*
X40980D01*
Y-136434D01*
X32710D01*
Y-137826D01*
X31440Y-137951D01*
X30870Y-135084D01*
X29606Y-132033D01*
X27771Y-129288D01*
X25436Y-126952D01*
X22691Y-125118D01*
X19640Y-123854D01*
X16401Y-123210D01*
D02*
G37*
G36*
X-67595Y-136010D02*
X-69385D01*
X-71039Y-136695D01*
X-72305Y-137961D01*
X-72990Y-139615D01*
Y-141405D01*
X-72305Y-143059D01*
X-71039Y-144325D01*
X-69385Y-145010D01*
X-67595D01*
X-65941Y-144325D01*
X-64675Y-143059D01*
X-63990Y-141405D01*
Y-139615D01*
X-64675Y-137961D01*
X-65941Y-136695D01*
X-67595Y-136010D01*
D02*
G37*
G36*
X-118086Y-133460D02*
X-118730D01*
Y-146730D01*
X-105460D01*
Y-146086D01*
X-106451Y-142388D01*
X-108365Y-139072D01*
X-111072Y-136365D01*
X-114388Y-134451D01*
X-118086Y-133460D01*
D02*
G37*
G36*
X-121270D02*
X-121914D01*
X-125612Y-134451D01*
X-128928Y-136365D01*
X-131635Y-139072D01*
X-133549Y-142388D01*
X-134540Y-146086D01*
Y-146730D01*
X-121270D01*
Y-133460D01*
D02*
G37*
G36*
X51790Y-145744D02*
X43520D01*
Y-152514D01*
X51790D01*
Y-145744D01*
D02*
G37*
G36*
X40980D02*
X32710D01*
Y-152514D01*
X40980D01*
Y-145744D01*
D02*
G37*
G36*
X-8250Y-136974D02*
X-22250D01*
Y-142915D01*
X-24865D01*
X-26036Y-143148D01*
X-27028Y-143811D01*
X-27028Y-143811D01*
X-30415Y-147198D01*
X-31484D01*
X-33138Y-147883D01*
X-34404Y-149149D01*
X-35089Y-150803D01*
Y-152593D01*
X-34404Y-154247D01*
X-33138Y-155513D01*
X-31484Y-156198D01*
X-31227D01*
X-30309Y-157116D01*
Y-172374D01*
X-33750D01*
Y-184374D01*
X-20750D01*
Y-172374D01*
X-24191D01*
Y-155849D01*
X-24424Y-154678D01*
X-25087Y-153686D01*
X-25087Y-153686D01*
X-26116Y-152657D01*
X-26089Y-152593D01*
Y-151524D01*
X-23598Y-149033D01*
X-22250D01*
Y-154974D01*
X-8250D01*
Y-136974D01*
D02*
G37*
G36*
X-51605Y-146000D02*
X-53395D01*
X-55049Y-146685D01*
X-56315Y-147951D01*
X-57000Y-149605D01*
Y-151395D01*
X-56315Y-153049D01*
X-55049Y-154315D01*
X-53395Y-155000D01*
X-51605D01*
X-49951Y-154315D01*
X-48685Y-153049D01*
X-48000Y-151395D01*
Y-149605D01*
X-48685Y-147951D01*
X-49951Y-146685D01*
X-51605Y-146000D01*
D02*
G37*
G36*
X13480Y-141244D02*
X-2014D01*
Y-141625D01*
X-1370Y-144864D01*
X-106Y-147915D01*
X1729Y-150660D01*
X4064Y-152995D01*
X6809Y-154830D01*
X9860Y-156094D01*
X13099Y-156738D01*
X13480D01*
Y-141244D01*
D02*
G37*
G36*
X-105460Y-149270D02*
X-118730D01*
Y-162540D01*
X-118086D01*
X-114388Y-161549D01*
X-111072Y-159635D01*
X-108365Y-156928D01*
X-106451Y-153612D01*
X-105460Y-149914D01*
Y-149270D01*
D02*
G37*
G36*
X-121270D02*
X-134540D01*
Y-149914D01*
X-133549Y-153612D01*
X-132335Y-155715D01*
X-132743Y-156917D01*
X-132943Y-157000D01*
X-134208Y-158266D01*
X-134894Y-159920D01*
Y-161710D01*
X-134208Y-163364D01*
X-132943Y-164630D01*
X-131289Y-165315D01*
X-129499D01*
X-127844Y-164630D01*
X-126579Y-163364D01*
X-126276Y-162633D01*
X-125719Y-161723D01*
X-124662Y-161804D01*
X-121914Y-162540D01*
X-121270D01*
Y-149270D01*
D02*
G37*
G36*
X-198657Y-145670D02*
X-206096Y-153108D01*
X-193000Y-166204D01*
X-185561Y-158765D01*
X-198657Y-145670D01*
D02*
G37*
G36*
X-44494Y-160889D02*
X-46284D01*
X-47938Y-161574D01*
X-49204Y-162840D01*
X-49889Y-164494D01*
Y-166284D01*
X-49204Y-167938D01*
X-47938Y-169204D01*
X-46284Y-169889D01*
X-44494D01*
X-42840Y-169204D01*
X-41574Y-167938D01*
X-40889Y-166284D01*
Y-164494D01*
X-41574Y-162840D01*
X-42840Y-161574D01*
X-44494Y-160889D01*
D02*
G37*
G36*
X-105Y-161500D02*
X-1895D01*
X-3549Y-162185D01*
X-4815Y-163451D01*
X-5500Y-165105D01*
Y-166895D01*
X-4815Y-168549D01*
X-3549Y-169815D01*
X-1895Y-170500D01*
X-105D01*
X1549Y-169815D01*
X2815Y-168549D01*
X3500Y-166895D01*
Y-165105D01*
X2815Y-163451D01*
X1549Y-162185D01*
X-105Y-161500D01*
D02*
G37*
G36*
X-93605Y-166400D02*
X-95395D01*
X-97049Y-167085D01*
X-98315Y-168351D01*
X-99000Y-170005D01*
Y-171795D01*
X-98315Y-173449D01*
X-97049Y-174715D01*
X-95395Y-175400D01*
X-93605D01*
X-91951Y-174715D01*
X-90685Y-173449D01*
X-90000Y-171795D01*
Y-170005D01*
X-90685Y-168351D01*
X-91951Y-167085D01*
X-93605Y-166400D01*
D02*
G37*
G36*
X14164Y-172934D02*
X13520D01*
Y-186204D01*
X26790D01*
Y-185560D01*
X26118Y-183052D01*
X27183Y-182118D01*
X28105Y-182500D01*
X29895D01*
X31549Y-181815D01*
X32815Y-180549D01*
X33500Y-178895D01*
Y-177105D01*
X32815Y-175451D01*
X31549Y-174185D01*
X29895Y-173500D01*
X28105D01*
X26451Y-174185D01*
X25185Y-175451D01*
X24500Y-177105D01*
Y-177365D01*
X23230Y-177891D01*
X21178Y-175839D01*
X17862Y-173925D01*
X14164Y-172934D01*
D02*
G37*
G36*
X-52717Y-180217D02*
X-57987D01*
Y-185737D01*
X-52717D01*
Y-180217D01*
D02*
G37*
G36*
X-60527D02*
X-65797D01*
Y-185737D01*
X-60527D01*
Y-180217D01*
D02*
G37*
G36*
X10980Y-172934D02*
X10336D01*
X6638Y-173925D01*
X3322Y-175839D01*
X615Y-178546D01*
X-1299Y-181862D01*
X-2290Y-185560D01*
Y-186204D01*
X10980D01*
Y-172934D01*
D02*
G37*
G36*
X-20750Y-186374D02*
X-33750D01*
Y-189315D01*
X-34750D01*
X-35921Y-189548D01*
X-36913Y-190211D01*
X-36913Y-190211D01*
X-41039Y-194337D01*
X-41702Y-195329D01*
X-41935Y-196500D01*
X-41935Y-196500D01*
Y-198321D01*
X-43065Y-199451D01*
X-43750Y-201105D01*
Y-202895D01*
X-43065Y-204549D01*
X-41799Y-205815D01*
X-40145Y-206500D01*
X-38355D01*
X-36701Y-205815D01*
X-35435Y-204549D01*
X-34750Y-202895D01*
Y-201105D01*
X-35435Y-199451D01*
X-35817Y-199069D01*
Y-197767D01*
X-34923Y-196873D01*
X-33750Y-197359D01*
Y-198374D01*
X-20750D01*
Y-186374D01*
D02*
G37*
G36*
X-118157Y-189000D02*
X-121843D01*
X-125404Y-189954D01*
X-128596Y-191797D01*
X-131203Y-194404D01*
X-133046Y-197596D01*
X-133918Y-200851D01*
X-135149Y-201416D01*
X-135362Y-201203D01*
X-137230Y-200430D01*
Y-205900D01*
Y-211370D01*
X-135362Y-210597D01*
X-134021Y-209255D01*
X-132971Y-209204D01*
X-132534Y-209291D01*
X-131203Y-211596D01*
X-128596Y-214203D01*
X-125404Y-216046D01*
X-121843Y-217000D01*
X-118157D01*
X-114596Y-216046D01*
X-111404Y-214203D01*
X-108797Y-211596D01*
X-106954Y-208404D01*
X-106000Y-204843D01*
Y-201157D01*
X-106954Y-197596D01*
X-108797Y-194404D01*
X-111404Y-191797D01*
X-114596Y-189954D01*
X-118157Y-189000D01*
D02*
G37*
G36*
X63540Y-195960D02*
X58270D01*
Y-201480D01*
X63540D01*
Y-195960D01*
D02*
G37*
G36*
X55730D02*
X50460D01*
Y-201480D01*
X55730D01*
Y-195960D01*
D02*
G37*
G36*
X26790Y-188744D02*
X13520D01*
Y-202014D01*
X14164D01*
X17862Y-201023D01*
X21178Y-199109D01*
X23885Y-196402D01*
X25799Y-193086D01*
X26790Y-189388D01*
Y-188744D01*
D02*
G37*
G36*
X10980D02*
X-2290D01*
Y-189388D01*
X-1299Y-193086D01*
X615Y-196402D01*
X3322Y-199109D01*
X6638Y-201023D01*
X10336Y-202014D01*
X10980D01*
Y-188744D01*
D02*
G37*
G36*
X-139770Y-200430D02*
X-141638Y-201203D01*
X-143197Y-202762D01*
X-143970Y-204630D01*
X-139770D01*
Y-200430D01*
D02*
G37*
G36*
X-52717Y-188277D02*
X-65797D01*
Y-193797D01*
X-65257D01*
Y-205757D01*
X-53257D01*
Y-193797D01*
X-52717D01*
Y-188277D01*
D02*
G37*
G36*
X-139770Y-207170D02*
X-143970D01*
X-143197Y-209038D01*
X-141638Y-210597D01*
X-139770Y-211370D01*
Y-207170D01*
D02*
G37*
G36*
X81730Y-210071D02*
X80145Y-210727D01*
X78727Y-212145D01*
X78071Y-213730D01*
X81730D01*
Y-210071D01*
D02*
G37*
G36*
Y-216270D02*
X78071D01*
X78727Y-217855D01*
X80145Y-219273D01*
X81730Y-219929D01*
Y-216270D01*
D02*
G37*
G36*
X63540Y-204020D02*
X50460D01*
Y-209540D01*
X51000D01*
Y-221500D01*
X63000D01*
X63500Y-220500D01*
X76500D01*
Y-210500D01*
X64288D01*
X63540Y-209540D01*
X63540Y-209247D01*
Y-204020D01*
D02*
G37*
G36*
X-43105Y-214500D02*
X-44895D01*
X-46549Y-215185D01*
X-47815Y-216451D01*
X-48500Y-218105D01*
Y-219895D01*
X-47815Y-221549D01*
X-46549Y-222815D01*
X-44895Y-223500D01*
X-43105D01*
X-41451Y-222815D01*
X-40185Y-221549D01*
X-39500Y-219895D01*
Y-218105D01*
X-40185Y-216451D01*
X-41451Y-215185D01*
X-43105Y-214500D01*
D02*
G37*
G36*
X-48105Y-227500D02*
X-49895D01*
X-51549Y-228185D01*
X-52815Y-229451D01*
X-53500Y-231105D01*
Y-232895D01*
X-52815Y-234549D01*
X-51549Y-235815D01*
X-49895Y-236500D01*
X-48105D01*
X-46451Y-235815D01*
X-45185Y-234549D01*
X-44500Y-232895D01*
Y-231105D01*
X-45185Y-229451D01*
X-46451Y-228185D01*
X-48105Y-227500D01*
D02*
G37*
G36*
X14093Y-228474D02*
X10407D01*
X6846Y-229428D01*
X3654Y-231271D01*
X1047Y-233878D01*
X-796Y-237070D01*
X-1668Y-240325D01*
X-2899Y-240890D01*
X-3112Y-240677D01*
X-4980Y-239904D01*
Y-245374D01*
Y-250844D01*
X-3112Y-250071D01*
X-1771Y-248729D01*
X-721Y-248678D01*
X-284Y-248765D01*
X1047Y-251070D01*
X3654Y-253677D01*
X6846Y-255520D01*
X10407Y-256474D01*
X14093D01*
X17654Y-255520D01*
X20846Y-253677D01*
X23453Y-251070D01*
X25296Y-247878D01*
X26250Y-244317D01*
Y-240631D01*
X25296Y-237070D01*
X23453Y-233878D01*
X20846Y-231271D01*
X17654Y-229428D01*
X14093Y-228474D01*
D02*
G37*
G36*
X-7520Y-239904D02*
X-9388Y-240677D01*
X-10947Y-242236D01*
X-11720Y-244104D01*
X-7520D01*
Y-239904D01*
D02*
G37*
G36*
Y-246644D02*
X-11720D01*
X-10947Y-248512D01*
X-9388Y-250071D01*
X-7520Y-250844D01*
Y-246644D01*
D02*
G37*
G36*
X-37105Y-242500D02*
X-38895D01*
X-40549Y-243185D01*
X-41815Y-244451D01*
X-42500Y-246105D01*
Y-247895D01*
X-41815Y-249549D01*
X-40549Y-250815D01*
X-38895Y-251500D01*
X-37105D01*
X-35451Y-250815D01*
X-34185Y-249549D01*
X-33500Y-247895D01*
Y-246105D01*
X-34185Y-244451D01*
X-35451Y-243185D01*
X-37105Y-242500D01*
D02*
G37*
G36*
X37895Y-250500D02*
X36105D01*
X34451Y-251185D01*
X33185Y-252451D01*
X32500Y-254105D01*
Y-255895D01*
X33185Y-257549D01*
X34451Y-258815D01*
X36105Y-259500D01*
X37895D01*
X39549Y-258815D01*
X40815Y-257549D01*
X41500Y-255895D01*
Y-254105D01*
X40815Y-252451D01*
X39549Y-251185D01*
X37895Y-250500D01*
D02*
G37*
G36*
X198590Y-112270D02*
X190145D01*
Y-118590D01*
X196000Y-118590D01*
X196250Y-118540D01*
X198540D01*
Y-116250D01*
X198590Y-116000D01*
Y-112270D01*
D02*
G37*
G36*
X181040Y-189270D02*
X173770D01*
Y-193040D01*
X181040D01*
Y-189270D01*
D02*
G37*
G36*
X171230D02*
X163960D01*
Y-193040D01*
X171230D01*
Y-189270D01*
D02*
G37*
G36*
X-522013Y-154500D02*
X-523987D01*
X-525895Y-155011D01*
X-527605Y-155998D01*
X-529002Y-157395D01*
X-529989Y-159105D01*
X-530500Y-161013D01*
Y-162987D01*
X-529989Y-164895D01*
X-529002Y-166605D01*
X-527605Y-168001D01*
X-525895Y-168989D01*
X-523987Y-169500D01*
X-522013D01*
X-520105Y-168989D01*
X-518395Y-168001D01*
X-516998Y-166605D01*
X-516011Y-164895D01*
X-515500Y-162987D01*
Y-161013D01*
X-516011Y-159105D01*
X-516998Y-157395D01*
X-518395Y-155998D01*
X-520105Y-155011D01*
X-522013Y-154500D01*
D02*
G37*
G36*
X-599270Y-168460D02*
X-599388D01*
X-602068Y-169178D01*
X-604472Y-170566D01*
X-606434Y-172528D01*
X-607822Y-174932D01*
X-608540Y-177612D01*
Y-177730D01*
X-599270D01*
Y-168460D01*
D02*
G37*
G36*
X-596612D02*
X-596730D01*
Y-179000D01*
Y-189540D01*
X-596612D01*
X-593932Y-188822D01*
X-591528Y-187434D01*
X-589566Y-185472D01*
X-588419Y-183486D01*
X-587203Y-183371D01*
X-586984Y-183439D01*
X-586002Y-185140D01*
X-584140Y-187002D01*
X-581860Y-188319D01*
X-581059Y-188533D01*
Y-193461D01*
X-583000D01*
X-583197Y-193500D01*
X-585000D01*
Y-195303D01*
X-585039Y-195500D01*
Y-204750D01*
X-584884Y-205531D01*
X-584475Y-206250D01*
X-584884Y-206970D01*
X-585039Y-207750D01*
X-585039Y-207750D01*
Y-221500D01*
X-585000Y-221697D01*
Y-223500D01*
X-583197D01*
X-583000Y-223539D01*
X-581059D01*
Y-233000D01*
X-581059Y-233000D01*
X-580826Y-234171D01*
X-580163Y-235163D01*
X-564163Y-251163D01*
X-563171Y-251826D01*
X-562000Y-252059D01*
X-562000Y-252059D01*
X-523305D01*
X-522549Y-252815D01*
X-520895Y-253500D01*
X-519105D01*
X-517451Y-252815D01*
X-516185Y-251549D01*
X-515500Y-249895D01*
Y-248105D01*
X-516185Y-246451D01*
X-517451Y-245185D01*
X-518686Y-244673D01*
Y-243327D01*
X-517451Y-242815D01*
X-516185Y-241549D01*
X-515500Y-239895D01*
Y-238105D01*
X-516185Y-236451D01*
X-517451Y-235185D01*
X-519105Y-234500D01*
X-520895D01*
X-522549Y-235185D01*
X-523305Y-235941D01*
X-548733D01*
X-554941Y-229733D01*
Y-223039D01*
X-553000D01*
X-552803Y-223000D01*
X-551000D01*
Y-221197D01*
X-550961Y-221000D01*
Y-207250D01*
X-551116Y-206470D01*
X-551558Y-205808D01*
X-551116Y-205031D01*
X-550961Y-204250D01*
X-550961Y-195000D01*
X-551000Y-194803D01*
Y-193000D01*
X-552803D01*
X-553000Y-192961D01*
X-554941D01*
Y-188533D01*
X-554140Y-188319D01*
X-551860Y-187002D01*
X-549998Y-185140D01*
X-548681Y-182860D01*
X-548657Y-182770D01*
X-547343D01*
X-547318Y-182860D01*
X-546002Y-185140D01*
X-544140Y-187002D01*
X-541860Y-188319D01*
X-539316Y-189000D01*
X-536684D01*
X-534140Y-188319D01*
X-531860Y-187002D01*
X-529998Y-185140D01*
X-528681Y-182860D01*
X-528000Y-180317D01*
Y-177684D01*
X-528681Y-175140D01*
X-529998Y-172860D01*
X-531860Y-170998D01*
X-534140Y-169681D01*
X-536684Y-169000D01*
X-539316D01*
X-541860Y-169681D01*
X-544140Y-170998D01*
X-546002Y-172860D01*
X-547318Y-175140D01*
X-547343Y-175230D01*
X-548657D01*
X-548681Y-175140D01*
X-549998Y-172860D01*
X-551860Y-170998D01*
X-554140Y-169681D01*
X-556684Y-169000D01*
X-559316D01*
X-561860Y-169681D01*
X-564140Y-170998D01*
X-566002Y-172860D01*
X-567318Y-175140D01*
X-567343Y-175230D01*
X-568657D01*
X-568681Y-175140D01*
X-569998Y-172860D01*
X-571860Y-170998D01*
X-574140Y-169681D01*
X-576684Y-169000D01*
X-579316D01*
X-581860Y-169681D01*
X-584140Y-170998D01*
X-586002Y-172860D01*
X-586984Y-174561D01*
X-587203Y-174629D01*
X-588419Y-174514D01*
X-589566Y-172528D01*
X-591528Y-170566D01*
X-593932Y-169178D01*
X-596612Y-168460D01*
D02*
G37*
G36*
X-599270Y-180270D02*
X-608540D01*
Y-180388D01*
X-607822Y-183068D01*
X-606434Y-185472D01*
X-604472Y-187434D01*
X-602068Y-188822D01*
X-599388Y-189540D01*
X-599270D01*
Y-180270D01*
D02*
G37*
%LPD*%
D15*
X134000Y-133709D02*
Y-117500D01*
X131250Y-137000D02*
Y-136459D01*
X134000Y-133709D01*
X195686Y-155000D02*
X212000D01*
X181500Y-155452D02*
X185452Y-151500D01*
X173048Y-155452D02*
X181500D01*
X172500Y-156000D02*
X173048Y-155452D01*
X212000Y-155000D02*
X212000Y-155000D01*
X192186Y-151500D02*
X195686Y-155000D01*
X185452Y-151500D02*
X192186D01*
X172500Y-164000D02*
X198000D01*
X199000Y-165000D01*
X173000Y-147500D02*
X198500D01*
X199000Y-147000D01*
X172500Y-140000D02*
X186000D01*
X172500Y-148000D02*
X173000Y-147500D01*
X-624000Y186000D02*
X-614000Y196000D01*
X-594000D01*
X94500Y-215000D02*
X99500D01*
X94000Y-215500D02*
X94500Y-215000D01*
X35483Y-243472D02*
X90528D01*
X31512Y-239500D02*
X35483Y-243472D01*
X-471000Y116500D02*
Y116750D01*
Y116500D02*
X-461500Y107000D01*
X-442000D01*
Y82000D02*
X-440000Y80000D01*
X-442000Y82000D02*
Y107000D01*
X-624000Y84000D02*
X-620000Y80000D01*
X-624000Y84000D02*
Y126000D01*
X-605875Y146000D02*
X-602875Y149000D01*
X-624000Y146000D02*
X-605875D01*
X-603875Y166000D02*
X-602875Y165000D01*
X-624000Y166000D02*
X-603875D01*
X-594000Y182000D02*
X-593875D01*
X-590875Y179000D01*
Y165000D02*
Y179000D01*
X-594000Y182000D02*
X-593000Y183000D01*
X-577000D01*
X-588000Y130000D02*
Y146125D01*
X-442000Y167000D02*
X-423000D01*
X-442000Y147000D02*
X-423000D01*
X-471000Y129250D02*
Y167000D01*
X-457000Y147000D02*
X-442000D01*
X-457000Y167000D02*
X-442000D01*
X163000Y138000D02*
X166250Y134750D01*
X129389Y138000D02*
X163000D01*
X128278Y139111D02*
X129389Y138000D01*
X121722Y139111D02*
X128278D01*
X120355Y140478D02*
X121722Y139111D01*
X107744Y140478D02*
X120355D01*
X104267Y137000D02*
X107744Y140478D01*
X94500Y137000D02*
X104267D01*
X125426Y121426D02*
Y133037D01*
X126000Y133611D01*
X163672Y202500D02*
X169500D01*
X175000Y197000D01*
Y183576D02*
Y197000D01*
Y183576D02*
X185000Y173576D01*
Y162125D02*
Y173576D01*
Y162125D02*
X186500Y160625D01*
X189000D01*
X206000Y156000D02*
Y168000D01*
X195646Y178354D02*
X206000Y168000D01*
X188000Y178354D02*
X195646D01*
X166000Y149000D02*
X169000Y146000D01*
X178250D01*
X180250Y144000D01*
X189000D01*
X192437Y140562D02*
X193650Y139350D01*
X166250Y122000D02*
Y134750D01*
X180945Y122000D02*
X180950Y122005D01*
X166250Y122000D02*
X180945D01*
X193650Y122005D02*
Y139350D01*
X206000Y144000D02*
X206350Y143650D01*
Y122005D02*
Y143650D01*
X187000Y-173000D02*
X188000Y-174000D01*
X173500Y-173000D02*
X187000D01*
X172500Y-172000D02*
X173500Y-173000D01*
X124000Y-220000D02*
Y-208000D01*
X126000Y-206000D01*
Y-202500D01*
X57000Y-215250D02*
X57125Y-215375D01*
X69875D01*
X70000Y-215500D01*
X-235000Y-75500D02*
Y-66000D01*
X102000Y-117500D02*
Y-117000D01*
X101000Y-116000D02*
X102000Y-117000D01*
X87250Y-116000D02*
X101000D01*
X97980Y-137072D02*
Y-136531D01*
X102000Y-132510D01*
Y-117500D01*
X158000Y-202500D02*
Y-199000D01*
X159000Y-198000D01*
X124000Y-229000D02*
Y-220000D01*
X239250Y-35000D02*
X242500D01*
X138750Y-42500D02*
Y-30213D01*
X151000Y0D02*
X171000D01*
X231000Y-26750D02*
X239250Y-35000D01*
X231000Y-26750D02*
Y0D01*
X251000D01*
X219050Y12193D02*
Y17995D01*
Y12193D02*
X231000Y243D01*
Y0D02*
Y243D01*
X206350Y7639D02*
Y17995D01*
Y7639D02*
X211000Y2989D01*
Y0D02*
Y2989D01*
X192995Y17340D02*
X193650Y17995D01*
X192995Y1995D02*
Y17340D01*
X191000Y0D02*
X192995Y1995D01*
X180295Y17340D02*
X180950Y17995D01*
X180295Y9295D02*
Y17340D01*
X171000Y0D02*
X180295Y9295D01*
X-116500Y-105000D02*
X-90000D01*
X-116500D02*
Y-98900D01*
X15750Y-144474D02*
X42250D01*
X15750D02*
Y-138374D01*
X94000Y-225000D02*
X101500D01*
X104500Y-222000D01*
X105000D01*
X108000Y-219000D01*
Y-218750D01*
X116500Y-227328D02*
Y-214050D01*
X234500Y-35000D02*
X239250D01*
X225000Y-25500D02*
X234500Y-35000D01*
X225000Y-25500D02*
Y-25000D01*
X172250D02*
X225000D01*
X165500Y-31750D02*
X172250Y-25000D01*
X165500Y-32243D02*
Y-31750D01*
X161071Y-36672D02*
X165500Y-32243D01*
X157328Y-36672D02*
X161071D01*
X151500Y-42500D02*
X157328Y-36672D01*
X151250Y-42500D02*
X151500D01*
X172500Y-132000D02*
Y-111000D01*
X-222000Y82000D02*
X-191000D01*
X-204000Y102000D02*
X-191000D01*
X-159500Y-138900D02*
Y-114477D01*
X-162839D02*
X-162500Y-114138D01*
Y-106500D01*
X-162839Y-114477D02*
X-159500D01*
X61536Y-163000D02*
X62536Y-164000D01*
X62037Y-183151D02*
Y-181673D01*
X62536Y-164000D02*
X87500D01*
X60000Y-186000D02*
Y-185188D01*
X60724Y-163000D02*
X61536D01*
X63451Y-180259D02*
X87241D01*
X62037Y-181673D02*
X63451Y-180259D01*
X60000Y-185188D02*
X62037Y-183151D01*
X61500Y-149861D02*
X67639Y-156000D01*
X137184Y-154341D02*
X142000Y-149526D01*
X131010Y-154341D02*
X137184D01*
X115000Y-188821D02*
X115360Y-189181D01*
X115000Y-188821D02*
Y-175985D01*
X165974Y-178474D02*
X166000Y-178500D01*
X171000D01*
X172500Y-180000D01*
X160474Y-178474D02*
X165974D01*
X90528Y-243472D02*
X94000Y-240000D01*
X87500Y-172000D02*
X100000D01*
X50000Y244500D02*
Y244750D01*
Y244500D02*
X57753Y236747D01*
X65322D01*
X70075Y231993D01*
Y229925D02*
Y231993D01*
Y229925D02*
X78000Y222000D01*
Y220500D02*
Y222000D01*
X78000Y220500D02*
X78000Y220500D01*
X78000Y214000D02*
Y220500D01*
X97000Y244500D02*
Y246000D01*
X33000Y205500D02*
X33409Y205909D01*
X49000D01*
X-222000Y96000D02*
X-222000Y96000D01*
X-210000D01*
X-204000Y102000D01*
X94000Y-240000D02*
Y-234500D01*
X105000D01*
X108000Y-231500D01*
Y-231250D01*
X150000Y-210000D02*
Y-202500D01*
Y-210000D02*
X156000Y-216000D01*
X146500Y-223000D02*
Y-215050D01*
X143000Y-211550D02*
X146500Y-215050D01*
X87500Y212250D02*
Y220500D01*
X80250Y205000D02*
X87500Y212250D01*
X80000Y205000D02*
X80250D01*
X73736Y163750D02*
X79986Y170000D01*
X67500Y163750D02*
X73736D01*
X67500D02*
Y176250D01*
X32500Y161624D02*
X39274Y168398D01*
X32500Y155500D02*
Y161624D01*
X25000Y146000D02*
Y148000D01*
X32500Y155500D01*
X48426Y205334D02*
X49000Y205909D01*
X48426Y203326D02*
Y205334D01*
X37500Y192400D02*
X48426Y203326D01*
X37000Y192400D02*
X37500D01*
X94500Y137000D02*
Y145722D01*
X99500Y150722D01*
X81485Y184000D02*
X99500Y165985D01*
Y150722D02*
Y165985D01*
X102443Y184146D02*
X109552D01*
X100589Y186000D02*
X102443Y184146D01*
X90860Y186000D02*
X100589D01*
X109552Y184146D02*
X118000Y192595D01*
X67500Y188750D02*
Y189000D01*
X70500Y192000D01*
X80000D01*
X81000Y193000D01*
X67500Y188750D02*
Y205000D01*
X148250Y198000D02*
X150944Y195306D01*
X157039D01*
X139500Y210000D02*
X140000D01*
X135750Y206250D02*
X139500Y210000D01*
X135750Y198000D02*
Y206250D01*
X129000Y224000D02*
X140000D01*
X121541Y198000D02*
X134625D01*
X11971Y217017D02*
X19017D01*
X87241Y-180259D02*
X87500Y-180000D01*
X110000Y-186485D02*
Y-172500D01*
X103000Y-155000D02*
Y-144500D01*
X121762Y-171795D02*
X124000Y-169556D01*
X116000Y-170485D02*
X119000Y-167485D01*
X115000Y-175985D02*
X116000Y-174985D01*
Y-170485D01*
X121762Y-187220D02*
Y-171795D01*
X124000Y-169556D02*
Y-160444D01*
X109360Y-187125D02*
X110000Y-186485D01*
X119000Y-167485D02*
Y-162515D01*
X-24750Y-124374D02*
Y-107474D01*
X-24350Y-124374D02*
X-17250D01*
X-24750Y-123974D02*
X-24350Y-124374D01*
X-30250Y-151359D02*
X-24865Y-145974D01*
X-30589Y-152510D02*
Y-151698D01*
X-154000Y-81500D02*
X-149500D01*
X-157000Y-84500D02*
X-154000Y-81500D01*
X-157000Y-84500D02*
Y-68000D01*
X-162500Y-106500D02*
X-147500D01*
X-174000Y-152778D02*
Y-142985D01*
X-177000Y-163276D02*
Y-155778D01*
X-174000Y-152778D01*
X-170926Y-156826D02*
X-167000Y-152900D01*
X-170926Y-160424D02*
Y-156826D01*
X-194000Y-90000D02*
X-177000D01*
X-167000Y-152900D02*
X-159500D01*
X-177000Y-139985D02*
Y-90000D01*
Y-139985D02*
X-174000Y-142985D01*
X-171500Y-160998D02*
X-170926Y-160424D01*
X-177000Y-163276D02*
X-173278Y-166998D01*
X31512Y-239500D02*
Y-234512D01*
X31000Y-234000D02*
X31512Y-234512D01*
X-30250Y-151698D02*
Y-151359D01*
X-27250Y-178374D02*
Y-155849D01*
X-30589Y-152510D02*
X-27250Y-155849D01*
X-24865Y-145974D02*
X-15250D01*
X-173278Y-166998D02*
X-170146D01*
X-166000Y-171144D01*
X-194000Y-90000D02*
Y-77000D01*
X-235000Y-89500D02*
X-234500Y-90000D01*
X-194000D01*
X-170000Y-208000D02*
Y-190670D01*
X-166000Y-186670D01*
X155646Y174000D02*
X156146Y174500D01*
X164500D01*
X165000Y175000D01*
X-558000Y-197000D02*
X-557000Y-198000D01*
X-558000Y-197000D02*
Y-179000D01*
X-578000Y-198000D02*
X-578000Y-198000D01*
X-578000Y-198000D02*
Y-179000D01*
X-558000Y-231000D02*
Y-218500D01*
X-550000Y-239000D02*
X-520000D01*
X-558000Y-231000D02*
X-550000Y-239000D01*
X-578000Y-233000D02*
Y-219000D01*
X-562000Y-249000D02*
X-520000D01*
X-578000Y-233000D02*
X-562000Y-249000D01*
X-561000Y-88000D02*
X-519000D01*
X-577000Y-72000D02*
X-561000Y-88000D01*
X-577000Y-72000D02*
Y-58000D01*
X-549000Y-78000D02*
X-519000D01*
X-557000Y-70000D02*
X-549000Y-78000D01*
X-557000Y-70000D02*
Y-57500D01*
X-577000Y-37000D02*
X-577000Y-37000D01*
X-577000Y-37000D02*
Y-18000D01*
X-557000Y-36000D02*
X-556000Y-37000D01*
X-557000Y-36000D02*
Y-18000D01*
X78541Y-138000D02*
X79541Y-139000D01*
X86500D01*
X78000Y-138000D02*
X78541D01*
X110000Y-137500D02*
Y-117500D01*
X103000Y-144500D02*
X110000Y-137500D01*
X125000Y-107000D02*
X144950D01*
X72000Y184000D02*
X81485D01*
X69000Y187000D02*
X72000Y184000D01*
X67500Y187000D02*
X69000D01*
X67500D02*
Y188750D01*
X58129Y160629D02*
Y203050D01*
X118000Y201000D02*
Y205909D01*
X128000Y225541D02*
Y227450D01*
X102050Y229500D02*
X125950D01*
X128000Y225541D02*
X129000Y224541D01*
X125950Y229500D02*
X128000Y227450D01*
X129000Y224000D02*
Y224541D01*
X118000Y192595D02*
Y201000D01*
X81000Y193000D02*
X83860D01*
X90860Y186000D01*
X26500Y224500D02*
X33000D01*
X19017Y217017D02*
X26500Y224500D01*
X120250Y205909D02*
Y222000D01*
X118000Y201000D02*
X118541D01*
X118000Y205909D02*
X120250D01*
X118541Y201000D02*
X121541Y198000D01*
X86500Y-139000D02*
X87500Y-140000D01*
X73179Y-142500D02*
X77679Y-147000D01*
X72638Y-142500D02*
X73179D01*
X77679Y-147000D02*
X86500D01*
X67639Y-156000D02*
X87500D01*
X86500Y-147000D02*
X87500Y-148000D01*
X121762Y-158205D02*
Y-127188D01*
X116762Y-160276D02*
Y-125117D01*
Y-160276D02*
X119000Y-162515D01*
X121762Y-158205D02*
X124000Y-160444D01*
X142000Y-149526D02*
Y-117500D01*
X116762Y-125117D02*
X117000Y-124879D01*
X121762Y-127188D02*
X125000Y-123950D01*
X121762Y-187220D02*
X125000Y-190459D01*
Y-191000D02*
Y-190459D01*
X135000Y-208950D02*
X138000Y-211950D01*
X135000Y-208950D02*
Y-203500D01*
X138000Y-220000D02*
Y-211950D01*
X83804Y-201804D02*
X92617D01*
X83000Y-201000D02*
X83804Y-201804D01*
X92617D02*
X93000Y-202187D01*
X117000Y-124879D02*
Y-118500D01*
X172500Y-180000D02*
X173000Y-179500D01*
X98000Y-188000D02*
X101617Y-184383D01*
X103617D01*
X104000Y-184000D01*
X87500Y-188000D02*
X98000D01*
X110000Y-202500D02*
Y-192306D01*
X109360Y-191666D02*
Y-187125D01*
Y-191666D02*
X110000Y-192306D01*
X134000Y-202500D02*
X135000Y-203500D01*
X158000Y-117500D02*
Y-107000D01*
X116500Y-214050D02*
X117550Y-213000D01*
Y-202950D01*
X118000Y-202500D01*
X117000Y-118500D02*
X118000Y-117500D01*
X-166000Y-186670D02*
Y-171144D01*
X-39250Y-202000D02*
X-38876Y-201626D01*
X-34750Y-192374D02*
X-27250D01*
X-38876Y-201626D02*
Y-196500D01*
X-34750Y-192374D01*
X125000Y-118500D02*
X126000Y-117500D01*
X125000Y-123950D02*
Y-118500D01*
X98500Y225950D02*
X102050Y229500D01*
X98500Y222000D02*
Y225950D01*
X97000Y220500D02*
X98500Y222000D01*
X52000Y215000D02*
X52500D01*
X54500Y206678D02*
X58129Y203050D01*
X54500Y206678D02*
Y213000D01*
X52500Y215000D02*
X54500Y213000D01*
X124000Y120000D02*
X125426Y121426D01*
X37000Y168398D02*
X39274D01*
X37000D02*
Y178400D01*
X143000Y-211550D02*
Y-203500D01*
X149000Y-116500D02*
X150000Y-117500D01*
X149000Y-116500D02*
Y-111050D01*
X144950Y-107000D02*
X149000Y-111050D01*
X142000Y-202500D02*
X143000Y-203500D01*
X154000Y215000D02*
Y221000D01*
X153500Y122250D02*
X153750Y122000D01*
X164500Y189500D02*
X165000Y190000D01*
X154500Y189500D02*
X164500D01*
X154000Y189000D02*
X154500Y189500D01*
X67500Y151000D02*
Y151250D01*
Y151000D02*
X71500Y147000D01*
X81000D01*
X67500Y151250D02*
Y151500D01*
X64500Y154500D02*
X67500Y151500D01*
X64257Y154500D02*
X64500D01*
X58129Y160629D02*
X64257Y154500D01*
X150000Y-22250D02*
Y0D01*
Y-22250D02*
X152750Y-25000D01*
X-71000Y147000D02*
Y159000D01*
X34500Y107500D02*
Y124000D01*
X138750Y20000D02*
X138775Y20025D01*
X138750Y11250D02*
X150000Y0D01*
X138750Y11250D02*
Y20000D01*
Y-30213D02*
X143966Y-24997D01*
X152747D02*
X152750Y-25000D01*
X143966Y-24997D02*
X152747D01*
X-95000Y100600D02*
X-80000D01*
Y108238D01*
X-79661Y108577D01*
X-83000D02*
X-79661D01*
X-83000D02*
Y133000D01*
X-85500Y62100D02*
Y79000D01*
X-85900D02*
X-85500Y78600D01*
X-93000Y79000D02*
X-85900D01*
X-32500Y144500D02*
X-6000D01*
Y138400D02*
Y144500D01*
X-33000Y125400D02*
X-32500D01*
X-5000Y98000D02*
Y100400D01*
X-32500Y98000D02*
X-5000D01*
X-32500Y112000D02*
Y125400D01*
X-90000Y-85900D02*
X-89500D01*
X-117500Y-60900D02*
Y-58500D01*
X-90000D01*
X-90000Y-85900D02*
Y-72500D01*
X42250Y-125374D02*
X42750D01*
X14750Y-100374D02*
Y-97974D01*
X42250D01*
X42250Y-125374D02*
Y-111974D01*
X-152500Y99100D02*
X-126000D01*
Y93000D02*
Y99100D01*
X-83000Y147000D02*
X-71000D01*
X-153000Y80000D02*
X-152500D01*
Y66600D02*
Y80000D01*
X-125000Y52600D02*
Y55000D01*
X-152500Y52600D02*
X-125000D01*
X-307665Y-330002D02*
X-304332Y-331668D01*
X-301000Y-335000D01*
Y-338332D01*
X-302666Y-339998D01*
X-305998D01*
X-307665Y-338332D01*
Y-336666D01*
X-305998Y-335000D01*
X-301000D01*
D23*
X33000Y205500D02*
D03*
Y224500D02*
D03*
X52000Y215000D02*
D03*
D27*
X81000Y147000D02*
D03*
D28*
X142500Y170000D02*
D03*
D29*
X81000D02*
D03*
Y193000D02*
D03*
D30*
X87500Y-140000D02*
D03*
Y-172000D02*
D03*
Y-188000D02*
D03*
Y-180000D02*
D03*
Y-164000D02*
D03*
Y-156000D02*
D03*
Y-148000D02*
D03*
X172500Y-132000D02*
D03*
Y-140000D02*
D03*
Y-148000D02*
D03*
Y-156000D02*
D03*
Y-164000D02*
D03*
Y-172000D02*
D03*
Y-180000D02*
D03*
Y-188000D02*
D03*
X87500Y-132000D02*
D03*
D31*
X150000Y-202500D02*
D03*
X142000D02*
D03*
X134000D02*
D03*
X118000D02*
D03*
X110000D02*
D03*
X102000D02*
D03*
X110000Y-117500D02*
D03*
X118000D02*
D03*
X126000D02*
D03*
X134000D02*
D03*
X142000D02*
D03*
X150000D02*
D03*
X158000D02*
D03*
Y-202500D02*
D03*
X126000D02*
D03*
X102000Y-117500D02*
D03*
D38*
X-471000Y129250D02*
D03*
Y116750D02*
D03*
X-59257Y-187007D02*
D03*
Y-199507D02*
D03*
X67500Y151250D02*
D03*
Y163750D02*
D03*
Y176250D02*
D03*
Y188750D02*
D03*
X50000Y257250D02*
D03*
Y244750D02*
D03*
X108000Y-231250D02*
D03*
Y-218750D02*
D03*
X57000Y-202750D02*
D03*
Y-215250D02*
D03*
X-70000Y219750D02*
D03*
Y232250D02*
D03*
D39*
X74750Y-116000D02*
D03*
X87250D02*
D03*
X80000Y205000D02*
D03*
X67500D02*
D03*
X138750Y20000D02*
D03*
X151250D02*
D03*
X138750Y-42500D02*
D03*
X151250D02*
D03*
X153750Y122000D02*
D03*
X166250D02*
D03*
X148250Y198000D02*
D03*
X135750D02*
D03*
X107750Y222000D02*
D03*
X120250D02*
D03*
D40*
X152750Y-25000D02*
D03*
X172250D02*
D03*
D41*
X-193000Y-168000D02*
D03*
D42*
Y168000D02*
D03*
D43*
X-235000Y-89500D02*
D03*
Y-75500D02*
D03*
X37000Y192400D02*
D03*
Y178400D02*
D03*
X-159500Y-138900D02*
D03*
Y-152900D02*
D03*
X-27250Y-192374D02*
D03*
X-27250Y-178374D02*
D03*
X-32500Y98000D02*
D03*
Y112000D02*
D03*
X-90000Y-58500D02*
D03*
Y-72500D02*
D03*
X42250Y-97974D02*
D03*
Y-111974D02*
D03*
X-83000Y147000D02*
D03*
X-83000Y133000D02*
D03*
X-152500Y52600D02*
D03*
X-152500Y66600D02*
D03*
X-222000Y82000D02*
D03*
Y96000D02*
D03*
X140000Y210000D02*
D03*
Y224000D02*
D03*
X166000Y149000D02*
D03*
Y135000D02*
D03*
X-594000Y182000D02*
D03*
Y196000D02*
D03*
D45*
X-471000Y167000D02*
D03*
X-457000D02*
D03*
X34500Y107500D02*
D03*
X20500D02*
D03*
X-157000Y-68000D02*
D03*
X-143000D02*
D03*
X-24750Y-107474D02*
D03*
X-10750Y-107474D02*
D03*
X-99500Y62100D02*
D03*
X-85500D02*
D03*
X138000Y-220000D02*
D03*
X124000D02*
D03*
X-471000Y147000D02*
D03*
X-457000D02*
D03*
D46*
X-440000Y80000D02*
D03*
X242500Y-35000D02*
D03*
X-620000Y80000D02*
D03*
D47*
X193650Y122005D02*
D03*
X206350D02*
D03*
X219050D02*
D03*
Y17995D02*
D03*
X206350D02*
D03*
X193650D02*
D03*
X180950D02*
D03*
D48*
Y122005D02*
D03*
D80*
X172500Y-111000D02*
D03*
X193500D02*
D03*
X-607500Y149000D02*
D03*
X-586500D02*
D03*
X-607500Y165000D02*
D03*
X-586500D02*
D03*
D85*
X-588000Y130000D02*
D03*
X188000Y-135000D02*
D03*
X165000Y175000D02*
D03*
X199000Y-164000D02*
D03*
X165000Y190000D02*
D03*
X188000Y-174000D02*
D03*
X124000Y120000D02*
D03*
X199000Y-147000D02*
D03*
X212000Y-155000D02*
D03*
X73000Y257000D02*
D03*
X83000Y-201000D02*
D03*
X154000Y215000D02*
D03*
X-423000Y167000D02*
D03*
Y147000D02*
D03*
X-577000Y183000D02*
D03*
D86*
X325000Y625000D02*
D03*
X-625000D02*
D03*
X325000Y-325000D02*
D03*
D90*
X112900Y238850D02*
D03*
X62100Y228690D02*
D03*
Y249010D02*
D03*
X107900Y-243650D02*
D03*
X57100Y-253810D02*
D03*
Y-233490D02*
D03*
D91*
X-550000Y300000D02*
D03*
X-590000D02*
D03*
D92*
X-125000Y94600D02*
D03*
X-5000Y140000D02*
D03*
X-117500Y-100500D02*
D03*
X14750Y-139974D02*
D03*
D93*
X-125000Y55000D02*
D03*
X-5000Y100400D02*
D03*
X-117500Y-60900D02*
D03*
X14750Y-100374D02*
D03*
D94*
X-442000Y107000D02*
D03*
Y127000D02*
D03*
Y147000D02*
D03*
Y167000D02*
D03*
Y187000D02*
D03*
Y207000D02*
D03*
X-624000Y126000D02*
D03*
Y146000D02*
D03*
Y166000D02*
D03*
Y186000D02*
D03*
X-538000Y-179000D02*
D03*
X-558000D02*
D03*
X-578000D02*
D03*
X-598000D02*
D03*
X251000Y0D02*
D03*
X231000D02*
D03*
X211000D02*
D03*
X191000D02*
D03*
X171000D02*
D03*
X151000D02*
D03*
X-597000Y-18000D02*
D03*
X-577000D02*
D03*
X-557000D02*
D03*
X-537000D02*
D03*
D95*
X12250Y-187474D02*
D03*
Y-242474D02*
D03*
X-122500Y142100D02*
D03*
Y197100D02*
D03*
X-2500Y187500D02*
D03*
Y242500D02*
D03*
X-120000Y-148000D02*
D03*
Y-203000D02*
D03*
D96*
X58000Y-67000D02*
D03*
X70000Y-53000D02*
D03*
D97*
X150000Y-144000D02*
D03*
X131250Y-137000D02*
D03*
X188125Y-157000D02*
D03*
X162257Y-144000D02*
D03*
X160000Y-169000D02*
D03*
X-586500Y149000D02*
D03*
Y165000D02*
D03*
X42000Y-233000D02*
D03*
Y-213750D02*
D03*
X83000Y-215000D02*
D03*
X135000Y-208950D02*
D03*
X99500Y-215000D02*
D03*
X37000Y-255000D02*
D03*
X124000Y144611D02*
D03*
X126000Y133611D02*
D03*
X102744Y143256D02*
D03*
X110022Y134978D02*
D03*
X117792Y134725D02*
D03*
X160000Y-159000D02*
D03*
X127762Y-129673D02*
D03*
X-235000Y-66000D02*
D03*
X97980Y-137072D02*
D03*
X-165802Y-41400D02*
D03*
X-60000Y-201000D02*
D03*
Y-126000D02*
D03*
Y-58000D02*
D03*
X161000Y-203250D02*
D03*
X57000Y-215250D02*
D03*
X124000Y-229000D02*
D03*
X188000Y178354D02*
D03*
X163672Y202500D02*
D03*
X235000Y-110000D02*
D03*
X-69000Y-70000D02*
D03*
X161000Y-190750D02*
D03*
X146000Y-183500D02*
D03*
Y-167000D02*
D03*
X70000Y-172500D02*
D03*
X108000Y-218750D02*
D03*
X116500Y-227328D02*
D03*
X-191000Y62000D02*
D03*
X-191000Y82000D02*
D03*
X-191000Y92000D02*
D03*
X-191000Y102000D02*
D03*
X-191000Y72000D02*
D03*
X-170172Y-67000D02*
D03*
X-166500Y-87000D02*
D03*
X-162839Y-114477D02*
D03*
X60724Y-163000D02*
D03*
X29000Y-178000D02*
D03*
X59750Y-143000D02*
D03*
X60000Y-186000D02*
D03*
X61500Y-149861D02*
D03*
X131010Y-154341D02*
D03*
X115360Y-189181D02*
D03*
X160474Y-178474D02*
D03*
X100000Y-172000D02*
D03*
X82500Y-250000D02*
D03*
X95200D02*
D03*
X59000Y83000D02*
D03*
X100322Y245325D02*
D03*
X50000Y257000D02*
D03*
X107750Y222000D02*
D03*
X78000Y214000D02*
D03*
X143000Y174000D02*
D03*
Y160000D02*
D03*
X68000Y165000D02*
D03*
X73000Y257000D02*
D03*
X131000Y235520D02*
D03*
X-69875Y219875D02*
D03*
X156000Y-216000D02*
D03*
X50000Y152000D02*
D03*
X49000Y177000D02*
D03*
X-20000Y177500D02*
D03*
X59000Y148281D02*
D03*
X65000Y137000D02*
D03*
X11971Y217017D02*
D03*
X27000Y124400D02*
D03*
X-39000Y-87000D02*
D03*
X110000Y-172500D02*
D03*
X112159Y-165841D02*
D03*
X103000Y-155000D02*
D03*
X-17250Y-124374D02*
D03*
X-1000Y-166000D02*
D03*
X-30589Y-151698D02*
D03*
X-45389Y-165389D02*
D03*
X-149500Y-81500D02*
D03*
X-17125Y-88000D02*
D03*
X-24000Y-80000D02*
D03*
X-132526Y-120000D02*
D03*
X-130394Y-160815D02*
D03*
X-179500Y-150500D02*
D03*
X-94500Y-170900D02*
D03*
X-68490Y-140510D02*
D03*
X31000Y-234000D02*
D03*
X-44000Y-219000D02*
D03*
X-49000Y-232000D02*
D03*
X-38000Y-247000D02*
D03*
X-52500Y-150500D02*
D03*
X-194000Y-77000D02*
D03*
X-170000Y-208000D02*
D03*
X-172000Y-184000D02*
D03*
X179000Y169000D02*
D03*
X155646Y174000D02*
D03*
X106567Y189646D02*
D03*
X95000Y180000D02*
D03*
X94383Y194433D02*
D03*
X-159000Y170000D02*
D03*
X-60000Y88000D02*
D03*
X-64000Y205000D02*
D03*
X-10000Y221000D02*
D03*
X-520000Y-239000D02*
D03*
Y-249000D02*
D03*
X-519000Y-88000D02*
D03*
Y-78000D02*
D03*
X77000Y-131072D02*
D03*
X78000Y-138000D02*
D03*
X91000Y-106000D02*
D03*
X125000Y-107000D02*
D03*
X94500Y137000D02*
D03*
X93000Y164000D02*
D03*
X124000Y235500D02*
D03*
X129000Y224000D02*
D03*
X-165000Y48000D02*
D03*
X-71000Y207000D02*
D03*
X111000Y205909D02*
D03*
X118000D02*
D03*
X90061Y199939D02*
D03*
X94000Y153000D02*
D03*
X117000Y152000D02*
D03*
X70500Y-85969D02*
D03*
X72638Y-142500D02*
D03*
X125000Y-191000D02*
D03*
X64750Y-116000D02*
D03*
X146500Y-223000D02*
D03*
X93000Y-202187D02*
D03*
X104000Y-184000D02*
D03*
X158000Y-107000D02*
D03*
X-39250Y-202000D02*
D03*
X-171500Y-160998D02*
D03*
X135735Y189500D02*
D03*
X-48366Y195909D02*
D03*
X49000Y205909D02*
D03*
X39274Y168398D02*
D03*
X-39000Y224517D02*
D03*
X-85000Y226000D02*
D03*
X69000Y214000D02*
D03*
X154000Y221000D02*
D03*
X157039Y195306D02*
D03*
X154000Y189000D02*
D03*
X-65000Y137000D02*
D03*
X-138000Y157000D02*
D03*
X-141000Y165000D02*
D03*
X-71000Y159000D02*
D03*
X-79661Y108577D02*
D03*
X-93000Y79000D02*
D03*
D98*
X160000Y43000D02*
D03*
X162000Y20000D02*
D03*
D99*
X-138500Y-205900D02*
D03*
X-6250Y-245374D02*
D03*
X16000Y245400D02*
D03*
X-104000Y200000D02*
D03*
D100*
X94000Y-215500D02*
D03*
Y-234500D02*
D03*
X70000D02*
D03*
X94000Y-225000D02*
D03*
X70000Y-215500D02*
D03*
D101*
X-104500Y78600D02*
D03*
X-85500Y78600D02*
D03*
X-95000Y100600D02*
D03*
X34500Y124000D02*
D03*
X25000Y146000D02*
D03*
X15500Y124000D02*
D03*
X-157000Y-84500D02*
D03*
X-147500Y-106500D02*
D03*
X-138000Y-84500D02*
D03*
X-15250Y-145974D02*
D03*
X-24750Y-123974D02*
D03*
X-5750D02*
D03*
D102*
X-152500Y80100D02*
D03*
X-152500Y99100D02*
D03*
X-32500Y125500D02*
D03*
Y144500D02*
D03*
X-90000Y-86000D02*
D03*
Y-105000D02*
D03*
X42250Y-125474D02*
D03*
Y-144474D02*
D03*
D103*
X176875Y-111000D02*
D03*
D104*
X188875Y-111000D02*
D03*
D105*
X-578000Y-219000D02*
D03*
Y-198000D02*
D03*
X-558000Y-197500D02*
D03*
Y-218500D02*
D03*
X-557000Y-57500D02*
D03*
Y-36500D02*
D03*
X206000Y160625D02*
D03*
Y139625D02*
D03*
X189000Y160625D02*
D03*
Y139625D02*
D03*
X-577000Y-37000D02*
D03*
Y-58000D02*
D03*
D106*
X-578000Y-202625D02*
D03*
X-558000Y-202125D02*
D03*
X-557000Y-41125D02*
D03*
X206000Y156000D02*
D03*
X189000D02*
D03*
X-577000Y-41625D02*
D03*
D107*
X-578000Y-214625D02*
D03*
X-558000Y-214125D02*
D03*
X-557000Y-53125D02*
D03*
X206000Y144000D02*
D03*
X189000D02*
D03*
X-577000Y-53625D02*
D03*
D108*
X-590875Y149000D02*
D03*
Y165000D02*
D03*
D109*
X-602875Y149000D02*
D03*
Y165000D02*
D03*
D110*
X97000Y220500D02*
D03*
X78000Y244500D02*
D03*
Y220500D02*
D03*
X87500D02*
D03*
X97000Y244500D02*
D03*
M02*
