G04*
G04 #@! TF.GenerationSoftware,Altium Limited,Altium Designer,25.8.1 (18)*
G04*
G04 Layer_Physical_Order=1*
G04 Layer_Color=255*
%FSLAX44Y44*%
%MOMM*%
G71*
G04*
G04 #@! TF.SameCoordinates,2DE5FF01-4093-4F91-ACCA-3BB073B8CBF2*
G04*
G04*
G04 #@! TF.FilePolarity,Positive*
G04*
G01*
G75*
%ADD10C,0.2500*%
%ADD11C,0.3000*%
%ADD15C,0.2000*%
%ADD22R,1.4000X1.0000*%
%ADD23R,1.9000X0.6000*%
%ADD24R,2.7000X3.3000*%
%ADD25R,2.7000X0.9000*%
%ADD26R,0.3048X0.8128*%
%ADD27R,1.4542X0.8821*%
G04:AMPARAMS|DCode=28|XSize=1.4542mm|YSize=3.1821mm|CornerRadius=0.4435mm|HoleSize=0mm|Usage=FLASHONLY|Rotation=0.000|XOffset=0mm|YOffset=0mm|HoleType=Round|Shape=RoundedRectangle|*
%AMROUNDEDRECTD28*
21,1,1.4542,2.2951,0,0,0.0*
21,1,0.5671,3.1821,0,0,0.0*
1,1,0.8870,0.2836,-1.1476*
1,1,0.8870,-0.2836,-1.1476*
1,1,0.8870,-0.2836,1.1476*
1,1,0.8870,0.2836,1.1476*
%
%ADD28ROUNDEDRECTD28*%
G04:AMPARAMS|DCode=29|XSize=1.4542mm|YSize=0.8821mm|CornerRadius=0.4411mm|HoleSize=0mm|Usage=FLASHONLY|Rotation=0.000|XOffset=0mm|YOffset=0mm|HoleType=Round|Shape=RoundedRectangle|*
%AMROUNDEDRECTD29*
21,1,1.4542,0.0000,0,0,0.0*
21,1,0.5720,0.8821,0,0,0.0*
1,1,0.8821,0.2860,0.0000*
1,1,0.8821,-0.2860,0.0000*
1,1,0.8821,-0.2860,0.0000*
1,1,0.8821,0.2860,0.0000*
%
%ADD29ROUNDEDRECTD29*%
%ADD30R,1.2000X0.5000*%
%ADD31R,0.5000X1.2000*%
%ADD32R,1.6539X0.5421*%
G04:AMPARAMS|DCode=33|XSize=1.6539mm|YSize=0.5421mm|CornerRadius=0.2711mm|HoleSize=0mm|Usage=FLASHONLY|Rotation=0.000|XOffset=0mm|YOffset=0mm|HoleType=Round|Shape=RoundedRectangle|*
%AMROUNDEDRECTD33*
21,1,1.6539,0.0000,0,0,0.0*
21,1,1.1118,0.5421,0,0,0.0*
1,1,0.5421,0.5559,0.0000*
1,1,0.5421,-0.5559,0.0000*
1,1,0.5421,-0.5559,0.0000*
1,1,0.5421,0.5559,0.0000*
%
%ADD33ROUNDEDRECTD33*%
%ADD34R,1.3000X0.3000*%
%ADD35R,2.2000X1.8000*%
%ADD36R,1.6000X1.5500*%
%ADD37R,1.1000X1.5000*%
%ADD38R,0.8000X0.8500*%
%ADD39R,0.8500X0.8000*%
%ADD40R,1.5500X1.6000*%
G04:AMPARAMS|DCode=41|XSize=3.45mm|YSize=1.85mm|CornerRadius=0mm|HoleSize=0mm|Usage=FLASHONLY|Rotation=135.000|XOffset=0mm|YOffset=0mm|HoleType=Round|Shape=Rectangle|*
%AMROTATEDRECTD41*
4,1,4,1.8738,-0.5657,0.5657,-1.8738,-1.8738,0.5657,-0.5657,1.8738,1.8738,-0.5657,0.0*
%
%ADD41ROTATEDRECTD41*%

G04:AMPARAMS|DCode=42|XSize=3.45mm|YSize=1.85mm|CornerRadius=0mm|HoleSize=0mm|Usage=FLASHONLY|Rotation=45.000|XOffset=0mm|YOffset=0mm|HoleType=Round|Shape=Rectangle|*
%AMROTATEDRECTD42*
4,1,4,-0.5657,-1.8738,-1.8738,-0.5657,0.5657,1.8738,1.8738,0.5657,-0.5657,-1.8738,0.0*
%
%ADD42ROTATEDRECTD42*%

%ADD43R,0.9000X0.8000*%
%ADD45R,0.8000X0.9000*%
%ADD46R,3.4500X1.8500*%
G04:AMPARAMS|DCode=47|XSize=1.6539mm|YSize=0.5421mm|CornerRadius=0.2711mm|HoleSize=0mm|Usage=FLASHONLY|Rotation=90.000|XOffset=0mm|YOffset=0mm|HoleType=Round|Shape=RoundedRectangle|*
%AMROUNDEDRECTD47*
21,1,1.6539,0.0000,0,0,90.0*
21,1,1.1118,0.5421,0,0,90.0*
1,1,0.5421,0.0000,0.5559*
1,1,0.5421,0.0000,-0.5559*
1,1,0.5421,0.0000,-0.5559*
1,1,0.5421,0.0000,0.5559*
%
%ADD47ROUNDEDRECTD47*%
%ADD48R,0.5421X1.6539*%
%ADD79C,0.7900*%
%ADD80R,0.5000X1.0000*%
%AMCUSTOMSHAPE81*
4,1,5,0.7125,-0.5000,-0.2125,-0.5000,-0.7125,-0.0000,-0.2125,0.5000,0.7125,0.5000,0.7125,-0.5000,0.0*%
%ADD81CUSTOMSHAPE81*%

%AMCUSTOMSHAPE82*
4,1,5,-0.6875,0.5000,0.6875,0.5000,0.1875,0.0000,0.6875,-0.5000,-0.6875,-0.5000,-0.6875,0.5000,0.0*%
%ADD82CUSTOMSHAPE82*%

%AMCUSTOMSHAPE83*
4,1,5,-0.7125,0.5000,0.2125,0.5000,0.7125,0.0000,0.2125,-0.5000,-0.7125,-0.5000,-0.7125,0.5000,0.0*%
%ADD83CUSTOMSHAPE83*%

%AMCUSTOMSHAPE84*
4,1,5,0.6875,-0.5000,-0.6875,-0.5000,-0.1875,0.0000,-0.6875,0.5000,0.6875,0.5000,0.6875,-0.5000,0.0*%
%ADD84CUSTOMSHAPE84*%

%ADD85C,1.0000*%
%ADD86C,1.0160*%
%ADD87R,3.1000X1.7000*%
%ADD88R,1.6000X1.1000*%
%ADD89R,1.8542X1.0922*%
%ADD90C,0.9000*%
%ADD91C,1.7780*%
%ADD92C,2.8448*%
%ADD93R,2.8448X2.8448*%
%ADD94C,1.6000*%
%ADD95C,2.4000*%
%ADD96C,1.5000*%
%ADD97C,0.5000*%
%ADD98C,0.8000*%
%ADD99C,0.6000*%
G36*
X-413063Y294040D02*
X-427230D01*
Y275000D01*
Y255960D01*
X-413063D01*
Y218000D01*
X-413194D01*
X-415399Y217087D01*
X-417086Y215399D01*
X-418000Y213193D01*
Y210807D01*
X-417086Y208601D01*
X-415399Y206914D01*
X-414853Y206687D01*
Y205313D01*
X-415399Y205087D01*
X-417086Y203399D01*
X-418000Y201194D01*
Y198806D01*
X-417086Y196601D01*
X-415399Y194914D01*
X-414853Y194687D01*
Y193313D01*
X-415399Y193087D01*
X-417086Y191399D01*
X-418000Y189193D01*
Y186807D01*
X-417086Y184601D01*
X-415399Y182913D01*
X-413194Y182000D01*
X-413063D01*
Y63063D01*
X-509879D01*
Y241000D01*
X-510362Y245901D01*
X-511791Y250613D01*
X-514113Y254956D01*
X-517237Y258763D01*
X-521044Y261887D01*
X-525387Y264209D01*
X-530099Y265638D01*
X-535000Y266121D01*
X-646941D01*
Y316937D01*
X-528000D01*
Y316807D01*
X-527087Y314601D01*
X-525399Y312913D01*
X-523194Y312000D01*
X-520807D01*
X-518601Y312913D01*
X-516913Y314601D01*
X-516687Y315147D01*
X-515313D01*
X-515087Y314601D01*
X-513399Y312913D01*
X-511194Y312000D01*
X-508806D01*
X-506601Y312913D01*
X-504913Y314601D01*
X-504687Y315147D01*
X-503313D01*
X-503087Y314601D01*
X-501399Y312913D01*
X-499193Y312000D01*
X-496806D01*
X-494601Y312913D01*
X-492913Y314601D01*
X-492000Y316807D01*
Y316937D01*
X-413063D01*
Y294040D01*
D02*
G37*
G36*
X53061Y266754D02*
X67934Y263359D01*
X71084Y262452D01*
X71160Y261108D01*
X70451Y260815D01*
X69185Y259549D01*
X68500Y257895D01*
Y256105D01*
X69185Y254451D01*
X70451Y253185D01*
X72088Y252507D01*
X72113Y252449D01*
X72295Y251248D01*
X70815Y250393D01*
X70345Y249923D01*
X69992Y249925D01*
X68965Y250339D01*
X68600Y251702D01*
X67681Y253293D01*
X66383Y254591D01*
X64792Y255510D01*
X63018Y255985D01*
X61182D01*
X59408Y255510D01*
X57817Y254591D01*
X56519Y253293D01*
X55600Y251702D01*
X55125Y249928D01*
Y248092D01*
X55600Y246318D01*
X56519Y244727D01*
X57817Y243429D01*
X59408Y242510D01*
X61182Y242035D01*
X63018D01*
X64792Y242510D01*
X66383Y243429D01*
X67100Y244146D01*
X68476Y243726D01*
X68752Y242695D01*
X69607Y241215D01*
X70815Y240007D01*
X72169Y239225D01*
X72264Y238736D01*
X72200Y237863D01*
X71430Y237544D01*
X69756Y235870D01*
X68850Y233683D01*
Y233489D01*
X68025Y233124D01*
X67580Y233074D01*
X66383Y234271D01*
X64792Y235190D01*
X63018Y235665D01*
X61182D01*
X59408Y235190D01*
X57817Y234271D01*
X56519Y232973D01*
X55600Y231382D01*
X55125Y229608D01*
Y227772D01*
X55600Y225998D01*
X56519Y224407D01*
X57817Y223109D01*
X59408Y222190D01*
X61182Y221715D01*
X62815D01*
X63173Y221220D01*
X63398Y220502D01*
X52837Y209941D01*
X52772Y209844D01*
X51549Y209723D01*
X49895Y210408D01*
X48105D01*
X48095Y210404D01*
X47039Y211110D01*
Y213000D01*
X46884Y213780D01*
X46442Y214442D01*
X45780Y214884D01*
X45247Y214990D01*
Y235628D01*
X45135Y236192D01*
X45671Y236520D01*
X45918Y236747D01*
X46178Y236958D01*
X46373Y237194D01*
X46518Y237462D01*
X46687Y237715D01*
X46706Y237809D01*
X46752Y237894D01*
X46783Y238197D01*
X46842Y238495D01*
Y251478D01*
X48112Y252327D01*
X48730Y252071D01*
Y257000D01*
Y261929D01*
X48112Y261673D01*
X46842Y262522D01*
Y266826D01*
X47813Y267646D01*
X53061Y266754D01*
D02*
G37*
G36*
X44803Y268157D02*
Y238495D01*
X44608Y238260D01*
X43533Y237603D01*
X43208Y237667D01*
X16792D01*
X16012Y237512D01*
X15350Y237070D01*
X14908Y236408D01*
X14753Y235628D01*
Y225400D01*
X-8864D01*
X-9105Y225500D01*
X-10895D01*
X-11136Y225400D01*
X-23000D01*
Y268400D01*
X43373D01*
X44803Y268157D01*
D02*
G37*
G36*
X-77500Y210500D02*
X-75197D01*
Y208627D01*
X-75500Y207895D01*
Y206105D01*
X-75197Y205373D01*
Y193095D01*
X-75392Y192859D01*
X-76467Y192202D01*
X-76792Y192267D01*
X-103208D01*
X-103988Y192112D01*
X-104650Y191670D01*
X-105092Y191008D01*
X-105247Y190228D01*
Y180000D01*
X-143000D01*
Y223000D01*
X-88364D01*
X-87549Y222185D01*
X-85895Y221500D01*
X-84105D01*
X-82451Y222185D01*
X-81636Y223000D01*
X-77500D01*
Y210500D01*
D02*
G37*
G36*
X14753Y222110D02*
X13483Y221261D01*
X12866Y221517D01*
X11076D01*
X9422Y220832D01*
X8156Y219566D01*
X7471Y217912D01*
Y216900D01*
X-2000D01*
Y203900D01*
X10000D01*
Y207341D01*
X11961D01*
Y196000D01*
X12116Y195220D01*
X12558Y194558D01*
X13220Y194116D01*
X14000Y193961D01*
X14753D01*
Y174372D01*
X14000Y173439D01*
X13220Y173284D01*
X12558Y172842D01*
X12116Y172180D01*
X11961Y171400D01*
Y146178D01*
X10691Y145925D01*
X9856Y147941D01*
X8021Y150686D01*
X5686Y153021D01*
X2941Y154856D01*
X-110Y156120D01*
X-3349Y156764D01*
X-3730D01*
Y140000D01*
X-5000D01*
Y138730D01*
X-21764D01*
Y138349D01*
X-21120Y135110D01*
X-19856Y132059D01*
X-18021Y129314D01*
X-15686Y126979D01*
X-12941Y125144D01*
X-9890Y123880D01*
X-9030Y123709D01*
X-9155Y122439D01*
X-25000D01*
X-25780Y122284D01*
X-26442Y121842D01*
X-26884Y121180D01*
X-27039Y120400D01*
Y91500D01*
X-36500D01*
Y78500D01*
X-27039D01*
Y77400D01*
X-26884Y76620D01*
X-26442Y75958D01*
X-25780Y75516D01*
X-25000Y75361D01*
X-22909D01*
X-22731Y74103D01*
X-25637Y73266D01*
X-33679Y69935D01*
X-41297Y65725D01*
X-48397Y60687D01*
X-54887Y54887D01*
X-60687Y48397D01*
X-65725Y41297D01*
X-67731Y37667D01*
X-68961Y37984D01*
Y126000D01*
X-69116Y126780D01*
X-69558Y127442D01*
X-70220Y127884D01*
X-71000Y128039D01*
X-73643D01*
X-74753Y128972D01*
Y149010D01*
X-74220Y149116D01*
X-73558Y149558D01*
X-73116Y150220D01*
X-72961Y151000D01*
Y153799D01*
X-71905Y154504D01*
X-71895Y154500D01*
X-70105D01*
X-68451Y155185D01*
X-67185Y156451D01*
X-66500Y158105D01*
Y159895D01*
X-67185Y161549D01*
X-68451Y162815D01*
X-70105Y163500D01*
X-71895D01*
X-71905Y163496D01*
X-72961Y164202D01*
Y168000D01*
X-73116Y168780D01*
X-73558Y169442D01*
X-74220Y169884D01*
X-74753Y169990D01*
Y190228D01*
X-74865Y190792D01*
X-74329Y191119D01*
X-74082Y191347D01*
X-73822Y191558D01*
X-73627Y191794D01*
X-73482Y192062D01*
X-73313Y192315D01*
X-73294Y192409D01*
X-73248Y192494D01*
X-73217Y192797D01*
X-73158Y193095D01*
Y201880D01*
X-72102Y202586D01*
X-71895Y202500D01*
X-70105D01*
X-69341Y202817D01*
X-67815Y202451D01*
X-66549Y201185D01*
X-64895Y200500D01*
X-63105D01*
X-62556Y200727D01*
X-61500Y200022D01*
Y198500D01*
X-54005D01*
X-53273Y197340D01*
X-53709Y196500D01*
X-61500D01*
Y184500D01*
X-48500D01*
Y190837D01*
X-47679Y191103D01*
X-46540Y190294D01*
Y190020D01*
X-40000D01*
Y188750D01*
X-38730D01*
Y181960D01*
X-35831D01*
X-35777Y181829D01*
X-36622Y180559D01*
X-36950D01*
X-36950Y180559D01*
X-38120Y180326D01*
X-39113Y179663D01*
X-39113Y179663D01*
X-42776Y176000D01*
X-50000D01*
Y164000D01*
X-50500Y164000D01*
Y151000D01*
X-47559D01*
Y91500D01*
X-50500D01*
Y78500D01*
X-38500D01*
Y91500D01*
X-41441D01*
Y151000D01*
X-38500D01*
Y161569D01*
X-37332Y162627D01*
X-37046Y162568D01*
X-37040Y162562D01*
Y158770D01*
X-30500D01*
X-23960D01*
Y164540D01*
X-24460D01*
Y168730D01*
X-31250D01*
Y171270D01*
X-24460D01*
Y174163D01*
X-23190Y174326D01*
X-22549Y173685D01*
X-20895Y173000D01*
X-19105D01*
X-17451Y173685D01*
X-16185Y174951D01*
X-15500Y176605D01*
Y178395D01*
X-15502Y178401D01*
X-14361Y178964D01*
X-14135Y178572D01*
X-11428Y175865D01*
X-8112Y173951D01*
X-4414Y172960D01*
X-3770D01*
Y186230D01*
X-17040D01*
Y185586D01*
X-16049Y181888D01*
X-15805Y181465D01*
X-16821Y180685D01*
X-17451Y181315D01*
X-19105Y182000D01*
X-20460D01*
Y186730D01*
X-27500D01*
Y188000D01*
X-28770D01*
Y194540D01*
X-32562D01*
X-32568Y194546D01*
X-32627Y194832D01*
X-31569Y196000D01*
X-21000D01*
Y207341D01*
X-16000D01*
Y203900D01*
X-4000D01*
Y216900D01*
X-5940D01*
X-6466Y218170D01*
X-6185Y218451D01*
X-5500Y220105D01*
Y221895D01*
X-5670Y222305D01*
X-4964Y223361D01*
X14753D01*
Y222110D01*
D02*
G37*
G36*
X95156Y229130D02*
X96830Y227456D01*
X99017Y226550D01*
X101383D01*
X103570Y227456D01*
X104046Y227931D01*
X104623Y227816D01*
X104623Y227816D01*
X118209D01*
X118735Y226546D01*
X116337Y224148D01*
X115674Y223156D01*
X115441Y221985D01*
X115441Y221985D01*
Y218000D01*
X90559D01*
Y227327D01*
X90870Y227456D01*
X92544Y229130D01*
X93163Y230623D01*
X94537D01*
X95156Y229130D01*
D02*
G37*
G36*
X43208Y212774D02*
X16792D01*
Y235628D01*
X43208D01*
Y212774D01*
D02*
G37*
G36*
X114941Y191000D02*
X114941Y191000D01*
X115174Y189830D01*
X115837Y188837D01*
X124837Y179837D01*
X124837Y179837D01*
X125829Y179174D01*
X127000Y178941D01*
X127000Y178941D01*
X137000D01*
X137000Y178941D01*
X138170Y179174D01*
X139163Y179837D01*
X148230Y188904D01*
X149500Y188378D01*
Y188105D01*
X150185Y186451D01*
X151451Y185185D01*
X151521Y185156D01*
X151748Y184013D01*
X152411Y183020D01*
X155595Y179837D01*
X155695Y179770D01*
X155310Y178500D01*
X154751D01*
X153097Y177815D01*
X151831Y176549D01*
X151146Y174895D01*
Y173105D01*
X151831Y171451D01*
X153097Y170185D01*
X154751Y169500D01*
X156541D01*
X157000Y169193D01*
Y159000D01*
Y151000D01*
Y143000D01*
Y135000D01*
X168674D01*
X175961Y127713D01*
Y124000D01*
X176000Y123803D01*
Y122000D01*
X177803D01*
X178000Y121961D01*
X191750D01*
X191750Y121961D01*
X192530Y122116D01*
X192795Y122293D01*
X192918Y122169D01*
X193759Y121607D01*
X194750Y121410D01*
X195605D01*
Y129000D01*
Y136589D01*
X194750Y136589D01*
X193759Y136392D01*
X193759Y136392D01*
X192918Y135831D01*
X192795Y135707D01*
X192530Y135884D01*
X191750Y136039D01*
X178000D01*
X177803Y136000D01*
X176326D01*
X173000Y139326D01*
Y143941D01*
X191189D01*
X191227Y143798D01*
X192149Y142202D01*
X193452Y140899D01*
X195048Y139977D01*
X196828Y139500D01*
X198672D01*
X200452Y139977D01*
X202048Y140899D01*
X203351Y142202D01*
X204273Y143798D01*
X204750Y145578D01*
Y147422D01*
X204273Y149202D01*
X203351Y150798D01*
X202048Y152101D01*
X200452Y153023D01*
X198672Y153500D01*
X196828D01*
X195048Y153023D01*
X193452Y152101D01*
X192149Y150798D01*
X191722Y150059D01*
X187691D01*
X186963Y151329D01*
X187523Y152298D01*
X188000Y154078D01*
Y155922D01*
X187523Y157702D01*
X186711Y159109D01*
X187120Y160379D01*
X191147D01*
X191899Y159077D01*
X193202Y157774D01*
X194798Y156852D01*
X196578Y156375D01*
X198421D01*
X200202Y156852D01*
X201798Y157774D01*
X203101Y159077D01*
X204023Y160673D01*
X204500Y162453D01*
Y164296D01*
X204023Y166077D01*
X203101Y167673D01*
X201798Y168976D01*
X200202Y169898D01*
X198421Y170375D01*
X196578D01*
X194798Y169898D01*
X193202Y168976D01*
X191899Y167673D01*
X191219Y166496D01*
X183977D01*
X183271Y167552D01*
X183500Y168105D01*
Y169895D01*
X182815Y171549D01*
X182059Y172305D01*
Y174000D01*
X185500D01*
Y174000D01*
X185979Y174320D01*
X187105Y173854D01*
X188895D01*
X190549Y174539D01*
X191815Y175805D01*
X192500Y177459D01*
Y179249D01*
X191815Y180903D01*
X190549Y182169D01*
X188895Y182854D01*
X187105D01*
X186556Y182626D01*
X185500Y183332D01*
Y186000D01*
X177449D01*
X176913Y186735D01*
X177436Y188000D01*
X185500D01*
Y197288D01*
X186659Y197807D01*
X186866Y197623D01*
X190841Y193758D01*
Y191540D01*
X191754Y189335D01*
X193442Y187647D01*
X195647Y186734D01*
X198034D01*
X200239Y187647D01*
X200927Y186662D01*
X199664Y185399D01*
X198750Y183193D01*
Y180807D01*
X199664Y178601D01*
X201351Y176913D01*
X203556Y176000D01*
X205944D01*
X207670Y176715D01*
X208645Y175750D01*
X208000Y174193D01*
Y171807D01*
X208913Y169601D01*
X210601Y167913D01*
X212806Y167000D01*
X214662D01*
X218766Y161601D01*
X227377Y149241D01*
X235281Y136441D01*
X242465Y123223D01*
X246771Y114136D01*
X246092Y113063D01*
X244015D01*
X243719Y113004D01*
X243418D01*
X241485Y112619D01*
X241207Y112504D01*
X240911Y112445D01*
X239091Y111691D01*
X238840Y111524D01*
X238562Y111409D01*
X236924Y110314D01*
X236731Y110121D01*
X166625D01*
X166285Y111391D01*
X166298Y111399D01*
X167601Y112702D01*
X168523Y114298D01*
X169000Y116078D01*
Y117922D01*
X168523Y119702D01*
X167601Y121298D01*
X166298Y122601D01*
X164702Y123523D01*
X162922Y124000D01*
X161078D01*
X159298Y123523D01*
X157702Y122601D01*
X156399Y121298D01*
X156270Y121075D01*
X155000Y121416D01*
Y133000D01*
X153559D01*
Y135328D01*
X153326Y136499D01*
X152663Y137491D01*
X135991Y154163D01*
X134999Y154826D01*
X133828Y155059D01*
X133828Y155059D01*
X120305D01*
X119549Y155815D01*
X117895Y156500D01*
X116105D01*
X114451Y155815D01*
X113185Y154549D01*
X112500Y152895D01*
Y151105D01*
X113185Y149451D01*
X114451Y148185D01*
X116105Y147500D01*
X117895D01*
X119549Y148185D01*
X120217Y147192D01*
X120185Y147160D01*
X119500Y145506D01*
Y143716D01*
X120185Y142062D01*
X121451Y140796D01*
X123105Y140111D01*
X124895D01*
X126549Y140796D01*
X127120Y141367D01*
X128337Y141263D01*
X129330Y140600D01*
X130500Y140367D01*
X131057D01*
X137251Y134173D01*
X136765Y133000D01*
X130500D01*
Y134506D01*
X129815Y136160D01*
X128549Y137426D01*
X126895Y138111D01*
X125105D01*
X123451Y137426D01*
X123075Y137050D01*
X121607Y137274D01*
X120341Y138540D01*
X118687Y139225D01*
X116897D01*
X115243Y138540D01*
X114863Y138160D01*
X113837Y137527D01*
X112571Y138792D01*
X110918Y139478D01*
X109127D01*
X107473Y138792D01*
X107248Y138567D01*
X106070Y139030D01*
X105950Y140097D01*
X106559Y140707D01*
X107244Y142361D01*
Y144151D01*
X106559Y145805D01*
X105293Y147071D01*
X103639Y147756D01*
X101849D01*
X100195Y147071D01*
X98929Y145805D01*
X98244Y144151D01*
Y142361D01*
X98929Y140707D01*
X98014Y139850D01*
X97049Y140815D01*
X95395Y141500D01*
X93605D01*
X91951Y140815D01*
X90685Y139549D01*
X90000Y137895D01*
Y136105D01*
X90685Y134451D01*
X90866Y134270D01*
X90340Y133000D01*
X90000D01*
Y129000D01*
X78540D01*
Y129540D01*
X73020D01*
Y123000D01*
Y116460D01*
X78540D01*
Y117000D01*
X133566D01*
X133837Y116594D01*
X136594Y113837D01*
X136594Y113837D01*
X137587Y113174D01*
X138757Y112941D01*
X138757Y112941D01*
X156260D01*
X156399Y112702D01*
X157702Y111399D01*
X157715Y111391D01*
X157375Y110121D01*
X105000D01*
X100099Y109638D01*
X95387Y108209D01*
X91044Y105887D01*
X87237Y102763D01*
X84113Y98956D01*
X81791Y94613D01*
X80362Y89901D01*
X79879Y85000D01*
Y25121D01*
X73415D01*
X73266Y25637D01*
X69935Y33679D01*
X65725Y41297D01*
X60687Y48397D01*
X54887Y54887D01*
X48397Y60687D01*
X41297Y65725D01*
X33679Y69935D01*
X25637Y73266D01*
X22731Y74103D01*
X22909Y75361D01*
X49000D01*
X49780Y75516D01*
X50442Y75958D01*
X50884Y76620D01*
X51039Y77400D01*
Y147543D01*
X51036Y147558D01*
X52549Y148185D01*
X53230Y148866D01*
X54500Y148340D01*
Y147386D01*
X55185Y145732D01*
X56451Y144466D01*
X58105Y143781D01*
X59895D01*
X61549Y144466D01*
X61915Y144832D01*
X70311D01*
X71460Y144540D01*
Y140770D01*
X80000D01*
X88540D01*
Y144540D01*
X88000D01*
Y151000D01*
Y160691D01*
X89945D01*
X90451Y160185D01*
X92105Y159500D01*
X93895D01*
X95549Y160185D01*
X96815Y161451D01*
X97500Y163105D01*
Y164895D01*
X96815Y166549D01*
X95549Y167815D01*
X93895Y168500D01*
X92105D01*
X90451Y167815D01*
X89445Y166809D01*
X88000D01*
Y176691D01*
X91945D01*
X92451Y176185D01*
X94105Y175500D01*
X95895D01*
X97549Y176185D01*
X98815Y177451D01*
X99500Y179105D01*
Y180895D01*
X98815Y182549D01*
X97549Y183815D01*
X95895Y184500D01*
X94105D01*
X92451Y183815D01*
X91445Y182809D01*
X88000D01*
Y190881D01*
X91571D01*
X91834Y190618D01*
X93488Y189933D01*
X95278D01*
X96932Y190618D01*
X98198Y191884D01*
X98883Y193538D01*
Y195328D01*
X98198Y196982D01*
X96932Y198248D01*
X95278Y198933D01*
X94635D01*
X94561Y199044D01*
Y200834D01*
X94515Y200944D01*
X95221Y202000D01*
X98588D01*
X99441Y201165D01*
X99674Y199994D01*
X100337Y199002D01*
X103508Y195831D01*
Y192952D01*
X102752Y192195D01*
X102067Y190541D01*
Y188751D01*
X102752Y187097D01*
X104018Y185832D01*
X105672Y185146D01*
X107462D01*
X109116Y185832D01*
X110382Y187097D01*
X111067Y188751D01*
Y190541D01*
X110382Y192195D01*
X109625Y192952D01*
Y197098D01*
X109626Y197098D01*
X109393Y198269D01*
X108730Y199261D01*
X108729Y199261D01*
X107164Y200827D01*
X107650Y202000D01*
X108677D01*
X110105Y201409D01*
X111895D01*
X113323Y202000D01*
X114941D01*
Y191000D01*
D02*
G37*
G36*
X-560121Y63063D02*
X-646941D01*
Y194675D01*
X-645768Y195161D01*
X-645605Y194998D01*
X-643895Y194011D01*
X-641987Y193500D01*
X-640013D01*
X-638105Y194011D01*
X-636395Y194998D01*
X-634999Y196395D01*
X-634011Y198105D01*
X-633500Y200013D01*
Y201987D01*
X-634011Y203895D01*
X-634999Y205605D01*
X-636395Y207001D01*
X-638105Y207989D01*
X-640013Y208500D01*
X-641987D01*
X-643895Y207989D01*
X-645605Y207001D01*
X-645768Y206838D01*
X-646941Y207325D01*
Y215879D01*
X-560121D01*
Y63063D01*
D02*
G37*
G36*
X43208Y174372D02*
X16792D01*
Y197226D01*
X43208D01*
Y174372D01*
D02*
G37*
G36*
X-91500Y254674D02*
Y243500D01*
X-78500D01*
X-78093Y243235D01*
Y241765D01*
X-78500Y241500D01*
X-78770Y241500D01*
X-91500D01*
Y229500D01*
X-89660D01*
X-89381Y229186D01*
X-88947Y228230D01*
X-89500Y226895D01*
Y225105D01*
X-89544Y225039D01*
X-143000D01*
X-143780Y224884D01*
X-144442Y224442D01*
X-144884Y223780D01*
X-145039Y223000D01*
Y180000D01*
X-144884Y179220D01*
X-144442Y178558D01*
X-143780Y178116D01*
X-143000Y177961D01*
X-105247D01*
Y170039D01*
X-106000D01*
X-106780Y169884D01*
X-107442Y169442D01*
X-107884Y168780D01*
X-108027Y168059D01*
X-110000D01*
Y171500D01*
X-122000D01*
Y158500D01*
X-110000D01*
Y161941D01*
X-108039D01*
Y151000D01*
X-107884Y150220D01*
X-107442Y149558D01*
X-106780Y149116D01*
X-106000Y148961D01*
X-105247D01*
Y128972D01*
X-106000Y128039D01*
X-106780Y127884D01*
X-107442Y127442D01*
X-107884Y126780D01*
X-108039Y126000D01*
Y100778D01*
X-109309Y100525D01*
X-110144Y102541D01*
X-111979Y105286D01*
X-114314Y107621D01*
X-117059Y109456D01*
X-120110Y110720D01*
X-123349Y111364D01*
X-123730D01*
Y94600D01*
X-125000D01*
Y93330D01*
X-141764D01*
Y92949D01*
X-141120Y89710D01*
X-139856Y86659D01*
X-138021Y83913D01*
X-135686Y81579D01*
X-132941Y79744D01*
X-129890Y78480D01*
X-129030Y78309D01*
X-129155Y77039D01*
X-145000D01*
X-145780Y76884D01*
X-146442Y76442D01*
X-146884Y75780D01*
X-147039Y75000D01*
Y46100D01*
X-156500D01*
Y33100D01*
X-147039D01*
Y32000D01*
X-146884Y31220D01*
X-146442Y30558D01*
X-145780Y30116D01*
X-145000Y29961D01*
X-72618D01*
X-71913Y28905D01*
X-73266Y25637D01*
X-73415Y25121D01*
X-231731Y25121D01*
X-231924Y25314D01*
X-233562Y26409D01*
X-233840Y26524D01*
X-234091Y26691D01*
X-235912Y27445D01*
X-236207Y27504D01*
X-236485Y27619D01*
X-238418Y28004D01*
X-238719D01*
X-239015Y28063D01*
X-269479D01*
X-270326Y29009D01*
X-269385Y37485D01*
X-266901Y52318D01*
X-263601Y66991D01*
X-259495Y81460D01*
X-254595Y95679D01*
X-248917Y109606D01*
X-242478Y123198D01*
X-235297Y136413D01*
X-227397Y149210D01*
X-218789Y161569D01*
X-214662Y167000D01*
X-212806D01*
X-212231Y167238D01*
X-211512Y166162D01*
X-215330Y162343D01*
X-207892Y154904D01*
X-193898Y168898D01*
X-179904Y182892D01*
X-187343Y190330D01*
X-197735Y179939D01*
X-198811Y180658D01*
X-198750Y180807D01*
Y183193D01*
X-199664Y185399D01*
X-200927Y186662D01*
X-200239Y187647D01*
X-198034Y186734D01*
X-195647D01*
X-193442Y187647D01*
X-191754Y189335D01*
X-190841Y191540D01*
Y193758D01*
X-186865Y197623D01*
X-175474Y207803D01*
X-163546Y217315D01*
X-151104Y226143D01*
X-138187Y234260D01*
X-124834Y241639D01*
X-111089Y248259D01*
X-96994Y254097D01*
X-92734Y255588D01*
X-91500Y254674D01*
D02*
G37*
G36*
X-76792Y167374D02*
X-103208D01*
Y190228D01*
X-76792D01*
Y167374D01*
D02*
G37*
G36*
X49000Y156456D02*
X47451Y155815D01*
X46185Y154549D01*
X45500Y152895D01*
Y151105D01*
X46185Y149451D01*
X47451Y148185D01*
X49000Y147543D01*
Y77400D01*
X3954D01*
X0Y77622D01*
X-3954Y77400D01*
X-25000D01*
Y120400D01*
X14000D01*
Y171400D01*
X34272D01*
X35121Y170130D01*
X34774Y169293D01*
Y167503D01*
X35459Y165849D01*
X36223Y165085D01*
X36226Y165072D01*
Y158910D01*
X43274D01*
Y166296D01*
X43774Y167503D01*
Y169293D01*
X43427Y170130D01*
X43968Y171262D01*
X44394Y171400D01*
X49000D01*
Y156456D01*
D02*
G37*
G36*
X65837Y169337D02*
X66830Y168674D01*
X68000Y168441D01*
X72000D01*
Y158559D01*
X54278D01*
X54278Y158559D01*
X53108Y158326D01*
X52309Y157793D01*
X51423Y158052D01*
X51039Y158268D01*
Y171400D01*
X50884Y172180D01*
X51137Y173014D01*
X51549Y173185D01*
X52305Y173941D01*
X61233D01*
X65837Y169337D01*
D02*
G37*
G36*
X-76792Y128972D02*
X-103208D01*
Y151826D01*
X-76792D01*
Y128972D01*
D02*
G37*
G36*
X-71000Y32000D02*
X-145000D01*
Y75000D01*
X-106000D01*
Y126000D01*
X-84894D01*
X-83774Y125638D01*
X-83774Y124730D01*
Y113510D01*
X-82719D01*
Y111883D01*
X-83476Y111126D01*
X-84161Y109473D01*
Y107682D01*
X-83476Y106028D01*
X-82210Y104762D01*
X-80556Y104077D01*
X-78766D01*
X-77112Y104762D01*
X-75846Y106028D01*
X-75161Y107682D01*
Y109473D01*
X-75846Y111126D01*
X-76602Y111883D01*
Y119000D01*
X-76726Y119623D01*
X-76726Y125638D01*
X-75606Y126000D01*
X-71000D01*
Y32000D01*
D02*
G37*
G36*
X187500Y59000D02*
X187500Y58609D01*
Y56059D01*
X186000D01*
Y58500D01*
X174000D01*
Y46540D01*
X173460D01*
Y41020D01*
X180000D01*
Y39750D01*
X181270D01*
Y32960D01*
X186247D01*
X186540Y32960D01*
X186671Y32964D01*
X187941Y31779D01*
Y9533D01*
X187140Y9319D01*
X184860Y8002D01*
X182998Y6140D01*
X181681Y3860D01*
X181657Y3770D01*
X180343D01*
X180319Y3860D01*
X179002Y6140D01*
X177140Y8002D01*
X174860Y9319D01*
X172316Y10000D01*
X169683D01*
X167140Y9319D01*
X164860Y8002D01*
X162998Y6140D01*
X161681Y3860D01*
X161657Y3770D01*
X160343D01*
X160319Y3860D01*
X159002Y6140D01*
X157140Y8002D01*
X154860Y9319D01*
X152317Y10000D01*
X149809D01*
Y31960D01*
X158730D01*
Y42500D01*
Y53040D01*
X149710D01*
Y52500D01*
X131391D01*
X130750Y52500D01*
X130121Y53509D01*
Y59879D01*
X186594D01*
X187500Y59000D01*
D02*
G37*
G36*
X236924Y59686D02*
X238562Y58591D01*
X238840Y58476D01*
X239091Y58309D01*
X239691Y58060D01*
X239439Y56790D01*
X222710D01*
Y46270D01*
X242500D01*
X262290D01*
Y55667D01*
X262290Y56790D01*
X263499Y56937D01*
X265862D01*
X266898Y52330D01*
X269383Y37493D01*
X271044Y22542D01*
X271877Y7500D01*
X271981Y0D01*
X271877Y-7513D01*
X271041Y-22578D01*
X269375Y-37554D01*
X267381Y-49437D01*
X244015D01*
X243719Y-49496D01*
X243418D01*
X241485Y-49881D01*
X241207Y-49996D01*
X240911Y-50055D01*
X239091Y-50809D01*
X238840Y-50976D01*
X238562Y-51091D01*
X236924Y-52186D01*
X236731Y-52379D01*
X130121D01*
Y-23387D01*
X131294Y-22901D01*
X131395Y-23001D01*
X133105Y-23989D01*
X135013Y-24500D01*
X136987D01*
X138895Y-23989D01*
X140605Y-23001D01*
X142001Y-21605D01*
X142989Y-19895D01*
X143500Y-17987D01*
Y-16013D01*
X142989Y-14105D01*
X142001Y-12395D01*
X140605Y-10999D01*
X138895Y-10011D01*
X136987Y-9500D01*
X135013D01*
X133105Y-10011D01*
X131395Y-10999D01*
X131294Y-11099D01*
X130121Y-10613D01*
Y31491D01*
X130750Y32500D01*
X131391Y32500D01*
X143691D01*
Y6833D01*
X142998Y6140D01*
X141681Y3860D01*
X141000Y1317D01*
Y-1317D01*
X141681Y-3860D01*
X142998Y-6140D01*
X144860Y-8002D01*
X147140Y-9319D01*
X149684Y-10000D01*
X152317D01*
X154860Y-9319D01*
X157140Y-8002D01*
X159002Y-6140D01*
X160319Y-3860D01*
X160343Y-3770D01*
X161657D01*
X161681Y-3860D01*
X162998Y-6140D01*
X164860Y-8002D01*
X167140Y-9319D01*
X169683Y-10000D01*
X172316D01*
X174860Y-9319D01*
X175578Y-8904D01*
X178241Y-11567D01*
Y-24819D01*
X177904Y-25045D01*
X176863Y-26603D01*
X176497Y-28441D01*
Y-39559D01*
X176863Y-41397D01*
X177904Y-42955D01*
X179462Y-43996D01*
X181300Y-44362D01*
X183138Y-43996D01*
X184696Y-42955D01*
X185737Y-41397D01*
X186103Y-39559D01*
Y-28441D01*
X185737Y-26603D01*
X184696Y-25045D01*
X184359Y-24819D01*
Y-10300D01*
X184126Y-9129D01*
X183977Y-8906D01*
X184860Y-8002D01*
X187140Y-9319D01*
X189683Y-10000D01*
X190287D01*
Y-25520D01*
X189563Y-26603D01*
X189197Y-28441D01*
Y-39559D01*
X189563Y-41397D01*
X190604Y-42955D01*
X192162Y-43996D01*
X194000Y-44362D01*
X195838Y-43996D01*
X197396Y-42955D01*
X198437Y-41397D01*
X198803Y-39559D01*
Y-28441D01*
X198437Y-26603D01*
X197396Y-25045D01*
X196404Y-24382D01*
Y-8427D01*
X197140Y-8002D01*
X199002Y-6140D01*
X200319Y-3860D01*
X200343Y-3770D01*
X201657D01*
X201681Y-3860D01*
X202998Y-6140D01*
X203858Y-7000D01*
X203641Y-8088D01*
X203641Y-8088D01*
Y-24819D01*
X203304Y-25045D01*
X202263Y-26603D01*
X201897Y-28441D01*
Y-39559D01*
X202263Y-41397D01*
X203304Y-42955D01*
X204862Y-43996D01*
X206700Y-44362D01*
X208538Y-43996D01*
X210096Y-42955D01*
X211137Y-41397D01*
X211503Y-39559D01*
Y-28441D01*
X211137Y-26603D01*
X210096Y-25045D01*
X209759Y-24819D01*
Y-10000D01*
X212316D01*
X214860Y-9319D01*
X217140Y-8002D01*
X219002Y-6140D01*
X219984Y-4439D01*
X220203Y-4371D01*
X221420Y-4486D01*
X222566Y-6472D01*
X224528Y-8434D01*
X226932Y-9822D01*
X229612Y-10540D01*
X229730D01*
Y0D01*
Y10540D01*
X229612D01*
X226932Y9822D01*
X224528Y8434D01*
X222566Y6472D01*
X221420Y4486D01*
X220203Y4371D01*
X219984Y4439D01*
X219002Y6140D01*
X217140Y8002D01*
X214860Y9319D01*
X213559Y9667D01*
Y36000D01*
X213500Y36296D01*
Y45000D01*
X201770D01*
X200500Y45000D01*
X199230Y45000D01*
X187810D01*
X187500Y45000D01*
X187216Y45221D01*
Y45897D01*
X188395Y47000D01*
X199230D01*
X200500Y47000D01*
Y47000D01*
X200500D01*
Y47000D01*
X213500D01*
Y58609D01*
X213500Y59000D01*
X214406Y59879D01*
X236731D01*
X236924Y59686D01*
D02*
G37*
G36*
X-423063Y-128000D02*
X-423194D01*
X-425399Y-128913D01*
X-427086Y-130601D01*
X-428000Y-132807D01*
Y-135194D01*
X-427086Y-137399D01*
X-425399Y-139087D01*
X-424853Y-139313D01*
Y-140687D01*
X-425399Y-140913D01*
X-427086Y-142601D01*
X-428000Y-144806D01*
Y-145000D01*
X-646941D01*
Y36937D01*
X-553000D01*
Y36806D01*
X-552087Y34601D01*
X-550399Y32913D01*
X-548194Y32000D01*
X-545807D01*
X-543601Y32913D01*
X-541913Y34601D01*
X-541687Y35147D01*
X-540313D01*
X-540087Y34601D01*
X-538399Y32913D01*
X-536194Y32000D01*
X-533806D01*
X-531601Y32913D01*
X-529913Y34601D01*
X-529687Y35147D01*
X-528313D01*
X-528087Y34601D01*
X-526399Y32913D01*
X-524193Y32000D01*
X-521806D01*
X-519601Y32913D01*
X-517913Y34601D01*
X-517000Y36806D01*
Y36937D01*
X-423063D01*
Y-128000D01*
D02*
G37*
G36*
X346941Y10000D02*
X298009D01*
X297199Y24632D01*
X297178Y24715D01*
X297185Y24801D01*
X295383Y41026D01*
X295357Y41108D01*
X295359Y41194D01*
X292663Y57295D01*
X292632Y57375D01*
X292630Y57461D01*
X289642Y70744D01*
X289887Y71044D01*
X292209Y75387D01*
X293638Y80099D01*
X294121Y85000D01*
X293638Y89901D01*
X292209Y94613D01*
X289887Y98956D01*
X286763Y102763D01*
X282957Y105887D01*
X278613Y108209D01*
X277701Y108486D01*
X272953Y120128D01*
X272906Y120200D01*
X272885Y120283D01*
X265894Y135036D01*
X265842Y135105D01*
X265817Y135186D01*
X258021Y149530D01*
X257966Y149596D01*
X257936Y149676D01*
X249359Y163567D01*
X249300Y163630D01*
X249266Y163708D01*
X239934Y177104D01*
X239872Y177163D01*
X239834Y177240D01*
X233993Y184706D01*
X233690Y184967D01*
X233423Y185266D01*
X231318Y186850D01*
X230958Y187024D01*
X230623Y187243D01*
X228180Y188228D01*
X227787Y188302D01*
X227407Y188427D01*
X224793Y188747D01*
X224394Y188717D01*
X223994Y188739D01*
X221386Y188371D01*
X221008Y188239D01*
X220617Y188158D01*
X218193Y187127D01*
X217862Y186901D01*
X217505Y186721D01*
X215430Y185098D01*
X214285Y185715D01*
X209797Y190203D01*
X209859Y191472D01*
X210990Y192400D01*
X211275Y192748D01*
X211593Y193065D01*
X213242Y195533D01*
X213414Y195948D01*
X213626Y196345D01*
X214487Y199185D01*
X214531Y199632D01*
X214619Y200072D01*
Y202542D01*
X214560Y202837D01*
Y203139D01*
X214176Y205071D01*
X214060Y205350D01*
X214002Y205645D01*
X213248Y207465D01*
X213080Y207716D01*
X212965Y207994D01*
X211870Y209633D01*
X211657Y209846D01*
X211490Y210096D01*
X210793Y210793D01*
X204939Y216647D01*
X204867Y216695D01*
X204815Y216765D01*
X192470Y227797D01*
X192395Y227841D01*
X192339Y227908D01*
X179394Y238230D01*
X179317Y238270D01*
X179257Y238334D01*
X165754Y247914D01*
X165675Y247950D01*
X165612Y248010D01*
X151593Y256818D01*
X151511Y256849D01*
X151445Y256905D01*
X136954Y264914D01*
X136872Y264940D01*
X136802Y264993D01*
X121885Y272176D01*
X121801Y272198D01*
X121728Y272246D01*
X106432Y278582D01*
X106347Y278599D01*
X106272Y278644D01*
X90645Y284112D01*
X90559Y284124D01*
X90481Y284164D01*
X74572Y288747D01*
X74485Y288755D01*
X74406Y288790D01*
X58264Y292474D01*
X58177Y292477D01*
X58096Y292508D01*
X41773Y295281D01*
X41686Y295279D01*
X41603Y295305D01*
X25151Y297159D01*
X25064Y297152D01*
X24980Y297173D01*
X8450Y298102D01*
X8364Y298090D01*
X8278Y298106D01*
X-8278D01*
X-8364Y298090D01*
X-8450Y298102D01*
X-24980Y297173D01*
X-25064Y297152D01*
X-25151Y297159D01*
X-41603Y295305D01*
X-41686Y295279D01*
X-41773Y295281D01*
X-58096Y292508D01*
X-58177Y292477D01*
X-58264Y292474D01*
X-74406Y288790D01*
X-74485Y288755D01*
X-74572Y288747D01*
X-90481Y284164D01*
X-90559Y284124D01*
X-90645Y284112D01*
X-106272Y278644D01*
X-106347Y278599D01*
X-106432Y278582D01*
X-121728Y272246D01*
X-121801Y272198D01*
X-121885Y272176D01*
X-136802Y264993D01*
X-136872Y264940D01*
X-136954Y264914D01*
X-151445Y256905D01*
X-151511Y256849D01*
X-151593Y256818D01*
X-165612Y248010D01*
X-165675Y247950D01*
X-165754Y247914D01*
X-179257Y238334D01*
X-179317Y238270D01*
X-179394Y238230D01*
X-192339Y227908D01*
X-192395Y227841D01*
X-192470Y227797D01*
X-204815Y216765D01*
X-204867Y216695D01*
X-204939Y216647D01*
X-210793Y210793D01*
X-211724Y209862D01*
X-211947Y209529D01*
X-212211Y209228D01*
X-213528Y206947D01*
X-213656Y206568D01*
X-213833Y206209D01*
X-214515Y203665D01*
X-214541Y203266D01*
X-214619Y202873D01*
Y200239D01*
X-214541Y199847D01*
X-214515Y199448D01*
X-213833Y196903D01*
X-213656Y196545D01*
X-213528Y196166D01*
X-212211Y193885D01*
X-211947Y193584D01*
X-211724Y193251D01*
X-209862Y191388D01*
X-209529Y191166D01*
X-209228Y190902D01*
X-208046Y190220D01*
X-207650Y188525D01*
X-209529Y185706D01*
X-209837Y185399D01*
X-210005Y184993D01*
X-211792Y182311D01*
X-212063Y182219D01*
X-213306Y182330D01*
X-214813Y184443D01*
X-215157Y184767D01*
X-215473Y185118D01*
X-217976Y186987D01*
X-218402Y187191D01*
X-218810Y187428D01*
X-221763Y188446D01*
X-222231Y188510D01*
X-222692Y188612D01*
X-225815Y188681D01*
X-226280Y188599D01*
X-226750Y188556D01*
X-229746Y187670D01*
X-230163Y187450D01*
X-230598Y187266D01*
X-233181Y185509D01*
X-233512Y185172D01*
X-233870Y184864D01*
X-234832Y183634D01*
X-234832Y183634D01*
X-239859Y177205D01*
X-239898Y177129D01*
X-239960Y177069D01*
X-249288Y163676D01*
X-249322Y163597D01*
X-249380Y163534D01*
X-257954Y149646D01*
X-257984Y149565D01*
X-258039Y149499D01*
X-265831Y135158D01*
X-265857Y135076D01*
X-265908Y135007D01*
X-272896Y120257D01*
X-272917Y120174D01*
X-272964Y120103D01*
X-279126Y104989D01*
X-279142Y104904D01*
X-279186Y104830D01*
X-284503Y89399D01*
X-284514Y89314D01*
X-284554Y89238D01*
X-289009Y73536D01*
X-289016Y73450D01*
X-289051Y73372D01*
X-292633Y57448D01*
X-292635Y57362D01*
X-292665Y57282D01*
X-295361Y41185D01*
X-295358Y41099D01*
X-295384Y41017D01*
X-297186Y24795D01*
X-297178Y24710D01*
X-297200Y24627D01*
X-297895Y12072D01*
X-299209Y9613D01*
X-300638Y4901D01*
X-301121Y-0D01*
X-300638Y-4901D01*
X-299209Y-9613D01*
X-297895Y-12072D01*
X-297200Y-24627D01*
X-297178Y-24710D01*
X-297186Y-24795D01*
X-295384Y-41017D01*
X-295358Y-41099D01*
X-295361Y-41185D01*
X-292665Y-57282D01*
X-292635Y-57362D01*
X-292633Y-57448D01*
X-289051Y-73372D01*
X-289016Y-73450D01*
X-289009Y-73536D01*
X-284554Y-89238D01*
X-284514Y-89314D01*
X-284503Y-89399D01*
X-279186Y-104830D01*
X-279142Y-104904D01*
X-279126Y-104989D01*
X-272964Y-120103D01*
X-272917Y-120174D01*
X-272896Y-120257D01*
X-265908Y-135007D01*
X-265857Y-135076D01*
X-265831Y-135158D01*
X-258039Y-149499D01*
X-257984Y-149565D01*
X-257954Y-149646D01*
X-249380Y-163534D01*
X-249322Y-163597D01*
X-249288Y-163676D01*
X-239960Y-177069D01*
X-239898Y-177129D01*
X-239859Y-177205D01*
X-234832Y-183634D01*
X-234832Y-183634D01*
X-233870Y-184864D01*
X-233512Y-185172D01*
X-233181Y-185509D01*
X-230598Y-187266D01*
X-230163Y-187450D01*
X-229746Y-187670D01*
X-226750Y-188556D01*
X-226280Y-188599D01*
X-225815Y-188681D01*
X-222692Y-188612D01*
X-222231Y-188510D01*
X-221763Y-188446D01*
X-218810Y-187428D01*
X-218402Y-187191D01*
X-217976Y-186987D01*
X-215473Y-185118D01*
X-215157Y-184767D01*
X-214815Y-184444D01*
X-208899Y-189515D01*
X-209016Y-190780D01*
X-209228Y-190902D01*
X-209529Y-191166D01*
X-209862Y-191388D01*
X-211724Y-193251D01*
X-211947Y-193584D01*
X-212211Y-193885D01*
X-213528Y-196166D01*
X-213656Y-196545D01*
X-213833Y-196903D01*
X-214515Y-199448D01*
X-214541Y-199847D01*
X-214619Y-200239D01*
Y-202873D01*
X-214541Y-203266D01*
X-214515Y-203665D01*
X-213833Y-206209D01*
X-213656Y-206568D01*
X-213528Y-206947D01*
X-212211Y-209228D01*
X-211947Y-209529D01*
X-211724Y-209862D01*
X-210793Y-210793D01*
X-204939Y-216647D01*
X-204867Y-216695D01*
X-204815Y-216765D01*
X-192470Y-227797D01*
X-192395Y-227841D01*
X-192339Y-227908D01*
X-179394Y-238230D01*
X-179317Y-238270D01*
X-179257Y-238334D01*
X-165754Y-247914D01*
X-165675Y-247950D01*
X-165612Y-248010D01*
X-151593Y-256818D01*
X-151511Y-256849D01*
X-151445Y-256905D01*
X-136954Y-264914D01*
X-136872Y-264940D01*
X-136802Y-264993D01*
X-121885Y-272176D01*
X-121801Y-272198D01*
X-121728Y-272246D01*
X-106432Y-278582D01*
X-106347Y-278599D01*
X-106272Y-278644D01*
X-90645Y-284112D01*
X-90559Y-284124D01*
X-90481Y-284164D01*
X-74572Y-288747D01*
X-74485Y-288755D01*
X-74406Y-288790D01*
X-58264Y-292474D01*
X-58177Y-292477D01*
X-58096Y-292508D01*
X-41773Y-295281D01*
X-41686Y-295279D01*
X-41603Y-295305D01*
X-25151Y-297159D01*
X-25064Y-297152D01*
X-24980Y-297173D01*
X-8450Y-298102D01*
X-8364Y-298090D01*
X-8278Y-298106D01*
X8278D01*
X8364Y-298090D01*
X8450Y-298102D01*
X24980Y-297173D01*
X25064Y-297152D01*
X25151Y-297159D01*
X41603Y-295305D01*
X41686Y-295279D01*
X41773Y-295281D01*
X58096Y-292508D01*
X58177Y-292477D01*
X58264Y-292474D01*
X74406Y-288790D01*
X74485Y-288755D01*
X74572Y-288747D01*
X90481Y-284164D01*
X90558Y-284124D01*
X90645Y-284112D01*
X106272Y-278644D01*
X106347Y-278599D01*
X106432Y-278582D01*
X121728Y-272246D01*
X121801Y-272198D01*
X121885Y-272176D01*
X136802Y-264993D01*
X136872Y-264940D01*
X136954Y-264914D01*
X151445Y-256905D01*
X151511Y-256849D01*
X151593Y-256818D01*
X165612Y-248010D01*
X165675Y-247950D01*
X165754Y-247914D01*
X179257Y-238334D01*
X179317Y-238270D01*
X179394Y-238230D01*
X192339Y-227908D01*
X192395Y-227841D01*
X192470Y-227797D01*
X204815Y-216765D01*
X204867Y-216695D01*
X204939Y-216647D01*
X210793Y-210793D01*
X211490Y-210096D01*
X211657Y-209846D01*
X211870Y-209633D01*
X212965Y-207994D01*
X213080Y-207716D01*
X213248Y-207466D01*
X214002Y-205645D01*
X214060Y-205350D01*
X214176Y-205071D01*
X214560Y-203139D01*
Y-202837D01*
X214619Y-202542D01*
Y-200072D01*
X214531Y-199632D01*
X214487Y-199185D01*
X213626Y-196345D01*
X213414Y-195948D01*
X213242Y-195533D01*
X211593Y-193065D01*
X211275Y-192748D01*
X210990Y-192400D01*
X208696Y-190518D01*
X208300Y-190306D01*
X207926Y-190056D01*
X207493Y-189877D01*
X207287Y-188624D01*
X212791Y-183808D01*
X214055Y-183939D01*
X214671Y-184760D01*
X214969Y-185028D01*
X215230Y-185331D01*
X217303Y-186956D01*
X217660Y-187137D01*
X217990Y-187362D01*
X220413Y-188396D01*
X220805Y-188478D01*
X221182Y-188610D01*
X223790Y-188981D01*
X224190Y-188959D01*
X224589Y-188990D01*
X227204Y-188673D01*
X227584Y-188548D01*
X227977Y-188474D01*
X230421Y-187492D01*
X230756Y-187273D01*
X231117Y-187100D01*
X233223Y-185518D01*
X233490Y-185220D01*
X233793Y-184959D01*
X234606Y-183923D01*
X234606Y-183923D01*
X239650Y-177488D01*
X239689Y-177412D01*
X239751Y-177352D01*
X249111Y-163944D01*
X249146Y-163866D01*
X249205Y-163803D01*
X257808Y-149897D01*
X257838Y-149817D01*
X257893Y-149751D01*
X265714Y-135390D01*
X265739Y-135308D01*
X265791Y-135239D01*
X272804Y-120467D01*
X272825Y-120384D01*
X272872Y-120312D01*
X279056Y-105175D01*
X279073Y-105091D01*
X279116Y-105016D01*
X280602Y-100712D01*
X280613Y-100709D01*
X284956Y-98387D01*
X288763Y-95263D01*
X291887Y-91456D01*
X294209Y-87113D01*
X295638Y-82401D01*
X296121Y-77500D01*
X295638Y-72599D01*
X294209Y-67887D01*
X291887Y-63544D01*
X291397Y-62946D01*
X292612Y-57554D01*
X292614Y-57468D01*
X292645Y-57387D01*
X295350Y-41261D01*
X295348Y-41175D01*
X295374Y-41093D01*
X297182Y-24841D01*
X297175Y-24755D01*
X297196Y-24672D01*
X298102Y-8345D01*
X298090Y-8260D01*
X298106Y-8176D01*
X298106Y-1270D01*
X299376Y0D01*
X346941D01*
Y-346941D01*
X-297000D01*
Y-326000D01*
X-372000D01*
Y-343998D01*
Y-346941D01*
X-396937D01*
Y-163000D01*
Y-161683D01*
X-397015Y-161290D01*
X-397042Y-160891D01*
X-397723Y-158347D01*
X-397900Y-157988D01*
X-398029Y-157609D01*
X-399346Y-155328D01*
X-399610Y-155027D01*
X-399832Y-154695D01*
X-401695Y-152832D01*
X-402027Y-152610D01*
X-402328Y-152346D01*
X-404609Y-151029D01*
X-404988Y-150900D01*
X-405347Y-150723D01*
X-407891Y-150042D01*
X-408290Y-150015D01*
X-408683Y-149937D01*
X-410000D01*
Y-142063D01*
X-408683D01*
X-408291Y-141985D01*
X-407891Y-141958D01*
X-405347Y-141277D01*
X-404988Y-141100D01*
X-404609Y-140971D01*
X-402328Y-139654D01*
X-402027Y-139390D01*
X-401695Y-139168D01*
X-399832Y-137305D01*
X-399610Y-136973D01*
X-399346Y-136672D01*
X-398029Y-134391D01*
X-397900Y-134012D01*
X-397723Y-133653D01*
X-397042Y-131109D01*
X-397015Y-130709D01*
X-396937Y-130317D01*
Y-129000D01*
Y37291D01*
X-396485Y37381D01*
X-396207Y37496D01*
X-395911Y37555D01*
X-394091Y38309D01*
X-393840Y38476D01*
X-393562Y38591D01*
X-391924Y39686D01*
X-391711Y39899D01*
X-391460Y40067D01*
X-390067Y41460D01*
X-389899Y41711D01*
X-389686Y41924D01*
X-388591Y43562D01*
X-388476Y43840D01*
X-388309Y44091D01*
X-387555Y45911D01*
X-387496Y46207D01*
X-387381Y46485D01*
X-386996Y48418D01*
Y48719D01*
X-386937Y49015D01*
Y50000D01*
Y183000D01*
Y184317D01*
X-387015Y184709D01*
X-387042Y185109D01*
X-387723Y187653D01*
X-387900Y188012D01*
X-388029Y188391D01*
X-389346Y190672D01*
X-389610Y190973D01*
X-389832Y191305D01*
X-391695Y193168D01*
X-392027Y193390D01*
X-392328Y193654D01*
X-394609Y194971D01*
X-394988Y195100D01*
X-395347Y195277D01*
X-397891Y195958D01*
X-398290Y195984D01*
X-398683Y196063D01*
X-400000D01*
Y203937D01*
X-398683D01*
X-398291Y204016D01*
X-397891Y204042D01*
X-395347Y204723D01*
X-394988Y204900D01*
X-394609Y205029D01*
X-392328Y206346D01*
X-392027Y206610D01*
X-391695Y206832D01*
X-389832Y208695D01*
X-389610Y209027D01*
X-389346Y209328D01*
X-388029Y211609D01*
X-387900Y211988D01*
X-387723Y212347D01*
X-387042Y214891D01*
X-387015Y215291D01*
X-386937Y215683D01*
Y217000D01*
Y330000D01*
Y330985D01*
X-386996Y331281D01*
Y331582D01*
X-387381Y333515D01*
X-387496Y333793D01*
X-387555Y334089D01*
X-388309Y335909D01*
X-388476Y336160D01*
X-388591Y336438D01*
X-389686Y338076D01*
X-389899Y338289D01*
X-390067Y338540D01*
X-391460Y339933D01*
X-391711Y340101D01*
X-391924Y340314D01*
X-393562Y341409D01*
X-393840Y341524D01*
X-394091Y341691D01*
X-395911Y342445D01*
X-396207Y342504D01*
X-396485Y342619D01*
X-398418Y343004D01*
X-398719D01*
X-399015Y343063D01*
X-494317D01*
X-494710Y342985D01*
X-495109Y342958D01*
X-497653Y342277D01*
X-498012Y342100D01*
X-498391Y341971D01*
X-500672Y340654D01*
X-500973Y340390D01*
X-501305Y340168D01*
X-503168Y338305D01*
X-503390Y337973D01*
X-503654Y337672D01*
X-504971Y335391D01*
X-505100Y335012D01*
X-505277Y334653D01*
X-505958Y332109D01*
X-505984Y331709D01*
X-506063Y331317D01*
Y330000D01*
X-513937D01*
Y330985D01*
X-513996Y331281D01*
Y331582D01*
X-514381Y333515D01*
X-514496Y333793D01*
X-514555Y334089D01*
X-515309Y335909D01*
X-515476Y336160D01*
X-515592Y336438D01*
X-516686Y338076D01*
X-516899Y338289D01*
X-517067Y338540D01*
X-518460Y339933D01*
X-518711Y340101D01*
X-518924Y340314D01*
X-520562Y341409D01*
X-520840Y341524D01*
X-521091Y341691D01*
X-522911Y342445D01*
X-523207Y342504D01*
X-523485Y342619D01*
X-525418Y343004D01*
X-525719D01*
X-526015Y343063D01*
X-646941D01*
Y646941D01*
X346941D01*
X346941Y10000D01*
D02*
G37*
G36*
X79879Y-46031D02*
X78561Y-46606D01*
X77879Y-46680D01*
X76165Y-44966D01*
X73875Y-43644D01*
X71322Y-42960D01*
X71270D01*
Y-53000D01*
Y-63040D01*
X71322D01*
X73875Y-62356D01*
X76165Y-61034D01*
X77879Y-59320D01*
X78561Y-59394D01*
X79879Y-59969D01*
Y-77500D01*
X80198Y-80734D01*
X78277Y-81643D01*
X66947Y-70313D01*
X67500Y-68251D01*
Y-65749D01*
X67224Y-64721D01*
X68607Y-63122D01*
X68730Y-63080D01*
Y-53000D01*
Y-42960D01*
X68678D01*
X66603Y-43516D01*
X65510Y-42328D01*
X65305Y-41888D01*
X65725Y-41297D01*
X69935Y-33679D01*
X73266Y-25637D01*
X73415Y-25121D01*
X79879D01*
Y-46031D01*
D02*
G37*
G36*
X-73266Y-25637D02*
X-69935Y-33679D01*
X-65725Y-41297D01*
X-60687Y-48397D01*
X-57448Y-52022D01*
X-58635Y-53695D01*
X-59105Y-53500D01*
X-60895D01*
X-62549Y-54185D01*
X-63815Y-55451D01*
X-64500Y-57105D01*
Y-58895D01*
X-63815Y-60549D01*
X-62549Y-61815D01*
X-60895Y-62500D01*
X-59105D01*
X-57451Y-61815D01*
X-56185Y-60549D01*
X-55500Y-58895D01*
Y-57105D01*
X-55555Y-56973D01*
X-53882Y-55786D01*
X-48397Y-60687D01*
X-41297Y-65725D01*
X-33679Y-69935D01*
X-25637Y-73266D01*
X-25059Y-73433D01*
X-24945Y-75049D01*
X-26584Y-76177D01*
X-27716Y-75932D01*
X-27883Y-75820D01*
X-28025Y-75679D01*
X-28210Y-75602D01*
X-28377Y-75490D01*
X-28574Y-75451D01*
X-28760Y-75374D01*
X-28961D01*
X-29158Y-75335D01*
X-39250D01*
X-40030Y-75490D01*
X-40692Y-75932D01*
X-41134Y-76594D01*
X-41289Y-77374D01*
Y-82500D01*
X-41183Y-83034D01*
X-41549Y-83185D01*
X-42815Y-84451D01*
X-43500Y-86105D01*
Y-87895D01*
X-42815Y-89549D01*
X-41549Y-90815D01*
X-41183Y-90967D01*
X-41289Y-91500D01*
Y-160297D01*
X-41848Y-160756D01*
X-43289Y-161388D01*
X-44494Y-160889D01*
X-46284D01*
X-47938Y-161574D01*
X-49204Y-162840D01*
X-49889Y-164494D01*
Y-166284D01*
X-49204Y-167938D01*
X-47938Y-169204D01*
X-46284Y-169889D01*
X-44494D01*
X-43289Y-169390D01*
X-41848Y-170022D01*
X-41289Y-170482D01*
Y-171374D01*
X-41134Y-172154D01*
X-40692Y-172816D01*
X-40030Y-173258D01*
X-39250Y-173413D01*
X-37351D01*
X-35497Y-174346D01*
X-35497Y-194060D01*
X-35780Y-194116D01*
X-36442Y-194558D01*
X-36884Y-195220D01*
X-37017Y-195889D01*
X-37390Y-196855D01*
X-38355Y-197500D01*
X-40145D01*
X-41799Y-198185D01*
X-43065Y-199451D01*
X-43750Y-201105D01*
Y-202895D01*
X-43219Y-204177D01*
X-44914Y-205310D01*
X-50941Y-199283D01*
Y-198515D01*
X-51174Y-197344D01*
X-51837Y-196352D01*
X-57094Y-191094D01*
X-58087Y-190431D01*
X-59257Y-190199D01*
X-59257Y-190199D01*
X-62976D01*
X-66000Y-187174D01*
Y-179500D01*
X-79000D01*
Y-191500D01*
X-72275D01*
X-72118Y-191736D01*
X-73060Y-193500D01*
X-79000D01*
Y-205500D01*
X-80000Y-205500D01*
Y-224500D01*
X-67000D01*
X-65000Y-224500D01*
Y-224500D01*
X-65000D01*
Y-224500D01*
X-50000D01*
Y-221500D01*
X-48000Y-221102D01*
X-47815Y-221549D01*
X-46549Y-222815D01*
X-44895Y-223500D01*
X-43105D01*
X-41451Y-222815D01*
X-40185Y-221549D01*
X-39500Y-219895D01*
Y-218105D01*
X-40185Y-216451D01*
X-40941Y-215695D01*
Y-210550D01*
X-40941Y-210550D01*
X-41174Y-209380D01*
X-41837Y-208387D01*
X-41827Y-207968D01*
X-40145Y-206500D01*
X-38355D01*
X-37039Y-207379D01*
Y-213000D01*
X-36884Y-213780D01*
X-36442Y-214442D01*
X-35780Y-214884D01*
X-35497Y-214940D01*
X-35497Y-235602D01*
X-35385Y-236166D01*
X-35921Y-236494D01*
X-36168Y-236721D01*
X-36428Y-236932D01*
X-36623Y-237168D01*
X-36768Y-237435D01*
X-36937Y-237689D01*
X-36956Y-237783D01*
X-37002Y-237868D01*
X-37033Y-238171D01*
X-37092Y-238469D01*
Y-242491D01*
X-37105Y-242500D01*
X-38895D01*
X-40549Y-243185D01*
X-41815Y-244451D01*
X-42500Y-246105D01*
Y-247174D01*
X-45163Y-249837D01*
X-45826Y-250829D01*
X-46059Y-252000D01*
X-47152Y-253344D01*
X-49141Y-253277D01*
X-50000Y-251914D01*
Y-236570D01*
X-49895Y-236500D01*
X-48105D01*
X-46451Y-235815D01*
X-45185Y-234549D01*
X-44500Y-232895D01*
Y-231105D01*
X-45185Y-229451D01*
X-46451Y-228185D01*
X-48105Y-227500D01*
X-49895D01*
X-51549Y-228185D01*
X-52555Y-229191D01*
X-81000D01*
Y-226500D01*
X-94000D01*
Y-238500D01*
X-83284D01*
X-82580Y-239692D01*
X-83135Y-240500D01*
X-94000D01*
Y-252500D01*
X-81000D01*
X-80000Y-254086D01*
Y-254500D01*
X-67000D01*
X-64414Y-254500D01*
X-63000Y-255914D01*
Y-262882D01*
X-64564Y-264129D01*
X-67934Y-263359D01*
X-82594Y-259136D01*
X-96994Y-254097D01*
X-111089Y-248259D01*
X-124834Y-241639D01*
X-138186Y-234260D01*
X-140413Y-232861D01*
X-139859Y-230939D01*
X-99500D01*
X-98720Y-230784D01*
X-98058Y-230342D01*
X-97616Y-229680D01*
X-97461Y-228900D01*
Y-185900D01*
X-97616Y-185120D01*
X-98058Y-184458D01*
X-98720Y-184016D01*
X-99500Y-183861D01*
X-137253D01*
Y-175539D01*
X-136500D01*
X-135720Y-175384D01*
X-135058Y-174942D01*
X-134616Y-174280D01*
X-134552Y-173959D01*
X-132500D01*
Y-177400D01*
X-120500D01*
Y-164400D01*
X-119486D01*
X-118500Y-166400D01*
Y-177400D01*
X-106500D01*
Y-173959D01*
X-97805D01*
X-97049Y-174715D01*
X-95395Y-175400D01*
X-93605D01*
X-91951Y-174715D01*
X-90685Y-173449D01*
X-90000Y-171795D01*
Y-170005D01*
X-88994Y-168500D01*
X-88500D01*
Y-168000D01*
X-76500D01*
Y-156040D01*
X-75960D01*
Y-150520D01*
X-82500D01*
Y-149250D01*
X-83770D01*
Y-142460D01*
X-87960D01*
Y-141960D01*
X-93730D01*
Y-148500D01*
X-95000D01*
Y-149770D01*
X-102040D01*
Y-154724D01*
X-102040Y-155040D01*
X-102040D01*
X-101500Y-156500D01*
X-101500Y-156500D01*
Y-167841D01*
X-106500D01*
Y-164400D01*
X-116500D01*
X-117300Y-164400D01*
X-117563Y-162400D01*
X-116865Y-162213D01*
X-114388Y-161549D01*
X-111072Y-159635D01*
X-108365Y-156928D01*
X-106451Y-153612D01*
X-105460Y-149914D01*
Y-149270D01*
X-134540D01*
Y-149914D01*
X-133549Y-153612D01*
X-133106Y-154379D01*
X-134806Y-155436D01*
X-135058Y-155058D01*
X-135720Y-154616D01*
X-136500Y-154461D01*
X-137253D01*
Y-134872D01*
X-136500Y-133939D01*
X-135720Y-133784D01*
X-135058Y-133342D01*
X-134616Y-132680D01*
X-134461Y-131900D01*
Y-125195D01*
X-133421Y-124500D01*
X-131631D01*
X-129977Y-123815D01*
X-128711Y-122549D01*
X-128026Y-120895D01*
Y-119105D01*
X-128711Y-117451D01*
X-129977Y-116185D01*
X-131631Y-115500D01*
X-133421D01*
X-134461Y-114805D01*
Y-108586D01*
X-132461Y-108188D01*
X-132356Y-108441D01*
X-130521Y-111186D01*
X-128186Y-113521D01*
X-125441Y-115356D01*
X-122390Y-116620D01*
X-119151Y-117264D01*
X-118770D01*
Y-100500D01*
X-117500D01*
Y-99230D01*
X-100736D01*
Y-98849D01*
X-101380Y-95610D01*
X-102644Y-92559D01*
X-104479Y-89814D01*
X-106814Y-87479D01*
X-109559Y-85644D01*
X-111261Y-84939D01*
X-110863Y-82939D01*
X-97500D01*
X-96720Y-82784D01*
X-96058Y-82342D01*
X-95616Y-81680D01*
X-95461Y-80900D01*
Y-52000D01*
X-86000D01*
Y-39000D01*
X-95461D01*
Y-37900D01*
X-95616Y-37120D01*
X-96058Y-36458D01*
X-96720Y-36016D01*
X-97500Y-35861D01*
X-161279D01*
X-161636Y-35932D01*
X-161996Y-35991D01*
X-162025Y-36009D01*
X-162059Y-36016D01*
X-162362Y-36219D01*
X-162672Y-36411D01*
X-162692Y-36439D01*
X-162721Y-36458D01*
X-162923Y-36761D01*
X-163136Y-37057D01*
X-163356Y-37543D01*
X-164907Y-36900D01*
X-166697D01*
X-168351Y-37585D01*
X-169617Y-38851D01*
X-170302Y-40505D01*
Y-41574D01*
X-176663Y-47935D01*
X-177326Y-48927D01*
X-177559Y-50098D01*
X-177559Y-50098D01*
Y-53500D01*
X-188000D01*
Y-53941D01*
X-231500D01*
X-232670Y-54174D01*
X-233663Y-54837D01*
X-233663Y-54837D01*
X-237163Y-58337D01*
X-237826Y-59330D01*
X-238059Y-60500D01*
X-238059Y-60500D01*
Y-62695D01*
X-238815Y-63451D01*
X-239500Y-65105D01*
Y-66895D01*
X-238815Y-68549D01*
X-237549Y-69815D01*
X-235895Y-70500D01*
X-234105D01*
X-232451Y-69815D01*
X-231185Y-68549D01*
X-230500Y-66895D01*
Y-65105D01*
X-231185Y-63451D01*
X-231941Y-62695D01*
Y-61767D01*
X-230233Y-60059D01*
X-188540D01*
Y-60730D01*
X-179500D01*
Y-63270D01*
X-188540D01*
Y-66040D01*
X-188540D01*
X-188540Y-67960D01*
X-188540D01*
Y-70730D01*
X-179500D01*
Y-73270D01*
X-188540D01*
Y-73941D01*
X-190695D01*
X-191451Y-73185D01*
X-193105Y-72500D01*
X-194895D01*
X-196549Y-73185D01*
X-197815Y-74451D01*
X-198500Y-76105D01*
Y-77895D01*
X-197815Y-79549D01*
X-196549Y-80815D01*
X-194895Y-81500D01*
X-193105D01*
X-191451Y-80815D01*
X-190695Y-80059D01*
X-188540D01*
Y-80730D01*
X-179500D01*
Y-83270D01*
X-188540D01*
Y-86040D01*
X-188540D01*
X-188540Y-87960D01*
X-188540D01*
Y-90730D01*
X-179500D01*
Y-93270D01*
X-188540D01*
Y-96040D01*
X-188540D01*
X-188540Y-97960D01*
X-188540D01*
Y-100730D01*
X-179500D01*
Y-102000D01*
X-178230D01*
Y-106040D01*
X-173059D01*
Y-139733D01*
X-179326Y-146000D01*
X-180395D01*
X-182049Y-146685D01*
X-183315Y-147951D01*
X-184000Y-149605D01*
Y-151395D01*
X-183315Y-153049D01*
X-182049Y-154315D01*
X-180395Y-155000D01*
X-178605D01*
X-176951Y-154315D01*
X-175685Y-153049D01*
X-175000Y-151395D01*
Y-150326D01*
X-169747Y-145073D01*
X-167747Y-145901D01*
Y-154510D01*
X-168280Y-154616D01*
X-168942Y-155058D01*
X-169384Y-155720D01*
X-170605Y-156497D01*
X-172395D01*
X-174049Y-157183D01*
X-175315Y-158448D01*
X-176000Y-160102D01*
Y-161893D01*
X-175315Y-163547D01*
X-174049Y-164812D01*
X-172395Y-165497D01*
X-170605D01*
X-169539Y-166210D01*
Y-171959D01*
X-171539Y-172787D01*
X-183765Y-160561D01*
X-191204Y-168000D01*
X-178108Y-181096D01*
X-177356Y-180343D01*
X-175815Y-181451D01*
X-176500Y-183105D01*
Y-184895D01*
X-175815Y-186549D01*
X-174549Y-187815D01*
X-172895Y-188500D01*
X-171105D01*
X-169747Y-187938D01*
X-168554Y-188407D01*
X-167747Y-188940D01*
Y-196128D01*
X-167635Y-196692D01*
X-168171Y-197020D01*
X-168418Y-197247D01*
X-168678Y-197458D01*
X-168873Y-197694D01*
X-169018Y-197962D01*
X-169187Y-198215D01*
X-169206Y-198309D01*
X-169252Y-198394D01*
X-169283Y-198697D01*
X-169342Y-198995D01*
Y-203500D01*
X-170895D01*
X-172549Y-204185D01*
X-173815Y-205451D01*
X-174163Y-206290D01*
X-174164Y-206292D01*
X-176180Y-206966D01*
X-176434Y-206945D01*
X-186866Y-197623D01*
X-190841Y-193758D01*
Y-191540D01*
X-191754Y-189335D01*
X-193442Y-187647D01*
X-195647Y-186734D01*
X-198034D01*
X-198266Y-186830D01*
X-199267Y-185805D01*
X-199586Y-185212D01*
X-198750Y-183193D01*
Y-181752D01*
X-196750Y-180924D01*
X-187343Y-190330D01*
X-179904Y-182892D01*
X-193898Y-168898D01*
X-207892Y-154904D01*
X-215330Y-162343D01*
X-213639Y-164035D01*
X-214408Y-166094D01*
X-215304Y-166156D01*
X-218789Y-161570D01*
X-227397Y-149211D01*
X-235297Y-136413D01*
X-242478Y-123198D01*
X-248917Y-109606D01*
X-254595Y-95680D01*
X-259495Y-81460D01*
X-263601Y-66991D01*
X-266901Y-52318D01*
X-269385Y-37485D01*
X-270266Y-29553D01*
X-268932Y-28063D01*
X-239015D01*
X-238719Y-28004D01*
X-238418D01*
X-236485Y-27619D01*
X-236207Y-27504D01*
X-235912Y-27445D01*
X-234091Y-26691D01*
X-233840Y-26524D01*
X-233562Y-26409D01*
X-231924Y-25314D01*
X-231731Y-25121D01*
X-225292D01*
X-225000Y-27121D01*
Y-49000D01*
X-199000D01*
Y-27121D01*
X-199000Y-27000D01*
X-198708Y-25121D01*
X-73415Y-25121D01*
X-73266Y-25637D01*
D02*
G37*
G36*
X34750Y-120374D02*
X-4250D01*
Y-162886D01*
X-4815Y-163451D01*
X-5500Y-165105D01*
Y-166895D01*
X-4815Y-168549D01*
X-4250Y-169114D01*
Y-171374D01*
X-25356D01*
X-26476Y-171012D01*
X-26476Y-170104D01*
Y-158884D01*
X-26476D01*
X-27098Y-157884D01*
X-27331Y-156713D01*
X-27531Y-156414D01*
Y-155003D01*
X-26774Y-154247D01*
X-26089Y-152593D01*
Y-150803D01*
X-26774Y-149149D01*
X-28040Y-147883D01*
X-29694Y-147198D01*
X-31484D01*
X-33138Y-147883D01*
X-34404Y-149149D01*
X-35089Y-150803D01*
Y-152593D01*
X-34404Y-154247D01*
X-33648Y-155003D01*
Y-157451D01*
X-33648Y-157451D01*
X-33609Y-157649D01*
X-33524Y-158884D01*
X-33524Y-158884D01*
X-33524Y-158884D01*
X-33524Y-171012D01*
X-34644Y-171374D01*
X-39250D01*
Y-91500D01*
X-38105D01*
X-36451Y-90815D01*
X-35185Y-89549D01*
X-34500Y-87895D01*
Y-86105D01*
X-35185Y-84451D01*
X-36451Y-83185D01*
X-38105Y-82500D01*
X-39250D01*
Y-77374D01*
X-29158D01*
X-28309Y-78644D01*
X-28500Y-79105D01*
Y-80895D01*
X-27815Y-82549D01*
X-26549Y-83815D01*
X-24895Y-84500D01*
X-23105D01*
X-21451Y-83815D01*
X-20185Y-82549D01*
X-19500Y-80895D01*
Y-79105D01*
X-19691Y-78644D01*
X-18842Y-77374D01*
X-4418D01*
X0Y-77622D01*
X4418Y-77374D01*
X34750D01*
Y-120374D01*
D02*
G37*
G36*
X-97500Y-80900D02*
X-136500D01*
Y-117835D01*
X-137026Y-119105D01*
Y-120895D01*
X-136500Y-122165D01*
Y-131900D01*
X-157606D01*
X-158726Y-131538D01*
Y-119410D01*
X-159781D01*
Y-117783D01*
X-159024Y-117027D01*
X-158339Y-115372D01*
Y-113582D01*
X-159024Y-111928D01*
X-160290Y-110662D01*
X-161944Y-109977D01*
X-163734D01*
X-165388Y-110662D01*
X-165671Y-110946D01*
X-166941Y-110419D01*
Y-99257D01*
X-166941Y-99257D01*
X-167174Y-98087D01*
X-167837Y-97094D01*
X-167837Y-97094D01*
X-169594Y-95337D01*
X-170587Y-94674D01*
X-171000Y-94592D01*
Y-90500D01*
X-171000D01*
Y-90240D01*
X-169730Y-90134D01*
X-169049Y-90815D01*
X-167395Y-91500D01*
X-165605D01*
X-163951Y-90815D01*
X-162685Y-89549D01*
X-162000Y-87895D01*
Y-86105D01*
X-162685Y-84451D01*
X-163951Y-83185D01*
X-165605Y-82500D01*
X-167395D01*
X-169049Y-83185D01*
X-169730Y-83866D01*
X-171000Y-83759D01*
Y-83500D01*
X-171000D01*
Y-80500D01*
X-171000D01*
Y-71500D01*
X-169277D01*
X-167623Y-70815D01*
X-166357Y-69549D01*
X-165672Y-67895D01*
Y-66105D01*
X-166357Y-64451D01*
X-167623Y-63185D01*
X-169277Y-62500D01*
X-171000D01*
Y-60500D01*
X-171000D01*
Y-53500D01*
X-171441D01*
Y-51365D01*
X-165976Y-45900D01*
X-164907D01*
X-163253Y-45215D01*
X-161987Y-43949D01*
X-161302Y-42295D01*
Y-40505D01*
X-161855Y-39170D01*
X-161279Y-37900D01*
X-97500D01*
Y-80900D01*
D02*
G37*
G36*
X236924Y-102814D02*
X238562Y-103909D01*
X238840Y-104024D01*
X239091Y-104191D01*
X240911Y-104945D01*
X241207Y-105004D01*
X241485Y-105119D01*
X243418Y-105504D01*
X243719D01*
X244015Y-105563D01*
X248769D01*
X249884Y-107223D01*
X248833Y-109797D01*
X242370Y-123409D01*
X235164Y-136642D01*
X227236Y-149455D01*
X218598Y-161828D01*
X214658Y-167000D01*
X212806D01*
X210601Y-167913D01*
X208913Y-169601D01*
X208000Y-171807D01*
Y-174193D01*
X208247Y-174789D01*
X206716Y-176320D01*
X205944Y-176000D01*
X203556D01*
X201351Y-176913D01*
X199664Y-178601D01*
X198750Y-180807D01*
Y-183193D01*
X199586Y-185212D01*
X199267Y-185805D01*
X198266Y-186830D01*
X198034Y-186734D01*
X195647D01*
X193442Y-187647D01*
X191754Y-189335D01*
X190841Y-191540D01*
Y-193758D01*
X186865Y-197623D01*
X181826Y-202127D01*
X180000Y-201310D01*
Y-192500D01*
X167540D01*
Y-190500D01*
X180000D01*
Y-181793D01*
X181250Y-180039D01*
X195000D01*
X195197Y-180000D01*
X197000D01*
Y-178197D01*
X197039Y-178000D01*
Y-170287D01*
X208863Y-158463D01*
X209526Y-157471D01*
X209759Y-156300D01*
Y-147191D01*
X210096Y-146966D01*
X211137Y-145407D01*
X211503Y-143569D01*
Y-132451D01*
X211137Y-130613D01*
X210096Y-129055D01*
X208538Y-128014D01*
X206700Y-127649D01*
X204862Y-128014D01*
X203304Y-129055D01*
X202263Y-130613D01*
X201897Y-132451D01*
Y-143569D01*
X202263Y-145407D01*
X203304Y-146966D01*
X203641Y-147191D01*
Y-155033D01*
X198887Y-159787D01*
X197039Y-159022D01*
Y-152000D01*
X197000Y-151803D01*
Y-151421D01*
X197059Y-151125D01*
X197059Y-151125D01*
Y-147191D01*
X197396Y-146966D01*
X198437Y-145407D01*
X198803Y-143569D01*
Y-132451D01*
X198437Y-130613D01*
X197396Y-129055D01*
X195838Y-128014D01*
X194000Y-127649D01*
X192162Y-128014D01*
X190604Y-129055D01*
X189563Y-130613D01*
X189197Y-132451D01*
Y-143569D01*
X189563Y-145407D01*
X190604Y-146966D01*
X190941Y-147191D01*
Y-149858D01*
X190838Y-149961D01*
X186782D01*
X186011Y-148280D01*
Y-127741D01*
X176589D01*
Y-134952D01*
X174317D01*
X173702Y-134337D01*
X172710Y-133674D01*
X171539Y-133441D01*
X171539Y-133441D01*
X166267D01*
X164500Y-131674D01*
Y-124000D01*
X152540D01*
Y-123460D01*
X147020D01*
Y-130000D01*
X145750D01*
Y-131270D01*
X138960D01*
Y-136540D01*
X142398D01*
X144000Y-137500D01*
Y-150500D01*
X156000D01*
Y-148218D01*
X157808Y-147362D01*
X158000Y-147520D01*
Y-150500D01*
X165648D01*
X166961Y-152000D01*
Y-155182D01*
X166201Y-155941D01*
X163305D01*
X162549Y-155185D01*
X160895Y-154500D01*
X159105D01*
X157451Y-155185D01*
X156282Y-156354D01*
X156106Y-156456D01*
X153967Y-156580D01*
X153560Y-156050D01*
X152103Y-154932D01*
X150407Y-154229D01*
X148586Y-153989D01*
X147020D01*
Y-172500D01*
Y-191011D01*
X148586D01*
X150407Y-190771D01*
X152103Y-190068D01*
X152460Y-189795D01*
X154460Y-190781D01*
Y-197540D01*
X155000D01*
Y-200191D01*
X133559D01*
Y-170488D01*
X133559Y-170488D01*
X133326Y-169317D01*
X132663Y-168325D01*
X128569Y-164231D01*
Y-159874D01*
X130115Y-158841D01*
X131905D01*
X133559Y-158156D01*
X134825Y-156890D01*
X135510Y-155236D01*
Y-153446D01*
X134825Y-151792D01*
X133559Y-150526D01*
X131905Y-149841D01*
X130115D01*
X128569Y-148808D01*
Y-142925D01*
X130355Y-141500D01*
X132145D01*
X133799Y-140815D01*
X135065Y-139549D01*
X135750Y-137895D01*
Y-136105D01*
X135065Y-134451D01*
X133799Y-133185D01*
X133269Y-132965D01*
X132147Y-132473D01*
X132262Y-130568D01*
Y-128778D01*
X131576Y-127124D01*
X130311Y-125858D01*
X128657Y-125173D01*
X126867D01*
X125213Y-125858D01*
X123947Y-127124D01*
X123500Y-128203D01*
X121500Y-127805D01*
Y-125000D01*
X102500D01*
Y-116000D01*
X121500D01*
Y-112477D01*
X123500Y-111249D01*
X124105Y-111500D01*
X125895D01*
X127549Y-110815D01*
X128815Y-109549D01*
X129500Y-107895D01*
Y-106105D01*
X128885Y-104621D01*
X129193Y-103759D01*
X129813Y-102621D01*
X153187D01*
X153807Y-103759D01*
X154115Y-104621D01*
X153500Y-106105D01*
Y-107895D01*
X154185Y-109549D01*
X155451Y-110815D01*
X157105Y-111500D01*
X158895D01*
X160549Y-110815D01*
X161815Y-109549D01*
X162500Y-107895D01*
Y-106105D01*
X161885Y-104621D01*
X162193Y-103759D01*
X162813Y-102621D01*
X236731D01*
X236924Y-102814D01*
D02*
G37*
G36*
X49904Y-62022D02*
X49148Y-63333D01*
X48500Y-65749D01*
Y-68251D01*
X49148Y-70667D01*
X50398Y-72833D01*
X52167Y-74602D01*
X54333Y-75853D01*
X56749Y-76500D01*
X56687Y-78474D01*
X48250D01*
Y-91474D01*
X51191D01*
Y-150974D01*
X48250D01*
X48250Y-150974D01*
X46790Y-150434D01*
Y-150434D01*
X46474Y-150434D01*
X41520D01*
Y-157474D01*
X40250D01*
Y-158744D01*
X33710D01*
Y-164514D01*
X34210D01*
Y-168704D01*
X41000D01*
Y-169974D01*
X42270D01*
Y-176514D01*
X47790D01*
Y-175974D01*
X59750D01*
Y-168300D01*
X60550Y-167500D01*
X61619D01*
X63152Y-168668D01*
X63460Y-170540D01*
Y-171960D01*
X63460D01*
X63460Y-172540D01*
Y-177480D01*
X70000D01*
Y-180020D01*
X63460D01*
Y-180483D01*
X61460Y-181734D01*
X60895Y-181500D01*
X59105D01*
X58256Y-181852D01*
X56290Y-181934D01*
X56290Y-181934D01*
X56290Y-181934D01*
X51020D01*
Y-188724D01*
X48480D01*
Y-181934D01*
X44290D01*
Y-181434D01*
X38520D01*
Y-187974D01*
X35980D01*
Y-181434D01*
X34543D01*
X33277Y-179434D01*
X33500Y-178895D01*
Y-178220D01*
X34035Y-176934D01*
X35348Y-176514D01*
X39730D01*
Y-171244D01*
X34210D01*
Y-174018D01*
X32210Y-174846D01*
X31549Y-174185D01*
X29895Y-173500D01*
X28105D01*
X26451Y-174185D01*
X25185Y-175451D01*
X24726Y-176559D01*
X23119Y-177144D01*
X22500Y-177161D01*
X21178Y-175839D01*
X17862Y-173925D01*
X14164Y-172934D01*
X13520D01*
Y-187474D01*
X10980D01*
Y-172934D01*
X10336D01*
X6638Y-173925D01*
X4059Y-175414D01*
X2059Y-174450D01*
Y-169305D01*
X2815Y-168549D01*
X3500Y-166895D01*
Y-165105D01*
X2815Y-163451D01*
X1549Y-162185D01*
X-105Y-161500D01*
X-1895D01*
X-2211Y-161289D01*
Y-148060D01*
X-211Y-147662D01*
X-106Y-147915D01*
X1729Y-150660D01*
X4064Y-152995D01*
X6809Y-154830D01*
X9860Y-156094D01*
X13099Y-156738D01*
X13480D01*
Y-139974D01*
X14750D01*
Y-138704D01*
X31514D01*
Y-138323D01*
X30870Y-135084D01*
X29606Y-132033D01*
X27771Y-129288D01*
X25436Y-126952D01*
X22691Y-125118D01*
X20989Y-124413D01*
X21387Y-122413D01*
X34750D01*
X35530Y-122258D01*
X36192Y-121816D01*
X36634Y-121154D01*
X36789Y-120374D01*
Y-91474D01*
X46250D01*
Y-78474D01*
X36789D01*
Y-77374D01*
X36634Y-76594D01*
X36192Y-75932D01*
X35530Y-75490D01*
X34750Y-75335D01*
X25610D01*
X25331Y-73355D01*
X25637Y-73266D01*
X33679Y-69935D01*
X41297Y-65725D01*
X48397Y-60687D01*
X49904Y-62022D01*
D02*
G37*
G36*
X-139292Y-157726D02*
X-165708D01*
Y-134872D01*
X-139292D01*
Y-157726D01*
D02*
G37*
G36*
X121500Y-135000D02*
X122452Y-136606D01*
Y-165498D01*
X122452Y-165498D01*
X122684Y-166669D01*
X123348Y-167661D01*
X127441Y-171755D01*
Y-185467D01*
X125895Y-186500D01*
X124105D01*
X122451Y-187185D01*
X121711Y-187925D01*
X121702Y-187927D01*
X119673Y-187574D01*
X119531Y-187492D01*
X119175Y-186632D01*
X117909Y-185366D01*
X116255Y-184681D01*
X114465D01*
X112811Y-185366D01*
X111545Y-186632D01*
X110860Y-188286D01*
Y-190076D01*
X111545Y-191730D01*
X112811Y-192996D01*
X114465Y-193681D01*
X116255D01*
X117909Y-192996D01*
X118649Y-192256D01*
X118658Y-192254D01*
X120688Y-192607D01*
X120829Y-192689D01*
X121185Y-193549D01*
X122451Y-194815D01*
X124105Y-195500D01*
X125895D01*
X127441Y-196533D01*
Y-200191D01*
X107920D01*
X101066Y-193337D01*
X100073Y-192674D01*
X98903Y-192441D01*
X98903Y-192441D01*
X92776D01*
X91732Y-190878D01*
X89611Y-189461D01*
X87110Y-188964D01*
X81390D01*
X78889Y-189461D01*
X78000Y-190055D01*
X76000Y-188986D01*
Y-185540D01*
X76540D01*
Y-179840D01*
X78540Y-178843D01*
X79575Y-179272D01*
X81390Y-179511D01*
X82980D01*
Y-172500D01*
Y-165489D01*
X81390D01*
X79575Y-165728D01*
X78540Y-166157D01*
X76540Y-165160D01*
Y-165020D01*
X70000D01*
Y-162480D01*
X76540D01*
Y-156960D01*
X78105Y-155911D01*
X93521D01*
Y-147237D01*
X93826Y-146781D01*
X94059Y-145610D01*
Y-142318D01*
X94403Y-141959D01*
X96059Y-141147D01*
X97085Y-141572D01*
X98875D01*
X100529Y-140887D01*
X101795Y-139621D01*
X102480Y-137967D01*
Y-136177D01*
X103266Y-135000D01*
X112941D01*
Y-160192D01*
X111792Y-161341D01*
X111264D01*
X109610Y-162026D01*
X108344Y-163292D01*
X107659Y-164946D01*
Y-166736D01*
X108317Y-168326D01*
X107451Y-168685D01*
X106185Y-169951D01*
X104021Y-169949D01*
X103815Y-169451D01*
X102549Y-168185D01*
X100895Y-167500D01*
X99105D01*
X97451Y-168185D01*
X96185Y-169451D01*
X95816Y-170341D01*
X95146Y-170460D01*
X93695Y-170235D01*
X93181Y-168995D01*
X92067Y-167543D01*
X90615Y-166429D01*
X88925Y-165728D01*
X87110Y-165489D01*
X85520D01*
Y-172500D01*
Y-179511D01*
X87110D01*
X88925Y-179272D01*
X90615Y-178571D01*
X92067Y-177457D01*
X93181Y-176005D01*
X93882Y-174314D01*
X93892Y-174239D01*
X95945Y-173969D01*
X96185Y-174549D01*
X97451Y-175815D01*
X99105Y-176500D01*
X100895D01*
X102549Y-175815D01*
X103815Y-174549D01*
X105979Y-174551D01*
X106185Y-175049D01*
X107451Y-176315D01*
X109105Y-177000D01*
X110895D01*
X112549Y-176315D01*
X113815Y-175049D01*
X114500Y-173395D01*
Y-171605D01*
X113841Y-170015D01*
X114708Y-169656D01*
X115974Y-168390D01*
X116659Y-166736D01*
Y-165126D01*
X118163Y-163622D01*
X118826Y-162629D01*
X119059Y-161459D01*
Y-135000D01*
X121500D01*
D02*
G37*
G36*
X-139292Y-196128D02*
X-165708D01*
Y-173274D01*
X-139292D01*
Y-196128D01*
D02*
G37*
G36*
X-7042Y-197200D02*
X-33458D01*
X-33458Y-174346D01*
X-7042D01*
X-7042Y-197200D01*
D02*
G37*
G36*
X-99500Y-228900D02*
X-146716D01*
X-151104Y-226143D01*
X-163546Y-217315D01*
X-167303Y-214319D01*
Y-211667D01*
X-166185Y-210549D01*
X-165500Y-208895D01*
Y-207105D01*
X-166185Y-205451D01*
X-167303Y-204333D01*
Y-198995D01*
X-167108Y-198759D01*
X-166033Y-198103D01*
X-165708Y-198167D01*
X-139292D01*
X-138512Y-198012D01*
X-137850Y-197570D01*
X-137408Y-196908D01*
X-137253Y-196128D01*
Y-185900D01*
X-99500D01*
Y-228900D01*
D02*
G37*
G36*
X64000Y-193558D02*
Y-197500D01*
X72959D01*
X72258Y-199500D01*
X70000D01*
Y-207424D01*
X65233Y-212191D01*
X60305D01*
X59549Y-211435D01*
X57895Y-210750D01*
X56105D01*
X54451Y-211435D01*
X53185Y-212701D01*
X52500Y-214355D01*
Y-216145D01*
X53185Y-217799D01*
X54451Y-219065D01*
X56105Y-219750D01*
X57895D01*
X59549Y-219065D01*
X60305Y-218309D01*
X66500D01*
X66500Y-218309D01*
X67460Y-218118D01*
X67861Y-218205D01*
X69460Y-219286D01*
Y-225040D01*
X74730D01*
Y-218250D01*
X77270D01*
Y-225040D01*
X82540D01*
Y-220040D01*
X84003D01*
X85855Y-219273D01*
X87273Y-217855D01*
X88040Y-216003D01*
X89941Y-216241D01*
Y-225533D01*
X83995Y-231479D01*
X83684Y-231350D01*
X81316D01*
X79130Y-232256D01*
X77581Y-233804D01*
X77296Y-233925D01*
X75315Y-233872D01*
X74993Y-233315D01*
X73785Y-232107D01*
X72305Y-231252D01*
X71070Y-230921D01*
Y-237300D01*
X68530D01*
Y-230921D01*
X67295Y-231252D01*
X65993Y-232004D01*
X65594Y-232025D01*
X63747Y-231347D01*
X63600Y-230798D01*
X62681Y-229207D01*
X61383Y-227909D01*
X59792Y-226990D01*
X58018Y-226515D01*
X56182D01*
X54408Y-226990D01*
X52817Y-227909D01*
X51519Y-229207D01*
X50600Y-230798D01*
X50125Y-232572D01*
Y-234408D01*
X50600Y-236182D01*
X51519Y-237773D01*
X52817Y-239071D01*
X54408Y-239990D01*
X56182Y-240465D01*
X58018D01*
X59792Y-239990D01*
X61336Y-239099D01*
X63286Y-239626D01*
X63979Y-241070D01*
X62908Y-242776D01*
X53797D01*
X52626Y-243009D01*
X51634Y-243672D01*
X44798Y-250507D01*
X42601Y-250702D01*
X41298Y-249399D01*
X39702Y-248477D01*
X37922Y-248000D01*
X36079D01*
X34789Y-247011D01*
Y-239071D01*
X34750Y-238874D01*
Y-238673D01*
X34673Y-238488D01*
X34634Y-238291D01*
X34522Y-238124D01*
X34446Y-237938D01*
X34304Y-237796D01*
X34192Y-237629D01*
X34815Y-236549D01*
X35500Y-234895D01*
Y-233105D01*
X34815Y-231451D01*
X34446Y-230062D01*
X34522Y-229876D01*
X34634Y-229709D01*
X34673Y-229512D01*
X34750Y-229327D01*
Y-229126D01*
X34789Y-228929D01*
Y-225374D01*
X34634Y-224594D01*
X34192Y-223932D01*
X33530Y-223490D01*
X32750Y-223335D01*
X-5003D01*
Y-215039D01*
X-4000D01*
X-3220Y-214884D01*
X-2558Y-214442D01*
X-597Y-215107D01*
X-250Y-215367D01*
Y-216874D01*
X11750D01*
Y-203874D01*
X13750D01*
Y-216874D01*
X25750D01*
Y-213433D01*
X35476D01*
X35477Y-213433D01*
X36647Y-213200D01*
X37639Y-212537D01*
X39913Y-210263D01*
X39913Y-210263D01*
X40576Y-209271D01*
X40809Y-208100D01*
Y-207974D01*
X43750D01*
Y-207474D01*
X55750D01*
Y-199300D01*
X56424Y-198625D01*
X57156Y-198137D01*
X61629Y-193663D01*
X61630Y-193663D01*
X62000Y-193108D01*
X64000Y-193558D01*
D02*
G37*
G36*
X132451Y-212765D02*
X132897Y-212949D01*
X133377Y-215298D01*
X124174Y-224500D01*
X123105D01*
X122244Y-224857D01*
X120315Y-224779D01*
X119049Y-223514D01*
X117395Y-222829D01*
X115605D01*
X113951Y-223514D01*
X112685Y-224779D01*
X112000Y-226433D01*
Y-228224D01*
X112142Y-228566D01*
X110806Y-230567D01*
X101138D01*
X101138Y-230567D01*
X99968Y-230799D01*
X98975Y-231462D01*
X98975Y-231462D01*
X98296Y-232142D01*
X96383Y-231350D01*
X95604D01*
X94776Y-229350D01*
X95163Y-228963D01*
X95826Y-227971D01*
X96059Y-226800D01*
Y-220536D01*
X98059Y-219274D01*
X98605Y-219500D01*
X100395D01*
X102049Y-218815D01*
X103315Y-217549D01*
X104000Y-215895D01*
Y-214826D01*
X106817Y-212008D01*
X131695D01*
X132451Y-212765D01*
D02*
G37*
G36*
X-7042Y-235602D02*
X-33458Y-235602D01*
X-33458Y-212748D01*
X-7042D01*
Y-235602D01*
D02*
G37*
G36*
X32750Y-228929D02*
X31895Y-229500D01*
X30105D01*
X28451Y-230185D01*
X27185Y-231451D01*
X26500Y-233105D01*
Y-234895D01*
X27185Y-236549D01*
X28451Y-237815D01*
X30105Y-238500D01*
X31895D01*
X32750Y-239071D01*
Y-249371D01*
X32702Y-249399D01*
X31399Y-250702D01*
X30477Y-252298D01*
X30000Y-254078D01*
Y-255922D01*
X30477Y-257702D01*
X31399Y-259298D01*
X32702Y-260601D01*
X32750Y-260629D01*
Y-268374D01*
X-35053D01*
Y-250417D01*
X-34185Y-249549D01*
X-33500Y-247895D01*
Y-246105D01*
X-34185Y-244451D01*
X-35053Y-243583D01*
Y-238469D01*
X-34858Y-238234D01*
X-33783Y-237577D01*
X-33458Y-237641D01*
X-7042Y-237641D01*
X-6262Y-237486D01*
X-5600Y-237044D01*
X-5158Y-236382D01*
X-5003Y-235602D01*
Y-225374D01*
X32750D01*
Y-228929D01*
D02*
G37*
G36*
X-427086Y-149399D02*
X-425399Y-151087D01*
X-424853Y-151313D01*
Y-152687D01*
X-425399Y-152913D01*
X-427086Y-154601D01*
X-428000Y-156806D01*
Y-159193D01*
X-427086Y-161399D01*
X-425399Y-163086D01*
X-423194Y-164000D01*
X-423063D01*
Y-346941D01*
X-646941D01*
Y-147500D01*
X-427873D01*
X-427086Y-149399D01*
D02*
G37*
%LPC*%
G36*
X-588495Y311430D02*
X-588730D01*
Y301270D01*
X-578570D01*
Y301505D01*
X-579349Y304412D01*
X-580854Y307018D01*
X-582982Y309146D01*
X-585588Y310651D01*
X-588495Y311430D01*
D02*
G37*
G36*
X-591270D02*
X-591505D01*
X-594412Y310651D01*
X-597018Y309146D01*
X-599146Y307018D01*
X-600651Y304412D01*
X-601430Y301505D01*
Y301270D01*
X-591270D01*
Y311430D01*
D02*
G37*
G36*
X-548566Y310890D02*
X-551434D01*
X-554203Y310148D01*
X-556687Y308714D01*
X-558714Y306687D01*
X-560148Y304203D01*
X-560890Y301434D01*
Y298566D01*
X-560148Y295797D01*
X-558714Y293313D01*
X-556687Y291286D01*
X-554203Y289852D01*
X-551434Y289110D01*
X-548566D01*
X-545797Y289852D01*
X-543313Y291286D01*
X-541286Y293313D01*
X-539852Y295797D01*
X-539545Y296941D01*
X-520000D01*
Y287540D01*
X-520540D01*
Y282020D01*
X-507460D01*
Y287540D01*
X-508000D01*
Y296941D01*
X-503000D01*
Y291500D01*
X-472000D01*
Y304500D01*
X-503000D01*
Y303059D01*
X-539545D01*
X-539852Y304203D01*
X-541286Y306687D01*
X-543313Y308714D01*
X-545797Y310148D01*
X-548566Y310890D01*
D02*
G37*
G36*
X-578570Y298730D02*
X-588730D01*
Y288570D01*
X-588495D01*
X-585588Y289349D01*
X-582982Y290854D01*
X-580854Y292982D01*
X-579349Y295588D01*
X-578570Y298495D01*
Y298730D01*
D02*
G37*
G36*
X-591270D02*
X-601430D01*
Y298495D01*
X-600651Y295588D01*
X-599146Y292982D01*
X-597018Y290854D01*
X-594412Y289349D01*
X-591505Y288570D01*
X-591270D01*
Y298730D01*
D02*
G37*
G36*
X-471460Y282040D02*
X-486230D01*
Y276270D01*
X-471460D01*
Y282040D01*
D02*
G37*
G36*
X-488770D02*
X-503540D01*
Y276270D01*
X-488770D01*
Y282040D01*
D02*
G37*
G36*
X-429770Y294040D02*
X-444540D01*
Y276270D01*
X-429770D01*
Y294040D01*
D02*
G37*
G36*
X-507460Y279480D02*
X-512730D01*
Y273960D01*
X-507460D01*
Y279480D01*
D02*
G37*
G36*
X-515270D02*
X-520540D01*
Y273960D01*
X-515270D01*
Y279480D01*
D02*
G37*
G36*
X-471460Y273730D02*
X-486230D01*
Y267960D01*
X-471460D01*
Y273730D01*
D02*
G37*
G36*
X-488770D02*
X-503540D01*
Y267960D01*
X-488770D01*
Y273730D01*
D02*
G37*
G36*
X-429770Y273730D02*
X-444540D01*
Y255960D01*
X-429770D01*
Y273730D01*
D02*
G37*
G36*
X-469460Y207040D02*
X-474730D01*
Y201520D01*
X-469460D01*
Y207040D01*
D02*
G37*
G36*
X-477270D02*
X-482540D01*
Y201520D01*
X-477270D01*
Y207040D01*
D02*
G37*
G36*
X-484460Y206730D02*
X-493730D01*
Y197710D01*
X-484460D01*
Y206730D01*
D02*
G37*
G36*
X-496270D02*
X-505540D01*
Y197710D01*
X-496270D01*
Y206730D01*
D02*
G37*
G36*
X-472000Y258500D02*
X-503000D01*
Y245500D01*
X-490559D01*
Y238479D01*
X-490559Y238479D01*
X-490559Y238479D01*
Y237250D01*
X-505000D01*
Y218290D01*
X-505540D01*
Y209270D01*
X-484460D01*
Y218290D01*
X-485000D01*
Y229994D01*
X-483827Y230480D01*
X-458184Y204837D01*
X-457191Y204174D01*
X-456021Y203941D01*
X-456021Y203941D01*
X-451533D01*
X-451319Y203140D01*
X-450002Y200860D01*
X-448140Y198998D01*
X-445860Y197682D01*
X-445770Y197657D01*
Y196343D01*
X-445860Y196318D01*
X-448140Y195002D01*
X-450002Y193140D01*
X-451319Y190860D01*
X-451533Y190059D01*
X-459486D01*
X-459486Y190059D01*
X-460656Y189826D01*
X-461649Y189163D01*
X-461649Y189163D01*
X-468730Y182082D01*
X-470000Y182608D01*
Y193460D01*
X-469460D01*
Y198980D01*
X-476000D01*
X-482540D01*
Y193460D01*
X-482000D01*
Y181500D01*
X-482871Y180591D01*
X-483392Y180487D01*
X-484950Y179446D01*
X-485991Y177888D01*
X-486357Y176050D01*
X-485991Y174212D01*
X-484950Y172654D01*
X-483392Y171613D01*
X-481554Y171247D01*
X-470436D01*
X-468598Y171613D01*
X-467040Y172654D01*
X-465998Y174212D01*
X-465633Y176050D01*
X-465712Y176448D01*
X-458219Y183941D01*
X-451533D01*
X-451319Y183140D01*
X-450002Y180860D01*
X-448140Y178998D01*
X-445860Y177682D01*
X-445770Y177657D01*
Y176343D01*
X-445860Y176318D01*
X-448140Y175002D01*
X-450002Y173140D01*
X-451319Y170860D01*
X-451533Y170059D01*
X-466010D01*
X-466010Y170059D01*
X-467180Y169826D01*
X-468173Y169163D01*
X-469390Y167945D01*
X-470436Y168153D01*
X-481554D01*
X-483392Y167787D01*
X-484950Y166746D01*
X-485991Y165188D01*
X-486357Y163350D01*
X-485991Y161512D01*
X-484950Y159954D01*
X-483392Y158913D01*
X-481554Y158547D01*
X-470436D01*
X-468598Y158913D01*
X-467040Y159954D01*
X-465998Y161512D01*
X-465707Y162977D01*
X-464743Y163941D01*
X-451533D01*
X-451319Y163140D01*
X-450002Y160860D01*
X-448140Y158998D01*
X-445860Y157682D01*
X-445770Y157657D01*
Y156343D01*
X-445860Y156319D01*
X-448140Y155002D01*
X-450002Y153140D01*
X-451319Y150860D01*
X-451533Y150059D01*
X-464743D01*
X-465707Y151023D01*
X-465998Y152488D01*
X-467040Y154046D01*
X-468598Y155087D01*
X-470436Y155453D01*
X-481554D01*
X-483392Y155087D01*
X-484950Y154046D01*
X-485991Y152488D01*
X-486357Y150650D01*
X-485991Y148812D01*
X-484950Y147254D01*
X-483392Y146213D01*
X-481554Y145847D01*
X-470436D01*
X-469390Y146055D01*
X-468173Y144837D01*
X-468172Y144837D01*
X-467180Y144174D01*
X-466010Y143941D01*
X-451533D01*
X-451319Y143140D01*
X-450002Y140860D01*
X-448140Y138998D01*
X-446439Y138016D01*
X-446371Y137797D01*
X-446486Y136580D01*
X-448472Y135434D01*
X-450434Y133472D01*
X-451822Y131068D01*
X-452540Y128388D01*
Y128270D01*
X-442000D01*
X-431460D01*
Y128388D01*
X-432178Y131068D01*
X-433566Y133472D01*
X-435528Y135434D01*
X-437514Y136580D01*
X-437629Y137797D01*
X-437561Y138016D01*
X-435860Y138998D01*
X-433998Y140860D01*
X-432682Y143140D01*
X-432000Y145683D01*
Y148316D01*
X-432682Y150860D01*
X-433998Y153140D01*
X-435860Y155002D01*
X-438140Y156319D01*
X-438230Y156343D01*
Y157657D01*
X-438140Y157682D01*
X-435860Y158998D01*
X-433998Y160860D01*
X-432682Y163140D01*
X-432000Y165683D01*
Y168316D01*
X-432682Y170860D01*
X-433998Y173140D01*
X-435860Y175002D01*
X-438140Y176318D01*
X-438230Y176343D01*
Y177657D01*
X-438140Y177682D01*
X-435860Y178998D01*
X-433998Y180860D01*
X-432682Y183140D01*
X-432000Y185683D01*
Y188316D01*
X-432682Y190860D01*
X-433998Y193140D01*
X-435860Y195002D01*
X-438140Y196318D01*
X-438230Y196343D01*
Y197657D01*
X-438140Y197682D01*
X-435860Y198998D01*
X-433998Y200860D01*
X-432682Y203140D01*
X-432000Y205683D01*
Y208316D01*
X-432682Y210860D01*
X-433998Y213140D01*
X-435860Y215002D01*
X-438140Y216318D01*
X-440684Y217000D01*
X-443316D01*
X-445860Y216318D01*
X-448140Y215002D01*
X-450002Y213140D01*
X-451319Y210860D01*
X-451533Y210059D01*
X-454754D01*
X-458011Y213316D01*
X-457529Y214630D01*
X-456105Y215011D01*
X-454395Y215998D01*
X-452999Y217395D01*
X-452011Y219105D01*
X-451500Y221013D01*
Y222987D01*
X-452011Y224895D01*
X-452999Y226605D01*
X-454395Y228001D01*
X-456105Y228989D01*
X-458013Y229500D01*
X-459987D01*
X-461895Y228989D01*
X-463605Y228001D01*
X-465001Y226605D01*
X-465989Y224895D01*
X-466370Y223471D01*
X-467684Y222989D01*
X-484441Y239746D01*
Y245500D01*
X-472000D01*
Y258500D01*
D02*
G37*
G36*
X-470436Y143303D02*
X-474725D01*
Y139220D01*
X-465335D01*
X-465490Y139999D01*
X-466650Y141735D01*
X-468387Y142896D01*
X-470436Y143303D01*
D02*
G37*
G36*
X-477265D02*
X-481554D01*
X-483602Y142896D01*
X-485339Y141735D01*
X-486500Y139999D01*
X-486655Y139220D01*
X-477265D01*
Y143303D01*
D02*
G37*
G36*
X-465335Y136680D02*
X-474725D01*
Y132597D01*
X-470436D01*
X-468387Y133004D01*
X-466650Y134164D01*
X-465490Y135901D01*
X-465335Y136680D01*
D02*
G37*
G36*
X-477265D02*
X-486655D01*
X-486500Y135901D01*
X-485339Y134164D01*
X-483602Y133004D01*
X-481554Y132597D01*
X-477265D01*
Y136680D01*
D02*
G37*
G36*
X-431460Y125730D02*
X-442000D01*
X-452540D01*
Y125612D01*
X-451822Y122932D01*
X-450434Y120528D01*
X-448472Y118566D01*
X-447029Y117733D01*
Y116267D01*
X-448472Y115434D01*
X-450434Y113472D01*
X-451822Y111068D01*
X-452540Y108388D01*
Y108270D01*
X-442000D01*
X-431460D01*
Y108388D01*
X-432178Y111068D01*
X-433566Y113472D01*
X-435528Y115434D01*
X-436970Y116267D01*
Y117733D01*
X-435528Y118566D01*
X-433566Y120528D01*
X-432178Y122932D01*
X-431460Y125612D01*
Y125730D01*
D02*
G37*
G36*
Y105730D02*
X-440730D01*
Y96460D01*
X-440612D01*
X-437932Y97178D01*
X-435528Y98566D01*
X-433566Y100528D01*
X-432178Y102932D01*
X-431460Y105612D01*
Y105730D01*
D02*
G37*
G36*
X-443270D02*
X-452540D01*
Y105612D01*
X-451822Y102932D01*
X-450434Y100528D01*
X-448472Y98566D01*
X-446068Y97178D01*
X-443388Y96460D01*
X-443270D01*
Y105730D01*
D02*
G37*
G36*
X51270Y261929D02*
Y258270D01*
X54929D01*
X54273Y259855D01*
X52855Y261273D01*
X51270Y261929D01*
D02*
G37*
G36*
X54929Y255730D02*
X51270D01*
Y252071D01*
X52855Y252727D01*
X54273Y254145D01*
X54929Y255730D01*
D02*
G37*
G36*
X23774Y251090D02*
X16726D01*
Y250400D01*
X15006D01*
X13168Y249639D01*
X11761Y248232D01*
X11000Y246395D01*
Y244405D01*
X11761Y242568D01*
X13168Y241161D01*
X15006Y240400D01*
X16726D01*
Y238962D01*
X23774D01*
Y251090D01*
D02*
G37*
G36*
X-96226Y205690D02*
X-103274D01*
Y205000D01*
X-104995D01*
X-106832Y204239D01*
X-108239Y202832D01*
X-109000Y200995D01*
Y199005D01*
X-108239Y197168D01*
X-106832Y195761D01*
X-104995Y195000D01*
X-103274D01*
Y193562D01*
X-96226D01*
Y205690D01*
D02*
G37*
G36*
X-20460Y194540D02*
X-26230D01*
Y189270D01*
X-20460D01*
Y194540D01*
D02*
G37*
G36*
X-586Y202040D02*
X-1230D01*
Y188770D01*
X12040D01*
Y189414D01*
X11049Y193112D01*
X9135Y196428D01*
X6428Y199135D01*
X3112Y201049D01*
X-586Y202040D01*
D02*
G37*
G36*
X-3770D02*
X-4414D01*
X-8112Y201049D01*
X-11428Y199135D01*
X-14135Y196428D01*
X-16049Y193112D01*
X-17040Y189414D01*
Y188770D01*
X-3770D01*
Y202040D01*
D02*
G37*
G36*
X-41270Y187480D02*
X-46540D01*
Y181960D01*
X-41270D01*
Y187480D01*
D02*
G37*
G36*
X12040Y186230D02*
X-1230D01*
Y172960D01*
X-586D01*
X3112Y173951D01*
X6428Y175865D01*
X9135Y178572D01*
X11049Y181888D01*
X12040Y185586D01*
Y186230D01*
D02*
G37*
G36*
X-23960Y156230D02*
X-29230D01*
Y150460D01*
X-23960D01*
Y156230D01*
D02*
G37*
G36*
X-31770D02*
X-37040D01*
Y150460D01*
X-31770D01*
Y156230D01*
D02*
G37*
G36*
X-6270Y156764D02*
X-6651D01*
X-9890Y156120D01*
X-12941Y154856D01*
X-15686Y153021D01*
X-18021Y150686D01*
X-19856Y147941D01*
X-21120Y144890D01*
X-21764Y141651D01*
Y141270D01*
X-6270D01*
Y156764D01*
D02*
G37*
G36*
X-64105Y141500D02*
X-65895D01*
X-67549Y140815D01*
X-68815Y139549D01*
X-69500Y137895D01*
Y136105D01*
X-68815Y134451D01*
X-67549Y133185D01*
X-65895Y132500D01*
X-64105D01*
X-62451Y133185D01*
X-61185Y134451D01*
X-60500Y136105D01*
Y137895D01*
X-61185Y139549D01*
X-62451Y140815D01*
X-64105Y141500D01*
D02*
G37*
G36*
X-59105Y92500D02*
X-60895D01*
X-62549Y91815D01*
X-63815Y90549D01*
X-64500Y88895D01*
Y87105D01*
X-63815Y85451D01*
X-62549Y84185D01*
X-60895Y83500D01*
X-59105D01*
X-57451Y84185D01*
X-56185Y85451D01*
X-55500Y87105D01*
Y88895D01*
X-56185Y90549D01*
X-57451Y91815D01*
X-59105Y92500D01*
D02*
G37*
G36*
X94895Y157500D02*
X93105D01*
X91451Y156815D01*
X90185Y155549D01*
X89500Y153895D01*
Y152105D01*
X90185Y150451D01*
X91451Y149185D01*
X93105Y148500D01*
X94895D01*
X96549Y149185D01*
X97815Y150451D01*
X98500Y152105D01*
Y153895D01*
X97815Y155549D01*
X96549Y156815D01*
X94895Y157500D01*
D02*
G37*
G36*
X88540Y138230D02*
X81270D01*
Y134460D01*
X88540D01*
Y138230D01*
D02*
G37*
G36*
X78730D02*
X71460D01*
Y134460D01*
X78730D01*
Y138230D01*
D02*
G37*
G36*
X204000Y136590D02*
X198145Y136590D01*
Y130270D01*
X206590D01*
Y134000D01*
X206540Y134250D01*
Y136540D01*
X204251D01*
X204000Y136590D01*
D02*
G37*
G36*
X70480Y129540D02*
X64960D01*
Y124270D01*
X70480D01*
Y129540D01*
D02*
G37*
G36*
X206590Y127730D02*
X198145D01*
Y121410D01*
X204000D01*
X204250Y121460D01*
X206540D01*
Y123750D01*
X206590Y124000D01*
Y127730D01*
D02*
G37*
G36*
X70480Y121730D02*
X64960D01*
Y116460D01*
X70480D01*
Y121730D01*
D02*
G37*
G36*
X59895Y87500D02*
X58105D01*
X56451Y86815D01*
X55185Y85549D01*
X54500Y83895D01*
Y82105D01*
X55185Y80451D01*
X56451Y79185D01*
X58105Y78500D01*
X59895D01*
X61549Y79185D01*
X62815Y80451D01*
X63500Y82105D01*
Y83895D01*
X62815Y85549D01*
X61549Y86815D01*
X59895Y87500D01*
D02*
G37*
G36*
X-574460Y209040D02*
X-579730D01*
Y203520D01*
X-574460D01*
Y209040D01*
D02*
G37*
G36*
X-582270D02*
X-587540D01*
Y203520D01*
X-582270D01*
Y209040D01*
D02*
G37*
G36*
X-574460Y200980D02*
X-581000D01*
X-587540D01*
Y195460D01*
X-587000D01*
Y184765D01*
X-587000Y184595D01*
X-588194Y183424D01*
X-588616Y183427D01*
X-593351Y188163D01*
X-594344Y188826D01*
X-595514Y189059D01*
X-595514Y189059D01*
X-614467D01*
X-614682Y189860D01*
X-615998Y192140D01*
X-617860Y194002D01*
X-620140Y195319D01*
X-622683Y196000D01*
X-625317D01*
X-627860Y195319D01*
X-630140Y194002D01*
X-632002Y192140D01*
X-633318Y189860D01*
X-634000Y187316D01*
Y184683D01*
X-633318Y182140D01*
X-632002Y179860D01*
X-630140Y177998D01*
X-627860Y176681D01*
X-627770Y176657D01*
Y175343D01*
X-627860Y175319D01*
X-630140Y174002D01*
X-632002Y172140D01*
X-633318Y169860D01*
X-634000Y167316D01*
Y164683D01*
X-633318Y162140D01*
X-632002Y159860D01*
X-630140Y157998D01*
X-627860Y156681D01*
X-627770Y156657D01*
Y155343D01*
X-627860Y155318D01*
X-630140Y154002D01*
X-632002Y152140D01*
X-633318Y149860D01*
X-634000Y147317D01*
Y144684D01*
X-633318Y142140D01*
X-632002Y139860D01*
X-630140Y137998D01*
X-628439Y137016D01*
X-628371Y136797D01*
X-628486Y135581D01*
X-630472Y134434D01*
X-632434Y132472D01*
X-633822Y130068D01*
X-634540Y127388D01*
Y127270D01*
X-624000D01*
X-613460D01*
Y127388D01*
X-614178Y130068D01*
X-615566Y132472D01*
X-617528Y134434D01*
X-619514Y135581D01*
X-619629Y136797D01*
X-619561Y137016D01*
X-617860Y137998D01*
X-615998Y139860D01*
X-614682Y142140D01*
X-614000Y144684D01*
Y147317D01*
X-614682Y149860D01*
X-615998Y152140D01*
X-617860Y154002D01*
X-620140Y155318D01*
X-620230Y155343D01*
Y156657D01*
X-620140Y156681D01*
X-617860Y157998D01*
X-615998Y159860D01*
X-614682Y162140D01*
X-614000Y164683D01*
Y167316D01*
X-614682Y169860D01*
X-615998Y172140D01*
X-617860Y174002D01*
X-620140Y175319D01*
X-620230Y175343D01*
Y176657D01*
X-620140Y176681D01*
X-617860Y177998D01*
X-615998Y179860D01*
X-614682Y182140D01*
X-614467Y182941D01*
X-596781D01*
X-590275Y176435D01*
Y171339D01*
X-569736D01*
Y180761D01*
X-576946D01*
Y183500D01*
X-575000D01*
Y195460D01*
X-574460D01*
Y200980D01*
D02*
G37*
G36*
X-585605Y169500D02*
X-587395D01*
X-589049Y168815D01*
X-590315Y167549D01*
X-591000Y165895D01*
Y164105D01*
X-590315Y162451D01*
X-590157Y162293D01*
X-590001Y161512D01*
X-588960Y159954D01*
X-587402Y158913D01*
X-585564Y158547D01*
X-574446D01*
X-572608Y158913D01*
X-571050Y159954D01*
X-570009Y161512D01*
X-569643Y163350D01*
X-570009Y165188D01*
X-571050Y166746D01*
X-572608Y167787D01*
X-574446Y168153D01*
X-583289D01*
X-583951Y168815D01*
X-585605Y169500D01*
D02*
G37*
G36*
X-578735Y143303D02*
Y139220D01*
X-569345D01*
X-569500Y139999D01*
X-570661Y141735D01*
X-572397Y142896D01*
X-574446Y143303D01*
X-578735D01*
D02*
G37*
G36*
X-574446Y155453D02*
X-585564D01*
X-587402Y155087D01*
X-588960Y154046D01*
X-590001Y152488D01*
X-590157Y151707D01*
X-590315Y151549D01*
X-591000Y149895D01*
Y148105D01*
X-590315Y146451D01*
X-589049Y145185D01*
X-587395Y144500D01*
X-586059Y144500D01*
X-585934Y143230D01*
X-587613Y142896D01*
X-589350Y141735D01*
X-590510Y139999D01*
X-590665Y139220D01*
X-581275D01*
Y143303D01*
X-584685D01*
X-585427Y143304D01*
X-585605Y144500D01*
X-584887Y144797D01*
X-583951Y145185D01*
X-583289Y145847D01*
X-574446D01*
X-572608Y146213D01*
X-571050Y147254D01*
X-570009Y148812D01*
X-569643Y150650D01*
X-570009Y152488D01*
X-571050Y154046D01*
X-572608Y155087D01*
X-574446Y155453D01*
D02*
G37*
G36*
X-569345Y136680D02*
X-578735D01*
Y132597D01*
X-574446D01*
X-572397Y133004D01*
X-570661Y134164D01*
X-569500Y135901D01*
X-569345Y136680D01*
D02*
G37*
G36*
X-581275D02*
X-590665D01*
X-590510Y135901D01*
X-589350Y134164D01*
X-587613Y133004D01*
X-585564Y132597D01*
X-581275D01*
Y136680D01*
D02*
G37*
G36*
X-613460Y124730D02*
X-622730D01*
Y115460D01*
X-622612D01*
X-619932Y116178D01*
X-617528Y117566D01*
X-615566Y119528D01*
X-614178Y121932D01*
X-613460Y124612D01*
Y124730D01*
D02*
G37*
G36*
X-625270D02*
X-634540D01*
Y124612D01*
X-633822Y121932D01*
X-632434Y119528D01*
X-630472Y117566D01*
X-628068Y116178D01*
X-625388Y115460D01*
X-625270D01*
Y124730D01*
D02*
G37*
G36*
X-124000Y171500D02*
X-136000D01*
Y168059D01*
X-137695D01*
X-138451Y168815D01*
X-140105Y169500D01*
X-141895D01*
X-143549Y168815D01*
X-144305Y168059D01*
X-148000D01*
X-149171Y167826D01*
X-150163Y167163D01*
X-150826Y166171D01*
X-151059Y165000D01*
Y162600D01*
X-154000D01*
X-154000Y162100D01*
X-166000D01*
Y150140D01*
X-166540D01*
Y144620D01*
X-160000D01*
Y143350D01*
X-158730D01*
Y136560D01*
X-154540D01*
Y136060D01*
X-148770D01*
Y142600D01*
Y149140D01*
X-152562D01*
X-152568Y149146D01*
X-152627Y149432D01*
X-151569Y150600D01*
X-141000D01*
Y151997D01*
X-139730Y152846D01*
X-138895Y152500D01*
X-137105D01*
X-135451Y153185D01*
X-134185Y154451D01*
X-133500Y156105D01*
Y157895D01*
X-133096Y158500D01*
X-124000D01*
Y171500D01*
D02*
G37*
G36*
X-158105Y174500D02*
X-159895D01*
X-161549Y173815D01*
X-162815Y172549D01*
X-163500Y170895D01*
Y169105D01*
X-162815Y167451D01*
X-161549Y166185D01*
X-159895Y165500D01*
X-158105D01*
X-156451Y166185D01*
X-155185Y167451D01*
X-154500Y169105D01*
Y170895D01*
X-155185Y172549D01*
X-156451Y173815D01*
X-158105Y174500D01*
D02*
G37*
G36*
X-178108Y181096D02*
X-191204Y168000D01*
X-183765Y160561D01*
X-170670Y173657D01*
X-178108Y181096D01*
D02*
G37*
G36*
X-193000Y166204D02*
X-206096Y153108D01*
X-198657Y145670D01*
X-185561Y158765D01*
X-193000Y166204D01*
D02*
G37*
G36*
X-140460Y149140D02*
X-146230D01*
Y143870D01*
X-140460D01*
Y149140D01*
D02*
G37*
G36*
X-120586Y156640D02*
X-121230D01*
Y143370D01*
X-107960D01*
Y144014D01*
X-108951Y147712D01*
X-110865Y151028D01*
X-113572Y153735D01*
X-116888Y155649D01*
X-120586Y156640D01*
D02*
G37*
G36*
X-123770D02*
X-124414D01*
X-128112Y155649D01*
X-131428Y153735D01*
X-134135Y151028D01*
X-136049Y147712D01*
X-137040Y144014D01*
Y143370D01*
X-123770D01*
Y156640D01*
D02*
G37*
G36*
X-161270Y142080D02*
X-166540D01*
Y136560D01*
X-161270D01*
Y142080D01*
D02*
G37*
G36*
X-140460Y141330D02*
X-146230D01*
Y136060D01*
X-140460D01*
Y141330D01*
D02*
G37*
G36*
X-107960Y140830D02*
X-121230D01*
Y127560D01*
X-120586D01*
X-116888Y128551D01*
X-113572Y130465D01*
X-110865Y133172D01*
X-108951Y136488D01*
X-107960Y140186D01*
Y140830D01*
D02*
G37*
G36*
X-123770D02*
X-137040D01*
Y140186D01*
X-136049Y136488D01*
X-134135Y133172D01*
X-131428Y130465D01*
X-128112Y128551D01*
X-124414Y127560D01*
X-123770D01*
Y140830D01*
D02*
G37*
G36*
X-144460Y131140D02*
X-149980D01*
Y125870D01*
X-144460D01*
Y131140D01*
D02*
G37*
G36*
X-152520D02*
X-158040D01*
Y130600D01*
X-170000D01*
Y118600D01*
X-170500Y118600D01*
X-170500Y106815D01*
X-170500Y106711D01*
X-170508Y106545D01*
X-170971Y105562D01*
X-171700Y105502D01*
X-171773Y105500D01*
X-171950Y105500D01*
X-188000D01*
X-188000Y105500D01*
Y105500D01*
X-188301Y105710D01*
X-188451Y105815D01*
X-189035Y106057D01*
X-190105Y106500D01*
X-191895D01*
X-193549Y105815D01*
X-194815Y104549D01*
X-195500Y102895D01*
Y101105D01*
X-194815Y99451D01*
X-193549Y98185D01*
X-192313Y97673D01*
X-192313Y96327D01*
X-193549Y95815D01*
X-194815Y94549D01*
X-195500Y92895D01*
Y91105D01*
X-194815Y89451D01*
X-193549Y88185D01*
X-192313Y87673D01*
X-192314Y86327D01*
X-193549Y85815D01*
X-194815Y84549D01*
X-195500Y82895D01*
Y81105D01*
X-194815Y79451D01*
X-193549Y78185D01*
X-192313Y77673D01*
X-192313Y76327D01*
X-193549Y75815D01*
X-194815Y74549D01*
X-195500Y72895D01*
Y71105D01*
X-194815Y69451D01*
X-193549Y68185D01*
X-192313Y67673D01*
Y66327D01*
X-193549Y65815D01*
X-194815Y64549D01*
X-195500Y62895D01*
Y61105D01*
X-194815Y59451D01*
X-193549Y58185D01*
X-191895Y57500D01*
X-190105D01*
X-189596Y57711D01*
X-188540Y57005D01*
Y52960D01*
X-180770D01*
Y57000D01*
X-179500D01*
Y58270D01*
X-170460D01*
Y61040D01*
X-171000D01*
Y62960D01*
X-170460D01*
Y65730D01*
X-179500D01*
Y68270D01*
X-170460D01*
Y71040D01*
X-171000D01*
Y72960D01*
X-170460D01*
Y75730D01*
X-179500D01*
Y78270D01*
X-170460D01*
Y81040D01*
X-171000D01*
Y82960D01*
X-170460D01*
Y85730D01*
X-179500D01*
Y88270D01*
X-170460D01*
Y91040D01*
X-171000D01*
Y92960D01*
X-170460D01*
Y95730D01*
X-179500D01*
Y98270D01*
X-170460D01*
Y101040D01*
X-171000D01*
X-171000Y104285D01*
X-171000Y104389D01*
X-170992Y104555D01*
X-170529Y105538D01*
X-169799Y105598D01*
X-169727Y105600D01*
X-169550Y105600D01*
X-167559D01*
Y51805D01*
X-168815Y50549D01*
X-169500Y48895D01*
Y47105D01*
X-170172Y46100D01*
X-170500D01*
Y33100D01*
X-158500D01*
Y46100D01*
X-159829D01*
X-160500Y47105D01*
Y48895D01*
X-161185Y50549D01*
X-161441Y50805D01*
Y105600D01*
X-158500D01*
Y116169D01*
X-157332Y117227D01*
X-157046Y117168D01*
X-157040Y117162D01*
Y113370D01*
X-150500D01*
X-143960D01*
Y119140D01*
X-144460D01*
Y123330D01*
X-151250D01*
Y124600D01*
X-152520D01*
Y131140D01*
D02*
G37*
G36*
X-199000Y132000D02*
X-225000D01*
Y110000D01*
X-199000D01*
Y132000D01*
D02*
G37*
G36*
X-143960Y110830D02*
X-149230D01*
Y105060D01*
X-143960D01*
Y110830D01*
D02*
G37*
G36*
X-151770D02*
X-157040D01*
Y105060D01*
X-151770D01*
Y110830D01*
D02*
G37*
G36*
X-126270Y111364D02*
X-126651D01*
X-129890Y110720D01*
X-132941Y109456D01*
X-135686Y107621D01*
X-138021Y105286D01*
X-139856Y102541D01*
X-141120Y99490D01*
X-141764Y96251D01*
Y95870D01*
X-126270D01*
Y111364D01*
D02*
G37*
G36*
X-170460Y55730D02*
X-178230D01*
Y52960D01*
X-170460D01*
Y55730D01*
D02*
G37*
G36*
X-199000Y49000D02*
X-225000D01*
Y27000D01*
X-199000D01*
Y49000D01*
D02*
G37*
G36*
X27895Y128900D02*
X26105D01*
X24451Y128215D01*
X23185Y126949D01*
X22500Y125295D01*
Y123505D01*
X23185Y121851D01*
X24451Y120585D01*
X26105Y119900D01*
X27895D01*
X29549Y120585D01*
X30815Y121851D01*
X31500Y123505D01*
Y125295D01*
X30815Y126949D01*
X29549Y128215D01*
X27895Y128900D01*
D02*
G37*
G36*
X-92105Y83500D02*
X-93895D01*
X-95549Y82815D01*
X-96815Y81549D01*
X-97500Y79895D01*
Y78105D01*
X-96815Y76451D01*
X-95549Y75185D01*
X-93895Y74500D01*
X-92105D01*
X-90451Y75185D01*
X-89185Y76451D01*
X-88500Y78105D01*
Y79895D01*
X-89185Y81549D01*
X-90451Y82815D01*
X-92105Y83500D01*
D02*
G37*
G36*
X170290Y53040D02*
X161270D01*
Y43770D01*
X170290D01*
Y53040D01*
D02*
G37*
G36*
X178730Y38480D02*
X173460D01*
Y32960D01*
X178730D01*
Y38480D01*
D02*
G37*
G36*
X170290Y41230D02*
X161270D01*
Y31960D01*
X170290D01*
Y41230D01*
D02*
G37*
G36*
X262290Y43730D02*
X243770D01*
Y33210D01*
X262290D01*
Y43730D01*
D02*
G37*
G36*
X241230D02*
X222710D01*
Y33210D01*
X241230D01*
Y43730D01*
D02*
G37*
G36*
X249730Y10540D02*
X249612D01*
X246932Y9822D01*
X244528Y8434D01*
X242566Y6472D01*
X241733Y5030D01*
X240267D01*
X239434Y6472D01*
X237472Y8434D01*
X235068Y9822D01*
X232388Y10540D01*
X232270D01*
Y0D01*
Y-10540D01*
X232388D01*
X235068Y-9822D01*
X237472Y-8434D01*
X239434Y-6472D01*
X240267Y-5030D01*
X241733D01*
X242566Y-6472D01*
X244528Y-8434D01*
X246932Y-9822D01*
X249612Y-10540D01*
X249730D01*
Y0D01*
Y10540D01*
D02*
G37*
G36*
X252388D02*
X252270D01*
Y1270D01*
X261540D01*
Y1388D01*
X260822Y4068D01*
X259434Y6472D01*
X257472Y8434D01*
X255068Y9822D01*
X252388Y10540D01*
D02*
G37*
G36*
X261540Y-1270D02*
X252270D01*
Y-10540D01*
X252388D01*
X255068Y-9822D01*
X257472Y-8434D01*
X259434Y-6472D01*
X260822Y-4068D01*
X261540Y-1388D01*
Y-1270D01*
D02*
G37*
G36*
X220670Y-23340D02*
Y-32730D01*
X224753D01*
Y-28441D01*
X224346Y-26392D01*
X223186Y-24655D01*
X221449Y-23495D01*
X220670Y-23340D01*
D02*
G37*
G36*
X218130Y-23340D02*
X217351Y-23495D01*
X215614Y-24655D01*
X214454Y-26392D01*
X214046Y-28441D01*
Y-32730D01*
X218130D01*
Y-23340D01*
D02*
G37*
G36*
X224753Y-35270D02*
X220670D01*
Y-44660D01*
X221449Y-44505D01*
X223186Y-43344D01*
X224346Y-41608D01*
X224753Y-39559D01*
Y-35270D01*
D02*
G37*
G36*
X218130D02*
X214046D01*
Y-39559D01*
X214454Y-41608D01*
X215614Y-43344D01*
X217351Y-44505D01*
X218130Y-44660D01*
Y-35270D01*
D02*
G37*
G36*
X-521013Y6500D02*
X-522987D01*
X-524895Y5989D01*
X-526605Y5002D01*
X-528002Y3605D01*
X-528989Y1895D01*
X-529500Y-13D01*
Y-1987D01*
X-528989Y-3895D01*
X-528002Y-5605D01*
X-526605Y-7002D01*
X-524895Y-7989D01*
X-522987Y-8500D01*
X-521013D01*
X-519105Y-7989D01*
X-517395Y-7002D01*
X-515998Y-5605D01*
X-515011Y-3895D01*
X-514500Y-1987D01*
Y-13D01*
X-515011Y1895D01*
X-515998Y3605D01*
X-517395Y5002D01*
X-519105Y5989D01*
X-521013Y6500D01*
D02*
G37*
G36*
X-598270Y-7460D02*
X-598388D01*
X-601068Y-8178D01*
X-603472Y-9566D01*
X-605434Y-11528D01*
X-606822Y-13932D01*
X-607540Y-16612D01*
Y-16730D01*
X-598270D01*
Y-7460D01*
D02*
G37*
G36*
Y-19270D02*
X-607540D01*
Y-19388D01*
X-606822Y-22068D01*
X-605434Y-24472D01*
X-603472Y-26434D01*
X-601068Y-27822D01*
X-598388Y-28540D01*
X-598270D01*
Y-19270D01*
D02*
G37*
G36*
X-457000Y-38500D02*
X-483000D01*
Y-60500D01*
X-457000D01*
Y-38500D01*
D02*
G37*
G36*
X-595612Y-7460D02*
X-595730D01*
Y-18000D01*
Y-28540D01*
X-595612D01*
X-592932Y-27822D01*
X-590528Y-26434D01*
X-588566Y-24472D01*
X-587420Y-22486D01*
X-586203Y-22371D01*
X-585984Y-22439D01*
X-585002Y-24140D01*
X-583140Y-26002D01*
X-580860Y-27318D01*
X-578316Y-28000D01*
X-575684D01*
X-573140Y-27318D01*
X-570860Y-26002D01*
X-568998Y-24140D01*
X-567682Y-21860D01*
X-567657Y-21770D01*
X-566343D01*
X-566319Y-21860D01*
X-565002Y-24140D01*
X-563140Y-26002D01*
X-560860Y-27318D01*
X-558316Y-28000D01*
X-555684D01*
X-553140Y-27318D01*
X-550860Y-26002D01*
X-548998Y-24140D01*
X-547682Y-21860D01*
X-547657Y-21770D01*
X-546343D01*
X-546319Y-21860D01*
X-545002Y-24140D01*
X-543140Y-26002D01*
X-540860Y-27318D01*
X-538316Y-28000D01*
X-535684D01*
X-533140Y-27318D01*
X-532422Y-26904D01*
X-505559Y-53767D01*
Y-65000D01*
X-511000D01*
Y-69460D01*
X-511540D01*
Y-72230D01*
X-502500D01*
X-493460D01*
Y-69460D01*
X-494000D01*
Y-65000D01*
X-499441D01*
Y-52500D01*
X-499441Y-52500D01*
X-499674Y-51329D01*
X-500337Y-50337D01*
X-528096Y-22578D01*
X-527682Y-21860D01*
X-527000Y-19317D01*
Y-16683D01*
X-527682Y-14140D01*
X-528998Y-11860D01*
X-530860Y-9998D01*
X-533140Y-8681D01*
X-535684Y-8000D01*
X-538316D01*
X-540860Y-8681D01*
X-543140Y-9998D01*
X-545002Y-11860D01*
X-546319Y-14140D01*
X-546343Y-14230D01*
X-547657D01*
X-547682Y-14140D01*
X-548998Y-11860D01*
X-550860Y-9998D01*
X-553140Y-8681D01*
X-555684Y-8000D01*
X-558316D01*
X-560860Y-8681D01*
X-563140Y-9998D01*
X-565002Y-11860D01*
X-566319Y-14140D01*
X-566343Y-14230D01*
X-567657D01*
X-567682Y-14140D01*
X-568998Y-11860D01*
X-570860Y-9998D01*
X-573140Y-8681D01*
X-575684Y-8000D01*
X-578316D01*
X-580860Y-8681D01*
X-583140Y-9998D01*
X-585002Y-11860D01*
X-585984Y-13561D01*
X-586203Y-13629D01*
X-587420Y-13514D01*
X-588566Y-11528D01*
X-590528Y-9566D01*
X-592932Y-8178D01*
X-595612Y-7460D01*
D02*
G37*
G36*
X-518105Y-73500D02*
X-519895D01*
X-521549Y-74185D01*
X-522815Y-75451D01*
X-523500Y-77105D01*
Y-78895D01*
X-522815Y-80549D01*
X-521549Y-81815D01*
X-520313Y-82327D01*
Y-83673D01*
X-521549Y-84185D01*
X-522815Y-85451D01*
X-523500Y-87105D01*
Y-88895D01*
X-522815Y-90549D01*
X-521549Y-91815D01*
X-519895Y-92500D01*
X-518105D01*
X-516451Y-91815D01*
X-515945Y-91309D01*
X-511540D01*
Y-92230D01*
X-502500D01*
X-493460D01*
Y-89460D01*
X-494000D01*
Y-87540D01*
X-493460D01*
Y-84770D01*
X-502500D01*
Y-82230D01*
X-493460D01*
Y-79460D01*
X-494000D01*
Y-77540D01*
X-493460D01*
Y-74770D01*
X-502500D01*
X-511540D01*
Y-75191D01*
X-515445D01*
X-516451Y-74185D01*
X-518105Y-73500D01*
D02*
G37*
G36*
X-540000Y-57000D02*
X-558000D01*
Y-71000D01*
X-552059D01*
X-551826Y-72171D01*
X-551163Y-73163D01*
X-523663Y-100663D01*
X-522671Y-101326D01*
X-521500Y-101559D01*
X-521500Y-101559D01*
X-511540D01*
Y-102230D01*
X-502500D01*
X-493460D01*
Y-99460D01*
X-494000D01*
Y-97540D01*
X-493460D01*
Y-94770D01*
X-502500D01*
X-511540D01*
Y-95441D01*
X-520233D01*
X-543501Y-72173D01*
X-543015Y-71000D01*
X-540000D01*
Y-57000D01*
D02*
G37*
G36*
X-585000D02*
X-603000D01*
Y-71000D01*
X-597059D01*
Y-80000D01*
X-597059Y-80000D01*
X-596826Y-81171D01*
X-596163Y-82163D01*
X-567663Y-110663D01*
X-566670Y-111326D01*
X-565500Y-111559D01*
X-511540D01*
Y-112230D01*
X-502500D01*
X-493460D01*
Y-109460D01*
X-494000D01*
Y-107540D01*
X-493460D01*
Y-104770D01*
X-502500D01*
X-511540D01*
Y-105441D01*
X-564233D01*
X-590941Y-78733D01*
Y-71000D01*
X-585000D01*
Y-57000D01*
D02*
G37*
G36*
X-493460Y-114770D02*
X-501230D01*
Y-117540D01*
X-493460D01*
Y-114770D01*
D02*
G37*
G36*
X-503770D02*
X-511540D01*
Y-117540D01*
X-503770D01*
Y-114770D01*
D02*
G37*
G36*
X-584460Y-126460D02*
X-592730D01*
Y-132730D01*
X-584460D01*
Y-126460D01*
D02*
G37*
G36*
X-595270D02*
X-603540D01*
Y-132730D01*
X-595270D01*
Y-126460D01*
D02*
G37*
G36*
X-539460D02*
X-547730D01*
Y-132730D01*
X-539460D01*
Y-126460D01*
D02*
G37*
G36*
X-550270D02*
X-558540D01*
Y-132730D01*
X-550270D01*
Y-126460D01*
D02*
G37*
G36*
X-539460Y-135270D02*
X-547730D01*
Y-141540D01*
X-539460D01*
Y-135270D01*
D02*
G37*
G36*
X-550270D02*
X-558540D01*
Y-141540D01*
X-550270D01*
Y-135270D01*
D02*
G37*
G36*
X-584460Y-135270D02*
X-592730D01*
Y-141540D01*
X-584460D01*
Y-135270D01*
D02*
G37*
G36*
X-595270D02*
X-603540D01*
Y-141540D01*
X-595270D01*
Y-135270D01*
D02*
G37*
G36*
X-457000Y-121500D02*
X-483000D01*
Y-143500D01*
X-457000D01*
Y-121500D01*
D02*
G37*
G36*
X325000Y635591D02*
X322259Y635230D01*
X319705Y634172D01*
X317511Y632489D01*
X315828Y630295D01*
X314770Y627741D01*
X314409Y625000D01*
X314770Y622259D01*
X315828Y619705D01*
X317511Y617511D01*
X319705Y615828D01*
X322259Y614770D01*
X325000Y614409D01*
X327741Y614770D01*
X330295Y615828D01*
X332489Y617511D01*
X334172Y619705D01*
X335230Y622259D01*
X335591Y625000D01*
X335230Y627741D01*
X334172Y630295D01*
X332489Y632489D01*
X330295Y634172D01*
X327741Y635230D01*
X325000Y635591D01*
D02*
G37*
G36*
X-625000D02*
X-627741Y635230D01*
X-630295Y634172D01*
X-632489Y632489D01*
X-634172Y630295D01*
X-635230Y627741D01*
X-635591Y625000D01*
X-635230Y622259D01*
X-634172Y619705D01*
X-632489Y617511D01*
X-630295Y615828D01*
X-627741Y614770D01*
X-625000Y614409D01*
X-622259Y614770D01*
X-619705Y615828D01*
X-617511Y617511D01*
X-615828Y619705D01*
X-614770Y622259D01*
X-614409Y625000D01*
X-614770Y627741D01*
X-615828Y630295D01*
X-617511Y632489D01*
X-619705Y634172D01*
X-622259Y635230D01*
X-625000Y635591D01*
D02*
G37*
G36*
X-85015Y594063D02*
X-263298D01*
X-263447Y594033D01*
X-263598Y594048D01*
X-267574Y593656D01*
X-267719Y593612D01*
X-267871D01*
X-271789Y592833D01*
X-271929Y592775D01*
X-272080Y592760D01*
X-275904Y591600D01*
X-276038Y591528D01*
X-276186Y591499D01*
X-279878Y589970D01*
X-280004Y589886D01*
X-280149Y589841D01*
X-283673Y587958D01*
X-283790Y587862D01*
X-283930Y587804D01*
X-287252Y585584D01*
X-287360Y585477D01*
X-287493Y585405D01*
X-290582Y582871D01*
X-290678Y582753D01*
X-290804Y582669D01*
X-292217Y581256D01*
X-292217Y581256D01*
X-292217Y581256D01*
X-403256Y470217D01*
X-404669Y468804D01*
X-404753Y468678D01*
X-404871Y468582D01*
X-407405Y465493D01*
X-407477Y465360D01*
X-407584Y465252D01*
X-409804Y461930D01*
X-409862Y461790D01*
X-409958Y461673D01*
X-411842Y458149D01*
X-411886Y458004D01*
X-411970Y457878D01*
X-413499Y454186D01*
X-413529Y454038D01*
X-413600Y453904D01*
X-414760Y450080D01*
X-414775Y449929D01*
X-414833Y449789D01*
X-415612Y445871D01*
Y445719D01*
X-415656Y445574D01*
X-416048Y441598D01*
X-416033Y441446D01*
X-416063Y441298D01*
Y427702D01*
X-416033Y427553D01*
X-416048Y427402D01*
X-415656Y423426D01*
X-415612Y423281D01*
Y423129D01*
X-414833Y419211D01*
X-414775Y419071D01*
X-414760Y418919D01*
X-413600Y415096D01*
X-413529Y414962D01*
X-413499Y414813D01*
X-411970Y411122D01*
X-411886Y410996D01*
X-411842Y410851D01*
X-409958Y407327D01*
X-409862Y407210D01*
X-409804Y407070D01*
X-407584Y403748D01*
X-407477Y403640D01*
X-407405Y403507D01*
X-404871Y400418D01*
X-404753Y400322D01*
X-404669Y400196D01*
X-403256Y398783D01*
X-323217Y318744D01*
X-321804Y317331D01*
X-321678Y317247D01*
X-321582Y317129D01*
X-318493Y314595D01*
X-318360Y314523D01*
X-318252Y314416D01*
X-314930Y312196D01*
X-314790Y312138D01*
X-314673Y312042D01*
X-311149Y310159D01*
X-311004Y310114D01*
X-310878Y310030D01*
X-307187Y308501D01*
X-307038Y308472D01*
X-306904Y308400D01*
X-303081Y307240D01*
X-302929Y307225D01*
X-302789Y307167D01*
X-298871Y306388D01*
X-298719D01*
X-298574Y306344D01*
X-294598Y305952D01*
X-294447Y305967D01*
X-294298Y305937D01*
X-85015D01*
X-84719Y305996D01*
X-84418D01*
X-82485Y306381D01*
X-82207Y306496D01*
X-81911Y306555D01*
X-80091Y307309D01*
X-79840Y307476D01*
X-79562Y307591D01*
X-77924Y308686D01*
X-77711Y308899D01*
X-77460Y309067D01*
X-76067Y310460D01*
X-75899Y310711D01*
X-75686Y310924D01*
X-74591Y312562D01*
X-74476Y312840D01*
X-74309Y313091D01*
X-73555Y314911D01*
X-73496Y315207D01*
X-73381Y315485D01*
X-72996Y317418D01*
Y317719D01*
X-72937Y318015D01*
Y319985D01*
X-72996Y320281D01*
Y320582D01*
X-73381Y322515D01*
X-73496Y322793D01*
X-73555Y323088D01*
X-74309Y324909D01*
X-74476Y325160D01*
X-74591Y325438D01*
X-75686Y327076D01*
X-75899Y327289D01*
X-76067Y327540D01*
X-77460Y328933D01*
X-77711Y329101D01*
X-77924Y329314D01*
X-79562Y330409D01*
X-79840Y330524D01*
X-80091Y330691D01*
X-81911Y331445D01*
X-82207Y331504D01*
X-82485Y331619D01*
X-84418Y332004D01*
X-84719D01*
X-85015Y332063D01*
X-292225D01*
X-293947Y332147D01*
X-297398Y332833D01*
X-300580Y334149D01*
X-303507Y336102D01*
X-304784Y337257D01*
X-384730Y417203D01*
X-385889Y418483D01*
X-387846Y421411D01*
X-389165Y424596D01*
X-389853Y428051D01*
X-389937Y429775D01*
Y439225D01*
X-389853Y440949D01*
X-389165Y444404D01*
X-387846Y447589D01*
X-385889Y450518D01*
X-384730Y451796D01*
X-273797Y562730D01*
X-272518Y563889D01*
X-269589Y565846D01*
X-266404Y567165D01*
X-262949Y567853D01*
X-261225Y567937D01*
X-85015D01*
X-84719Y567996D01*
X-84418D01*
X-82485Y568381D01*
X-82207Y568496D01*
X-81911Y568555D01*
X-80091Y569309D01*
X-79840Y569476D01*
X-79562Y569591D01*
X-77924Y570686D01*
X-77711Y570899D01*
X-77460Y571067D01*
X-76067Y572460D01*
X-75899Y572711D01*
X-75686Y572924D01*
X-74591Y574562D01*
X-74476Y574840D01*
X-74309Y575091D01*
X-73555Y576911D01*
X-73496Y577207D01*
X-73381Y577485D01*
X-72996Y579418D01*
Y579719D01*
X-72937Y580015D01*
Y581985D01*
X-72996Y582281D01*
Y582582D01*
X-73381Y584515D01*
X-73496Y584793D01*
X-73555Y585089D01*
X-74309Y586909D01*
X-74476Y587160D01*
X-74591Y587438D01*
X-75686Y589076D01*
X-75899Y589289D01*
X-76067Y589540D01*
X-77460Y590933D01*
X-77711Y591101D01*
X-77924Y591314D01*
X-79562Y592408D01*
X-79840Y592524D01*
X-80091Y592691D01*
X-81911Y593445D01*
X-82207Y593504D01*
X-82485Y593619D01*
X-84418Y594004D01*
X-84719D01*
X-85015Y594063D01*
D02*
G37*
G36*
X179292Y519270D02*
X174708D01*
X170212Y518376D01*
X165977Y516622D01*
X162166Y514075D01*
X158925Y510834D01*
X156378Y507023D01*
X154624Y502788D01*
X153730Y498292D01*
Y493708D01*
X154624Y489212D01*
X156378Y484977D01*
X158925Y481166D01*
X162166Y477925D01*
X165977Y475378D01*
X170212Y473624D01*
X174708Y472730D01*
X179292D01*
X183788Y473624D01*
X188022Y475378D01*
X191834Y477925D01*
X195075Y481166D01*
X197622Y484977D01*
X199376Y489212D01*
X200270Y493708D01*
Y498292D01*
X199376Y502788D01*
X197622Y507023D01*
X195075Y510834D01*
X191834Y514075D01*
X188022Y516622D01*
X183788Y518376D01*
X179292Y519270D01*
D02*
G37*
G36*
X183298Y594063D02*
X181000D01*
X-51000Y594063D01*
X-52317D01*
X-52709Y593984D01*
X-53109Y593958D01*
X-55653Y593277D01*
X-56012Y593100D01*
X-56391Y592971D01*
X-58672Y591654D01*
X-58973Y591390D01*
X-59305Y591168D01*
X-61168Y589305D01*
X-61390Y588973D01*
X-61654Y588672D01*
X-62971Y586391D01*
X-63100Y586012D01*
X-63277Y585653D01*
X-63958Y583109D01*
X-63984Y582709D01*
X-64063Y582317D01*
Y579683D01*
X-63984Y579291D01*
X-63958Y578891D01*
X-63277Y576347D01*
X-63100Y575988D01*
X-62971Y575609D01*
X-61654Y573328D01*
X-61390Y573027D01*
X-61168Y572695D01*
X-59305Y570832D01*
X-58973Y570610D01*
X-58672Y570346D01*
X-56391Y569029D01*
X-56012Y568900D01*
X-55653Y568723D01*
X-53109Y568042D01*
X-52709Y568016D01*
X-52317Y567937D01*
X-51000D01*
X181000Y567937D01*
X181225D01*
X182949Y567853D01*
X186404Y567165D01*
X189589Y565846D01*
X192518Y563889D01*
X193797Y562730D01*
X240730Y515797D01*
X241889Y514518D01*
X243846Y511589D01*
X245166Y508404D01*
X245853Y504949D01*
X245937Y503225D01*
Y470775D01*
X245853Y469051D01*
X245166Y465596D01*
X243846Y462411D01*
X241889Y459482D01*
X240730Y458204D01*
X119796Y337270D01*
X118518Y336111D01*
X115589Y334154D01*
X112404Y332835D01*
X108949Y332147D01*
X107225Y332063D01*
X-51000Y332063D01*
X-52317D01*
X-52709Y331984D01*
X-53109Y331958D01*
X-55653Y331277D01*
X-56012Y331100D01*
X-56391Y330971D01*
X-58672Y329654D01*
X-58973Y329390D01*
X-59305Y329168D01*
X-61168Y327305D01*
X-61390Y326973D01*
X-61654Y326672D01*
X-62971Y324391D01*
X-63100Y324012D01*
X-63277Y323653D01*
X-63958Y321109D01*
X-63984Y320709D01*
X-64063Y320317D01*
Y317683D01*
X-63984Y317291D01*
X-63958Y316891D01*
X-63277Y314347D01*
X-63100Y313988D01*
X-62971Y313609D01*
X-61654Y311328D01*
X-61390Y311027D01*
X-61168Y310695D01*
X-59305Y308832D01*
X-58973Y308610D01*
X-58672Y308346D01*
X-56391Y307029D01*
X-56012Y306900D01*
X-55653Y306723D01*
X-53109Y306042D01*
X-52709Y306015D01*
X-52317Y305937D01*
X-51000D01*
X107300Y305937D01*
X109298D01*
X109446Y305967D01*
X109598Y305952D01*
X113574Y306344D01*
X113719Y306388D01*
X113871D01*
X117789Y307167D01*
X117929Y307225D01*
X118081Y307240D01*
X121904Y308400D01*
X122038Y308472D01*
X122186Y308501D01*
X125878Y310030D01*
X126004Y310114D01*
X126149Y310158D01*
X129673Y312042D01*
X129790Y312138D01*
X129930Y312196D01*
X133252Y314416D01*
X133360Y314523D01*
X133493Y314595D01*
X136582Y317129D01*
X136678Y317247D01*
X136804Y317331D01*
X138217Y318743D01*
X138217Y318744D01*
X138217Y318744D01*
X259256Y439783D01*
X260669Y441196D01*
X260753Y441322D01*
X260870Y441418D01*
X263405Y444507D01*
X263477Y444640D01*
X263584Y444748D01*
X265804Y448070D01*
X265862Y448210D01*
X265958Y448327D01*
X267841Y451851D01*
X267885Y451996D01*
X267970Y452122D01*
X269499Y455813D01*
X269528Y455962D01*
X269600Y456096D01*
X270760Y459920D01*
X270775Y460071D01*
X270833Y460211D01*
X271612Y464129D01*
Y464281D01*
X271656Y464426D01*
X272048Y468402D01*
X272033Y468553D01*
X272063Y468702D01*
Y470700D01*
Y503300D01*
Y505298D01*
X272033Y505447D01*
X272048Y505597D01*
X271656Y509574D01*
X271612Y509719D01*
Y509871D01*
X270833Y513789D01*
X270775Y513929D01*
X270760Y514081D01*
X269600Y517904D01*
X269528Y518038D01*
X269499Y518186D01*
X267970Y521878D01*
X267885Y522004D01*
X267841Y522149D01*
X265958Y525673D01*
X265862Y525790D01*
X265804Y525930D01*
X263584Y529252D01*
X263477Y529360D01*
X263405Y529493D01*
X260870Y532582D01*
X260753Y532678D01*
X260669Y532804D01*
X259256Y534217D01*
X259256Y534217D01*
X259256Y534217D01*
X212217Y581256D01*
X210804Y582669D01*
X210678Y582753D01*
X210582Y582871D01*
X207493Y585405D01*
X207360Y585477D01*
X207252Y585584D01*
X203930Y587804D01*
X203790Y587862D01*
X203673Y587958D01*
X200149Y589841D01*
X200004Y589886D01*
X199878Y589970D01*
X196186Y591499D01*
X196038Y591528D01*
X195904Y591600D01*
X192080Y592760D01*
X191929Y592775D01*
X191789Y592833D01*
X187871Y593612D01*
X187719D01*
X187574Y593656D01*
X183598Y594048D01*
X183447Y594033D01*
X183298Y594063D01*
D02*
G37*
G36*
X325000Y-314409D02*
X322259Y-314770D01*
X319705Y-315828D01*
X317511Y-317511D01*
X315828Y-319705D01*
X314770Y-322259D01*
X314409Y-325000D01*
X314770Y-327741D01*
X315828Y-330295D01*
X317511Y-332489D01*
X319705Y-334172D01*
X322259Y-335230D01*
X325000Y-335591D01*
X327741Y-335230D01*
X330295Y-334172D01*
X332489Y-332489D01*
X334172Y-330295D01*
X335230Y-327741D01*
X335591Y-325000D01*
X335230Y-322259D01*
X334172Y-319705D01*
X332489Y-317511D01*
X330295Y-315828D01*
X327741Y-314770D01*
X325000Y-314409D01*
D02*
G37*
G36*
X77798Y-315504D02*
X-39500D01*
Y-337000D01*
X77798D01*
Y-315504D01*
D02*
G37*
%LPD*%
G36*
X327447Y634132D02*
X329727Y633187D01*
X331685Y631685D01*
X333187Y629727D01*
X334132Y627447D01*
X334454Y625000D01*
X334132Y622553D01*
X333187Y620273D01*
X331685Y618315D01*
X329727Y616813D01*
X327447Y615868D01*
X325000Y615546D01*
X322553Y615868D01*
X320273Y616813D01*
X318315Y618315D01*
X316813Y620273D01*
X315868Y622553D01*
X315546Y625000D01*
X315868Y627447D01*
X316813Y629727D01*
X318315Y631685D01*
X320273Y633187D01*
X322553Y634132D01*
X325000Y634454D01*
X327447Y634132D01*
D02*
G37*
%LPC*%
G36*
X325932Y632080D02*
X324068D01*
X322267Y631598D01*
X320653Y630665D01*
X319335Y629347D01*
X318403Y627733D01*
X317920Y625932D01*
Y624068D01*
X318403Y622267D01*
X319335Y620653D01*
X320653Y619335D01*
X322267Y618402D01*
X324068Y617920D01*
X325932D01*
X327733Y618402D01*
X329347Y619335D01*
X330665Y620653D01*
X331598Y622267D01*
X332080Y624068D01*
Y625932D01*
X331598Y627733D01*
X330665Y629347D01*
X329347Y630665D01*
X327733Y631598D01*
X325932Y632080D01*
D02*
G37*
%LPD*%
G36*
X-622553Y634132D02*
X-620273Y633187D01*
X-618315Y631685D01*
X-616813Y629727D01*
X-615868Y627447D01*
X-615546Y625000D01*
X-615868Y622553D01*
X-616813Y620273D01*
X-618315Y618315D01*
X-620273Y616813D01*
X-622553Y615868D01*
X-625000Y615546D01*
X-627447Y615868D01*
X-629727Y616813D01*
X-631685Y618315D01*
X-633187Y620273D01*
X-634132Y622553D01*
X-634454Y625000D01*
X-634132Y627447D01*
X-633187Y629727D01*
X-631685Y631685D01*
X-629727Y633187D01*
X-627447Y634132D01*
X-625000Y634454D01*
X-622553Y634132D01*
D02*
G37*
%LPC*%
G36*
X-624068Y632080D02*
X-625932D01*
X-627733Y631598D01*
X-629347Y630665D01*
X-630665Y629347D01*
X-631598Y627733D01*
X-632080Y625932D01*
Y624068D01*
X-631598Y622267D01*
X-630665Y620653D01*
X-629347Y619335D01*
X-627733Y618402D01*
X-625932Y617920D01*
X-624068D01*
X-622267Y618402D01*
X-620653Y619335D01*
X-619335Y620653D01*
X-618402Y622267D01*
X-617920Y624068D01*
Y625932D01*
X-618402Y627733D01*
X-619335Y629347D01*
X-620653Y630665D01*
X-622267Y631598D01*
X-624068Y632080D01*
D02*
G37*
%LPD*%
G36*
X327447Y-315868D02*
X329727Y-316813D01*
X331685Y-318315D01*
X333187Y-320273D01*
X334132Y-322553D01*
X334454Y-325000D01*
X334132Y-327447D01*
X333187Y-329727D01*
X331685Y-331685D01*
X329727Y-333187D01*
X327447Y-334132D01*
X325000Y-334454D01*
X322553Y-334132D01*
X320273Y-333187D01*
X318315Y-331685D01*
X316813Y-329727D01*
X315868Y-327447D01*
X315546Y-325000D01*
X315868Y-322553D01*
X316813Y-320273D01*
X318315Y-318315D01*
X320273Y-316813D01*
X322553Y-315868D01*
X325000Y-315546D01*
X327447Y-315868D01*
D02*
G37*
%LPC*%
G36*
X325932Y-317920D02*
X324068D01*
X322267Y-318403D01*
X320653Y-319335D01*
X319335Y-320653D01*
X318403Y-322267D01*
X317920Y-324068D01*
Y-325932D01*
X318403Y-327733D01*
X319335Y-329347D01*
X320653Y-330665D01*
X322267Y-331598D01*
X324068Y-332080D01*
X325932D01*
X327733Y-331598D01*
X329347Y-330665D01*
X330665Y-329347D01*
X331598Y-327733D01*
X332080Y-325932D01*
Y-324068D01*
X331598Y-322267D01*
X330665Y-320653D01*
X329347Y-319335D01*
X327733Y-318403D01*
X325932Y-317920D01*
D02*
G37*
G36*
X-180770Y-103270D02*
X-188540D01*
Y-106040D01*
X-180770D01*
Y-103270D01*
D02*
G37*
G36*
X-72000Y-39000D02*
X-84000D01*
Y-52000D01*
X-81059D01*
Y-111500D01*
X-84000D01*
X-84000Y-111500D01*
X-85460Y-110960D01*
Y-110960D01*
X-85776Y-110960D01*
X-90730D01*
Y-118000D01*
X-92000D01*
Y-119270D01*
X-98540D01*
Y-125040D01*
X-98040D01*
Y-129230D01*
X-91250D01*
Y-130500D01*
X-89980D01*
Y-137040D01*
X-84460D01*
Y-136500D01*
X-76826D01*
X-72990Y-140336D01*
Y-141405D01*
X-72305Y-143059D01*
X-71039Y-144325D01*
X-69385Y-145010D01*
X-67595D01*
X-65941Y-144325D01*
X-64675Y-143059D01*
X-63990Y-141405D01*
Y-139615D01*
X-64675Y-137961D01*
X-65941Y-136695D01*
X-67595Y-136010D01*
X-68664D01*
X-72500Y-132174D01*
Y-124500D01*
X-72000Y-124500D01*
Y-111500D01*
X-74941D01*
Y-52000D01*
X-72000D01*
Y-39000D01*
D02*
G37*
G36*
X-93270Y-110960D02*
X-98540D01*
Y-116730D01*
X-93270D01*
Y-110960D01*
D02*
G37*
G36*
X-100736Y-101770D02*
X-116230D01*
Y-117264D01*
X-115849D01*
X-112610Y-116620D01*
X-109559Y-115356D01*
X-106814Y-113521D01*
X-104479Y-111186D01*
X-102644Y-108441D01*
X-101380Y-105390D01*
X-100736Y-102151D01*
Y-101770D01*
D02*
G37*
G36*
X-59105Y-121500D02*
X-60895D01*
X-62549Y-122185D01*
X-63815Y-123451D01*
X-64500Y-125105D01*
Y-126895D01*
X-63815Y-128549D01*
X-62549Y-129815D01*
X-60895Y-130500D01*
X-59105D01*
X-57451Y-129815D01*
X-56185Y-128549D01*
X-55500Y-126895D01*
Y-125105D01*
X-56185Y-123451D01*
X-57451Y-122185D01*
X-59105Y-121500D01*
D02*
G37*
G36*
X-199000Y-110000D02*
X-225000D01*
Y-132000D01*
X-199000D01*
Y-110000D01*
D02*
G37*
G36*
X-92520Y-131770D02*
X-98040D01*
Y-137040D01*
X-92520D01*
Y-131770D01*
D02*
G37*
G36*
X-118086Y-133460D02*
X-118730D01*
Y-146730D01*
X-105460D01*
Y-146086D01*
X-106451Y-142388D01*
X-108365Y-139072D01*
X-111072Y-136365D01*
X-114388Y-134451D01*
X-118086Y-133460D01*
D02*
G37*
G36*
X-121270D02*
X-121914D01*
X-125612Y-134451D01*
X-128928Y-136365D01*
X-131635Y-139072D01*
X-133549Y-142388D01*
X-134540Y-146086D01*
Y-146730D01*
X-121270D01*
Y-133460D01*
D02*
G37*
G36*
X-96270Y-141960D02*
X-102040D01*
Y-147230D01*
X-96270D01*
Y-141960D01*
D02*
G37*
G36*
X-75960Y-142460D02*
X-81230D01*
Y-147980D01*
X-75960D01*
Y-142460D01*
D02*
G37*
G36*
X-51605Y-146000D02*
X-53395D01*
X-55049Y-146685D01*
X-56315Y-147951D01*
X-57000Y-149605D01*
Y-151395D01*
X-56315Y-153049D01*
X-55049Y-154315D01*
X-53395Y-155000D01*
X-51605D01*
X-49951Y-154315D01*
X-48685Y-153049D01*
X-48000Y-151395D01*
Y-149605D01*
X-48685Y-147951D01*
X-49951Y-146685D01*
X-51605Y-146000D01*
D02*
G37*
G36*
X-198657Y-145670D02*
X-206096Y-153108D01*
X-193000Y-166204D01*
X-185561Y-158765D01*
X-198657Y-145670D01*
D02*
G37*
G36*
X-16230Y-83500D02*
X-18020D01*
X-19674Y-84185D01*
X-20940Y-85451D01*
X-21625Y-87105D01*
Y-88895D01*
X-20940Y-90549D01*
X-19674Y-91815D01*
X-18020Y-92500D01*
X-16230D01*
X-14576Y-91815D01*
X-13310Y-90549D01*
X-12625Y-88895D01*
Y-87105D01*
X-13310Y-85451D01*
X-14576Y-84185D01*
X-16230Y-83500D01*
D02*
G37*
G36*
X-16355Y-119874D02*
X-18145D01*
X-19799Y-120559D01*
X-21065Y-121825D01*
X-21750Y-123479D01*
Y-125269D01*
X-21065Y-126923D01*
X-19799Y-128189D01*
X-18145Y-128874D01*
X-16355D01*
X-14701Y-128189D01*
X-13435Y-126923D01*
X-12750Y-125269D01*
Y-123479D01*
X-13435Y-121825D01*
X-14701Y-120559D01*
X-16355Y-119874D01*
D02*
G37*
G36*
X-148605Y-77000D02*
X-150395D01*
X-152049Y-77685D01*
X-153315Y-78951D01*
X-154000Y-80605D01*
Y-82395D01*
X-153315Y-84049D01*
X-152049Y-85315D01*
X-150395Y-86000D01*
X-148605D01*
X-146951Y-85315D01*
X-145685Y-84049D01*
X-145000Y-82395D01*
Y-80605D01*
X-145685Y-78951D01*
X-146951Y-77685D01*
X-148605Y-77000D01*
D02*
G37*
G36*
X144480Y-123460D02*
X138960D01*
Y-128730D01*
X144480D01*
Y-123460D01*
D02*
G37*
G36*
X220670Y-127351D02*
Y-136741D01*
X224753D01*
Y-132451D01*
X224346Y-130403D01*
X223186Y-128666D01*
X221449Y-127506D01*
X220670Y-127351D01*
D02*
G37*
G36*
X218130D02*
X217351Y-127506D01*
X215614Y-128666D01*
X214454Y-130403D01*
X214046Y-132451D01*
Y-136741D01*
X218130D01*
Y-127351D01*
D02*
G37*
G36*
X224753Y-139281D02*
X220670D01*
Y-148670D01*
X221449Y-148516D01*
X223186Y-147355D01*
X224346Y-145618D01*
X224753Y-143569D01*
Y-139281D01*
D02*
G37*
G36*
X218130D02*
X214046D01*
Y-143569D01*
X214454Y-145618D01*
X215614Y-147355D01*
X217351Y-148516D01*
X218130Y-148670D01*
Y-139281D01*
D02*
G37*
G36*
X144480Y-153989D02*
X142914D01*
X141094Y-154229D01*
X139397Y-154932D01*
X137940Y-156050D01*
X136822Y-157507D01*
X136119Y-159204D01*
X135879Y-161024D01*
Y-171230D01*
X144480D01*
Y-153989D01*
D02*
G37*
G36*
Y-173770D02*
X135879D01*
Y-183976D01*
X136119Y-185796D01*
X136822Y-187493D01*
X137940Y-188950D01*
X139397Y-190068D01*
X141094Y-190771D01*
X142914Y-191011D01*
X144480D01*
Y-173770D01*
D02*
G37*
G36*
X38980Y-150434D02*
X33710D01*
Y-156204D01*
X38980D01*
Y-150434D01*
D02*
G37*
G36*
X31514Y-141244D02*
X16020D01*
Y-156738D01*
X16401D01*
X19640Y-156094D01*
X22691Y-154830D01*
X25436Y-152995D01*
X27771Y-150660D01*
X29606Y-147915D01*
X30870Y-144864D01*
X31514Y-141625D01*
Y-141244D01*
D02*
G37*
G36*
X103895Y-150500D02*
X102105D01*
X100451Y-151185D01*
X99185Y-152451D01*
X98500Y-154105D01*
Y-155895D01*
X99185Y-157549D01*
X100451Y-158815D01*
X102105Y-159500D01*
X103895D01*
X105549Y-158815D01*
X106815Y-157549D01*
X107500Y-155895D01*
Y-154105D01*
X106815Y-152451D01*
X105549Y-151185D01*
X103895Y-150500D01*
D02*
G37*
G36*
X104895Y-179500D02*
X103105D01*
X101451Y-180185D01*
X100185Y-181451D01*
X99500Y-183105D01*
Y-184895D01*
X100185Y-186549D01*
X101451Y-187815D01*
X103105Y-188500D01*
X104895D01*
X106549Y-187815D01*
X107815Y-186549D01*
X108500Y-184895D01*
Y-183105D01*
X107815Y-181451D01*
X106549Y-180185D01*
X104895Y-179500D01*
D02*
G37*
G36*
X-139226Y-199462D02*
X-146274D01*
Y-211590D01*
X-139226D01*
Y-210900D01*
X-137505D01*
X-135668Y-210139D01*
X-134261Y-208732D01*
X-133500Y-206895D01*
Y-204905D01*
X-134261Y-203068D01*
X-135668Y-201661D01*
X-137505Y-200900D01*
X-139226D01*
Y-199462D01*
D02*
G37*
G36*
X-6976Y-238936D02*
X-14024D01*
Y-251064D01*
X-6976D01*
Y-250374D01*
X-5255D01*
X-3418Y-249613D01*
X-2011Y-248206D01*
X-1250Y-246369D01*
Y-244379D01*
X-2011Y-242542D01*
X-3418Y-241135D01*
X-5255Y-240374D01*
X-6976D01*
Y-238936D01*
D02*
G37*
G36*
X-522013Y-154500D02*
X-523987D01*
X-525895Y-155011D01*
X-527605Y-155998D01*
X-529002Y-157395D01*
X-529989Y-159105D01*
X-530500Y-161013D01*
Y-162987D01*
X-529989Y-164895D01*
X-529002Y-166605D01*
X-527605Y-168001D01*
X-525895Y-168989D01*
X-523987Y-169500D01*
X-522013D01*
X-520105Y-168989D01*
X-518395Y-168001D01*
X-516998Y-166605D01*
X-516011Y-164895D01*
X-515500Y-162987D01*
Y-161013D01*
X-516011Y-159105D01*
X-516998Y-157395D01*
X-518395Y-155998D01*
X-520105Y-155011D01*
X-522013Y-154500D01*
D02*
G37*
G36*
X-599270Y-168460D02*
X-599388D01*
X-602068Y-169178D01*
X-604472Y-170566D01*
X-606434Y-172528D01*
X-607822Y-174932D01*
X-608540Y-177612D01*
Y-177730D01*
X-599270D01*
Y-168460D01*
D02*
G37*
G36*
Y-180270D02*
X-608540D01*
Y-180388D01*
X-607822Y-183068D01*
X-606434Y-185472D01*
X-604472Y-187434D01*
X-602068Y-188822D01*
X-599388Y-189540D01*
X-599270D01*
Y-180270D01*
D02*
G37*
G36*
X-458000Y-199500D02*
X-484000D01*
Y-221500D01*
X-458000D01*
Y-199500D01*
D02*
G37*
G36*
X-596612Y-168460D02*
X-596730D01*
Y-179000D01*
Y-189540D01*
X-596612D01*
X-593932Y-188822D01*
X-591528Y-187434D01*
X-589566Y-185472D01*
X-588419Y-183486D01*
X-587203Y-183371D01*
X-586984Y-183439D01*
X-586002Y-185140D01*
X-584140Y-187002D01*
X-581860Y-188319D01*
X-579316Y-189000D01*
X-576684D01*
X-574140Y-188319D01*
X-571860Y-187002D01*
X-569998Y-185140D01*
X-568681Y-182860D01*
X-568657Y-182770D01*
X-567343D01*
X-567318Y-182860D01*
X-566002Y-185140D01*
X-564140Y-187002D01*
X-561860Y-188319D01*
X-559316Y-189000D01*
X-556684D01*
X-554140Y-188319D01*
X-551860Y-187002D01*
X-549998Y-185140D01*
X-548681Y-182860D01*
X-548657Y-182770D01*
X-547343D01*
X-547318Y-182860D01*
X-546002Y-185140D01*
X-544140Y-187002D01*
X-541860Y-188319D01*
X-539316Y-189000D01*
X-536684D01*
X-534140Y-188319D01*
X-533422Y-187904D01*
X-506559Y-214767D01*
Y-226000D01*
X-512000D01*
Y-230460D01*
X-512540D01*
Y-233230D01*
X-503500D01*
X-494460D01*
Y-230460D01*
X-495000D01*
Y-226000D01*
X-500441D01*
Y-213500D01*
X-500441Y-213500D01*
X-500674Y-212330D01*
X-501337Y-211337D01*
X-529096Y-183578D01*
X-528681Y-182860D01*
X-528000Y-180317D01*
Y-177684D01*
X-528681Y-175140D01*
X-529998Y-172860D01*
X-531860Y-170998D01*
X-534140Y-169681D01*
X-536684Y-169000D01*
X-539316D01*
X-541860Y-169681D01*
X-544140Y-170998D01*
X-546002Y-172860D01*
X-547318Y-175140D01*
X-547343Y-175230D01*
X-548657D01*
X-548681Y-175140D01*
X-549998Y-172860D01*
X-551860Y-170998D01*
X-554140Y-169681D01*
X-556684Y-169000D01*
X-559316D01*
X-561860Y-169681D01*
X-564140Y-170998D01*
X-566002Y-172860D01*
X-567318Y-175140D01*
X-567343Y-175230D01*
X-568657D01*
X-568681Y-175140D01*
X-569998Y-172860D01*
X-571860Y-170998D01*
X-574140Y-169681D01*
X-576684Y-169000D01*
X-579316D01*
X-581860Y-169681D01*
X-584140Y-170998D01*
X-586002Y-172860D01*
X-586984Y-174561D01*
X-587203Y-174629D01*
X-588419Y-174514D01*
X-589566Y-172528D01*
X-591528Y-170566D01*
X-593932Y-169178D01*
X-596612Y-168460D01*
D02*
G37*
G36*
X-519105Y-234500D02*
X-520895D01*
X-522549Y-235185D01*
X-523815Y-236451D01*
X-524500Y-238105D01*
Y-239895D01*
X-523815Y-241549D01*
X-522549Y-242815D01*
X-521314Y-243327D01*
Y-244673D01*
X-522549Y-245185D01*
X-523815Y-246451D01*
X-524500Y-248105D01*
Y-249895D01*
X-523815Y-251549D01*
X-522549Y-252815D01*
X-520895Y-253500D01*
X-519105D01*
X-517451Y-252815D01*
X-516945Y-252309D01*
X-512540D01*
Y-253230D01*
X-503500D01*
X-494460D01*
Y-250460D01*
X-495000D01*
Y-248540D01*
X-494460D01*
Y-245770D01*
X-503500D01*
Y-243230D01*
X-494460D01*
Y-240460D01*
X-495000D01*
Y-238540D01*
X-494460D01*
Y-235770D01*
X-503500D01*
X-512540D01*
Y-236191D01*
X-516445D01*
X-517451Y-235185D01*
X-519105Y-234500D01*
D02*
G37*
G36*
X-541000Y-218000D02*
X-559000D01*
Y-232000D01*
X-553059D01*
X-552826Y-233171D01*
X-552163Y-234163D01*
X-524663Y-261663D01*
X-523671Y-262326D01*
X-522500Y-262559D01*
X-522500Y-262559D01*
X-512540D01*
Y-263230D01*
X-503500D01*
X-494460D01*
Y-260460D01*
X-495000D01*
Y-258540D01*
X-494460D01*
Y-255770D01*
X-503500D01*
X-512540D01*
Y-256441D01*
X-521233D01*
X-544501Y-233173D01*
X-544015Y-232000D01*
X-541000D01*
Y-218000D01*
D02*
G37*
G36*
X-586000D02*
X-604000D01*
Y-232000D01*
X-598059D01*
Y-241000D01*
X-598059Y-241000D01*
X-597826Y-242171D01*
X-597163Y-243163D01*
X-568663Y-271663D01*
X-567671Y-272326D01*
X-566500Y-272559D01*
X-512540D01*
Y-273230D01*
X-503500D01*
X-494460D01*
Y-270460D01*
X-495000D01*
Y-268540D01*
X-494460D01*
Y-265770D01*
X-503500D01*
X-512540D01*
Y-266441D01*
X-565233D01*
X-591941Y-239733D01*
Y-232000D01*
X-586000D01*
Y-218000D01*
D02*
G37*
G36*
X-494460Y-275770D02*
X-502230D01*
Y-278540D01*
X-494460D01*
Y-275770D01*
D02*
G37*
G36*
X-504770D02*
X-512540D01*
Y-278540D01*
X-504770D01*
Y-275770D01*
D02*
G37*
G36*
X-585460Y-287460D02*
X-593730D01*
Y-293730D01*
X-585460D01*
Y-287460D01*
D02*
G37*
G36*
X-596270D02*
X-604540D01*
Y-293730D01*
X-596270D01*
Y-287460D01*
D02*
G37*
G36*
X-540460D02*
X-548730D01*
Y-293730D01*
X-540460D01*
Y-287460D01*
D02*
G37*
G36*
X-551270D02*
X-559540D01*
Y-293730D01*
X-551270D01*
Y-287460D01*
D02*
G37*
G36*
X-540460Y-296270D02*
X-548730D01*
Y-302540D01*
X-540460D01*
Y-296270D01*
D02*
G37*
G36*
X-551270D02*
X-559540D01*
Y-302540D01*
X-551270D01*
Y-296270D01*
D02*
G37*
G36*
X-585460Y-296270D02*
X-593730D01*
Y-302540D01*
X-585460D01*
Y-296270D01*
D02*
G37*
G36*
X-596270D02*
X-604540D01*
Y-302540D01*
X-596270D01*
Y-296270D01*
D02*
G37*
G36*
X-458000Y-282500D02*
X-484000D01*
Y-304500D01*
X-458000D01*
Y-282500D01*
D02*
G37*
%LPD*%
D10*
X-35000Y-320004D02*
Y-332500D01*
Y-328335D01*
X-26669Y-320004D01*
X-32917Y-326252D01*
X-26669Y-332500D01*
X-22504Y-320004D02*
Y-332500D01*
X-16256D01*
X-14173Y-330417D01*
Y-322087D01*
X-16256Y-320004D01*
X-22504D01*
X-10008Y-332500D02*
Y-324169D01*
X-5843Y-320004D01*
X-1677Y-324169D01*
Y-332500D01*
Y-326252D01*
X-10008D01*
X14984Y-332500D02*
Y-320004D01*
X21232D01*
X23314Y-322087D01*
Y-326252D01*
X21232Y-328335D01*
X14984D01*
X19149D02*
X23314Y-332500D01*
X33728D02*
X29562D01*
X27480Y-330417D01*
Y-326252D01*
X29562Y-324169D01*
X33728D01*
X35810Y-326252D01*
Y-328335D01*
X27480D01*
X39976Y-324169D02*
X44141Y-332500D01*
X48306Y-324169D01*
X64968Y-332500D02*
Y-324169D01*
X69133Y-320004D01*
X73298Y-324169D01*
Y-332500D01*
Y-326252D01*
X64968D01*
D11*
X-191000Y72000D02*
X-179500D01*
D15*
X58000Y-67000D02*
X59309D01*
X81000Y-88691D01*
Y-100000D02*
Y-88691D01*
X37750Y-188724D02*
X49750D01*
X36750Y-187474D02*
X37750D01*
X165000Y139500D02*
X168500D01*
X179000Y129000D01*
X184875D01*
X162257Y-144000D02*
X164000D01*
X164000Y-144000D01*
X191562Y-153562D02*
X194000Y-151125D01*
X173050Y-138011D02*
X181300D01*
X171539Y-136500D02*
X173050Y-138011D01*
X165000Y-136500D02*
X171539D01*
X158500Y-130000D02*
X165000Y-136500D01*
X158250Y-130000D02*
X158500D01*
X153000Y-135000D02*
X158000Y-130000D01*
X153000Y-141000D02*
Y-135000D01*
X150000Y-144000D02*
X153000Y-141000D01*
X160000Y-169000D02*
X172125D01*
X176125Y-173000D01*
X206700Y-156300D02*
Y-138011D01*
X192500Y-170500D02*
X206700Y-156300D01*
X192500Y-173000D02*
Y-170500D01*
X160000Y-159000D02*
X167468D01*
X169468Y-157000D01*
X176125D01*
X194000Y-151125D02*
Y-138011D01*
X171000Y0D02*
X181300Y-10300D01*
Y-34000D02*
Y-10300D01*
X191000Y0D02*
X193345Y-2345D01*
Y-33345D02*
Y-2345D01*
Y-33345D02*
X194000Y-34000D01*
X211000Y-3788D02*
Y0D01*
X206700Y-8088D02*
X211000Y-3788D01*
X206700Y-34000D02*
Y-8088D01*
X219400Y-11600D02*
X231000Y0D01*
X219400Y-34000D02*
Y-11600D01*
X-586500Y149000D02*
X-584850Y150650D01*
X-580005D01*
X-586500Y165000D02*
X-584850Y163350D01*
X-580005D01*
X37750Y-208100D02*
Y-202374D01*
X35477Y-210374D02*
X37750Y-208100D01*
X19750Y-210374D02*
X35477D01*
X79000Y-215000D02*
X83000D01*
X76000Y-218000D02*
X79000Y-215000D01*
X76000Y-218250D02*
Y-218000D01*
X142000Y-211000D02*
Y-203250D01*
X124000Y-229000D02*
X142000Y-211000D01*
Y-203250D02*
X161000D01*
X105550Y-208950D02*
X135000D01*
X99500Y-215000D02*
X105550Y-208950D01*
X130500Y-203250D02*
Y-170488D01*
X106653Y-203250D02*
X130500D01*
X142000D01*
X68301Y-250000D02*
X69800D01*
X64136Y-245835D02*
X68301Y-250000D01*
X53797Y-245835D02*
X64136D01*
X45000Y-254632D02*
X53797Y-245835D01*
X37368Y-254632D02*
X45000D01*
X37000Y-255000D02*
X37368Y-254632D01*
X-495000Y208000D02*
X-494750D01*
X-487000Y200250D01*
X-476000D01*
X-487500Y235000D02*
Y238479D01*
X-488000Y234500D02*
X-487500Y235000D01*
X-488000Y234250D02*
Y234500D01*
X-494750Y227500D02*
X-488000Y234250D01*
X-495000Y227500D02*
X-494750D01*
X-513000Y275000D02*
Y279750D01*
X-514000Y280750D02*
X-513000Y279750D01*
Y294250D02*
Y300000D01*
X-514000Y293250D02*
X-513000Y294250D01*
X-456021Y207000D02*
X-442000D01*
X-487500Y238479D02*
X-456021Y207000D01*
X-487500Y238479D02*
Y252000D01*
X-565000Y275000D02*
X-487500D01*
X-590000Y300000D02*
X-565000Y275000D01*
X-489500Y300000D02*
X-487500Y298000D01*
X-550000Y300000D02*
X-489500D01*
X-475995Y137950D02*
X-470436D01*
X-459486Y127000D01*
X-442000D01*
Y107000D02*
Y127000D01*
X-475995Y150650D02*
X-469660D01*
X-466010Y147000D01*
X-442000D01*
X-475995Y163350D02*
X-469660D01*
X-466010Y167000D01*
X-442000D01*
X-476000Y187750D02*
X-475995Y187745D01*
Y176050D02*
Y187745D01*
Y176050D02*
X-470436D01*
X-459486Y187000D01*
X-442000D01*
Y207000D01*
X-585564Y137950D02*
X-580005D01*
X-597514Y126000D02*
X-585564Y137950D01*
X-624000Y126000D02*
X-597514D01*
X-581000Y189750D02*
X-580005Y188755D01*
Y176050D02*
Y188755D01*
X-585564Y176050D02*
X-580005D01*
X-595514Y186000D02*
X-585564Y176050D01*
X-624000Y186000D02*
X-595514D01*
X124185Y144426D02*
X129500D01*
X130500Y143426D01*
X126000Y133611D02*
X126250Y133361D01*
X118146Y125354D02*
Y134371D01*
X110022Y134978D02*
X110250Y134750D01*
X117792Y134725D02*
X118146Y134371D01*
X126250Y125250D02*
Y133361D01*
X102744Y143256D02*
X102750Y143250D01*
X124000Y144611D02*
X124185Y144426D01*
X102750Y125250D02*
Y143250D01*
X118146Y125354D02*
X118500Y125000D01*
X130500Y143426D02*
X132324D01*
X126250Y125250D02*
X126500Y125000D01*
X110250Y125250D02*
X110500Y125000D01*
X110250Y125250D02*
Y134750D01*
X197437Y163437D02*
X197500Y163375D01*
X165063Y163437D02*
X197437D01*
X165000Y163500D02*
X165063Y163437D01*
X180750Y155250D02*
X181000Y155000D01*
X165250Y155250D02*
X180750D01*
X165000Y155500D02*
X165250Y155250D01*
X160000Y42500D02*
X162750Y39750D01*
X180000D01*
Y52250D02*
X180750Y53000D01*
X207000D01*
X191000Y0D02*
Y36000D01*
X194000Y39000D01*
X210500Y500D02*
X211000Y0D01*
X210500Y500D02*
Y36000D01*
X207500Y39000D02*
X210500Y36000D01*
X207000Y39000D02*
X207500D01*
X125510Y-165498D02*
X130500Y-170488D01*
X125510Y-165498D02*
Y-132736D01*
X127762Y-130485D01*
Y-129673D01*
X70000Y-191500D02*
X72500Y-194000D01*
X72750D01*
X73136Y-194386D01*
X83136D01*
X84250Y-195500D01*
X-235000Y-66000D02*
Y-60500D01*
X84250Y-195500D02*
X98903D01*
X106653Y-203250D01*
X-231500Y-57000D02*
X-179500D01*
X-235000Y-60500D02*
X-231500Y-57000D01*
X-179500D02*
X-174500D01*
Y-50098D01*
X-165802Y-41400D01*
X-60000Y-212500D02*
Y-201000D01*
Y-212500D02*
X-57500Y-215000D01*
X76000Y-205750D02*
X79000Y-202750D01*
Y-199736D01*
X82986Y-195750D01*
X84000D01*
X57000Y-215250D02*
X66500D01*
X72750Y-209000D01*
X73000D01*
X76000Y-206000D01*
Y-205750D01*
X97464Y-237300D02*
X101138Y-233625D01*
X118834D02*
X123459Y-229000D01*
X101138Y-233625D02*
X118834D01*
X95200Y-237300D02*
X97464D01*
X123459Y-229000D02*
X124000D01*
X161000Y-203250D02*
X168250D01*
X173000Y-198500D01*
X173500D01*
X170500Y-181500D02*
X173500Y-184500D01*
X164312Y-181500D02*
X170500D01*
X161286Y-178474D02*
X164312Y-181500D01*
X160474Y-178474D02*
X161286D01*
X-142750Y-205526D02*
X-142376Y-205900D01*
X-92000Y-130900D02*
X-91500D01*
X-92000D02*
Y-118000D01*
X36750Y-188724D02*
Y-188374D01*
X12250Y-187474D02*
X36750D01*
Y-188724D02*
X37750D01*
Y-188374D02*
Y-187474D01*
X40250Y-170374D02*
X40750D01*
X40250D02*
Y-157474D01*
X-142376Y-205900D02*
X-138500D01*
X-10500Y-245000D02*
X-10126Y-245374D01*
X-6250D01*
X-94500Y-148900D02*
Y-148000D01*
X-120000D02*
X-94500D01*
X-95500Y-149250D02*
X-82500D01*
X-95500D02*
Y-148900D01*
X70000Y-172500D02*
X84250D01*
X70000Y-172500D02*
X70000Y-172500D01*
X70000Y-172500D02*
Y-163750D01*
Y-178750D02*
Y-172500D01*
X69800Y-237300D02*
Y-224700D01*
X76000Y-218500D01*
Y-218250D01*
X-55000Y204500D02*
Y220000D01*
X-191000Y62000D02*
X-179500D01*
X-191000Y82000D02*
X-179500D01*
X-191000Y92000D02*
X-179500D01*
X-191000Y102000D02*
X-191000Y102000D01*
X-179500D01*
X-170172Y-67000D02*
X-170172Y-67000D01*
X-179500Y-67000D02*
X-170172D01*
X-179500Y-67000D02*
X-179500Y-67000D01*
X-179500Y-87000D02*
X-166500D01*
X-162839Y-124900D02*
Y-114477D01*
Y-124900D02*
X-162500D01*
X53750Y-169974D02*
X60724Y-163000D01*
X58750Y-141459D02*
Y-107250D01*
X59467Y-186533D02*
X60000Y-186000D01*
X54993Y-195974D02*
X59467Y-191500D01*
X58750Y-141459D02*
X59750Y-142459D01*
X59467Y-191500D02*
Y-186533D01*
X58750Y-107250D02*
X66000Y-100000D01*
X59750Y-143000D02*
Y-142459D01*
X53750Y-157374D02*
X54250D01*
Y-84974D01*
X53750Y-169974D02*
Y-157374D01*
X49750Y-200974D02*
X54750Y-195974D01*
X54993D01*
X49750Y-201374D02*
Y-200974D01*
X-164500Y39600D02*
Y112000D01*
X100322Y245322D02*
Y245325D01*
X100200Y245200D02*
X100322Y245322D01*
X70075Y245707D02*
X74293D01*
X74800Y245200D01*
X50000Y257000D02*
X54125Y252875D01*
Y245707D02*
Y252875D01*
Y245707D02*
X58797Y241035D01*
X65403D01*
X70075Y245707D01*
X73000Y257000D02*
X73015Y256985D01*
X77015D01*
X87500Y245200D02*
Y246500D01*
X77015Y256985D02*
X87500Y246500D01*
X118500Y210000D02*
Y221985D01*
X126515Y230000D02*
Y230237D01*
X118500Y221985D02*
X126515Y230000D01*
Y230237D02*
X131000Y234722D01*
Y235520D01*
X-72500Y-215000D02*
Y-199500D01*
X55000Y207778D02*
X75000Y227778D01*
X55000Y185000D02*
Y207778D01*
X33250Y209974D02*
X37315Y205909D01*
X49000D01*
X-89000Y159000D02*
X-71000D01*
X-156222Y-160998D02*
X-155750Y-160526D01*
X-171500Y-160998D02*
X-156222D01*
X-39250Y-202000D02*
X-28000D01*
X50000Y152000D02*
X50778D01*
X54278Y155500D01*
X80000D01*
X62500Y177000D02*
X68000Y171500D01*
X49000Y177000D02*
X62500D01*
X68000Y171500D02*
X80000D01*
X79609Y147891D02*
X80000Y147500D01*
X59391Y147891D02*
X79609D01*
X59000Y148281D02*
X59391Y147891D01*
X80000Y131250D02*
Y139500D01*
X75000Y126250D02*
X80000Y131250D01*
X75000Y126000D02*
Y126250D01*
X72000Y123000D02*
X75000Y126000D01*
X71750Y123000D02*
X72000D01*
X84250D02*
X86250Y125000D01*
X94500D01*
X153743Y220743D02*
X154000Y221000D01*
X148500Y220743D02*
X153743D01*
X145000Y217243D02*
X148500Y220743D01*
X145000Y216000D02*
Y217243D01*
X142500Y213500D02*
X145000Y216000D01*
X142500Y210000D02*
Y213500D01*
X102500Y201165D02*
X106567Y197098D01*
X102500Y201165D02*
Y210000D01*
X75000Y227778D02*
Y228000D01*
X104127Y231371D02*
X104623Y230875D01*
X119375D01*
X124000Y235500D01*
X118000Y191000D02*
Y205909D01*
Y191000D02*
X127000Y182000D01*
X137000D01*
X150500Y195500D01*
Y210000D01*
X-36950Y177500D02*
X-20000D01*
X16000Y245400D02*
X19876D01*
X-5000Y85000D02*
Y100400D01*
X116000Y-161459D02*
Y-131500D01*
X112159Y-165300D02*
X116000Y-161459D01*
X112159Y-165841D02*
Y-165300D01*
X5750Y-210374D02*
Y-202894D01*
X-1000Y-178804D02*
Y-166000D01*
X-30157Y-164280D02*
Y-157884D01*
X-30589Y-157451D02*
X-30157Y-157884D01*
X-30589Y-157451D02*
Y-151698D01*
X-30250Y-164374D02*
X-30157Y-164280D01*
X14750Y-100374D02*
Y-84974D01*
X40250D01*
X-78000Y-117900D02*
Y-45500D01*
X-129500Y-167900D02*
Y-159713D01*
Y-167900D02*
X-126500Y-170900D01*
X-179500Y-150500D02*
X-170000Y-141000D01*
Y-99257D01*
X-112500Y-170900D02*
X-94500D01*
X-171757Y-97500D02*
X-170000Y-99257D01*
X-68490Y-140510D02*
Y-140510D01*
X-78500Y-130500D02*
X-68490Y-140510D01*
X-179000Y-97500D02*
X-171757D01*
X-94500Y-170900D02*
Y-162900D01*
X-3250Y-193894D02*
Y-181054D01*
X-1000Y-178804D01*
X-49250Y-232250D02*
X-49000Y-232000D01*
X-87500Y-232500D02*
X-87250Y-232250D01*
X-49250D01*
X-44000Y-219000D02*
Y-210550D01*
X-54000Y-200550D02*
X-44000Y-210550D01*
X-43000Y-252000D02*
X-38000Y-247000D01*
X-54000Y-200550D02*
Y-198515D01*
X-64243Y-193257D02*
X-59257D01*
X-54000Y-198515D01*
X-3250Y-193894D02*
X5750Y-202894D01*
X-43000Y-260000D02*
Y-252000D01*
X-72000Y-185500D02*
X-64243Y-193257D01*
X-179500Y-97000D02*
X-179000Y-97500D01*
X-194000Y-77000D02*
X-179500D01*
X-194000Y-77000D02*
X-194000Y-77000D01*
X-72500Y-185500D02*
X-72000D01*
X90061Y199939D02*
Y200751D01*
X87500Y203312D02*
X90061Y200751D01*
X87500Y203312D02*
Y232500D01*
X179000Y169000D02*
Y180000D01*
X106567Y189646D02*
Y197098D01*
X163500Y173000D02*
X165000Y171500D01*
X157458Y173000D02*
X163500D01*
X156458Y174000D02*
X157458Y173000D01*
X155646Y174000D02*
X156458D01*
X80250Y179750D02*
X94750D01*
X95000Y180000D01*
X80000Y179500D02*
X80250Y179750D01*
X93841Y194433D02*
X94383D01*
X87575Y193939D02*
X93348D01*
X80000Y195500D02*
X81000Y194500D01*
X87015D01*
X93348Y193939D02*
X93841Y194433D01*
X87015Y194500D02*
X87575Y193939D01*
X-10000Y210400D02*
Y221000D01*
X-598000Y-196000D02*
Y-179000D01*
X-609000Y-258000D02*
Y-207000D01*
X-598000Y-196000D01*
X-595000Y-295000D02*
Y-272000D01*
X-609000Y-258000D02*
X-595000Y-272000D01*
Y-295000D02*
X-550000D01*
X-503500Y-229500D02*
Y-213500D01*
X-538000Y-179000D02*
X-503500Y-213500D01*
X-522500Y-259500D02*
X-503500D01*
X-550000Y-232000D02*
Y-225000D01*
Y-232000D02*
X-522500Y-259500D01*
X-519750Y-239250D02*
X-503750D01*
X-503500Y-239500D01*
X-520000Y-239000D02*
X-519750Y-239250D01*
Y-249250D02*
X-503750D01*
X-503500Y-249500D01*
X-520000Y-249000D02*
X-519750Y-249250D01*
X-566500Y-269500D02*
X-503500D01*
X-595000Y-241000D02*
Y-225000D01*
Y-241000D02*
X-566500Y-269500D01*
X-490000Y-244000D02*
Y-237000D01*
X-490500Y-244500D02*
X-490000Y-244000D01*
Y-255000D02*
Y-244000D01*
X-490500Y-254500D02*
X-490000Y-255000D01*
X-492500Y-234500D02*
X-490000Y-237000D01*
X-503500Y-234500D02*
X-492500D01*
X-503500Y-254500D02*
X-490500D01*
X-503500Y-244500D02*
X-490500D01*
X-490000Y-265000D02*
Y-255000D01*
X-490500Y-264500D02*
X-490000Y-265000D01*
Y-272000D02*
Y-265000D01*
X-492000Y-274000D02*
X-490000Y-272000D01*
X-503500Y-274500D02*
X-503000Y-274000D01*
X-503500Y-264500D02*
X-490500D01*
X-503000Y-274000D02*
X-492000D01*
X-508500Y-274500D02*
X-503500D01*
X-529000Y-295000D02*
X-508500Y-274500D01*
X-550000Y-295000D02*
X-529000D01*
X-502750Y-88250D02*
X-502500Y-88500D01*
X-518750Y-88250D02*
X-502750D01*
X-519000Y-88000D02*
X-518750Y-88250D01*
X-502750Y-78250D02*
X-502500Y-78500D01*
X-518750Y-78250D02*
X-502750D01*
X-519000Y-78000D02*
X-518750Y-78250D01*
X-594000Y-134000D02*
Y-111000D01*
X-608000Y-97000D02*
X-594000Y-111000D01*
X-608000Y-97000D02*
Y-46000D01*
X-597000Y-35000D01*
Y-18000D01*
X-489500Y-83500D02*
X-489000Y-83000D01*
X-502500Y-83500D02*
X-489500D01*
X-489000Y-83000D02*
Y-76000D01*
X-489500Y-93500D02*
X-489000Y-94000D01*
X-502500Y-93500D02*
X-489500D01*
X-489000Y-94000D02*
Y-83000D01*
X-489500Y-103500D02*
X-489000Y-104000D01*
X-502500Y-103500D02*
X-489500D01*
X-489000Y-104000D02*
Y-94000D01*
X-502500Y-113500D02*
X-502000Y-113000D01*
X-491000D01*
X-489000Y-111000D01*
Y-104000D01*
X-491500Y-73500D02*
X-489000Y-76000D01*
X-502500Y-73500D02*
X-491500D01*
X-507500Y-113500D02*
X-502500D01*
X-528000Y-134000D02*
X-507500Y-113500D01*
X-549000Y-134000D02*
X-528000D01*
X-549000Y-71000D02*
X-521500Y-98500D01*
X-502500D01*
X-549000Y-71000D02*
Y-64000D01*
X-565500Y-108500D02*
X-502500D01*
X-594000Y-80000D02*
X-565500Y-108500D01*
X-594000Y-80000D02*
Y-64000D01*
Y-134000D02*
X-549000D01*
X-502500Y-68500D02*
Y-52500D01*
X-537000Y-18000D02*
X-502500Y-52500D01*
X77000Y-117050D02*
X81000Y-113050D01*
X77000Y-131072D02*
Y-117050D01*
X91812Y-106000D02*
X94812Y-109000D01*
X108000D01*
X91000Y-106000D02*
X91812D01*
X108000Y-109000D02*
X110000Y-111000D01*
X94500Y125000D02*
Y137000D01*
X92750Y163750D02*
X93000Y164000D01*
X80250Y163750D02*
X92750D01*
X80000Y163500D02*
X80250Y163750D01*
X129000Y223459D02*
Y224000D01*
X79000Y188500D02*
X80000Y187500D01*
X73550Y188500D02*
X79000D01*
X70500Y191550D02*
X73550Y188500D01*
X70500Y191550D02*
Y211959D01*
X69000Y213459D02*
X70500Y211959D01*
X69000Y213459D02*
Y214000D01*
X110500Y206409D02*
X111000Y205909D01*
X110500Y206409D02*
Y210000D01*
X-10000Y210400D02*
Y210400D01*
X-40000Y201400D02*
X-28000D01*
X117000Y152000D02*
X133828D01*
X150500Y135328D01*
Y125000D02*
Y135328D01*
X138757Y116000D02*
X161000D01*
X136000Y118757D02*
X138757Y116000D01*
X161000D02*
X162000Y117000D01*
X70000Y-151250D02*
X70875Y-150375D01*
X83375D01*
X84250Y-149500D01*
X87110D01*
X91000Y-145610D01*
Y-120500D01*
X81000Y-113050D02*
Y-100000D01*
X82500Y-237300D02*
X93000Y-226800D01*
Y-202187D01*
X-78750Y-130500D02*
X-78500D01*
X110000Y-130000D02*
X114500D01*
X116000Y-131500D01*
X-44500Y169950D02*
X-36950Y177500D01*
X-44500Y157500D02*
Y169950D01*
X126500Y220959D02*
X129000Y223459D01*
X126500Y210000D02*
Y220959D01*
X134500Y191276D02*
Y210000D01*
Y191276D02*
X135735Y190041D01*
Y189500D02*
Y190041D01*
X-48748Y195526D02*
X-48366Y195909D01*
X-49474Y195526D02*
X-48748D01*
X-54500Y190500D02*
X-49474Y195526D01*
X-55000Y190500D02*
X-54500D01*
X39274Y165126D02*
Y168398D01*
Y165126D02*
X40000Y164400D01*
X-85000Y249500D02*
X-70500D01*
X-70000Y250000D01*
X-55000D02*
X-53000Y252000D01*
X-40000D01*
X-39000Y224517D02*
Y237000D01*
X-85000Y226000D02*
Y235500D01*
X101329Y231371D02*
X104127D01*
X-74000Y-246500D02*
X-72500Y-245000D01*
X-87500Y-246500D02*
X-74000D01*
X-57500Y-245000D02*
X-57000Y-245500D01*
Y-260000D02*
Y-245500D01*
X-44500Y85000D02*
Y157400D01*
X-148000Y157000D02*
Y165000D01*
X-141000D01*
X132324Y143426D02*
X142500Y133250D01*
Y125000D02*
Y133250D01*
X100200Y232500D02*
X101329Y231371D01*
X197250Y147000D02*
X197750Y146500D01*
X165500Y147000D02*
X197250D01*
X165000Y147500D02*
X165500Y147000D01*
X174250Y184250D02*
X178500Y180000D01*
X174250Y184250D02*
Y184743D01*
X172493Y186500D02*
X174250Y184743D01*
X166000Y186500D02*
X172493D01*
X165000Y187500D02*
X166000Y186500D01*
X157039Y195306D02*
X157136Y195403D01*
X164903D01*
X165000Y195500D01*
X150500Y210000D02*
X163950D01*
X176000Y197950D01*
Y196500D02*
Y197950D01*
X154000Y189000D02*
X154574Y188426D01*
Y185183D02*
Y188426D01*
Y185183D02*
X157757Y182000D01*
X159000D01*
X161500Y179500D01*
X165000D01*
X102500Y125000D02*
X102750Y125250D01*
X-40000Y238000D02*
X-39000Y237000D01*
X-104000Y200000D02*
X-100124D01*
X-141000Y165000D02*
X-130000D01*
X-160000Y143350D02*
X-147000D01*
X-148000Y142100D02*
X-122500D01*
X-147000Y143000D02*
Y143350D01*
X-148000Y142100D02*
Y143000D01*
X176000Y196500D02*
X178500Y194000D01*
X134500Y125000D02*
X136000Y123500D01*
Y118757D02*
Y123500D01*
X150000Y0D02*
Y3518D01*
X146750Y6768D02*
X150000Y3518D01*
X146750Y6768D02*
Y36250D01*
X140500Y42500D02*
X146750Y36250D01*
X178500Y194000D02*
X179000D01*
X-79661Y108577D02*
Y119000D01*
X-80000D02*
X-79661D01*
X19876Y245400D02*
X20250Y245026D01*
X4000Y210400D02*
X19062D01*
X-27000Y188400D02*
Y188750D01*
X-28000Y187500D02*
X-2500D01*
X-40000Y188750D02*
X-27000D01*
X-28000Y187500D02*
Y188400D01*
Y202400D02*
Y210400D01*
X-10000D01*
X-40000Y201250D02*
Y201400D01*
X-30500Y85000D02*
X-5000D01*
X-31000Y170400D02*
X-30500D01*
Y157500D02*
Y170400D01*
X-141562Y-170900D02*
X-126500D01*
X-94500Y-161900D02*
X-82500D01*
Y-161750D01*
X-117500Y-60900D02*
Y-45500D01*
X-92000D01*
X-78500Y-130500D02*
Y-117900D01*
X-78000D01*
X-9312Y-210374D02*
X5750D01*
X37750Y-201374D02*
X49750D01*
X-116000Y165000D02*
X-100938D01*
X-100124Y200000D02*
X-99750Y199626D01*
X-150500Y112100D02*
Y125000D01*
X-151000D02*
X-150500D01*
X-125000Y39600D02*
Y55000D01*
X-150500Y39600D02*
X-125000D01*
X-164500Y112000D02*
X-164000D01*
Y124600D01*
X-163750D01*
X-160000Y156000D02*
X-148000D01*
X-160000Y155850D02*
Y156000D01*
X-368000Y-339998D02*
X-364668D01*
X-366334D01*
Y-330002D01*
X-368000Y-331668D01*
D22*
X-595000Y-295000D02*
D03*
Y-225000D02*
D03*
X-549000Y-134000D02*
D03*
Y-64000D02*
D03*
X-550000Y-295000D02*
D03*
Y-225000D02*
D03*
X-594000Y-134000D02*
D03*
Y-64000D02*
D03*
D23*
X91000Y-120500D02*
D03*
X110000Y-130000D02*
D03*
Y-111000D02*
D03*
D24*
X-428500Y275000D02*
D03*
D25*
X-487500Y252000D02*
D03*
Y275000D02*
D03*
Y298000D02*
D03*
D26*
X-80250Y164574D02*
D03*
X-86750Y164574D02*
D03*
X-93250D02*
D03*
X-99750D02*
D03*
X-93250Y199626D02*
D03*
X-86750D02*
D03*
X-80250D02*
D03*
X-99750D02*
D03*
X-30000Y-209948D02*
D03*
X-23500D02*
D03*
X-17000D02*
D03*
X-10500D02*
D03*
X-17000Y-245000D02*
D03*
X-23500D02*
D03*
X-30000D02*
D03*
X-10500D02*
D03*
Y-200000D02*
D03*
X-17000D02*
D03*
X-23500D02*
D03*
X-30000D02*
D03*
X-30000Y-164948D02*
D03*
X-23500D02*
D03*
X-17000D02*
D03*
X-10500D02*
D03*
X-162250Y-205526D02*
D03*
X-155750D02*
D03*
X-149250D02*
D03*
X-142750Y-170474D02*
D03*
X-149250D02*
D03*
X-155750D02*
D03*
X-162250D02*
D03*
X-142750Y-205526D02*
D03*
Y-125474D02*
D03*
X-149250D02*
D03*
X-155750D02*
D03*
X-162250D02*
D03*
Y-160526D02*
D03*
X-155750D02*
D03*
X-149250D02*
D03*
X-142750D02*
D03*
X39750Y209974D02*
D03*
X33250D02*
D03*
X26750D02*
D03*
X20250D02*
D03*
X26750Y245026D02*
D03*
X33250D02*
D03*
X39750D02*
D03*
X20250D02*
D03*
Y200026D02*
D03*
X26750D02*
D03*
X33250D02*
D03*
X39750D02*
D03*
Y164974D02*
D03*
X33250D02*
D03*
X26750D02*
D03*
X20250D02*
D03*
X-99750Y154626D02*
D03*
X-93250D02*
D03*
X-86750D02*
D03*
X-80250D02*
D03*
X-86750Y119574D02*
D03*
X-93250D02*
D03*
X-99750D02*
D03*
X-80250D02*
D03*
D27*
X84250Y-149500D02*
D03*
D28*
X145750Y-172500D02*
D03*
D29*
X84250D02*
D03*
Y-195500D02*
D03*
D30*
X80000Y187500D02*
D03*
Y155500D02*
D03*
X165000Y187500D02*
D03*
Y179500D02*
D03*
Y171500D02*
D03*
Y163500D02*
D03*
Y139500D02*
D03*
X80000Y163500D02*
D03*
Y171500D02*
D03*
Y179500D02*
D03*
Y195500D02*
D03*
Y139500D02*
D03*
X165000Y195500D02*
D03*
Y147500D02*
D03*
Y155500D02*
D03*
X80000Y147500D02*
D03*
D31*
X134500Y125000D02*
D03*
X126500D02*
D03*
X118500D02*
D03*
X110500D02*
D03*
X102500D02*
D03*
X94500Y210000D02*
D03*
X110500D02*
D03*
X126500D02*
D03*
X134500D02*
D03*
X142500D02*
D03*
X150500Y125000D02*
D03*
X142500D02*
D03*
X94500D02*
D03*
X118500Y210000D02*
D03*
X150500D02*
D03*
X102500D02*
D03*
D32*
X-580005Y176050D02*
D03*
D33*
Y163350D02*
D03*
Y150650D02*
D03*
Y137950D02*
D03*
X-475995D02*
D03*
Y150650D02*
D03*
Y163350D02*
D03*
Y176050D02*
D03*
D34*
X-502500Y-73500D02*
D03*
X-502500Y-68500D02*
D03*
X-502500Y-93500D02*
D03*
X-502500Y-78500D02*
D03*
X-502500Y-83500D02*
D03*
X-502500Y-88500D02*
D03*
X-502500Y-103500D02*
D03*
X-502500Y-113500D02*
D03*
X-502500Y-98500D02*
D03*
X-502500Y-108500D02*
D03*
X-179500Y-97000D02*
D03*
X-179500Y-77000D02*
D03*
X-179500Y-87000D02*
D03*
X-179500Y-67000D02*
D03*
X-179500Y-62000D02*
D03*
X-179500Y-82000D02*
D03*
X-179500Y-92000D02*
D03*
X-179500Y-72000D02*
D03*
X-179500Y-102000D02*
D03*
X-179500Y-57000D02*
D03*
X-179500Y62000D02*
D03*
X-179500Y57000D02*
D03*
X-179500Y82000D02*
D03*
Y87000D02*
D03*
X-179500Y67000D02*
D03*
X-179500Y72000D02*
D03*
X-179500Y77000D02*
D03*
X-179500Y92000D02*
D03*
X-179500Y97000D02*
D03*
X-179500Y102000D02*
D03*
X-503500Y-234500D02*
D03*
X-503500Y-229500D02*
D03*
X-503500Y-254500D02*
D03*
Y-259500D02*
D03*
X-503500Y-239500D02*
D03*
X-503500Y-244500D02*
D03*
X-503500Y-249500D02*
D03*
X-503500Y-264500D02*
D03*
X-503500Y-269500D02*
D03*
X-503500Y-274500D02*
D03*
D35*
X-470000Y-132500D02*
D03*
X-470000Y-49500D02*
D03*
X-212000Y-38000D02*
D03*
X-212000Y-121000D02*
D03*
X-212000Y121000D02*
D03*
X-212000Y38000D02*
D03*
X-471000Y-293500D02*
D03*
X-471000Y-210500D02*
D03*
D36*
X-495000Y227500D02*
D03*
Y208000D02*
D03*
D37*
X-55000Y220000D02*
D03*
Y250000D02*
D03*
X-70000D02*
D03*
Y220000D02*
D03*
X-72500Y-215000D02*
D03*
Y-245000D02*
D03*
X-57500D02*
D03*
Y-215000D02*
D03*
D38*
X161000Y-190750D02*
D03*
Y-203250D02*
D03*
X70000Y-151250D02*
D03*
Y-163750D02*
D03*
Y-178750D02*
D03*
Y-191250D02*
D03*
X76000Y-218250D02*
D03*
Y-205750D02*
D03*
X49750Y-201224D02*
D03*
X49750Y-188724D02*
D03*
X-82500Y-161750D02*
D03*
Y-149250D02*
D03*
X-40000Y201250D02*
D03*
Y188750D02*
D03*
X-160000Y155850D02*
D03*
X-160000Y143350D02*
D03*
X180000Y52250D02*
D03*
Y39750D02*
D03*
X-514000Y293250D02*
D03*
Y280750D02*
D03*
X-476000Y187750D02*
D03*
Y200250D02*
D03*
X-581000Y189750D02*
D03*
Y202250D02*
D03*
D39*
X71750Y123000D02*
D03*
X84250D02*
D03*
X145750Y-130000D02*
D03*
X158250D02*
D03*
X53500Y-169974D02*
D03*
X41000D02*
D03*
X-78750Y-130500D02*
D03*
X-91250D02*
D03*
X-43750Y170000D02*
D03*
X-31250D02*
D03*
X-163750Y124600D02*
D03*
X-151250D02*
D03*
D40*
X140500Y42500D02*
D03*
X160000D02*
D03*
D41*
X-193000Y-168000D02*
D03*
D42*
Y168000D02*
D03*
D43*
X173500Y-184500D02*
D03*
Y-198500D02*
D03*
X179000Y180000D02*
D03*
Y194000D02*
D03*
X37250Y-201974D02*
D03*
X37250Y-187974D02*
D03*
X-95000Y-162500D02*
D03*
Y-148500D02*
D03*
X-27500Y202000D02*
D03*
Y188000D02*
D03*
X-147500Y156600D02*
D03*
X-147500Y142600D02*
D03*
X-85000Y235500D02*
D03*
Y249500D02*
D03*
X-87500Y-232500D02*
D03*
Y-246500D02*
D03*
X-40000Y238000D02*
D03*
Y252000D02*
D03*
X-72500Y-185500D02*
D03*
Y-199500D02*
D03*
X-55000Y190500D02*
D03*
Y204500D02*
D03*
X194000Y53000D02*
D03*
Y39000D02*
D03*
X207000Y53000D02*
D03*
Y39000D02*
D03*
D45*
X5750Y-210374D02*
D03*
X19750D02*
D03*
X-126500Y-170900D02*
D03*
X-112500D02*
D03*
X4000Y210400D02*
D03*
X-10000D02*
D03*
X-130000Y165000D02*
D03*
X-116000Y165000D02*
D03*
X-43000Y-260000D02*
D03*
X-57000D02*
D03*
X54250Y-157474D02*
D03*
X40250D02*
D03*
X54250Y-84974D02*
D03*
X40250D02*
D03*
X164000Y-144000D02*
D03*
X150000D02*
D03*
X-78000Y-118000D02*
D03*
X-92000D02*
D03*
X-78000Y-45500D02*
D03*
X-92000D02*
D03*
X-44500Y85000D02*
D03*
X-30500D02*
D03*
X-44500Y157500D02*
D03*
X-30500D02*
D03*
X-164500Y39600D02*
D03*
X-150500D02*
D03*
X-164500Y112100D02*
D03*
X-150500D02*
D03*
D46*
X242500Y45000D02*
D03*
D47*
X194000Y-138011D02*
D03*
X206700D02*
D03*
X219400D02*
D03*
Y-34000D02*
D03*
X206700D02*
D03*
X194000D02*
D03*
X181300D02*
D03*
D48*
Y-138011D02*
D03*
D79*
X100200Y245200D02*
D03*
Y232500D02*
D03*
X87500Y245200D02*
D03*
Y232500D02*
D03*
X74800Y245200D02*
D03*
Y232500D02*
D03*
X95200Y-250000D02*
D03*
X82500Y-237300D02*
D03*
Y-250000D02*
D03*
X69800D02*
D03*
Y-237300D02*
D03*
X95200D02*
D03*
D80*
X180500Y129000D02*
D03*
X201500D02*
D03*
X192500Y-173000D02*
D03*
X171500D02*
D03*
X192500Y-157000D02*
D03*
X171500D02*
D03*
D81*
X196875Y129000D02*
D03*
D82*
X184875Y129000D02*
D03*
D83*
X176125Y-173000D02*
D03*
Y-157000D02*
D03*
D84*
X188125Y-173000D02*
D03*
Y-157000D02*
D03*
D85*
X197750Y146500D02*
D03*
X81000Y-100000D02*
D03*
X181000Y155000D02*
D03*
X197500Y163375D02*
D03*
X55000Y185000D02*
D03*
X37000Y-255000D02*
D03*
X66000Y-100000D02*
D03*
X162000Y117000D02*
D03*
X156000Y-216000D02*
D03*
D86*
X325000Y-325000D02*
D03*
X-625000Y625000D02*
D03*
X325000D02*
D03*
D87*
X-152000Y-165000D02*
D03*
X-19500Y-204500D02*
D03*
X29500Y204500D02*
D03*
X-90500Y159500D02*
D03*
D88*
X-155750Y-206500D02*
D03*
X-23250Y-246000D02*
D03*
X33250Y246000D02*
D03*
X-86750Y201000D02*
D03*
D89*
X-147885Y-123737D02*
D03*
X-15385Y-163237D02*
D03*
X25385Y163237D02*
D03*
X-94615Y118237D02*
D03*
D90*
X112900Y238850D02*
D03*
X62100Y228690D02*
D03*
Y249010D02*
D03*
X107900Y-243650D02*
D03*
X57100Y-253810D02*
D03*
Y-233490D02*
D03*
D91*
X-550000Y300000D02*
D03*
X-590000D02*
D03*
D92*
X-125000Y94600D02*
D03*
X-5000Y140000D02*
D03*
X-117500Y-100500D02*
D03*
X14750Y-139974D02*
D03*
D93*
X-125000Y55000D02*
D03*
X-5000Y100400D02*
D03*
X-117500Y-60900D02*
D03*
X14750Y-100374D02*
D03*
D94*
X-442000Y107000D02*
D03*
Y127000D02*
D03*
Y147000D02*
D03*
Y167000D02*
D03*
Y187000D02*
D03*
Y207000D02*
D03*
X-624000Y126000D02*
D03*
Y146000D02*
D03*
Y166000D02*
D03*
Y186000D02*
D03*
X-538000Y-179000D02*
D03*
X-558000D02*
D03*
X-578000D02*
D03*
X-598000D02*
D03*
X251000Y0D02*
D03*
X231000D02*
D03*
X211000D02*
D03*
X191000D02*
D03*
X171000D02*
D03*
X151000D02*
D03*
X-597000Y-18000D02*
D03*
X-577000D02*
D03*
X-557000D02*
D03*
X-537000D02*
D03*
D95*
X12250Y-187474D02*
D03*
Y-242474D02*
D03*
X-122500Y142100D02*
D03*
Y197100D02*
D03*
X-2500Y187500D02*
D03*
Y242500D02*
D03*
X-120000Y-148000D02*
D03*
Y-203000D02*
D03*
D96*
X58000Y-67000D02*
D03*
X70000Y-53000D02*
D03*
D97*
X150000Y-144000D02*
D03*
X131250Y-137000D02*
D03*
X188125Y-157000D02*
D03*
X162257Y-144000D02*
D03*
X160000Y-169000D02*
D03*
X-586500Y149000D02*
D03*
Y165000D02*
D03*
X42000Y-233000D02*
D03*
Y-213750D02*
D03*
X83000Y-215000D02*
D03*
X135000Y-208950D02*
D03*
X99500Y-215000D02*
D03*
X37000Y-255000D02*
D03*
X124000Y144611D02*
D03*
X126000Y133611D02*
D03*
X102744Y143256D02*
D03*
X110022Y134978D02*
D03*
X117792Y134725D02*
D03*
X160000Y-159000D02*
D03*
X127762Y-129673D02*
D03*
X-235000Y-66000D02*
D03*
X97980Y-137072D02*
D03*
X-165802Y-41400D02*
D03*
X-60000Y-201000D02*
D03*
Y-126000D02*
D03*
Y-58000D02*
D03*
X161000Y-203250D02*
D03*
X57000Y-215250D02*
D03*
X124000Y-229000D02*
D03*
X188000Y178354D02*
D03*
X163672Y202500D02*
D03*
X235000Y-110000D02*
D03*
X-69000Y-70000D02*
D03*
X161000Y-190750D02*
D03*
X146000Y-183500D02*
D03*
Y-167000D02*
D03*
X70000Y-172500D02*
D03*
X108000Y-218750D02*
D03*
X116500Y-227328D02*
D03*
X-191000Y62000D02*
D03*
X-191000Y82000D02*
D03*
X-191000Y92000D02*
D03*
X-191000Y102000D02*
D03*
X-191000Y72000D02*
D03*
X-170172Y-67000D02*
D03*
X-166500Y-87000D02*
D03*
X-162839Y-114477D02*
D03*
X60724Y-163000D02*
D03*
X29000Y-178000D02*
D03*
X59750Y-143000D02*
D03*
X60000Y-186000D02*
D03*
X61500Y-149861D02*
D03*
X131010Y-154341D02*
D03*
X115360Y-189181D02*
D03*
X160474Y-178474D02*
D03*
X100000Y-172000D02*
D03*
X82500Y-250000D02*
D03*
X95200D02*
D03*
X59000Y83000D02*
D03*
X100322Y245325D02*
D03*
X50000Y257000D02*
D03*
X107750Y222000D02*
D03*
X78000Y214000D02*
D03*
X143000Y174000D02*
D03*
Y160000D02*
D03*
X68000Y165000D02*
D03*
X73000Y257000D02*
D03*
X131000Y235520D02*
D03*
X-69875Y219875D02*
D03*
X156000Y-216000D02*
D03*
X50000Y152000D02*
D03*
X49000Y177000D02*
D03*
X-20000Y177500D02*
D03*
X59000Y148281D02*
D03*
X65000Y137000D02*
D03*
X11971Y217017D02*
D03*
X27000Y124400D02*
D03*
X-39000Y-87000D02*
D03*
X110000Y-172500D02*
D03*
X112159Y-165841D02*
D03*
X103000Y-155000D02*
D03*
X-17250Y-124374D02*
D03*
X-1000Y-166000D02*
D03*
X-30589Y-151698D02*
D03*
X-45389Y-165389D02*
D03*
X-149500Y-81500D02*
D03*
X-17125Y-88000D02*
D03*
X-24000Y-80000D02*
D03*
X-132526Y-120000D02*
D03*
X-130394Y-160815D02*
D03*
X-179500Y-150500D02*
D03*
X-94500Y-170900D02*
D03*
X-68490Y-140510D02*
D03*
X31000Y-234000D02*
D03*
X-44000Y-219000D02*
D03*
X-49000Y-232000D02*
D03*
X-38000Y-247000D02*
D03*
X-52500Y-150500D02*
D03*
X-194000Y-77000D02*
D03*
X-170000Y-208000D02*
D03*
X-172000Y-184000D02*
D03*
X179000Y169000D02*
D03*
X155646Y174000D02*
D03*
X106567Y189646D02*
D03*
X95000Y180000D02*
D03*
X94383Y194433D02*
D03*
X-159000Y170000D02*
D03*
X-60000Y88000D02*
D03*
X-64000Y205000D02*
D03*
X-10000Y221000D02*
D03*
X-520000Y-239000D02*
D03*
Y-249000D02*
D03*
X-519000Y-88000D02*
D03*
Y-78000D02*
D03*
X77000Y-131072D02*
D03*
X78000Y-138000D02*
D03*
X91000Y-106000D02*
D03*
X125000Y-107000D02*
D03*
X94500Y137000D02*
D03*
X93000Y164000D02*
D03*
X124000Y235500D02*
D03*
X129000Y224000D02*
D03*
X-165000Y48000D02*
D03*
X-71000Y207000D02*
D03*
X111000Y205909D02*
D03*
X118000D02*
D03*
X90061Y199939D02*
D03*
X94000Y153000D02*
D03*
X117000Y152000D02*
D03*
X70500Y-85969D02*
D03*
X72638Y-142500D02*
D03*
X125000Y-191000D02*
D03*
X64750Y-116000D02*
D03*
X146500Y-223000D02*
D03*
X93000Y-202187D02*
D03*
X104000Y-184000D02*
D03*
X158000Y-107000D02*
D03*
X-39250Y-202000D02*
D03*
X-171500Y-160998D02*
D03*
X135735Y189500D02*
D03*
X-48366Y195909D02*
D03*
X49000Y205909D02*
D03*
X39274Y168398D02*
D03*
X-39000Y224517D02*
D03*
X-85000Y226000D02*
D03*
X69000Y214000D02*
D03*
X154000Y221000D02*
D03*
X157039Y195306D02*
D03*
X154000Y189000D02*
D03*
X-65000Y137000D02*
D03*
X-138000Y157000D02*
D03*
X-141000Y165000D02*
D03*
X-71000Y159000D02*
D03*
X-79661Y108577D02*
D03*
X-93000Y79000D02*
D03*
D98*
X160000Y43000D02*
D03*
X162000Y20000D02*
D03*
D99*
X-138500Y-205900D02*
D03*
X-6250Y-245374D02*
D03*
X16000Y245400D02*
D03*
X-104000Y200000D02*
D03*
M02*
