G04*
G04 #@! TF.GenerationSoftware,Altium Limited,Altium Designer,25.8.1 (18)*
G04*
G04 Layer_Color=128*
%FSLAX44Y44*%
%MOMM*%
G71*
G04*
G04 #@! TF.SameCoordinates,668C74B0-1D1B-4F50-AB7C-E7AA2C44617E*
G04*
G04*
G04 #@! TF.FilePolarity,Positive*
G04*
G01*
G75*
%ADD20R,2.6000X1.0000*%
%ADD22R,0.8000X0.8500*%
%ADD27R,0.9000X0.8000*%
%ADD28R,0.8500X0.8000*%
%ADD29R,0.5421X1.6539*%
%ADD30R,0.8000X0.9000*%
G04:AMPARAMS|DCode=31|XSize=1.4542mm|YSize=0.8821mm|CornerRadius=0.4411mm|HoleSize=0mm|Usage=FLASHONLY|Rotation=0.000|XOffset=0mm|YOffset=0mm|HoleType=Round|Shape=RoundedRectangle|*
%AMROUNDEDRECTD31*
21,1,1.4542,0.0000,0,0,0.0*
21,1,0.5720,0.8821,0,0,0.0*
1,1,0.8821,0.2860,0.0000*
1,1,0.8821,-0.2860,0.0000*
1,1,0.8821,-0.2860,0.0000*
1,1,0.8821,0.2860,0.0000*
%
%ADD31ROUNDEDRECTD31*%
G04:AMPARAMS|DCode=35|XSize=1.6539mm|YSize=0.5421mm|CornerRadius=0.2711mm|HoleSize=0mm|Usage=FLASHONLY|Rotation=90.000|XOffset=0mm|YOffset=0mm|HoleType=Round|Shape=RoundedRectangle|*
%AMROUNDEDRECTD35*
21,1,1.6539,0.0000,0,0,90.0*
21,1,1.1118,0.5421,0,0,90.0*
1,1,0.5421,0.0000,0.5559*
1,1,0.5421,0.0000,-0.5559*
1,1,0.5421,0.0000,-0.5559*
1,1,0.5421,0.0000,0.5559*
%
%ADD35ROUNDEDRECTD35*%
G04:AMPARAMS|DCode=37|XSize=3.45mm|YSize=1.85mm|CornerRadius=0mm|HoleSize=0mm|Usage=FLASHONLY|Rotation=135.000|XOffset=0mm|YOffset=0mm|HoleType=Round|Shape=Rectangle|*
%AMROTATEDRECTD37*
4,1,4,1.8738,-0.5657,0.5657,-1.8738,-1.8738,0.5657,-0.5657,1.8738,1.8738,-0.5657,0.0*
%
%ADD37ROTATEDRECTD37*%

G04:AMPARAMS|DCode=38|XSize=1.4542mm|YSize=3.1821mm|CornerRadius=0.4435mm|HoleSize=0mm|Usage=FLASHONLY|Rotation=0.000|XOffset=0mm|YOffset=0mm|HoleType=Round|Shape=RoundedRectangle|*
%AMROUNDEDRECTD38*
21,1,1.4542,2.2951,0,0,0.0*
21,1,0.5671,3.1821,0,0,0.0*
1,1,0.8870,0.2836,-1.1476*
1,1,0.8870,-0.2836,-1.1476*
1,1,0.8870,-0.2836,1.1476*
1,1,0.8870,0.2836,1.1476*
%
%ADD38ROUNDEDRECTD38*%
%ADD41R,3.4500X1.8500*%
%ADD42R,1.5500X1.6000*%
%ADD43R,1.2000X0.5000*%
%ADD44R,0.5000X1.2000*%
G04:AMPARAMS|DCode=45|XSize=3.45mm|YSize=1.85mm|CornerRadius=0mm|HoleSize=0mm|Usage=FLASHONLY|Rotation=45.000|XOffset=0mm|YOffset=0mm|HoleType=Round|Shape=Rectangle|*
%AMROTATEDRECTD45*
4,1,4,-0.5657,-1.8738,-1.8738,-0.5657,0.5657,1.8738,1.8738,0.5657,-0.5657,-1.8738,0.0*
%
%ADD45ROTATEDRECTD45*%

%ADD46R,1.4542X0.8821*%
%ADD47C,0.0160*%
%ADD48R,1.9000X0.6000*%
%ADD100R,0.9000X0.6000*%
%ADD102R,1.0000X1.4000*%
%ADD103R,1.4000X1.1000*%
%ADD108R,0.6000X0.9000*%
%ADD115R,1.0000X2.6000*%
G36*
X-584000Y160000D02*
X-597750D01*
X-592750Y165000D01*
X-597750Y170000D01*
X-584000D01*
Y160000D01*
D02*
G37*
G36*
X-600750Y170000D02*
X-595750Y165000D01*
X-600750Y160000D01*
X-610000D01*
Y170000D01*
X-600750Y170000D01*
D02*
G37*
G36*
X211000Y153875D02*
X206000Y148875D01*
X201000Y153875D01*
Y163125D01*
X211000D01*
X211000Y153875D01*
D02*
G37*
G36*
X194000D02*
X189000Y148875D01*
X184000Y153875D01*
Y163125D01*
X194000D01*
X194000Y153875D01*
D02*
G37*
G36*
X211000Y137125D02*
X201000D01*
Y150875D01*
X206000Y145875D01*
X211000Y150875D01*
Y137125D01*
D02*
G37*
G36*
X194000D02*
X184000D01*
Y150875D01*
X189000Y145875D01*
X194000Y150875D01*
Y137125D01*
D02*
G37*
G36*
X-584000Y144000D02*
X-597750D01*
X-592750Y149000D01*
X-597750Y154000D01*
X-584000D01*
Y144000D01*
D02*
G37*
G36*
X-600750Y154000D02*
X-595750Y149000D01*
X-600750Y144000D01*
X-610000D01*
Y154000D01*
X-600750Y154000D01*
D02*
G37*
G36*
X-552000Y-43250D02*
X-557000Y-48250D01*
X-562000Y-43250D01*
Y-34000D01*
X-552000D01*
X-552000Y-43250D01*
D02*
G37*
G36*
X-572000Y-43750D02*
X-577000Y-48750D01*
X-582000Y-43750D01*
Y-34500D01*
X-572000D01*
X-572000Y-43750D01*
D02*
G37*
G36*
X-552000Y-60000D02*
X-562000D01*
Y-46250D01*
X-557000Y-51250D01*
X-552000Y-46250D01*
Y-60000D01*
D02*
G37*
G36*
X-572000Y-60500D02*
X-582000D01*
Y-46750D01*
X-577000Y-51750D01*
X-572000Y-46750D01*
Y-60500D01*
D02*
G37*
G36*
X178750Y-111000D02*
X183750Y-116000D01*
X170000D01*
Y-106000D01*
X183750D01*
X178750Y-111000D01*
D02*
G37*
G36*
X196000Y-116000D02*
X186750Y-116000D01*
X181750Y-111000D01*
X186750Y-106000D01*
X196000D01*
Y-116000D01*
D02*
G37*
G36*
X-553000Y-204250D02*
X-558000Y-209250D01*
X-563000Y-204250D01*
Y-195000D01*
X-553000D01*
X-553000Y-204250D01*
D02*
G37*
G36*
X-573000Y-204750D02*
X-578000Y-209750D01*
X-583000Y-204750D01*
Y-195500D01*
X-573000D01*
X-573000Y-204750D01*
D02*
G37*
G36*
X-553000Y-221000D02*
X-563000D01*
Y-207250D01*
X-558000Y-212250D01*
X-553000Y-207250D01*
Y-221000D01*
D02*
G37*
G36*
X-573000Y-221500D02*
X-583000D01*
Y-207750D01*
X-578000Y-212750D01*
X-573000Y-207750D01*
Y-221500D01*
D02*
G37*
D20*
X-597002Y165000D02*
D03*
X-597001Y149000D02*
D03*
D22*
X-471000Y116750D02*
D03*
Y129250D02*
D03*
X57000Y-215250D02*
D03*
X-59257Y-199507D02*
D03*
X108000Y-218750D02*
D03*
X57000Y-202750D02*
D03*
X-59257Y-187007D02*
D03*
X50000Y244750D02*
D03*
Y257250D02*
D03*
X-70000Y232250D02*
D03*
Y219750D02*
D03*
X67500Y188750D02*
D03*
X108000Y-231250D02*
D03*
X67500Y163750D02*
D03*
Y176250D02*
D03*
Y151250D02*
D03*
D27*
X-594000Y196000D02*
D03*
Y182000D02*
D03*
X166000Y135000D02*
D03*
Y149000D02*
D03*
X-235000Y-75500D02*
D03*
X140000Y224000D02*
D03*
Y210000D02*
D03*
X-83000Y133000D02*
D03*
X-222000Y96000D02*
D03*
X-235000Y-89500D02*
D03*
X-222000Y82000D02*
D03*
X-159500Y-152900D02*
D03*
Y-138900D02*
D03*
X-90000Y-72500D02*
D03*
Y-58500D02*
D03*
X-152500Y66600D02*
D03*
X-152500Y52600D02*
D03*
X-32500Y112000D02*
D03*
Y98000D02*
D03*
X42250Y-111974D02*
D03*
Y-97974D02*
D03*
X-83000Y147000D02*
D03*
X37000Y178400D02*
D03*
Y192400D02*
D03*
X-27250Y-178374D02*
D03*
X-27250Y-192374D02*
D03*
D28*
X87250Y-116000D02*
D03*
X74750D02*
D03*
X151250Y-42500D02*
D03*
Y20000D02*
D03*
X120250Y222000D02*
D03*
X166250Y122000D02*
D03*
X67500Y205000D02*
D03*
X135750Y198000D02*
D03*
X148250D02*
D03*
X107750Y222000D02*
D03*
X80000Y205000D02*
D03*
X153750Y122000D02*
D03*
X138750Y20000D02*
D03*
Y-42500D02*
D03*
D29*
X180950Y122005D02*
D03*
D30*
X-457000Y167000D02*
D03*
X-471000D02*
D03*
X-457000Y147000D02*
D03*
X-471000D02*
D03*
X124000Y-220000D02*
D03*
X-143000Y-68000D02*
D03*
X-10750Y-107474D02*
D03*
X-85500Y62100D02*
D03*
X138000Y-220000D02*
D03*
X20500Y107500D02*
D03*
X-99500Y62100D02*
D03*
X-157000Y-68000D02*
D03*
X34500Y107500D02*
D03*
X-24750Y-107474D02*
D03*
D31*
X81000Y193000D02*
D03*
Y170000D02*
D03*
D35*
X180950Y17995D02*
D03*
X193650D02*
D03*
X206350D02*
D03*
X219050D02*
D03*
Y122005D02*
D03*
X206350D02*
D03*
X193650D02*
D03*
D37*
X-193000Y-168000D02*
D03*
D38*
X142500Y170000D02*
D03*
D41*
X-620000Y80000D02*
D03*
X-440000D02*
D03*
X242500Y-35000D02*
D03*
D42*
X172250Y-25000D02*
D03*
X152750D02*
D03*
D43*
X87500Y-132000D02*
D03*
X172500Y-188000D02*
D03*
Y-180000D02*
D03*
Y-172000D02*
D03*
Y-164000D02*
D03*
Y-156000D02*
D03*
Y-148000D02*
D03*
Y-140000D02*
D03*
Y-132000D02*
D03*
X87500Y-148000D02*
D03*
Y-156000D02*
D03*
Y-164000D02*
D03*
Y-180000D02*
D03*
Y-188000D02*
D03*
Y-172000D02*
D03*
Y-140000D02*
D03*
D44*
X102000Y-117500D02*
D03*
X126000Y-202500D02*
D03*
X158000D02*
D03*
Y-117500D02*
D03*
X150000D02*
D03*
X142000D02*
D03*
X134000D02*
D03*
X126000D02*
D03*
X118000D02*
D03*
X110000D02*
D03*
X102000Y-202500D02*
D03*
X110000D02*
D03*
X118000D02*
D03*
X134000D02*
D03*
X142000D02*
D03*
X150000D02*
D03*
D45*
X-193000Y168000D02*
D03*
D46*
X81000Y147000D02*
D03*
D47*
X325000Y-325000D02*
D03*
Y625000D02*
D03*
X-625000D02*
D03*
D48*
X52000Y215000D02*
D03*
X33000Y224500D02*
D03*
Y205500D02*
D03*
D100*
X70000Y-215500D02*
D03*
X94000Y-225000D02*
D03*
X70000Y-234500D02*
D03*
X94000D02*
D03*
Y-215500D02*
D03*
D102*
X-138000Y-84500D02*
D03*
X-5750Y-123974D02*
D03*
X-95000Y100600D02*
D03*
X-85500Y78600D02*
D03*
X-104500Y78600D02*
D03*
X15500Y124000D02*
D03*
X-147500Y-106500D02*
D03*
X-157000Y-84500D02*
D03*
X25000Y146000D02*
D03*
X34500Y124000D02*
D03*
X-24750Y-123974D02*
D03*
X-15250Y-145974D02*
D03*
D103*
X-90000Y-105000D02*
D03*
X42250Y-144474D02*
D03*
X-32500Y144500D02*
D03*
X-152500Y99100D02*
D03*
X-90000Y-86000D02*
D03*
X-152500Y80100D02*
D03*
X-32500Y125500D02*
D03*
X42250Y-125474D02*
D03*
D108*
X97000Y244500D02*
D03*
X87500Y220500D02*
D03*
X78000D02*
D03*
Y244500D02*
D03*
X97000Y220500D02*
D03*
D115*
X-558000Y-208000D02*
D03*
X-556999Y-47000D02*
D03*
X205999Y150125D02*
D03*
X188999D02*
D03*
X-577000Y-47500D02*
D03*
X-577999Y-208500D02*
D03*
M02*
