G04*
G04 #@! TF.GenerationSoftware,Altium Limited,Altium Designer,25.8.1 (18)*
G04*
G04 Layer_Color=8388736*
%FSLAX44Y44*%
%MOMM*%
G71*
G04*
G04 #@! TF.SameCoordinates,2DE5FF01-4093-4F91-ACCA-3BB073B8CBF2*
G04*
G04*
G04 #@! TF.FilePolarity,Negative*
G04*
G01*
G75*
%ADD26R,0.3048X0.8128*%
%ADD27R,1.4542X0.8821*%
G04:AMPARAMS|DCode=28|XSize=1.4542mm|YSize=3.1821mm|CornerRadius=0.4435mm|HoleSize=0mm|Usage=FLASHONLY|Rotation=0.000|XOffset=0mm|YOffset=0mm|HoleType=Round|Shape=RoundedRectangle|*
%AMROUNDEDRECTD28*
21,1,1.4542,2.2951,0,0,0.0*
21,1,0.5671,3.1821,0,0,0.0*
1,1,0.8870,0.2836,-1.1476*
1,1,0.8870,-0.2836,-1.1476*
1,1,0.8870,-0.2836,1.1476*
1,1,0.8870,0.2836,1.1476*
%
%ADD28ROUNDEDRECTD28*%
G04:AMPARAMS|DCode=29|XSize=1.4542mm|YSize=0.8821mm|CornerRadius=0.4411mm|HoleSize=0mm|Usage=FLASHONLY|Rotation=0.000|XOffset=0mm|YOffset=0mm|HoleType=Round|Shape=RoundedRectangle|*
%AMROUNDEDRECTD29*
21,1,1.4542,0.0000,0,0,0.0*
21,1,0.5720,0.8821,0,0,0.0*
1,1,0.8821,0.2860,0.0000*
1,1,0.8821,-0.2860,0.0000*
1,1,0.8821,-0.2860,0.0000*
1,1,0.8821,0.2860,0.0000*
%
%ADD29ROUNDEDRECTD29*%
%ADD30R,1.2000X0.5000*%
%ADD31R,0.5000X1.2000*%
%ADD32R,1.6539X0.5421*%
G04:AMPARAMS|DCode=33|XSize=1.6539mm|YSize=0.5421mm|CornerRadius=0.2711mm|HoleSize=0mm|Usage=FLASHONLY|Rotation=0.000|XOffset=0mm|YOffset=0mm|HoleType=Round|Shape=RoundedRectangle|*
%AMROUNDEDRECTD33*
21,1,1.6539,0.0000,0,0,0.0*
21,1,1.1118,0.5421,0,0,0.0*
1,1,0.5421,0.5559,0.0000*
1,1,0.5421,-0.5559,0.0000*
1,1,0.5421,-0.5559,0.0000*
1,1,0.5421,0.5559,0.0000*
%
%ADD33ROUNDEDRECTD33*%
G04:AMPARAMS|DCode=47|XSize=1.6539mm|YSize=0.5421mm|CornerRadius=0.2711mm|HoleSize=0mm|Usage=FLASHONLY|Rotation=90.000|XOffset=0mm|YOffset=0mm|HoleType=Round|Shape=RoundedRectangle|*
%AMROUNDEDRECTD47*
21,1,1.6539,0.0000,0,0,90.0*
21,1,1.1118,0.5421,0,0,90.0*
1,1,0.5421,0.0000,0.5559*
1,1,0.5421,0.0000,-0.5559*
1,1,0.5421,0.0000,-0.5559*
1,1,0.5421,0.0000,0.5559*
%
%ADD47ROUNDEDRECTD47*%
%ADD48R,0.5421X1.6539*%
%ADD49R,2.8000X1.2000*%
%ADD50C,0.9932*%
%ADD51R,1.6032X1.2032*%
%ADD52R,2.1032X0.8032*%
%ADD53R,2.9032X3.5032*%
%ADD54R,2.9032X1.1032*%
%ADD55R,1.5032X0.5032*%
%ADD56R,2.4032X2.0032*%
%ADD57R,1.8032X1.7532*%
%ADD58R,1.3032X1.7032*%
%ADD59R,0.7032X1.2032*%
%ADD60R,1.0032X1.0532*%
%ADD61R,1.0532X1.0032*%
%ADD62R,1.7532X1.8032*%
G04:AMPARAMS|DCode=63|XSize=3.6532mm|YSize=2.0532mm|CornerRadius=0mm|HoleSize=0mm|Usage=FLASHONLY|Rotation=135.000|XOffset=0mm|YOffset=0mm|HoleType=Round|Shape=Rectangle|*
%AMROTATEDRECTD63*
4,1,4,2.0175,-0.5657,0.5657,-2.0175,-2.0175,0.5657,-0.5657,2.0175,2.0175,-0.5657,0.0*
%
%ADD63ROTATEDRECTD63*%

G04:AMPARAMS|DCode=64|XSize=3.6532mm|YSize=2.0532mm|CornerRadius=0mm|HoleSize=0mm|Usage=FLASHONLY|Rotation=45.000|XOffset=0mm|YOffset=0mm|HoleType=Round|Shape=Rectangle|*
%AMROTATEDRECTD64*
4,1,4,-0.5657,-2.0175,-2.0175,-0.5657,0.5657,2.0175,2.0175,0.5657,-0.5657,-2.0175,0.0*
%
%ADD64ROTATEDRECTD64*%

%ADD65C,1.2032*%
%ADD66R,1.1032X1.0032*%
%ADD67C,2.0320*%
%ADD68R,1.0032X1.1032*%
%ADD69R,3.6532X2.0532*%
%ADD70C,1.1032*%
%ADD71C,1.9812*%
%ADD72C,0.2032*%
%ADD73C,3.0480*%
%ADD74R,3.0480X3.0480*%
%ADD75C,1.8032*%
%ADD76C,2.6032*%
%ADD77C,1.7032*%
%ADD78C,0.7032*%
G36*
X-255867Y484785D02*
X-255584Y484502D01*
X-254830Y483183D01*
X-254642Y481676D01*
X-254830Y480922D01*
X-255019Y480357D01*
X-255207Y478661D01*
X-256149Y476588D01*
X-257186Y475552D01*
X-257563Y475363D01*
X-259258Y474610D01*
X-260201Y474421D01*
X-261896Y473668D01*
X-263027Y473479D01*
X-264723Y472725D01*
X-266042Y472537D01*
X-267738Y471783D01*
X-268868Y471595D01*
X-270564Y470841D01*
X-271318Y470653D01*
X-271883Y470464D01*
X-272825Y469899D01*
X-273767Y469522D01*
X-274709Y468957D01*
X-275463Y468769D01*
X-275840Y468392D01*
X-277347Y467826D01*
X-277818Y467355D01*
X-278855Y467073D01*
X-279231Y466696D01*
X-281870Y465188D01*
X-282246Y465000D01*
X-282623Y464623D01*
X-283565Y464246D01*
X-283942Y463870D01*
X-284319Y463681D01*
X-286392Y462362D01*
X-287334Y461797D01*
X-287899Y461231D01*
X-289218Y460478D01*
X-290537Y459536D01*
X-291479Y458970D01*
X-291856Y458593D01*
X-292798Y458028D01*
X-293552Y457275D01*
X-293929Y457086D01*
X-294682Y456332D01*
X-295059Y456144D01*
X-295625Y455579D01*
X-296001Y455390D01*
X-296472Y454919D01*
X-297603Y454166D01*
X-297791Y453789D01*
X-298074Y453694D01*
X-298828Y452941D01*
X-299205Y452752D01*
X-300147Y451810D01*
X-300524Y451622D01*
X-300618Y451339D01*
X-300900Y451245D01*
X-301843Y450303D01*
X-302219Y450114D01*
X-303162Y449172D01*
X-303538Y448984D01*
X-306742Y445781D01*
X-307401Y445310D01*
X-307589Y444933D01*
X-307872Y444650D01*
X-308249Y444462D01*
X-308532Y444179D01*
X-308720Y443802D01*
X-309003Y443708D01*
X-309474Y443237D01*
X-309662Y442860D01*
X-309945Y442766D01*
X-310416Y442295D01*
X-310604Y441918D01*
X-310887Y441824D01*
X-311170Y441541D01*
X-311358Y441164D01*
X-313808Y438715D01*
X-313996Y438338D01*
X-315503Y436830D01*
X-315692Y436454D01*
X-316257Y435888D01*
X-316822Y434946D01*
X-317388Y434381D01*
X-317859Y433721D01*
X-318235Y433533D01*
X-318518Y433062D01*
X-318707Y432685D01*
X-319272Y432120D01*
X-319460Y431743D01*
X-320214Y430989D01*
X-320402Y429482D01*
X-318989Y428069D01*
X-318612Y427880D01*
X-318047Y427315D01*
X-317670Y427127D01*
X-317105Y426561D01*
X-316728Y426373D01*
X-314655Y425054D01*
X-312960Y424112D01*
X-312583Y423735D01*
X-311641Y423358D01*
X-311170Y422887D01*
X-309945Y422416D01*
X-309474Y421945D01*
X-308249Y421474D01*
X-307778Y421003D01*
X-306553Y420532D01*
X-306176Y420155D01*
X-305234Y419778D01*
X-304292Y419213D01*
X-303915Y419024D01*
X-302973Y418647D01*
X-302596Y418270D01*
X-302219Y418082D01*
X-301277Y417705D01*
X-300335Y417140D01*
X-299393Y416763D01*
X-299016Y416386D01*
X-298263Y416198D01*
X-297320Y415633D01*
X-296943Y415444D01*
X-296001Y415067D01*
X-295059Y414502D01*
X-290914Y412618D01*
X-290160Y412429D01*
X-289783Y412052D01*
X-288841Y411676D01*
X-288088Y411487D01*
X-287805Y411205D01*
X-286015Y410545D01*
X-285638Y410168D01*
X-284884Y409980D01*
X-283188Y409226D01*
X-282435Y409038D01*
X-281116Y408661D01*
X-280739Y408284D01*
X-279608Y408096D01*
X-278289Y407530D01*
X-276594Y407153D01*
X-275746Y406871D01*
X-274804Y406494D01*
X-273013Y406211D01*
X-271789Y405740D01*
X-270564Y405458D01*
X-269245Y405269D01*
X-268491Y405081D01*
X-267549Y404704D01*
X-265665Y404515D01*
X-264911Y404327D01*
X-263875Y404044D01*
X-261802Y403668D01*
X-259918Y403479D01*
X-258410Y403102D01*
X-257468Y402914D01*
X-255961Y402725D01*
X-253888Y402537D01*
X-250497Y401972D01*
X-248047Y401783D01*
X-244561Y401501D01*
X-243808Y401312D01*
X-243337Y400653D01*
X-242583Y399334D01*
X-242394Y398580D01*
X-241923Y398109D01*
X-241641Y397073D01*
X-240887Y395942D01*
X-240699Y394623D01*
X-240887Y393870D01*
X-241170Y393775D01*
X-241546Y393398D01*
X-242489Y392833D01*
X-243525Y392362D01*
X-244938Y392079D01*
X-246257Y391891D01*
X-247293Y391608D01*
X-248047Y391420D01*
X-249178Y391231D01*
X-251439Y391043D01*
X-252569Y390855D01*
X-253983Y390572D01*
X-254548Y390384D01*
X-260577Y390195D01*
X-261143Y390007D01*
X-269056Y389818D01*
X-274332Y390007D01*
X-276217Y390195D01*
X-281493Y390384D01*
X-282246Y390572D01*
X-283565Y390760D01*
X-284131Y390949D01*
X-286768Y391137D01*
X-289407Y391514D01*
X-290349Y391891D01*
X-292610Y392079D01*
X-293363Y392268D01*
X-294682Y392645D01*
X-295248Y392833D01*
X-297132Y393022D01*
X-299299Y393681D01*
X-301089Y393964D01*
X-301937Y394246D01*
X-303162Y394717D01*
X-304480Y394906D01*
X-305328Y395188D01*
X-306553Y395659D01*
X-307872Y395848D01*
X-308909Y396319D01*
X-310887Y396790D01*
X-311829Y397355D01*
X-313148Y397544D01*
X-314844Y398298D01*
X-315598Y398486D01*
X-317293Y399240D01*
X-318047Y399428D01*
X-319743Y400182D01*
X-321062Y400559D01*
X-321439Y400935D01*
X-322192Y401124D01*
X-323511Y401689D01*
X-324454Y402066D01*
X-326526Y403008D01*
X-327280Y403196D01*
X-327563Y403479D01*
X-328787Y403950D01*
X-330012Y404610D01*
X-331049Y404892D01*
X-331614Y405458D01*
X-332367Y405646D01*
X-333592Y406306D01*
X-334817Y406777D01*
X-335194Y407153D01*
X-335571Y407342D01*
X-336513Y407719D01*
X-336984Y408190D01*
X-338020Y408472D01*
X-338397Y408849D01*
X-341600Y410545D01*
X-342919Y411299D01*
X-344615Y412241D01*
X-344992Y412618D01*
X-345369Y412806D01*
X-346311Y413183D01*
X-346688Y413560D01*
X-347065Y413748D01*
X-348007Y414125D01*
X-348949Y414691D01*
X-349326Y415067D01*
X-351021Y416009D01*
X-352341Y416763D01*
X-353660Y417705D01*
X-354978Y418459D01*
X-355355Y418836D01*
X-357993Y420343D01*
X-358088Y420626D01*
X-358559Y420909D01*
X-358935Y421097D01*
X-360914Y423075D01*
X-361102Y423452D01*
X-361762Y423546D01*
X-361856Y426279D01*
X-361102Y426467D01*
X-360914Y426844D01*
X-360160Y427598D01*
X-359972Y427974D01*
X-359218Y428728D01*
X-359030Y429105D01*
X-358088Y430047D01*
X-357899Y430424D01*
X-357522Y430612D01*
X-357334Y430989D01*
X-355638Y432685D01*
X-355449Y433062D01*
X-353000Y435511D01*
X-352812Y435888D01*
X-350927Y437773D01*
X-350739Y438149D01*
X-350362Y438338D01*
X-350174Y438715D01*
X-348289Y440599D01*
X-348101Y440976D01*
X-345463Y443614D01*
X-345275Y443991D01*
X-344992Y444085D01*
X-344709Y444367D01*
X-344521Y444744D01*
X-344238Y445027D01*
X-343861Y445215D01*
X-343484Y445781D01*
X-343108Y445969D01*
X-342825Y446252D01*
X-342637Y446628D01*
X-342071Y447005D01*
X-341883Y447382D01*
X-341129Y447948D01*
X-340941Y448324D01*
X-340658Y448607D01*
X-340281Y448795D01*
X-339528Y449549D01*
X-339151Y449738D01*
X-337832Y451057D01*
X-337455Y451245D01*
X-336324Y452375D01*
X-335947Y452564D01*
X-334440Y454071D01*
X-334063Y454260D01*
X-333686Y454637D01*
X-333592Y454731D01*
X-333310Y455014D01*
X-332933Y455202D01*
X-332179Y455956D01*
X-331802Y456144D01*
X-331520Y456427D01*
X-329164Y458217D01*
X-327468Y459536D01*
X-327091Y459724D01*
X-326715Y460101D01*
X-325773Y460666D01*
X-325207Y461231D01*
X-324830Y461420D01*
X-322946Y462551D01*
X-322381Y463116D01*
X-321816Y463304D01*
X-321062Y464058D01*
X-320308Y464246D01*
X-319743Y464812D01*
X-318801Y465188D01*
X-318424Y465565D01*
X-317105Y466319D01*
X-316728Y466696D01*
X-316163Y466884D01*
X-315786Y467261D01*
X-314467Y468015D01*
X-314090Y468392D01*
X-313713Y468580D01*
X-312771Y468957D01*
X-312394Y469334D01*
X-311452Y469711D01*
X-310322Y470464D01*
X-309568Y470653D01*
X-309097Y471124D01*
X-307872Y471595D01*
X-307401Y472066D01*
X-306176Y472537D01*
X-305800Y472914D01*
X-304857Y473291D01*
X-304292Y473479D01*
X-303350Y474044D01*
X-299205Y475929D01*
X-297886Y476494D01*
X-296943Y476871D01*
X-295342Y477530D01*
X-294305Y477813D01*
X-292610Y478567D01*
X-291856Y478755D01*
X-290537Y479320D01*
X-289030Y479697D01*
X-287993Y480168D01*
X-286015Y480639D01*
X-284696Y481205D01*
X-283942Y481393D01*
X-282623Y481581D01*
X-281304Y482147D01*
X-279797Y482335D01*
X-278289Y482712D01*
X-277724Y482900D01*
X-275934Y483183D01*
X-274427Y483372D01*
X-272919Y483748D01*
X-271977Y483937D01*
X-269904Y484125D01*
X-267643Y484314D01*
X-265665Y484596D01*
X-265100Y484785D01*
X-256621Y484973D01*
X-255867Y484785D01*
D02*
G37*
G36*
X-178612Y559966D02*
X-178141Y559495D01*
X-176917Y559024D01*
X-176446Y558553D01*
X-175221Y558082D01*
X-174844Y557705D01*
X-174467Y557517D01*
X-172394Y556198D01*
X-171075Y555444D01*
X-170699Y555067D01*
X-169380Y554314D01*
X-168061Y553372D01*
X-166742Y552618D01*
X-166176Y552052D01*
X-165611Y551864D01*
X-165046Y551299D01*
X-164104Y550922D01*
X-163727Y550545D01*
X-162691Y549886D01*
X-161183Y548943D01*
X-160995Y548567D01*
X-160147Y548096D01*
X-159770Y547907D01*
X-159393Y547530D01*
X-158734Y547248D01*
X-157697Y546400D01*
X-157320Y546211D01*
X-157226Y545929D01*
X-156190Y545458D01*
X-155625Y544892D01*
X-155248Y544704D01*
X-154871Y544327D01*
X-153929Y543762D01*
X-153552Y543385D01*
X-152610Y542820D01*
X-152233Y542443D01*
X-151291Y541878D01*
X-150914Y541501D01*
X-149972Y540935D01*
X-149595Y540559D01*
X-148653Y539993D01*
X-148276Y539616D01*
X-147334Y539051D01*
X-146957Y538674D01*
X-145921Y538015D01*
X-144884Y537167D01*
X-143565Y536225D01*
X-142623Y535659D01*
X-142058Y535094D01*
X-141116Y534529D01*
X-140739Y534152D01*
X-140362Y533964D01*
X-138478Y532645D01*
X-137159Y531891D01*
X-136782Y531514D01*
X-135840Y530949D01*
X-135463Y530572D01*
X-134521Y530007D01*
X-131883Y528122D01*
X-130941Y527557D01*
X-130564Y527180D01*
X-129245Y526427D01*
X-128680Y525861D01*
X-128114Y525673D01*
X-127361Y524919D01*
X-126607Y524731D01*
X-126042Y524166D01*
X-125100Y523789D01*
X-124534Y523223D01*
X-123592Y522847D01*
X-123215Y522470D01*
X-122273Y521904D01*
X-121896Y521716D01*
X-121519Y521339D01*
X-120012Y521151D01*
X-119070Y520774D01*
X-117751Y520586D01*
X-116715Y520868D01*
X-115490Y521151D01*
X-113606Y521339D01*
X-112852Y521528D01*
X-111910Y521904D01*
X-109837Y522093D01*
X-108330Y522470D01*
X-107293Y522752D01*
X-105126Y523035D01*
X-104373Y523223D01*
X-103336Y523506D01*
X-102583Y523694D01*
X-100416Y523977D01*
X-99662Y524166D01*
X-98626Y524448D01*
X-97213Y524731D01*
X-95894Y524919D01*
X-95140Y525108D01*
X-94292Y525390D01*
X-92690Y525673D01*
X-91371Y525861D01*
X-90618Y526050D01*
X-89676Y526427D01*
X-87791Y526615D01*
X-87038Y526804D01*
X-85436Y527275D01*
X-83646Y527557D01*
X-82327Y527746D01*
X-81385Y528122D01*
X-78935Y528499D01*
X-78182Y528688D01*
X-76297Y529253D01*
X-74413Y529441D01*
X-73660Y529630D01*
X-72717Y530007D01*
X-70079Y530384D01*
X-69326Y530572D01*
X-68384Y530949D01*
X-66499Y531137D01*
X-65746Y531326D01*
X-64144Y531797D01*
X-61977Y532079D01*
X-60375Y532551D01*
X-59339Y532833D01*
X-56701Y533210D01*
X-55759Y533587D01*
X-55005Y533775D01*
X-53121Y533964D01*
X-51519Y534435D01*
X-50106Y534717D01*
X-48787Y534906D01*
X-47186Y535377D01*
X-46244Y535565D01*
X-44736Y535754D01*
X-43794Y535942D01*
X-42852Y536319D01*
X-40685Y536602D01*
X-39931Y536790D01*
X-38330Y537261D01*
X-35974Y537544D01*
X-35221Y537732D01*
X-34279Y538109D01*
X-32583Y538298D01*
X-31829Y538486D01*
X-30510Y538674D01*
X-29568Y539051D01*
X-28061Y539240D01*
X-26742Y539428D01*
X-25988Y539616D01*
X-25046Y539993D01*
X-22973Y540182D01*
X-21466Y540559D01*
X-20429Y540841D01*
X-17132Y541312D01*
X-16190Y541689D01*
X-15059Y541878D01*
X-12421Y542254D01*
X-10820Y542725D01*
X-9124Y542914D01*
X-7993Y543102D01*
X-7240Y543291D01*
X-5261Y543762D01*
X-3377Y543950D01*
X-1775Y544421D01*
X-174Y544704D01*
X1711Y544892D01*
X2747Y545175D01*
X4820Y545552D01*
X6704Y545740D01*
X8965Y546306D01*
X11697Y546588D01*
X13205Y546965D01*
X13770Y547153D01*
X15466Y547342D01*
X18104Y547719D01*
X19046Y548096D01*
X21118Y548284D01*
X23662Y548567D01*
X25170Y548943D01*
X26300Y549132D01*
X28750Y549320D01*
X29880Y549509D01*
X31388Y549886D01*
X32895Y550074D01*
X34968Y550262D01*
X36098Y550451D01*
X37606Y550828D01*
X39867Y551016D01*
X42505Y551205D01*
X44295Y551487D01*
X44860Y551676D01*
X48911Y551958D01*
X50984Y552147D01*
X53904Y552429D01*
X54470Y552618D01*
X61253Y552806D01*
X61818Y552995D01*
X73501Y553183D01*
X74066Y553372D01*
X78117Y553277D01*
X81697Y553089D01*
X87727Y552900D01*
X92437Y552712D01*
X94133Y552524D01*
X95641Y552335D01*
X99974Y551958D01*
X102612Y551770D01*
X103743Y551581D01*
X105627Y551205D01*
X109773Y550828D01*
X110715Y550639D01*
X112316Y550357D01*
X113070Y550168D01*
X115520Y549980D01*
X116839Y549603D01*
X117404Y549414D01*
X119476Y549226D01*
X121737Y548849D01*
X122680Y548472D01*
X125129Y548284D01*
X125883Y548096D01*
X127485Y547625D01*
X129651Y547342D01*
X131253Y546871D01*
X132007Y546682D01*
X133985Y546400D01*
X135587Y545929D01*
X136341Y545740D01*
X137848Y545552D01*
X138790Y545363D01*
X139732Y544987D01*
X140768Y544704D01*
X142087Y544515D01*
X143124Y544044D01*
X144725Y543762D01*
X145479Y543573D01*
X146798Y543008D01*
X148682Y542820D01*
X150567Y542066D01*
X151886Y541878D01*
X153205Y541312D01*
X154335Y541124D01*
X155089Y540935D01*
X156408Y540370D01*
X157538Y540182D01*
X158292Y539993D01*
X159328Y539522D01*
X160742Y539240D01*
X161495Y539051D01*
X162532Y538580D01*
X163945Y538298D01*
X165546Y537638D01*
X166960Y537355D01*
X167902Y536790D01*
X170163Y536225D01*
X170445Y535942D01*
X171482Y535659D01*
X172801Y535283D01*
X173083Y535000D01*
X174120Y534717D01*
X174874Y534529D01*
X175910Y534058D01*
X176946Y533775D01*
X178265Y533210D01*
X178642Y533022D01*
X179396Y532833D01*
X181091Y532079D01*
X182411Y531703D01*
X182787Y531326D01*
X184483Y530949D01*
X184860Y530572D01*
X185520Y530289D01*
X186744Y530007D01*
X187027Y529724D01*
X188252Y529253D01*
X189005Y529065D01*
X189382Y528688D01*
X190136Y528499D01*
X196354Y525673D01*
X197108Y525485D01*
X197484Y525108D01*
X198427Y524731D01*
X199180Y524542D01*
X199651Y524071D01*
X200688Y523789D01*
X201630Y523223D01*
X202195Y523035D01*
X203137Y522658D01*
X203514Y522470D01*
X203797Y522187D01*
X204833Y521904D01*
X205304Y521433D01*
X206529Y520962D01*
X206906Y520586D01*
X207283Y520397D01*
X208602Y519832D01*
X215385Y516252D01*
X217081Y515310D01*
X218400Y514556D01*
X220096Y513614D01*
X220472Y513237D01*
X221415Y512860D01*
X221886Y512389D01*
X223110Y511918D01*
X223676Y511353D01*
X223864D01*
X224618Y510976D01*
X226314Y510034D01*
X226690Y509657D01*
X227633Y509280D01*
X228009Y508903D01*
X229328Y508149D01*
X230647Y507207D01*
X231966Y506454D01*
X232061Y506171D01*
X233285Y505512D01*
X233379Y505229D01*
X234604Y504569D01*
X235546Y504004D01*
X236112Y503439D01*
X237431Y502685D01*
X238467Y502026D01*
X238750Y501366D01*
X238467Y500330D01*
X235829Y497692D01*
X235641Y497315D01*
X235358Y497221D01*
X235075Y496938D01*
X234887Y496561D01*
X232249Y493923D01*
X232061Y493546D01*
X231778Y493452D01*
X231495Y493170D01*
X231307Y492793D01*
X230742Y492416D01*
X230271Y491756D01*
X229894Y491568D01*
X229611Y491285D01*
X229423Y490909D01*
X228857Y490532D01*
X228669Y490155D01*
X228386Y489872D01*
X228009Y489684D01*
X227633Y489118D01*
X227256Y488930D01*
X226973Y488647D01*
X226785Y488271D01*
X226219Y487894D01*
X225748Y487234D01*
X225371Y487046D01*
X225089Y486763D01*
X224900Y486386D01*
X224618Y486292D01*
X224147Y485821D01*
X223958Y485444D01*
X223676Y485350D01*
X223205Y484879D01*
X223016Y484502D01*
X222733Y484408D01*
X220096Y481770D01*
X219719Y481581D01*
X217458Y479320D01*
X217081Y479132D01*
X215196Y477248D01*
X214820Y477059D01*
X213312Y475552D01*
X212935Y475363D01*
X211993Y474421D01*
X211616Y474233D01*
X211428Y473856D01*
X211051Y473668D01*
X210109Y472725D01*
X209732Y472537D01*
X209167Y471972D01*
X208790Y471783D01*
X208036Y471030D01*
X207659Y470841D01*
X206717Y469899D01*
X206341Y469711D01*
X205021Y468392D01*
X204362Y467921D01*
X203326Y467073D01*
X202949Y466884D01*
X202384Y466319D01*
X202007Y466131D01*
X201441Y465565D01*
X201065Y465377D01*
X200311Y464623D01*
X199934Y464435D01*
X199180Y463681D01*
X198804Y463493D01*
X198427Y463116D01*
X197390Y462456D01*
X196260Y461514D01*
X196071Y461137D01*
X195600Y460855D01*
X195223Y460666D01*
X194658Y460101D01*
X194281Y459912D01*
X192868Y458876D01*
X191832Y458028D01*
X191455Y457840D01*
X191078Y457463D01*
X190701Y457275D01*
X190324Y456898D01*
X189382Y456332D01*
X188629Y455579D01*
X188252Y455390D01*
X187875Y455014D01*
X186933Y454448D01*
X186556Y454071D01*
X185614Y453506D01*
X185237Y453129D01*
X184295Y452564D01*
X183918Y452187D01*
X182599Y451433D01*
X181280Y450491D01*
X180338Y449926D01*
X179961Y449549D01*
X179019Y448984D01*
X178642Y448607D01*
X177323Y447853D01*
X176004Y446911D01*
X174685Y446157D01*
X174308Y445781D01*
X172989Y445027D01*
X172047Y444462D01*
X171670Y444085D01*
X169032Y442577D01*
X168467Y442012D01*
X167713Y441824D01*
X166960Y441070D01*
X166206Y440882D01*
X165641Y440316D01*
X165264Y440128D01*
X164322Y439751D01*
X163945Y439374D01*
X163003Y438997D01*
X162532Y438526D01*
X161307Y438055D01*
X160930Y437678D01*
X159611Y436925D01*
X157915Y435983D01*
X156596Y435229D01*
X154900Y434287D01*
X153958Y433721D01*
X153016Y433345D01*
X151320Y432402D01*
X150378Y431837D01*
X149813Y431649D01*
X148117Y430707D01*
X143406Y428257D01*
X142653Y428069D01*
X142182Y427598D01*
X141145Y427315D01*
X140203Y426750D01*
X139826Y426561D01*
X137754Y425619D01*
X136812Y425242D01*
X136152Y424771D01*
X134927Y424489D01*
X134551Y424112D01*
X133608Y423735D01*
X132289Y423170D01*
X131347Y422793D01*
X130594Y422604D01*
X130217Y422228D01*
X129463Y422039D01*
X127767Y421285D01*
X127390Y421097D01*
X126071Y420720D01*
X125695Y420343D01*
X124941Y420155D01*
X123245Y419401D01*
X122303Y419213D01*
X121361Y418836D01*
X121078Y418553D01*
X119665Y418270D01*
X118723Y417894D01*
X118440Y417611D01*
X117215Y417328D01*
X115520Y416575D01*
X114012Y416198D01*
X113635Y415821D01*
X112505Y415633D01*
X110809Y414879D01*
X109490Y414691D01*
X107794Y413937D01*
X106664Y413748D01*
X105910Y413560D01*
X104874Y413089D01*
X103649Y412806D01*
X102895Y412618D01*
X102047Y412147D01*
X100257Y411864D01*
X98938Y411299D01*
X97619Y411110D01*
X96865Y410922D01*
X95264Y410451D01*
X94227Y410168D01*
X92908Y409980D01*
X91589Y409414D01*
X90082Y409226D01*
X89328Y409038D01*
X87727Y408567D01*
X85372Y408284D01*
X84618Y408096D01*
X83581Y407813D01*
X82828Y407625D01*
X80472Y407342D01*
X79719Y407153D01*
X78777Y406777D01*
X74537Y406306D01*
X73030Y405929D01*
X72087Y405740D01*
X69638Y405552D01*
X68507Y405363D01*
X67000Y404987D01*
X65869Y404798D01*
X63608Y404610D01*
X62478Y404421D01*
X60970Y404044D01*
X58898Y403856D01*
X56260Y403668D01*
X55129Y403479D01*
X53057Y403102D01*
X50607Y402914D01*
X48723Y402725D01*
X47592Y402537D01*
X46650Y402349D01*
X44295Y402066D01*
X41280Y401878D01*
X38736Y401595D01*
X37606Y401407D01*
X35721Y401218D01*
X32141Y401030D01*
X30069Y400841D01*
X27619Y400464D01*
X25546Y400276D01*
X20836Y400088D01*
X18763Y399899D01*
X17256Y399711D01*
X15560Y399522D01*
X12168Y399334D01*
X8211Y399145D01*
X5950Y398957D01*
X4254Y398769D01*
X1993Y398580D01*
X-2906Y398392D01*
X-6863Y398203D01*
X-9124Y398015D01*
X-13835Y397638D01*
X-20052Y397449D01*
X-23821Y397261D01*
X-26082Y397073D01*
X-28155Y396884D01*
X-31358Y396696D01*
X-38141Y396507D01*
X-41721Y396319D01*
X-44171Y396131D01*
X-46244Y395942D01*
X-49824Y395754D01*
X-56419Y395565D01*
X-61600Y395283D01*
X-62166Y395094D01*
X-83834Y394906D01*
X-91937Y394717D01*
X-94480Y394435D01*
X-95423Y394246D01*
X-97590Y393964D01*
X-98343Y393775D01*
X-99285Y393398D01*
X-99662Y393210D01*
X-100981Y392645D01*
X-101923Y392079D01*
X-103902Y390101D01*
X-104090Y389724D01*
X-105032Y388782D01*
X-105221Y388405D01*
X-105974Y387651D01*
X-106163Y387275D01*
X-106917Y386521D01*
X-107105Y386144D01*
X-107670Y385579D01*
X-107859Y385202D01*
X-108612Y384448D01*
X-108801Y384071D01*
X-109366Y383506D01*
X-109555Y383129D01*
X-110120Y382564D01*
X-110685Y381622D01*
X-111250Y381057D01*
X-111439Y380680D01*
X-112192Y379926D01*
X-112381Y379549D01*
X-112758Y379172D01*
X-113323Y378230D01*
X-113888Y377665D01*
X-114077Y377288D01*
X-114642Y376723D01*
X-115207Y375781D01*
X-115773Y375215D01*
X-115961Y374838D01*
X-116338Y374462D01*
X-116903Y373520D01*
X-117657Y372766D01*
X-117845Y372389D01*
X-118222Y372012D01*
X-118882Y370976D01*
X-119729Y369939D01*
X-119918Y369563D01*
X-120201Y369468D01*
X-120483Y368809D01*
X-120860Y368432D01*
X-121425Y367490D01*
X-121802Y367113D01*
X-122367Y366171D01*
X-122744Y365794D01*
X-123310Y364852D01*
X-123686Y364475D01*
X-124252Y363533D01*
X-124817Y362968D01*
X-125005Y362591D01*
X-125759Y361837D01*
X-125948Y361460D01*
X-126324Y361083D01*
X-126890Y360141D01*
X-127455Y359576D01*
X-127643Y359199D01*
X-128397Y358446D01*
X-128586Y358069D01*
X-129528Y357127D01*
X-129716Y356750D01*
X-129999Y356656D01*
X-130470Y355996D01*
X-130658Y355619D01*
X-131223Y355054D01*
X-131412Y354677D01*
X-132165Y353923D01*
X-132354Y353546D01*
X-133861Y352039D01*
X-134050Y351662D01*
X-134615Y351285D01*
X-134803Y350909D01*
X-136499Y349213D01*
X-136688Y348836D01*
X-137630Y347894D01*
X-137818Y347517D01*
X-139232Y346104D01*
X-139608Y345915D01*
X-140362Y345162D01*
X-140739Y344973D01*
X-141493Y344219D01*
X-141869Y344031D01*
X-142152Y343748D01*
X-143188Y342900D01*
X-144507Y342147D01*
X-144979Y341676D01*
X-146203Y341205D01*
X-146674Y340733D01*
X-147711Y340451D01*
X-148653Y339886D01*
X-150349Y339509D01*
X-151102Y339320D01*
X-152044Y338943D01*
X-155625Y338755D01*
X-156944Y338943D01*
X-157886Y339320D01*
X-159393Y339509D01*
X-159958Y339697D01*
X-169285Y339603D01*
X-179083Y339415D01*
X-186526Y339132D01*
X-187092Y338943D01*
X-211775Y338755D01*
X-212717Y339132D01*
X-213094Y339509D01*
X-213471Y339697D01*
X-214131Y340357D01*
X-214319Y342618D01*
X-213942Y343560D01*
X-213565Y343937D01*
X-213377Y344690D01*
X-212812Y345633D01*
X-212435Y346575D01*
X-211870Y347517D01*
X-211681Y347894D01*
X-211304Y348836D01*
X-210739Y349778D01*
X-210362Y350720D01*
X-209797Y351662D01*
X-209608Y352416D01*
X-209231Y352793D01*
X-203390Y364664D01*
X-203202Y365229D01*
X-201695Y368055D01*
X-201318Y368997D01*
X-200752Y369939D01*
X-200375Y370882D01*
X-199810Y371824D01*
X-199622Y372577D01*
X-199245Y372954D01*
X-198680Y374462D01*
X-198303Y374838D01*
X-197738Y376346D01*
X-197361Y376723D01*
X-197172Y377477D01*
X-196324Y378890D01*
X-196042Y379926D01*
X-195476Y380491D01*
X-195288Y381245D01*
X-194534Y382375D01*
X-194346Y383129D01*
X-193781Y384071D01*
X-193592Y384448D01*
X-193215Y385390D01*
X-192650Y386333D01*
X-192273Y387275D01*
X-191708Y388217D01*
X-191331Y389159D01*
X-190766Y390101D01*
X-190577Y390855D01*
X-190012Y391420D01*
X-189824Y392739D01*
X-190012Y394058D01*
X-190577Y394623D01*
X-190766Y395000D01*
X-191237Y395471D01*
X-191614Y395659D01*
X-192273Y396319D01*
X-193498Y396790D01*
X-193875Y397167D01*
X-194817Y397544D01*
X-196419Y398203D01*
X-198020Y398486D01*
X-199056Y398769D01*
X-199999Y399145D01*
X-202354Y399428D01*
X-203673Y399805D01*
X-204238Y399993D01*
X-206122Y400182D01*
X-208666Y400464D01*
X-209891Y400747D01*
X-210456Y400935D01*
X-212717Y401124D01*
X-214036Y401312D01*
X-215638Y401783D01*
X-217805Y402254D01*
X-218182Y402631D01*
X-219689Y403196D01*
X-220066Y403573D01*
X-221008Y403950D01*
X-221573Y404515D01*
X-221950Y404704D01*
X-222704Y405458D01*
X-223081Y405646D01*
X-223458Y406211D01*
X-223834Y406400D01*
X-224305Y406871D01*
X-224494Y407248D01*
X-224871Y407436D01*
X-225342Y408096D01*
X-225719Y408284D01*
X-226378Y409320D01*
X-227132Y410639D01*
X-227509Y411016D01*
X-228263Y412335D01*
X-228828Y413277D01*
X-229016Y414031D01*
X-229487Y414502D01*
X-229770Y415727D01*
X-230335Y416292D01*
X-230524Y417046D01*
X-231277Y418742D01*
X-231466Y419495D01*
X-231842Y420814D01*
X-232219Y421191D01*
X-232408Y422322D01*
X-232596Y423075D01*
X-233162Y424394D01*
X-233350Y425902D01*
X-233538Y426656D01*
X-234009Y427880D01*
X-234292Y430424D01*
X-234763Y431649D01*
X-235046Y432685D01*
X-235423Y435323D01*
X-235800Y436265D01*
X-235988Y438149D01*
X-236176Y438903D01*
X-236365Y440222D01*
X-236742Y441164D01*
X-236930Y443049D01*
X-237213Y445592D01*
X-237401Y446346D01*
X-237589Y447288D01*
X-237778Y448795D01*
X-237966Y451245D01*
X-238249Y453977D01*
X-238437Y454542D01*
X-238626Y465848D01*
X-238343Y468392D01*
X-238061Y470182D01*
X-237872Y470935D01*
X-237684Y472820D01*
X-237213Y474044D01*
X-237024Y474798D01*
X-236742Y476023D01*
X-236271Y476494D01*
X-235800Y477719D01*
X-235423Y478096D01*
X-234763Y479132D01*
X-234386Y479320D01*
X-233444Y480262D01*
X-232879Y480451D01*
X-232219Y481110D01*
X-230995Y481581D01*
X-230524Y482052D01*
X-229299Y482524D01*
X-228922Y482900D01*
X-228545Y483089D01*
X-226472Y484031D01*
X-225530Y484408D01*
X-224588Y484973D01*
X-223834Y485162D01*
X-223458Y485538D01*
X-222516Y485915D01*
X-221762Y486104D01*
X-221385Y486480D01*
X-220443Y486857D01*
X-219877Y487046D01*
X-219501Y487234D01*
X-219218Y487517D01*
X-218182Y487799D01*
X-217711Y488271D01*
X-216486Y488742D01*
X-216015Y489213D01*
X-214790Y489684D01*
X-214225Y490249D01*
X-213471Y490437D01*
X-213094Y490814D01*
X-212152Y491380D01*
X-211587Y491945D01*
X-211210Y492133D01*
X-210645Y492699D01*
X-210268Y492887D01*
X-209514Y493641D01*
X-209137Y493829D01*
X-208760Y494206D01*
X-207913Y495242D01*
X-207724Y495619D01*
X-207253Y496090D01*
X-206970Y497503D01*
X-206782Y498069D01*
X-206970Y498822D01*
X-207159Y500141D01*
X-207536Y500518D01*
X-208101Y501460D01*
X-208666Y502026D01*
X-208855Y502402D01*
X-209420Y502968D01*
X-209608Y503345D01*
X-210550Y504287D01*
X-210739Y504664D01*
X-214131Y508055D01*
X-214319Y508432D01*
X-214602Y508715D01*
X-214979Y508903D01*
X-215073Y509186D01*
X-217051Y511164D01*
X-217711Y511635D01*
X-217899Y512012D01*
X-218182Y512295D01*
X-218559Y512483D01*
X-223646Y517571D01*
X-224023Y517759D01*
X-224400Y518324D01*
X-224777Y518513D01*
X-227603Y521339D01*
X-227980Y521528D01*
X-228168Y521904D01*
X-228545Y522093D01*
X-230429Y523977D01*
X-230806Y524166D01*
X-235328Y528688D01*
X-235705Y528876D01*
X-235800Y529159D01*
X-236271Y529630D01*
X-236647Y529818D01*
X-236742Y530101D01*
X-237024Y530384D01*
X-237401Y530572D01*
X-237778Y531137D01*
X-238437Y531608D01*
X-238626Y531985D01*
X-239191Y532362D01*
X-239662Y533022D01*
X-240039Y533210D01*
X-241264Y534435D01*
X-241452Y534812D01*
X-242017Y535188D01*
X-242206Y535565D01*
X-242960Y536319D01*
X-243148Y536696D01*
X-244090Y537638D01*
X-244279Y538015D01*
X-244844Y538580D01*
X-245315Y539240D01*
X-245692Y539428D01*
X-245974Y539899D01*
X-246163Y540276D01*
X-246728Y540841D01*
X-247011Y541501D01*
X-247482Y542725D01*
X-247293Y543479D01*
X-246917Y543856D01*
X-246728Y544233D01*
X-246446Y544515D01*
X-245692Y544704D01*
X-244561Y545458D01*
X-243431Y545646D01*
X-242677Y545835D01*
X-241641Y546306D01*
X-239851Y546588D01*
X-238626Y547059D01*
X-237589Y547342D01*
X-236836Y547530D01*
X-235517Y548096D01*
X-233915Y548378D01*
X-232879Y548661D01*
X-232502Y549038D01*
X-230995Y549226D01*
X-229299Y549980D01*
X-227791Y550168D01*
X-226472Y550733D01*
X-224777Y551110D01*
X-223740Y551393D01*
X-222516Y551864D01*
X-221196Y552052D01*
X-219877Y552618D01*
X-218559Y552806D01*
X-217805Y552995D01*
X-216486Y553560D01*
X-214979Y553748D01*
X-214225Y553937D01*
X-213188Y554408D01*
X-211398Y554691D01*
X-210362Y554973D01*
X-209420Y555350D01*
X-207442Y555633D01*
X-206217Y556104D01*
X-205180Y556386D01*
X-203861Y556575D01*
X-202825Y556857D01*
X-201600Y557328D01*
X-199716Y557517D01*
X-198397Y558082D01*
X-196890Y558270D01*
X-195571Y558459D01*
X-194534Y558742D01*
X-192556Y559213D01*
X-190672Y559401D01*
X-189729Y559778D01*
X-187845Y559966D01*
X-187280Y560155D01*
X-181816Y560343D01*
X-178612Y559966D01*
D02*
G37*
G36*
X43208Y212774D02*
X16792D01*
Y235628D01*
X43208D01*
Y212774D01*
D02*
G37*
G36*
Y174372D02*
X16792D01*
Y197226D01*
X43208D01*
Y174372D01*
D02*
G37*
G36*
X-76792Y167374D02*
X-103208D01*
Y190228D01*
X-76792D01*
Y167374D01*
D02*
G37*
G36*
X204133Y135009D02*
X204263Y134984D01*
X204306Y134969D01*
X204390Y134941D01*
X204509Y134882D01*
X204620Y134808D01*
X204720Y134720D01*
Y134720D01*
X204720D01*
X204808Y134620D01*
X204882Y134509D01*
X204941Y134390D01*
X204969Y134306D01*
X204984Y134264D01*
X205009Y134133D01*
X205018Y134000D01*
Y134000D01*
Y134000D01*
Y124000D01*
X205009Y123867D01*
X204984Y123736D01*
X204941Y123610D01*
X204882Y123491D01*
X204808Y123380D01*
X204720Y123280D01*
X204620Y123192D01*
X204509Y123118D01*
X204390Y123059D01*
X204263Y123017D01*
X204133Y122991D01*
X204000Y122982D01*
X194750D01*
X194750D01*
D01*
X194617Y122991D01*
X194486Y123017D01*
X194421Y123039D01*
X194360Y123059D01*
X194357Y123061D01*
X194241Y123118D01*
X194130Y123192D01*
X194042Y123269D01*
X194030Y123280D01*
Y123280D01*
X194030D01*
X189030Y128280D01*
X188942Y128380D01*
X188868Y128491D01*
X188838Y128551D01*
X188809Y128610D01*
X188766Y128736D01*
X188741Y128867D01*
X188732Y129000D01*
D01*
Y129000D01*
X188741Y129133D01*
X188766Y129263D01*
X188809Y129390D01*
X188868Y129509D01*
X188942Y129620D01*
X189030Y129720D01*
X189030Y129720D01*
X194030Y134720D01*
X194130Y134808D01*
X194241Y134881D01*
X194360Y134940D01*
X194454Y134972D01*
X194486Y134983D01*
X194617Y135009D01*
X194750Y135018D01*
X204000Y135018D01*
X204000D01*
X204000D01*
X204133Y135009D01*
D02*
G37*
G36*
X-76792Y128972D02*
X-103208D01*
Y151826D01*
X-76792D01*
Y128972D01*
D02*
G37*
G36*
X191883Y135009D02*
X192013Y134984D01*
X192140Y134941D01*
X192259Y134882D01*
X192370Y134808D01*
X192470Y134720D01*
X192558Y134620D01*
X192632Y134509D01*
X192691Y134390D01*
X192733Y134263D01*
X192759Y134133D01*
X192768Y134000D01*
X192759Y133867D01*
X192733Y133736D01*
X192691Y133610D01*
X192632Y133491D01*
X192558Y133380D01*
X192470Y133280D01*
X188190Y129000D01*
X192470Y124720D01*
X192558Y124620D01*
X192632Y124509D01*
X192691Y124390D01*
X192733Y124263D01*
X192759Y124133D01*
X192768Y124000D01*
X192759Y123867D01*
X192733Y123736D01*
X192691Y123610D01*
X192632Y123491D01*
X192558Y123380D01*
X192470Y123280D01*
X192370Y123192D01*
X192259Y123118D01*
X192140Y123059D01*
X192013Y123017D01*
X191883Y122991D01*
X191750Y122982D01*
X178000D01*
X177867Y122991D01*
X177736Y123017D01*
X177610Y123059D01*
X177491Y123118D01*
X177380Y123192D01*
X177280Y123280D01*
X177192Y123380D01*
X177118Y123491D01*
X177059Y123610D01*
X177017Y123736D01*
X176991Y123867D01*
X176982Y124000D01*
Y134000D01*
X176991Y134133D01*
X177017Y134263D01*
X177059Y134390D01*
X177118Y134509D01*
X177192Y134620D01*
X177280Y134720D01*
X177380Y134808D01*
X177491Y134882D01*
X177610Y134941D01*
X177736Y134984D01*
X177867Y135009D01*
X178000Y135018D01*
X191750D01*
X191883Y135009D01*
D02*
G37*
G36*
X178383Y-150990D02*
X178514Y-151017D01*
X178579Y-151039D01*
X178640Y-151059D01*
X178643Y-151061D01*
X178759Y-151118D01*
X178870Y-151192D01*
X178958Y-151269D01*
X178970Y-151280D01*
Y-151280D01*
X178970D01*
X183970Y-156280D01*
X184058Y-156380D01*
X184132Y-156491D01*
X184162Y-156551D01*
X184191Y-156610D01*
X184233Y-156736D01*
X184259Y-156867D01*
X184268Y-157000D01*
D01*
Y-157000D01*
X184259Y-157133D01*
X184233Y-157263D01*
X184191Y-157390D01*
X184132Y-157509D01*
X184058Y-157620D01*
X183970Y-157720D01*
X183970Y-157720D01*
X178970Y-162720D01*
X178870Y-162808D01*
X178759Y-162882D01*
X178640Y-162940D01*
X178546Y-162972D01*
X178514Y-162983D01*
X178383Y-163009D01*
X178250Y-163018D01*
X169000Y-163018D01*
X169000D01*
X169000D01*
X168867Y-163009D01*
X168736Y-162983D01*
X168694Y-162969D01*
X168610Y-162941D01*
X168491Y-162882D01*
X168380Y-162808D01*
X168280Y-162720D01*
Y-162720D01*
X168280D01*
X168192Y-162620D01*
X168118Y-162509D01*
X168059Y-162390D01*
X168031Y-162306D01*
X168016Y-162264D01*
X167990Y-162133D01*
X167982Y-162000D01*
Y-162000D01*
Y-162000D01*
Y-152000D01*
X167990Y-151867D01*
X168016Y-151736D01*
X168059Y-151610D01*
X168118Y-151491D01*
X168192Y-151380D01*
X168280Y-151280D01*
X168380Y-151192D01*
X168491Y-151118D01*
X168610Y-151059D01*
X168736Y-151017D01*
X168867Y-150990D01*
X169000Y-150982D01*
X178250D01*
D01*
X178250D01*
X178383Y-150990D01*
D02*
G37*
G36*
X-139292Y-157726D02*
X-165708D01*
Y-134872D01*
X-139292D01*
Y-157726D01*
D02*
G37*
G36*
X195133Y-150990D02*
X195264Y-151017D01*
X195390Y-151059D01*
X195509Y-151118D01*
X195620Y-151192D01*
X195720Y-151280D01*
X195808Y-151380D01*
X195882Y-151491D01*
X195941Y-151610D01*
X195984Y-151736D01*
X196010Y-151867D01*
X196018Y-152000D01*
Y-162000D01*
X196010Y-162133D01*
X195984Y-162264D01*
X195941Y-162390D01*
X195882Y-162509D01*
X195808Y-162620D01*
X195720Y-162720D01*
X195620Y-162808D01*
X195509Y-162882D01*
X195390Y-162941D01*
X195264Y-162983D01*
X195133Y-163009D01*
X195000Y-163018D01*
X181250D01*
X181117Y-163009D01*
X180986Y-162983D01*
X180860Y-162941D01*
X180741Y-162882D01*
X180630Y-162808D01*
X180530Y-162720D01*
X180442Y-162620D01*
X180368Y-162509D01*
X180309Y-162390D01*
X180266Y-162264D01*
X180240Y-162133D01*
X180232Y-162000D01*
X180240Y-161867D01*
X180266Y-161737D01*
X180309Y-161610D01*
X180368Y-161491D01*
X180442Y-161380D01*
X180530Y-161280D01*
X184810Y-157000D01*
X180530Y-152720D01*
X180442Y-152620D01*
X180368Y-152509D01*
X180309Y-152390D01*
X180266Y-152263D01*
X180240Y-152133D01*
X180232Y-152000D01*
X180240Y-151867D01*
X180266Y-151736D01*
X180309Y-151610D01*
X180368Y-151491D01*
X180442Y-151380D01*
X180530Y-151280D01*
X180630Y-151192D01*
X180741Y-151118D01*
X180860Y-151059D01*
X180986Y-151017D01*
X181117Y-150990D01*
X181250Y-150982D01*
X195000D01*
X195133Y-150990D01*
D02*
G37*
G36*
X178383Y-166991D02*
X178514Y-167017D01*
X178579Y-167038D01*
X178640Y-167059D01*
X178643Y-167061D01*
X178759Y-167118D01*
X178870Y-167192D01*
X178958Y-167269D01*
X178970Y-167280D01*
Y-167280D01*
X178970D01*
X183970Y-172280D01*
X184058Y-172380D01*
X184132Y-172491D01*
X184162Y-172551D01*
X184191Y-172610D01*
X184233Y-172736D01*
X184259Y-172867D01*
X184268Y-173000D01*
D01*
Y-173000D01*
X184259Y-173133D01*
X184233Y-173263D01*
X184191Y-173390D01*
X184132Y-173509D01*
X184058Y-173620D01*
X183970Y-173720D01*
X183970Y-173720D01*
X178970Y-178720D01*
X178870Y-178808D01*
X178759Y-178881D01*
X178640Y-178940D01*
X178546Y-178972D01*
X178514Y-178983D01*
X178383Y-179009D01*
X178250Y-179018D01*
X169000Y-179018D01*
X169000D01*
X169000D01*
X168867Y-179009D01*
X168736Y-178984D01*
X168694Y-178969D01*
X168610Y-178941D01*
X168491Y-178882D01*
X168380Y-178808D01*
X168280Y-178720D01*
Y-178720D01*
X168280D01*
X168192Y-178620D01*
X168118Y-178509D01*
X168059Y-178390D01*
X168031Y-178306D01*
X168016Y-178264D01*
X167990Y-178133D01*
X167982Y-178000D01*
Y-178000D01*
Y-178000D01*
Y-168000D01*
X167990Y-167867D01*
X168016Y-167736D01*
X168059Y-167610D01*
X168118Y-167491D01*
X168192Y-167380D01*
X168280Y-167280D01*
X168380Y-167192D01*
X168491Y-167118D01*
X168610Y-167059D01*
X168736Y-167017D01*
X168867Y-166991D01*
X169000Y-166982D01*
X178250D01*
D01*
X178250D01*
X178383Y-166991D01*
D02*
G37*
G36*
X195133Y-166991D02*
X195264Y-167017D01*
X195390Y-167059D01*
X195509Y-167118D01*
X195620Y-167192D01*
X195720Y-167280D01*
X195808Y-167380D01*
X195882Y-167491D01*
X195941Y-167610D01*
X195984Y-167736D01*
X196010Y-167867D01*
X196018Y-168000D01*
Y-178000D01*
X196010Y-178133D01*
X195984Y-178263D01*
X195941Y-178390D01*
X195882Y-178509D01*
X195808Y-178620D01*
X195720Y-178720D01*
X195620Y-178808D01*
X195509Y-178882D01*
X195390Y-178941D01*
X195264Y-178983D01*
X195133Y-179009D01*
X195000Y-179018D01*
X181250D01*
X181117Y-179009D01*
X180986Y-178983D01*
X180860Y-178941D01*
X180741Y-178882D01*
X180630Y-178808D01*
X180530Y-178720D01*
X180442Y-178620D01*
X180368Y-178509D01*
X180309Y-178390D01*
X180266Y-178263D01*
X180240Y-178133D01*
X180232Y-178000D01*
X180240Y-177867D01*
X180266Y-177736D01*
X180309Y-177610D01*
X180368Y-177491D01*
X180442Y-177380D01*
X180530Y-177280D01*
X184810Y-173000D01*
X180530Y-168720D01*
X180442Y-168620D01*
X180368Y-168509D01*
X180309Y-168390D01*
X180266Y-168263D01*
X180240Y-168133D01*
X180232Y-168000D01*
X180240Y-167867D01*
X180266Y-167736D01*
X180309Y-167610D01*
X180368Y-167491D01*
X180442Y-167380D01*
X180530Y-167280D01*
X180630Y-167192D01*
X180741Y-167118D01*
X180860Y-167059D01*
X180986Y-167017D01*
X181117Y-166991D01*
X181250Y-166982D01*
X195000D01*
X195133Y-166991D01*
D02*
G37*
G36*
X-139292Y-196128D02*
X-165708D01*
Y-173274D01*
X-139292D01*
Y-196128D01*
D02*
G37*
G36*
X-7042Y-197200D02*
X-33458D01*
X-33458Y-174346D01*
X-7042D01*
X-7042Y-197200D01*
D02*
G37*
G36*
Y-235602D02*
X-33458Y-235602D01*
X-33458Y-212748D01*
X-7042D01*
Y-235602D01*
D02*
G37*
%LPC*%
G36*
X59369Y507584D02*
X52868Y507490D01*
X50607Y507113D01*
X47498Y506830D01*
X46179Y506265D01*
X44860Y506077D01*
X44106Y505888D01*
X42787Y505323D01*
X41845Y505135D01*
X40526Y504569D01*
X39584Y504193D01*
X38830Y504004D01*
X38359Y503533D01*
X37323Y503250D01*
X36852Y502779D01*
X35627Y502308D01*
X35250Y501931D01*
X34308Y501366D01*
X33931Y500989D01*
X32989Y500424D01*
X32424Y499859D01*
X32047Y499670D01*
X31482Y499105D01*
X31105Y498917D01*
X28750Y496561D01*
X28561Y496184D01*
X28279Y496090D01*
X27808Y495431D01*
X27619Y495054D01*
X27054Y494489D01*
X26865Y493923D01*
X26300Y493358D01*
X25923Y492416D01*
X25358Y491851D01*
X25170Y491474D01*
X24793Y490532D01*
X24227Y489590D01*
X23474Y487894D01*
X23285Y486763D01*
X22908Y485444D01*
X22532Y484502D01*
X22343Y481110D01*
X22155Y480545D01*
X22249Y474421D01*
X22532Y472254D01*
X23097Y470935D01*
X23285Y469240D01*
X23851Y467921D01*
X24227Y466978D01*
X24416Y466413D01*
X24604Y466036D01*
X24887Y465754D01*
X25170Y464717D01*
X25546Y464341D01*
X26112Y463398D01*
X26300Y463022D01*
X26677Y462645D01*
X26865Y462268D01*
X27619Y461514D01*
X27808Y461137D01*
X28750Y460195D01*
X28938Y459818D01*
X29315Y459630D01*
X29503Y459253D01*
X29974Y458782D01*
X30351Y458593D01*
X30445Y458311D01*
X30728Y458028D01*
X31105Y457840D01*
X31859Y457086D01*
X32236Y456898D01*
X32989Y456144D01*
X33366Y455956D01*
X33743Y455579D01*
X35062Y454825D01*
X36758Y453883D01*
X37040Y453600D01*
X38265Y453129D01*
X38642Y452752D01*
X40149Y452187D01*
X40997Y451716D01*
X42034Y451433D01*
X43353Y450868D01*
X44483Y450680D01*
X45237Y450491D01*
X46556Y449926D01*
X48440Y449738D01*
X50701Y449361D01*
X51266Y449172D01*
X58427Y448984D01*
X60970Y449267D01*
X61912Y449455D01*
X63514Y449738D01*
X65398Y449926D01*
X66435Y450397D01*
X68036Y450680D01*
X69638Y451339D01*
X71051Y451622D01*
X71616Y452187D01*
X72370Y452375D01*
X74820Y453506D01*
X75291Y453977D01*
X76515Y454448D01*
X76610Y454731D01*
X77458Y455202D01*
X78023Y455767D01*
X78400Y455956D01*
X78777Y456332D01*
X79153Y456521D01*
X79530Y456898D01*
X79907Y457086D01*
X80661Y457840D01*
X81038Y458028D01*
X81414Y458593D01*
X81791Y458782D01*
X82074Y459065D01*
X82262Y459441D01*
X82828Y460007D01*
X83393Y460949D01*
X83958Y461514D01*
X84147Y462079D01*
X84712Y462645D01*
X86219Y465283D01*
X86690Y465942D01*
X86973Y466978D01*
X87538Y467544D01*
X87727Y468674D01*
X87915Y469428D01*
X88386Y470464D01*
X88669Y472254D01*
X88857Y473573D01*
X89234Y474515D01*
X89423Y476400D01*
X89611Y476965D01*
X89423Y477719D01*
X89611Y478284D01*
X89423Y479415D01*
Y481110D01*
X89234Y482995D01*
X88857Y484502D01*
X88481Y487140D01*
X88009Y487988D01*
X87727Y489213D01*
X87538Y489778D01*
X87350Y490155D01*
X87067Y490437D01*
X86785Y491662D01*
X86219Y492228D01*
X86031Y492604D01*
X84900Y494489D01*
X84335Y495054D01*
X84147Y495431D01*
X83393Y496184D01*
X83205Y496561D01*
X80284Y499482D01*
X79907Y499670D01*
X79530Y500047D01*
X77834Y501366D01*
X77269Y501554D01*
X76892Y501931D01*
X75950Y502497D01*
X75385Y502685D01*
X74725Y503156D01*
X73501Y503627D01*
X73218Y503910D01*
X71428Y504569D01*
X71145Y504852D01*
X70109Y505135D01*
X68413Y505888D01*
X66906Y506077D01*
X65681Y506548D01*
X64927Y506736D01*
X62007Y507019D01*
X61253Y507207D01*
X59934Y507396D01*
X59369Y507584D01*
D02*
G37*
%LPD*%
D26*
X-80250Y164574D02*
D03*
X-86750Y164574D02*
D03*
X-93250D02*
D03*
X-99750D02*
D03*
X-93250Y199626D02*
D03*
X-86750D02*
D03*
X-80250D02*
D03*
X-99750D02*
D03*
X-30000Y-209948D02*
D03*
X-23500D02*
D03*
X-17000D02*
D03*
X-10500D02*
D03*
X-17000Y-245000D02*
D03*
X-23500D02*
D03*
X-30000D02*
D03*
X-10500D02*
D03*
Y-200000D02*
D03*
X-17000D02*
D03*
X-23500D02*
D03*
X-30000D02*
D03*
X-30000Y-164948D02*
D03*
X-23500D02*
D03*
X-17000D02*
D03*
X-10500D02*
D03*
X-162250Y-205526D02*
D03*
X-155750D02*
D03*
X-149250D02*
D03*
X-142750Y-170474D02*
D03*
X-149250D02*
D03*
X-155750D02*
D03*
X-162250D02*
D03*
X-142750Y-205526D02*
D03*
Y-125474D02*
D03*
X-149250D02*
D03*
X-155750D02*
D03*
X-162250D02*
D03*
Y-160526D02*
D03*
X-155750D02*
D03*
X-149250D02*
D03*
X-142750D02*
D03*
X39750Y209974D02*
D03*
X33250D02*
D03*
X26750D02*
D03*
X20250D02*
D03*
X26750Y245026D02*
D03*
X33250D02*
D03*
X39750D02*
D03*
X20250D02*
D03*
Y200026D02*
D03*
X26750D02*
D03*
X33250D02*
D03*
X39750D02*
D03*
Y164974D02*
D03*
X33250D02*
D03*
X26750D02*
D03*
X20250D02*
D03*
X-99750Y154626D02*
D03*
X-93250D02*
D03*
X-86750D02*
D03*
X-80250D02*
D03*
X-86750Y119574D02*
D03*
X-93250D02*
D03*
X-99750D02*
D03*
X-80250D02*
D03*
D27*
X84250Y-149500D02*
D03*
D28*
X145750Y-172500D02*
D03*
D29*
X84250D02*
D03*
Y-195500D02*
D03*
D30*
X80000Y187500D02*
D03*
Y155500D02*
D03*
X165000Y187500D02*
D03*
Y179500D02*
D03*
Y171500D02*
D03*
Y163500D02*
D03*
Y139500D02*
D03*
X80000Y163500D02*
D03*
Y171500D02*
D03*
Y179500D02*
D03*
Y195500D02*
D03*
Y139500D02*
D03*
X165000Y195500D02*
D03*
Y147500D02*
D03*
Y155500D02*
D03*
X80000Y147500D02*
D03*
D31*
X134500Y125000D02*
D03*
X126500D02*
D03*
X118500D02*
D03*
X110500D02*
D03*
X102500D02*
D03*
X94500Y210000D02*
D03*
X110500D02*
D03*
X126500D02*
D03*
X134500D02*
D03*
X142500D02*
D03*
X150500Y125000D02*
D03*
X142500D02*
D03*
X94500D02*
D03*
X118500Y210000D02*
D03*
X150500D02*
D03*
X102500D02*
D03*
D32*
X-580005Y176050D02*
D03*
D33*
Y163350D02*
D03*
Y150650D02*
D03*
Y137950D02*
D03*
X-475995D02*
D03*
Y150650D02*
D03*
Y163350D02*
D03*
Y176050D02*
D03*
D47*
X194000Y-138011D02*
D03*
X206700D02*
D03*
X219400D02*
D03*
Y-34000D02*
D03*
X206700D02*
D03*
X194000D02*
D03*
X181300D02*
D03*
D48*
Y-138011D02*
D03*
D49*
X191000Y129000D02*
D03*
X182003Y-173000D02*
D03*
X181999Y-157000D02*
D03*
D50*
X100200Y245200D02*
D03*
Y232500D02*
D03*
X87500Y245200D02*
D03*
Y232500D02*
D03*
X74800Y245200D02*
D03*
Y232500D02*
D03*
X95200Y-250000D02*
D03*
X82500Y-237300D02*
D03*
Y-250000D02*
D03*
X69800D02*
D03*
Y-237300D02*
D03*
X95200D02*
D03*
D51*
X-595000Y-295000D02*
D03*
Y-225000D02*
D03*
X-549000Y-134000D02*
D03*
Y-64000D02*
D03*
X-550000Y-295000D02*
D03*
Y-225000D02*
D03*
X-594000Y-134000D02*
D03*
Y-64000D02*
D03*
D52*
X91000Y-120500D02*
D03*
X110000Y-130000D02*
D03*
Y-111000D02*
D03*
D53*
X-428500Y275000D02*
D03*
D54*
X-487500Y252000D02*
D03*
Y275000D02*
D03*
Y298000D02*
D03*
D55*
X-502500Y-73500D02*
D03*
X-502500Y-68500D02*
D03*
X-502500Y-93500D02*
D03*
X-502500Y-78500D02*
D03*
X-502500Y-83500D02*
D03*
X-502500Y-88500D02*
D03*
X-502500Y-103500D02*
D03*
X-502500Y-113500D02*
D03*
X-502500Y-98500D02*
D03*
X-502500Y-108500D02*
D03*
X-179500Y-97000D02*
D03*
X-179500Y-77000D02*
D03*
X-179500Y-87000D02*
D03*
X-179500Y-67000D02*
D03*
X-179500Y-62000D02*
D03*
X-179500Y-82000D02*
D03*
X-179500Y-92000D02*
D03*
X-179500Y-72000D02*
D03*
X-179500Y-102000D02*
D03*
X-179500Y-57000D02*
D03*
X-179500Y62000D02*
D03*
X-179500Y57000D02*
D03*
X-179500Y82000D02*
D03*
Y87000D02*
D03*
X-179500Y67000D02*
D03*
X-179500Y72000D02*
D03*
X-179500Y77000D02*
D03*
X-179500Y92000D02*
D03*
X-179500Y97000D02*
D03*
X-179500Y102000D02*
D03*
X-503500Y-234500D02*
D03*
X-503500Y-229500D02*
D03*
X-503500Y-254500D02*
D03*
Y-259500D02*
D03*
X-503500Y-239500D02*
D03*
X-503500Y-244500D02*
D03*
X-503500Y-249500D02*
D03*
X-503500Y-264500D02*
D03*
X-503500Y-269500D02*
D03*
X-503500Y-274500D02*
D03*
D56*
X-470000Y-132500D02*
D03*
X-470000Y-49500D02*
D03*
X-212000Y-38000D02*
D03*
X-212000Y-121000D02*
D03*
X-212000Y121000D02*
D03*
X-212000Y38000D02*
D03*
X-471000Y-293500D02*
D03*
X-471000Y-210500D02*
D03*
D57*
X-495000Y227500D02*
D03*
Y208000D02*
D03*
D58*
X-55000Y220000D02*
D03*
Y250000D02*
D03*
X-70000D02*
D03*
Y220000D02*
D03*
X-72500Y-215000D02*
D03*
Y-245000D02*
D03*
X-57500D02*
D03*
Y-215000D02*
D03*
D59*
X180500Y129000D02*
D03*
X192500Y-173000D02*
D03*
X171500D02*
D03*
X192500Y-157000D02*
D03*
X171500D02*
D03*
D60*
X161000Y-190750D02*
D03*
Y-203250D02*
D03*
X70000Y-151250D02*
D03*
Y-163750D02*
D03*
Y-178750D02*
D03*
Y-191250D02*
D03*
X76000Y-218250D02*
D03*
Y-205750D02*
D03*
X49750Y-201224D02*
D03*
X49750Y-188724D02*
D03*
X-82500Y-161750D02*
D03*
Y-149250D02*
D03*
X-40000Y201250D02*
D03*
Y188750D02*
D03*
X-160000Y155850D02*
D03*
X-160000Y143350D02*
D03*
X180000Y52250D02*
D03*
Y39750D02*
D03*
X-514000Y293250D02*
D03*
Y280750D02*
D03*
X-476000Y187750D02*
D03*
Y200250D02*
D03*
X-581000Y189750D02*
D03*
Y202250D02*
D03*
D61*
X71750Y123000D02*
D03*
X84250D02*
D03*
X145750Y-130000D02*
D03*
X158250D02*
D03*
X53500Y-169974D02*
D03*
X41000D02*
D03*
X-78750Y-130500D02*
D03*
X-91250D02*
D03*
X-43750Y170000D02*
D03*
X-31250D02*
D03*
X-163750Y124600D02*
D03*
X-151250D02*
D03*
D62*
X140500Y42500D02*
D03*
X160000D02*
D03*
D63*
X-193000Y-168000D02*
D03*
D64*
Y168000D02*
D03*
D65*
X197750Y146500D02*
D03*
X81000Y-100000D02*
D03*
X181000Y155000D02*
D03*
X197500Y163375D02*
D03*
X55000Y185000D02*
D03*
X37000Y-255000D02*
D03*
X66000Y-100000D02*
D03*
X162000Y117000D02*
D03*
X156000Y-216000D02*
D03*
D66*
X173500Y-184500D02*
D03*
Y-198500D02*
D03*
X179000Y180000D02*
D03*
Y194000D02*
D03*
X37250Y-201974D02*
D03*
X37250Y-187974D02*
D03*
X-95000Y-162500D02*
D03*
Y-148500D02*
D03*
X-27500Y202000D02*
D03*
Y188000D02*
D03*
X-147500Y156600D02*
D03*
X-147500Y142600D02*
D03*
X-85000Y235500D02*
D03*
Y249500D02*
D03*
X-87500Y-232500D02*
D03*
Y-246500D02*
D03*
X-40000Y238000D02*
D03*
Y252000D02*
D03*
X-72500Y-185500D02*
D03*
Y-199500D02*
D03*
X-55000Y190500D02*
D03*
Y204500D02*
D03*
X194000Y53000D02*
D03*
Y39000D02*
D03*
X207000Y53000D02*
D03*
Y39000D02*
D03*
D67*
X325000Y-325000D02*
D03*
X-625000Y625000D02*
D03*
X325000D02*
D03*
D68*
X5750Y-210374D02*
D03*
X19750D02*
D03*
X-126500Y-170900D02*
D03*
X-112500D02*
D03*
X4000Y210400D02*
D03*
X-10000D02*
D03*
X-130000Y165000D02*
D03*
X-116000Y165000D02*
D03*
X-43000Y-260000D02*
D03*
X-57000D02*
D03*
X54250Y-157474D02*
D03*
X40250D02*
D03*
X54250Y-84974D02*
D03*
X40250D02*
D03*
X164000Y-144000D02*
D03*
X150000D02*
D03*
X-78000Y-118000D02*
D03*
X-92000D02*
D03*
X-78000Y-45500D02*
D03*
X-92000D02*
D03*
X-44500Y85000D02*
D03*
X-30500D02*
D03*
X-44500Y157500D02*
D03*
X-30500D02*
D03*
X-164500Y39600D02*
D03*
X-150500D02*
D03*
X-164500Y112100D02*
D03*
X-150500D02*
D03*
D69*
X242500Y45000D02*
D03*
D70*
X112900Y238850D02*
D03*
X62100Y228690D02*
D03*
Y249010D02*
D03*
X107900Y-243650D02*
D03*
X57100Y-253810D02*
D03*
Y-233490D02*
D03*
D71*
X-550000Y300000D02*
D03*
X-590000D02*
D03*
D72*
X-523000Y62000D02*
D03*
X-535000D02*
D03*
X-547000D02*
D03*
X-459000Y222000D02*
D03*
X-641000Y201000D02*
D03*
X-523000Y-162000D02*
D03*
X136000Y-17000D02*
D03*
X-522000Y-1000D02*
D03*
X-422000Y-134000D02*
D03*
Y-146000D02*
D03*
Y-158000D02*
D03*
X-547000Y38000D02*
D03*
X-535000D02*
D03*
X-523000D02*
D03*
X-522000Y318000D02*
D03*
X-510000D02*
D03*
X-498000D02*
D03*
X-412000Y212000D02*
D03*
Y200000D02*
D03*
Y188000D02*
D03*
X177000Y496000D02*
D03*
D03*
X-196841Y-192734D02*
D03*
X-214000Y-173000D02*
D03*
X-204750Y-182000D02*
D03*
X-196841Y192734D02*
D03*
X-214000Y173000D02*
D03*
X-204750Y182000D02*
D03*
X196841Y-192734D02*
D03*
X214000Y-173000D02*
D03*
X204750Y-182000D02*
D03*
Y182000D02*
D03*
X214000Y173000D02*
D03*
X196841Y192734D02*
D03*
D73*
X-125000Y94600D02*
D03*
X-5000Y140000D02*
D03*
X-117500Y-100500D02*
D03*
X14750Y-139974D02*
D03*
D74*
X-125000Y55000D02*
D03*
X-5000Y100400D02*
D03*
X-117500Y-60900D02*
D03*
X14750Y-100374D02*
D03*
D75*
X-442000Y107000D02*
D03*
Y127000D02*
D03*
Y147000D02*
D03*
Y167000D02*
D03*
Y187000D02*
D03*
Y207000D02*
D03*
X-624000Y126000D02*
D03*
Y146000D02*
D03*
Y166000D02*
D03*
Y186000D02*
D03*
X-538000Y-179000D02*
D03*
X-558000D02*
D03*
X-578000D02*
D03*
X-598000D02*
D03*
X251000Y0D02*
D03*
X231000D02*
D03*
X211000D02*
D03*
X191000D02*
D03*
X171000D02*
D03*
X151000D02*
D03*
X-597000Y-18000D02*
D03*
X-577000D02*
D03*
X-557000D02*
D03*
X-537000D02*
D03*
D76*
X12250Y-187474D02*
D03*
Y-242474D02*
D03*
X-122500Y142100D02*
D03*
Y197100D02*
D03*
X-2500Y187500D02*
D03*
Y242500D02*
D03*
X-120000Y-148000D02*
D03*
Y-203000D02*
D03*
D77*
X58000Y-67000D02*
D03*
X70000Y-53000D02*
D03*
D78*
X150000Y-144000D02*
D03*
X188125Y-157000D02*
D03*
X162257Y-144000D02*
D03*
X160000Y-169000D02*
D03*
M02*
