G04*
G04 #@! TF.GenerationSoftware,Altium Limited,Altium Designer,25.8.1 (18)*
G04*
G04 Layer_Physical_Order=3*
G04 Layer_Color=16440176*
%FSLAX44Y44*%
%MOMM*%
G71*
G04*
G04 #@! TF.SameCoordinates,2DE5FF01-4093-4F91-ACCA-3BB073B8CBF2*
G04*
G04*
G04 #@! TF.FilePolarity,Positive*
G04*
G01*
G75*
%ADD15C,0.2000*%
%ADD90C,0.9000*%
%ADD91C,1.7780*%
%ADD92C,2.8448*%
%ADD93R,2.8448X2.8448*%
%ADD94C,1.6000*%
%ADD95C,2.4000*%
%ADD96C,1.5000*%
%ADD97C,0.5000*%
%ADD98C,0.8000*%
%ADD99C,0.6000*%
G36*
X-413063Y218000D02*
X-413194D01*
X-415399Y217087D01*
X-417086Y215399D01*
X-418000Y213193D01*
Y210807D01*
X-417086Y208601D01*
X-415399Y206914D01*
X-414853Y206687D01*
Y205313D01*
X-415399Y205087D01*
X-417086Y203399D01*
X-418000Y201194D01*
Y198806D01*
X-417086Y196601D01*
X-415399Y194914D01*
X-414853Y194687D01*
Y193313D01*
X-415399Y193087D01*
X-417086Y191399D01*
X-418000Y189193D01*
Y186807D01*
X-417086Y184601D01*
X-415399Y182913D01*
X-413194Y182000D01*
X-413063D01*
Y63063D01*
X-509879D01*
Y241000D01*
X-510362Y245901D01*
X-511791Y250613D01*
X-514113Y254956D01*
X-517237Y258763D01*
X-521044Y261887D01*
X-525387Y264209D01*
X-530099Y265638D01*
X-535000Y266121D01*
X-646941D01*
Y316937D01*
X-528000D01*
Y316807D01*
X-527087Y314601D01*
X-525399Y312913D01*
X-523194Y312000D01*
X-520807D01*
X-518601Y312913D01*
X-516913Y314601D01*
X-516687Y315147D01*
X-515313D01*
X-515087Y314601D01*
X-513399Y312913D01*
X-511194Y312000D01*
X-508806D01*
X-506601Y312913D01*
X-504913Y314601D01*
X-504687Y315147D01*
X-503313D01*
X-503087Y314601D01*
X-501399Y312913D01*
X-499193Y312000D01*
X-496806D01*
X-494601Y312913D01*
X-492913Y314601D01*
X-492000Y316807D01*
Y316937D01*
X-413063D01*
Y218000D01*
D02*
G37*
G36*
X17270Y239930D02*
X19138Y240704D01*
X20697Y242262D01*
X21540Y244298D01*
Y244475D01*
X22713Y244961D01*
X33172Y234502D01*
X33172Y234502D01*
X34165Y233839D01*
X35335Y233606D01*
X55418D01*
X56151Y232336D01*
X55600Y231382D01*
X55265Y230130D01*
X54394Y229483D01*
X53855Y229391D01*
X53012Y229559D01*
X53012Y229559D01*
X15990D01*
X15906Y229575D01*
X15906Y229575D01*
X8036D01*
X7952Y229559D01*
X5538D01*
X5210Y230786D01*
X6096Y231297D01*
X8703Y233904D01*
X10546Y237096D01*
X11418Y240351D01*
X12649Y240916D01*
X12862Y240704D01*
X14730Y239930D01*
Y245400D01*
X17270D01*
Y239930D01*
D02*
G37*
G36*
X22860Y271018D02*
X38021Y269310D01*
X53061Y266754D01*
X67934Y263359D01*
X71084Y262452D01*
X71160Y261108D01*
X70451Y260815D01*
X69185Y259549D01*
X68500Y257895D01*
Y256105D01*
X69185Y254451D01*
X70451Y253185D01*
X72105Y252500D01*
X73895D01*
X75549Y253185D01*
X76815Y254451D01*
X77500Y256105D01*
Y257895D01*
X76848Y259470D01*
X77000Y259799D01*
X77580Y260581D01*
X82594Y259136D01*
X96994Y254097D01*
X111089Y248259D01*
X113505Y247095D01*
X113216Y245825D01*
X111982D01*
X110208Y245350D01*
X108617Y244431D01*
X107319Y243133D01*
X106400Y241542D01*
X105925Y239768D01*
Y237932D01*
X106400Y236158D01*
X107319Y234567D01*
X108057Y233829D01*
X107531Y232559D01*
X103380D01*
Y242020D01*
X104137Y242776D01*
X104822Y244430D01*
Y246220D01*
X104137Y247874D01*
X102871Y249140D01*
X101217Y249825D01*
X99427D01*
X97773Y249140D01*
X96507Y247874D01*
X95822Y246220D01*
Y244430D01*
X96507Y242776D01*
X97263Y242020D01*
Y232559D01*
X77649D01*
X71380Y238828D01*
X70388Y239491D01*
X69217Y239724D01*
X69217Y239724D01*
X36602D01*
X16163Y260163D01*
X15171Y260826D01*
X14000Y261059D01*
X14000Y261059D01*
X-16000D01*
X-16000Y261059D01*
X-17170Y260826D01*
X-18163Y260163D01*
X-18163Y260163D01*
X-55392Y222934D01*
X-66570D01*
X-67326Y223690D01*
X-68980Y224375D01*
X-70770D01*
X-72424Y223690D01*
X-73180Y222934D01*
X-80043D01*
X-80873Y224204D01*
X-80500Y225105D01*
Y226895D01*
X-81185Y228549D01*
X-82451Y229815D01*
X-84105Y230500D01*
X-85895D01*
X-87549Y229815D01*
X-88815Y228549D01*
X-89500Y226895D01*
Y225105D01*
X-89127Y224204D01*
X-89957Y222934D01*
X-129125D01*
X-129125Y222934D01*
X-130295Y222701D01*
X-131288Y222038D01*
X-131288Y222038D01*
X-193163Y160163D01*
X-193826Y159171D01*
X-194059Y158000D01*
X-194059Y158000D01*
Y105305D01*
X-194815Y104549D01*
X-195500Y102895D01*
Y101105D01*
X-194815Y99451D01*
X-193549Y98185D01*
X-192313Y97673D01*
X-192313Y96327D01*
X-193549Y95815D01*
X-194815Y94549D01*
X-195500Y92895D01*
Y91105D01*
X-194815Y89451D01*
X-193549Y88185D01*
X-192313Y87673D01*
X-192314Y86327D01*
X-193549Y85815D01*
X-194815Y84549D01*
X-195500Y82895D01*
Y81105D01*
X-194815Y79451D01*
X-193549Y78185D01*
X-192313Y77673D01*
X-192313Y76327D01*
X-193549Y75815D01*
X-194815Y74549D01*
X-195500Y72895D01*
Y71105D01*
X-194815Y69451D01*
X-193549Y68185D01*
X-192313Y67673D01*
Y66327D01*
X-193549Y65815D01*
X-194815Y64549D01*
X-195500Y62895D01*
Y61105D01*
X-194815Y59451D01*
X-193549Y58185D01*
X-191895Y57500D01*
X-190105D01*
X-188451Y58185D01*
X-187695Y58941D01*
X-155000D01*
X-155000Y58941D01*
X-153829Y59174D01*
X-152837Y59837D01*
X-142494Y70180D01*
X-141224Y69654D01*
Y38776D01*
X-108776D01*
Y70700D01*
X-108776Y71224D01*
X-107947Y72151D01*
X-107830Y72174D01*
X-106837Y72837D01*
X-98235Y81439D01*
X-97158Y80720D01*
X-97500Y79895D01*
Y78105D01*
X-96815Y76451D01*
X-95549Y75185D01*
X-93895Y74500D01*
X-92105D01*
X-90451Y75185D01*
X-89695Y75941D01*
X-36258D01*
X-36258Y75941D01*
X-35088Y76174D01*
X-34095Y76837D01*
X-30815Y80117D01*
X55519D01*
X56451Y79185D01*
X58105Y78500D01*
X59895D01*
X61549Y79185D01*
X62815Y80451D01*
X63500Y82105D01*
Y83895D01*
X62815Y85549D01*
X61549Y86815D01*
X59895Y87500D01*
X58105D01*
X56451Y86815D01*
X55871Y86235D01*
X11224D01*
Y114565D01*
X107000Y114565D01*
X107000Y114565D01*
X108170Y114798D01*
X109163Y115461D01*
X120163Y126461D01*
X120826Y127453D01*
X121059Y128624D01*
X121059Y128624D01*
Y130529D01*
X121653Y130810D01*
X122329Y130918D01*
X123451Y129796D01*
X125105Y129111D01*
X126895D01*
X128549Y129796D01*
X129815Y131062D01*
X130500Y132716D01*
Y134506D01*
X129815Y136160D01*
X128549Y137426D01*
X126895Y138111D01*
X125105D01*
X123451Y137426D01*
X123075Y137050D01*
X121607Y137274D01*
X120341Y138540D01*
X118687Y139225D01*
X116897D01*
X115243Y138540D01*
X114863Y138160D01*
X113837Y137527D01*
X112571Y138792D01*
X110918Y139478D01*
X109127D01*
X107473Y138792D01*
X106208Y137527D01*
X105522Y135873D01*
Y134848D01*
X103633Y132959D01*
X98619D01*
X98093Y134229D01*
X98315Y134451D01*
X99000Y136105D01*
Y137895D01*
X98769Y138452D01*
X99017Y138823D01*
X100195Y139441D01*
X101849Y138756D01*
X103639D01*
X105293Y139441D01*
X106559Y140707D01*
X107244Y142361D01*
Y144151D01*
X106559Y145805D01*
X105293Y147071D01*
X103639Y147756D01*
X103843Y148941D01*
X113695D01*
X114451Y148185D01*
X116105Y147500D01*
X117895D01*
X119549Y148185D01*
X120217Y147192D01*
X120185Y147160D01*
X119500Y145506D01*
Y143716D01*
X120185Y142062D01*
X121451Y140796D01*
X123105Y140111D01*
X124895D01*
X126549Y140796D01*
X127815Y142062D01*
X128500Y143716D01*
Y145506D01*
X127815Y147160D01*
X126549Y148426D01*
X124895Y149111D01*
X123105D01*
X121451Y148426D01*
X120783Y149419D01*
X120815Y149451D01*
X121500Y151105D01*
Y152895D01*
X120815Y154549D01*
X119549Y155815D01*
X117895Y156500D01*
X116105D01*
X114451Y155815D01*
X113695Y155059D01*
X98018D01*
X97815Y155549D01*
X96549Y156815D01*
X94895Y157500D01*
X93105D01*
X91451Y156815D01*
X90185Y155549D01*
X89500Y153895D01*
Y152105D01*
X90185Y150451D01*
X91451Y149185D01*
X93105Y148500D01*
X94895D01*
X95960Y148941D01*
X101645D01*
X101849Y147756D01*
X100195Y147071D01*
X98964Y145840D01*
X64002D01*
X63297Y146896D01*
X63500Y147386D01*
Y149176D01*
X62815Y150830D01*
X61549Y152096D01*
X59895Y152781D01*
X58105D01*
X56451Y152096D01*
X55770Y151415D01*
X54500Y151941D01*
Y152895D01*
X53815Y154549D01*
X53215Y155149D01*
X53741Y156419D01*
X75977D01*
X75977Y156419D01*
X77148Y156651D01*
X78140Y157315D01*
X81267Y160441D01*
X90195D01*
X90451Y160185D01*
X92105Y159500D01*
X93895D01*
X95549Y160185D01*
X96815Y161451D01*
X97500Y163105D01*
Y164895D01*
X96815Y166549D01*
X95549Y167815D01*
X93895Y168500D01*
X92105D01*
X90451Y167815D01*
X89195Y166559D01*
X80000D01*
X80000Y166559D01*
X78829Y166326D01*
X77837Y165663D01*
X77837Y165663D01*
X74710Y162536D01*
X29658D01*
X29132Y163806D01*
X33504Y168178D01*
X34774Y167652D01*
Y167503D01*
X35459Y165849D01*
X36725Y164583D01*
X38379Y163898D01*
X40169D01*
X41823Y164583D01*
X43089Y165849D01*
X43774Y167503D01*
Y168112D01*
X45044Y168791D01*
X45219Y168674D01*
X46389Y168441D01*
X51278D01*
X51278Y168441D01*
X52449Y168674D01*
X53441Y169337D01*
X60163Y176059D01*
X60163Y176059D01*
X60377Y176380D01*
X60439Y176441D01*
X92195D01*
X92451Y176185D01*
X94105Y175500D01*
X95895D01*
X97549Y176185D01*
X98815Y177451D01*
X99018Y177941D01*
X100264Y178189D01*
X107108Y171345D01*
X108100Y170681D01*
X109271Y170449D01*
X109271Y170449D01*
X121483D01*
X125594Y166337D01*
X125594Y166337D01*
X126587Y165674D01*
X127757Y165441D01*
X176195D01*
X176451Y165185D01*
X178105Y164500D01*
X179895D01*
X181549Y165185D01*
X182815Y166451D01*
X183500Y168105D01*
Y169895D01*
X182815Y171549D01*
X181549Y172815D01*
X179895Y173500D01*
X178105D01*
X176451Y172815D01*
X175195Y171559D01*
X160648D01*
X159943Y172615D01*
X160146Y173105D01*
Y174895D01*
X160413Y175295D01*
X184695D01*
X185451Y174539D01*
X187105Y173854D01*
X188895D01*
X190549Y174539D01*
X191815Y175805D01*
X192500Y177459D01*
Y179249D01*
X191815Y180903D01*
X190549Y182169D01*
X188895Y182854D01*
X187105D01*
X185451Y182169D01*
X184695Y181413D01*
X160337D01*
X160087Y181663D01*
X159969Y182865D01*
X165834Y188731D01*
X165835Y188731D01*
X166497Y189723D01*
X166730Y190893D01*
X166730Y190894D01*
Y199195D01*
X167486Y199951D01*
X168172Y201605D01*
Y203395D01*
X167486Y205049D01*
X166221Y206315D01*
X164567Y207000D01*
X162777D01*
X161123Y206315D01*
X159857Y205049D01*
X159172Y203395D01*
Y201605D01*
X159348Y201179D01*
X158376Y200207D01*
X158309Y200235D01*
Y195306D01*
X157039D01*
Y194036D01*
X152110D01*
X152445Y193227D01*
X151451Y192815D01*
X150185Y191549D01*
X149500Y189895D01*
Y188105D01*
X149703Y187615D01*
X148997Y186559D01*
X140762D01*
X139913Y187829D01*
X140234Y188605D01*
Y190395D01*
X139549Y192049D01*
X138284Y193315D01*
X136629Y194000D01*
X135560D01*
X131489Y198071D01*
X130496Y198734D01*
X129326Y198967D01*
X129326Y198967D01*
X103844D01*
X94709Y208102D01*
X93716Y208765D01*
X92546Y208998D01*
X92546Y208998D01*
X87340D01*
X86169Y208765D01*
X85177Y208102D01*
X76042Y198967D01*
X46125D01*
X40429Y204663D01*
X39437Y205326D01*
X38266Y205559D01*
X38266Y205559D01*
X-41774D01*
X-42945Y205326D01*
X-43937Y204663D01*
X-43937Y204663D01*
X-48191Y200409D01*
X-49261D01*
X-50915Y199723D01*
X-52181Y198458D01*
X-52866Y196804D01*
Y195014D01*
X-52181Y193360D01*
X-50915Y192094D01*
X-49261Y191409D01*
X-47471D01*
X-45817Y192094D01*
X-44551Y193360D01*
X-43866Y195014D01*
Y196083D01*
X-40507Y199441D01*
X-12917D01*
X-12391Y198171D01*
X-14135Y196428D01*
X-16049Y193112D01*
X-17040Y189414D01*
Y188770D01*
X-2500D01*
Y186230D01*
X-17040D01*
Y185586D01*
X-16049Y181888D01*
X-15805Y181465D01*
X-16821Y180685D01*
X-17451Y181315D01*
X-19105Y182000D01*
X-20895D01*
X-22549Y181315D01*
X-23815Y180049D01*
X-24500Y178395D01*
Y176605D01*
X-23815Y174951D01*
X-23693Y174829D01*
X-24219Y173559D01*
X-156195D01*
X-156451Y173815D01*
X-158105Y174500D01*
X-159895D01*
X-161549Y173815D01*
X-162815Y172549D01*
X-163500Y170895D01*
Y169105D01*
X-162815Y167451D01*
X-161549Y166185D01*
X-159895Y165500D01*
X-158105D01*
X-156451Y166185D01*
X-155195Y167441D01*
X-146003D01*
X-145297Y166385D01*
X-145500Y165895D01*
Y164105D01*
X-144815Y162451D01*
X-143549Y161185D01*
X-142436Y160724D01*
X-141922Y159751D01*
X-141939Y159248D01*
X-142500Y157895D01*
Y156105D01*
X-141815Y154451D01*
X-140549Y153185D01*
X-138895Y152500D01*
X-137105D01*
X-135451Y153185D01*
X-134595Y154041D01*
X-132917D01*
X-132392Y152771D01*
X-134135Y151028D01*
X-136049Y147712D01*
X-137040Y144014D01*
Y143370D01*
X-122500D01*
X-107960D01*
Y144014D01*
X-108951Y147712D01*
X-110865Y151028D01*
X-112609Y152771D01*
X-112083Y154041D01*
X-105735D01*
X-103031Y151337D01*
X-103031Y151337D01*
X-102039Y150674D01*
X-100868Y150441D01*
X-24902D01*
X-24416Y149268D01*
X-33625Y140059D01*
X-61695D01*
X-62451Y140815D01*
X-64105Y141500D01*
X-65895D01*
X-67549Y140815D01*
X-68815Y139549D01*
X-69500Y137895D01*
Y136105D01*
X-68815Y134451D01*
X-67549Y133185D01*
X-65895Y132500D01*
X-64105D01*
X-62451Y133185D01*
X-61695Y133941D01*
X-32359D01*
X-32358Y133941D01*
X-31188Y134174D01*
X-30196Y134837D01*
X-22818Y142214D01*
X-22579Y142087D01*
X-21764Y141473D01*
Y141270D01*
X-5000D01*
X11764D01*
Y141473D01*
X12579Y142087D01*
X12818Y142214D01*
X14195Y140837D01*
X14195Y140837D01*
X15188Y140174D01*
X16358Y139941D01*
X16358Y139941D01*
X55622D01*
X56722Y139722D01*
X56722Y139722D01*
X89382D01*
X90231Y138452D01*
X90000Y137895D01*
Y136105D01*
X90685Y134451D01*
X90907Y134229D01*
X90381Y132959D01*
X11372D01*
X10666Y134015D01*
X11120Y135110D01*
X11764Y138349D01*
Y138730D01*
X-5000D01*
X-21764D01*
Y138349D01*
X-21120Y135110D01*
X-19856Y132059D01*
X-18021Y129314D01*
X-15813Y127105D01*
X-15955Y126094D01*
X-16033Y125835D01*
X-131224D01*
X-131224Y125835D01*
X-132395Y125602D01*
X-133387Y124939D01*
X-163267Y95059D01*
X-187695D01*
X-188451Y95815D01*
X-189687Y96327D01*
X-189687Y97673D01*
X-188451Y98185D01*
X-187185Y99451D01*
X-186500Y101105D01*
Y102895D01*
X-187185Y104549D01*
X-187941Y105305D01*
Y156733D01*
X-127858Y216816D01*
X-73180D01*
X-72424Y216060D01*
X-70770Y215375D01*
X-68980D01*
X-68582Y215540D01*
X-67863Y214463D01*
X-70826Y211500D01*
X-71895D01*
X-73549Y210815D01*
X-74815Y209549D01*
X-75500Y207895D01*
Y206105D01*
X-74815Y204451D01*
X-73549Y203185D01*
X-71895Y202500D01*
X-70105D01*
X-69341Y202817D01*
X-67815Y202451D01*
X-66549Y201185D01*
X-64895Y200500D01*
X-63105D01*
X-61451Y201185D01*
X-60185Y202451D01*
X-59500Y204105D01*
Y205174D01*
X-57233Y207441D01*
X42500D01*
X42500Y207441D01*
X43469Y207634D01*
X44174Y207083D01*
X44500Y206701D01*
Y205014D01*
X45185Y203360D01*
X46451Y202094D01*
X48105Y201409D01*
X49895D01*
X51549Y202094D01*
X52815Y203360D01*
X53500Y205014D01*
Y206804D01*
X53094Y207784D01*
X54170Y208504D01*
X56337Y206337D01*
X56337Y206337D01*
X57330Y205674D01*
X58500Y205441D01*
X58500Y205441D01*
X74307D01*
X74308Y205441D01*
X75478Y205674D01*
X76470Y206337D01*
X77885Y207751D01*
X77885Y207751D01*
X78548Y208744D01*
X78698Y209500D01*
X78895D01*
X80549Y210185D01*
X81815Y211451D01*
X82500Y213105D01*
Y214895D01*
X82297Y215385D01*
X83003Y216441D01*
X91233D01*
X103355Y204320D01*
X103355Y204320D01*
X104347Y203657D01*
X105517Y203424D01*
X107158D01*
X107185Y203360D01*
X108451Y202094D01*
X110105Y201409D01*
X111895D01*
X113549Y202094D01*
X114500Y203045D01*
X115451Y202094D01*
X117105Y201409D01*
X118895D01*
X120549Y202094D01*
X121815Y203360D01*
X122500Y205014D01*
Y206804D01*
X121815Y208458D01*
X120549Y209723D01*
X118895Y210408D01*
X117105D01*
X115451Y209723D01*
X114500Y208773D01*
X113549Y209723D01*
X111895Y210408D01*
X110105D01*
X108451Y209723D01*
X108269Y209541D01*
X106784D01*
X94663Y221663D01*
X93671Y222326D01*
X92500Y222559D01*
X92500Y222559D01*
X67629D01*
X67103Y223829D01*
X67681Y224407D01*
X68600Y225998D01*
X69075Y227772D01*
Y229608D01*
X68681Y231080D01*
X69763Y231793D01*
X74219Y227337D01*
X75212Y226674D01*
X76382Y226441D01*
X76382Y226441D01*
X100000D01*
X100000Y226441D01*
X100000Y226441D01*
X123997D01*
X124703Y225385D01*
X124500Y224895D01*
Y223105D01*
X125185Y221451D01*
X126451Y220185D01*
X128105Y219500D01*
X129895D01*
X131549Y220185D01*
X132815Y221451D01*
X133500Y223105D01*
Y224895D01*
X132815Y226549D01*
X131549Y227815D01*
X130606Y228206D01*
X130277Y229673D01*
X131624Y231020D01*
X131895D01*
X133549Y231705D01*
X134815Y232971D01*
X135388Y234355D01*
X136673Y235096D01*
X138186Y234260D01*
X151104Y226143D01*
X151284Y226016D01*
X151173Y224537D01*
X150185Y223549D01*
X149500Y221895D01*
Y220105D01*
X150185Y218451D01*
X151451Y217185D01*
X153105Y216500D01*
X154895D01*
X156549Y217185D01*
X157815Y218451D01*
X158254Y219512D01*
X159673Y220063D01*
X163546Y217315D01*
X175474Y207803D01*
X186866Y197623D01*
X190841Y193758D01*
Y191540D01*
X191754Y189335D01*
X193442Y187647D01*
X195647Y186734D01*
X198034D01*
X200239Y187647D01*
X200927Y186662D01*
X199664Y185399D01*
X198750Y183193D01*
Y180807D01*
X199664Y178601D01*
X201351Y176913D01*
X203556Y176000D01*
X205944D01*
X207670Y176715D01*
X208645Y175750D01*
X208000Y174193D01*
Y171807D01*
X208913Y169601D01*
X210601Y167913D01*
X212806Y167000D01*
X214662D01*
X218766Y161601D01*
X227377Y149241D01*
X235281Y136441D01*
X242465Y123223D01*
X246771Y114136D01*
X246092Y113063D01*
X244015D01*
X243719Y113004D01*
X243418D01*
X241485Y112619D01*
X241207Y112504D01*
X240911Y112445D01*
X239091Y111691D01*
X238840Y111524D01*
X238562Y111409D01*
X236924Y110314D01*
X236731Y110121D01*
X105000D01*
X100099Y109638D01*
X95387Y108209D01*
X91044Y105887D01*
X87237Y102763D01*
X84113Y98956D01*
X81791Y94613D01*
X80362Y89901D01*
X79879Y85000D01*
Y25121D01*
X73415D01*
X73266Y25637D01*
X69935Y33679D01*
X65725Y41297D01*
X60687Y48397D01*
X54887Y54887D01*
X48397Y60687D01*
X41297Y65725D01*
X33679Y69935D01*
X25637Y73266D01*
X17273Y75676D01*
X8691Y77134D01*
X0Y77622D01*
X-8691Y77134D01*
X-17273Y75676D01*
X-25637Y73266D01*
X-33679Y69935D01*
X-41297Y65725D01*
X-48397Y60687D01*
X-54887Y54887D01*
X-60687Y48397D01*
X-65725Y41297D01*
X-69935Y33679D01*
X-73266Y25637D01*
X-73415Y25121D01*
X-231731Y25121D01*
X-231924Y25314D01*
X-233562Y26409D01*
X-233840Y26524D01*
X-234091Y26691D01*
X-235912Y27445D01*
X-236207Y27504D01*
X-236485Y27619D01*
X-238418Y28004D01*
X-238719D01*
X-239015Y28063D01*
X-269479D01*
X-270326Y29009D01*
X-269385Y37485D01*
X-266901Y52318D01*
X-263601Y66991D01*
X-259495Y81460D01*
X-254595Y95679D01*
X-248917Y109606D01*
X-242478Y123198D01*
X-235297Y136413D01*
X-227397Y149210D01*
X-218789Y161569D01*
X-214662Y167000D01*
X-212806D01*
X-210601Y167913D01*
X-208913Y169601D01*
X-208000Y171807D01*
Y174193D01*
X-208645Y175750D01*
X-207670Y176715D01*
X-205944Y176000D01*
X-203556D01*
X-201351Y176913D01*
X-199664Y178601D01*
X-198750Y180807D01*
Y183193D01*
X-199664Y185399D01*
X-200927Y186662D01*
X-200239Y187647D01*
X-198034Y186734D01*
X-195647D01*
X-193442Y187647D01*
X-191754Y189335D01*
X-190841Y191540D01*
Y193758D01*
X-186865Y197623D01*
X-175474Y207803D01*
X-163546Y217315D01*
X-151104Y226143D01*
X-138187Y234260D01*
X-124834Y241639D01*
X-111089Y248259D01*
X-96994Y254097D01*
X-82594Y259136D01*
X-67934Y263359D01*
X-53061Y266754D01*
X-38020Y269310D01*
X-22860Y271018D01*
X-7628Y271873D01*
X7628D01*
X22860Y271018D01*
D02*
G37*
G36*
X-560121Y63063D02*
X-646941D01*
Y194675D01*
X-645768Y195161D01*
X-645605Y194998D01*
X-643895Y194011D01*
X-641987Y193500D01*
X-640013D01*
X-638105Y194011D01*
X-636395Y194998D01*
X-634999Y196395D01*
X-634011Y198105D01*
X-633500Y200013D01*
Y201987D01*
X-634011Y203895D01*
X-634999Y205605D01*
X-636395Y207001D01*
X-638105Y207989D01*
X-640013Y208500D01*
X-641987D01*
X-643895Y207989D01*
X-645605Y207001D01*
X-645768Y206838D01*
X-646941Y207325D01*
Y215879D01*
X-560121D01*
Y63063D01*
D02*
G37*
G36*
X-21224Y86235D02*
X-32082D01*
X-32082Y86235D01*
X-33253Y86002D01*
X-34245Y85339D01*
X-37525Y82059D01*
X-89695D01*
X-90451Y82815D01*
X-92105Y83500D01*
X-93873D01*
X-93954Y83579D01*
X-94674Y84552D01*
X-94384Y84941D01*
X-63305D01*
X-62549Y84185D01*
X-60895Y83500D01*
X-59105D01*
X-57451Y84185D01*
X-56185Y85451D01*
X-55500Y87105D01*
Y88895D01*
X-56185Y90549D01*
X-57451Y91815D01*
X-59105Y92500D01*
X-60895D01*
X-62549Y91815D01*
X-63305Y91059D01*
X-96000D01*
X-97170Y90826D01*
X-98163Y90163D01*
X-110267Y78059D01*
X-117809D01*
X-118062Y79329D01*
X-117059Y79744D01*
X-114314Y81579D01*
X-111979Y83913D01*
X-110144Y86659D01*
X-108880Y89710D01*
X-108236Y92949D01*
Y93330D01*
X-125000D01*
X-141764D01*
Y92949D01*
X-141120Y89710D01*
X-139856Y86659D01*
X-138021Y83913D01*
X-135686Y81579D01*
X-132941Y79744D01*
X-131938Y79329D01*
X-132191Y78059D01*
X-142000D01*
X-143171Y77826D01*
X-144163Y77163D01*
X-144163Y77163D01*
X-156267Y65059D01*
X-187695D01*
X-188451Y65815D01*
X-189687Y66327D01*
Y67673D01*
X-188451Y68185D01*
X-187185Y69451D01*
X-186500Y71105D01*
Y72895D01*
X-187185Y74549D01*
X-188451Y75815D01*
X-189687Y76327D01*
X-189687Y77673D01*
X-188451Y78185D01*
X-187695Y78941D01*
X-163000D01*
X-163000Y78941D01*
X-161829Y79174D01*
X-160837Y79837D01*
X-142720Y97954D01*
X-141550Y97329D01*
X-141764Y96251D01*
Y95870D01*
X-126270D01*
Y111364D01*
X-126651D01*
X-127729Y111150D01*
X-128354Y112320D01*
X-126109Y114565D01*
X-57376D01*
X-21224D01*
Y86235D01*
D02*
G37*
G36*
X-423063Y-128000D02*
X-423194D01*
X-425399Y-128913D01*
X-427086Y-130601D01*
X-428000Y-132807D01*
Y-135194D01*
X-427086Y-137399D01*
X-425399Y-139087D01*
X-424853Y-139313D01*
Y-140687D01*
X-425399Y-140913D01*
X-427086Y-142601D01*
X-428000Y-144806D01*
Y-145000D01*
X-646941D01*
Y36937D01*
X-553000D01*
Y36806D01*
X-552087Y34601D01*
X-550399Y32913D01*
X-548194Y32000D01*
X-545807D01*
X-543601Y32913D01*
X-541913Y34601D01*
X-541687Y35147D01*
X-540313D01*
X-540087Y34601D01*
X-538399Y32913D01*
X-536194Y32000D01*
X-533806D01*
X-531601Y32913D01*
X-529913Y34601D01*
X-529687Y35147D01*
X-528313D01*
X-528087Y34601D01*
X-526399Y32913D01*
X-524193Y32000D01*
X-521806D01*
X-519601Y32913D01*
X-517913Y34601D01*
X-517000Y36806D01*
Y36937D01*
X-423063D01*
Y-128000D01*
D02*
G37*
G36*
X346941Y10000D02*
X298009D01*
X297199Y24632D01*
X297178Y24715D01*
X297185Y24801D01*
X295383Y41026D01*
X295357Y41108D01*
X295359Y41194D01*
X292663Y57295D01*
X292632Y57375D01*
X292630Y57461D01*
X289642Y70744D01*
X289887Y71044D01*
X292209Y75387D01*
X293638Y80099D01*
X294121Y85000D01*
X293638Y89901D01*
X292209Y94613D01*
X289887Y98956D01*
X286763Y102763D01*
X282957Y105887D01*
X278613Y108209D01*
X277701Y108486D01*
X272953Y120128D01*
X272906Y120200D01*
X272885Y120283D01*
X265894Y135036D01*
X265842Y135105D01*
X265817Y135186D01*
X258021Y149530D01*
X257966Y149596D01*
X257936Y149676D01*
X249359Y163567D01*
X249300Y163630D01*
X249266Y163708D01*
X239934Y177104D01*
X239872Y177163D01*
X239834Y177240D01*
X233993Y184706D01*
X233690Y184967D01*
X233423Y185266D01*
X231318Y186850D01*
X230958Y187024D01*
X230623Y187243D01*
X228180Y188228D01*
X227787Y188302D01*
X227407Y188427D01*
X224793Y188747D01*
X224394Y188717D01*
X223994Y188739D01*
X221386Y188371D01*
X221008Y188239D01*
X220617Y188158D01*
X218193Y187127D01*
X217862Y186901D01*
X217505Y186721D01*
X215430Y185098D01*
X214285Y185715D01*
X209797Y190203D01*
X209859Y191472D01*
X210990Y192400D01*
X211275Y192748D01*
X211593Y193065D01*
X213242Y195533D01*
X213414Y195948D01*
X213626Y196345D01*
X214487Y199185D01*
X214531Y199632D01*
X214619Y200072D01*
Y202542D01*
X214560Y202837D01*
Y203139D01*
X214176Y205071D01*
X214060Y205350D01*
X214002Y205645D01*
X213248Y207465D01*
X213080Y207716D01*
X212965Y207994D01*
X211870Y209633D01*
X211657Y209846D01*
X211490Y210096D01*
X210793Y210793D01*
X204939Y216647D01*
X204867Y216695D01*
X204815Y216765D01*
X192470Y227797D01*
X192395Y227841D01*
X192339Y227908D01*
X179394Y238230D01*
X179317Y238270D01*
X179257Y238334D01*
X165754Y247914D01*
X165675Y247950D01*
X165612Y248010D01*
X151593Y256818D01*
X151511Y256849D01*
X151445Y256905D01*
X136954Y264914D01*
X136872Y264940D01*
X136802Y264993D01*
X121885Y272176D01*
X121801Y272198D01*
X121728Y272246D01*
X106432Y278582D01*
X106347Y278599D01*
X106272Y278644D01*
X90645Y284112D01*
X90559Y284124D01*
X90481Y284164D01*
X74572Y288747D01*
X74485Y288755D01*
X74406Y288790D01*
X58264Y292474D01*
X58177Y292477D01*
X58096Y292508D01*
X41773Y295281D01*
X41686Y295279D01*
X41603Y295305D01*
X25151Y297159D01*
X25064Y297152D01*
X24980Y297173D01*
X8450Y298102D01*
X8364Y298090D01*
X8278Y298106D01*
X-8278D01*
X-8364Y298090D01*
X-8450Y298102D01*
X-24980Y297173D01*
X-25064Y297152D01*
X-25151Y297159D01*
X-41603Y295305D01*
X-41686Y295279D01*
X-41773Y295281D01*
X-58096Y292508D01*
X-58177Y292477D01*
X-58264Y292474D01*
X-74406Y288790D01*
X-74485Y288755D01*
X-74572Y288747D01*
X-90481Y284164D01*
X-90559Y284124D01*
X-90645Y284112D01*
X-106272Y278644D01*
X-106347Y278599D01*
X-106432Y278582D01*
X-121728Y272246D01*
X-121801Y272198D01*
X-121885Y272176D01*
X-136802Y264993D01*
X-136872Y264940D01*
X-136954Y264914D01*
X-151445Y256905D01*
X-151511Y256849D01*
X-151593Y256818D01*
X-165612Y248010D01*
X-165675Y247950D01*
X-165754Y247914D01*
X-179257Y238334D01*
X-179317Y238270D01*
X-179394Y238230D01*
X-192339Y227908D01*
X-192395Y227841D01*
X-192470Y227797D01*
X-204815Y216765D01*
X-204867Y216695D01*
X-204939Y216647D01*
X-210793Y210793D01*
X-211724Y209862D01*
X-211947Y209529D01*
X-212211Y209228D01*
X-213528Y206947D01*
X-213656Y206568D01*
X-213833Y206209D01*
X-214515Y203665D01*
X-214541Y203266D01*
X-214619Y202873D01*
Y200239D01*
X-214541Y199847D01*
X-214515Y199448D01*
X-213833Y196903D01*
X-213656Y196545D01*
X-213528Y196166D01*
X-212211Y193885D01*
X-211947Y193584D01*
X-211724Y193251D01*
X-209862Y191388D01*
X-209529Y191166D01*
X-209228Y190902D01*
X-208046Y190220D01*
X-207650Y188525D01*
X-209529Y185706D01*
X-209837Y185399D01*
X-210005Y184993D01*
X-211792Y182311D01*
X-212063Y182219D01*
X-213306Y182330D01*
X-214813Y184443D01*
X-215157Y184767D01*
X-215473Y185118D01*
X-217976Y186987D01*
X-218402Y187191D01*
X-218810Y187428D01*
X-221763Y188446D01*
X-222231Y188510D01*
X-222692Y188612D01*
X-225815Y188681D01*
X-226280Y188599D01*
X-226750Y188556D01*
X-229746Y187670D01*
X-230163Y187450D01*
X-230598Y187266D01*
X-233181Y185509D01*
X-233512Y185172D01*
X-233870Y184864D01*
X-234832Y183634D01*
X-234832Y183634D01*
X-239859Y177205D01*
X-239898Y177129D01*
X-239960Y177069D01*
X-249288Y163676D01*
X-249322Y163597D01*
X-249380Y163534D01*
X-257954Y149646D01*
X-257984Y149565D01*
X-258039Y149499D01*
X-265831Y135158D01*
X-265857Y135076D01*
X-265908Y135007D01*
X-272896Y120257D01*
X-272917Y120174D01*
X-272964Y120103D01*
X-279126Y104989D01*
X-279142Y104904D01*
X-279186Y104830D01*
X-284503Y89399D01*
X-284514Y89314D01*
X-284554Y89238D01*
X-289009Y73536D01*
X-289016Y73450D01*
X-289051Y73372D01*
X-292633Y57448D01*
X-292635Y57362D01*
X-292665Y57282D01*
X-295361Y41185D01*
X-295358Y41099D01*
X-295384Y41017D01*
X-297186Y24795D01*
X-297178Y24710D01*
X-297200Y24627D01*
X-297895Y12072D01*
X-299209Y9613D01*
X-300638Y4901D01*
X-301121Y-0D01*
X-300638Y-4901D01*
X-299209Y-9613D01*
X-297895Y-12072D01*
X-297200Y-24627D01*
X-297178Y-24710D01*
X-297186Y-24795D01*
X-295384Y-41017D01*
X-295358Y-41099D01*
X-295361Y-41185D01*
X-292665Y-57282D01*
X-292635Y-57362D01*
X-292633Y-57448D01*
X-289051Y-73372D01*
X-289016Y-73450D01*
X-289009Y-73536D01*
X-284554Y-89238D01*
X-284514Y-89314D01*
X-284503Y-89399D01*
X-279186Y-104830D01*
X-279142Y-104904D01*
X-279126Y-104989D01*
X-272964Y-120103D01*
X-272917Y-120174D01*
X-272896Y-120257D01*
X-265908Y-135007D01*
X-265857Y-135076D01*
X-265831Y-135158D01*
X-258039Y-149499D01*
X-257984Y-149565D01*
X-257954Y-149646D01*
X-249380Y-163534D01*
X-249322Y-163597D01*
X-249288Y-163676D01*
X-239960Y-177069D01*
X-239898Y-177129D01*
X-239859Y-177205D01*
X-234832Y-183634D01*
X-234832Y-183634D01*
X-233870Y-184864D01*
X-233512Y-185172D01*
X-233181Y-185509D01*
X-230598Y-187266D01*
X-230163Y-187450D01*
X-229746Y-187670D01*
X-226750Y-188556D01*
X-226280Y-188599D01*
X-225815Y-188681D01*
X-222692Y-188612D01*
X-222231Y-188510D01*
X-221763Y-188446D01*
X-218810Y-187428D01*
X-218402Y-187191D01*
X-217976Y-186987D01*
X-215473Y-185118D01*
X-215157Y-184767D01*
X-214815Y-184444D01*
X-208899Y-189515D01*
X-209016Y-190780D01*
X-209228Y-190902D01*
X-209529Y-191166D01*
X-209862Y-191388D01*
X-211724Y-193251D01*
X-211947Y-193584D01*
X-212211Y-193885D01*
X-213528Y-196166D01*
X-213656Y-196545D01*
X-213833Y-196903D01*
X-214515Y-199448D01*
X-214541Y-199847D01*
X-214619Y-200239D01*
Y-202873D01*
X-214541Y-203266D01*
X-214515Y-203665D01*
X-213833Y-206209D01*
X-213656Y-206568D01*
X-213528Y-206947D01*
X-212211Y-209228D01*
X-211947Y-209529D01*
X-211724Y-209862D01*
X-210793Y-210793D01*
X-204939Y-216647D01*
X-204867Y-216695D01*
X-204815Y-216765D01*
X-192470Y-227797D01*
X-192395Y-227841D01*
X-192339Y-227908D01*
X-179394Y-238230D01*
X-179317Y-238270D01*
X-179257Y-238334D01*
X-165754Y-247914D01*
X-165675Y-247950D01*
X-165612Y-248010D01*
X-151593Y-256818D01*
X-151511Y-256849D01*
X-151445Y-256905D01*
X-136954Y-264914D01*
X-136872Y-264940D01*
X-136802Y-264993D01*
X-121885Y-272176D01*
X-121801Y-272198D01*
X-121728Y-272246D01*
X-106432Y-278582D01*
X-106347Y-278599D01*
X-106272Y-278644D01*
X-90645Y-284112D01*
X-90559Y-284124D01*
X-90481Y-284164D01*
X-74572Y-288747D01*
X-74485Y-288755D01*
X-74406Y-288790D01*
X-58264Y-292474D01*
X-58177Y-292477D01*
X-58096Y-292508D01*
X-41773Y-295281D01*
X-41686Y-295279D01*
X-41603Y-295305D01*
X-25151Y-297159D01*
X-25064Y-297152D01*
X-24980Y-297173D01*
X-8450Y-298102D01*
X-8364Y-298090D01*
X-8278Y-298106D01*
X8278D01*
X8364Y-298090D01*
X8450Y-298102D01*
X24980Y-297173D01*
X25064Y-297152D01*
X25151Y-297159D01*
X41603Y-295305D01*
X41686Y-295279D01*
X41773Y-295281D01*
X58096Y-292508D01*
X58177Y-292477D01*
X58264Y-292474D01*
X74406Y-288790D01*
X74485Y-288755D01*
X74572Y-288747D01*
X90481Y-284164D01*
X90558Y-284124D01*
X90645Y-284112D01*
X106272Y-278644D01*
X106347Y-278599D01*
X106432Y-278582D01*
X121728Y-272246D01*
X121801Y-272198D01*
X121885Y-272176D01*
X136802Y-264993D01*
X136872Y-264940D01*
X136954Y-264914D01*
X151445Y-256905D01*
X151511Y-256849D01*
X151593Y-256818D01*
X165612Y-248010D01*
X165675Y-247950D01*
X165754Y-247914D01*
X179257Y-238334D01*
X179317Y-238270D01*
X179394Y-238230D01*
X192339Y-227908D01*
X192395Y-227841D01*
X192470Y-227797D01*
X204815Y-216765D01*
X204867Y-216695D01*
X204939Y-216647D01*
X210793Y-210793D01*
X211490Y-210096D01*
X211657Y-209846D01*
X211870Y-209633D01*
X212965Y-207994D01*
X213080Y-207716D01*
X213248Y-207466D01*
X214002Y-205645D01*
X214060Y-205350D01*
X214176Y-205071D01*
X214560Y-203139D01*
Y-202837D01*
X214619Y-202542D01*
Y-200072D01*
X214531Y-199632D01*
X214487Y-199185D01*
X213626Y-196345D01*
X213414Y-195948D01*
X213242Y-195533D01*
X211593Y-193065D01*
X211275Y-192748D01*
X210990Y-192400D01*
X208696Y-190518D01*
X208300Y-190306D01*
X207926Y-190056D01*
X207493Y-189877D01*
X207287Y-188624D01*
X212791Y-183808D01*
X214055Y-183939D01*
X214671Y-184760D01*
X214969Y-185028D01*
X215230Y-185331D01*
X217303Y-186956D01*
X217660Y-187137D01*
X217990Y-187362D01*
X220413Y-188396D01*
X220805Y-188478D01*
X221182Y-188610D01*
X223790Y-188981D01*
X224190Y-188959D01*
X224589Y-188990D01*
X227204Y-188673D01*
X227584Y-188548D01*
X227977Y-188474D01*
X230421Y-187492D01*
X230756Y-187273D01*
X231117Y-187100D01*
X233223Y-185518D01*
X233490Y-185220D01*
X233793Y-184959D01*
X234606Y-183923D01*
X234606Y-183923D01*
X239650Y-177488D01*
X239689Y-177412D01*
X239751Y-177352D01*
X249111Y-163944D01*
X249146Y-163866D01*
X249205Y-163803D01*
X257808Y-149897D01*
X257838Y-149817D01*
X257893Y-149751D01*
X265714Y-135390D01*
X265739Y-135308D01*
X265791Y-135239D01*
X272804Y-120467D01*
X272825Y-120384D01*
X272872Y-120312D01*
X279056Y-105175D01*
X279073Y-105091D01*
X279116Y-105016D01*
X280602Y-100712D01*
X280613Y-100709D01*
X284956Y-98387D01*
X288763Y-95263D01*
X291887Y-91456D01*
X294209Y-87113D01*
X295638Y-82401D01*
X296121Y-77500D01*
X295638Y-72599D01*
X294209Y-67887D01*
X291887Y-63544D01*
X291397Y-62946D01*
X292612Y-57554D01*
X292614Y-57468D01*
X292645Y-57387D01*
X295350Y-41261D01*
X295348Y-41175D01*
X295374Y-41093D01*
X297182Y-24841D01*
X297175Y-24755D01*
X297196Y-24672D01*
X298102Y-8345D01*
X298090Y-8260D01*
X298106Y-8176D01*
X298106Y-1270D01*
X299376Y0D01*
X346941D01*
Y-346941D01*
X-297000D01*
Y-326000D01*
X-372000D01*
Y-346941D01*
X-396937D01*
Y-163000D01*
Y-161683D01*
X-397015Y-161290D01*
X-397042Y-160891D01*
X-397723Y-158347D01*
X-397900Y-157988D01*
X-398029Y-157609D01*
X-399346Y-155328D01*
X-399610Y-155027D01*
X-399832Y-154695D01*
X-401695Y-152832D01*
X-402027Y-152610D01*
X-402328Y-152346D01*
X-404609Y-151029D01*
X-404988Y-150900D01*
X-405347Y-150723D01*
X-407891Y-150042D01*
X-408290Y-150015D01*
X-408683Y-149937D01*
X-410000D01*
Y-142063D01*
X-408683D01*
X-408291Y-141985D01*
X-407891Y-141958D01*
X-405347Y-141277D01*
X-404988Y-141100D01*
X-404609Y-140971D01*
X-402328Y-139654D01*
X-402027Y-139390D01*
X-401695Y-139168D01*
X-399832Y-137305D01*
X-399610Y-136973D01*
X-399346Y-136672D01*
X-398029Y-134391D01*
X-397900Y-134012D01*
X-397723Y-133653D01*
X-397042Y-131109D01*
X-397015Y-130709D01*
X-396937Y-130317D01*
Y-129000D01*
Y37291D01*
X-396485Y37381D01*
X-396207Y37496D01*
X-395911Y37555D01*
X-394091Y38309D01*
X-393840Y38476D01*
X-393562Y38591D01*
X-391924Y39686D01*
X-391711Y39899D01*
X-391460Y40067D01*
X-390067Y41460D01*
X-389899Y41711D01*
X-389686Y41924D01*
X-388591Y43562D01*
X-388476Y43840D01*
X-388309Y44091D01*
X-387555Y45911D01*
X-387496Y46207D01*
X-387381Y46485D01*
X-386996Y48418D01*
Y48719D01*
X-386937Y49015D01*
Y50000D01*
Y183000D01*
Y184317D01*
X-387015Y184709D01*
X-387042Y185109D01*
X-387723Y187653D01*
X-387900Y188012D01*
X-388029Y188391D01*
X-389346Y190672D01*
X-389610Y190973D01*
X-389832Y191305D01*
X-391695Y193168D01*
X-392027Y193390D01*
X-392328Y193654D01*
X-394609Y194971D01*
X-394988Y195100D01*
X-395347Y195277D01*
X-397891Y195958D01*
X-398290Y195984D01*
X-398683Y196063D01*
X-400000D01*
Y203937D01*
X-398683D01*
X-398291Y204016D01*
X-397891Y204042D01*
X-395347Y204723D01*
X-394988Y204900D01*
X-394609Y205029D01*
X-392328Y206346D01*
X-392027Y206610D01*
X-391695Y206832D01*
X-389832Y208695D01*
X-389610Y209027D01*
X-389346Y209328D01*
X-388029Y211609D01*
X-387900Y211988D01*
X-387723Y212347D01*
X-387042Y214891D01*
X-387015Y215291D01*
X-386937Y215683D01*
Y217000D01*
Y330000D01*
Y330985D01*
X-386996Y331281D01*
Y331582D01*
X-387381Y333515D01*
X-387496Y333793D01*
X-387555Y334089D01*
X-388309Y335909D01*
X-388476Y336160D01*
X-388591Y336438D01*
X-389686Y338076D01*
X-389899Y338289D01*
X-390067Y338540D01*
X-391460Y339933D01*
X-391711Y340101D01*
X-391924Y340314D01*
X-393562Y341409D01*
X-393840Y341524D01*
X-394091Y341691D01*
X-395911Y342445D01*
X-396207Y342504D01*
X-396485Y342619D01*
X-398418Y343004D01*
X-398719D01*
X-399015Y343063D01*
X-494317D01*
X-494710Y342985D01*
X-495109Y342958D01*
X-497653Y342277D01*
X-498012Y342100D01*
X-498391Y341971D01*
X-500672Y340654D01*
X-500973Y340390D01*
X-501305Y340168D01*
X-503168Y338305D01*
X-503390Y337973D01*
X-503654Y337672D01*
X-504971Y335391D01*
X-505100Y335012D01*
X-505277Y334653D01*
X-505958Y332109D01*
X-505984Y331709D01*
X-506063Y331317D01*
Y330000D01*
X-513937D01*
Y330985D01*
X-513996Y331281D01*
Y331582D01*
X-514381Y333515D01*
X-514496Y333793D01*
X-514555Y334089D01*
X-515309Y335909D01*
X-515476Y336160D01*
X-515592Y336438D01*
X-516686Y338076D01*
X-516899Y338289D01*
X-517067Y338540D01*
X-518460Y339933D01*
X-518711Y340101D01*
X-518924Y340314D01*
X-520562Y341409D01*
X-520840Y341524D01*
X-521091Y341691D01*
X-522911Y342445D01*
X-523207Y342504D01*
X-523485Y342619D01*
X-525418Y343004D01*
X-525719D01*
X-526015Y343063D01*
X-646941D01*
Y646941D01*
X346941D01*
X346941Y10000D01*
D02*
G37*
G36*
X236924Y59686D02*
X238562Y58591D01*
X238840Y58476D01*
X239091Y58309D01*
X240911Y57555D01*
X241207Y57496D01*
X241485Y57381D01*
X243418Y56996D01*
X243719D01*
X244015Y56937D01*
X265862D01*
X266898Y52330D01*
X269383Y37493D01*
X271044Y22542D01*
X271877Y7500D01*
X271981Y0D01*
X271877Y-7513D01*
X271041Y-22578D01*
X269375Y-37554D01*
X267381Y-49437D01*
X244015D01*
X243719Y-49496D01*
X243418D01*
X241485Y-49881D01*
X241207Y-49996D01*
X240911Y-50055D01*
X239091Y-50809D01*
X238840Y-50976D01*
X238562Y-51091D01*
X236924Y-52186D01*
X236731Y-52379D01*
X130121D01*
Y-23387D01*
X131294Y-22901D01*
X131395Y-23001D01*
X133105Y-23989D01*
X135013Y-24500D01*
X136987D01*
X138895Y-23989D01*
X140605Y-23001D01*
X142001Y-21605D01*
X142989Y-19895D01*
X143500Y-17987D01*
Y-16013D01*
X142989Y-14105D01*
X142001Y-12395D01*
X140605Y-10999D01*
X138895Y-10011D01*
X136987Y-9500D01*
X135013D01*
X133105Y-10011D01*
X131395Y-10999D01*
X131294Y-11099D01*
X130121Y-10613D01*
Y59879D01*
X236731D01*
X236924Y59686D01*
D02*
G37*
G36*
X79879Y-47491D02*
X78609Y-47831D01*
X78034Y-46835D01*
X76165Y-44966D01*
X73875Y-43644D01*
X71322Y-42960D01*
X71270D01*
Y-53000D01*
Y-63040D01*
X71322D01*
X73875Y-62356D01*
X76165Y-61034D01*
X78034Y-59165D01*
X78609Y-58169D01*
X79879Y-58509D01*
Y-77500D01*
X80362Y-82401D01*
X81791Y-87113D01*
X84113Y-91456D01*
X87237Y-95263D01*
X91044Y-98387D01*
X95387Y-100709D01*
X100099Y-102138D01*
X105000Y-102621D01*
X121219D01*
X121745Y-103891D01*
X121185Y-104451D01*
X120500Y-106105D01*
Y-107895D01*
X121185Y-109549D01*
X122451Y-110815D01*
X124105Y-111500D01*
X125895D01*
X127549Y-110815D01*
X128815Y-109549D01*
X129500Y-107895D01*
Y-106105D01*
X128815Y-104451D01*
X128255Y-103891D01*
X128781Y-102621D01*
X154219D01*
X154745Y-103891D01*
X154185Y-104451D01*
X153500Y-106105D01*
Y-107174D01*
X147733Y-112941D01*
X90181D01*
X89655Y-111671D01*
X90826Y-110500D01*
X91895D01*
X93549Y-109815D01*
X94815Y-108549D01*
X95500Y-106895D01*
Y-105105D01*
X94815Y-103451D01*
X93549Y-102185D01*
X91895Y-101500D01*
X90105D01*
X88451Y-102185D01*
X87185Y-103451D01*
X86500Y-105105D01*
Y-106174D01*
X85233Y-107441D01*
X38706D01*
X37535Y-107674D01*
X36543Y-108337D01*
X32147Y-112732D01*
X30974Y-112246D01*
Y-86888D01*
X32244Y-86362D01*
X34014Y-88132D01*
X34014Y-88132D01*
X35007Y-88795D01*
X36177Y-89028D01*
X36177Y-89028D01*
X67195D01*
X67951Y-89784D01*
X69605Y-90469D01*
X71395D01*
X73049Y-89784D01*
X74315Y-88518D01*
X75000Y-86864D01*
Y-85074D01*
X74315Y-83420D01*
X73049Y-82154D01*
X71395Y-81469D01*
X69605D01*
X67951Y-82154D01*
X67195Y-82910D01*
X37444D01*
X35021Y-80487D01*
X34028Y-79824D01*
X32858Y-79591D01*
X32858Y-79591D01*
X-924D01*
X-2094Y-79824D01*
X-3087Y-80487D01*
X-3087Y-80487D01*
X-7541Y-84941D01*
X-13820D01*
X-14576Y-84185D01*
X-16230Y-83500D01*
X-18020D01*
X-19674Y-84185D01*
X-20940Y-85451D01*
X-21625Y-87105D01*
Y-88895D01*
X-20940Y-90549D01*
X-19674Y-91815D01*
X-18020Y-92500D01*
X-16230D01*
X-14576Y-91815D01*
X-13820Y-91059D01*
X-6274D01*
X-6274Y-91059D01*
X-5103Y-90826D01*
X-4111Y-90163D01*
X-2647Y-88699D01*
X-1474Y-89185D01*
Y-114539D01*
X-68598D01*
X-68598Y-114539D01*
X-69769Y-114772D01*
X-70761Y-115435D01*
X-71603Y-116277D01*
X-109817Y-116837D01*
X-110078Y-115571D01*
X-109559Y-115356D01*
X-106814Y-113521D01*
X-104479Y-111186D01*
X-102644Y-108441D01*
X-101380Y-105390D01*
X-100736Y-102151D01*
Y-101770D01*
X-117500D01*
X-134264D01*
Y-102151D01*
X-133620Y-105390D01*
X-132356Y-108441D01*
X-130521Y-111186D01*
X-128186Y-113521D01*
X-125441Y-115356D01*
X-124680Y-115671D01*
X-124932Y-116941D01*
X-129221D01*
X-129977Y-116185D01*
X-131631Y-115500D01*
X-133421D01*
X-135075Y-116185D01*
X-136341Y-117451D01*
X-137026Y-119105D01*
Y-120895D01*
X-136341Y-122549D01*
X-135075Y-123815D01*
X-133421Y-124500D01*
X-131631D01*
X-129977Y-123815D01*
X-129221Y-123059D01*
X-116899D01*
X-116888Y-123057D01*
X-116877Y-123059D01*
X-116848Y-123059D01*
X-116836Y-123056D01*
X-116825Y-123058D01*
X-70272Y-122375D01*
X-69711Y-122255D01*
X-69146Y-122143D01*
X-69127Y-122130D01*
X-69105Y-122126D01*
X-68633Y-121800D01*
X-68154Y-121480D01*
X-67331Y-120657D01*
X-62178D01*
X-61925Y-121927D01*
X-62549Y-122185D01*
X-63815Y-123451D01*
X-64500Y-125105D01*
Y-126895D01*
X-63815Y-128549D01*
X-62549Y-129815D01*
X-60895Y-130500D01*
X-59105D01*
X-57451Y-129815D01*
X-56695Y-129059D01*
X-40566D01*
X-37088Y-132537D01*
X-37088Y-132537D01*
X-36095Y-133200D01*
X-34925Y-133433D01*
X-10479D01*
X-10479Y-133433D01*
X-9308Y-133200D01*
X-8316Y-132537D01*
X-1088Y-125309D01*
X4336D01*
X4705Y-126524D01*
X4064Y-126952D01*
X1729Y-129288D01*
X-106Y-132033D01*
X-1370Y-135084D01*
X-2014Y-138323D01*
Y-138704D01*
X14750D01*
X31514D01*
Y-138323D01*
X30870Y-135084D01*
X29606Y-132033D01*
X27771Y-129288D01*
X25436Y-126952D01*
X24795Y-126524D01*
X25164Y-125309D01*
X76088D01*
X76105Y-126572D01*
X74451Y-127257D01*
X73185Y-128523D01*
X72500Y-130177D01*
Y-131967D01*
X73185Y-133621D01*
X74451Y-134887D01*
X74214Y-135422D01*
X74185Y-135451D01*
X73500Y-137105D01*
Y-138000D01*
X71743D01*
X70089Y-138685D01*
X68823Y-139951D01*
X68502Y-140727D01*
X67796Y-140994D01*
X66983Y-141076D01*
X66206Y-140557D01*
X65036Y-140324D01*
X65035Y-140324D01*
X63438D01*
X62299Y-139185D01*
X60645Y-138500D01*
X58855D01*
X57201Y-139185D01*
X55935Y-140451D01*
X55250Y-142105D01*
Y-143895D01*
X55935Y-145549D01*
X56016Y-145629D01*
X55529Y-146803D01*
X31210D01*
X30504Y-145747D01*
X30870Y-144864D01*
X31514Y-141625D01*
Y-141244D01*
X14750D01*
X-2014D01*
Y-141625D01*
X-1864Y-142381D01*
X-2984Y-142980D01*
X-7616Y-138347D01*
X-8609Y-137684D01*
X-9779Y-137451D01*
X-9779Y-137451D01*
X-65184D01*
X-65941Y-136695D01*
X-67595Y-136010D01*
X-69385D01*
X-71039Y-136695D01*
X-72305Y-137961D01*
X-72990Y-139615D01*
Y-141405D01*
X-72305Y-143059D01*
X-71039Y-144325D01*
X-69385Y-145010D01*
X-67595D01*
X-65941Y-144325D01*
X-65184Y-143569D01*
X-11046D01*
X-1149Y-153466D01*
X-1635Y-154639D01*
X-25562D01*
X-26411Y-153369D01*
X-26089Y-152593D01*
Y-150803D01*
X-26774Y-149149D01*
X-28040Y-147883D01*
X-29694Y-147198D01*
X-31484D01*
X-33138Y-147883D01*
X-34404Y-149149D01*
X-35089Y-150803D01*
Y-152593D01*
X-34768Y-153369D01*
X-35616Y-154639D01*
X-37698D01*
X-38869Y-154872D01*
X-39861Y-155535D01*
X-39861Y-155535D01*
X-45215Y-160889D01*
X-46284D01*
X-47938Y-161574D01*
X-49204Y-162840D01*
X-49889Y-164494D01*
Y-166284D01*
X-49682Y-166785D01*
X-50387Y-167841D01*
X-91195D01*
X-91951Y-167085D01*
X-93605Y-166400D01*
X-95395D01*
X-97049Y-167085D01*
X-98315Y-168351D01*
X-99000Y-170005D01*
Y-171795D01*
X-98315Y-173449D01*
X-97049Y-174715D01*
X-95395Y-175400D01*
X-93605D01*
X-91951Y-174715D01*
X-91195Y-173959D01*
X-5096D01*
X-4251Y-174524D01*
X-3080Y-174757D01*
X2869D01*
X3135Y-176027D01*
X615Y-178546D01*
X-1299Y-181862D01*
X-2290Y-185560D01*
Y-186204D01*
X12250D01*
Y-188744D01*
X-2290D01*
Y-189388D01*
X-1299Y-193086D01*
X615Y-196402D01*
X2859Y-198645D01*
X2333Y-199915D01*
X-28524D01*
X-46602Y-181837D01*
X-47594Y-181174D01*
X-48765Y-180941D01*
X-48765Y-180941D01*
X-168695D01*
X-169451Y-180185D01*
X-171105Y-179500D01*
X-172895D01*
X-174549Y-180185D01*
X-175815Y-181451D01*
X-176500Y-183105D01*
Y-184895D01*
X-175815Y-186549D01*
X-174549Y-187815D01*
X-172895Y-188500D01*
X-171105D01*
X-169451Y-187815D01*
X-168695Y-187059D01*
X-50032D01*
X-40725Y-196366D01*
X-41023Y-197864D01*
X-41799Y-198185D01*
X-43065Y-199451D01*
X-43750Y-201105D01*
Y-202895D01*
X-43429Y-203671D01*
X-44277Y-204941D01*
X-55781D01*
X-56307Y-203671D01*
X-56185Y-203549D01*
X-55500Y-201895D01*
Y-200105D01*
X-56185Y-198451D01*
X-57451Y-197185D01*
X-59105Y-196500D01*
X-60895D01*
X-62549Y-197185D01*
X-63815Y-198451D01*
X-64500Y-200105D01*
Y-201895D01*
X-63815Y-203549D01*
X-63693Y-203671D01*
X-64219Y-204941D01*
X-103787D01*
X-103787Y-204941D01*
X-104778Y-205138D01*
X-104956Y-205095D01*
X-105381Y-204837D01*
X-106000Y-204343D01*
Y-201157D01*
X-106954Y-197596D01*
X-108797Y-194404D01*
X-111404Y-191797D01*
X-114596Y-189954D01*
X-118157Y-189000D01*
X-121843D01*
X-125404Y-189954D01*
X-128596Y-191797D01*
X-131203Y-194404D01*
X-133046Y-197596D01*
X-133918Y-200851D01*
X-135149Y-201416D01*
X-135362Y-201203D01*
X-137230Y-200430D01*
Y-205900D01*
X-139770D01*
Y-200430D01*
X-141638Y-201203D01*
X-143197Y-202762D01*
X-143755Y-204110D01*
X-144202Y-204823D01*
X-145310Y-204997D01*
X-145592Y-204941D01*
X-145592Y-204941D01*
X-166695D01*
X-167451Y-204185D01*
X-169105Y-203500D01*
X-170895D01*
X-172549Y-204185D01*
X-173815Y-205451D01*
X-174453Y-206992D01*
X-174652Y-207171D01*
X-175770Y-207538D01*
X-186866Y-197623D01*
X-190841Y-193758D01*
Y-191540D01*
X-191754Y-189335D01*
X-193442Y-187647D01*
X-195647Y-186734D01*
X-198034D01*
X-200239Y-187647D01*
X-200927Y-186662D01*
X-199664Y-185399D01*
X-198750Y-183193D01*
Y-180807D01*
X-199664Y-178601D01*
X-201351Y-176913D01*
X-203556Y-176000D01*
X-205944D01*
X-207670Y-176715D01*
X-208645Y-175750D01*
X-208000Y-174193D01*
Y-171807D01*
X-208913Y-169601D01*
X-210601Y-167913D01*
X-212806Y-167000D01*
X-214663D01*
X-218789Y-161570D01*
X-227397Y-149211D01*
X-235297Y-136413D01*
X-242478Y-123198D01*
X-248917Y-109606D01*
X-254595Y-95680D01*
X-259495Y-81460D01*
X-263601Y-66991D01*
X-266901Y-52318D01*
X-269385Y-37485D01*
X-270326Y-29009D01*
X-269479Y-28063D01*
X-239015D01*
X-238719Y-28004D01*
X-238418D01*
X-236485Y-27619D01*
X-236207Y-27504D01*
X-235912Y-27445D01*
X-234091Y-26691D01*
X-233840Y-26524D01*
X-233562Y-26409D01*
X-231924Y-25314D01*
X-231731Y-25121D01*
X-73415Y-25121D01*
X-73266Y-25637D01*
X-69935Y-33679D01*
X-65725Y-41297D01*
X-60687Y-48397D01*
X-54887Y-54887D01*
X-48397Y-60687D01*
X-41297Y-65725D01*
X-33679Y-69935D01*
X-25637Y-73266D01*
X-17273Y-75676D01*
X-8691Y-77134D01*
X0Y-77622D01*
X8691Y-77134D01*
X17273Y-75676D01*
X25637Y-73266D01*
X33679Y-69935D01*
X41297Y-65725D01*
X48397Y-60687D01*
X54887Y-54887D01*
X59026Y-50255D01*
X60175Y-50876D01*
X59960Y-51678D01*
Y-51730D01*
X68730D01*
Y-42960D01*
X68678D01*
X66125Y-43644D01*
X65264Y-44141D01*
X64389Y-43180D01*
X65725Y-41297D01*
X69935Y-33679D01*
X73266Y-25637D01*
X73415Y-25121D01*
X79879D01*
Y-47491D01*
D02*
G37*
G36*
X236924Y-102814D02*
X238562Y-103909D01*
X238840Y-104024D01*
X239091Y-104191D01*
X240911Y-104945D01*
X241207Y-105004D01*
X241485Y-105119D01*
X243418Y-105504D01*
X243719D01*
X244015Y-105563D01*
X249424D01*
X250132Y-106617D01*
X248833Y-109797D01*
X242370Y-123409D01*
X235164Y-136642D01*
X227236Y-149455D01*
X218598Y-161828D01*
X214658Y-167000D01*
X212806D01*
X210601Y-167913D01*
X208913Y-169601D01*
X208000Y-171807D01*
Y-174193D01*
X208645Y-175750D01*
X207670Y-176715D01*
X205944Y-176000D01*
X203556D01*
X201351Y-176913D01*
X199664Y-178601D01*
X198750Y-180807D01*
Y-183193D01*
X199664Y-185399D01*
X200927Y-186662D01*
X200239Y-187647D01*
X198034Y-186734D01*
X195647D01*
X193442Y-187647D01*
X191754Y-189335D01*
X190841Y-191540D01*
Y-193758D01*
X186865Y-197623D01*
X175474Y-207803D01*
X163546Y-217315D01*
X160784Y-219275D01*
X160355Y-218953D01*
X159899Y-218345D01*
X160500Y-216895D01*
Y-215105D01*
X159815Y-213451D01*
X158549Y-212185D01*
X156895Y-211500D01*
X155105D01*
X153451Y-212185D01*
X152185Y-213451D01*
X151500Y-215105D01*
Y-216895D01*
X152185Y-218549D01*
X153451Y-219815D01*
X155105Y-220500D01*
X156863D01*
X156922Y-220558D01*
X157435Y-221651D01*
X151585Y-225802D01*
X150551Y-224978D01*
X151000Y-223895D01*
Y-222105D01*
X150315Y-220451D01*
X149049Y-219185D01*
X147395Y-218500D01*
X145605D01*
X145543Y-218526D01*
X144642Y-217924D01*
X143472Y-217691D01*
X143472Y-217691D01*
X113778D01*
X113778Y-217691D01*
X112608Y-217924D01*
X111615Y-218587D01*
X109011Y-221191D01*
X106989D01*
X104385Y-218587D01*
X104198Y-218462D01*
X103446Y-217685D01*
X103668Y-216697D01*
X104000Y-215895D01*
Y-214105D01*
X103315Y-212451D01*
X102879Y-212015D01*
X103405Y-210745D01*
X108313D01*
X108314Y-210745D01*
X109484Y-210512D01*
X110476Y-209849D01*
X124826Y-195500D01*
X125895D01*
X127549Y-194815D01*
X128815Y-193549D01*
X129500Y-191895D01*
Y-190105D01*
X128815Y-188451D01*
X128374Y-188010D01*
X128900Y-186740D01*
X131414D01*
X135837Y-191163D01*
X136830Y-191826D01*
X138000Y-192059D01*
X154972D01*
X154972Y-192059D01*
X156142Y-191826D01*
X157135Y-191163D01*
X159989Y-188309D01*
X163278D01*
X163278Y-188309D01*
X164449Y-188076D01*
X165441Y-187413D01*
X168137Y-184717D01*
X168800Y-183725D01*
X169033Y-182554D01*
Y-174974D01*
X169033Y-174974D01*
X168800Y-173803D01*
X168137Y-172811D01*
X164500Y-169174D01*
Y-168105D01*
X163815Y-166451D01*
X162549Y-165185D01*
X161314Y-164673D01*
Y-163327D01*
X162549Y-162815D01*
X163815Y-161549D01*
X164500Y-159895D01*
Y-158105D01*
X163815Y-156451D01*
X162549Y-155185D01*
X160895Y-154500D01*
X159105D01*
X157451Y-155185D01*
X156695Y-155941D01*
X137000D01*
X137000Y-155941D01*
X136557Y-156030D01*
X136167Y-155734D01*
X135510Y-154976D01*
Y-153446D01*
X134825Y-151792D01*
X133559Y-150526D01*
X131905Y-149841D01*
X130976D01*
X128647Y-147512D01*
X127654Y-146849D01*
X126484Y-146616D01*
X126484Y-146616D01*
X119592D01*
X115312Y-142337D01*
X114320Y-141674D01*
X113149Y-141441D01*
X113149Y-141441D01*
X109486D01*
X108807Y-140171D01*
X108883Y-140059D01*
X127945D01*
X128701Y-140815D01*
X130355Y-141500D01*
X132145D01*
X133799Y-140815D01*
X135065Y-139549D01*
X135750Y-137895D01*
Y-136105D01*
X135585Y-135707D01*
X136662Y-134988D01*
X145500Y-143826D01*
Y-144895D01*
X146185Y-146549D01*
X147451Y-147815D01*
X149105Y-148500D01*
X150895D01*
X152549Y-147815D01*
X153815Y-146549D01*
X154500Y-144895D01*
Y-143105D01*
X153815Y-141451D01*
X152549Y-140185D01*
X150895Y-139500D01*
X149826D01*
X137836Y-127510D01*
X136844Y-126847D01*
X135673Y-126615D01*
X135673Y-126615D01*
X131067D01*
X130311Y-125858D01*
X128657Y-125173D01*
X127587D01*
X124958Y-122544D01*
X123966Y-121881D01*
X122795Y-121648D01*
X122795Y-121648D01*
X121974D01*
X120654Y-120329D01*
X120909Y-119382D01*
X121137Y-119059D01*
X149000D01*
X149000Y-119059D01*
X150170Y-118826D01*
X151163Y-118163D01*
X157826Y-111500D01*
X158895D01*
X160549Y-110815D01*
X161815Y-109549D01*
X162500Y-107895D01*
Y-106105D01*
X161815Y-104451D01*
X161255Y-103891D01*
X161781Y-102621D01*
X236731D01*
X236924Y-102814D01*
D02*
G37*
G36*
X157451Y-162815D02*
X158686Y-163327D01*
Y-164673D01*
X157451Y-165185D01*
X156185Y-166451D01*
X155500Y-168105D01*
Y-169895D01*
X156185Y-171549D01*
X157451Y-172815D01*
X157650Y-172897D01*
X157827Y-174321D01*
X157158Y-174941D01*
X127181D01*
X126655Y-173671D01*
X138267Y-162059D01*
X156695D01*
X157451Y-162815D01*
D02*
G37*
G36*
X55311Y-211079D02*
X54451Y-211435D01*
X53185Y-212701D01*
X52500Y-214355D01*
Y-216145D01*
X52703Y-216635D01*
X51997Y-217691D01*
X-39671D01*
X-40185Y-216451D01*
X-41451Y-215185D01*
X-43105Y-214500D01*
X-44895D01*
X-46549Y-215185D01*
X-47815Y-216451D01*
X-48500Y-218105D01*
Y-219895D01*
X-47815Y-221549D01*
X-46549Y-222815D01*
X-44895Y-223500D01*
X-43105D01*
X-42869Y-223402D01*
X-42609Y-223576D01*
X-41438Y-223809D01*
X3010D01*
X3496Y-224982D01*
X-463Y-228941D01*
X-45695D01*
X-46451Y-228185D01*
X-48105Y-227500D01*
X-49895D01*
X-51549Y-228185D01*
X-52815Y-229451D01*
X-53500Y-231105D01*
Y-232895D01*
X-52815Y-234549D01*
X-51549Y-235815D01*
X-49895Y-236500D01*
X-48105D01*
X-46451Y-235815D01*
X-45695Y-235059D01*
X-905D01*
X-270Y-236159D01*
X-796Y-237070D01*
X-1668Y-240325D01*
X-2899Y-240890D01*
X-3112Y-240677D01*
X-4980Y-239904D01*
Y-245374D01*
Y-250844D01*
X-3112Y-250071D01*
X-1771Y-248729D01*
X-721Y-248678D01*
X-284Y-248765D01*
X1047Y-251070D01*
X3654Y-253677D01*
X6846Y-255520D01*
X10407Y-256474D01*
X14093D01*
X17654Y-255520D01*
X20846Y-253677D01*
X23453Y-251070D01*
X25296Y-247878D01*
X26250Y-244317D01*
Y-240631D01*
X25296Y-237070D01*
X23453Y-233878D01*
X20846Y-231271D01*
X18374Y-229844D01*
X18714Y-228574D01*
X29022D01*
X29275Y-229844D01*
X28451Y-230185D01*
X27185Y-231451D01*
X26500Y-233105D01*
Y-234895D01*
X27185Y-236549D01*
X28451Y-237815D01*
X30105Y-238500D01*
X31895D01*
X33549Y-237815D01*
X34815Y-236549D01*
X35500Y-234895D01*
Y-233105D01*
X34815Y-231451D01*
X33549Y-230185D01*
X32725Y-229844D01*
X32978Y-228574D01*
X50418D01*
X51151Y-229844D01*
X50600Y-230798D01*
X50125Y-232572D01*
Y-234408D01*
X50600Y-236182D01*
X51519Y-237773D01*
X52817Y-239071D01*
X54408Y-239990D01*
X56182Y-240465D01*
X58018D01*
X59792Y-239990D01*
X61383Y-239071D01*
X62681Y-237773D01*
X63600Y-236182D01*
X64075Y-234408D01*
Y-232572D01*
X64007Y-232316D01*
X64780Y-231309D01*
X111935D01*
X111935Y-231309D01*
X113105Y-231076D01*
X113277Y-230961D01*
X113769D01*
X113951Y-231143D01*
X115605Y-231828D01*
X117395D01*
X118931Y-231192D01*
X120185Y-231549D01*
X121451Y-232815D01*
X123105Y-233500D01*
X124895D01*
X126549Y-232815D01*
X127815Y-231549D01*
X128500Y-229895D01*
Y-228105D01*
X127815Y-226451D01*
X126549Y-225185D01*
X126292Y-225079D01*
X126545Y-223809D01*
X142000D01*
Y-223895D01*
X142685Y-225549D01*
X143951Y-226815D01*
X145605Y-227500D01*
X146558D01*
X146923Y-228770D01*
X138187Y-234260D01*
X124834Y-241639D01*
X115810Y-245985D01*
X114734Y-245094D01*
X114875Y-244568D01*
Y-242732D01*
X114400Y-240958D01*
X113481Y-239367D01*
X112183Y-238069D01*
X110592Y-237150D01*
X108818Y-236675D01*
X106982D01*
X105208Y-237150D01*
X103617Y-238069D01*
X102319Y-239367D01*
X101400Y-240958D01*
X100925Y-242732D01*
Y-244568D01*
X101400Y-246342D01*
X102319Y-247933D01*
X103617Y-249231D01*
X104371Y-249667D01*
X104279Y-251080D01*
X100319Y-252720D01*
X99347Y-251748D01*
X99700Y-250895D01*
Y-249105D01*
X99015Y-247451D01*
X97749Y-246185D01*
X96095Y-245500D01*
X94305D01*
X92651Y-246185D01*
X91385Y-247451D01*
X90700Y-249105D01*
Y-250895D01*
X91385Y-252549D01*
X92651Y-253815D01*
X93248Y-254062D01*
X93210Y-255421D01*
X82594Y-259136D01*
X67934Y-263359D01*
X53061Y-266754D01*
X38020Y-269310D01*
X22860Y-271018D01*
X7628Y-271873D01*
X-7628D01*
X-22860Y-271018D01*
X-38021Y-269310D01*
X-53061Y-266754D01*
X-67934Y-263359D01*
X-82594Y-259136D01*
X-96994Y-254097D01*
X-111089Y-248259D01*
X-124834Y-241639D01*
X-138186Y-234260D01*
X-151104Y-226143D01*
X-163546Y-217315D01*
X-168286Y-213535D01*
X-168080Y-212075D01*
X-167451Y-211815D01*
X-166695Y-211059D01*
X-146859D01*
X-137755Y-220163D01*
X-136763Y-220826D01*
X-135592Y-221059D01*
X-135592Y-221059D01*
X-113787D01*
X-113787Y-221059D01*
X-112616Y-220826D01*
X-111624Y-220163D01*
X-102520Y-211059D01*
X31416D01*
X31416Y-211059D01*
X32587Y-210826D01*
X33579Y-210163D01*
X33933Y-209809D01*
X55059D01*
X55311Y-211079D01*
D02*
G37*
G36*
X-427086Y-149399D02*
X-425399Y-151087D01*
X-424853Y-151313D01*
Y-152687D01*
X-425399Y-152913D01*
X-427086Y-154601D01*
X-428000Y-156806D01*
Y-159193D01*
X-427086Y-161399D01*
X-425399Y-163086D01*
X-423194Y-164000D01*
X-423063D01*
Y-346941D01*
X-646941D01*
Y-147500D01*
X-427873D01*
X-427086Y-149399D01*
D02*
G37*
%LPC*%
G36*
X-588495Y311430D02*
X-588730D01*
Y301270D01*
X-578570D01*
Y301505D01*
X-579349Y304412D01*
X-580854Y307018D01*
X-582982Y309146D01*
X-585588Y310651D01*
X-588495Y311430D01*
D02*
G37*
G36*
X-591270D02*
X-591505D01*
X-594412Y310651D01*
X-597018Y309146D01*
X-599146Y307018D01*
X-600651Y304412D01*
X-601430Y301505D01*
Y301270D01*
X-591270D01*
Y311430D01*
D02*
G37*
G36*
X-548566Y310890D02*
X-551434D01*
X-554203Y310148D01*
X-556687Y308714D01*
X-558714Y306687D01*
X-560148Y304203D01*
X-560890Y301434D01*
Y298566D01*
X-560148Y295797D01*
X-558714Y293313D01*
X-556687Y291286D01*
X-554203Y289852D01*
X-551434Y289110D01*
X-548566D01*
X-545797Y289852D01*
X-543313Y291286D01*
X-541286Y293313D01*
X-539852Y295797D01*
X-539110Y298566D01*
Y301434D01*
X-539852Y304203D01*
X-541286Y306687D01*
X-543313Y308714D01*
X-545797Y310148D01*
X-548566Y310890D01*
D02*
G37*
G36*
X-578570Y298730D02*
X-588730D01*
Y288570D01*
X-588495D01*
X-585588Y289349D01*
X-582982Y290854D01*
X-580854Y292982D01*
X-579349Y295588D01*
X-578570Y298495D01*
Y298730D01*
D02*
G37*
G36*
X-591270D02*
X-601430D01*
Y298495D01*
X-600651Y295588D01*
X-599146Y292982D01*
X-597018Y290854D01*
X-594412Y289349D01*
X-591505Y288570D01*
X-591270D01*
Y298730D01*
D02*
G37*
G36*
X-458013Y229500D02*
X-459987D01*
X-461895Y228989D01*
X-463605Y228001D01*
X-465001Y226605D01*
X-465989Y224895D01*
X-466500Y222987D01*
Y221013D01*
X-465989Y219105D01*
X-465001Y217395D01*
X-463605Y215998D01*
X-461895Y215011D01*
X-459987Y214500D01*
X-458013D01*
X-456105Y215011D01*
X-454395Y215998D01*
X-452999Y217395D01*
X-452011Y219105D01*
X-451500Y221013D01*
Y222987D01*
X-452011Y224895D01*
X-452999Y226605D01*
X-454395Y228001D01*
X-456105Y228989D01*
X-458013Y229500D01*
D02*
G37*
G36*
X-440684Y217000D02*
X-443316D01*
X-445860Y216318D01*
X-448140Y215002D01*
X-450002Y213140D01*
X-451319Y210860D01*
X-452000Y208316D01*
Y205683D01*
X-451319Y203140D01*
X-450002Y200860D01*
X-448140Y198998D01*
X-445860Y197682D01*
X-445770Y197657D01*
Y196343D01*
X-445860Y196318D01*
X-448140Y195002D01*
X-450002Y193140D01*
X-451319Y190860D01*
X-452000Y188316D01*
Y185683D01*
X-451319Y183140D01*
X-450002Y180860D01*
X-448140Y178998D01*
X-445860Y177682D01*
X-445770Y177657D01*
Y176343D01*
X-445860Y176318D01*
X-448140Y175002D01*
X-450002Y173140D01*
X-451319Y170860D01*
X-452000Y168316D01*
Y165683D01*
X-451319Y163140D01*
X-450002Y160860D01*
X-448140Y158998D01*
X-445860Y157682D01*
X-445770Y157657D01*
Y156343D01*
X-445860Y156319D01*
X-448140Y155002D01*
X-450002Y153140D01*
X-451319Y150860D01*
X-452000Y148316D01*
Y145683D01*
X-451319Y143140D01*
X-450002Y140860D01*
X-448140Y138998D01*
X-446439Y138016D01*
X-446371Y137797D01*
X-446486Y136580D01*
X-448472Y135434D01*
X-450434Y133472D01*
X-451822Y131068D01*
X-452540Y128388D01*
Y128270D01*
X-442000D01*
X-431460D01*
Y128388D01*
X-432178Y131068D01*
X-433566Y133472D01*
X-435528Y135434D01*
X-437514Y136580D01*
X-437629Y137797D01*
X-437561Y138016D01*
X-435860Y138998D01*
X-433998Y140860D01*
X-432682Y143140D01*
X-432000Y145683D01*
Y148316D01*
X-432682Y150860D01*
X-433998Y153140D01*
X-435860Y155002D01*
X-438140Y156319D01*
X-438230Y156343D01*
Y157657D01*
X-438140Y157682D01*
X-435860Y158998D01*
X-433998Y160860D01*
X-432682Y163140D01*
X-432000Y165683D01*
Y168316D01*
X-432682Y170860D01*
X-433998Y173140D01*
X-435860Y175002D01*
X-438140Y176318D01*
X-438230Y176343D01*
Y177657D01*
X-438140Y177682D01*
X-435860Y178998D01*
X-433998Y180860D01*
X-432682Y183140D01*
X-432000Y185683D01*
Y188316D01*
X-432682Y190860D01*
X-433998Y193140D01*
X-435860Y195002D01*
X-438140Y196318D01*
X-438230Y196343D01*
Y197657D01*
X-438140Y197682D01*
X-435860Y198998D01*
X-433998Y200860D01*
X-432682Y203140D01*
X-432000Y205683D01*
Y208316D01*
X-432682Y210860D01*
X-433998Y213140D01*
X-435860Y215002D01*
X-438140Y216318D01*
X-440684Y217000D01*
D02*
G37*
G36*
X-431460Y125730D02*
X-442000D01*
X-452540D01*
Y125612D01*
X-451822Y122932D01*
X-450434Y120528D01*
X-448472Y118566D01*
X-447029Y117733D01*
Y116267D01*
X-448472Y115434D01*
X-450434Y113472D01*
X-451822Y111068D01*
X-452540Y108388D01*
Y108270D01*
X-442000D01*
X-431460D01*
Y108388D01*
X-432178Y111068D01*
X-433566Y113472D01*
X-435528Y115434D01*
X-436970Y116267D01*
Y117733D01*
X-435528Y118566D01*
X-433566Y120528D01*
X-432178Y122932D01*
X-431460Y125612D01*
Y125730D01*
D02*
G37*
G36*
Y105730D02*
X-440730D01*
Y96460D01*
X-440612D01*
X-437932Y97178D01*
X-435528Y98566D01*
X-433566Y100528D01*
X-432178Y102932D01*
X-431460Y105612D01*
Y105730D01*
D02*
G37*
G36*
X-443270D02*
X-452540D01*
Y105612D01*
X-451822Y102932D01*
X-450434Y100528D01*
X-448472Y98566D01*
X-446068Y97178D01*
X-443388Y96460D01*
X-443270D01*
Y105730D01*
D02*
G37*
G36*
X51270Y261929D02*
Y258270D01*
X54929D01*
X54273Y259855D01*
X52855Y261273D01*
X51270Y261929D01*
D02*
G37*
G36*
X48730D02*
X47145Y261273D01*
X45727Y259855D01*
X45071Y258270D01*
X48730D01*
Y261929D01*
D02*
G37*
G36*
X54929Y255730D02*
X51270D01*
Y252071D01*
X52855Y252727D01*
X54273Y254145D01*
X54929Y255730D01*
D02*
G37*
G36*
X48730D02*
X45071D01*
X45727Y254145D01*
X47145Y252727D01*
X48730Y252071D01*
Y255730D01*
D02*
G37*
G36*
X63018Y255985D02*
X61182D01*
X59408Y255510D01*
X57817Y254591D01*
X56519Y253293D01*
X55600Y251702D01*
X55125Y249928D01*
Y248092D01*
X55600Y246318D01*
X56519Y244727D01*
X57817Y243429D01*
X59408Y242510D01*
X61182Y242035D01*
X63018D01*
X64792Y242510D01*
X66383Y243429D01*
X67681Y244727D01*
X68600Y246318D01*
X69075Y248092D01*
Y249928D01*
X68600Y251702D01*
X67681Y253293D01*
X66383Y254591D01*
X64792Y255510D01*
X63018Y255985D01*
D02*
G37*
G36*
X-102730Y205470D02*
Y201270D01*
X-98530D01*
X-99303Y203138D01*
X-100862Y204697D01*
X-102730Y205470D01*
D02*
G37*
G36*
X155769Y200235D02*
X154184Y199579D01*
X152766Y198161D01*
X152110Y196576D01*
X155769D01*
Y200235D01*
D02*
G37*
G36*
X-98530Y198730D02*
X-102730D01*
Y194530D01*
X-100862Y195303D01*
X-99303Y196862D01*
X-98530Y198730D01*
D02*
G37*
G36*
X-120657Y211100D02*
X-124343D01*
X-127904Y210146D01*
X-131096Y208303D01*
X-133703Y205696D01*
X-135546Y202504D01*
X-136500Y198943D01*
Y195257D01*
X-135546Y191696D01*
X-133703Y188504D01*
X-131096Y185897D01*
X-127904Y184054D01*
X-124343Y183100D01*
X-120657D01*
X-117096Y184054D01*
X-113904Y185897D01*
X-111297Y188504D01*
X-109454Y191696D01*
X-108582Y194951D01*
X-107351Y195516D01*
X-107138Y195303D01*
X-105270Y194530D01*
Y200000D01*
Y205470D01*
X-107138Y204697D01*
X-108479Y203355D01*
X-109529Y203304D01*
X-109966Y203391D01*
X-111297Y205696D01*
X-113904Y208303D01*
X-117096Y210146D01*
X-120657Y211100D01*
D02*
G37*
G36*
X-107960Y140830D02*
X-121230D01*
Y127560D01*
X-120586D01*
X-116888Y128551D01*
X-113572Y130465D01*
X-110865Y133172D01*
X-108951Y136488D01*
X-107960Y140186D01*
Y140830D01*
D02*
G37*
G36*
X-123770D02*
X-137040D01*
Y140186D01*
X-136049Y136488D01*
X-134135Y133172D01*
X-131428Y130465D01*
X-128112Y128551D01*
X-124414Y127560D01*
X-123770D01*
Y140830D01*
D02*
G37*
G36*
X-164105Y52500D02*
X-165895D01*
X-167549Y51815D01*
X-168815Y50549D01*
X-169500Y48895D01*
Y47105D01*
X-168815Y45451D01*
X-167549Y44185D01*
X-165895Y43500D01*
X-164105D01*
X-162451Y44185D01*
X-161185Y45451D01*
X-160500Y47105D01*
Y48895D01*
X-161185Y50549D01*
X-162451Y51815D01*
X-164105Y52500D01*
D02*
G37*
G36*
X-585605Y169500D02*
X-587395D01*
X-589049Y168815D01*
X-590315Y167549D01*
X-591000Y165895D01*
Y164105D01*
X-590315Y162451D01*
X-589049Y161185D01*
X-587395Y160500D01*
X-585605D01*
X-583951Y161185D01*
X-582685Y162451D01*
X-582000Y164105D01*
Y165895D01*
X-582685Y167549D01*
X-583951Y168815D01*
X-585605Y169500D01*
D02*
G37*
G36*
Y153500D02*
X-587395D01*
X-589049Y152815D01*
X-590315Y151549D01*
X-591000Y149895D01*
Y148105D01*
X-590315Y146451D01*
X-589049Y145185D01*
X-587395Y144500D01*
X-585605D01*
X-583951Y145185D01*
X-582685Y146451D01*
X-582000Y148105D01*
Y149895D01*
X-582685Y151549D01*
X-583951Y152815D01*
X-585605Y153500D01*
D02*
G37*
G36*
X-622683Y196000D02*
X-625317D01*
X-627860Y195319D01*
X-630140Y194002D01*
X-632002Y192140D01*
X-633318Y189860D01*
X-634000Y187316D01*
Y184683D01*
X-633318Y182140D01*
X-632002Y179860D01*
X-630140Y177998D01*
X-627860Y176681D01*
X-627770Y176657D01*
Y175343D01*
X-627860Y175319D01*
X-630140Y174002D01*
X-632002Y172140D01*
X-633318Y169860D01*
X-634000Y167316D01*
Y164683D01*
X-633318Y162140D01*
X-632002Y159860D01*
X-630140Y157998D01*
X-627860Y156681D01*
X-627770Y156657D01*
Y155343D01*
X-627860Y155318D01*
X-630140Y154002D01*
X-632002Y152140D01*
X-633318Y149860D01*
X-634000Y147317D01*
Y144684D01*
X-633318Y142140D01*
X-632002Y139860D01*
X-630140Y137998D01*
X-628439Y137016D01*
X-628371Y136797D01*
X-628486Y135581D01*
X-630472Y134434D01*
X-632434Y132472D01*
X-633822Y130068D01*
X-634540Y127388D01*
Y127270D01*
X-624000D01*
X-613460D01*
Y127388D01*
X-614178Y130068D01*
X-615566Y132472D01*
X-617528Y134434D01*
X-619514Y135581D01*
X-619629Y136797D01*
X-619561Y137016D01*
X-617860Y137998D01*
X-615998Y139860D01*
X-614682Y142140D01*
X-614000Y144684D01*
Y147317D01*
X-614682Y149860D01*
X-615998Y152140D01*
X-617860Y154002D01*
X-620140Y155318D01*
X-620230Y155343D01*
Y156657D01*
X-620140Y156681D01*
X-617860Y157998D01*
X-615998Y159860D01*
X-614682Y162140D01*
X-614000Y164683D01*
Y167316D01*
X-614682Y169860D01*
X-615998Y172140D01*
X-617860Y174002D01*
X-620140Y175319D01*
X-620230Y175343D01*
Y176657D01*
X-620140Y176681D01*
X-617860Y177998D01*
X-615998Y179860D01*
X-614682Y182140D01*
X-614000Y184683D01*
Y187316D01*
X-614682Y189860D01*
X-615998Y192140D01*
X-617860Y194002D01*
X-620140Y195319D01*
X-622683Y196000D01*
D02*
G37*
G36*
X-613460Y124730D02*
X-622730D01*
Y115460D01*
X-622612D01*
X-619932Y116178D01*
X-617528Y117566D01*
X-615566Y119528D01*
X-614178Y121932D01*
X-613460Y124612D01*
Y124730D01*
D02*
G37*
G36*
X-625270D02*
X-634540D01*
Y124612D01*
X-633822Y121932D01*
X-632434Y119528D01*
X-630472Y117566D01*
X-628068Y116178D01*
X-625388Y115460D01*
X-625270D01*
Y124730D01*
D02*
G37*
G36*
X-78766Y113077D02*
X-80556D01*
X-82210Y112392D01*
X-83476Y111126D01*
X-84161Y109473D01*
Y107682D01*
X-83476Y106028D01*
X-82210Y104762D01*
X-80556Y104077D01*
X-78766D01*
X-77112Y104762D01*
X-75846Y106028D01*
X-75161Y107682D01*
Y109473D01*
X-75846Y111126D01*
X-77112Y112392D01*
X-78766Y113077D01*
D02*
G37*
G36*
X-123349Y111364D02*
X-123730D01*
Y95870D01*
X-108236D01*
Y96251D01*
X-108880Y99490D01*
X-110144Y102541D01*
X-111979Y105286D01*
X-114314Y107621D01*
X-117059Y109456D01*
X-120110Y110720D01*
X-123349Y111364D01*
D02*
G37*
G36*
X-521013Y6500D02*
X-522987D01*
X-524895Y5989D01*
X-526605Y5002D01*
X-528002Y3605D01*
X-528989Y1895D01*
X-529500Y-13D01*
Y-1987D01*
X-528989Y-3895D01*
X-528002Y-5605D01*
X-526605Y-7002D01*
X-524895Y-7989D01*
X-522987Y-8500D01*
X-521013D01*
X-519105Y-7989D01*
X-517395Y-7002D01*
X-515998Y-5605D01*
X-515011Y-3895D01*
X-514500Y-1987D01*
Y-13D01*
X-515011Y1895D01*
X-515998Y3605D01*
X-517395Y5002D01*
X-519105Y5989D01*
X-521013Y6500D01*
D02*
G37*
G36*
X-598270Y-7460D02*
X-598388D01*
X-601068Y-8178D01*
X-603472Y-9566D01*
X-605434Y-11528D01*
X-606822Y-13932D01*
X-607540Y-16612D01*
Y-16730D01*
X-598270D01*
Y-7460D01*
D02*
G37*
G36*
X-595612D02*
X-595730D01*
Y-18000D01*
Y-28540D01*
X-595612D01*
X-592932Y-27822D01*
X-590528Y-26434D01*
X-588566Y-24472D01*
X-587420Y-22486D01*
X-586203Y-22371D01*
X-585984Y-22439D01*
X-585002Y-24140D01*
X-583140Y-26002D01*
X-580860Y-27318D01*
X-578316Y-28000D01*
X-575684D01*
X-573140Y-27318D01*
X-570860Y-26002D01*
X-568998Y-24140D01*
X-567682Y-21860D01*
X-567657Y-21770D01*
X-566343D01*
X-566319Y-21860D01*
X-565002Y-24140D01*
X-563140Y-26002D01*
X-560860Y-27318D01*
X-558316Y-28000D01*
X-555684D01*
X-553140Y-27318D01*
X-550860Y-26002D01*
X-548998Y-24140D01*
X-547682Y-21860D01*
X-547657Y-21770D01*
X-546343D01*
X-546319Y-21860D01*
X-545002Y-24140D01*
X-543140Y-26002D01*
X-540860Y-27318D01*
X-538316Y-28000D01*
X-535684D01*
X-533140Y-27318D01*
X-530860Y-26002D01*
X-528998Y-24140D01*
X-527682Y-21860D01*
X-527000Y-19317D01*
Y-16683D01*
X-527682Y-14140D01*
X-528998Y-11860D01*
X-530860Y-9998D01*
X-533140Y-8681D01*
X-535684Y-8000D01*
X-538316D01*
X-540860Y-8681D01*
X-543140Y-9998D01*
X-545002Y-11860D01*
X-546319Y-14140D01*
X-546343Y-14230D01*
X-547657D01*
X-547682Y-14140D01*
X-548998Y-11860D01*
X-550860Y-9998D01*
X-553140Y-8681D01*
X-555684Y-8000D01*
X-558316D01*
X-560860Y-8681D01*
X-563140Y-9998D01*
X-565002Y-11860D01*
X-566319Y-14140D01*
X-566343Y-14230D01*
X-567657D01*
X-567682Y-14140D01*
X-568998Y-11860D01*
X-570860Y-9998D01*
X-573140Y-8681D01*
X-575684Y-8000D01*
X-578316D01*
X-580860Y-8681D01*
X-583140Y-9998D01*
X-585002Y-11860D01*
X-585984Y-13561D01*
X-586203Y-13629D01*
X-587420Y-13514D01*
X-588566Y-11528D01*
X-590528Y-9566D01*
X-592932Y-8178D01*
X-595612Y-7460D01*
D02*
G37*
G36*
X-598270Y-19270D02*
X-607540D01*
Y-19388D01*
X-606822Y-22068D01*
X-605434Y-24472D01*
X-603472Y-26434D01*
X-601068Y-27822D01*
X-598388Y-28540D01*
X-598270D01*
Y-19270D01*
D02*
G37*
G36*
X-518105Y-73500D02*
X-519895D01*
X-521549Y-74185D01*
X-522815Y-75451D01*
X-523500Y-77105D01*
Y-78895D01*
X-522815Y-80549D01*
X-521549Y-81815D01*
X-520313Y-82327D01*
Y-83673D01*
X-521549Y-84185D01*
X-522815Y-85451D01*
X-523500Y-87105D01*
Y-88895D01*
X-522815Y-90549D01*
X-521549Y-91815D01*
X-519895Y-92500D01*
X-518105D01*
X-516451Y-91815D01*
X-515185Y-90549D01*
X-514500Y-88895D01*
Y-87105D01*
X-515185Y-85451D01*
X-516451Y-84185D01*
X-517687Y-83673D01*
Y-82327D01*
X-516451Y-81815D01*
X-515185Y-80549D01*
X-514500Y-78895D01*
Y-77105D01*
X-515185Y-75451D01*
X-516451Y-74185D01*
X-518105Y-73500D01*
D02*
G37*
G36*
X-85015Y594063D02*
X-263298D01*
X-263447Y594033D01*
X-263598Y594048D01*
X-267574Y593656D01*
X-267719Y593612D01*
X-267871D01*
X-271789Y592833D01*
X-271929Y592775D01*
X-272080Y592760D01*
X-275904Y591600D01*
X-276038Y591528D01*
X-276186Y591499D01*
X-279878Y589970D01*
X-280004Y589886D01*
X-280149Y589841D01*
X-283673Y587958D01*
X-283790Y587862D01*
X-283930Y587804D01*
X-287252Y585584D01*
X-287360Y585477D01*
X-287493Y585405D01*
X-290582Y582871D01*
X-290678Y582753D01*
X-290804Y582669D01*
X-292217Y581256D01*
X-292217Y581256D01*
X-292217Y581256D01*
X-403256Y470217D01*
X-404669Y468804D01*
X-404753Y468678D01*
X-404871Y468582D01*
X-407405Y465493D01*
X-407477Y465360D01*
X-407584Y465252D01*
X-409804Y461930D01*
X-409862Y461790D01*
X-409958Y461673D01*
X-411842Y458149D01*
X-411886Y458004D01*
X-411970Y457878D01*
X-413499Y454186D01*
X-413529Y454038D01*
X-413600Y453904D01*
X-414760Y450080D01*
X-414775Y449929D01*
X-414833Y449789D01*
X-415612Y445871D01*
Y445719D01*
X-415656Y445574D01*
X-416048Y441598D01*
X-416033Y441446D01*
X-416063Y441298D01*
Y427702D01*
X-416033Y427553D01*
X-416048Y427402D01*
X-415656Y423426D01*
X-415612Y423281D01*
Y423129D01*
X-414833Y419211D01*
X-414775Y419071D01*
X-414760Y418919D01*
X-413600Y415096D01*
X-413529Y414962D01*
X-413499Y414813D01*
X-411970Y411122D01*
X-411886Y410996D01*
X-411842Y410851D01*
X-409958Y407327D01*
X-409862Y407210D01*
X-409804Y407070D01*
X-407584Y403748D01*
X-407477Y403640D01*
X-407405Y403507D01*
X-404871Y400418D01*
X-404753Y400322D01*
X-404669Y400196D01*
X-403256Y398783D01*
X-323217Y318744D01*
X-321804Y317331D01*
X-321678Y317247D01*
X-321582Y317129D01*
X-318493Y314595D01*
X-318360Y314523D01*
X-318252Y314416D01*
X-314930Y312196D01*
X-314790Y312138D01*
X-314673Y312042D01*
X-311149Y310159D01*
X-311004Y310114D01*
X-310878Y310030D01*
X-307187Y308501D01*
X-307038Y308472D01*
X-306904Y308400D01*
X-303081Y307240D01*
X-302929Y307225D01*
X-302789Y307167D01*
X-298871Y306388D01*
X-298719D01*
X-298574Y306344D01*
X-294598Y305952D01*
X-294447Y305967D01*
X-294298Y305937D01*
X-85015D01*
X-84719Y305996D01*
X-84418D01*
X-82485Y306381D01*
X-82207Y306496D01*
X-81911Y306555D01*
X-80091Y307309D01*
X-79840Y307476D01*
X-79562Y307591D01*
X-77924Y308686D01*
X-77711Y308899D01*
X-77460Y309067D01*
X-76067Y310460D01*
X-75899Y310711D01*
X-75686Y310924D01*
X-74591Y312562D01*
X-74476Y312840D01*
X-74309Y313091D01*
X-73555Y314911D01*
X-73496Y315207D01*
X-73381Y315485D01*
X-72996Y317418D01*
Y317719D01*
X-72937Y318015D01*
Y319985D01*
X-72996Y320281D01*
Y320582D01*
X-73381Y322515D01*
X-73496Y322793D01*
X-73555Y323088D01*
X-74309Y324909D01*
X-74476Y325160D01*
X-74591Y325438D01*
X-75686Y327076D01*
X-75899Y327289D01*
X-76067Y327540D01*
X-77460Y328933D01*
X-77711Y329101D01*
X-77924Y329314D01*
X-79562Y330409D01*
X-79840Y330524D01*
X-80091Y330691D01*
X-81911Y331445D01*
X-82207Y331504D01*
X-82485Y331619D01*
X-84418Y332004D01*
X-84719D01*
X-85015Y332063D01*
X-292225D01*
X-293947Y332147D01*
X-297398Y332833D01*
X-300580Y334149D01*
X-303507Y336102D01*
X-304784Y337257D01*
X-384730Y417203D01*
X-385889Y418483D01*
X-387846Y421411D01*
X-389165Y424596D01*
X-389853Y428051D01*
X-389937Y429775D01*
Y439225D01*
X-389853Y440949D01*
X-389165Y444404D01*
X-387846Y447589D01*
X-385889Y450518D01*
X-384730Y451796D01*
X-273797Y562730D01*
X-272518Y563889D01*
X-269589Y565846D01*
X-266404Y567165D01*
X-262949Y567853D01*
X-261225Y567937D01*
X-85015D01*
X-84719Y567996D01*
X-84418D01*
X-82485Y568381D01*
X-82207Y568496D01*
X-81911Y568555D01*
X-80091Y569309D01*
X-79840Y569476D01*
X-79562Y569591D01*
X-77924Y570686D01*
X-77711Y570899D01*
X-77460Y571067D01*
X-76067Y572460D01*
X-75899Y572711D01*
X-75686Y572924D01*
X-74591Y574562D01*
X-74476Y574840D01*
X-74309Y575091D01*
X-73555Y576911D01*
X-73496Y577207D01*
X-73381Y577485D01*
X-72996Y579418D01*
Y579719D01*
X-72937Y580015D01*
Y581985D01*
X-72996Y582281D01*
Y582582D01*
X-73381Y584515D01*
X-73496Y584793D01*
X-73555Y585089D01*
X-74309Y586909D01*
X-74476Y587160D01*
X-74591Y587438D01*
X-75686Y589076D01*
X-75899Y589289D01*
X-76067Y589540D01*
X-77460Y590933D01*
X-77711Y591101D01*
X-77924Y591314D01*
X-79562Y592408D01*
X-79840Y592524D01*
X-80091Y592691D01*
X-81911Y593445D01*
X-82207Y593504D01*
X-82485Y593619D01*
X-84418Y594004D01*
X-84719D01*
X-85015Y594063D01*
D02*
G37*
G36*
X179167Y518000D02*
X174833D01*
X170583Y517155D01*
X166579Y515496D01*
X162976Y513088D01*
X159911Y510024D01*
X157504Y506421D01*
X155845Y502417D01*
X155000Y498167D01*
Y493833D01*
X155845Y489583D01*
X157504Y485579D01*
X159911Y481976D01*
X162976Y478912D01*
X166579Y476504D01*
X170583Y474846D01*
X174833Y474000D01*
X179167D01*
X183417Y474846D01*
X187421Y476504D01*
X191024Y478912D01*
X194088Y481976D01*
X196496Y485579D01*
X198155Y489583D01*
X199000Y493833D01*
Y498167D01*
X198155Y502417D01*
X196496Y506421D01*
X194088Y510024D01*
X191024Y513088D01*
X187421Y515496D01*
X183417Y517155D01*
X179167Y518000D01*
D02*
G37*
G36*
X183298Y594063D02*
X181000D01*
X-51000Y594063D01*
X-52317D01*
X-52709Y593984D01*
X-53109Y593958D01*
X-55653Y593277D01*
X-56012Y593100D01*
X-56391Y592971D01*
X-58672Y591654D01*
X-58973Y591390D01*
X-59305Y591168D01*
X-61168Y589305D01*
X-61390Y588973D01*
X-61654Y588672D01*
X-62971Y586391D01*
X-63100Y586012D01*
X-63277Y585653D01*
X-63958Y583109D01*
X-63984Y582709D01*
X-64063Y582317D01*
Y579683D01*
X-63984Y579291D01*
X-63958Y578891D01*
X-63277Y576347D01*
X-63100Y575988D01*
X-62971Y575609D01*
X-61654Y573328D01*
X-61390Y573027D01*
X-61168Y572695D01*
X-59305Y570832D01*
X-58973Y570610D01*
X-58672Y570346D01*
X-56391Y569029D01*
X-56012Y568900D01*
X-55653Y568723D01*
X-53109Y568042D01*
X-52709Y568016D01*
X-52317Y567937D01*
X-51000D01*
X181000Y567937D01*
X181225D01*
X182949Y567853D01*
X186404Y567165D01*
X189589Y565846D01*
X192518Y563889D01*
X193797Y562730D01*
X240730Y515797D01*
X241889Y514518D01*
X243846Y511589D01*
X245166Y508404D01*
X245853Y504949D01*
X245937Y503225D01*
Y470775D01*
X245853Y469051D01*
X245166Y465596D01*
X243846Y462411D01*
X241889Y459482D01*
X240730Y458204D01*
X119796Y337270D01*
X118518Y336111D01*
X115589Y334154D01*
X112404Y332835D01*
X108949Y332147D01*
X107225Y332063D01*
X-51000Y332063D01*
X-52317D01*
X-52709Y331984D01*
X-53109Y331958D01*
X-55653Y331277D01*
X-56012Y331100D01*
X-56391Y330971D01*
X-58672Y329654D01*
X-58973Y329390D01*
X-59305Y329168D01*
X-61168Y327305D01*
X-61390Y326973D01*
X-61654Y326672D01*
X-62971Y324391D01*
X-63100Y324012D01*
X-63277Y323653D01*
X-63958Y321109D01*
X-63984Y320709D01*
X-64063Y320317D01*
Y317683D01*
X-63984Y317291D01*
X-63958Y316891D01*
X-63277Y314347D01*
X-63100Y313988D01*
X-62971Y313609D01*
X-61654Y311328D01*
X-61390Y311027D01*
X-61168Y310695D01*
X-59305Y308832D01*
X-58973Y308610D01*
X-58672Y308346D01*
X-56391Y307029D01*
X-56012Y306900D01*
X-55653Y306723D01*
X-53109Y306042D01*
X-52709Y306015D01*
X-52317Y305937D01*
X-51000D01*
X107300Y305937D01*
X109298D01*
X109446Y305967D01*
X109598Y305952D01*
X113574Y306344D01*
X113719Y306388D01*
X113871D01*
X117789Y307167D01*
X117929Y307225D01*
X118081Y307240D01*
X121904Y308400D01*
X122038Y308472D01*
X122186Y308501D01*
X125878Y310030D01*
X126004Y310114D01*
X126149Y310158D01*
X129673Y312042D01*
X129790Y312138D01*
X129930Y312196D01*
X133252Y314416D01*
X133360Y314523D01*
X133493Y314595D01*
X136582Y317129D01*
X136678Y317247D01*
X136804Y317331D01*
X138217Y318743D01*
X138217Y318744D01*
X138217Y318744D01*
X259256Y439783D01*
X260669Y441196D01*
X260753Y441322D01*
X260870Y441418D01*
X263405Y444507D01*
X263477Y444640D01*
X263584Y444748D01*
X265804Y448070D01*
X265862Y448210D01*
X265958Y448327D01*
X267841Y451851D01*
X267885Y451996D01*
X267970Y452122D01*
X269499Y455813D01*
X269528Y455962D01*
X269600Y456096D01*
X270760Y459920D01*
X270775Y460071D01*
X270833Y460211D01*
X271612Y464129D01*
Y464281D01*
X271656Y464426D01*
X272048Y468402D01*
X272033Y468553D01*
X272063Y468702D01*
Y470700D01*
Y503300D01*
Y505298D01*
X272033Y505447D01*
X272048Y505597D01*
X271656Y509574D01*
X271612Y509719D01*
Y509871D01*
X270833Y513789D01*
X270775Y513929D01*
X270760Y514081D01*
X269600Y517904D01*
X269528Y518038D01*
X269499Y518186D01*
X267970Y521878D01*
X267885Y522004D01*
X267841Y522149D01*
X265958Y525673D01*
X265862Y525790D01*
X265804Y525930D01*
X263584Y529252D01*
X263477Y529360D01*
X263405Y529493D01*
X260870Y532582D01*
X260753Y532678D01*
X260669Y532804D01*
X259256Y534217D01*
X259256Y534217D01*
X259256Y534217D01*
X212217Y581256D01*
X210804Y582669D01*
X210678Y582753D01*
X210582Y582871D01*
X207493Y585405D01*
X207360Y585477D01*
X207252Y585584D01*
X203930Y587804D01*
X203790Y587862D01*
X203673Y587958D01*
X200149Y589841D01*
X200004Y589886D01*
X199878Y589970D01*
X196186Y591499D01*
X196038Y591528D01*
X195904Y591600D01*
X192080Y592760D01*
X191929Y592775D01*
X191789Y592833D01*
X187871Y593612D01*
X187719D01*
X187574Y593656D01*
X183598Y594048D01*
X183447Y594033D01*
X183298Y594063D01*
D02*
G37*
G36*
X249730Y10540D02*
X249612D01*
X246932Y9822D01*
X244528Y8434D01*
X242566Y6472D01*
X241733Y5030D01*
X240267D01*
X239434Y6472D01*
X237472Y8434D01*
X235068Y9822D01*
X232388Y10540D01*
X232270D01*
Y0D01*
Y-10540D01*
X232388D01*
X235068Y-9822D01*
X237472Y-8434D01*
X239434Y-6472D01*
X240267Y-5030D01*
X241733D01*
X242566Y-6472D01*
X244528Y-8434D01*
X246932Y-9822D01*
X249612Y-10540D01*
X249730D01*
Y0D01*
Y10540D01*
D02*
G37*
G36*
X229730D02*
X229612D01*
X226932Y9822D01*
X224528Y8434D01*
X222566Y6472D01*
X221420Y4486D01*
X220203Y4371D01*
X219984Y4439D01*
X219002Y6140D01*
X217140Y8002D01*
X214860Y9319D01*
X212316Y10000D01*
X209683D01*
X207140Y9319D01*
X204860Y8002D01*
X202998Y6140D01*
X201681Y3860D01*
X201657Y3770D01*
X200343D01*
X200319Y3860D01*
X199002Y6140D01*
X197140Y8002D01*
X194860Y9319D01*
X192317Y10000D01*
X189683D01*
X187140Y9319D01*
X184860Y8002D01*
X182998Y6140D01*
X181681Y3860D01*
X181657Y3770D01*
X180343D01*
X180319Y3860D01*
X179002Y6140D01*
X177140Y8002D01*
X174860Y9319D01*
X172316Y10000D01*
X169683D01*
X167140Y9319D01*
X164860Y8002D01*
X162998Y6140D01*
X161681Y3860D01*
X161657Y3770D01*
X160343D01*
X160319Y3860D01*
X159002Y6140D01*
X157140Y8002D01*
X154860Y9319D01*
X152317Y10000D01*
X149684D01*
X147140Y9319D01*
X144860Y8002D01*
X142998Y6140D01*
X141681Y3860D01*
X141000Y1317D01*
Y-1317D01*
X141681Y-3860D01*
X142998Y-6140D01*
X144860Y-8002D01*
X147140Y-9319D01*
X149684Y-10000D01*
X152317D01*
X154860Y-9319D01*
X157140Y-8002D01*
X159002Y-6140D01*
X160319Y-3860D01*
X160343Y-3770D01*
X161657D01*
X161681Y-3860D01*
X162998Y-6140D01*
X164860Y-8002D01*
X167140Y-9319D01*
X169683Y-10000D01*
X172316D01*
X174860Y-9319D01*
X177140Y-8002D01*
X179002Y-6140D01*
X180319Y-3860D01*
X180343Y-3770D01*
X181657D01*
X181681Y-3860D01*
X182998Y-6140D01*
X184860Y-8002D01*
X187140Y-9319D01*
X189683Y-10000D01*
X192317D01*
X194860Y-9319D01*
X197140Y-8002D01*
X199002Y-6140D01*
X200319Y-3860D01*
X200343Y-3770D01*
X201657D01*
X201681Y-3860D01*
X202998Y-6140D01*
X204860Y-8002D01*
X207140Y-9319D01*
X209683Y-10000D01*
X212316D01*
X214860Y-9319D01*
X217140Y-8002D01*
X219002Y-6140D01*
X219984Y-4439D01*
X220203Y-4371D01*
X221420Y-4486D01*
X222566Y-6472D01*
X224528Y-8434D01*
X226932Y-9822D01*
X229612Y-10540D01*
X229730D01*
Y0D01*
Y10540D01*
D02*
G37*
G36*
X252388D02*
X252270D01*
Y1270D01*
X261540D01*
Y1388D01*
X260822Y4068D01*
X259434Y6472D01*
X257472Y8434D01*
X255068Y9822D01*
X252388Y10540D01*
D02*
G37*
G36*
X261540Y-1270D02*
X252270D01*
Y-10540D01*
X252388D01*
X255068Y-9822D01*
X257472Y-8434D01*
X259434Y-6472D01*
X260822Y-4068D01*
X261540Y-1388D01*
Y-1270D01*
D02*
G37*
G36*
X68730Y-54270D02*
X59960D01*
Y-54322D01*
X60553Y-56534D01*
X59747Y-57633D01*
X59251Y-57500D01*
X56749D01*
X54333Y-58147D01*
X52167Y-59398D01*
X50398Y-61167D01*
X49148Y-63333D01*
X48500Y-65749D01*
Y-68251D01*
X49148Y-70667D01*
X50398Y-72833D01*
X52167Y-74602D01*
X54333Y-75853D01*
X56749Y-76500D01*
X59251D01*
X61667Y-75853D01*
X63833Y-74602D01*
X65602Y-72833D01*
X66853Y-70667D01*
X67500Y-68251D01*
Y-65749D01*
X67006Y-63907D01*
X67959Y-62847D01*
X68678Y-63040D01*
X68730D01*
Y-54270D01*
D02*
G37*
G36*
X-164907Y-36900D02*
X-166697D01*
X-168351Y-37585D01*
X-169617Y-38851D01*
X-170302Y-40505D01*
Y-42295D01*
X-169617Y-43949D01*
X-168351Y-45215D01*
X-166697Y-45900D01*
X-164907D01*
X-163253Y-45215D01*
X-162497Y-44459D01*
X-134904D01*
X-133724Y-44676D01*
X-133724Y-45729D01*
Y-76832D01*
X-134145Y-77113D01*
X-134145Y-77113D01*
X-135473Y-78441D01*
X-146195D01*
X-146951Y-77685D01*
X-148605Y-77000D01*
X-150395D01*
X-152049Y-77685D01*
X-153315Y-78951D01*
X-154000Y-80605D01*
Y-82395D01*
X-153797Y-82885D01*
X-154503Y-83941D01*
X-163195D01*
X-163951Y-83185D01*
X-165605Y-82500D01*
X-167395D01*
X-169049Y-83185D01*
X-170315Y-84451D01*
X-171000Y-86105D01*
Y-87895D01*
X-170315Y-89549D01*
X-169049Y-90815D01*
X-167395Y-91500D01*
X-165605D01*
X-163951Y-90815D01*
X-163195Y-90059D01*
X-132032D01*
X-131434Y-91179D01*
X-132356Y-92559D01*
X-133620Y-95610D01*
X-134264Y-98849D01*
Y-99230D01*
X-117500D01*
X-100736D01*
Y-98849D01*
X-101380Y-95610D01*
X-102644Y-92559D01*
X-103566Y-91179D01*
X-102968Y-90059D01*
X-42305D01*
X-41549Y-90815D01*
X-39895Y-91500D01*
X-38105D01*
X-36451Y-90815D01*
X-35185Y-89549D01*
X-34500Y-87895D01*
Y-86105D01*
X-35185Y-84451D01*
X-35307Y-84329D01*
X-34781Y-83059D01*
X-27305D01*
X-26549Y-83815D01*
X-24895Y-84500D01*
X-23105D01*
X-21451Y-83815D01*
X-20185Y-82549D01*
X-19500Y-80895D01*
Y-79105D01*
X-20185Y-77451D01*
X-21451Y-76185D01*
X-23105Y-75500D01*
X-24895D01*
X-26549Y-76185D01*
X-27305Y-76941D01*
X-101276D01*
Y-45729D01*
X-101276Y-44676D01*
X-100096Y-44459D01*
X-77867D01*
X-64500Y-57826D01*
Y-58895D01*
X-63815Y-60549D01*
X-62549Y-61815D01*
X-60895Y-62500D01*
X-59105D01*
X-57451Y-61815D01*
X-56185Y-60549D01*
X-55500Y-58895D01*
Y-57105D01*
X-56185Y-55451D01*
X-57451Y-54185D01*
X-59105Y-53500D01*
X-60174D01*
X-74437Y-39237D01*
X-75430Y-38574D01*
X-76600Y-38341D01*
X-76600Y-38341D01*
X-162497D01*
X-163253Y-37585D01*
X-164907Y-36900D01*
D02*
G37*
G36*
X-234105Y-61500D02*
X-235895D01*
X-237549Y-62185D01*
X-238815Y-63451D01*
X-239500Y-65105D01*
Y-66895D01*
X-238815Y-68549D01*
X-237549Y-69815D01*
X-235895Y-70500D01*
X-234105D01*
X-232451Y-69815D01*
X-231185Y-68549D01*
X-230500Y-66895D01*
Y-65105D01*
X-231185Y-63451D01*
X-232451Y-62185D01*
X-234105Y-61500D01*
D02*
G37*
G36*
X-169277Y-62500D02*
X-171067D01*
X-172721Y-63185D01*
X-173986Y-64451D01*
X-174672Y-66105D01*
Y-67895D01*
X-173986Y-69549D01*
X-172721Y-70815D01*
X-171067Y-71500D01*
X-169277D01*
X-167623Y-70815D01*
X-166357Y-69549D01*
X-165672Y-67895D01*
Y-66105D01*
X-166357Y-64451D01*
X-167623Y-63185D01*
X-169277Y-62500D01*
D02*
G37*
G36*
X-193105Y-72500D02*
X-194895D01*
X-196549Y-73185D01*
X-197815Y-74451D01*
X-198500Y-76105D01*
Y-77895D01*
X-197815Y-79549D01*
X-196549Y-80815D01*
X-194895Y-81500D01*
X-193105D01*
X-191451Y-80815D01*
X-190185Y-79549D01*
X-189500Y-77895D01*
Y-76105D01*
X-190185Y-74451D01*
X-191451Y-73185D01*
X-193105Y-72500D01*
D02*
G37*
G36*
X-161944Y-109977D02*
X-163734D01*
X-165388Y-110662D01*
X-166654Y-111928D01*
X-167339Y-113582D01*
Y-115372D01*
X-166654Y-117027D01*
X-165388Y-118292D01*
X-163734Y-118977D01*
X-161944D01*
X-160290Y-118292D01*
X-159024Y-117027D01*
X-158339Y-115372D01*
Y-113582D01*
X-159024Y-111928D01*
X-160290Y-110662D01*
X-161944Y-109977D01*
D02*
G37*
G36*
X-104150Y-129941D02*
X-104150Y-129941D01*
X-137487D01*
X-137487Y-129941D01*
X-138658Y-130174D01*
X-139650Y-130837D01*
X-156255Y-147441D01*
X-176195D01*
X-176951Y-146685D01*
X-178605Y-146000D01*
X-180395D01*
X-182049Y-146685D01*
X-183315Y-147951D01*
X-184000Y-149605D01*
Y-151395D01*
X-183315Y-153049D01*
X-182049Y-154315D01*
X-180395Y-155000D01*
X-178605D01*
X-176951Y-154315D01*
X-176195Y-153559D01*
X-154988D01*
X-154987Y-153559D01*
X-153817Y-153326D01*
X-152825Y-152663D01*
X-136221Y-136059D01*
X-130417D01*
X-129891Y-137329D01*
X-131635Y-139072D01*
X-133549Y-142388D01*
X-134540Y-146086D01*
Y-146730D01*
X-105460D01*
Y-146086D01*
X-106451Y-142388D01*
X-108365Y-139072D01*
X-110108Y-137329D01*
X-109583Y-136059D01*
X-105417D01*
X-88813Y-152663D01*
X-87820Y-153326D01*
X-86650Y-153559D01*
X-86650Y-153559D01*
X-55805D01*
X-55049Y-154315D01*
X-53395Y-155000D01*
X-51605D01*
X-49951Y-154315D01*
X-48685Y-153049D01*
X-48000Y-151395D01*
Y-149605D01*
X-48685Y-147951D01*
X-49951Y-146685D01*
X-51605Y-146000D01*
X-53395D01*
X-55049Y-146685D01*
X-55805Y-147441D01*
X-85383D01*
X-101987Y-130837D01*
X-102979Y-130174D01*
X-104150Y-129941D01*
D02*
G37*
G36*
X-105460Y-149270D02*
X-118730D01*
Y-162540D01*
X-118086D01*
X-114388Y-161549D01*
X-111072Y-159635D01*
X-108365Y-156928D01*
X-106451Y-153612D01*
X-105460Y-149914D01*
Y-149270D01*
D02*
G37*
G36*
X-121270D02*
X-134540D01*
Y-149914D01*
X-133549Y-153612D01*
X-132335Y-155715D01*
X-132743Y-156917D01*
X-132943Y-157000D01*
X-134208Y-158266D01*
X-134894Y-159920D01*
Y-161710D01*
X-134208Y-163364D01*
X-132943Y-164630D01*
X-131289Y-165315D01*
X-129499D01*
X-127844Y-164630D01*
X-126579Y-163364D01*
X-126276Y-162633D01*
X-125719Y-161723D01*
X-124662Y-161804D01*
X-121914Y-162540D01*
X-121270D01*
Y-149270D01*
D02*
G37*
G36*
X-170605Y-156497D02*
X-172395D01*
X-174049Y-157183D01*
X-175315Y-158448D01*
X-176000Y-160102D01*
Y-161893D01*
X-175315Y-163547D01*
X-174049Y-164812D01*
X-172395Y-165497D01*
X-170605D01*
X-168951Y-164812D01*
X-167685Y-163547D01*
X-167000Y-161893D01*
Y-160102D01*
X-167685Y-158448D01*
X-168951Y-157183D01*
X-170605Y-156497D01*
D02*
G37*
G36*
X163152Y-139500D02*
X161362D01*
X159708Y-140185D01*
X158442Y-141451D01*
X157757Y-143105D01*
Y-144895D01*
X158442Y-146549D01*
X159708Y-147815D01*
X161362Y-148500D01*
X163152D01*
X164806Y-147815D01*
X165562Y-147059D01*
X173858D01*
X183625Y-156826D01*
Y-157895D01*
X184310Y-159549D01*
X185576Y-160815D01*
X187230Y-161500D01*
X189020D01*
X190674Y-160815D01*
X191940Y-159549D01*
X192625Y-157895D01*
Y-156105D01*
X191940Y-154451D01*
X190674Y-153185D01*
X189020Y-152500D01*
X187951D01*
X177288Y-141837D01*
X176296Y-141174D01*
X175125Y-140941D01*
X175125Y-140941D01*
X165562D01*
X164806Y-140185D01*
X163152Y-139500D01*
D02*
G37*
G36*
X161895Y-198750D02*
X160105D01*
X158451Y-199435D01*
X157185Y-200701D01*
X156500Y-202355D01*
Y-204145D01*
X157185Y-205799D01*
X158451Y-207065D01*
X160105Y-207750D01*
X161895D01*
X163549Y-207065D01*
X164815Y-205799D01*
X165500Y-204145D01*
Y-202355D01*
X164815Y-200701D01*
X163549Y-199435D01*
X161895Y-198750D01*
D02*
G37*
G36*
X135895Y-204450D02*
X134105D01*
X132451Y-205135D01*
X131185Y-206401D01*
X130500Y-208055D01*
Y-209845D01*
X131185Y-211499D01*
X132451Y-212765D01*
X134105Y-213450D01*
X135895D01*
X137549Y-212765D01*
X138815Y-211499D01*
X139500Y-209845D01*
Y-208055D01*
X138815Y-206401D01*
X137549Y-205135D01*
X135895Y-204450D01*
D02*
G37*
G36*
X-7520Y-239904D02*
X-9388Y-240677D01*
X-10947Y-242236D01*
X-11720Y-244104D01*
X-7520D01*
Y-239904D01*
D02*
G37*
G36*
Y-246644D02*
X-11720D01*
X-10947Y-248512D01*
X-9388Y-250071D01*
X-7520Y-250844D01*
Y-246644D01*
D02*
G37*
G36*
X-37105Y-242500D02*
X-38895D01*
X-40549Y-243185D01*
X-41815Y-244451D01*
X-42500Y-246105D01*
Y-247895D01*
X-41815Y-249549D01*
X-40549Y-250815D01*
X-38895Y-251500D01*
X-37105D01*
X-35451Y-250815D01*
X-34185Y-249549D01*
X-33500Y-247895D01*
Y-246105D01*
X-34185Y-244451D01*
X-35451Y-243185D01*
X-37105Y-242500D01*
D02*
G37*
G36*
X83395Y-245500D02*
X81605D01*
X79951Y-246185D01*
X78685Y-247451D01*
X78000Y-249105D01*
Y-250895D01*
X78685Y-252549D01*
X79951Y-253815D01*
X81605Y-254500D01*
X83395D01*
X85049Y-253815D01*
X86315Y-252549D01*
X87000Y-250895D01*
Y-249105D01*
X86315Y-247451D01*
X85049Y-246185D01*
X83395Y-245500D01*
D02*
G37*
G36*
X37895Y-250500D02*
X36105D01*
X34451Y-251185D01*
X33185Y-252451D01*
X32500Y-254105D01*
Y-255895D01*
X33185Y-257549D01*
X34451Y-258815D01*
X36105Y-259500D01*
X37895D01*
X39549Y-258815D01*
X40815Y-257549D01*
X41500Y-255895D01*
Y-254105D01*
X40815Y-252451D01*
X39549Y-251185D01*
X37895Y-250500D01*
D02*
G37*
G36*
X58018Y-246835D02*
X56182D01*
X54408Y-247310D01*
X52817Y-248229D01*
X51519Y-249527D01*
X50600Y-251118D01*
X50125Y-252892D01*
Y-254728D01*
X50600Y-256502D01*
X51519Y-258093D01*
X52817Y-259391D01*
X54408Y-260310D01*
X56182Y-260785D01*
X58018D01*
X59792Y-260310D01*
X61383Y-259391D01*
X62681Y-258093D01*
X63600Y-256502D01*
X64075Y-254728D01*
Y-252892D01*
X63600Y-251118D01*
X62681Y-249527D01*
X61383Y-248229D01*
X59792Y-247310D01*
X58018Y-246835D01*
D02*
G37*
G36*
X-522013Y-154500D02*
X-523987D01*
X-525895Y-155011D01*
X-527605Y-155998D01*
X-529002Y-157395D01*
X-529989Y-159105D01*
X-530500Y-161013D01*
Y-162987D01*
X-529989Y-164895D01*
X-529002Y-166605D01*
X-527605Y-168001D01*
X-525895Y-168989D01*
X-523987Y-169500D01*
X-522013D01*
X-520105Y-168989D01*
X-518395Y-168001D01*
X-516998Y-166605D01*
X-516011Y-164895D01*
X-515500Y-162987D01*
Y-161013D01*
X-516011Y-159105D01*
X-516998Y-157395D01*
X-518395Y-155998D01*
X-520105Y-155011D01*
X-522013Y-154500D01*
D02*
G37*
G36*
X-599270Y-168460D02*
X-599388D01*
X-602068Y-169178D01*
X-604472Y-170566D01*
X-606434Y-172528D01*
X-607822Y-174932D01*
X-608540Y-177612D01*
Y-177730D01*
X-599270D01*
Y-168460D01*
D02*
G37*
G36*
X-596612D02*
X-596730D01*
Y-179000D01*
Y-189540D01*
X-596612D01*
X-593932Y-188822D01*
X-591528Y-187434D01*
X-589566Y-185472D01*
X-588419Y-183486D01*
X-587203Y-183371D01*
X-586984Y-183439D01*
X-586002Y-185140D01*
X-584140Y-187002D01*
X-581860Y-188319D01*
X-579316Y-189000D01*
X-576684D01*
X-574140Y-188319D01*
X-571860Y-187002D01*
X-569998Y-185140D01*
X-568681Y-182860D01*
X-568657Y-182770D01*
X-567343D01*
X-567318Y-182860D01*
X-566002Y-185140D01*
X-564140Y-187002D01*
X-561860Y-188319D01*
X-559316Y-189000D01*
X-556684D01*
X-554140Y-188319D01*
X-551860Y-187002D01*
X-549998Y-185140D01*
X-548681Y-182860D01*
X-548657Y-182770D01*
X-547343D01*
X-547318Y-182860D01*
X-546002Y-185140D01*
X-544140Y-187002D01*
X-541860Y-188319D01*
X-539316Y-189000D01*
X-536684D01*
X-534140Y-188319D01*
X-531860Y-187002D01*
X-529998Y-185140D01*
X-528681Y-182860D01*
X-528000Y-180317D01*
Y-177684D01*
X-528681Y-175140D01*
X-529998Y-172860D01*
X-531860Y-170998D01*
X-534140Y-169681D01*
X-536684Y-169000D01*
X-539316D01*
X-541860Y-169681D01*
X-544140Y-170998D01*
X-546002Y-172860D01*
X-547318Y-175140D01*
X-547343Y-175230D01*
X-548657D01*
X-548681Y-175140D01*
X-549998Y-172860D01*
X-551860Y-170998D01*
X-554140Y-169681D01*
X-556684Y-169000D01*
X-559316D01*
X-561860Y-169681D01*
X-564140Y-170998D01*
X-566002Y-172860D01*
X-567318Y-175140D01*
X-567343Y-175230D01*
X-568657D01*
X-568681Y-175140D01*
X-569998Y-172860D01*
X-571860Y-170998D01*
X-574140Y-169681D01*
X-576684Y-169000D01*
X-579316D01*
X-581860Y-169681D01*
X-584140Y-170998D01*
X-586002Y-172860D01*
X-586984Y-174561D01*
X-587203Y-174629D01*
X-588419Y-174514D01*
X-589566Y-172528D01*
X-591528Y-170566D01*
X-593932Y-169178D01*
X-596612Y-168460D01*
D02*
G37*
G36*
X-599270Y-180270D02*
X-608540D01*
Y-180388D01*
X-607822Y-183068D01*
X-606434Y-185472D01*
X-604472Y-187434D01*
X-602068Y-188822D01*
X-599388Y-189540D01*
X-599270D01*
Y-180270D01*
D02*
G37*
G36*
X-519105Y-234500D02*
X-520895D01*
X-522549Y-235185D01*
X-523815Y-236451D01*
X-524500Y-238105D01*
Y-239895D01*
X-523815Y-241549D01*
X-522549Y-242815D01*
X-521314Y-243327D01*
Y-244673D01*
X-522549Y-245185D01*
X-523815Y-246451D01*
X-524500Y-248105D01*
Y-249895D01*
X-523815Y-251549D01*
X-522549Y-252815D01*
X-520895Y-253500D01*
X-519105D01*
X-517451Y-252815D01*
X-516185Y-251549D01*
X-515500Y-249895D01*
Y-248105D01*
X-516185Y-246451D01*
X-517451Y-245185D01*
X-518686Y-244673D01*
Y-243327D01*
X-517451Y-242815D01*
X-516185Y-241549D01*
X-515500Y-239895D01*
Y-238105D01*
X-516185Y-236451D01*
X-517451Y-235185D01*
X-519105Y-234500D01*
D02*
G37*
%LPD*%
D15*
X135673Y-129673D02*
X150000Y-144000D01*
X127762Y-129673D02*
X135673D01*
X106537Y-137000D02*
X131250D01*
X175125Y-144000D02*
X188125Y-157000D01*
X162257Y-144000D02*
X175125D01*
X163278Y-185250D02*
X165974Y-182554D01*
Y-174974D01*
X160000Y-169000D02*
X165974Y-174974D01*
X32666Y-206750D02*
X70022D01*
X-44000Y-219000D02*
X-43188D01*
X31416Y-208000D02*
X32666Y-206750D01*
X70022D02*
X70958Y-207687D01*
X108314D01*
X-43188Y-219000D02*
X-41438Y-220750D01*
X-103787Y-208000D02*
X31416D01*
X108314Y-207687D02*
X125000Y-191000D01*
X-41438Y-220750D02*
X102222D01*
X105722Y-224250D01*
X110278D01*
X113778Y-220750D01*
X56722Y142781D02*
X102270D01*
X118000Y128624D02*
Y134517D01*
X104900Y129900D02*
X109978Y134978D01*
X117792Y134725D02*
X118000Y134517D01*
X109978Y134978D02*
X110022D01*
X102270Y142781D02*
X102744Y143256D01*
X123500Y-172500D02*
X137000Y-159000D01*
X160000D01*
X118250Y-122250D02*
X120707Y-124707D01*
X122795D01*
X127762Y-129673D01*
X83158Y-122250D02*
X118250D01*
X83158D02*
X97980Y-137072D01*
X-165802Y-41400D02*
X-76600D01*
X-60000Y-58000D01*
X-2355Y-122250D02*
X83158D01*
X-10479Y-130374D02*
X-2355Y-122250D01*
X-39299Y-126000D02*
X-34925Y-130374D01*
X-60000Y-126000D02*
X-39299D01*
X-34925Y-130374D02*
X-10479D01*
X110000Y-172500D02*
X123500D01*
X163672Y190893D02*
Y202500D01*
X132795Y183500D02*
X156278D01*
X157924Y179500D02*
X159070Y178354D01*
X188000D01*
X156278Y183500D02*
X163672Y190893D01*
X108935Y179500D02*
X157924D01*
X94383Y194052D02*
X108935Y179500D01*
X154972Y-189000D02*
X158722Y-185250D01*
X163278D01*
X111935Y-228250D02*
X112282Y-227903D01*
X115926D01*
X63138Y-228250D02*
X111935D01*
X115926Y-227903D02*
X116500Y-227328D01*
X804Y-232000D02*
X7289Y-225515D01*
X60403D02*
X63138Y-228250D01*
X143472Y-220750D02*
X145722Y-223000D01*
X113778Y-220750D02*
X143472D01*
X7289Y-225515D02*
X60403D01*
X-191000Y158000D02*
X-129125Y219875D01*
X-191000Y102000D02*
Y158000D01*
X-155000Y62000D02*
X-142000Y75000D01*
X-191000Y62000D02*
X-155000D01*
X-191000Y82000D02*
X-163000D01*
X-127376Y117624D01*
X-162000Y92000D02*
X-131224Y122776D01*
X-191000Y92000D02*
X-162000D01*
X-166500Y-87000D02*
X-128358D01*
X47198Y-171698D02*
X53500Y-178000D01*
X3266Y-167698D02*
X26234D01*
X27931Y-166000D01*
X55946D01*
X53500Y-178000D02*
X80455D01*
X86455Y-172000D01*
X100000D01*
X24163Y-162698D02*
X29623Y-157237D01*
X61903D01*
X58446Y-168500D02*
X63002D01*
X61903Y-157237D02*
X64140Y-155000D01*
X55946Y-166000D02*
X58446Y-168500D01*
X63002D02*
X65502Y-166000D01*
X112000D02*
X112159Y-165841D01*
X43000Y-192000D02*
X86000D01*
X29000Y-178000D02*
X43000Y-192000D01*
X65502Y-166000D02*
X112000D01*
X-617Y-166383D02*
X1951D01*
X3266Y-167698D01*
X-1000Y-166000D02*
X-617Y-166383D01*
X65036Y-143383D02*
X70153Y-148500D01*
X60133Y-143383D02*
X65036D01*
X59750Y-143000D02*
X60133Y-143383D01*
X22092Y-157698D02*
X29928Y-149861D01*
X61500D01*
X126484Y-149675D02*
X131010Y-154202D01*
X118325Y-149675D02*
X126484D01*
X131010Y-154341D02*
Y-154202D01*
X132681Y-183681D02*
X138000Y-189000D01*
X154972D01*
X86000Y-192000D02*
X100000Y-178000D01*
X160000D01*
X113082Y-183681D02*
X132681D01*
X160000Y-178000D02*
X160474Y-178474D01*
X98149Y-196187D02*
X99435Y-197472D01*
X30786Y-202974D02*
X37573Y-196187D01*
X98149D01*
X112763Y-184000D02*
X113082Y-183681D01*
X104000Y-184000D02*
X112763D01*
X107069Y-197472D02*
X115360Y-189181D01*
X-94500Y-170900D02*
X-3878D01*
X-3080Y-171698D01*
X47198D01*
X97278Y185500D02*
X109271Y173507D01*
X122750D01*
X31000Y159477D02*
X75977D01*
X-32082Y83176D02*
X59000D01*
X100000Y229500D02*
X100322Y229822D01*
Y245325D01*
X100000Y229500D02*
X125778D01*
X74308Y208500D02*
X75722Y209914D01*
Y210910D02*
X78000Y213188D01*
Y214000D01*
X58500Y208500D02*
X74308D01*
X75722Y209914D02*
Y210910D01*
X58000Y178328D02*
X59172Y179500D01*
X58000Y178222D02*
Y178328D01*
X51278Y171500D02*
X58000Y178222D01*
X46389Y171500D02*
X51278D01*
X41889Y176000D02*
X46389Y171500D01*
X37000Y176000D02*
X41889D01*
X26224Y165224D02*
X37000Y176000D01*
X-15448Y165224D02*
X26224D01*
X16713Y185500D02*
X97278D01*
X1713Y170500D02*
X16713Y185500D01*
X-54125Y219875D02*
X-16000Y258000D01*
X14000D01*
X-69875Y219875D02*
X-54125D01*
X-129125D02*
X-69875D01*
X14000Y258000D02*
X35335Y236665D01*
X69217D01*
X76382Y229500D02*
X100000D01*
X69217Y236665D02*
X76382Y229500D01*
X125778D02*
X131000Y234722D01*
Y235520D01*
X-21515Y153500D02*
X-13791Y161224D01*
X5538Y159477D02*
X31000D01*
X3791Y161224D02*
X5538Y159477D01*
X16358Y143000D02*
X56503D01*
X56722Y142781D01*
X11159Y217017D02*
X11971D01*
X8643Y214500D02*
X11159Y217017D01*
X-63500Y214500D02*
X8643D01*
X42500Y210500D02*
X46000Y214000D01*
X53000D01*
X-45552Y206500D02*
X40630D01*
X-41774Y202500D02*
X38266D01*
X40630Y206500D02*
X46722Y200409D01*
X38266Y202500D02*
X44858Y195909D01*
X77309D01*
X-48366D02*
X-41774Y202500D01*
X-52052Y200000D02*
X-45552Y206500D01*
X-64000Y205000D02*
X-58500Y210500D01*
X42500D01*
X-71000Y207000D02*
X-63500Y214500D01*
X126649Y189646D02*
X132795Y183500D01*
X106567Y189646D02*
X126649D01*
X102577Y195909D02*
X129326D01*
X92546Y205939D02*
X102577Y195909D01*
X94410Y210439D02*
X104441Y200409D01*
X131190D01*
X-134206Y-81500D02*
X-131982Y-79276D01*
X-149500Y-81500D02*
X-134206D01*
X-131982Y-79276D02*
X-108709D01*
X64140Y-155000D02*
X103000D01*
X145722Y-223000D02*
X146500D01*
X7891Y220715D02*
X9693Y222517D01*
X-9715Y220715D02*
X7891D01*
X9693Y222517D02*
X14249D01*
X-12278Y226500D02*
X8019D01*
X8036Y226517D02*
X15906D01*
X8019Y226500D02*
X8036Y226517D01*
X-10000Y221000D02*
X-9715Y220715D01*
X9258Y129900D02*
X104900D01*
X107000Y117624D02*
X118000Y128624D01*
X-57376Y117624D02*
X107000Y117624D01*
X-13791Y161224D02*
X3791D01*
X-12134Y157224D02*
X2134D01*
X16358Y143000D01*
X-127376Y117624D02*
X-57376D01*
X2134Y122776D02*
X9258Y129900D01*
X-131224Y122776D02*
X2134D01*
X-106642Y-87000D02*
X-39000D01*
X-110366Y-83276D02*
X-106642Y-87000D01*
X-124634Y-83276D02*
X-110366D01*
X-128358Y-87000D02*
X-124634Y-83276D01*
X99435Y-197472D02*
X107069D01*
X-68598Y-117598D02*
X31608D01*
X38706Y-110500D01*
X-70317Y-119317D02*
X-68598Y-117598D01*
X-68490Y-140510D02*
X-9779D01*
X7408Y-157698D01*
X338D02*
X5337Y-162698D01*
X24163D01*
X-37698Y-157698D02*
X338D01*
X-45389Y-165389D02*
X-37698Y-157698D01*
X-116869Y-120000D02*
X-70317Y-119317D01*
X7408Y-157698D02*
X22092D01*
X-107985Y-80000D02*
X-24000D01*
X-108709Y-79276D02*
X-107985Y-80000D01*
X-17125Y-88000D02*
X-6274D01*
X-924Y-82650D02*
X32858D01*
X-6274Y-88000D02*
X-924Y-82650D01*
X32858D02*
X36177Y-85969D01*
X70500D01*
X-116899Y-120000D02*
X-116869Y-120000D01*
X-132526Y-120000D02*
X-116899D01*
X-137487Y-133000D02*
X-104150D01*
X-86650Y-150500D01*
X-154987D02*
X-137487Y-133000D01*
X-179500Y-150500D02*
X-154987D01*
X-172000Y-184000D02*
X-48765D01*
X-29791Y-202974D01*
X-49000Y-232000D02*
X804D01*
X-29791Y-202974D02*
X30786D01*
X-86650Y-150500D02*
X-52500D01*
X-170000Y-208000D02*
X-145592D01*
X-135592Y-218000D01*
X53140Y220715D02*
X59855Y214000D01*
X53012Y226500D02*
X60012Y219500D01*
X15923Y226500D02*
X53012D01*
X16051Y220715D02*
X53140D01*
X60012Y219500D02*
X92500D01*
X122750Y173507D02*
X127757Y168500D01*
X178500D01*
X179000Y169000D01*
X94383Y194052D02*
Y194433D01*
X94500Y179500D02*
X95000Y180000D01*
X59172Y179500D02*
X94500D01*
X-158500Y170500D02*
X1713D01*
X-159000Y170000D02*
X-158500Y170500D01*
X75977Y159477D02*
X80000Y163500D01*
X92500D01*
X93000Y164000D01*
X-96000Y88000D02*
X-60000D01*
X53000Y214000D02*
X58500Y208500D01*
X-61222Y200000D02*
X-52052D01*
X-66778D02*
X-66278Y199500D01*
X-61722D01*
X-104000Y200000D02*
X-66778D01*
X-61722Y199500D02*
X-61222Y200000D01*
X-38517Y225000D02*
X-13778D01*
X-12278Y226500D01*
X-39000Y224517D02*
X-38517Y225000D01*
X14249Y222517D02*
X16051Y220715D01*
X-109000Y75000D02*
X-96000Y88000D01*
X-142000Y75000D02*
X-109000D01*
X-15672Y165000D02*
X-15448Y165224D01*
X-32358Y137000D02*
X-12134Y157224D01*
X-100868Y153500D02*
X-21515D01*
X-141000Y165000D02*
X-15672D01*
X-113787Y-218000D02*
X-103787Y-208000D01*
X-135592Y-218000D02*
X-113787D01*
X77000Y-131072D02*
X77383Y-131454D01*
X100465Y-143072D02*
X106537Y-137000D01*
X83877Y-131454D02*
X95494Y-143072D01*
X106108Y-144500D02*
X113149D01*
X77383Y-131454D02*
X83877D01*
X102108Y-148500D02*
X106108Y-144500D01*
X95494Y-143072D02*
X100465D01*
X70153Y-148500D02*
X102108D01*
X64750Y-116000D02*
X149000D01*
X86500Y-110500D02*
X91000Y-106000D01*
X38706Y-110500D02*
X86500D01*
X15906Y226517D02*
X15923Y226500D01*
X110426Y206483D02*
X111000Y205909D01*
X105517Y206483D02*
X110426D01*
X92500Y219500D02*
X105517Y206483D01*
X46722Y200409D02*
X75445D01*
X85476Y210439D01*
X94410D01*
X87340Y205939D02*
X92546D01*
X77309Y195909D02*
X87340Y205939D01*
X94000Y153000D02*
X94541D01*
X95541Y152000D01*
X117000D01*
X113149Y-144500D02*
X118325Y-149675D01*
X149000Y-116000D02*
X158000Y-107000D01*
X129326Y195909D02*
X135735Y189500D01*
X136098Y195500D02*
X157039D01*
X131190Y200409D02*
X136098Y195500D01*
X59855Y214000D02*
X69000D01*
X-65000Y137000D02*
X-32358D01*
X-93000Y79000D02*
X-36258D01*
X-32082Y83176D01*
X-104468Y157100D02*
X-100868Y153500D01*
X-137900Y157100D02*
X-104468D01*
X-138000Y157000D02*
X-137900Y157100D01*
X-345000Y-331668D02*
X-343334Y-330002D01*
X-340002D01*
X-338335Y-331668D01*
Y-333334D01*
X-340002Y-335000D01*
X-341668D01*
X-340002D01*
X-338335Y-336666D01*
Y-338332D01*
X-340002Y-339998D01*
X-343334D01*
X-345000Y-338332D01*
D90*
X112900Y238850D02*
D03*
X62100Y228690D02*
D03*
Y249010D02*
D03*
X107900Y-243650D02*
D03*
X57100Y-253810D02*
D03*
Y-233490D02*
D03*
D91*
X-550000Y300000D02*
D03*
X-590000D02*
D03*
D92*
X-125000Y94600D02*
D03*
X-5000Y140000D02*
D03*
X-117500Y-100500D02*
D03*
X14750Y-139974D02*
D03*
D93*
X-125000Y55000D02*
D03*
X-5000Y100400D02*
D03*
X-117500Y-60900D02*
D03*
X14750Y-100374D02*
D03*
D94*
X-442000Y107000D02*
D03*
Y127000D02*
D03*
Y147000D02*
D03*
Y167000D02*
D03*
Y187000D02*
D03*
Y207000D02*
D03*
X-624000Y126000D02*
D03*
Y146000D02*
D03*
Y166000D02*
D03*
Y186000D02*
D03*
X-538000Y-179000D02*
D03*
X-558000D02*
D03*
X-578000D02*
D03*
X-598000D02*
D03*
X251000Y0D02*
D03*
X231000D02*
D03*
X211000D02*
D03*
X191000D02*
D03*
X171000D02*
D03*
X151000D02*
D03*
X-597000Y-18000D02*
D03*
X-577000D02*
D03*
X-557000D02*
D03*
X-537000D02*
D03*
D95*
X12250Y-187474D02*
D03*
Y-242474D02*
D03*
X-122500Y142100D02*
D03*
Y197100D02*
D03*
X-2500Y187500D02*
D03*
Y242500D02*
D03*
X-120000Y-148000D02*
D03*
Y-203000D02*
D03*
D96*
X58000Y-67000D02*
D03*
X70000Y-53000D02*
D03*
D97*
X150000Y-144000D02*
D03*
X131250Y-137000D02*
D03*
X188125Y-157000D02*
D03*
X162257Y-144000D02*
D03*
X160000Y-169000D02*
D03*
X-586500Y149000D02*
D03*
Y165000D02*
D03*
X42000Y-233000D02*
D03*
Y-213750D02*
D03*
X83000Y-215000D02*
D03*
X135000Y-208950D02*
D03*
X99500Y-215000D02*
D03*
X37000Y-255000D02*
D03*
X124000Y144611D02*
D03*
X126000Y133611D02*
D03*
X102744Y143256D02*
D03*
X110022Y134978D02*
D03*
X117792Y134725D02*
D03*
X160000Y-159000D02*
D03*
X127762Y-129673D02*
D03*
X-235000Y-66000D02*
D03*
X97980Y-137072D02*
D03*
X-165802Y-41400D02*
D03*
X-60000Y-201000D02*
D03*
Y-126000D02*
D03*
Y-58000D02*
D03*
X161000Y-203250D02*
D03*
X57000Y-215250D02*
D03*
X124000Y-229000D02*
D03*
X188000Y178354D02*
D03*
X163672Y202500D02*
D03*
X235000Y-110000D02*
D03*
X-69000Y-70000D02*
D03*
X161000Y-190750D02*
D03*
X146000Y-183500D02*
D03*
Y-167000D02*
D03*
X70000Y-172500D02*
D03*
X108000Y-218750D02*
D03*
X116500Y-227328D02*
D03*
X-191000Y62000D02*
D03*
X-191000Y82000D02*
D03*
X-191000Y92000D02*
D03*
X-191000Y102000D02*
D03*
X-191000Y72000D02*
D03*
X-170172Y-67000D02*
D03*
X-166500Y-87000D02*
D03*
X-162839Y-114477D02*
D03*
X60724Y-163000D02*
D03*
X29000Y-178000D02*
D03*
X59750Y-143000D02*
D03*
X60000Y-186000D02*
D03*
X61500Y-149861D02*
D03*
X131010Y-154341D02*
D03*
X115360Y-189181D02*
D03*
X160474Y-178474D02*
D03*
X100000Y-172000D02*
D03*
X82500Y-250000D02*
D03*
X95200D02*
D03*
X59000Y83000D02*
D03*
X100322Y245325D02*
D03*
X50000Y257000D02*
D03*
X107750Y222000D02*
D03*
X78000Y214000D02*
D03*
X143000Y174000D02*
D03*
Y160000D02*
D03*
X68000Y165000D02*
D03*
X73000Y257000D02*
D03*
X131000Y235520D02*
D03*
X-69875Y219875D02*
D03*
X156000Y-216000D02*
D03*
X50000Y152000D02*
D03*
X49000Y177000D02*
D03*
X-20000Y177500D02*
D03*
X59000Y148281D02*
D03*
X65000Y137000D02*
D03*
X11971Y217017D02*
D03*
X27000Y124400D02*
D03*
X-39000Y-87000D02*
D03*
X110000Y-172500D02*
D03*
X112159Y-165841D02*
D03*
X103000Y-155000D02*
D03*
X-17250Y-124374D02*
D03*
X-1000Y-166000D02*
D03*
X-30589Y-151698D02*
D03*
X-45389Y-165389D02*
D03*
X-149500Y-81500D02*
D03*
X-17125Y-88000D02*
D03*
X-24000Y-80000D02*
D03*
X-132526Y-120000D02*
D03*
X-130394Y-160815D02*
D03*
X-179500Y-150500D02*
D03*
X-94500Y-170900D02*
D03*
X-68490Y-140510D02*
D03*
X31000Y-234000D02*
D03*
X-44000Y-219000D02*
D03*
X-49000Y-232000D02*
D03*
X-38000Y-247000D02*
D03*
X-52500Y-150500D02*
D03*
X-194000Y-77000D02*
D03*
X-170000Y-208000D02*
D03*
X-172000Y-184000D02*
D03*
X179000Y169000D02*
D03*
X155646Y174000D02*
D03*
X106567Y189646D02*
D03*
X95000Y180000D02*
D03*
X94383Y194433D02*
D03*
X-159000Y170000D02*
D03*
X-60000Y88000D02*
D03*
X-64000Y205000D02*
D03*
X-10000Y221000D02*
D03*
X-520000Y-239000D02*
D03*
Y-249000D02*
D03*
X-519000Y-88000D02*
D03*
Y-78000D02*
D03*
X77000Y-131072D02*
D03*
X78000Y-138000D02*
D03*
X91000Y-106000D02*
D03*
X125000Y-107000D02*
D03*
X94500Y137000D02*
D03*
X93000Y164000D02*
D03*
X124000Y235500D02*
D03*
X129000Y224000D02*
D03*
X-165000Y48000D02*
D03*
X-71000Y207000D02*
D03*
X111000Y205909D02*
D03*
X118000D02*
D03*
X90061Y199939D02*
D03*
X94000Y153000D02*
D03*
X117000Y152000D02*
D03*
X70500Y-85969D02*
D03*
X72638Y-142500D02*
D03*
X125000Y-191000D02*
D03*
X64750Y-116000D02*
D03*
X146500Y-223000D02*
D03*
X93000Y-202187D02*
D03*
X104000Y-184000D02*
D03*
X158000Y-107000D02*
D03*
X-39250Y-202000D02*
D03*
X-171500Y-160998D02*
D03*
X135735Y189500D02*
D03*
X-48366Y195909D02*
D03*
X49000Y205909D02*
D03*
X39274Y168398D02*
D03*
X-39000Y224517D02*
D03*
X-85000Y226000D02*
D03*
X69000Y214000D02*
D03*
X154000Y221000D02*
D03*
X157039Y195306D02*
D03*
X154000Y189000D02*
D03*
X-65000Y137000D02*
D03*
X-138000Y157000D02*
D03*
X-141000Y165000D02*
D03*
X-71000Y159000D02*
D03*
X-79661Y108577D02*
D03*
X-93000Y79000D02*
D03*
D98*
X160000Y43000D02*
D03*
X162000Y20000D02*
D03*
D99*
X-138500Y-205900D02*
D03*
X-6250Y-245374D02*
D03*
X16000Y245400D02*
D03*
X-104000Y200000D02*
D03*
M02*
