G04*
G04 #@! TF.GenerationSoftware,Altium Limited,Altium Designer,25.8.1 (18)*
G04*
G04 Layer_Color=8421504*
%FSLAX44Y44*%
%MOMM*%
G71*
G04*
G04 #@! TF.SameCoordinates,2DE5FF01-4093-4F91-ACCA-3BB073B8CBF2*
G04*
G04*
G04 #@! TF.FilePolarity,Positive*
G04*
G01*
G75*
%ADD20R,2.6000X1.0000*%
%ADD21C,0.0100*%
%ADD22R,1.4000X1.0000*%
%ADD23R,1.9000X0.6000*%
%ADD24R,2.7000X3.3000*%
%ADD25R,2.7000X0.9000*%
%ADD26R,0.3048X0.8128*%
%ADD27R,1.4542X0.8821*%
G04:AMPARAMS|DCode=28|XSize=1.4542mm|YSize=3.1821mm|CornerRadius=0.4435mm|HoleSize=0mm|Usage=FLASHONLY|Rotation=0.000|XOffset=0mm|YOffset=0mm|HoleType=Round|Shape=RoundedRectangle|*
%AMROUNDEDRECTD28*
21,1,1.4542,2.2951,0,0,0.0*
21,1,0.5671,3.1821,0,0,0.0*
1,1,0.8870,0.2836,-1.1476*
1,1,0.8870,-0.2836,-1.1476*
1,1,0.8870,-0.2836,1.1476*
1,1,0.8870,0.2836,1.1476*
%
%ADD28ROUNDEDRECTD28*%
G04:AMPARAMS|DCode=29|XSize=1.4542mm|YSize=0.8821mm|CornerRadius=0.4411mm|HoleSize=0mm|Usage=FLASHONLY|Rotation=0.000|XOffset=0mm|YOffset=0mm|HoleType=Round|Shape=RoundedRectangle|*
%AMROUNDEDRECTD29*
21,1,1.4542,0.0000,0,0,0.0*
21,1,0.5720,0.8821,0,0,0.0*
1,1,0.8821,0.2860,0.0000*
1,1,0.8821,-0.2860,0.0000*
1,1,0.8821,-0.2860,0.0000*
1,1,0.8821,0.2860,0.0000*
%
%ADD29ROUNDEDRECTD29*%
%ADD30R,1.2000X0.5000*%
%ADD31R,0.5000X1.2000*%
%ADD32R,1.6539X0.5421*%
G04:AMPARAMS|DCode=33|XSize=1.6539mm|YSize=0.5421mm|CornerRadius=0.2711mm|HoleSize=0mm|Usage=FLASHONLY|Rotation=0.000|XOffset=0mm|YOffset=0mm|HoleType=Round|Shape=RoundedRectangle|*
%AMROUNDEDRECTD33*
21,1,1.6539,0.0000,0,0,0.0*
21,1,1.1118,0.5421,0,0,0.0*
1,1,0.5421,0.5559,0.0000*
1,1,0.5421,-0.5559,0.0000*
1,1,0.5421,-0.5559,0.0000*
1,1,0.5421,0.5559,0.0000*
%
%ADD33ROUNDEDRECTD33*%
%ADD34R,1.3000X0.3000*%
%ADD35R,2.2000X1.8000*%
%ADD36R,1.6000X1.5500*%
%ADD37R,1.1000X1.5000*%
%ADD38R,0.8000X0.8500*%
%ADD39R,0.8500X0.8000*%
%ADD40R,1.5500X1.6000*%
G04:AMPARAMS|DCode=41|XSize=3.45mm|YSize=1.85mm|CornerRadius=0mm|HoleSize=0mm|Usage=FLASHONLY|Rotation=135.000|XOffset=0mm|YOffset=0mm|HoleType=Round|Shape=Rectangle|*
%AMROTATEDRECTD41*
4,1,4,1.8738,-0.5657,0.5657,-1.8738,-1.8738,0.5657,-0.5657,1.8738,1.8738,-0.5657,0.0*
%
%ADD41ROTATEDRECTD41*%

G04:AMPARAMS|DCode=42|XSize=3.45mm|YSize=1.85mm|CornerRadius=0mm|HoleSize=0mm|Usage=FLASHONLY|Rotation=45.000|XOffset=0mm|YOffset=0mm|HoleType=Round|Shape=Rectangle|*
%AMROTATEDRECTD42*
4,1,4,-0.5657,-1.8738,-1.8738,-0.5657,0.5657,1.8738,1.8738,0.5657,-0.5657,-1.8738,0.0*
%
%ADD42ROTATEDRECTD42*%

%ADD43R,0.9000X0.8000*%
%ADD44C,0.0160*%
%ADD45R,0.8000X0.9000*%
%ADD46R,3.4500X1.8500*%
G04:AMPARAMS|DCode=47|XSize=1.6539mm|YSize=0.5421mm|CornerRadius=0.2711mm|HoleSize=0mm|Usage=FLASHONLY|Rotation=90.000|XOffset=0mm|YOffset=0mm|HoleType=Round|Shape=RoundedRectangle|*
%AMROUNDEDRECTD47*
21,1,1.6539,0.0000,0,0,90.0*
21,1,1.1118,0.5421,0,0,90.0*
1,1,0.5421,0.0000,0.5559*
1,1,0.5421,0.0000,-0.5559*
1,1,0.5421,0.0000,-0.5559*
1,1,0.5421,0.0000,0.5559*
%
%ADD47ROUNDEDRECTD47*%
%ADD48R,0.5421X1.6539*%
G36*
X43208Y212774D02*
X16792D01*
Y235628D01*
X43208D01*
Y212774D01*
D02*
G37*
G36*
Y174372D02*
X16792D01*
Y197226D01*
X43208D01*
Y174372D01*
D02*
G37*
G36*
X-76792Y167374D02*
X-103208D01*
Y190228D01*
X-76792D01*
Y167374D01*
D02*
G37*
G36*
Y128972D02*
X-103208D01*
Y151826D01*
X-76792D01*
Y128972D01*
D02*
G37*
G36*
X186750Y129000D02*
X191750Y124000D01*
X178000D01*
Y134000D01*
X191750D01*
X186750Y129000D01*
D02*
G37*
G36*
X204000Y124000D02*
X194750D01*
X189750Y129000D01*
X194750Y134000D01*
X204000Y134000D01*
Y124000D01*
D02*
G37*
G36*
X-139292Y-157726D02*
X-165708D01*
Y-134872D01*
X-139292D01*
Y-157726D01*
D02*
G37*
G36*
X195000Y-162000D02*
X181250D01*
X186250Y-157000D01*
X181250Y-152000D01*
X195000D01*
Y-162000D01*
D02*
G37*
G36*
X183250Y-157000D02*
X178250Y-162000D01*
X169000Y-162000D01*
Y-152000D01*
X178250D01*
X183250Y-157000D01*
D02*
G37*
G36*
X195000Y-178000D02*
X181250D01*
X186250Y-173000D01*
X181250Y-168000D01*
X195000D01*
Y-178000D01*
D02*
G37*
G36*
X183250Y-173000D02*
X178250Y-178000D01*
X169000Y-178000D01*
Y-168000D01*
X178250D01*
X183250Y-173000D01*
D02*
G37*
G36*
X-139292Y-196128D02*
X-165708D01*
Y-173274D01*
X-139292D01*
Y-196128D01*
D02*
G37*
G36*
X-7042Y-197200D02*
X-33458D01*
X-33458Y-174346D01*
X-7042D01*
X-7042Y-197200D01*
D02*
G37*
G36*
Y-235602D02*
X-33458Y-235602D01*
X-33458Y-212748D01*
X-7042D01*
Y-235602D01*
D02*
G37*
D20*
X182004Y-173000D02*
D03*
X181999Y-157000D02*
D03*
D21*
X100200Y245200D02*
D03*
Y232500D02*
D03*
X87500Y245200D02*
D03*
Y232500D02*
D03*
X74800Y245200D02*
D03*
Y232500D02*
D03*
X95200Y-250000D02*
D03*
X82500Y-237300D02*
D03*
Y-250000D02*
D03*
X69800D02*
D03*
Y-237300D02*
D03*
X95200D02*
D03*
D22*
X-595000Y-295000D02*
D03*
Y-225000D02*
D03*
X-549000Y-134000D02*
D03*
Y-64000D02*
D03*
X-550000Y-295000D02*
D03*
Y-225000D02*
D03*
X-594000Y-134000D02*
D03*
Y-64000D02*
D03*
D23*
X91000Y-120500D02*
D03*
X110000Y-130000D02*
D03*
Y-111000D02*
D03*
D24*
X-428500Y275000D02*
D03*
D25*
X-487500Y252000D02*
D03*
Y275000D02*
D03*
Y298000D02*
D03*
D26*
X-80250Y164574D02*
D03*
X-86750Y164574D02*
D03*
X-93250D02*
D03*
X-99750D02*
D03*
X-93250Y199626D02*
D03*
X-86750D02*
D03*
X-80250D02*
D03*
X-99750D02*
D03*
X-30000Y-209948D02*
D03*
X-23500D02*
D03*
X-17000D02*
D03*
X-10500D02*
D03*
X-17000Y-245000D02*
D03*
X-23500D02*
D03*
X-30000D02*
D03*
X-10500D02*
D03*
Y-200000D02*
D03*
X-17000D02*
D03*
X-23500D02*
D03*
X-30000D02*
D03*
X-30000Y-164948D02*
D03*
X-23500D02*
D03*
X-17000D02*
D03*
X-10500D02*
D03*
X-162250Y-205526D02*
D03*
X-155750D02*
D03*
X-149250D02*
D03*
X-142750Y-170474D02*
D03*
X-149250D02*
D03*
X-155750D02*
D03*
X-162250D02*
D03*
X-142750Y-205526D02*
D03*
Y-125474D02*
D03*
X-149250D02*
D03*
X-155750D02*
D03*
X-162250D02*
D03*
Y-160526D02*
D03*
X-155750D02*
D03*
X-149250D02*
D03*
X-142750D02*
D03*
X39750Y209974D02*
D03*
X33250D02*
D03*
X26750D02*
D03*
X20250D02*
D03*
X26750Y245026D02*
D03*
X33250D02*
D03*
X39750D02*
D03*
X20250D02*
D03*
Y200026D02*
D03*
X26750D02*
D03*
X33250D02*
D03*
X39750D02*
D03*
Y164974D02*
D03*
X33250D02*
D03*
X26750D02*
D03*
X20250D02*
D03*
X-99750Y154626D02*
D03*
X-93250D02*
D03*
X-86750D02*
D03*
X-80250D02*
D03*
X-86750Y119574D02*
D03*
X-93250D02*
D03*
X-99750D02*
D03*
X-80250D02*
D03*
D27*
X84250Y-149500D02*
D03*
D28*
X145750Y-172500D02*
D03*
D29*
X84250D02*
D03*
Y-195500D02*
D03*
D30*
X80000Y187500D02*
D03*
Y155500D02*
D03*
X165000Y187500D02*
D03*
Y179500D02*
D03*
Y171500D02*
D03*
Y163500D02*
D03*
Y139500D02*
D03*
X80000Y163500D02*
D03*
Y171500D02*
D03*
Y179500D02*
D03*
Y195500D02*
D03*
Y139500D02*
D03*
X165000Y195500D02*
D03*
Y147500D02*
D03*
Y155500D02*
D03*
X80000Y147500D02*
D03*
D31*
X134500Y125000D02*
D03*
X126500D02*
D03*
X118500D02*
D03*
X110500D02*
D03*
X102500D02*
D03*
X94500Y210000D02*
D03*
X110500D02*
D03*
X126500D02*
D03*
X134500D02*
D03*
X142500D02*
D03*
X150500Y125000D02*
D03*
X142500D02*
D03*
X94500D02*
D03*
X118500Y210000D02*
D03*
X150500D02*
D03*
X102500D02*
D03*
D32*
X-580005Y176050D02*
D03*
D33*
Y163350D02*
D03*
Y150650D02*
D03*
Y137950D02*
D03*
X-475995D02*
D03*
Y150650D02*
D03*
Y163350D02*
D03*
Y176050D02*
D03*
D34*
X-502500Y-73500D02*
D03*
X-502500Y-68500D02*
D03*
X-502500Y-93500D02*
D03*
X-502500Y-78500D02*
D03*
X-502500Y-83500D02*
D03*
X-502500Y-88500D02*
D03*
X-502500Y-103500D02*
D03*
X-502500Y-113500D02*
D03*
X-502500Y-98500D02*
D03*
X-502500Y-108500D02*
D03*
X-179500Y-97000D02*
D03*
X-179500Y-77000D02*
D03*
X-179500Y-87000D02*
D03*
X-179500Y-67000D02*
D03*
X-179500Y-62000D02*
D03*
X-179500Y-82000D02*
D03*
X-179500Y-92000D02*
D03*
X-179500Y-72000D02*
D03*
X-179500Y-102000D02*
D03*
X-179500Y-57000D02*
D03*
X-179500Y62000D02*
D03*
X-179500Y57000D02*
D03*
X-179500Y82000D02*
D03*
Y87000D02*
D03*
X-179500Y67000D02*
D03*
X-179500Y72000D02*
D03*
X-179500Y77000D02*
D03*
X-179500Y92000D02*
D03*
X-179500Y97000D02*
D03*
X-179500Y102000D02*
D03*
X-503500Y-234500D02*
D03*
X-503500Y-229500D02*
D03*
X-503500Y-254500D02*
D03*
Y-259500D02*
D03*
X-503500Y-239500D02*
D03*
X-503500Y-244500D02*
D03*
X-503500Y-249500D02*
D03*
X-503500Y-264500D02*
D03*
X-503500Y-269500D02*
D03*
X-503500Y-274500D02*
D03*
D35*
X-470000Y-132500D02*
D03*
X-470000Y-49500D02*
D03*
X-212000Y-38000D02*
D03*
X-212000Y-121000D02*
D03*
X-212000Y121000D02*
D03*
X-212000Y38000D02*
D03*
X-471000Y-293500D02*
D03*
X-471000Y-210500D02*
D03*
D36*
X-495000Y227500D02*
D03*
Y208000D02*
D03*
D37*
X-55000Y220000D02*
D03*
Y250000D02*
D03*
X-70000D02*
D03*
Y220000D02*
D03*
X-72500Y-215000D02*
D03*
Y-245000D02*
D03*
X-57500D02*
D03*
Y-215000D02*
D03*
D38*
X161000Y-190750D02*
D03*
Y-203250D02*
D03*
X70000Y-151250D02*
D03*
Y-163750D02*
D03*
Y-178750D02*
D03*
Y-191250D02*
D03*
X76000Y-218250D02*
D03*
Y-205750D02*
D03*
X49750Y-201224D02*
D03*
X49750Y-188724D02*
D03*
X-82500Y-161750D02*
D03*
Y-149250D02*
D03*
X-40000Y201250D02*
D03*
Y188750D02*
D03*
X-160000Y155850D02*
D03*
X-160000Y143350D02*
D03*
X180000Y52250D02*
D03*
Y39750D02*
D03*
X-514000Y293250D02*
D03*
Y280750D02*
D03*
X-476000Y187750D02*
D03*
Y200250D02*
D03*
X-581000Y189750D02*
D03*
Y202250D02*
D03*
D39*
X71750Y123000D02*
D03*
X84250D02*
D03*
X145750Y-130000D02*
D03*
X158250D02*
D03*
X53500Y-169974D02*
D03*
X41000D02*
D03*
X-78750Y-130500D02*
D03*
X-91250D02*
D03*
X-43750Y170000D02*
D03*
X-31250D02*
D03*
X-163750Y124600D02*
D03*
X-151250D02*
D03*
D40*
X140500Y42500D02*
D03*
X160000D02*
D03*
D41*
X-193000Y-168000D02*
D03*
D42*
Y168000D02*
D03*
D43*
X173500Y-184500D02*
D03*
Y-198500D02*
D03*
X179000Y180000D02*
D03*
Y194000D02*
D03*
X37250Y-201974D02*
D03*
X37250Y-187974D02*
D03*
X-95000Y-162500D02*
D03*
Y-148500D02*
D03*
X-27500Y202000D02*
D03*
Y188000D02*
D03*
X-147500Y156600D02*
D03*
X-147500Y142600D02*
D03*
X-85000Y235500D02*
D03*
Y249500D02*
D03*
X-87500Y-232500D02*
D03*
Y-246500D02*
D03*
X-40000Y238000D02*
D03*
Y252000D02*
D03*
X-72500Y-185500D02*
D03*
Y-199500D02*
D03*
X-55000Y190500D02*
D03*
Y204500D02*
D03*
X194000Y53000D02*
D03*
Y39000D02*
D03*
X207000Y53000D02*
D03*
Y39000D02*
D03*
D44*
X325000Y-325000D02*
D03*
X-625000Y625000D02*
D03*
X325000D02*
D03*
D45*
X5750Y-210374D02*
D03*
X19750D02*
D03*
X-126500Y-170900D02*
D03*
X-112500D02*
D03*
X4000Y210400D02*
D03*
X-10000D02*
D03*
X-130000Y165000D02*
D03*
X-116000Y165000D02*
D03*
X-43000Y-260000D02*
D03*
X-57000D02*
D03*
X54250Y-157474D02*
D03*
X40250D02*
D03*
X54250Y-84974D02*
D03*
X40250D02*
D03*
X164000Y-144000D02*
D03*
X150000D02*
D03*
X-78000Y-118000D02*
D03*
X-92000D02*
D03*
X-78000Y-45500D02*
D03*
X-92000D02*
D03*
X-44500Y85000D02*
D03*
X-30500D02*
D03*
X-44500Y157500D02*
D03*
X-30500D02*
D03*
X-164500Y39600D02*
D03*
X-150500D02*
D03*
X-164500Y112100D02*
D03*
X-150500D02*
D03*
D46*
X242500Y45000D02*
D03*
D47*
X194000Y-138011D02*
D03*
X206700D02*
D03*
X219400D02*
D03*
Y-34000D02*
D03*
X206700D02*
D03*
X194000D02*
D03*
X181300D02*
D03*
D48*
Y-138011D02*
D03*
M02*
