G04*
G04 #@! TF.GenerationSoftware,Altium Limited,Altium Designer,25.8.1 (18)*
G04*
G04 Layer_Color=8421504*
%FSLAX44Y44*%
%MOMM*%
G71*
G04*
G04 #@! TF.SameCoordinates,668C74B0-1D1B-4F50-AB7C-E7AA2C44617E*
G04*
G04*
G04 #@! TF.FilePolarity,Positive*
G04*
G01*
G75*
%ADD20R,2.6000X1.0000*%
%ADD21R,1.6000X1.5500*%
%ADD22R,0.8000X0.8500*%
%ADD23R,2.7000X0.9000*%
%ADD24R,2.7000X3.3000*%
G04:AMPARAMS|DCode=25|XSize=1.6539mm|YSize=0.5421mm|CornerRadius=0.2711mm|HoleSize=0mm|Usage=FLASHONLY|Rotation=0.000|XOffset=0mm|YOffset=0mm|HoleType=Round|Shape=RoundedRectangle|*
%AMROUNDEDRECTD25*
21,1,1.6539,0.0000,0,0,0.0*
21,1,1.1118,0.5421,0,0,0.0*
1,1,0.5421,0.5559,0.0000*
1,1,0.5421,-0.5559,0.0000*
1,1,0.5421,-0.5559,0.0000*
1,1,0.5421,0.5559,0.0000*
%
%ADD25ROUNDEDRECTD25*%
%ADD26R,1.6539X0.5421*%
%ADD27R,0.9000X0.8000*%
%ADD28R,0.8500X0.8000*%
%ADD29R,0.5421X1.6539*%
%ADD30R,0.8000X0.9000*%
G04:AMPARAMS|DCode=31|XSize=1.4542mm|YSize=0.8821mm|CornerRadius=0.4411mm|HoleSize=0mm|Usage=FLASHONLY|Rotation=0.000|XOffset=0mm|YOffset=0mm|HoleType=Round|Shape=RoundedRectangle|*
%AMROUNDEDRECTD31*
21,1,1.4542,0.0000,0,0,0.0*
21,1,0.5720,0.8821,0,0,0.0*
1,1,0.8821,0.2860,0.0000*
1,1,0.8821,-0.2860,0.0000*
1,1,0.8821,-0.2860,0.0000*
1,1,0.8821,0.2860,0.0000*
%
%ADD31ROUNDEDRECTD31*%
%ADD32R,1.1000X1.5000*%
%ADD33R,1.3000X0.3000*%
%ADD34C,0.0100*%
G04:AMPARAMS|DCode=35|XSize=1.6539mm|YSize=0.5421mm|CornerRadius=0.2711mm|HoleSize=0mm|Usage=FLASHONLY|Rotation=90.000|XOffset=0mm|YOffset=0mm|HoleType=Round|Shape=RoundedRectangle|*
%AMROUNDEDRECTD35*
21,1,1.6539,0.0000,0,0,90.0*
21,1,1.1118,0.5421,0,0,90.0*
1,1,0.5421,0.0000,0.5559*
1,1,0.5421,0.0000,-0.5559*
1,1,0.5421,0.0000,-0.5559*
1,1,0.5421,0.0000,0.5559*
%
%ADD35ROUNDEDRECTD35*%
%ADD36R,1.4000X1.0000*%
G04:AMPARAMS|DCode=37|XSize=3.45mm|YSize=1.85mm|CornerRadius=0mm|HoleSize=0mm|Usage=FLASHONLY|Rotation=135.000|XOffset=0mm|YOffset=0mm|HoleType=Round|Shape=Rectangle|*
%AMROTATEDRECTD37*
4,1,4,1.8738,-0.5657,0.5657,-1.8738,-1.8738,0.5657,-0.5657,1.8738,1.8738,-0.5657,0.0*
%
%ADD37ROTATEDRECTD37*%

G04:AMPARAMS|DCode=38|XSize=1.4542mm|YSize=3.1821mm|CornerRadius=0.4435mm|HoleSize=0mm|Usage=FLASHONLY|Rotation=0.000|XOffset=0mm|YOffset=0mm|HoleType=Round|Shape=RoundedRectangle|*
%AMROUNDEDRECTD38*
21,1,1.4542,2.2951,0,0,0.0*
21,1,0.5671,3.1821,0,0,0.0*
1,1,0.8870,0.2836,-1.1476*
1,1,0.8870,-0.2836,-1.1476*
1,1,0.8870,-0.2836,1.1476*
1,1,0.8870,0.2836,1.1476*
%
%ADD38ROUNDEDRECTD38*%
%ADD39R,0.3048X0.8128*%
%ADD40R,2.2000X1.8000*%
%ADD41R,3.4500X1.8500*%
%ADD42R,1.5500X1.6000*%
%ADD43R,1.2000X0.5000*%
%ADD44R,0.5000X1.2000*%
G04:AMPARAMS|DCode=45|XSize=3.45mm|YSize=1.85mm|CornerRadius=0mm|HoleSize=0mm|Usage=FLASHONLY|Rotation=45.000|XOffset=0mm|YOffset=0mm|HoleType=Round|Shape=Rectangle|*
%AMROTATEDRECTD45*
4,1,4,-0.5657,-1.8738,-1.8738,-0.5657,0.5657,1.8738,1.8738,0.5657,-0.5657,-1.8738,0.0*
%
%ADD45ROTATEDRECTD45*%

%ADD46R,1.4542X0.8821*%
%ADD47C,0.0160*%
%ADD48R,1.9000X0.6000*%
G36*
X43208Y212774D02*
X16792D01*
Y235628D01*
X43208D01*
Y212774D01*
D02*
G37*
G36*
Y174372D02*
X16792D01*
Y197226D01*
X43208D01*
Y174372D01*
D02*
G37*
G36*
X-76792Y167374D02*
X-103208D01*
Y190228D01*
X-76792D01*
Y167374D01*
D02*
G37*
G36*
Y128972D02*
X-103208D01*
Y151826D01*
X-76792D01*
Y128972D01*
D02*
G37*
G36*
X186750Y129000D02*
X191750Y124000D01*
X178000D01*
Y134000D01*
X191750D01*
X186750Y129000D01*
D02*
G37*
G36*
X204000Y124000D02*
X194750D01*
X189750Y129000D01*
X194750Y134000D01*
X204000Y134000D01*
Y124000D01*
D02*
G37*
G36*
X-139292Y-157726D02*
X-165708D01*
Y-134872D01*
X-139292D01*
Y-157726D01*
D02*
G37*
G36*
X195000Y-162000D02*
X181250D01*
X186250Y-157000D01*
X181250Y-152000D01*
X195000D01*
Y-162000D01*
D02*
G37*
G36*
X183250Y-157000D02*
X178250Y-162000D01*
X169000Y-162000D01*
Y-152000D01*
X178250D01*
X183250Y-157000D01*
D02*
G37*
G36*
X195000Y-178000D02*
X181250D01*
X186250Y-173000D01*
X181250Y-168000D01*
X195000D01*
Y-178000D01*
D02*
G37*
G36*
X183250Y-173000D02*
X178250Y-178000D01*
X169000Y-178000D01*
Y-168000D01*
X178250D01*
X183250Y-173000D01*
D02*
G37*
G36*
X-139292Y-196128D02*
X-165708D01*
Y-173274D01*
X-139292D01*
Y-196128D01*
D02*
G37*
G36*
X-7042Y-197200D02*
X-33458D01*
X-33458Y-174346D01*
X-7042D01*
X-7042Y-197200D01*
D02*
G37*
G36*
Y-235602D02*
X-33458Y-235602D01*
X-33458Y-212748D01*
X-7042D01*
Y-235602D01*
D02*
G37*
D20*
X182004Y-173000D02*
D03*
X181999Y-157000D02*
D03*
D21*
X-495000Y208000D02*
D03*
Y227500D02*
D03*
D22*
X-514000Y280750D02*
D03*
Y293250D02*
D03*
X-476000Y200250D02*
D03*
Y187750D02*
D03*
X-581000Y202250D02*
D03*
Y189750D02*
D03*
X180000Y39750D02*
D03*
Y52250D02*
D03*
X161000Y-203250D02*
D03*
X76000Y-205750D02*
D03*
X70000Y-191250D02*
D03*
X-82500Y-149250D02*
D03*
X49750Y-188724D02*
D03*
X161000Y-190750D02*
D03*
X76000Y-218250D02*
D03*
X70000Y-178750D02*
D03*
Y-163750D02*
D03*
X-40000Y188750D02*
D03*
X-160000Y143350D02*
D03*
X-82500Y-161750D02*
D03*
X-160000Y155850D02*
D03*
X-40000Y201250D02*
D03*
X49750Y-201224D02*
D03*
X70000Y-151250D02*
D03*
D23*
X-487500Y298000D02*
D03*
Y275000D02*
D03*
Y252000D02*
D03*
D24*
X-428500Y275000D02*
D03*
D25*
X-475995Y176050D02*
D03*
Y163350D02*
D03*
Y150650D02*
D03*
Y137950D02*
D03*
X-580005D02*
D03*
Y150650D02*
D03*
Y163350D02*
D03*
D26*
Y176050D02*
D03*
D27*
X207000Y39000D02*
D03*
Y53000D02*
D03*
X194000Y39000D02*
D03*
Y53000D02*
D03*
X173500Y-198500D02*
D03*
Y-184500D02*
D03*
X-95000Y-148500D02*
D03*
X37250Y-187974D02*
D03*
X179000Y194000D02*
D03*
X-27500Y188000D02*
D03*
X-147500Y142600D02*
D03*
X-55000Y204500D02*
D03*
Y190500D02*
D03*
X-40000Y252000D02*
D03*
Y238000D02*
D03*
X-85000Y249500D02*
D03*
Y235500D02*
D03*
X-72500Y-199500D02*
D03*
Y-185500D02*
D03*
X-87500Y-246500D02*
D03*
Y-232500D02*
D03*
X-95000Y-162500D02*
D03*
X37250Y-201974D02*
D03*
X-147500Y156600D02*
D03*
X-27500Y202000D02*
D03*
X179000Y180000D02*
D03*
D28*
X158250Y-130000D02*
D03*
X145750D02*
D03*
X-91250Y-130500D02*
D03*
X41000Y-169974D02*
D03*
X84250Y123000D02*
D03*
X71750D02*
D03*
X-31250Y170000D02*
D03*
X-151250Y124600D02*
D03*
X-163750D02*
D03*
X-43750Y170000D02*
D03*
X-78750Y-130500D02*
D03*
X53500Y-169974D02*
D03*
D29*
X181300Y-138011D02*
D03*
D30*
X150000Y-144000D02*
D03*
X164000D02*
D03*
X-92000Y-118000D02*
D03*
X40250Y-157474D02*
D03*
X-30500Y157500D02*
D03*
X-150500Y112100D02*
D03*
X-150500Y39600D02*
D03*
X-164500D02*
D03*
X-164500Y112100D02*
D03*
X-30500Y85000D02*
D03*
X-44500D02*
D03*
X-44500Y157500D02*
D03*
X-92000Y-45500D02*
D03*
X-78000D02*
D03*
X-78000Y-118000D02*
D03*
X40250Y-84974D02*
D03*
X54250D02*
D03*
X54250Y-157474D02*
D03*
X-57000Y-260000D02*
D03*
X-43000D02*
D03*
X-112500Y-170900D02*
D03*
X-126500D02*
D03*
X-10000Y210400D02*
D03*
X4000D02*
D03*
X19750Y-210374D02*
D03*
X5750D02*
D03*
X-116000Y165000D02*
D03*
X-130000Y165000D02*
D03*
D31*
X84250Y-195500D02*
D03*
Y-172500D02*
D03*
D32*
X-57500Y-215000D02*
D03*
X-70000Y220000D02*
D03*
Y250000D02*
D03*
X-55000D02*
D03*
Y220000D02*
D03*
X-57500Y-245000D02*
D03*
X-72500D02*
D03*
Y-215000D02*
D03*
D33*
X-179500Y-57000D02*
D03*
X-179500Y-102000D02*
D03*
X-179500Y-72000D02*
D03*
X-179500Y-92000D02*
D03*
X-179500Y-82000D02*
D03*
X-179500Y-62000D02*
D03*
X-502500Y-108500D02*
D03*
X-502500Y-98500D02*
D03*
X-502500Y-113500D02*
D03*
X-502500Y-103500D02*
D03*
X-502500Y-88500D02*
D03*
X-502500Y-83500D02*
D03*
X-502500Y-78500D02*
D03*
X-502500Y-93500D02*
D03*
X-502500Y-68500D02*
D03*
X-502500Y-73500D02*
D03*
X-503500Y-274500D02*
D03*
X-503500Y-269500D02*
D03*
X-503500Y-264500D02*
D03*
X-503500Y-249500D02*
D03*
X-503500Y-244500D02*
D03*
X-503500Y-239500D02*
D03*
X-503500Y-259500D02*
D03*
Y-254500D02*
D03*
X-503500Y-229500D02*
D03*
X-503500Y-234500D02*
D03*
X-179500Y102000D02*
D03*
X-179500Y97000D02*
D03*
X-179500Y92000D02*
D03*
X-179500Y77000D02*
D03*
X-179500Y72000D02*
D03*
X-179500Y67000D02*
D03*
X-179500Y87000D02*
D03*
Y82000D02*
D03*
X-179500Y57000D02*
D03*
X-179500Y62000D02*
D03*
X-179500Y-67000D02*
D03*
X-179500Y-87000D02*
D03*
X-179500Y-77000D02*
D03*
X-179500Y-97000D02*
D03*
D34*
X95200Y-237300D02*
D03*
X69800D02*
D03*
Y-250000D02*
D03*
X82500D02*
D03*
Y-237300D02*
D03*
X95200Y-250000D02*
D03*
X74800Y232500D02*
D03*
Y245200D02*
D03*
X87500Y232500D02*
D03*
Y245200D02*
D03*
X100200Y232500D02*
D03*
Y245200D02*
D03*
D35*
X181300Y-34000D02*
D03*
X194000D02*
D03*
X206700D02*
D03*
X219400D02*
D03*
Y-138011D02*
D03*
X206700D02*
D03*
X194000D02*
D03*
D36*
X-550000Y-225000D02*
D03*
Y-295000D02*
D03*
X-549000Y-64000D02*
D03*
Y-134000D02*
D03*
X-595000Y-225000D02*
D03*
Y-295000D02*
D03*
X-594000Y-64000D02*
D03*
Y-134000D02*
D03*
D37*
X-193000Y-168000D02*
D03*
D38*
X145750Y-172500D02*
D03*
D39*
X-142750Y-205526D02*
D03*
X-10500Y-245000D02*
D03*
X-80250Y119574D02*
D03*
X20250Y245026D02*
D03*
X-99750Y199626D02*
D03*
X-142750Y-160526D02*
D03*
X-149250D02*
D03*
X-155750D02*
D03*
X-162250D02*
D03*
Y-125474D02*
D03*
X-155750D02*
D03*
X-149250D02*
D03*
X-142750D02*
D03*
X-162250Y-170474D02*
D03*
X-155750D02*
D03*
X-149250D02*
D03*
X-142750D02*
D03*
X-149250Y-205526D02*
D03*
X-155750D02*
D03*
X-162250D02*
D03*
X-10500Y-164948D02*
D03*
X-17000D02*
D03*
X-23500D02*
D03*
X-30000D02*
D03*
X-30000Y-200000D02*
D03*
X-23500D02*
D03*
X-17000D02*
D03*
X-10500D02*
D03*
X-30000Y-245000D02*
D03*
X-23500D02*
D03*
X-17000D02*
D03*
X-10500Y-209948D02*
D03*
X-17000D02*
D03*
X-23500D02*
D03*
X-30000D02*
D03*
X-99750Y119574D02*
D03*
X-93250D02*
D03*
X-86750D02*
D03*
X-80250Y154626D02*
D03*
X-86750D02*
D03*
X-93250D02*
D03*
X-99750D02*
D03*
X-80250Y199626D02*
D03*
X-86750D02*
D03*
X-93250D02*
D03*
X-99750Y164574D02*
D03*
X-93250D02*
D03*
X-86750D02*
D03*
X-80250Y164574D02*
D03*
X20250Y164974D02*
D03*
X26750D02*
D03*
X33250D02*
D03*
X39750D02*
D03*
Y200026D02*
D03*
X33250D02*
D03*
X26750D02*
D03*
X20250D02*
D03*
X39750Y245026D02*
D03*
X33250D02*
D03*
X26750D02*
D03*
X20250Y209974D02*
D03*
X26750D02*
D03*
X33250D02*
D03*
X39750D02*
D03*
D40*
X-470000Y-49500D02*
D03*
X-470000Y-132500D02*
D03*
X-471000Y-210500D02*
D03*
X-471000Y-293500D02*
D03*
X-212000Y38000D02*
D03*
X-212000Y121000D02*
D03*
X-212000Y-121000D02*
D03*
X-212000Y-38000D02*
D03*
D41*
X242500Y45000D02*
D03*
D42*
X160000Y42500D02*
D03*
X140500D02*
D03*
D43*
X80000Y147500D02*
D03*
X165000Y155500D02*
D03*
Y147500D02*
D03*
Y195500D02*
D03*
X80000Y139500D02*
D03*
Y195500D02*
D03*
Y179500D02*
D03*
Y171500D02*
D03*
Y163500D02*
D03*
X165000Y139500D02*
D03*
Y163500D02*
D03*
Y171500D02*
D03*
Y179500D02*
D03*
Y187500D02*
D03*
X80000Y155500D02*
D03*
Y187500D02*
D03*
D44*
X102500Y210000D02*
D03*
X150500D02*
D03*
X118500D02*
D03*
X94500Y125000D02*
D03*
X142500D02*
D03*
X150500D02*
D03*
X142500Y210000D02*
D03*
X134500D02*
D03*
X126500D02*
D03*
X110500D02*
D03*
X94500D02*
D03*
X102500Y125000D02*
D03*
X110500D02*
D03*
X118500D02*
D03*
X126500D02*
D03*
X134500D02*
D03*
D45*
X-193000Y168000D02*
D03*
D46*
X84250Y-149500D02*
D03*
D47*
X-625000Y625000D02*
D03*
X325000D02*
D03*
Y-325000D02*
D03*
D48*
X110000Y-111000D02*
D03*
Y-130000D02*
D03*
X91000Y-120500D02*
D03*
M02*
