G04*
G04 #@! TF.GenerationSoftware,Altium Limited,Altium Designer,26.2.0 (7)*
G04*
G04 Layer_Color=128*
%FSLAX44Y44*%
%MOMM*%
G71*
G04*
G04 #@! TF.SameCoordinates,EBB4E75D-4282-4596-973B-B83497B218A8*
G04*
G04*
G04 #@! TF.FilePolarity,Positive*
G04*
G01*
G75*
%ADD21R,1.1000X1.4000*%
%ADD22R,0.8000X0.9000*%
%ADD23R,0.8500X0.8000*%
%ADD24R,0.9000X0.8000*%
%ADD25R,0.8000X0.8500*%
%ADD26R,1.9000X0.6000*%
%ADD32R,1.4542X0.8821*%
G04:AMPARAMS|DCode=33|XSize=1.4542mm|YSize=3.1821mm|CornerRadius=0.4435mm|HoleSize=0mm|Usage=FLASHONLY|Rotation=0.000|XOffset=0mm|YOffset=0mm|HoleType=Round|Shape=RoundedRectangle|*
%AMROUNDEDRECTD33*
21,1,1.4542,2.2951,0,0,0.0*
21,1,0.5671,3.1821,0,0,0.0*
1,1,0.8870,0.2836,-1.1476*
1,1,0.8870,-0.2836,-1.1476*
1,1,0.8870,-0.2836,1.1476*
1,1,0.8870,0.2836,1.1476*
%
%ADD33ROUNDEDRECTD33*%
G04:AMPARAMS|DCode=34|XSize=1.4542mm|YSize=0.8821mm|CornerRadius=0.4411mm|HoleSize=0mm|Usage=FLASHONLY|Rotation=0.000|XOffset=0mm|YOffset=0mm|HoleType=Round|Shape=RoundedRectangle|*
%AMROUNDEDRECTD34*
21,1,1.4542,0.0000,0,0,0.0*
21,1,0.5720,0.8821,0,0,0.0*
1,1,0.8821,0.2860,0.0000*
1,1,0.8821,-0.2860,0.0000*
1,1,0.8821,-0.2860,0.0000*
1,1,0.8821,0.2860,0.0000*
%
%ADD34ROUNDEDRECTD34*%
%ADD35R,1.2000X0.5000*%
%ADD36R,0.5000X1.2000*%
%ADD43R,1.5500X1.6000*%
G04:AMPARAMS|DCode=44|XSize=3.45mm|YSize=1.85mm|CornerRadius=0mm|HoleSize=0mm|Usage=FLASHONLY|Rotation=135.000|XOffset=0mm|YOffset=0mm|HoleType=Round|Shape=Rectangle|*
%AMROTATEDRECTD44*
4,1,4,1.8738,-0.5657,0.5657,-1.8738,-1.8738,0.5657,-0.5657,1.8738,1.8738,-0.5657,0.0*
%
%ADD44ROTATEDRECTD44*%

G04:AMPARAMS|DCode=45|XSize=3.45mm|YSize=1.85mm|CornerRadius=0mm|HoleSize=0mm|Usage=FLASHONLY|Rotation=45.000|XOffset=0mm|YOffset=0mm|HoleType=Round|Shape=Rectangle|*
%AMROTATEDRECTD45*
4,1,4,-0.5657,-1.8738,-1.8738,-0.5657,0.5657,1.8738,1.8738,0.5657,-0.5657,-1.8738,0.0*
%
%ADD45ROTATEDRECTD45*%

%ADD46C,0.0160*%
%ADD47R,3.4500X1.8500*%
G04:AMPARAMS|DCode=48|XSize=1.6539mm|YSize=0.5421mm|CornerRadius=0.2711mm|HoleSize=0mm|Usage=FLASHONLY|Rotation=90.000|XOffset=0mm|YOffset=0mm|HoleType=Round|Shape=RoundedRectangle|*
%AMROUNDEDRECTD48*
21,1,1.6539,0.0000,0,0,90.0*
21,1,1.1118,0.5421,0,0,90.0*
1,1,0.5421,0.0000,0.5559*
1,1,0.5421,0.0000,-0.5559*
1,1,0.5421,0.0000,-0.5559*
1,1,0.5421,0.0000,0.5559*
%
%ADD48ROUNDEDRECTD48*%
%ADD49R,0.5421X1.6539*%
%ADD99R,1.0000X1.4000*%
%ADD100R,1.4000X1.1000*%
%ADD101R,1.2000X1.1000*%
%ADD102R,0.9000X0.6000*%
%ADD105R,0.6000X0.9000*%
G36*
X178750Y-111000D02*
X183750Y-116000D01*
X170000D01*
Y-106000D01*
X183750D01*
X178750Y-111000D01*
D02*
G37*
G36*
X196000Y-116000D02*
X186750Y-116000D01*
X181750Y-111000D01*
X186750Y-106000D01*
X196000D01*
Y-116000D01*
D02*
G37*
D21*
X178500Y154000D02*
D03*
X163500D02*
D03*
D22*
X-10750Y-107474D02*
D03*
X-24750Y-107474D02*
D03*
X-471000Y167000D02*
D03*
X-457000D02*
D03*
X34500Y107500D02*
D03*
X20500D02*
D03*
X-157000Y-68000D02*
D03*
X-143000D02*
D03*
X-99500Y62100D02*
D03*
X-85500D02*
D03*
X138000Y-220000D02*
D03*
X124000D02*
D03*
X194000Y139000D02*
D03*
X180000D02*
D03*
X-471000Y147000D02*
D03*
X-457000D02*
D03*
D23*
X74750Y-116000D02*
D03*
X87250D02*
D03*
X138750Y20000D02*
D03*
X151250D02*
D03*
X138750Y-42500D02*
D03*
X151250D02*
D03*
X153750Y122000D02*
D03*
X166250D02*
D03*
X148250Y198000D02*
D03*
X135750D02*
D03*
X107750Y222000D02*
D03*
X120250D02*
D03*
D24*
X37000Y192400D02*
D03*
X-27250Y-178374D02*
D03*
X-27250Y-192374D02*
D03*
X42250Y-111974D02*
D03*
Y-97974D02*
D03*
X-235000Y-89500D02*
D03*
Y-75500D02*
D03*
X37000Y178400D02*
D03*
X-159500Y-138900D02*
D03*
Y-152900D02*
D03*
X-32500Y98000D02*
D03*
Y112000D02*
D03*
X-90000Y-58500D02*
D03*
Y-72500D02*
D03*
X-83000Y147000D02*
D03*
X-83000Y133000D02*
D03*
X-152500Y52600D02*
D03*
X-152500Y66600D02*
D03*
X-222000Y82000D02*
D03*
Y96000D02*
D03*
X140000Y210000D02*
D03*
Y224000D02*
D03*
X-594000Y182000D02*
D03*
Y196000D02*
D03*
D25*
X-471000Y129250D02*
D03*
Y116750D02*
D03*
X-59257Y-187007D02*
D03*
Y-199507D02*
D03*
X67500Y151250D02*
D03*
Y163750D02*
D03*
Y176250D02*
D03*
Y188750D02*
D03*
X47000Y238250D02*
D03*
Y225750D02*
D03*
X108000Y-227250D02*
D03*
Y-214750D02*
D03*
X57000Y-202750D02*
D03*
Y-215250D02*
D03*
X-70000Y219750D02*
D03*
Y232250D02*
D03*
D26*
X60000Y107000D02*
D03*
Y126000D02*
D03*
X79000Y116500D02*
D03*
D32*
X81000Y147000D02*
D03*
D33*
X142500Y170000D02*
D03*
D34*
X81000D02*
D03*
Y193000D02*
D03*
D35*
X87500Y-164000D02*
D03*
Y-180000D02*
D03*
Y-148000D02*
D03*
Y-140000D02*
D03*
Y-172000D02*
D03*
Y-188000D02*
D03*
Y-156000D02*
D03*
X172500Y-132000D02*
D03*
Y-140000D02*
D03*
Y-148000D02*
D03*
Y-156000D02*
D03*
Y-164000D02*
D03*
Y-172000D02*
D03*
Y-180000D02*
D03*
Y-188000D02*
D03*
X87500Y-132000D02*
D03*
D36*
X150000Y-202500D02*
D03*
X142000D02*
D03*
X134000D02*
D03*
X118000D02*
D03*
X110000D02*
D03*
X102000D02*
D03*
X110000Y-117500D02*
D03*
X118000D02*
D03*
X126000D02*
D03*
X134000D02*
D03*
X142000D02*
D03*
X150000D02*
D03*
X158000D02*
D03*
Y-202500D02*
D03*
X126000D02*
D03*
X102000Y-117500D02*
D03*
D43*
X152750Y-25000D02*
D03*
X172250D02*
D03*
D44*
X-193000Y-168000D02*
D03*
D45*
Y168000D02*
D03*
D46*
X325000Y625000D02*
D03*
X-625000D02*
D03*
X325000Y-325000D02*
D03*
D47*
X-440000Y80000D02*
D03*
X242500Y-35000D02*
D03*
X-620000Y80000D02*
D03*
D48*
X193650Y122005D02*
D03*
X206350D02*
D03*
X219050D02*
D03*
Y17995D02*
D03*
X206350D02*
D03*
X193650D02*
D03*
X180950D02*
D03*
D49*
Y122005D02*
D03*
D99*
X-5750Y-123974D02*
D03*
X-24750D02*
D03*
X-15250Y-145974D02*
D03*
X-104500Y78600D02*
D03*
X-85500Y78600D02*
D03*
X-95000Y100600D02*
D03*
X34500Y124000D02*
D03*
X25000Y146000D02*
D03*
X15500Y124000D02*
D03*
X-157000Y-84500D02*
D03*
X-147500Y-106500D02*
D03*
X-138000Y-84500D02*
D03*
D100*
X42250Y-144474D02*
D03*
Y-125474D02*
D03*
X-152500Y80100D02*
D03*
X-152500Y99100D02*
D03*
X-32500Y125500D02*
D03*
Y144500D02*
D03*
X-90000Y-86000D02*
D03*
Y-105000D02*
D03*
D101*
X-40000Y-245000D02*
D03*
X-58000D02*
D03*
D102*
X94000Y-215500D02*
D03*
Y-234500D02*
D03*
X70000D02*
D03*
X94000Y-225000D02*
D03*
X70000Y-215500D02*
D03*
D105*
X97000Y220500D02*
D03*
X78000Y244500D02*
D03*
Y220500D02*
D03*
X87500D02*
D03*
X97000Y244500D02*
D03*
M02*
