G04*
G04 #@! TF.GenerationSoftware,Altium Limited,Altium Designer,26.2.0 (7)*
G04*
G04 Layer_Physical_Order=6*
G04 Layer_Color=16711680*
%FSLAX44Y44*%
%MOMM*%
G71*
G04*
G04 #@! TF.SameCoordinates,EBB4E75D-4282-4596-973B-B83497B218A8*
G04*
G04*
G04 #@! TF.FilePolarity,Positive*
G04*
G01*
G75*
%ADD14C,0.2000*%
%ADD21R,1.1000X1.4000*%
%ADD22R,0.8000X0.9000*%
%ADD23R,0.8500X0.8000*%
%ADD24R,0.9000X0.8000*%
%ADD25R,0.8000X0.8500*%
%ADD26R,1.9000X0.6000*%
%ADD32R,1.4542X0.8821*%
G04:AMPARAMS|DCode=33|XSize=1.4542mm|YSize=3.1821mm|CornerRadius=0.4435mm|HoleSize=0mm|Usage=FLASHONLY|Rotation=0.000|XOffset=0mm|YOffset=0mm|HoleType=Round|Shape=RoundedRectangle|*
%AMROUNDEDRECTD33*
21,1,1.4542,2.2951,0,0,0.0*
21,1,0.5671,3.1821,0,0,0.0*
1,1,0.8870,0.2836,-1.1476*
1,1,0.8870,-0.2836,-1.1476*
1,1,0.8870,-0.2836,1.1476*
1,1,0.8870,0.2836,1.1476*
%
%ADD33ROUNDEDRECTD33*%
G04:AMPARAMS|DCode=34|XSize=1.4542mm|YSize=0.8821mm|CornerRadius=0.4411mm|HoleSize=0mm|Usage=FLASHONLY|Rotation=0.000|XOffset=0mm|YOffset=0mm|HoleType=Round|Shape=RoundedRectangle|*
%AMROUNDEDRECTD34*
21,1,1.4542,0.0000,0,0,0.0*
21,1,0.5720,0.8821,0,0,0.0*
1,1,0.8821,0.2860,0.0000*
1,1,0.8821,-0.2860,0.0000*
1,1,0.8821,-0.2860,0.0000*
1,1,0.8821,0.2860,0.0000*
%
%ADD34ROUNDEDRECTD34*%
%ADD35R,1.2000X0.5000*%
%ADD36R,0.5000X1.2000*%
%ADD43R,1.5500X1.6000*%
G04:AMPARAMS|DCode=44|XSize=3.45mm|YSize=1.85mm|CornerRadius=0mm|HoleSize=0mm|Usage=FLASHONLY|Rotation=135.000|XOffset=0mm|YOffset=0mm|HoleType=Round|Shape=Rectangle|*
%AMROTATEDRECTD44*
4,1,4,1.8738,-0.5657,0.5657,-1.8738,-1.8738,0.5657,-0.5657,1.8738,1.8738,-0.5657,0.0*
%
%ADD44ROTATEDRECTD44*%

G04:AMPARAMS|DCode=45|XSize=3.45mm|YSize=1.85mm|CornerRadius=0mm|HoleSize=0mm|Usage=FLASHONLY|Rotation=45.000|XOffset=0mm|YOffset=0mm|HoleType=Round|Shape=Rectangle|*
%AMROTATEDRECTD45*
4,1,4,-0.5657,-1.8738,-1.8738,-0.5657,0.5657,1.8738,1.8738,0.5657,-0.5657,-1.8738,0.0*
%
%ADD45ROTATEDRECTD45*%

%ADD47R,3.4500X1.8500*%
G04:AMPARAMS|DCode=48|XSize=1.6539mm|YSize=0.5421mm|CornerRadius=0.2711mm|HoleSize=0mm|Usage=FLASHONLY|Rotation=90.000|XOffset=0mm|YOffset=0mm|HoleType=Round|Shape=RoundedRectangle|*
%AMROUNDEDRECTD48*
21,1,1.6539,0.0000,0,0,90.0*
21,1,1.1118,0.5421,0,0,90.0*
1,1,0.5421,0.0000,0.5559*
1,1,0.5421,0.0000,-0.5559*
1,1,0.5421,0.0000,-0.5559*
1,1,0.5421,0.0000,0.5559*
%
%ADD48ROUNDEDRECTD48*%
%ADD49R,0.5421X1.6539*%
%ADD85C,1.0000*%
%ADD87R,0.5000X1.0000*%
%ADD90C,1.0160*%
%ADD91R,2.8448X2.8448*%
%ADD92C,2.8448*%
%ADD93C,2.4000*%
%ADD94C,1.6000*%
%ADD95C,0.9000*%
%ADD96C,1.5000*%
%ADD97C,0.5000*%
%ADD98C,0.8000*%
%ADD99R,1.0000X1.4000*%
%ADD100R,1.4000X1.1000*%
%ADD101R,1.2000X1.1000*%
%ADD102R,0.9000X0.6000*%
%AMCUSTOMSHAPE103*
4,1,5,-0.6875,-0.5000,0.6875,-0.5000,0.1875,0.0000,0.6875,0.5000,-0.6875,0.5000,-0.6875,-0.5000,0.0*%
%ADD103CUSTOMSHAPE103*%

%AMCUSTOMSHAPE104*
4,1,5,0.7125,0.5000,-0.2125,0.5000,-0.7125,0.0000,-0.2125,-0.5000,0.7125,-0.5000,0.7125,0.5000,0.0*%
%ADD104CUSTOMSHAPE104*%

%ADD105R,0.6000X0.9000*%
G36*
X-503087Y314601D02*
X-501399Y312913D01*
X-499193Y312000D01*
X-496806D01*
X-494601Y312913D01*
X-492913Y314601D01*
X-492790Y314898D01*
X-415102D01*
Y217210D01*
X-415399Y217087D01*
X-417086Y215399D01*
X-418000Y213193D01*
Y210807D01*
X-417086Y208601D01*
X-415399Y206914D01*
X-414853Y206687D01*
Y205313D01*
X-415399Y205087D01*
X-417086Y203399D01*
X-418000Y201194D01*
Y198806D01*
X-417086Y196601D01*
X-415399Y194914D01*
X-414853Y194687D01*
Y193313D01*
X-415399Y193087D01*
X-417086Y191399D01*
X-418000Y189193D01*
Y186807D01*
X-417086Y184601D01*
X-415399Y182913D01*
X-415102Y182790D01*
Y169476D01*
X-416372Y169309D01*
X-416477Y169702D01*
X-417399Y171298D01*
X-418702Y172601D01*
X-420298Y173523D01*
X-422078Y174000D01*
X-423922D01*
X-425702Y173523D01*
X-427298Y172601D01*
X-428601Y171298D01*
X-429317Y170059D01*
X-432467D01*
X-432682Y170860D01*
X-433998Y173140D01*
X-435860Y175002D01*
X-438140Y176318D01*
X-438230Y176343D01*
Y177657D01*
X-438140Y177682D01*
X-435860Y178998D01*
X-433998Y180860D01*
X-432682Y183140D01*
X-432000Y185683D01*
Y188316D01*
X-432682Y190860D01*
X-433998Y193140D01*
X-435860Y195002D01*
X-438140Y196318D01*
X-438230Y196343D01*
Y197657D01*
X-438140Y197682D01*
X-435860Y198998D01*
X-433998Y200860D01*
X-432682Y203140D01*
X-432000Y205683D01*
Y208316D01*
X-432682Y210860D01*
X-433998Y213140D01*
X-435860Y215002D01*
X-438140Y216318D01*
X-440684Y217000D01*
X-443316D01*
X-445860Y216318D01*
X-448140Y215002D01*
X-450002Y213140D01*
X-451319Y210860D01*
X-452000Y208316D01*
Y205683D01*
X-451319Y203140D01*
X-450002Y200860D01*
X-448140Y198998D01*
X-445860Y197682D01*
X-445770Y197657D01*
Y196343D01*
X-445860Y196318D01*
X-448140Y195002D01*
X-450002Y193140D01*
X-451319Y190860D01*
X-452000Y188316D01*
Y185683D01*
X-451319Y183140D01*
X-450002Y180860D01*
X-448140Y178998D01*
X-445860Y177682D01*
X-445770Y177657D01*
Y176343D01*
X-445860Y176318D01*
X-448140Y175002D01*
X-449730Y173412D01*
X-451000Y173500D01*
X-451000Y173500D01*
X-451000Y173500D01*
X-463000D01*
Y160500D01*
X-451000D01*
X-451000Y160500D01*
Y160500D01*
X-449730Y160588D01*
X-448140Y158998D01*
X-445860Y157682D01*
X-445770Y157657D01*
Y156343D01*
X-445860Y156319D01*
X-448140Y155002D01*
X-449730Y153412D01*
X-451000Y153500D01*
X-451000Y153500D01*
X-451000Y153500D01*
X-463000D01*
Y140500D01*
X-451000D01*
X-451000Y140500D01*
Y140500D01*
X-449730Y140588D01*
X-448140Y138998D01*
X-446439Y138016D01*
X-446371Y137797D01*
X-446486Y136580D01*
X-448472Y135434D01*
X-450434Y133472D01*
X-451822Y131068D01*
X-452540Y128388D01*
Y128270D01*
X-442000D01*
X-431460D01*
Y128388D01*
X-432178Y131068D01*
X-433566Y133472D01*
X-435528Y135434D01*
X-437514Y136580D01*
X-437629Y137797D01*
X-437561Y138016D01*
X-435860Y138998D01*
X-433998Y140860D01*
X-432682Y143140D01*
X-432467Y143941D01*
X-429317D01*
X-428601Y142702D01*
X-427298Y141399D01*
X-425702Y140477D01*
X-423922Y140000D01*
X-422078D01*
X-420298Y140477D01*
X-418702Y141399D01*
X-417399Y142702D01*
X-416477Y144298D01*
X-416372Y144691D01*
X-415102Y144524D01*
Y65102D01*
X-509879D01*
Y241000D01*
X-510362Y245901D01*
X-511791Y250613D01*
X-514113Y254956D01*
X-517237Y258763D01*
X-521044Y261887D01*
X-525387Y264209D01*
X-530099Y265638D01*
X-535000Y266121D01*
X-646941D01*
Y314898D01*
X-557500D01*
Y313013D01*
X-556989Y311105D01*
X-556002Y309395D01*
X-554605Y307999D01*
X-552895Y307011D01*
X-550987Y306500D01*
X-549013D01*
X-547105Y307011D01*
X-545395Y307999D01*
X-543998Y309395D01*
X-543011Y311105D01*
X-542500Y313013D01*
Y314898D01*
X-527210D01*
X-527087Y314601D01*
X-525399Y312913D01*
X-523194Y312000D01*
X-520807D01*
X-518601Y312913D01*
X-516913Y314601D01*
X-516687Y315147D01*
X-515313D01*
X-515087Y314601D01*
X-513399Y312913D01*
X-511194Y312000D01*
X-508806D01*
X-506601Y312913D01*
X-504913Y314601D01*
X-504687Y315147D01*
X-503313D01*
X-503087Y314601D01*
D02*
G37*
G36*
X22689Y268985D02*
X37735Y267290D01*
X52663Y264753D01*
X67425Y261384D01*
X81974Y257192D01*
X96041Y252270D01*
X95826Y251000D01*
X92000D01*
Y238000D01*
X102000D01*
Y241149D01*
X102871Y241510D01*
X104137Y242776D01*
X104822Y244430D01*
Y246220D01*
X104295Y247491D01*
X105164Y248506D01*
X109859Y246561D01*
X109993Y246097D01*
X109990Y245510D01*
X109887Y245165D01*
X108617Y244431D01*
X107319Y243133D01*
X106400Y241542D01*
X105925Y239768D01*
Y237932D01*
X106400Y236158D01*
X107319Y234567D01*
X108057Y233829D01*
X107531Y232559D01*
X102050D01*
X100880Y232326D01*
X99888Y231663D01*
X99888Y231663D01*
X96337Y228113D01*
X95674Y227120D01*
X95650Y227000D01*
X93040D01*
Y227540D01*
X88770D01*
Y220500D01*
Y213460D01*
X93040D01*
Y214000D01*
X102000D01*
Y215460D01*
X106480D01*
Y222000D01*
X109020D01*
Y215460D01*
X114540D01*
Y216000D01*
X117191D01*
Y210408D01*
X117105D01*
X115451Y209723D01*
X114500Y208773D01*
X113549Y209723D01*
X111895Y210408D01*
X110105D01*
X108451Y209723D01*
X107185Y208458D01*
X106500Y206804D01*
Y205014D01*
X107185Y203360D01*
X108451Y202094D01*
X110105Y201409D01*
X111895D01*
X113549Y202094D01*
X113671Y202216D01*
X114941Y201690D01*
Y193862D01*
X112201Y191121D01*
X110703Y191419D01*
X110382Y192195D01*
X109116Y193461D01*
X107462Y194146D01*
X105672D01*
X104018Y193461D01*
X102752Y192195D01*
X102067Y190541D01*
Y190032D01*
X100797Y189018D01*
X100589Y189059D01*
X100589Y189059D01*
X96486D01*
X96233Y190329D01*
X96932Y190618D01*
X98198Y191884D01*
X98883Y193538D01*
Y195328D01*
X98198Y196982D01*
X96932Y198248D01*
X95278Y198933D01*
X94635D01*
X94561Y199044D01*
Y200834D01*
X93876Y202488D01*
X92610Y203754D01*
X90956Y204439D01*
X89166D01*
X87512Y203754D01*
X86246Y202488D01*
X85561Y200834D01*
Y200199D01*
X84579Y199393D01*
X83860Y199536D01*
X78140D01*
X75639Y199039D01*
X73518Y197622D01*
X72101Y195501D01*
X72013Y195059D01*
X70500D01*
X70205Y195000D01*
X61500D01*
Y183040D01*
X60960D01*
Y177520D01*
X67500D01*
Y174980D01*
X60960D01*
Y169460D01*
Y165020D01*
X67500D01*
Y162480D01*
X60960D01*
Y156960D01*
X61500D01*
Y153259D01*
X60444Y152554D01*
X59895Y152781D01*
X58105D01*
X56451Y152096D01*
X55770Y151415D01*
X54500Y151941D01*
Y152895D01*
X53815Y154549D01*
X52549Y155815D01*
X50895Y156500D01*
X49105D01*
X47451Y155815D01*
X46185Y154549D01*
X45500Y152895D01*
Y151105D01*
X46185Y149451D01*
X47451Y148185D01*
X49105Y147500D01*
X50895D01*
X52549Y148185D01*
X53230Y148866D01*
X54500Y148340D01*
Y147386D01*
X55185Y145732D01*
X56451Y144466D01*
X58105Y143781D01*
X59895D01*
X61549Y144466D01*
X62083Y145000D01*
X69174D01*
X69337Y144837D01*
X69337Y144837D01*
X70329Y144174D01*
X71500Y143941D01*
X71729Y142699D01*
Y140589D01*
X75941D01*
Y121500D01*
X71500D01*
Y131000D01*
X48500D01*
Y126895D01*
X48500Y126895D01*
Y125105D01*
X48500Y125105D01*
Y121000D01*
X67500D01*
Y112000D01*
X48500D01*
Y102000D01*
X71500D01*
Y111500D01*
X90500D01*
Y121500D01*
X82059D01*
Y140589D01*
X89929D01*
X90438Y139889D01*
X90656Y139479D01*
X90000Y137895D01*
Y136105D01*
X90685Y134451D01*
X91951Y133185D01*
X93605Y132500D01*
X95395D01*
X97049Y133185D01*
X97805Y133941D01*
X104267D01*
X104267Y133941D01*
X104307Y133949D01*
X105481Y134078D01*
X105939Y133077D01*
X106208Y132429D01*
X107473Y131163D01*
X109127Y130478D01*
X110918D01*
X112571Y131163D01*
X112951Y131543D01*
X113977Y132176D01*
X115243Y130910D01*
X116897Y130225D01*
X118687D01*
X120341Y130910D01*
X120717Y131287D01*
X122185Y131062D01*
X122367Y130880D01*
Y126809D01*
X121298Y126523D01*
X119702Y125601D01*
X118399Y124298D01*
X117477Y122702D01*
X117000Y120922D01*
Y119078D01*
X117477Y117298D01*
X118399Y115702D01*
X119702Y114399D01*
X121298Y113477D01*
X123078Y113000D01*
X124922D01*
X126702Y113477D01*
X128298Y114399D01*
X129601Y115702D01*
X130523Y117298D01*
X131000Y119078D01*
Y120922D01*
X130523Y122702D01*
X129601Y124298D01*
X128485Y125415D01*
Y129769D01*
X128549Y129796D01*
X129815Y131062D01*
X130500Y132716D01*
Y134506D01*
X130791Y134941D01*
X161733D01*
X163191Y133483D01*
Y128000D01*
X160540D01*
Y128540D01*
X155020D01*
Y122000D01*
Y115460D01*
X160540D01*
Y116000D01*
X172500D01*
Y118941D01*
X176239D01*
Y111736D01*
X185661D01*
Y132275D01*
X186000Y132500D01*
X186000D01*
Y145500D01*
X186000D01*
Y163000D01*
X171540D01*
Y163540D01*
X164770D01*
Y154000D01*
Y144460D01*
X171540D01*
Y145000D01*
X174000D01*
Y132500D01*
X175063D01*
X176239Y132275D01*
Y125059D01*
X172500D01*
Y128000D01*
X169309D01*
Y134750D01*
X169076Y135920D01*
X168413Y136913D01*
X168413Y136913D01*
X165163Y140163D01*
X164170Y140826D01*
X163000Y141059D01*
X163000Y141059D01*
X130656D01*
X130441Y141274D01*
X129449Y141937D01*
X129161Y141994D01*
X128362Y143383D01*
X128500Y143716D01*
Y145506D01*
X127815Y147160D01*
X126549Y148426D01*
X124895Y149111D01*
X123105D01*
X121451Y148426D01*
X120783Y149419D01*
X120815Y149451D01*
X121500Y151105D01*
Y152895D01*
X120815Y154549D01*
X119549Y155815D01*
X117895Y156500D01*
X116105D01*
X114451Y155815D01*
X113185Y154549D01*
X112500Y152895D01*
Y151105D01*
X113185Y149451D01*
X114451Y148185D01*
X116105Y147500D01*
X117895D01*
X119549Y148185D01*
X120217Y147192D01*
X120185Y147160D01*
X119500Y145506D01*
Y143716D01*
X119380Y143536D01*
X107744D01*
X107744Y143536D01*
X107244Y143947D01*
Y144151D01*
X106559Y145805D01*
X105293Y147071D01*
X103639Y147756D01*
X102600D01*
X102554Y147795D01*
X101975Y149026D01*
X102326Y149551D01*
X102559Y150722D01*
X102559Y150722D01*
Y165985D01*
X102559Y165985D01*
X102326Y167156D01*
X101663Y168148D01*
X95484Y174327D01*
X96045Y175562D01*
X97549Y176185D01*
X98815Y177451D01*
X99500Y179105D01*
Y180895D01*
X99429Y181066D01*
X99870Y181542D01*
X100479Y181851D01*
X101272Y181320D01*
X102443Y181088D01*
X109552D01*
X109552Y181088D01*
X110723Y181320D01*
X111715Y181984D01*
X120163Y190432D01*
X120826Y191424D01*
X121059Y192595D01*
X121059Y192595D01*
Y194545D01*
X121541Y194941D01*
X121541Y194941D01*
X129500D01*
Y192000D01*
X130756D01*
X131462Y190944D01*
X131235Y190395D01*
Y188605D01*
X131919Y186951D01*
X133185Y185685D01*
X133274Y184274D01*
X132869Y183296D01*
X132629Y181476D01*
Y171270D01*
X142500D01*
Y170000D01*
X143770D01*
Y151489D01*
X145336D01*
X147156Y151729D01*
X148853Y152432D01*
X150310Y153550D01*
X151428Y155007D01*
X152131Y156704D01*
X152371Y158525D01*
Y169252D01*
X153641Y169960D01*
X154751Y169500D01*
X156541D01*
X158195Y170185D01*
X158792Y170782D01*
X159399Y170702D01*
X160702Y169399D01*
X162298Y168477D01*
X164078Y168000D01*
X165922D01*
X167702Y168477D01*
X169298Y169399D01*
X170601Y170702D01*
X171523Y172298D01*
X172000Y174078D01*
Y175922D01*
X171523Y177702D01*
X170601Y179298D01*
X169298Y180601D01*
X167702Y181523D01*
X166509Y181843D01*
Y183157D01*
X167702Y183477D01*
X169298Y184399D01*
X170601Y185702D01*
X170714Y185897D01*
X170811Y185905D01*
X172018Y185615D01*
X172174Y184830D01*
X172837Y183837D01*
X190591Y166083D01*
Y145500D01*
X188000D01*
Y132500D01*
X190591D01*
Y131186D01*
X190254Y130960D01*
X189213Y129402D01*
X188847Y127564D01*
Y116446D01*
X189213Y114608D01*
X190254Y113050D01*
X191812Y112009D01*
X193650Y111643D01*
X195488Y112009D01*
X197046Y113050D01*
X198087Y114608D01*
X198453Y116446D01*
Y127564D01*
X198087Y129402D01*
X197046Y130960D01*
X196709Y131186D01*
Y132500D01*
X200000D01*
Y145500D01*
X196709D01*
Y167350D01*
X196476Y168521D01*
X195813Y169513D01*
X191023Y174302D01*
X191271Y175548D01*
X191761Y175751D01*
X192239Y176229D01*
X193445D01*
X202941Y166733D01*
Y130941D01*
X201913Y129402D01*
X201547Y127564D01*
Y116446D01*
X201913Y114608D01*
X202954Y113050D01*
X204512Y112009D01*
X206350Y111643D01*
X208188Y112009D01*
X209746Y113050D01*
X210787Y114608D01*
X211153Y116446D01*
Y127564D01*
X210787Y129402D01*
X209746Y130960D01*
X209059Y131420D01*
Y167660D01*
X209903Y168148D01*
X210298Y168217D01*
X210601Y167913D01*
X211771Y167429D01*
X211809Y167354D01*
X212599Y166345D01*
X217117Y160401D01*
X225672Y148121D01*
X233516Y135417D01*
X240646Y122299D01*
X243493Y116293D01*
X243493Y116253D01*
X243271Y115665D01*
X242726Y114945D01*
X241087Y114619D01*
X240623Y114427D01*
X240131Y114329D01*
X238311Y113575D01*
X237893Y113296D01*
X237429Y113104D01*
X235791Y112009D01*
X235436Y111654D01*
X235018Y111375D01*
X233764Y110121D01*
X220674D01*
X220549Y111391D01*
X221099Y111500D01*
X222836Y112661D01*
X223996Y114398D01*
X224403Y116446D01*
Y120735D01*
X219050D01*
X213696D01*
Y116446D01*
X214104Y114398D01*
X215264Y112661D01*
X217001Y111500D01*
X217551Y111391D01*
X217426Y110121D01*
X105000D01*
X100099Y109638D01*
X95387Y108209D01*
X91044Y105887D01*
X87237Y102763D01*
X84113Y98956D01*
X81791Y94613D01*
X80362Y89901D01*
X79879Y85000D01*
Y25121D01*
X73415D01*
X73266Y25637D01*
X69935Y33679D01*
X65725Y41297D01*
X60687Y48397D01*
X54887Y54887D01*
X48397Y60687D01*
X41297Y65725D01*
X33679Y69935D01*
X25637Y73266D01*
X17273Y75676D01*
X8691Y77134D01*
X0Y77622D01*
X-8691Y77134D01*
X-17273Y75676D01*
X-25637Y73266D01*
X-33679Y69935D01*
X-41297Y65725D01*
X-48397Y60687D01*
X-54887Y54887D01*
X-60687Y48397D01*
X-65725Y41297D01*
X-69935Y33679D01*
X-73266Y25637D01*
X-73415Y25121D01*
X-228764Y25121D01*
X-230018Y26375D01*
X-230436Y26654D01*
X-230791Y27009D01*
X-232429Y28104D01*
X-232893Y28296D01*
X-233311Y28575D01*
X-235131Y29329D01*
X-235624Y29427D01*
X-236087Y29619D01*
X-238020Y30004D01*
X-238522D01*
X-239015Y30102D01*
X-267201D01*
X-268048Y31048D01*
X-267364Y37203D01*
X-264899Y51926D01*
X-261623Y66489D01*
X-257548Y80849D01*
X-252686Y94962D01*
X-247050Y108784D01*
X-240659Y122274D01*
X-233532Y135390D01*
X-225691Y148092D01*
X-217140Y160369D01*
X-216262Y161525D01*
X-214600Y161613D01*
X-207892Y154904D01*
X-193898Y168898D01*
X-179904Y182892D01*
X-187343Y190330D01*
X-197735Y179939D01*
X-198811Y180658D01*
X-198750Y180807D01*
Y183193D01*
X-199616Y185284D01*
X-199621Y185488D01*
X-199086Y186618D01*
X-198920Y186628D01*
X-198227Y186814D01*
X-198034Y186734D01*
X-195647D01*
X-193442Y187647D01*
X-191754Y189335D01*
X-191283Y190473D01*
X-190904Y190852D01*
X-185474Y196131D01*
X-174158Y206244D01*
X-162320Y215685D01*
X-149971Y224447D01*
X-137150Y232503D01*
X-123898Y239827D01*
X-110255Y246397D01*
X-96266Y252191D01*
X-81975Y257192D01*
X-67425Y261384D01*
X-52663Y264753D01*
X-37735Y267290D01*
X-22689Y268985D01*
X-7571Y269834D01*
X7571D01*
X22689Y268985D01*
D02*
G37*
G36*
X149971Y224447D02*
X162320Y215685D01*
X174158Y206244D01*
X185475Y196131D01*
X190903Y190853D01*
X191283Y190473D01*
X191754Y189335D01*
X193442Y187647D01*
X195647Y186734D01*
X198034D01*
X198239Y186819D01*
X199113Y186645D01*
X199569Y185613D01*
X199603Y185252D01*
X198750Y183193D01*
Y181372D01*
X197480Y180846D01*
X196875Y181451D01*
X195883Y182114D01*
X194712Y182347D01*
X194712Y182347D01*
X192796D01*
X191761Y183381D01*
X190107Y184066D01*
X188317D01*
X186663Y183381D01*
X185397Y182115D01*
X185194Y181625D01*
X183949Y181377D01*
X178059Y187267D01*
Y197000D01*
X177826Y198171D01*
X177163Y199163D01*
X177163Y199163D01*
X171663Y204663D01*
X170671Y205326D01*
X169500Y205559D01*
X169500Y205559D01*
X166977D01*
X166221Y206315D01*
X164567Y207000D01*
X162777D01*
X161123Y206315D01*
X159857Y205049D01*
X159172Y203395D01*
Y201605D01*
X159348Y201179D01*
X158376Y200207D01*
X158309Y200235D01*
Y195306D01*
X155769D01*
Y200525D01*
X155040Y201012D01*
Y204540D01*
X149520D01*
Y198000D01*
X146980D01*
Y204540D01*
X146500D01*
Y216000D01*
X133500D01*
Y208283D01*
X132924Y207421D01*
X132691Y206250D01*
X132691Y206250D01*
Y204000D01*
X129500D01*
Y201059D01*
X122808D01*
X121749Y202118D01*
X122116Y203547D01*
X122413Y203746D01*
X123076Y204738D01*
X123309Y205909D01*
Y216000D01*
X126500D01*
Y219022D01*
X127556Y219727D01*
X128105Y219500D01*
X129895D01*
X131549Y220185D01*
X132230Y220866D01*
X133500Y220760D01*
Y218000D01*
X146500D01*
Y225315D01*
X147612Y225929D01*
X149971Y224447D01*
D02*
G37*
G36*
X-560121Y65102D02*
X-646941D01*
Y194675D01*
X-645768Y195161D01*
X-645605Y194998D01*
X-643895Y194011D01*
X-641987Y193500D01*
X-640013D01*
X-638105Y194011D01*
X-636395Y194998D01*
X-634999Y196395D01*
X-634011Y198105D01*
X-633500Y200013D01*
Y201987D01*
X-634011Y203895D01*
X-634999Y205605D01*
X-636395Y207001D01*
X-638105Y207989D01*
X-640013Y208500D01*
X-641987D01*
X-643895Y207989D01*
X-645605Y207001D01*
X-645768Y206838D01*
X-646941Y207325D01*
Y215879D01*
X-560121D01*
Y65102D01*
D02*
G37*
G36*
X82270Y162989D02*
X83860D01*
X85675Y163228D01*
X87230Y163873D01*
X88219Y163507D01*
X88500Y163369D01*
Y163105D01*
X89185Y161451D01*
X90451Y160185D01*
X92105Y159500D01*
X93895D01*
X95171Y160029D01*
X96441Y159418D01*
Y158003D01*
X95385Y157297D01*
X94895Y157500D01*
X93105D01*
X91451Y156815D01*
X90185Y155549D01*
X89500Y153895D01*
Y153411D01*
X73500D01*
Y156960D01*
X74040D01*
Y162864D01*
X75310Y163649D01*
X76325Y163228D01*
X78140Y162989D01*
X79730D01*
Y170000D01*
X82270D01*
Y162989D01*
D02*
G37*
G36*
X-540087Y34601D02*
X-538399Y32913D01*
X-536194Y32000D01*
X-533806D01*
X-531601Y32913D01*
X-529913Y34601D01*
X-529687Y35147D01*
X-528313D01*
X-528087Y34601D01*
X-526399Y32913D01*
X-524193Y32000D01*
X-521806D01*
X-519601Y32913D01*
X-517913Y34601D01*
X-517790Y34898D01*
X-425102D01*
Y-128790D01*
X-425399Y-128913D01*
X-427086Y-130601D01*
X-428000Y-132807D01*
Y-135194D01*
X-427086Y-137399D01*
X-425399Y-139087D01*
X-424853Y-139313D01*
Y-140687D01*
X-425399Y-140913D01*
X-427086Y-142601D01*
X-428000Y-144806D01*
Y-145000D01*
X-646941D01*
Y34898D01*
X-552210D01*
X-552087Y34601D01*
X-550399Y32913D01*
X-548194Y32000D01*
X-545807D01*
X-543601Y32913D01*
X-541913Y34601D01*
X-541687Y35147D01*
X-540313D01*
X-540087Y34601D01*
D02*
G37*
G36*
X346941Y10000D02*
X300052D01*
X299235Y24745D01*
X299200Y24883D01*
X299212Y25026D01*
X297409Y41252D01*
X297366Y41388D01*
X297370Y41531D01*
X294674Y57632D01*
X294623Y57766D01*
X294619Y57909D01*
X291138Y73384D01*
X292209Y75387D01*
X293638Y80099D01*
X294121Y85000D01*
X293638Y89901D01*
X292209Y94613D01*
X289887Y98956D01*
X286763Y102763D01*
X282957Y105887D01*
X280864Y107006D01*
X280796Y107107D01*
X280604Y107571D01*
X279762Y108830D01*
X274841Y120898D01*
X274762Y121018D01*
X274727Y121156D01*
X267736Y135909D01*
X267651Y136024D01*
X267609Y136160D01*
X259813Y150504D01*
X259721Y150614D01*
X259671Y150748D01*
X251094Y164638D01*
X250997Y164743D01*
X250939Y164874D01*
X241607Y178269D01*
X241504Y178368D01*
X241440Y178496D01*
X236411Y184925D01*
X236411Y184925D01*
X235599Y185963D01*
X235094Y186398D01*
X234649Y186895D01*
X232545Y188479D01*
X231944Y188768D01*
X231386Y189134D01*
X228943Y190119D01*
X228288Y190243D01*
X227655Y190452D01*
X225040Y190771D01*
X224375Y190721D01*
X223709Y190759D01*
X221101Y190391D01*
X220471Y190170D01*
X219819Y190034D01*
X217395Y189004D01*
X216844Y188628D01*
X216248Y188327D01*
X214174Y186705D01*
X213327Y186673D01*
X211246Y188754D01*
X211308Y190023D01*
X212284Y190824D01*
X212759Y191403D01*
X213289Y191933D01*
X214937Y194400D01*
X215224Y195092D01*
X215577Y195753D01*
X216439Y198593D01*
X216512Y199338D01*
X216658Y200072D01*
Y202542D01*
X216560Y203034D01*
Y203536D01*
X216176Y205469D01*
X215984Y205933D01*
X215886Y206425D01*
X215132Y208246D01*
X214853Y208663D01*
X214660Y209127D01*
X213566Y210766D01*
X213211Y211121D01*
X212932Y211538D01*
X212235Y212235D01*
X206381Y218089D01*
X206261Y218169D01*
X206174Y218285D01*
X193828Y229317D01*
X193703Y229391D01*
X193610Y229502D01*
X180666Y239825D01*
X180537Y239891D01*
X180437Y239997D01*
X166934Y249577D01*
X166802Y249637D01*
X166696Y249736D01*
X152678Y258545D01*
X152542Y258597D01*
X152431Y258690D01*
X137941Y266699D01*
X137803Y266743D01*
X137687Y266830D01*
X122770Y274014D01*
X122629Y274050D01*
X122509Y274130D01*
X107213Y280466D01*
X107070Y280495D01*
X106945Y280568D01*
X91318Y286037D01*
X91174Y286057D01*
X91046Y286123D01*
X75136Y290707D01*
X74992Y290719D01*
X74859Y290778D01*
X58718Y294462D01*
X58573Y294466D01*
X58438Y294518D01*
X42115Y297292D01*
X41970Y297287D01*
X41832Y297332D01*
X25380Y299185D01*
X25235Y299173D01*
X25094Y299209D01*
X8564Y300138D01*
X8421Y300117D01*
X8278Y300146D01*
X-8278D01*
X-8421Y300117D01*
X-8564Y300138D01*
X-25094Y299209D01*
X-25235Y299173D01*
X-25380Y299185D01*
X-41832Y297332D01*
X-41970Y297287D01*
X-42115Y297292D01*
X-58438Y294518D01*
X-58573Y294466D01*
X-58718Y294462D01*
X-74859Y290778D01*
X-74992Y290719D01*
X-75136Y290707D01*
X-91046Y286123D01*
X-91174Y286057D01*
X-91318Y286037D01*
X-106945Y280568D01*
X-107070Y280495D01*
X-107213Y280466D01*
X-122509Y274130D01*
X-122629Y274050D01*
X-122770Y274014D01*
X-137687Y266830D01*
X-137803Y266743D01*
X-137941Y266699D01*
X-152431Y258690D01*
X-152542Y258597D01*
X-152678Y258545D01*
X-166696Y249736D01*
X-166802Y249637D01*
X-166934Y249577D01*
X-180437Y239997D01*
X-180537Y239891D01*
X-180666Y239825D01*
X-193610Y229502D01*
X-193703Y229391D01*
X-193828Y229317D01*
X-206174Y218285D01*
X-206261Y218169D01*
X-206381Y218089D01*
X-213166Y211304D01*
X-213537Y210749D01*
X-213976Y210248D01*
X-215294Y207967D01*
X-215508Y207335D01*
X-215803Y206737D01*
X-216485Y204193D01*
X-216528Y203528D01*
X-216658Y202873D01*
Y200239D01*
X-216528Y199585D01*
X-216485Y198920D01*
X-215803Y196376D01*
X-215508Y195778D01*
X-215294Y195146D01*
X-213976Y192865D01*
X-213537Y192364D01*
X-213166Y191809D01*
X-211304Y189947D01*
X-210749Y189576D01*
X-210248Y189136D01*
X-208882Y188348D01*
X-208593Y187111D01*
X-209529Y185706D01*
X-209837Y185399D01*
X-210005Y184993D01*
X-210554Y184169D01*
X-212096Y184145D01*
X-213153Y185627D01*
X-213726Y186166D01*
X-214253Y186751D01*
X-216756Y188621D01*
X-217466Y188960D01*
X-218146Y189356D01*
X-221099Y190374D01*
X-221879Y190480D01*
X-222647Y190651D01*
X-225770Y190720D01*
X-226545Y190583D01*
X-227329Y190512D01*
X-230324Y189625D01*
X-231021Y189259D01*
X-231745Y188952D01*
X-234328Y187195D01*
X-234880Y186634D01*
X-235476Y186120D01*
X-241465Y178461D01*
X-241530Y178334D01*
X-241633Y178235D01*
X-250961Y164841D01*
X-251018Y164710D01*
X-251116Y164605D01*
X-259689Y150717D01*
X-259739Y150583D01*
X-259830Y150473D01*
X-267623Y136132D01*
X-267666Y135995D01*
X-267751Y135880D01*
X-274739Y121130D01*
X-274774Y120992D01*
X-274853Y120872D01*
X-281014Y105758D01*
X-281042Y105618D01*
X-281114Y105495D01*
X-286431Y90063D01*
X-286450Y89922D01*
X-286515Y89794D01*
X-290971Y74093D01*
X-290983Y73950D01*
X-291041Y73819D01*
X-294622Y57896D01*
X-294625Y57753D01*
X-294676Y57619D01*
X-297372Y41521D01*
X-297367Y41378D01*
X-297411Y41242D01*
X-299212Y25020D01*
X-299200Y24878D01*
X-299236Y24739D01*
X-300138Y8443D01*
X-300118Y8301D01*
X-300146Y8161D01*
Y6525D01*
X-300638Y4901D01*
X-301121Y-0D01*
X-300638Y-4901D01*
X-300146Y-6525D01*
Y-8161D01*
X-300118Y-8301D01*
X-300138Y-8443D01*
X-299236Y-24739D01*
X-299200Y-24878D01*
X-299212Y-25020D01*
X-297411Y-41242D01*
X-297367Y-41378D01*
X-297372Y-41521D01*
X-294676Y-57619D01*
X-294625Y-57753D01*
X-294622Y-57896D01*
X-291041Y-73820D01*
X-290983Y-73950D01*
X-290971Y-74093D01*
X-286515Y-89794D01*
X-286450Y-89922D01*
X-286431Y-90063D01*
X-281114Y-105495D01*
X-281042Y-105618D01*
X-281014Y-105759D01*
X-274853Y-120872D01*
X-274774Y-120992D01*
X-274739Y-121130D01*
X-267751Y-135880D01*
X-267666Y-135995D01*
X-267623Y-136132D01*
X-259830Y-150473D01*
X-259739Y-150583D01*
X-259689Y-150717D01*
X-251116Y-164606D01*
X-251018Y-164710D01*
X-250961Y-164841D01*
X-241633Y-178235D01*
X-241530Y-178334D01*
X-241465Y-178461D01*
X-236438Y-184890D01*
X-236438Y-184890D01*
X-235476Y-186120D01*
X-234880Y-186634D01*
X-234328Y-187195D01*
X-231745Y-188952D01*
X-231021Y-189259D01*
X-230324Y-189625D01*
X-227329Y-190512D01*
X-226545Y-190583D01*
X-225770Y-190720D01*
X-222647Y-190651D01*
X-221879Y-190480D01*
X-221099Y-190374D01*
X-218146Y-189356D01*
X-217466Y-188960D01*
X-216756Y-188621D01*
X-214253Y-186751D01*
X-213727Y-186167D01*
X-213288Y-185754D01*
X-210728Y-187947D01*
X-210643Y-188158D01*
X-210745Y-189571D01*
X-210749Y-189576D01*
X-211304Y-189947D01*
X-213166Y-191809D01*
X-213537Y-192364D01*
X-213976Y-192865D01*
X-215294Y-195146D01*
X-215508Y-195778D01*
X-215803Y-196376D01*
X-216485Y-198920D01*
X-216528Y-199585D01*
X-216658Y-200239D01*
Y-202873D01*
X-216528Y-203528D01*
X-216485Y-204193D01*
X-215803Y-206737D01*
X-215508Y-207335D01*
X-215294Y-207967D01*
X-213976Y-210248D01*
X-213537Y-210749D01*
X-213166Y-211304D01*
X-212235Y-212235D01*
X-212235Y-212235D01*
X-206381Y-218089D01*
X-206261Y-218169D01*
X-206174Y-218285D01*
X-193828Y-229317D01*
X-193703Y-229391D01*
X-193610Y-229502D01*
X-180666Y-239825D01*
X-180537Y-239891D01*
X-180437Y-239997D01*
X-166934Y-249577D01*
X-166802Y-249637D01*
X-166696Y-249736D01*
X-152678Y-258545D01*
X-152542Y-258597D01*
X-152431Y-258690D01*
X-137941Y-266699D01*
X-137803Y-266743D01*
X-137687Y-266830D01*
X-122770Y-274014D01*
X-122629Y-274050D01*
X-122509Y-274130D01*
X-107213Y-280466D01*
X-107070Y-280495D01*
X-106945Y-280568D01*
X-91318Y-286037D01*
X-91174Y-286057D01*
X-91046Y-286123D01*
X-75136Y-290707D01*
X-74992Y-290719D01*
X-74859Y-290778D01*
X-58718Y-294463D01*
X-58573Y-294466D01*
X-58438Y-294518D01*
X-42115Y-297292D01*
X-41970Y-297288D01*
X-41832Y-297332D01*
X-25380Y-299185D01*
X-25235Y-299173D01*
X-25094Y-299209D01*
X-8564Y-300138D01*
X-8421Y-300117D01*
X-8278Y-300146D01*
X8278D01*
X8421Y-300117D01*
X8564Y-300138D01*
X25094Y-299209D01*
X25235Y-299173D01*
X25380Y-299185D01*
X41832Y-297332D01*
X41970Y-297288D01*
X42115Y-297292D01*
X58438Y-294518D01*
X58573Y-294466D01*
X58718Y-294463D01*
X74859Y-290778D01*
X74992Y-290719D01*
X75136Y-290707D01*
X91046Y-286123D01*
X91174Y-286057D01*
X91318Y-286037D01*
X106945Y-280568D01*
X107070Y-280495D01*
X107213Y-280466D01*
X122509Y-274130D01*
X122629Y-274050D01*
X122770Y-274014D01*
X137687Y-266830D01*
X137803Y-266743D01*
X137941Y-266699D01*
X152431Y-258690D01*
X152542Y-258597D01*
X152678Y-258545D01*
X166696Y-249736D01*
X166802Y-249637D01*
X166934Y-249577D01*
X180437Y-239997D01*
X180537Y-239891D01*
X180666Y-239825D01*
X193610Y-229502D01*
X193703Y-229391D01*
X193828Y-229317D01*
X206174Y-218285D01*
X206261Y-218169D01*
X206381Y-218089D01*
X212235Y-212235D01*
X212932Y-211538D01*
X213211Y-211121D01*
X213566Y-210766D01*
X214660Y-209127D01*
X214853Y-208663D01*
X215132Y-208246D01*
X215886Y-206425D01*
X215984Y-205933D01*
X216176Y-205469D01*
X216560Y-203536D01*
Y-203034D01*
X216658Y-202542D01*
Y-200072D01*
X216512Y-199338D01*
X216439Y-198593D01*
X215577Y-195753D01*
X215224Y-195092D01*
X214937Y-194400D01*
X213289Y-191933D01*
X212759Y-191403D01*
X212284Y-190824D01*
X209990Y-188941D01*
X209329Y-188588D01*
X209288Y-188561D01*
X209085Y-187051D01*
X211252Y-185154D01*
X212516Y-185286D01*
X213041Y-185985D01*
X213538Y-186430D01*
X213972Y-186936D01*
X216045Y-188561D01*
X216640Y-188862D01*
X217190Y-189238D01*
X219613Y-190271D01*
X220266Y-190408D01*
X220895Y-190629D01*
X223503Y-191000D01*
X224169Y-190963D01*
X224834Y-191014D01*
X227449Y-190697D01*
X228082Y-190490D01*
X228738Y-190366D01*
X231182Y-189384D01*
X231740Y-189019D01*
X232341Y-188730D01*
X234447Y-187148D01*
X234892Y-186652D01*
X235398Y-186217D01*
X236211Y-185181D01*
X236211Y-185181D01*
X241255Y-178746D01*
X241320Y-178619D01*
X241423Y-178519D01*
X250784Y-165112D01*
X250841Y-164981D01*
X250939Y-164876D01*
X259542Y-150970D01*
X259592Y-150836D01*
X259684Y-150726D01*
X267505Y-136365D01*
X267547Y-136229D01*
X267633Y-136114D01*
X274646Y-121342D01*
X274681Y-121203D01*
X274760Y-121084D01*
X280944Y-105946D01*
X280971Y-105806D01*
X281044Y-105682D01*
X283247Y-99301D01*
X284956Y-98387D01*
X288763Y-95263D01*
X291887Y-91456D01*
X294209Y-87113D01*
X295638Y-82401D01*
X296121Y-77500D01*
X295638Y-72599D01*
X294209Y-67887D01*
X292918Y-65472D01*
X294601Y-58002D01*
X294605Y-57859D01*
X294656Y-57724D01*
X297362Y-41598D01*
X297357Y-41455D01*
X297400Y-41318D01*
X299209Y-25067D01*
X299196Y-24924D01*
X299232Y-24785D01*
X300138Y-8458D01*
X300118Y-8317D01*
X300146Y-8176D01*
X300146Y-1270D01*
X301416Y0D01*
X346941D01*
Y-346941D01*
X-297000D01*
Y-326000D01*
X-372000D01*
Y-346941D01*
X-394898D01*
Y-163000D01*
Y-161683D01*
X-395028Y-161029D01*
X-395072Y-160364D01*
X-395754Y-157819D01*
X-396049Y-157221D01*
X-396263Y-156590D01*
X-397580Y-154309D01*
X-398020Y-153807D01*
X-398390Y-153253D01*
X-400253Y-151390D01*
X-400807Y-151020D01*
X-401309Y-150580D01*
X-403590Y-149263D01*
X-404221Y-149049D01*
X-404819Y-148754D01*
X-407364Y-148072D01*
X-408029Y-148028D01*
X-408683Y-147898D01*
X-410000D01*
Y-144102D01*
X-408683D01*
X-408029Y-143972D01*
X-407364Y-143928D01*
X-404819Y-143246D01*
X-404221Y-142951D01*
X-403590Y-142737D01*
X-401309Y-141420D01*
X-400807Y-140980D01*
X-400253Y-140610D01*
X-398390Y-138747D01*
X-398020Y-138193D01*
X-397580Y-137691D01*
X-396263Y-135410D01*
X-396049Y-134779D01*
X-395754Y-134181D01*
X-395072Y-131636D01*
X-395028Y-130971D01*
X-394898Y-130317D01*
Y-129000D01*
Y35767D01*
X-393311Y36425D01*
X-392893Y36704D01*
X-392429Y36896D01*
X-390791Y37991D01*
X-390436Y38346D01*
X-390018Y38625D01*
X-388625Y40018D01*
X-388346Y40436D01*
X-387991Y40791D01*
X-386896Y42429D01*
X-386704Y42893D01*
X-386425Y43310D01*
X-385671Y45131D01*
X-385573Y45623D01*
X-385381Y46087D01*
X-384996Y48020D01*
Y48522D01*
X-384898Y49015D01*
Y50000D01*
Y183000D01*
Y184317D01*
X-385028Y184971D01*
X-385072Y185637D01*
X-385754Y188181D01*
X-386049Y188779D01*
X-386263Y189410D01*
X-387580Y191691D01*
X-388020Y192193D01*
X-388390Y192747D01*
X-390253Y194610D01*
X-390807Y194980D01*
X-391309Y195420D01*
X-393590Y196737D01*
X-394221Y196951D01*
X-394819Y197246D01*
X-397364Y197928D01*
X-398029Y197972D01*
X-398683Y198102D01*
X-400000D01*
Y201898D01*
X-398683D01*
X-398029Y202028D01*
X-397364Y202072D01*
X-394819Y202754D01*
X-394221Y203049D01*
X-393590Y203263D01*
X-391309Y204580D01*
X-390807Y205020D01*
X-390253Y205390D01*
X-388390Y207253D01*
X-388020Y207807D01*
X-387580Y208309D01*
X-386263Y210590D01*
X-386049Y211221D01*
X-385754Y211819D01*
X-385072Y214363D01*
X-385028Y215029D01*
X-384898Y215683D01*
Y217000D01*
Y330000D01*
Y330985D01*
X-384996Y331478D01*
Y331980D01*
X-385381Y333913D01*
X-385573Y334376D01*
X-385671Y334869D01*
X-386425Y336689D01*
X-386704Y337107D01*
X-386896Y337571D01*
X-387991Y339209D01*
X-388346Y339564D01*
X-388625Y339982D01*
X-390018Y341375D01*
X-390436Y341654D01*
X-390791Y342009D01*
X-392429Y343104D01*
X-392893Y343296D01*
X-393311Y343575D01*
X-395131Y344329D01*
X-395624Y344427D01*
X-396087Y344619D01*
X-398020Y345004D01*
X-398522D01*
X-399015Y345102D01*
X-494317D01*
X-494971Y344972D01*
X-495636Y344928D01*
X-498181Y344246D01*
X-498779Y343951D01*
X-499410Y343737D01*
X-501692Y342420D01*
X-502193Y341980D01*
X-502747Y341610D01*
X-504610Y339747D01*
X-504980Y339193D01*
X-505420Y338691D01*
X-506737Y336410D01*
X-506951Y335779D01*
X-507246Y335181D01*
X-507928Y332636D01*
X-507972Y331971D01*
X-508102Y331317D01*
Y330000D01*
X-511898D01*
Y330985D01*
X-511996Y331478D01*
Y331980D01*
X-512381Y333913D01*
X-512573Y334376D01*
X-512671Y334869D01*
X-513425Y336689D01*
X-513704Y337107D01*
X-513896Y337571D01*
X-514991Y339209D01*
X-515346Y339564D01*
X-515625Y339982D01*
X-517018Y341375D01*
X-517436Y341654D01*
X-517791Y342009D01*
X-519429Y343104D01*
X-519893Y343296D01*
X-520311Y343575D01*
X-522131Y344329D01*
X-522623Y344427D01*
X-523087Y344619D01*
X-525020Y345004D01*
X-525522D01*
X-526015Y345102D01*
X-646941D01*
Y646941D01*
X346941D01*
X346941Y10000D01*
D02*
G37*
G36*
X235018Y58625D02*
X235436Y58346D01*
X235791Y57991D01*
X237429Y56896D01*
X237893Y56704D01*
X238311Y56425D01*
X240131Y55671D01*
X240623Y55573D01*
X241087Y55381D01*
X243020Y54996D01*
X243522D01*
X244015Y54898D01*
X264230D01*
X264897Y51937D01*
X267363Y37212D01*
X269011Y22373D01*
X269839Y7430D01*
X269942Y0D01*
X269838Y-7442D01*
X269008Y-22409D01*
X267355Y-37272D01*
X265656Y-47398D01*
X263308D01*
X262290Y-46790D01*
X262290Y-46128D01*
Y-36270D01*
X242500D01*
X222710D01*
Y-46790D01*
X239122D01*
X240154Y-48060D01*
X240131Y-48171D01*
X238311Y-48925D01*
X237893Y-49204D01*
X237429Y-49396D01*
X235791Y-50491D01*
X235436Y-50846D01*
X235018Y-51125D01*
X233764Y-52379D01*
X130121D01*
Y-23387D01*
X131294Y-22901D01*
X131395Y-23001D01*
X133105Y-23989D01*
X135013Y-24500D01*
X136987D01*
X138895Y-23989D01*
X139574Y-25063D01*
X136587Y-28050D01*
X135924Y-29042D01*
X135691Y-30213D01*
X135691Y-30213D01*
Y-36500D01*
X132500D01*
Y-48500D01*
X144460D01*
Y-49040D01*
X149980D01*
Y-42500D01*
X151250D01*
Y-41230D01*
X158040D01*
Y-35960D01*
X158788Y-35000D01*
X161960D01*
Y-35540D01*
X170980D01*
Y-25000D01*
Y-14460D01*
X161960D01*
Y-15000D01*
X153059D01*
Y-9801D01*
X154860Y-9319D01*
X157140Y-8002D01*
X159002Y-6140D01*
X160319Y-3860D01*
X160343Y-3770D01*
X161657D01*
X161681Y-3860D01*
X162998Y-6140D01*
X164860Y-8002D01*
X167140Y-9319D01*
X169683Y-10000D01*
X172316D01*
X174860Y-9319D01*
X177140Y-8002D01*
X179002Y-6140D01*
X180319Y-3860D01*
X180343Y-3770D01*
X181657D01*
X181681Y-3860D01*
X182998Y-6140D01*
X184860Y-8002D01*
X187140Y-9319D01*
X189683Y-10000D01*
X192317D01*
X194860Y-9319D01*
X197140Y-8002D01*
X199002Y-6140D01*
X200319Y-3860D01*
X200343Y-3770D01*
X201657D01*
X201681Y-3860D01*
X202998Y-6140D01*
X204860Y-8002D01*
X207140Y-9319D01*
X209683Y-10000D01*
X212316D01*
X214860Y-9319D01*
X217140Y-8002D01*
X219002Y-6140D01*
X219984Y-4439D01*
X220203Y-4371D01*
X221420Y-4486D01*
X222566Y-6472D01*
X224528Y-8434D01*
X226932Y-9822D01*
X229612Y-10540D01*
X229730D01*
Y0D01*
Y10540D01*
X229612D01*
X226932Y9822D01*
X224528Y8434D01*
X222566Y6472D01*
X221420Y4486D01*
X220203Y4371D01*
X219984Y4439D01*
X219161Y5864D01*
X219454Y6815D01*
X219722Y7216D01*
X221099Y7490D01*
X222836Y8650D01*
X223996Y10387D01*
X224403Y12436D01*
Y16725D01*
X219050D01*
X213696D01*
Y12436D01*
X214010Y10861D01*
X213090Y9793D01*
X212316Y10000D01*
X211799D01*
X210921Y11270D01*
X211153Y12436D01*
Y23554D01*
X210787Y25392D01*
X209746Y26950D01*
X208188Y27991D01*
X206350Y28357D01*
X204512Y27991D01*
X202954Y26950D01*
X201913Y25392D01*
X201547Y23554D01*
Y12436D01*
X201913Y10598D01*
X202954Y9040D01*
X203291Y8814D01*
Y7639D01*
X203291Y7639D01*
X203491Y6633D01*
X202998Y6140D01*
X201681Y3860D01*
X201657Y3770D01*
X200343D01*
X200319Y3860D01*
X199002Y6140D01*
X197396Y7746D01*
X197191Y8506D01*
X197279Y9388D01*
X198087Y10598D01*
X198453Y12436D01*
Y23554D01*
X198087Y25392D01*
X197046Y26950D01*
X195488Y27991D01*
X193650Y28357D01*
X191812Y27991D01*
X190254Y26950D01*
X189213Y25392D01*
X188847Y23554D01*
Y12436D01*
X189213Y10598D01*
X188910Y9793D01*
X187140Y9319D01*
X185193Y8194D01*
X184490Y9255D01*
X185387Y10598D01*
X185753Y12436D01*
Y23554D01*
X185387Y25392D01*
X184346Y26950D01*
X182788Y27991D01*
X180950Y28357D01*
X179112Y27991D01*
X177554Y26950D01*
X176513Y25392D01*
X176147Y23554D01*
Y12436D01*
X176513Y10598D01*
X176817Y10143D01*
X175578Y8904D01*
X174860Y9319D01*
X172316Y10000D01*
X169683D01*
X167140Y9319D01*
X164860Y8002D01*
X162998Y6140D01*
X161681Y3860D01*
X161657Y3770D01*
X160343D01*
X160319Y3860D01*
X159002Y6140D01*
X157140Y8002D01*
X154860Y9319D01*
X152317Y10000D01*
X149684D01*
X147140Y9319D01*
X145788Y8538D01*
X141809Y12517D01*
Y14000D01*
X144460D01*
Y13460D01*
X149980D01*
Y20000D01*
Y26540D01*
X144460D01*
Y26000D01*
X132500D01*
Y14000D01*
X135691D01*
Y11250D01*
X135691Y11250D01*
X135924Y10079D01*
X136587Y9087D01*
X141730Y3944D01*
X141681Y3860D01*
X141000Y1317D01*
Y-1317D01*
X141681Y-3860D01*
X142998Y-6140D01*
X144860Y-8002D01*
X146941Y-9204D01*
Y-15000D01*
X143229D01*
X142989Y-14105D01*
X142001Y-12395D01*
X140605Y-10999D01*
X138895Y-10011D01*
X136987Y-9500D01*
X135013D01*
X133105Y-10011D01*
X131395Y-10999D01*
X131294Y-11099D01*
X130121Y-10613D01*
Y59879D01*
X233764D01*
X235018Y58625D01*
D02*
G37*
G36*
X79879Y-47491D02*
X78609Y-47831D01*
X78034Y-46835D01*
X76165Y-44966D01*
X73875Y-43644D01*
X71322Y-42960D01*
X71270D01*
Y-53000D01*
Y-63040D01*
X71322D01*
X73875Y-62356D01*
X76165Y-61034D01*
X78034Y-59165D01*
X78609Y-58169D01*
X79879Y-58509D01*
Y-77500D01*
X80362Y-82401D01*
X81791Y-87113D01*
X84113Y-91456D01*
X87237Y-95263D01*
X91044Y-98387D01*
X95387Y-100709D01*
X100099Y-102138D01*
X105000Y-102621D01*
X121219D01*
X121745Y-103891D01*
X121185Y-104451D01*
X120500Y-106105D01*
Y-107895D01*
X120727Y-108444D01*
X120022Y-109500D01*
X97500D01*
Y-112941D01*
X93500D01*
Y-110000D01*
X94302Y-109062D01*
X94815Y-108549D01*
X95500Y-106895D01*
Y-105105D01*
X94815Y-103451D01*
X93549Y-102185D01*
X91895Y-101500D01*
X90105D01*
X88451Y-102185D01*
X87185Y-103451D01*
X86500Y-105105D01*
Y-106895D01*
X87185Y-108549D01*
X87366Y-108730D01*
X86840Y-110000D01*
X81540D01*
Y-109460D01*
X76020D01*
Y-116000D01*
Y-122540D01*
X81540D01*
Y-122000D01*
X93500D01*
Y-119059D01*
X97500D01*
Y-125500D01*
X98941D01*
Y-131243D01*
X97613Y-132572D01*
X97085D01*
X96040Y-131874D01*
Y-126960D01*
X88770D01*
Y-132000D01*
X86230D01*
Y-126960D01*
X78960D01*
Y-126960D01*
X78911Y-126993D01*
X77895Y-126572D01*
X76105D01*
X74451Y-127257D01*
X73185Y-128523D01*
X72500Y-130177D01*
Y-131967D01*
X73185Y-133621D01*
X74451Y-134887D01*
X74214Y-135422D01*
X74185Y-135451D01*
X73500Y-137105D01*
Y-138000D01*
X71743D01*
X70089Y-138685D01*
X68823Y-139951D01*
X68138Y-141605D01*
Y-143395D01*
X68823Y-145049D01*
X70089Y-146315D01*
X71743Y-147000D01*
X73354D01*
X75516Y-149163D01*
X75516Y-149163D01*
X76509Y-149826D01*
X77679Y-150059D01*
X77679Y-150059D01*
X79500D01*
Y-152941D01*
X68906D01*
X66000Y-150036D01*
Y-148966D01*
X65315Y-147312D01*
X64049Y-146047D01*
X63946Y-144629D01*
X64250Y-143895D01*
Y-142105D01*
X63565Y-140451D01*
X62299Y-139185D01*
X60645Y-138500D01*
X58855D01*
X57201Y-139185D01*
X55935Y-140451D01*
X55250Y-142105D01*
Y-143895D01*
X55935Y-145549D01*
X57201Y-146815D01*
X57304Y-148232D01*
X57000Y-148966D01*
Y-150757D01*
X57685Y-152410D01*
X58951Y-153676D01*
X60605Y-154361D01*
X61674D01*
X65476Y-158163D01*
X66468Y-158826D01*
X67639Y-159059D01*
X79500D01*
Y-160941D01*
X64742D01*
X64539Y-160451D01*
X63273Y-159185D01*
X61619Y-158500D01*
X59829D01*
X58175Y-159185D01*
X56909Y-160451D01*
X56224Y-162105D01*
Y-163895D01*
X56909Y-165549D01*
X58175Y-166815D01*
X59829Y-167500D01*
X61619D01*
X62684Y-167059D01*
X79500D01*
Y-177200D01*
X63451D01*
X63451Y-177200D01*
X62281Y-177433D01*
X61288Y-178096D01*
X61288Y-178096D01*
X59874Y-179510D01*
X59211Y-180502D01*
X59004Y-181542D01*
X57451Y-182185D01*
X56185Y-183451D01*
X55500Y-185105D01*
Y-186895D01*
X56185Y-188549D01*
X57451Y-189815D01*
X59105Y-190500D01*
X60895D01*
X62549Y-189815D01*
X63815Y-188549D01*
X64500Y-186895D01*
Y-185105D01*
X64439Y-184957D01*
X64863Y-184322D01*
X65063Y-183318D01*
X79500D01*
Y-192500D01*
X95500D01*
Y-191059D01*
X98000D01*
X98000Y-191059D01*
X99171Y-190826D01*
X100163Y-190163D01*
X102200Y-188125D01*
X103105Y-188500D01*
X104895D01*
X105246Y-188355D01*
X106301Y-189060D01*
Y-191666D01*
X106301Y-191666D01*
X106534Y-192837D01*
X106797Y-193230D01*
X106407Y-194500D01*
X97500D01*
Y-198526D01*
X96230Y-199053D01*
X95549Y-198372D01*
X93895Y-197687D01*
X92105D01*
X90817Y-198220D01*
X90208Y-198257D01*
X89232Y-197794D01*
X88601Y-196702D01*
X87298Y-195399D01*
X85702Y-194477D01*
X83922Y-194000D01*
X82078D01*
X80298Y-194477D01*
X78702Y-195399D01*
X77399Y-196702D01*
X76477Y-198298D01*
X76000Y-200078D01*
Y-201922D01*
X76477Y-203702D01*
X77399Y-205298D01*
X78702Y-206601D01*
X80298Y-207523D01*
X82078Y-208000D01*
X83922D01*
X85702Y-207523D01*
X87298Y-206601D01*
X88601Y-205298D01*
X89951Y-205501D01*
X90451Y-206001D01*
X92105Y-206686D01*
X93895D01*
X95549Y-206001D01*
X96230Y-205320D01*
X97500Y-205847D01*
Y-210500D01*
X96230Y-210500D01*
X87500D01*
Y-219460D01*
X86960D01*
Y-223730D01*
X94000D01*
Y-226270D01*
X86960D01*
Y-230540D01*
X86070Y-231441D01*
X81743D01*
X81743Y-231441D01*
X80572Y-231674D01*
X79580Y-232337D01*
X79580Y-232337D01*
X77673Y-234244D01*
X76500Y-233757D01*
Y-229500D01*
X64175D01*
Y-227922D01*
X63700Y-226148D01*
X62781Y-224557D01*
X61483Y-223259D01*
X60637Y-222770D01*
X60977Y-221500D01*
X63000D01*
X63500Y-220500D01*
X76500D01*
Y-210500D01*
X73059D01*
Y-205305D01*
X73815Y-204549D01*
X74500Y-202895D01*
Y-201105D01*
X73815Y-199451D01*
X72549Y-198185D01*
X70895Y-197500D01*
X69105D01*
X67451Y-198185D01*
X66185Y-199451D01*
X65500Y-201105D01*
Y-202895D01*
X66185Y-204549D01*
X66941Y-205305D01*
Y-210500D01*
X64288D01*
X63540Y-209540D01*
X63540Y-209247D01*
Y-204020D01*
X50460D01*
Y-209540D01*
X51000D01*
Y-221500D01*
X53423D01*
X53764Y-222770D01*
X52917Y-223259D01*
X51619Y-224557D01*
X50700Y-226148D01*
X50225Y-227922D01*
Y-229758D01*
X50700Y-231532D01*
X51619Y-233123D01*
X52917Y-234421D01*
X54508Y-235340D01*
X56282Y-235815D01*
X58118D01*
X59892Y-235340D01*
X61483Y-234421D01*
X62230Y-233674D01*
X63500Y-234200D01*
Y-237441D01*
X38767D01*
X35500Y-234174D01*
Y-233105D01*
X34815Y-231451D01*
X33549Y-230185D01*
X31895Y-229500D01*
X30105D01*
X28451Y-230185D01*
X27185Y-231451D01*
X26500Y-233105D01*
Y-234895D01*
X27185Y-236549D01*
X28451Y-237815D01*
X30105Y-238500D01*
X31174D01*
X35337Y-242663D01*
X35337Y-242663D01*
X36329Y-243326D01*
X37500Y-243559D01*
X51141D01*
X51667Y-244829D01*
X51619Y-244877D01*
X50700Y-246468D01*
X50225Y-248242D01*
Y-250078D01*
X50700Y-251852D01*
X51619Y-253443D01*
X52917Y-254741D01*
X54508Y-255660D01*
X56282Y-256135D01*
X58118D01*
X59892Y-255660D01*
X61483Y-254741D01*
X62781Y-253443D01*
X63700Y-251852D01*
X64175Y-250078D01*
Y-248242D01*
X63700Y-246468D01*
X62781Y-244877D01*
X62733Y-244829D01*
X63259Y-243559D01*
X75743D01*
X75743Y-243559D01*
X76913Y-243326D01*
X77300Y-243067D01*
X78326Y-243909D01*
X78100Y-244455D01*
Y-246245D01*
X78785Y-247899D01*
X80051Y-249165D01*
X81705Y-249850D01*
X83495D01*
X85149Y-249165D01*
X86415Y-247899D01*
X87100Y-246245D01*
Y-244455D01*
X86415Y-242801D01*
X85149Y-241535D01*
X83495Y-240850D01*
X81705D01*
X81380Y-240985D01*
X80660Y-239908D01*
X83010Y-237559D01*
X87500D01*
Y-239500D01*
X100500D01*
X101178Y-240489D01*
X101500Y-241692D01*
X102419Y-243283D01*
X103717Y-244581D01*
X105308Y-245500D01*
X107082Y-245975D01*
X107955D01*
X108208Y-247245D01*
X96266Y-252191D01*
X81975Y-257192D01*
X67425Y-261384D01*
X52662Y-264753D01*
X37735Y-267290D01*
X22689Y-268985D01*
X7571Y-269834D01*
X-7571D01*
X-22689Y-268985D01*
X-37735Y-267290D01*
X-52663Y-264753D01*
X-67425Y-261384D01*
X-81974Y-257192D01*
X-96266Y-252191D01*
X-110255Y-246397D01*
X-123898Y-239827D01*
X-137150Y-232503D01*
X-149971Y-224447D01*
X-162320Y-215685D01*
X-174158Y-206244D01*
X-185475Y-196131D01*
X-190903Y-190853D01*
X-191283Y-190473D01*
X-191754Y-189335D01*
X-193442Y-187647D01*
X-195647Y-186734D01*
X-198034D01*
X-198227Y-186814D01*
X-198920Y-186628D01*
X-199086Y-186618D01*
X-199621Y-185488D01*
X-199616Y-185284D01*
X-198750Y-183193D01*
Y-180807D01*
X-198811Y-180658D01*
X-197735Y-179939D01*
X-187343Y-190330D01*
X-179904Y-182892D01*
X-193898Y-168898D01*
X-207892Y-154904D01*
X-214600Y-161613D01*
X-216262Y-161525D01*
X-217140Y-160370D01*
X-225691Y-148092D01*
X-233532Y-135390D01*
X-240659Y-122274D01*
X-247050Y-108784D01*
X-252686Y-94962D01*
X-257548Y-80849D01*
X-261623Y-66489D01*
X-264899Y-51926D01*
X-267364Y-37203D01*
X-268048Y-31048D01*
X-267201Y-30102D01*
X-239015D01*
X-238522Y-30004D01*
X-238020D01*
X-236087Y-29619D01*
X-235624Y-29427D01*
X-235131Y-29329D01*
X-233311Y-28575D01*
X-232893Y-28296D01*
X-232429Y-28104D01*
X-230791Y-27009D01*
X-230436Y-26654D01*
X-230018Y-26375D01*
X-228764Y-25121D01*
X-73415Y-25121D01*
X-73266Y-25637D01*
X-69935Y-33679D01*
X-65725Y-41297D01*
X-60687Y-48397D01*
X-54887Y-54887D01*
X-48397Y-60687D01*
X-41297Y-65725D01*
X-33679Y-69935D01*
X-25637Y-73266D01*
X-17273Y-75676D01*
X-8691Y-77134D01*
X0Y-77622D01*
X8691Y-77134D01*
X17273Y-75676D01*
X25637Y-73266D01*
X33679Y-69935D01*
X41297Y-65725D01*
X48397Y-60687D01*
X54887Y-54887D01*
X59026Y-50255D01*
X60175Y-50876D01*
X59960Y-51678D01*
Y-51730D01*
X68730D01*
Y-42960D01*
X68678D01*
X66125Y-43644D01*
X65264Y-44141D01*
X64389Y-43180D01*
X65725Y-41297D01*
X69935Y-33679D01*
X73266Y-25637D01*
X73415Y-25121D01*
X79879D01*
Y-47491D01*
D02*
G37*
G36*
X184281Y-103619D02*
X184269Y-103653D01*
X183927Y-103996D01*
X183750Y-103961D01*
X183750Y-103961D01*
X170000D01*
X169803Y-104000D01*
X168000D01*
Y-105803D01*
X167961Y-106000D01*
Y-116000D01*
X168000Y-116197D01*
Y-118000D01*
X169441D01*
Y-127500D01*
X164500D01*
Y-136500D01*
Y-144500D01*
Y-152500D01*
Y-160500D01*
Y-168500D01*
Y-174340D01*
X163230Y-174866D01*
X163023Y-174659D01*
X161369Y-173974D01*
X159579D01*
X157925Y-174659D01*
X156659Y-175925D01*
X155974Y-177579D01*
Y-179369D01*
X156659Y-181023D01*
X157925Y-182289D01*
X159579Y-182974D01*
X161369D01*
X162957Y-182316D01*
X163351Y-182589D01*
X163960Y-183148D01*
Y-186730D01*
X172500D01*
X181040D01*
Y-182960D01*
X180500D01*
Y-177550D01*
X181770Y-177209D01*
X182399Y-178298D01*
X183702Y-179601D01*
X185298Y-180523D01*
X187078Y-181000D01*
X188922D01*
X190702Y-180523D01*
X192298Y-179601D01*
X193601Y-178298D01*
X194523Y-176702D01*
X195000Y-174922D01*
Y-173078D01*
X194523Y-171298D01*
X194234Y-170798D01*
X195164Y-169868D01*
X196298Y-170523D01*
X198078Y-171000D01*
X199922D01*
X201702Y-170523D01*
X203298Y-169601D01*
X204601Y-168298D01*
X205523Y-166702D01*
X206000Y-164922D01*
Y-163078D01*
X205523Y-161298D01*
X204654Y-159793D01*
X204755Y-159396D01*
X205201Y-158505D01*
X205928Y-158482D01*
X206399Y-159298D01*
X207702Y-160601D01*
X209298Y-161523D01*
X211078Y-162000D01*
X212922D01*
X214662Y-161534D01*
X214754Y-161589D01*
X215502Y-162528D01*
X212419Y-166574D01*
X211738Y-167443D01*
X210601Y-167913D01*
X208913Y-169601D01*
X208000Y-171807D01*
Y-174193D01*
X208645Y-175750D01*
X207670Y-176715D01*
X205944Y-176000D01*
X203556D01*
X201351Y-176913D01*
X199664Y-178601D01*
X198750Y-180807D01*
Y-183193D01*
X199603Y-185252D01*
X199569Y-185612D01*
X199113Y-186645D01*
X198239Y-186819D01*
X198034Y-186734D01*
X195647D01*
X193442Y-187647D01*
X191754Y-189335D01*
X191283Y-190473D01*
X190904Y-190852D01*
X185474Y-196131D01*
X174158Y-206244D01*
X162319Y-215685D01*
X152128Y-222916D01*
X151000Y-222333D01*
Y-222105D01*
X150315Y-220451D01*
X149559Y-219695D01*
Y-218003D01*
X150615Y-217297D01*
X151105Y-217500D01*
X152895D01*
X154549Y-216815D01*
X155815Y-215549D01*
X156500Y-213895D01*
Y-212105D01*
X156273Y-211556D01*
X156978Y-210500D01*
X162500D01*
Y-207500D01*
X163549Y-207065D01*
X164815Y-205799D01*
X165500Y-204145D01*
Y-202355D01*
X164815Y-200701D01*
X163549Y-199435D01*
X162500Y-199001D01*
Y-194500D01*
X129523D01*
X128947Y-193230D01*
X129500Y-191895D01*
Y-190105D01*
X128815Y-188451D01*
X127549Y-187185D01*
X125895Y-186500D01*
X125367D01*
X124820Y-185954D01*
Y-173062D01*
X126163Y-171719D01*
X126163Y-171719D01*
X126826Y-170727D01*
X127059Y-169556D01*
X127059Y-169556D01*
Y-160444D01*
X127059Y-160444D01*
X126826Y-159273D01*
X126163Y-158281D01*
X126163Y-158281D01*
X124820Y-156938D01*
Y-134944D01*
X125899Y-134237D01*
X126932Y-134704D01*
X127024Y-135443D01*
X126750Y-136105D01*
Y-137895D01*
X127435Y-139549D01*
X128701Y-140815D01*
X130355Y-141500D01*
X132145D01*
X133799Y-140815D01*
X135065Y-139549D01*
X135750Y-137895D01*
Y-136285D01*
X136163Y-135872D01*
X136163Y-135872D01*
X136826Y-134879D01*
X137059Y-133709D01*
X137059Y-133709D01*
Y-125500D01*
X138941D01*
Y-148259D01*
X135918Y-151283D01*
X134316D01*
X133559Y-150526D01*
X131905Y-149841D01*
X130115D01*
X128461Y-150526D01*
X127196Y-151792D01*
X126510Y-153446D01*
Y-155236D01*
X127196Y-156890D01*
X128461Y-158156D01*
X130115Y-158841D01*
X131905D01*
X133559Y-158156D01*
X134316Y-157400D01*
X137184D01*
X137184Y-157400D01*
X138355Y-157167D01*
X139347Y-156504D01*
X144163Y-151689D01*
X144163Y-151689D01*
X144826Y-150696D01*
X145059Y-149526D01*
X145059Y-149526D01*
Y-147082D01*
X145653Y-146801D01*
X146329Y-146693D01*
X147451Y-147815D01*
X149105Y-148500D01*
X150895D01*
X152549Y-147815D01*
X153815Y-146549D01*
X154500Y-144895D01*
Y-143105D01*
X153815Y-141451D01*
X152549Y-140185D01*
X150895Y-139500D01*
X149105D01*
X147451Y-140185D01*
X146329Y-141307D01*
X145653Y-141199D01*
X145059Y-140918D01*
Y-125500D01*
X162500D01*
Y-109500D01*
X162500D01*
X162090Y-108886D01*
X162500Y-107895D01*
Y-106105D01*
X161815Y-104451D01*
X161255Y-103891D01*
X161781Y-102621D01*
X183883D01*
X184281Y-103619D01*
D02*
G37*
G36*
X235018Y-103875D02*
X235436Y-104154D01*
X235791Y-104509D01*
X237429Y-105604D01*
X237893Y-105796D01*
X238311Y-106075D01*
X240131Y-106829D01*
X240623Y-106927D01*
X241087Y-107119D01*
X243020Y-107504D01*
X243522D01*
X244015Y-107602D01*
X246388D01*
X247096Y-108656D01*
X246966Y-108974D01*
X240552Y-122484D01*
X233400Y-135617D01*
X225532Y-148334D01*
X220270Y-155871D01*
X219000Y-155472D01*
Y-154078D01*
X218523Y-152298D01*
X217601Y-150702D01*
X216298Y-149399D01*
X214702Y-148477D01*
X212922Y-148000D01*
X211078D01*
X209298Y-148477D01*
X207702Y-149399D01*
X206399Y-150702D01*
X205323Y-150048D01*
X205523Y-149702D01*
X206000Y-147922D01*
Y-146078D01*
X205523Y-144298D01*
X205121Y-143602D01*
X205518Y-142968D01*
X205957Y-142510D01*
X207595D01*
X209249Y-141825D01*
X210515Y-140560D01*
X211200Y-138906D01*
Y-137115D01*
X210515Y-135461D01*
X209249Y-134196D01*
X207595Y-133511D01*
X205805D01*
X204151Y-134196D01*
X202885Y-135461D01*
X202659Y-136006D01*
X201285D01*
X200926Y-135141D01*
X199660Y-133875D01*
X198006Y-133190D01*
X196216D01*
X195797Y-133363D01*
X194658Y-132802D01*
X194523Y-132298D01*
X193601Y-130702D01*
X192298Y-129399D01*
X190702Y-128477D01*
X188922Y-128000D01*
X187078D01*
X185298Y-128477D01*
X183702Y-129399D01*
X182399Y-130702D01*
X181770Y-131791D01*
X180500Y-131451D01*
Y-127500D01*
X175559D01*
Y-118039D01*
X183750D01*
X184530Y-117884D01*
X184795Y-117707D01*
X184918Y-117831D01*
X185759Y-118392D01*
X185759Y-118392D01*
X186750Y-118589D01*
X187605Y-118589D01*
Y-111000D01*
X188875D01*
Y-109730D01*
X198590D01*
Y-106000D01*
X198540Y-105750D01*
X198540Y-103460D01*
X199462Y-102621D01*
X233764D01*
X235018Y-103875D01*
D02*
G37*
G36*
X-427086Y-149399D02*
X-425399Y-151087D01*
X-424853Y-151313D01*
Y-152687D01*
X-425399Y-152913D01*
X-427086Y-154601D01*
X-428000Y-156806D01*
Y-159193D01*
X-427086Y-161399D01*
X-425399Y-163086D01*
X-425102Y-163210D01*
Y-346941D01*
X-646941D01*
Y-147500D01*
X-427873D01*
X-427086Y-149399D01*
D02*
G37*
%LPC*%
G36*
X-586270Y307540D02*
X-586388D01*
X-589068Y306822D01*
X-591472Y305434D01*
X-593434Y303472D01*
X-594267Y302029D01*
X-595733D01*
X-596566Y303472D01*
X-598528Y305434D01*
X-600932Y306822D01*
X-603612Y307540D01*
X-603730D01*
Y297000D01*
Y286460D01*
X-603612D01*
X-600932Y287178D01*
X-598528Y288566D01*
X-596566Y290528D01*
X-595733Y291971D01*
X-594267D01*
X-593434Y290528D01*
X-591472Y288566D01*
X-589068Y287178D01*
X-586388Y286460D01*
X-586270D01*
Y297000D01*
Y307540D01*
D02*
G37*
G36*
X-606270D02*
X-606388D01*
X-609068Y306822D01*
X-611472Y305434D01*
X-613434Y303472D01*
X-614822Y301068D01*
X-615540Y298388D01*
Y298270D01*
X-606270D01*
Y307540D01*
D02*
G37*
G36*
X-583612D02*
X-583730D01*
Y297000D01*
Y286460D01*
X-583612D01*
X-580932Y287178D01*
X-578528Y288566D01*
X-576566Y290528D01*
X-575420Y292514D01*
X-574203Y292629D01*
X-573984Y292561D01*
X-573002Y290860D01*
X-571140Y288998D01*
X-568860Y287682D01*
X-566316Y287000D01*
X-563684D01*
X-561140Y287682D01*
X-558860Y288998D01*
X-556998Y290860D01*
X-555681Y293140D01*
X-555000Y295683D01*
Y298316D01*
X-555681Y300860D01*
X-556998Y303140D01*
X-558860Y305002D01*
X-561140Y306318D01*
X-563684Y307000D01*
X-566316D01*
X-568860Y306318D01*
X-571140Y305002D01*
X-573002Y303140D01*
X-573984Y301439D01*
X-574203Y301371D01*
X-575420Y301486D01*
X-576566Y303472D01*
X-578528Y305434D01*
X-580932Y306822D01*
X-583612Y307540D01*
D02*
G37*
G36*
X-606270Y295730D02*
X-615540D01*
Y295612D01*
X-614822Y292932D01*
X-613434Y290528D01*
X-611472Y288566D01*
X-609068Y287178D01*
X-606388Y286460D01*
X-606270D01*
Y295730D01*
D02*
G37*
G36*
X-458013Y229500D02*
X-459987D01*
X-461895Y228989D01*
X-463605Y228001D01*
X-465001Y226605D01*
X-465989Y224895D01*
X-466500Y222987D01*
Y221013D01*
X-465989Y219105D01*
X-465001Y217395D01*
X-463605Y215998D01*
X-461895Y215011D01*
X-459987Y214500D01*
X-458013D01*
X-456105Y215011D01*
X-454395Y215998D01*
X-452999Y217395D01*
X-452011Y219105D01*
X-451500Y221013D01*
Y222987D01*
X-452011Y224895D01*
X-452999Y226605D01*
X-454395Y228001D01*
X-456105Y228989D01*
X-458013Y229500D01*
D02*
G37*
G36*
X-465000Y173500D02*
X-477000D01*
Y160500D01*
X-474059D01*
Y153500D01*
X-477000D01*
Y140500D01*
X-474059D01*
Y135500D01*
X-477000D01*
Y123540D01*
X-477540D01*
Y118020D01*
X-471000D01*
X-464460D01*
Y123540D01*
X-465000D01*
Y135500D01*
X-467941D01*
Y140500D01*
X-465000D01*
Y153500D01*
X-467941D01*
Y160500D01*
X-465000D01*
Y173500D01*
D02*
G37*
G36*
X-464460Y115480D02*
X-469730D01*
Y109960D01*
X-464460D01*
Y115480D01*
D02*
G37*
G36*
X-472270D02*
X-477540D01*
Y109960D01*
X-472270D01*
Y115480D01*
D02*
G37*
G36*
X-431460Y125730D02*
X-442000D01*
X-452540D01*
Y125612D01*
X-451822Y122932D01*
X-450434Y120528D01*
X-448472Y118566D01*
X-447029Y117733D01*
Y116267D01*
X-448472Y115434D01*
X-450434Y113472D01*
X-451822Y111068D01*
X-452540Y108388D01*
Y108270D01*
X-442000D01*
X-431460D01*
Y108388D01*
X-432178Y111068D01*
X-433566Y113472D01*
X-435528Y115434D01*
X-436970Y116267D01*
Y117733D01*
X-435528Y118566D01*
X-433566Y120528D01*
X-432178Y122932D01*
X-431460Y125612D01*
Y125730D01*
D02*
G37*
G36*
Y105730D02*
X-440730D01*
Y96460D01*
X-440612D01*
X-437932Y97178D01*
X-435528Y98566D01*
X-433566Y100528D01*
X-432178Y102932D01*
X-431460Y105612D01*
Y105730D01*
D02*
G37*
G36*
X-443270D02*
X-452540D01*
Y105612D01*
X-451822Y102932D01*
X-450434Y100528D01*
X-448472Y98566D01*
X-446068Y97178D01*
X-443388Y96460D01*
X-443270D01*
Y105730D01*
D02*
G37*
G36*
X-420210Y91790D02*
X-438730D01*
Y81270D01*
X-420210D01*
Y91790D01*
D02*
G37*
G36*
X-441270D02*
X-459790D01*
Y81270D01*
X-441270D01*
Y91790D01*
D02*
G37*
G36*
X-420210Y78730D02*
X-438730D01*
Y68210D01*
X-420210D01*
Y78730D01*
D02*
G37*
G36*
X-441270D02*
X-459790D01*
Y68210D01*
X-441270D01*
Y78730D01*
D02*
G37*
G36*
X63018Y255985D02*
X61182D01*
X59408Y255510D01*
X57817Y254591D01*
X56519Y253293D01*
X55600Y251702D01*
X55125Y249928D01*
Y248092D01*
X55600Y246318D01*
X56519Y244727D01*
X57817Y243429D01*
X59408Y242510D01*
X61182Y242035D01*
X63018D01*
X64792Y242510D01*
X66383Y243429D01*
X67681Y244727D01*
X68600Y246318D01*
X69075Y248092D01*
Y249928D01*
X68600Y251702D01*
X67681Y253293D01*
X66383Y254591D01*
X64792Y255510D01*
X63018Y255985D01*
D02*
G37*
G36*
X45922Y263000D02*
X44078D01*
X42298Y262523D01*
X40702Y261601D01*
X39399Y260298D01*
X38477Y258702D01*
X38000Y256922D01*
Y255078D01*
X38477Y253298D01*
X39399Y251702D01*
X40702Y250399D01*
X42298Y249477D01*
X44078Y249000D01*
X45838D01*
X45922Y249000D01*
X46162Y248974D01*
X46543Y247852D01*
X46104Y247670D01*
X45145Y247273D01*
X43727Y245855D01*
X43390Y245040D01*
X40460D01*
Y239520D01*
X53540D01*
Y245040D01*
X52610D01*
X52273Y245855D01*
X50855Y247273D01*
X49002Y248040D01*
X47731D01*
X47246Y248040D01*
X47078Y249310D01*
X47702Y249477D01*
X49298Y250399D01*
X50601Y251702D01*
X51523Y253298D01*
X52000Y255078D01*
Y256922D01*
X51523Y258702D01*
X50601Y260298D01*
X49298Y261601D01*
X47702Y262523D01*
X45922Y263000D01*
D02*
G37*
G36*
X83000Y251000D02*
X73000D01*
Y238000D01*
X83000D01*
Y251000D01*
D02*
G37*
G36*
X-63460Y239040D02*
X-68730D01*
Y233520D01*
X-63460D01*
Y239040D01*
D02*
G37*
G36*
X-71270D02*
X-76540D01*
Y233520D01*
X-71270D01*
Y239040D01*
D02*
G37*
G36*
X-657Y256500D02*
X-4343D01*
X-7904Y255546D01*
X-11096Y253703D01*
X-13703Y251096D01*
X-15546Y247904D01*
X-16500Y244343D01*
Y240657D01*
X-15546Y237096D01*
X-13703Y233904D01*
X-11096Y231297D01*
X-7904Y229454D01*
X-4343Y228500D01*
X-657D01*
X2904Y229454D01*
X6096Y231297D01*
X8703Y233904D01*
X10546Y237096D01*
X11500Y240657D01*
Y244343D01*
X10546Y247904D01*
X8703Y251096D01*
X6096Y253703D01*
X2904Y255546D01*
X-657Y256500D01*
D02*
G37*
G36*
X-38105Y229017D02*
X-39895D01*
X-41549Y228332D01*
X-42815Y227066D01*
X-43500Y225412D01*
Y223622D01*
X-42815Y221968D01*
X-41549Y220702D01*
X-39895Y220017D01*
X-38105D01*
X-36451Y220702D01*
X-35185Y221968D01*
X-34500Y223622D01*
Y225412D01*
X-35185Y227066D01*
X-36451Y228332D01*
X-38105Y229017D01*
D02*
G37*
G36*
X-9105Y225500D02*
X-10895D01*
X-12549Y224815D01*
X-13815Y223549D01*
X-14500Y221895D01*
Y220105D01*
X-13815Y218451D01*
X-12549Y217185D01*
X-10895Y216500D01*
X-9105D01*
X-7451Y217185D01*
X-6185Y218451D01*
X-5500Y220105D01*
Y221895D01*
X-6185Y223549D01*
X-7451Y224815D01*
X-9105Y225500D01*
D02*
G37*
G36*
X-63460Y230980D02*
X-76540D01*
Y225460D01*
X-76000D01*
Y213500D01*
X-64000D01*
Y225460D01*
X-63460D01*
Y230980D01*
D02*
G37*
G36*
X41020Y214903D02*
Y211244D01*
X44679D01*
X44023Y212829D01*
X42605Y214247D01*
X41020Y214903D01*
D02*
G37*
G36*
X38480D02*
X36895Y214247D01*
X35477Y212829D01*
X34821Y211244D01*
X38480D01*
Y214903D01*
D02*
G37*
G36*
X53540Y236980D02*
X40460D01*
Y231460D01*
X41000D01*
Y219500D01*
X48674D01*
X49837Y218337D01*
X49837Y218337D01*
X50830Y217674D01*
X52000Y217441D01*
X64418D01*
X65029Y216171D01*
X64500Y214895D01*
Y213105D01*
X65185Y211451D01*
X66451Y210185D01*
X68105Y209500D01*
X69895D01*
X71549Y210185D01*
X72815Y211451D01*
X74185D01*
X75451Y210185D01*
X77105Y209500D01*
X78895D01*
X80549Y210185D01*
X81815Y211451D01*
X82500Y213105D01*
Y213460D01*
X86230D01*
Y220500D01*
Y227540D01*
X81960D01*
Y227000D01*
X73000D01*
Y223559D01*
X68503D01*
X67925Y224829D01*
X68600Y225998D01*
X69075Y227772D01*
Y229608D01*
X68600Y231382D01*
X67681Y232973D01*
X66383Y234271D01*
X64792Y235190D01*
X63018Y235665D01*
X61182D01*
X59408Y235190D01*
X57817Y234271D01*
X56519Y232973D01*
X55600Y231382D01*
X55125Y229608D01*
Y227772D01*
X55600Y225998D01*
X56275Y224829D01*
X55697Y223559D01*
X53267D01*
X53000Y223826D01*
Y231460D01*
X53540D01*
Y236980D01*
D02*
G37*
G36*
X-84105Y217500D02*
X-85895D01*
X-87549Y216815D01*
X-88815Y215549D01*
X-89500Y213895D01*
Y212105D01*
X-88815Y210451D01*
X-87549Y209185D01*
X-85895Y208500D01*
X-84105D01*
X-82451Y209185D01*
X-81185Y210451D01*
X-80500Y212105D01*
Y213895D01*
X-81185Y215549D01*
X-82451Y216815D01*
X-84105Y217500D01*
D02*
G37*
G36*
X-64105Y209500D02*
X-65895D01*
X-67549Y208815D01*
X-68815Y207549D01*
X-69500Y205895D01*
Y204105D01*
X-68815Y202451D01*
X-67549Y201185D01*
X-65895Y200500D01*
X-64105D01*
X-62451Y201185D01*
X-61185Y202451D01*
X-60500Y204105D01*
Y205895D01*
X-61185Y207549D01*
X-62451Y208815D01*
X-64105Y209500D01*
D02*
G37*
G36*
X44679Y208704D02*
X34821D01*
X35477Y207119D01*
X36895Y205701D01*
X37968Y205257D01*
Y203882D01*
X37201Y203565D01*
X35935Y202299D01*
X35250Y200645D01*
Y198855D01*
X34946Y198400D01*
X30500D01*
Y190385D01*
X29327Y189899D01*
X23633Y195593D01*
Y197019D01*
X23815Y197201D01*
X24500Y198855D01*
Y200645D01*
X23815Y202299D01*
X22549Y203565D01*
X20895Y204250D01*
X19105D01*
X17451Y203565D01*
X16185Y202299D01*
X15500Y200645D01*
Y198855D01*
X16185Y197201D01*
X17451Y195935D01*
X17515Y195909D01*
Y194326D01*
X17515Y194326D01*
X17748Y193155D01*
X18411Y192163D01*
X30500Y180074D01*
Y172400D01*
X34691D01*
Y152017D01*
X33173Y150499D01*
X32000Y150985D01*
Y155000D01*
X18000D01*
Y137000D01*
X32000D01*
Y142198D01*
X33000Y142941D01*
X34170Y143174D01*
X35163Y143837D01*
X39913Y148587D01*
X40576Y149579D01*
X40809Y150750D01*
X40809Y150750D01*
Y172400D01*
X43500D01*
Y175201D01*
X44770Y175453D01*
X45185Y174451D01*
X46451Y173185D01*
X48105Y172500D01*
X49895D01*
X51549Y173185D01*
X52815Y174451D01*
X53500Y176105D01*
Y177895D01*
X52815Y179549D01*
X51549Y180815D01*
X49895Y181500D01*
X48105D01*
X46451Y180815D01*
X45185Y179549D01*
X44770Y178547D01*
X43500Y178799D01*
Y184400D01*
X34832D01*
X34097Y185291D01*
X34571Y186400D01*
X43500D01*
Y197136D01*
X43565Y197201D01*
X44250Y198855D01*
Y200645D01*
X43565Y202299D01*
X42299Y203565D01*
X41533Y203882D01*
Y205257D01*
X42605Y205701D01*
X44023Y207119D01*
X44679Y208704D01*
D02*
G37*
G36*
X-586Y202040D02*
X-1230D01*
Y188770D01*
X12040D01*
Y189414D01*
X11049Y193112D01*
X9135Y196428D01*
X6428Y199135D01*
X3112Y201049D01*
X-586Y202040D01*
D02*
G37*
G36*
X-3770D02*
X-4414D01*
X-8112Y201049D01*
X-11428Y199135D01*
X-14135Y196428D01*
X-16049Y193112D01*
X-17040Y189414D01*
Y188770D01*
X-3770D01*
Y202040D01*
D02*
G37*
G36*
X-120657Y211100D02*
X-124343D01*
X-127904Y210146D01*
X-131096Y208303D01*
X-133703Y205696D01*
X-135546Y202504D01*
X-136500Y198943D01*
Y195257D01*
X-135546Y191696D01*
X-133703Y188504D01*
X-131096Y185897D01*
X-127904Y184054D01*
X-124343Y183100D01*
X-120657D01*
X-117096Y184054D01*
X-113904Y185897D01*
X-111297Y188504D01*
X-109454Y191696D01*
X-108500Y195257D01*
Y198943D01*
X-109454Y202504D01*
X-111297Y205696D01*
X-113904Y208303D01*
X-117096Y210146D01*
X-120657Y211100D01*
D02*
G37*
G36*
X-3770Y186230D02*
X-17040D01*
Y185586D01*
X-16049Y181888D01*
X-15805Y181465D01*
X-16821Y180685D01*
X-17451Y181315D01*
X-19105Y182000D01*
X-20895D01*
X-22549Y181315D01*
X-23815Y180049D01*
X-24500Y178395D01*
Y176605D01*
X-23815Y174951D01*
X-22549Y173685D01*
X-20895Y173000D01*
X-19105D01*
X-17451Y173685D01*
X-16185Y174951D01*
X-15500Y176605D01*
Y178395D01*
X-15502Y178401D01*
X-14361Y178964D01*
X-14135Y178572D01*
X-11428Y175865D01*
X-8112Y173951D01*
X-4414Y172960D01*
X-3770D01*
Y186230D01*
D02*
G37*
G36*
X-54105Y189500D02*
X-55895D01*
X-57549Y188815D01*
X-58815Y187549D01*
X-59500Y185895D01*
Y184105D01*
X-58815Y182451D01*
X-57549Y181185D01*
X-55895Y180500D01*
X-54105D01*
X-52451Y181185D01*
X-51185Y182451D01*
X-50500Y184105D01*
Y185895D01*
X-51185Y187549D01*
X-52451Y188815D01*
X-54105Y189500D01*
D02*
G37*
G36*
X12040Y186230D02*
X-1230D01*
Y172960D01*
X-586D01*
X3112Y173951D01*
X6428Y175865D01*
X9135Y178572D01*
X11049Y181888D01*
X12040Y185586D01*
Y186230D01*
D02*
G37*
G36*
X-79230Y169903D02*
Y166244D01*
X-75571D01*
X-76227Y167829D01*
X-77645Y169247D01*
X-79230Y169903D01*
D02*
G37*
G36*
X-81770D02*
X-83355Y169247D01*
X-84773Y167829D01*
X-85429Y166244D01*
X-81770D01*
Y169903D01*
D02*
G37*
G36*
X-158105Y174500D02*
X-159895D01*
X-161549Y173815D01*
X-162815Y172549D01*
X-163500Y170895D01*
Y169105D01*
X-162815Y167451D01*
X-161549Y166185D01*
X-159895Y165500D01*
X-158105D01*
X-156451Y166185D01*
X-155185Y167451D01*
X-154500Y169105D01*
Y170895D01*
X-155185Y172549D01*
X-156451Y173815D01*
X-158105Y174500D01*
D02*
G37*
G36*
X179895Y173500D02*
X178105D01*
X176451Y172815D01*
X175185Y171549D01*
X174500Y169895D01*
Y168105D01*
X175185Y166451D01*
X176451Y165185D01*
X178105Y164500D01*
X179895D01*
X181549Y165185D01*
X182815Y166451D01*
X183500Y168105D01*
Y169895D01*
X182815Y171549D01*
X181549Y172815D01*
X179895Y173500D01*
D02*
G37*
G36*
X-178108Y181096D02*
X-191204Y168000D01*
X-183765Y160561D01*
X-170670Y173657D01*
X-178108Y181096D01*
D02*
G37*
G36*
X-75571Y163704D02*
X-79230D01*
Y160045D01*
X-77645Y160701D01*
X-76227Y162119D01*
X-75571Y163704D01*
D02*
G37*
G36*
X-81770D02*
X-85429D01*
X-84773Y162119D01*
X-83355Y160701D01*
X-81770Y160045D01*
Y163704D01*
D02*
G37*
G36*
X162230Y163540D02*
X155460D01*
Y155270D01*
X162230D01*
Y163540D01*
D02*
G37*
G36*
X141230Y168730D02*
X132629D01*
Y158525D01*
X132869Y156704D01*
X133572Y155007D01*
X134690Y153550D01*
X136147Y152432D01*
X137844Y151729D01*
X139664Y151489D01*
X141230D01*
Y168730D01*
D02*
G37*
G36*
X-54355Y158750D02*
X-56145D01*
X-57799Y158065D01*
X-59065Y156799D01*
X-59750Y155145D01*
Y153355D01*
X-59065Y151701D01*
X-57799Y150435D01*
X-56145Y149750D01*
X-54355D01*
X-52701Y150435D01*
X-51435Y151701D01*
X-50750Y153355D01*
Y155145D01*
X-51435Y156799D01*
X-52701Y158065D01*
X-54355Y158750D01*
D02*
G37*
G36*
X-22960Y152540D02*
X-31230D01*
Y145770D01*
X-22960D01*
Y152540D01*
D02*
G37*
G36*
X-33770D02*
X-42040D01*
Y145770D01*
X-33770D01*
Y152540D01*
D02*
G37*
G36*
X-193000Y166204D02*
X-206096Y153108D01*
X-198657Y145670D01*
X-185561Y158765D01*
X-193000Y166204D01*
D02*
G37*
G36*
X162230Y152730D02*
X155460D01*
Y144460D01*
X162230D01*
Y152730D01*
D02*
G37*
G36*
X-120586Y156640D02*
X-121230D01*
Y143370D01*
X-107960D01*
Y144014D01*
X-108951Y147712D01*
X-110865Y151028D01*
X-113572Y153735D01*
X-116888Y155649D01*
X-120586Y156640D01*
D02*
G37*
G36*
X-140105Y165500D02*
X-141895D01*
X-143549Y164815D01*
X-144815Y163549D01*
X-145500Y161895D01*
Y160105D01*
X-144815Y158451D01*
X-143549Y157185D01*
X-141895Y156500D01*
X-141841D01*
X-141300Y156295D01*
Y154505D01*
X-140615Y152851D01*
X-139349Y151585D01*
X-137695Y150900D01*
X-135905D01*
X-135603Y151025D01*
X-134719Y150017D01*
X-136049Y147712D01*
X-137040Y144014D01*
Y143370D01*
X-123770D01*
Y156640D01*
X-124414D01*
X-128112Y155649D01*
X-131187Y153874D01*
X-132008Y154340D01*
X-132300Y154644D01*
Y156295D01*
X-132985Y157949D01*
X-134251Y159215D01*
X-135905Y159900D01*
X-135959D01*
X-136500Y160105D01*
Y161895D01*
X-137185Y163549D01*
X-138451Y164815D01*
X-140105Y165500D01*
D02*
G37*
G36*
X-6270Y156764D02*
X-6651D01*
X-9890Y156120D01*
X-12941Y154856D01*
X-15686Y153021D01*
X-18021Y150686D01*
X-19856Y147941D01*
X-21120Y144890D01*
X-21690Y142023D01*
X-22960Y142148D01*
Y143230D01*
X-31230D01*
Y136460D01*
X-22960D01*
Y137852D01*
X-21690Y137977D01*
X-21120Y135110D01*
X-19856Y132059D01*
X-18021Y129314D01*
X-15686Y126979D01*
X-12941Y125144D01*
X-9890Y123880D01*
X-6651Y123236D01*
X-6270D01*
Y140000D01*
Y156764D01*
D02*
G37*
G36*
X-3349D02*
X-3730D01*
Y141270D01*
X11764D01*
Y141651D01*
X11120Y144890D01*
X9856Y147941D01*
X8021Y150686D01*
X5686Y153021D01*
X2941Y154856D01*
X-110Y156120D01*
X-3349Y156764D01*
D02*
G37*
G36*
X-33770Y143230D02*
X-42040D01*
Y136460D01*
X-33770D01*
Y143230D01*
D02*
G37*
G36*
X-64105Y141500D02*
X-65895D01*
X-67549Y140815D01*
X-68815Y139549D01*
X-69500Y137895D01*
Y136105D01*
X-68815Y134451D01*
X-67549Y133185D01*
X-65895Y132500D01*
X-64105D01*
X-62451Y133185D01*
X-61185Y134451D01*
X-60500Y136105D01*
Y137895D01*
X-61185Y139549D01*
X-62451Y140815D01*
X-64105Y141500D01*
D02*
G37*
G36*
X-107960Y140830D02*
X-121230D01*
Y127560D01*
X-120586D01*
X-116888Y128551D01*
X-113572Y130465D01*
X-110865Y133172D01*
X-108951Y136488D01*
X-107960Y140186D01*
Y140830D01*
D02*
G37*
G36*
X-123770D02*
X-137040D01*
Y140186D01*
X-136049Y136488D01*
X-134135Y133172D01*
X-131428Y130465D01*
X-128112Y128551D01*
X-124414Y127560D01*
X-123770D01*
Y140830D01*
D02*
G37*
G36*
X11764Y138730D02*
X-3730D01*
Y123236D01*
X-3349D01*
X-110Y123880D01*
X2941Y125144D01*
X5686Y126979D01*
X6787Y128079D01*
X7960Y127593D01*
Y125270D01*
X14230D01*
Y133540D01*
X11612D01*
X10907Y134596D01*
X11120Y135110D01*
X11764Y138349D01*
Y138730D01*
D02*
G37*
G36*
X220320Y132665D02*
Y123275D01*
X224403D01*
Y127564D01*
X223996Y129613D01*
X222836Y131350D01*
X221099Y132510D01*
X220320Y132665D01*
D02*
G37*
G36*
X217780Y132665D02*
X217001Y132510D01*
X215264Y131350D01*
X214104Y129613D01*
X213696Y127564D01*
Y123275D01*
X217780D01*
Y132665D01*
D02*
G37*
G36*
X152480Y128540D02*
X146960D01*
Y123270D01*
X152480D01*
Y128540D01*
D02*
G37*
G36*
Y120730D02*
X146960D01*
Y115460D01*
X152480D01*
Y120730D01*
D02*
G37*
G36*
X-23500Y133000D02*
X-41500D01*
Y118000D01*
X-40270D01*
X-39000Y118000D01*
Y106000D01*
X-26000D01*
Y118000D01*
X-24730Y118000D01*
X-23500D01*
Y133000D01*
D02*
G37*
G36*
X-190105Y106500D02*
X-191895D01*
X-193549Y105815D01*
X-194305Y105059D01*
X-204000D01*
X-204000Y105059D01*
X-205171Y104826D01*
X-206163Y104163D01*
X-206163Y104163D01*
X-211267Y99059D01*
X-215500D01*
Y102000D01*
X-228500D01*
Y90000D01*
X-215500D01*
Y92941D01*
X-210000D01*
X-210000Y92941D01*
X-208829Y93174D01*
X-207837Y93837D01*
X-202733Y98941D01*
X-194305D01*
X-193549Y98185D01*
X-192313Y97673D01*
X-192313Y96327D01*
X-193549Y95815D01*
X-194815Y94549D01*
X-195500Y92895D01*
Y91105D01*
X-194815Y89451D01*
X-193549Y88185D01*
X-192313Y87673D01*
X-192314Y86327D01*
X-193549Y85815D01*
X-194305Y85059D01*
X-215500D01*
Y88000D01*
X-228500D01*
Y76000D01*
X-215500D01*
Y78941D01*
X-194305D01*
X-193549Y78185D01*
X-192313Y77673D01*
X-192313Y76327D01*
X-193549Y75815D01*
X-194815Y74549D01*
X-195500Y72895D01*
Y71105D01*
X-194815Y69451D01*
X-193549Y68185D01*
X-192313Y67673D01*
Y66327D01*
X-193549Y65815D01*
X-194815Y64549D01*
X-195500Y62895D01*
Y61105D01*
X-194815Y59451D01*
X-193549Y58185D01*
X-191895Y57500D01*
X-190105D01*
X-188451Y58185D01*
X-187185Y59451D01*
X-186500Y61105D01*
Y62895D01*
X-187185Y64549D01*
X-188451Y65815D01*
X-189687Y66327D01*
Y67673D01*
X-188451Y68185D01*
X-187185Y69451D01*
X-186500Y71105D01*
Y72895D01*
X-187185Y74549D01*
X-188451Y75815D01*
X-189687Y76327D01*
X-189687Y77673D01*
X-188451Y78185D01*
X-187185Y79451D01*
X-186500Y81105D01*
Y82895D01*
X-187185Y84549D01*
X-188451Y85815D01*
X-189686Y86327D01*
X-189686Y87673D01*
X-188451Y88185D01*
X-187185Y89451D01*
X-186500Y91105D01*
Y92895D01*
X-187185Y94549D01*
X-188451Y95815D01*
X-189687Y96327D01*
X-189687Y97673D01*
X-188451Y98185D01*
X-187185Y99451D01*
X-186500Y101105D01*
Y102895D01*
X-187185Y104549D01*
X-188451Y105815D01*
X-190105Y106500D01*
D02*
G37*
G36*
X-98855Y159250D02*
X-100645D01*
X-102299Y158565D01*
X-103565Y157299D01*
X-104250Y155645D01*
Y153855D01*
X-103565Y152201D01*
X-102809Y151445D01*
Y149250D01*
X-102809Y149250D01*
X-102576Y148080D01*
X-101913Y147087D01*
X-89500Y134674D01*
Y127000D01*
X-86059D01*
Y108577D01*
X-85826Y107407D01*
X-85163Y106414D01*
X-84171Y105751D01*
X-83059Y105530D01*
Y103659D01*
X-88000D01*
Y109600D01*
X-102000D01*
Y91600D01*
X-88000D01*
Y97541D01*
X-80000D01*
X-78829Y97774D01*
X-77837Y98437D01*
X-77174Y99429D01*
X-76941Y100600D01*
Y104933D01*
X-75846Y106028D01*
X-75161Y107682D01*
Y109473D01*
X-75846Y111126D01*
X-77112Y112392D01*
X-78766Y113077D01*
X-79941D01*
Y127000D01*
X-76500D01*
Y139000D01*
X-85168D01*
X-85903Y139891D01*
X-85429Y141000D01*
X-76500D01*
Y150860D01*
X-75935Y151425D01*
X-75250Y153079D01*
Y154869D01*
X-75935Y156523D01*
X-77201Y157789D01*
X-78855Y158474D01*
X-80645D01*
X-82299Y157789D01*
X-83565Y156523D01*
X-84250Y154869D01*
Y153079D01*
X-84303Y153000D01*
X-89500D01*
Y144985D01*
X-90673Y144499D01*
X-96691Y150517D01*
Y151445D01*
X-95935Y152201D01*
X-95250Y153855D01*
Y155645D01*
X-95935Y157299D01*
X-97201Y158565D01*
X-98855Y159250D01*
D02*
G37*
G36*
X23040Y133540D02*
X16770D01*
Y124000D01*
X15500D01*
Y122730D01*
X7960D01*
Y116624D01*
X-21224D01*
Y101059D01*
X-26000D01*
Y104000D01*
X-39000D01*
Y92000D01*
X-26000D01*
Y94941D01*
X-21224D01*
Y84176D01*
X11224D01*
Y114460D01*
X13960D01*
Y108770D01*
X20500D01*
X27040D01*
Y113423D01*
X27040Y113691D01*
X27069Y113923D01*
X27272Y113940D01*
X28500Y112809D01*
Y101000D01*
X40500D01*
Y114000D01*
X41152Y115000D01*
X41500D01*
Y133000D01*
X27500D01*
Y128900D01*
X26105D01*
X24451Y128215D01*
X24310Y128074D01*
X23040Y128600D01*
Y133540D01*
D02*
G37*
G36*
X27040Y106230D02*
X21770D01*
Y100460D01*
X27040D01*
Y106230D01*
D02*
G37*
G36*
X19230D02*
X13960D01*
Y100460D01*
X19230D01*
Y106230D01*
D02*
G37*
G36*
X-142960Y107140D02*
X-151230D01*
Y100370D01*
X-142960D01*
Y107140D01*
D02*
G37*
G36*
X-153770D02*
X-162040D01*
Y100370D01*
X-153770D01*
Y107140D01*
D02*
G37*
G36*
X-126270Y111364D02*
X-126651D01*
X-129890Y110720D01*
X-132941Y109456D01*
X-135686Y107621D01*
X-138021Y105286D01*
X-139856Y102541D01*
X-141120Y99490D01*
X-141690Y96623D01*
X-142960Y96748D01*
Y97830D01*
X-151230D01*
Y91060D01*
X-142960D01*
Y92452D01*
X-141690Y92577D01*
X-141120Y89710D01*
X-139856Y86659D01*
X-138021Y83913D01*
X-135686Y81579D01*
X-132941Y79744D01*
X-129890Y78480D01*
X-126651Y77836D01*
X-126270D01*
Y94600D01*
Y111364D01*
D02*
G37*
G36*
X-123349D02*
X-123730D01*
Y95870D01*
X-108236D01*
Y96251D01*
X-108880Y99490D01*
X-110144Y102541D01*
X-111979Y105286D01*
X-114314Y107621D01*
X-117059Y109456D01*
X-120110Y110720D01*
X-123349Y111364D01*
D02*
G37*
G36*
X-153770Y97830D02*
X-162040D01*
Y91060D01*
X-153770D01*
Y97830D01*
D02*
G37*
G36*
X-59105Y92500D02*
X-60895D01*
X-62549Y91815D01*
X-63815Y90549D01*
X-64500Y88895D01*
Y87105D01*
X-63815Y85451D01*
X-62549Y84185D01*
X-60895Y83500D01*
X-59105D01*
X-57451Y84185D01*
X-56185Y85451D01*
X-55500Y87105D01*
Y88895D01*
X-56185Y90549D01*
X-57451Y91815D01*
X-59105Y92500D01*
D02*
G37*
G36*
X-108236Y93330D02*
X-123730D01*
Y77836D01*
X-123349D01*
X-120110Y78480D01*
X-117059Y79744D01*
X-114314Y81579D01*
X-113213Y82679D01*
X-112040Y82193D01*
Y79870D01*
X-105770D01*
Y88140D01*
X-108388D01*
X-109093Y89196D01*
X-108880Y89710D01*
X-108236Y92949D01*
Y93330D01*
D02*
G37*
G36*
X59895Y87500D02*
X58105D01*
X56451Y86815D01*
X55185Y85549D01*
X54500Y83895D01*
Y82105D01*
X55185Y80451D01*
X56451Y79185D01*
X58105Y78500D01*
X59895D01*
X61549Y79185D01*
X62815Y80451D01*
X63500Y82105D01*
Y83895D01*
X62815Y85549D01*
X61549Y86815D01*
X59895Y87500D01*
D02*
G37*
G36*
X-143500Y87600D02*
X-161500D01*
Y72600D01*
X-160270D01*
X-159000Y72600D01*
Y60600D01*
X-146000D01*
Y72600D01*
X-144730Y72600D01*
X-143500D01*
Y87600D01*
D02*
G37*
G36*
X-96960Y88140D02*
X-103230D01*
Y78600D01*
X-104500D01*
Y77330D01*
X-112040D01*
Y71224D01*
X-141224D01*
Y55659D01*
X-146000D01*
Y58600D01*
X-159000D01*
Y46600D01*
X-146000D01*
Y49541D01*
X-141224D01*
Y38776D01*
X-108776D01*
Y69060D01*
X-106040D01*
Y63370D01*
X-99500D01*
X-92960D01*
Y68023D01*
X-92960Y68291D01*
X-92931Y68523D01*
X-92728Y68540D01*
X-91500Y67409D01*
Y55600D01*
X-79500D01*
Y68600D01*
X-78848Y69600D01*
X-78500D01*
Y87600D01*
X-92500D01*
Y83500D01*
X-93895D01*
X-95549Y82815D01*
X-95690Y82674D01*
X-96960Y83200D01*
Y88140D01*
D02*
G37*
G36*
X-92960Y60830D02*
X-98230D01*
Y55060D01*
X-92960D01*
Y60830D01*
D02*
G37*
G36*
X-100770D02*
X-106040D01*
Y55060D01*
X-100770D01*
Y60830D01*
D02*
G37*
G36*
X-164105Y52500D02*
X-165895D01*
X-167549Y51815D01*
X-168815Y50549D01*
X-169500Y48895D01*
Y47105D01*
X-168815Y45451D01*
X-167549Y44185D01*
X-165895Y43500D01*
X-164105D01*
X-162451Y44185D01*
X-161185Y45451D01*
X-160500Y47105D01*
Y48895D01*
X-161185Y50549D01*
X-162451Y51815D01*
X-164105Y52500D01*
D02*
G37*
G36*
X-587500Y202000D02*
X-600500D01*
Y199059D01*
X-614000D01*
X-614000Y199059D01*
X-615171Y198826D01*
X-616163Y198163D01*
X-619422Y194904D01*
X-620140Y195319D01*
X-622683Y196000D01*
X-625317D01*
X-627860Y195319D01*
X-630140Y194002D01*
X-632002Y192140D01*
X-633318Y189860D01*
X-634000Y187316D01*
Y184683D01*
X-633318Y182140D01*
X-632002Y179860D01*
X-630140Y177998D01*
X-627860Y176681D01*
X-627770Y176657D01*
Y175343D01*
X-627860Y175319D01*
X-630140Y174002D01*
X-632002Y172140D01*
X-633318Y169860D01*
X-634000Y167316D01*
Y164683D01*
X-633318Y162140D01*
X-632002Y159860D01*
X-630140Y157998D01*
X-627860Y156681D01*
X-627770Y156657D01*
Y155343D01*
X-627860Y155318D01*
X-630140Y154002D01*
X-632002Y152140D01*
X-633318Y149860D01*
X-634000Y147317D01*
Y144684D01*
X-633318Y142140D01*
X-632002Y139860D01*
X-630140Y137998D01*
X-628439Y137016D01*
X-628371Y136797D01*
X-628486Y135581D01*
X-630472Y134434D01*
X-632434Y132472D01*
X-633822Y130068D01*
X-634540Y127388D01*
Y127270D01*
X-624000D01*
X-613460D01*
Y127388D01*
X-614178Y130068D01*
X-615566Y132472D01*
X-617528Y134434D01*
X-619514Y135581D01*
X-619629Y136797D01*
X-619561Y137016D01*
X-617860Y137998D01*
X-615998Y139860D01*
X-614682Y142140D01*
X-614000Y144684D01*
Y147317D01*
X-614682Y149860D01*
X-615998Y152140D01*
X-617860Y154002D01*
X-620140Y155318D01*
X-620230Y155343D01*
Y156657D01*
X-620140Y156681D01*
X-617860Y157998D01*
X-615998Y159860D01*
X-614682Y162140D01*
X-614000Y164683D01*
Y167316D01*
X-614682Y169860D01*
X-615998Y172140D01*
X-617860Y174002D01*
X-620140Y175319D01*
X-620230Y175343D01*
Y176657D01*
X-620140Y176681D01*
X-617860Y177998D01*
X-615998Y179860D01*
X-614682Y182140D01*
X-614000Y184683D01*
Y187316D01*
X-614682Y189860D01*
X-615096Y190578D01*
X-612733Y192941D01*
X-600500D01*
Y190000D01*
X-587500D01*
Y202000D01*
D02*
G37*
G36*
X-576078Y190000D02*
X-577922D01*
X-579702Y189523D01*
X-581298Y188601D01*
X-582601Y187298D01*
X-583317Y186059D01*
X-587500D01*
Y188000D01*
X-600500D01*
Y176000D01*
X-593934D01*
Y169375D01*
X-593934Y169375D01*
X-593701Y168204D01*
X-593038Y167212D01*
X-591000Y165174D01*
Y164105D01*
X-590315Y162451D01*
X-589049Y161185D01*
X-587395Y160500D01*
X-585605D01*
X-583951Y161185D01*
X-582685Y162451D01*
X-582000Y164105D01*
Y165895D01*
X-582685Y167549D01*
X-583951Y168815D01*
X-585605Y169500D01*
X-586674D01*
X-587816Y170642D01*
Y176000D01*
X-587500D01*
Y179941D01*
X-583317D01*
X-582601Y178702D01*
X-581298Y177399D01*
X-579702Y176477D01*
X-577922Y176000D01*
X-576078D01*
X-574298Y176477D01*
X-572702Y177399D01*
X-571399Y178702D01*
X-570477Y180298D01*
X-570000Y182078D01*
Y183922D01*
X-570477Y185702D01*
X-571399Y187298D01*
X-572702Y188601D01*
X-574298Y189523D01*
X-576078Y190000D01*
D02*
G37*
G36*
X-585605Y153500D02*
X-587395D01*
X-589049Y152815D01*
X-590315Y151549D01*
X-591000Y149895D01*
Y148105D01*
X-590726Y147444D01*
X-590826Y147296D01*
X-591059Y146125D01*
Y136317D01*
X-592298Y135601D01*
X-593601Y134298D01*
X-594523Y132702D01*
X-595000Y130922D01*
Y129078D01*
X-594523Y127298D01*
X-593601Y125702D01*
X-592298Y124399D01*
X-590702Y123477D01*
X-588922Y123000D01*
X-587078D01*
X-585298Y123477D01*
X-583702Y124399D01*
X-582399Y125702D01*
X-581477Y127298D01*
X-581000Y129078D01*
Y130922D01*
X-581477Y132702D01*
X-582399Y134298D01*
X-583702Y135601D01*
X-584941Y136317D01*
Y144775D01*
X-583951Y145185D01*
X-582685Y146451D01*
X-582000Y148105D01*
Y149895D01*
X-582685Y151549D01*
X-583951Y152815D01*
X-585605Y153500D01*
D02*
G37*
G36*
X-613460Y124730D02*
X-622730D01*
Y115460D01*
X-622612D01*
X-619932Y116178D01*
X-617528Y117566D01*
X-615566Y119528D01*
X-614178Y121932D01*
X-613460Y124612D01*
Y124730D01*
D02*
G37*
G36*
X-625270D02*
X-634540D01*
Y124612D01*
X-633822Y121932D01*
X-632434Y119528D01*
X-630472Y117566D01*
X-628068Y116178D01*
X-625388Y115460D01*
X-625270D01*
Y124730D01*
D02*
G37*
G36*
X-600210Y91790D02*
X-618730D01*
Y81270D01*
X-600210D01*
Y91790D01*
D02*
G37*
G36*
X-621270D02*
X-639790D01*
Y81270D01*
X-621270D01*
Y91790D01*
D02*
G37*
G36*
X-600210Y78730D02*
X-618730D01*
Y68210D01*
X-600210D01*
Y78730D01*
D02*
G37*
G36*
X-621270D02*
X-639790D01*
Y68210D01*
X-621270D01*
Y78730D01*
D02*
G37*
G36*
X-521013Y6500D02*
X-522987D01*
X-524895Y5989D01*
X-526605Y5002D01*
X-528002Y3605D01*
X-528989Y1895D01*
X-529500Y-13D01*
Y-1987D01*
X-528989Y-3895D01*
X-528002Y-5605D01*
X-526605Y-7002D01*
X-524895Y-7989D01*
X-522987Y-8500D01*
X-521013D01*
X-519105Y-7989D01*
X-517395Y-7002D01*
X-515998Y-5605D01*
X-515011Y-3895D01*
X-514500Y-1987D01*
Y-13D01*
X-515011Y1895D01*
X-515998Y3605D01*
X-517395Y5002D01*
X-519105Y5989D01*
X-521013Y6500D01*
D02*
G37*
G36*
X-598270Y-7460D02*
X-598388D01*
X-601068Y-8178D01*
X-603472Y-9566D01*
X-605434Y-11528D01*
X-606822Y-13932D01*
X-607540Y-16612D01*
Y-16730D01*
X-598270D01*
Y-7460D01*
D02*
G37*
G36*
X-595612D02*
X-595730D01*
Y-18000D01*
Y-28540D01*
X-595612D01*
X-592932Y-27822D01*
X-590528Y-26434D01*
X-588566Y-24472D01*
X-587420Y-22486D01*
X-586203Y-22371D01*
X-585984Y-22439D01*
X-585002Y-24140D01*
X-583140Y-26002D01*
X-580860Y-27318D01*
X-580059Y-27533D01*
Y-50000D01*
X-580059Y-50000D01*
X-579826Y-51171D01*
X-579163Y-52163D01*
X-551163Y-80163D01*
X-550171Y-80826D01*
X-549000Y-81059D01*
X-522305D01*
X-521549Y-81815D01*
X-519895Y-82500D01*
X-518105D01*
X-516451Y-81815D01*
X-515185Y-80549D01*
X-514500Y-78895D01*
Y-77105D01*
X-515185Y-75451D01*
X-516451Y-74185D01*
X-518105Y-73500D01*
X-519895D01*
X-521549Y-74185D01*
X-522305Y-74941D01*
X-547733D01*
X-573941Y-48733D01*
Y-27533D01*
X-573140Y-27318D01*
X-570860Y-26002D01*
X-568998Y-24140D01*
X-567682Y-21860D01*
X-567657Y-21770D01*
X-566343D01*
X-566319Y-21860D01*
X-565002Y-24140D01*
X-563140Y-26002D01*
X-560860Y-27318D01*
X-558316Y-28000D01*
X-555684D01*
X-553140Y-27318D01*
X-550860Y-26002D01*
X-548998Y-24140D01*
X-547682Y-21860D01*
X-547657Y-21770D01*
X-546343D01*
X-546319Y-21860D01*
X-545002Y-24140D01*
X-543140Y-26002D01*
X-540860Y-27318D01*
X-538316Y-28000D01*
X-535684D01*
X-533140Y-27318D01*
X-530860Y-26002D01*
X-528998Y-24140D01*
X-527682Y-21860D01*
X-527000Y-19317D01*
Y-16683D01*
X-527682Y-14140D01*
X-528998Y-11860D01*
X-530860Y-9998D01*
X-533140Y-8681D01*
X-535684Y-8000D01*
X-538316D01*
X-540860Y-8681D01*
X-543140Y-9998D01*
X-545002Y-11860D01*
X-546319Y-14140D01*
X-546343Y-14230D01*
X-547657D01*
X-547682Y-14140D01*
X-548998Y-11860D01*
X-550860Y-9998D01*
X-553140Y-8681D01*
X-555684Y-8000D01*
X-558316D01*
X-560860Y-8681D01*
X-563140Y-9998D01*
X-565002Y-11860D01*
X-566319Y-14140D01*
X-566343Y-14230D01*
X-567657D01*
X-567682Y-14140D01*
X-568998Y-11860D01*
X-570860Y-9998D01*
X-573140Y-8681D01*
X-575684Y-8000D01*
X-578316D01*
X-580860Y-8681D01*
X-583140Y-9998D01*
X-585002Y-11860D01*
X-585984Y-13561D01*
X-586203Y-13629D01*
X-587420Y-13514D01*
X-588566Y-11528D01*
X-590528Y-9566D01*
X-592932Y-8178D01*
X-595612Y-7460D01*
D02*
G37*
G36*
X-598270Y-19270D02*
X-607540D01*
Y-19388D01*
X-606822Y-22068D01*
X-605434Y-24472D01*
X-603472Y-26434D01*
X-601068Y-27822D01*
X-598388Y-28540D01*
X-598270D01*
Y-19270D01*
D02*
G37*
G36*
X325000Y635591D02*
X322259Y635230D01*
X319705Y634172D01*
X317511Y632489D01*
X315828Y630295D01*
X314770Y627741D01*
X314409Y625000D01*
X314770Y622259D01*
X315828Y619705D01*
X317511Y617511D01*
X319705Y615828D01*
X322259Y614770D01*
X325000Y614409D01*
X327741Y614770D01*
X330295Y615828D01*
X332489Y617511D01*
X334172Y619705D01*
X335230Y622259D01*
X335591Y625000D01*
X335230Y627741D01*
X334172Y630295D01*
X332489Y632489D01*
X330295Y634172D01*
X327741Y635230D01*
X325000Y635591D01*
D02*
G37*
G36*
X-625000D02*
X-627741Y635230D01*
X-630295Y634172D01*
X-632489Y632489D01*
X-634172Y630295D01*
X-635230Y627741D01*
X-635591Y625000D01*
X-635230Y622259D01*
X-634172Y619705D01*
X-632489Y617511D01*
X-630295Y615828D01*
X-627741Y614770D01*
X-625000Y614409D01*
X-622259Y614770D01*
X-619705Y615828D01*
X-617511Y617511D01*
X-615828Y619705D01*
X-614770Y622259D01*
X-614409Y625000D01*
X-614770Y627741D01*
X-615828Y630295D01*
X-617511Y632489D01*
X-619705Y634172D01*
X-622259Y635230D01*
X-625000Y635591D01*
D02*
G37*
G36*
X179167Y518000D02*
X174833D01*
X170583Y517155D01*
X166579Y515496D01*
X162976Y513088D01*
X159911Y510024D01*
X157504Y506421D01*
X155845Y502417D01*
X155000Y498167D01*
Y493833D01*
X155845Y489583D01*
X157504Y485579D01*
X159911Y481976D01*
X162976Y478912D01*
X166579Y476504D01*
X170583Y474846D01*
X174833Y474000D01*
X179167D01*
X183417Y474846D01*
X187421Y476504D01*
X191024Y478912D01*
X194088Y481976D01*
X196496Y485579D01*
X198155Y489583D01*
X199000Y493833D01*
Y498167D01*
X198155Y502417D01*
X196496Y506421D01*
X194088Y510024D01*
X191024Y513088D01*
X187421Y515496D01*
X183417Y517155D01*
X179167Y518000D01*
D02*
G37*
G36*
X325000Y-314409D02*
X322259Y-314770D01*
X319705Y-315828D01*
X317511Y-317511D01*
X315828Y-319705D01*
X314770Y-322259D01*
X314409Y-325000D01*
X314770Y-327741D01*
X315828Y-330295D01*
X317511Y-332489D01*
X319705Y-334172D01*
X322259Y-335230D01*
X325000Y-335591D01*
X327741Y-335230D01*
X330295Y-334172D01*
X332489Y-332489D01*
X334172Y-330295D01*
X335230Y-327741D01*
X335591Y-325000D01*
X335230Y-322259D01*
X334172Y-319705D01*
X332489Y-317511D01*
X330295Y-315828D01*
X327741Y-314770D01*
X325000Y-314409D01*
D02*
G37*
%LPD*%
G36*
X327447Y634132D02*
X329727Y633187D01*
X331685Y631685D01*
X333187Y629727D01*
X334132Y627447D01*
X334454Y625000D01*
X334132Y622553D01*
X333187Y620273D01*
X331685Y618315D01*
X329727Y616813D01*
X327447Y615868D01*
X325000Y615546D01*
X322553Y615868D01*
X320273Y616813D01*
X318315Y618315D01*
X316813Y620273D01*
X315868Y622553D01*
X315546Y625000D01*
X315868Y627447D01*
X316813Y629727D01*
X318315Y631685D01*
X320273Y633187D01*
X322553Y634132D01*
X325000Y634454D01*
X327447Y634132D01*
D02*
G37*
%LPC*%
G36*
X325932Y632080D02*
X324068D01*
X322267Y631598D01*
X320653Y630665D01*
X319335Y629347D01*
X318403Y627733D01*
X317920Y625932D01*
Y624068D01*
X318403Y622267D01*
X319335Y620653D01*
X320653Y619335D01*
X322267Y618402D01*
X324068Y617920D01*
X325932D01*
X327733Y618402D01*
X329347Y619335D01*
X330665Y620653D01*
X331598Y622267D01*
X332080Y624068D01*
Y625932D01*
X331598Y627733D01*
X330665Y629347D01*
X329347Y630665D01*
X327733Y631598D01*
X325932Y632080D01*
D02*
G37*
%LPD*%
G36*
X-622553Y634132D02*
X-620273Y633187D01*
X-618315Y631685D01*
X-616813Y629727D01*
X-615868Y627447D01*
X-615546Y625000D01*
X-615868Y622553D01*
X-616813Y620273D01*
X-618315Y618315D01*
X-620273Y616813D01*
X-622553Y615868D01*
X-625000Y615546D01*
X-627447Y615868D01*
X-629727Y616813D01*
X-631685Y618315D01*
X-633187Y620273D01*
X-634132Y622553D01*
X-634454Y625000D01*
X-634132Y627447D01*
X-633187Y629727D01*
X-631685Y631685D01*
X-629727Y633187D01*
X-627447Y634132D01*
X-625000Y634454D01*
X-622553Y634132D01*
D02*
G37*
%LPC*%
G36*
X-624068Y632080D02*
X-625932D01*
X-627733Y631598D01*
X-629347Y630665D01*
X-630665Y629347D01*
X-631598Y627733D01*
X-632080Y625932D01*
Y624068D01*
X-631598Y622267D01*
X-630665Y620653D01*
X-629347Y619335D01*
X-627733Y618402D01*
X-625932Y617920D01*
X-624068D01*
X-622267Y618402D01*
X-620653Y619335D01*
X-619335Y620653D01*
X-618402Y622267D01*
X-617920Y624068D01*
Y625932D01*
X-618402Y627733D01*
X-619335Y629347D01*
X-620653Y630665D01*
X-622267Y631598D01*
X-624068Y632080D01*
D02*
G37*
%LPD*%
G36*
X327447Y-315868D02*
X329727Y-316813D01*
X331685Y-318315D01*
X333187Y-320273D01*
X334132Y-322553D01*
X334454Y-325000D01*
X334132Y-327447D01*
X333187Y-329727D01*
X331685Y-331685D01*
X329727Y-333187D01*
X327447Y-334132D01*
X325000Y-334454D01*
X322553Y-334132D01*
X320273Y-333187D01*
X318315Y-331685D01*
X316813Y-329727D01*
X315868Y-327447D01*
X315546Y-325000D01*
X315868Y-322553D01*
X316813Y-320273D01*
X318315Y-318315D01*
X320273Y-316813D01*
X322553Y-315868D01*
X325000Y-315546D01*
X327447Y-315868D01*
D02*
G37*
%LPC*%
G36*
X325932Y-317920D02*
X324068D01*
X322267Y-318403D01*
X320653Y-319335D01*
X319335Y-320653D01*
X318403Y-322267D01*
X317920Y-324068D01*
Y-325932D01*
X318403Y-327733D01*
X319335Y-329347D01*
X320653Y-330665D01*
X322267Y-331598D01*
X324068Y-332080D01*
X325932D01*
X327733Y-331598D01*
X329347Y-330665D01*
X330665Y-329347D01*
X331598Y-327733D01*
X332080Y-325932D01*
Y-324068D01*
X331598Y-322267D01*
X330665Y-320653D01*
X329347Y-319335D01*
X327733Y-318403D01*
X325932Y-317920D01*
D02*
G37*
G36*
X158040Y26540D02*
X152520D01*
Y21270D01*
X158040D01*
Y26540D01*
D02*
G37*
G36*
X220320Y28655D02*
Y19265D01*
X224403D01*
Y23554D01*
X223996Y25603D01*
X222836Y27339D01*
X221099Y28500D01*
X220320Y28655D01*
D02*
G37*
G36*
X217780Y28655D02*
X217001Y28500D01*
X215264Y27339D01*
X214104Y25603D01*
X213696Y23554D01*
Y19265D01*
X217780D01*
Y28655D01*
D02*
G37*
G36*
X158040Y18730D02*
X152520D01*
Y13460D01*
X158040D01*
Y18730D01*
D02*
G37*
G36*
X249730Y10540D02*
X249612D01*
X246932Y9822D01*
X244528Y8434D01*
X242566Y6472D01*
X241733Y5030D01*
X240267D01*
X239434Y6472D01*
X237472Y8434D01*
X235068Y9822D01*
X232388Y10540D01*
X232270D01*
Y0D01*
Y-10540D01*
X232388D01*
X235068Y-9822D01*
X237472Y-8434D01*
X239434Y-6472D01*
X240267Y-5030D01*
X241733D01*
X242566Y-6472D01*
X244528Y-8434D01*
X246932Y-9822D01*
X249612Y-10540D01*
X249730D01*
Y0D01*
Y10540D01*
D02*
G37*
G36*
X252388D02*
X252270D01*
Y1270D01*
X261540D01*
Y1388D01*
X260822Y4068D01*
X259434Y6472D01*
X257472Y8434D01*
X255068Y9822D01*
X252388Y10540D01*
D02*
G37*
G36*
X261540Y-1270D02*
X252270D01*
Y-10540D01*
X252388D01*
X255068Y-9822D01*
X257472Y-8434D01*
X259434Y-6472D01*
X260822Y-4068D01*
X261540Y-1388D01*
Y-1270D01*
D02*
G37*
G36*
X182540Y-14460D02*
X173520D01*
Y-23730D01*
X182540D01*
Y-14460D01*
D02*
G37*
G36*
X262290Y-23210D02*
X243770D01*
Y-33730D01*
X262290D01*
Y-23210D01*
D02*
G37*
G36*
X241230D02*
X222710D01*
Y-33730D01*
X241230D01*
Y-23210D01*
D02*
G37*
G36*
X182540Y-26270D02*
X173520D01*
Y-35540D01*
X182540D01*
Y-26270D01*
D02*
G37*
G36*
X158040Y-43770D02*
X152520D01*
Y-49040D01*
X158040D01*
Y-43770D01*
D02*
G37*
G36*
X68730Y-54270D02*
X59960D01*
Y-54322D01*
X60553Y-56534D01*
X59747Y-57633D01*
X59251Y-57500D01*
X56749D01*
X54333Y-58147D01*
X52167Y-59398D01*
X50398Y-61167D01*
X49148Y-63333D01*
X48500Y-65749D01*
Y-68251D01*
X49148Y-70667D01*
X50398Y-72833D01*
X52167Y-74602D01*
X54333Y-75853D01*
X56749Y-76500D01*
X59251D01*
X61667Y-75853D01*
X63833Y-74602D01*
X65602Y-72833D01*
X66853Y-70667D01*
X67500Y-68251D01*
Y-65749D01*
X67006Y-63907D01*
X67959Y-62847D01*
X68678Y-63040D01*
X68730D01*
Y-54270D01*
D02*
G37*
G36*
X-179105Y-49500D02*
X-180895D01*
X-182549Y-50185D01*
X-183815Y-51451D01*
X-184500Y-53105D01*
Y-54895D01*
X-183815Y-56549D01*
X-182549Y-57815D01*
X-180895Y-58500D01*
X-179105D01*
X-177451Y-57815D01*
X-176185Y-56549D01*
X-175500Y-54895D01*
Y-53105D01*
X-176185Y-51451D01*
X-177451Y-50185D01*
X-179105Y-49500D01*
D02*
G37*
G36*
X-59105Y-53500D02*
X-60895D01*
X-62549Y-54185D01*
X-63815Y-55451D01*
X-64500Y-57105D01*
Y-58895D01*
X-63815Y-60549D01*
X-62549Y-61815D01*
X-60895Y-62500D01*
X-59105D01*
X-57451Y-61815D01*
X-56185Y-60549D01*
X-55500Y-58895D01*
Y-57105D01*
X-56185Y-55451D01*
X-57451Y-54185D01*
X-59105Y-53500D01*
D02*
G37*
G36*
X-136460Y-60960D02*
X-141730D01*
Y-66730D01*
X-136460D01*
Y-60960D01*
D02*
G37*
G36*
X-144270D02*
X-149540D01*
Y-66730D01*
X-144270D01*
Y-60960D01*
D02*
G37*
G36*
X-169277Y-62500D02*
X-171067D01*
X-172721Y-63185D01*
X-173986Y-64451D01*
X-174672Y-66105D01*
Y-67895D01*
X-173986Y-69549D01*
X-172721Y-70815D01*
X-171067Y-71500D01*
X-169277D01*
X-167623Y-70815D01*
X-166357Y-69549D01*
X-165672Y-67895D01*
Y-66105D01*
X-166357Y-64451D01*
X-167623Y-63185D01*
X-169277Y-62500D01*
D02*
G37*
G36*
X-101276Y-44676D02*
X-133724D01*
Y-74960D01*
X-136460D01*
Y-69270D01*
X-143000D01*
X-149540D01*
Y-73923D01*
X-149540Y-74191D01*
X-149569Y-74423D01*
X-149772Y-74440D01*
X-151000Y-73309D01*
Y-61500D01*
X-163000D01*
Y-74500D01*
X-163652Y-75500D01*
X-164000D01*
Y-76441D01*
X-165307D01*
X-166063Y-75685D01*
X-167717Y-75000D01*
X-169508D01*
X-171161Y-75685D01*
X-172427Y-76951D01*
X-173113Y-78605D01*
Y-80395D01*
X-172427Y-82049D01*
X-172647Y-83155D01*
X-172721Y-83185D01*
X-173986Y-84451D01*
X-174672Y-86105D01*
Y-87895D01*
X-173986Y-89549D01*
X-172721Y-90815D01*
X-171485Y-91327D01*
X-171485Y-92673D01*
X-172721Y-93185D01*
X-173986Y-94451D01*
X-174672Y-96105D01*
Y-97895D01*
X-173986Y-99549D01*
X-172721Y-100815D01*
X-171067Y-101500D01*
X-169277D01*
X-167623Y-100815D01*
X-166357Y-99549D01*
X-165672Y-97895D01*
Y-96105D01*
X-166357Y-94451D01*
X-167623Y-93185D01*
X-168858Y-92673D01*
X-168858Y-91327D01*
X-167623Y-90815D01*
X-166357Y-89549D01*
X-165672Y-87895D01*
Y-86105D01*
X-166357Y-84451D01*
X-166137Y-83345D01*
X-166063Y-83315D01*
X-165307Y-82559D01*
X-164000D01*
Y-93500D01*
X-150000D01*
X-150000Y-76349D01*
X-149963Y-76032D01*
X-149677Y-75363D01*
X-149008Y-75077D01*
X-148691Y-75040D01*
X-148532Y-75040D01*
X-145540D01*
Y-83230D01*
X-138000D01*
X-130460D01*
Y-77124D01*
X-101276D01*
Y-61559D01*
X-96500D01*
Y-64500D01*
X-83500D01*
Y-52500D01*
X-96500D01*
Y-55441D01*
X-101276D01*
Y-44676D01*
D02*
G37*
G36*
X-234105Y-61500D02*
X-235895D01*
X-237549Y-62185D01*
X-238815Y-63451D01*
X-239500Y-65105D01*
Y-66895D01*
X-238947Y-68230D01*
X-239381Y-69186D01*
X-239660Y-69500D01*
X-241500D01*
Y-81500D01*
X-228500D01*
Y-69500D01*
X-230340D01*
X-230619Y-69186D01*
X-231053Y-68230D01*
X-230500Y-66895D01*
Y-65105D01*
X-231185Y-63451D01*
X-232451Y-62185D01*
X-234105Y-61500D01*
D02*
G37*
G36*
X-23105Y-75500D02*
X-24895D01*
X-26549Y-76185D01*
X-27815Y-77451D01*
X-28500Y-79105D01*
Y-80895D01*
X-27815Y-82549D01*
X-26549Y-83815D01*
X-24895Y-84500D01*
X-23105D01*
X-21451Y-83815D01*
X-20185Y-82549D01*
X-19500Y-80895D01*
Y-79105D01*
X-20185Y-77451D01*
X-21451Y-76185D01*
X-23105Y-75500D01*
D02*
G37*
G36*
X-193105Y-72500D02*
X-194895D01*
X-196549Y-73185D01*
X-197815Y-74451D01*
X-198500Y-76105D01*
Y-77895D01*
X-197815Y-79549D01*
X-197387Y-79977D01*
Y-86941D01*
X-228500D01*
Y-83500D01*
X-241500D01*
Y-95500D01*
X-228500D01*
Y-93059D01*
X-195500D01*
X-195500Y-93059D01*
X-194329Y-92826D01*
X-193337Y-92163D01*
X-192166Y-90991D01*
X-192166Y-90991D01*
X-191502Y-89999D01*
X-191270Y-88828D01*
X-191270Y-88828D01*
Y-80634D01*
X-190185Y-79549D01*
X-189500Y-77895D01*
Y-76105D01*
X-190185Y-74451D01*
X-191451Y-73185D01*
X-193105Y-72500D01*
D02*
G37*
G36*
X-118770Y-83736D02*
X-119151D01*
X-122390Y-84380D01*
X-125441Y-85644D01*
X-128186Y-87479D01*
X-129287Y-88579D01*
X-130460Y-88093D01*
Y-85770D01*
X-136730D01*
Y-94040D01*
X-134112D01*
X-133407Y-95096D01*
X-133620Y-95610D01*
X-134264Y-98849D01*
Y-99230D01*
X-118770D01*
Y-83736D01*
D02*
G37*
G36*
X71395Y-81469D02*
X69605D01*
X67951Y-82154D01*
X66685Y-83420D01*
X66000Y-85074D01*
Y-86864D01*
X66685Y-88518D01*
X67951Y-89784D01*
X69605Y-90469D01*
X71395D01*
X73049Y-89784D01*
X74315Y-88518D01*
X75000Y-86864D01*
Y-85074D01*
X74315Y-83420D01*
X73049Y-82154D01*
X71395Y-81469D01*
D02*
G37*
G36*
X-38105Y-82500D02*
X-39895D01*
X-41549Y-83185D01*
X-42815Y-84451D01*
X-43500Y-86105D01*
Y-87895D01*
X-42815Y-89549D01*
X-41549Y-90815D01*
X-39895Y-91500D01*
X-38105D01*
X-36451Y-90815D01*
X-35185Y-89549D01*
X-34500Y-87895D01*
Y-86105D01*
X-35185Y-84451D01*
X-36451Y-83185D01*
X-38105Y-82500D01*
D02*
G37*
G36*
X-16230Y-83500D02*
X-18020D01*
X-19674Y-84185D01*
X-20940Y-85451D01*
X-21625Y-87105D01*
Y-88895D01*
X-20940Y-90549D01*
X-19674Y-91815D01*
X-18020Y-92500D01*
X-16230D01*
X-14576Y-91815D01*
X-13310Y-90549D01*
X-12625Y-88895D01*
Y-87105D01*
X-13310Y-85451D01*
X-14576Y-84185D01*
X-16230Y-83500D01*
D02*
G37*
G36*
X-83500Y-66500D02*
X-96500D01*
Y-78500D01*
X-97770Y-78500D01*
X-99000D01*
Y-93500D01*
X-81000D01*
Y-78500D01*
X-82230D01*
X-83500Y-78500D01*
Y-66500D01*
D02*
G37*
G36*
X-139270Y-85770D02*
X-145540D01*
Y-94040D01*
X-139270D01*
Y-85770D01*
D02*
G37*
G36*
X-140500Y-97500D02*
X-154500D01*
Y-103441D01*
X-158328D01*
X-158328Y-103441D01*
X-159499Y-103674D01*
X-160491Y-104337D01*
X-160491Y-104337D01*
X-161663Y-105509D01*
X-162326Y-106501D01*
X-162559Y-107672D01*
X-162559Y-107672D01*
Y-132900D01*
X-166000D01*
Y-144900D01*
X-157332D01*
X-156597Y-145791D01*
X-157071Y-146900D01*
X-166000D01*
Y-158900D01*
X-164000D01*
Y-160645D01*
X-163315Y-162299D01*
X-162049Y-163565D01*
X-161747Y-163690D01*
X-162000Y-164960D01*
X-163253D01*
X-165105Y-165727D01*
X-166523Y-167145D01*
X-167179Y-168730D01*
X-157321D01*
X-157977Y-167145D01*
X-159395Y-165727D01*
X-159895Y-165520D01*
X-159643Y-164250D01*
X-158605D01*
X-156951Y-163565D01*
X-155685Y-162299D01*
X-155000Y-160645D01*
Y-158900D01*
X-153000D01*
Y-150885D01*
X-151827Y-150399D01*
X-146383Y-155843D01*
Y-157269D01*
X-146565Y-157451D01*
X-147250Y-159105D01*
Y-160895D01*
X-146565Y-162549D01*
X-145299Y-163815D01*
X-143645Y-164500D01*
X-141855D01*
X-140201Y-163815D01*
X-138935Y-162549D01*
X-138250Y-160895D01*
Y-159105D01*
X-138935Y-157451D01*
X-140201Y-156185D01*
X-140265Y-156159D01*
Y-154576D01*
X-140498Y-153405D01*
X-141161Y-152413D01*
X-141161Y-152413D01*
X-153000Y-140574D01*
Y-132900D01*
X-156441D01*
Y-109559D01*
X-154500D01*
Y-115500D01*
X-140500D01*
Y-97500D01*
D02*
G37*
G36*
X-80460Y-96960D02*
X-88730D01*
Y-103730D01*
X-80460D01*
Y-96960D01*
D02*
G37*
G36*
X-115849Y-83736D02*
X-116230D01*
Y-100500D01*
Y-117264D01*
X-115849D01*
X-112610Y-116620D01*
X-109559Y-115356D01*
X-106814Y-113521D01*
X-104479Y-111186D01*
X-102644Y-108441D01*
X-101380Y-105390D01*
X-100810Y-102523D01*
X-99540Y-102648D01*
Y-103730D01*
X-91270D01*
Y-96960D01*
X-99540D01*
Y-98352D01*
X-100810Y-98477D01*
X-101380Y-95610D01*
X-102644Y-92559D01*
X-104479Y-89814D01*
X-106814Y-87479D01*
X-109559Y-85644D01*
X-112610Y-84380D01*
X-115849Y-83736D01*
D02*
G37*
G36*
X-4210Y-100434D02*
X-9480D01*
Y-106204D01*
X-4210D01*
Y-100434D01*
D02*
G37*
G36*
X-12020D02*
X-17290D01*
Y-106204D01*
X-12020D01*
Y-100434D01*
D02*
G37*
G36*
X73480Y-109460D02*
X67960D01*
Y-111187D01*
X66690Y-111933D01*
X65645Y-111500D01*
X63855D01*
X62201Y-112185D01*
X60935Y-113451D01*
X60250Y-115105D01*
Y-116895D01*
X60935Y-118549D01*
X62201Y-119815D01*
X63855Y-120500D01*
X65645D01*
X66690Y-120067D01*
X67960Y-120813D01*
Y-122540D01*
X73480D01*
Y-116000D01*
Y-109460D01*
D02*
G37*
G36*
X-80460Y-106270D02*
X-88730D01*
Y-113040D01*
X-80460D01*
Y-106270D01*
D02*
G37*
G36*
X-91270D02*
X-99540D01*
Y-113040D01*
X-91270D01*
Y-106270D01*
D02*
G37*
G36*
X30974Y-84150D02*
X-1474D01*
Y-114434D01*
X-4210D01*
Y-108744D01*
X-10750D01*
X-17290D01*
Y-113397D01*
X-17290Y-113665D01*
X-17319Y-113897D01*
X-17522Y-113914D01*
X-18750Y-112783D01*
Y-100974D01*
X-30750D01*
Y-113974D01*
X-31402Y-114974D01*
X-31750D01*
Y-132974D01*
X-17750D01*
Y-128874D01*
X-16355D01*
X-14701Y-128189D01*
X-14560Y-128048D01*
X-13290Y-128574D01*
Y-133514D01*
X-7020D01*
Y-123974D01*
X-5750D01*
Y-122704D01*
X1790D01*
Y-116598D01*
X30974D01*
Y-101033D01*
X35750D01*
Y-103974D01*
X48750D01*
Y-91974D01*
X35750D01*
Y-94915D01*
X30974D01*
Y-84150D01*
D02*
G37*
G36*
X-118770Y-101770D02*
X-134264D01*
Y-102151D01*
X-133620Y-105390D01*
X-132356Y-108441D01*
X-130521Y-111186D01*
X-128186Y-113521D01*
X-125441Y-115356D01*
X-122390Y-116620D01*
X-119151Y-117264D01*
X-118770D01*
Y-101770D01*
D02*
G37*
G36*
X-131631Y-115500D02*
X-133421D01*
X-135075Y-116185D01*
X-136341Y-117451D01*
X-137026Y-119105D01*
Y-120895D01*
X-136341Y-122549D01*
X-135075Y-123815D01*
X-133421Y-124500D01*
X-131631D01*
X-129977Y-123815D01*
X-128711Y-122549D01*
X-128026Y-120895D01*
Y-119105D01*
X-128711Y-117451D01*
X-129977Y-116185D01*
X-131631Y-115500D01*
D02*
G37*
G36*
X13480Y-123210D02*
X13099D01*
X9860Y-123854D01*
X6809Y-125118D01*
X4064Y-126952D01*
X2963Y-128053D01*
X1790Y-127567D01*
Y-125244D01*
X-4480D01*
Y-133514D01*
X-1862D01*
X-1157Y-134570D01*
X-1370Y-135084D01*
X-2014Y-138323D01*
Y-138704D01*
X13480D01*
Y-123210D01*
D02*
G37*
G36*
X-59105Y-121500D02*
X-60895D01*
X-62549Y-122185D01*
X-63815Y-123451D01*
X-64500Y-125105D01*
Y-126895D01*
X-63815Y-128549D01*
X-62549Y-129815D01*
X-60895Y-130500D01*
X-59105D01*
X-57451Y-129815D01*
X-56185Y-128549D01*
X-55500Y-126895D01*
Y-125105D01*
X-56185Y-123451D01*
X-57451Y-122185D01*
X-59105Y-121500D01*
D02*
G37*
G36*
X48750Y-105974D02*
X35750D01*
Y-117974D01*
X34480Y-117974D01*
X33250D01*
Y-132974D01*
X51250D01*
Y-117974D01*
X50020D01*
X48750Y-117974D01*
Y-105974D01*
D02*
G37*
G36*
X51790Y-136434D02*
X43520D01*
Y-143204D01*
X51790D01*
Y-136434D01*
D02*
G37*
G36*
X16401Y-123210D02*
X16020D01*
Y-139974D01*
Y-156738D01*
X16401D01*
X19640Y-156094D01*
X22691Y-154830D01*
X25436Y-152995D01*
X27771Y-150660D01*
X29606Y-147915D01*
X30870Y-144864D01*
X31440Y-141997D01*
X32710Y-142122D01*
Y-143204D01*
X40980D01*
Y-136434D01*
X32710D01*
Y-137826D01*
X31440Y-137951D01*
X30870Y-135084D01*
X29606Y-132033D01*
X27771Y-129288D01*
X25436Y-126952D01*
X22691Y-125118D01*
X19640Y-123854D01*
X16401Y-123210D01*
D02*
G37*
G36*
X-67595Y-136010D02*
X-69385D01*
X-71039Y-136695D01*
X-72305Y-137961D01*
X-72990Y-139615D01*
Y-141405D01*
X-72305Y-143059D01*
X-71039Y-144325D01*
X-69385Y-145010D01*
X-67595D01*
X-65941Y-144325D01*
X-64675Y-143059D01*
X-63990Y-141405D01*
Y-139615D01*
X-64675Y-137961D01*
X-65941Y-136695D01*
X-67595Y-136010D01*
D02*
G37*
G36*
X-118086Y-133460D02*
X-118730D01*
Y-146730D01*
X-105460D01*
Y-146086D01*
X-106451Y-142388D01*
X-108365Y-139072D01*
X-111072Y-136365D01*
X-114388Y-134451D01*
X-118086Y-133460D01*
D02*
G37*
G36*
X-121270D02*
X-121914D01*
X-125612Y-134451D01*
X-128928Y-136365D01*
X-131635Y-139072D01*
X-133549Y-142388D01*
X-134540Y-146086D01*
Y-146730D01*
X-121270D01*
Y-133460D01*
D02*
G37*
G36*
X51790Y-145744D02*
X43520D01*
Y-152514D01*
X51790D01*
Y-145744D01*
D02*
G37*
G36*
X40980D02*
X32710D01*
Y-152514D01*
X40980D01*
Y-145744D01*
D02*
G37*
G36*
X-8250Y-136974D02*
X-22250D01*
Y-142915D01*
X-24865D01*
X-26036Y-143148D01*
X-27028Y-143811D01*
X-27028Y-143811D01*
X-30415Y-147198D01*
X-31484D01*
X-33138Y-147883D01*
X-34404Y-149149D01*
X-35089Y-150803D01*
Y-152593D01*
X-34404Y-154247D01*
X-33138Y-155513D01*
X-31484Y-156198D01*
X-31227D01*
X-30309Y-157116D01*
Y-172374D01*
X-33750D01*
Y-184374D01*
X-25082D01*
X-24347Y-185265D01*
X-24821Y-186374D01*
X-33750D01*
Y-196886D01*
X-33815Y-196951D01*
X-34500Y-198605D01*
Y-200395D01*
X-33815Y-202049D01*
X-32549Y-203315D01*
X-30895Y-204000D01*
X-29105D01*
X-27451Y-203315D01*
X-26185Y-202049D01*
X-25500Y-200395D01*
Y-198605D01*
X-25346Y-198374D01*
X-20750D01*
Y-190359D01*
X-19577Y-189873D01*
X-13931Y-195519D01*
Y-196817D01*
X-14065Y-196951D01*
X-14750Y-198605D01*
Y-200395D01*
X-14065Y-202049D01*
X-12799Y-203315D01*
X-11145Y-204000D01*
X-9355D01*
X-7701Y-203315D01*
X-6435Y-202049D01*
X-5750Y-200395D01*
Y-198605D01*
X-6435Y-196951D01*
X-7701Y-195685D01*
X-7765Y-195658D01*
Y-194300D01*
X-7765Y-194300D01*
X-7998Y-193129D01*
X-8661Y-192137D01*
X-8661Y-192137D01*
X-20750Y-180048D01*
Y-172374D01*
X-24191D01*
Y-155849D01*
X-24424Y-154678D01*
X-25087Y-153686D01*
X-25087Y-153686D01*
X-26116Y-152657D01*
X-26089Y-152593D01*
Y-151524D01*
X-23598Y-149033D01*
X-22250D01*
Y-154974D01*
X-8250D01*
Y-136974D01*
D02*
G37*
G36*
X-51605Y-146000D02*
X-53395D01*
X-55049Y-146685D01*
X-56315Y-147951D01*
X-57000Y-149605D01*
Y-151395D01*
X-56315Y-153049D01*
X-55049Y-154315D01*
X-53395Y-155000D01*
X-51605D01*
X-49951Y-154315D01*
X-48685Y-153049D01*
X-48000Y-151395D01*
Y-149605D01*
X-48685Y-147951D01*
X-49951Y-146685D01*
X-51605Y-146000D01*
D02*
G37*
G36*
X13480Y-141244D02*
X-2014D01*
Y-141625D01*
X-1370Y-144864D01*
X-106Y-147915D01*
X1729Y-150660D01*
X4064Y-152995D01*
X6809Y-154830D01*
X9860Y-156094D01*
X13099Y-156738D01*
X13480D01*
Y-141244D01*
D02*
G37*
G36*
X-105460Y-149270D02*
X-118730D01*
Y-162540D01*
X-118086D01*
X-114388Y-161549D01*
X-111072Y-159635D01*
X-108365Y-156928D01*
X-106451Y-153612D01*
X-105460Y-149914D01*
Y-149270D01*
D02*
G37*
G36*
X-121270D02*
X-134540D01*
Y-149914D01*
X-133549Y-153612D01*
X-131635Y-156928D01*
X-128928Y-159635D01*
X-125612Y-161549D01*
X-121914Y-162540D01*
X-121270D01*
Y-149270D01*
D02*
G37*
G36*
X-198657Y-145670D02*
X-206096Y-153108D01*
X-193000Y-166204D01*
X-185561Y-158765D01*
X-198657Y-145670D01*
D02*
G37*
G36*
X-44494Y-160889D02*
X-46284D01*
X-47938Y-161574D01*
X-49204Y-162840D01*
X-49889Y-164494D01*
Y-166284D01*
X-49204Y-167938D01*
X-47938Y-169204D01*
X-46284Y-169889D01*
X-44494D01*
X-42840Y-169204D01*
X-41574Y-167938D01*
X-40889Y-166284D01*
Y-164494D01*
X-41574Y-162840D01*
X-42840Y-161574D01*
X-44494Y-160889D01*
D02*
G37*
G36*
X-105Y-160900D02*
X-1895D01*
X-3549Y-161585D01*
X-4815Y-162851D01*
X-5500Y-164505D01*
Y-166295D01*
X-4815Y-167949D01*
X-3549Y-169215D01*
X-1895Y-169900D01*
X-105D01*
X1549Y-169215D01*
X2815Y-167949D01*
X3500Y-166295D01*
Y-164505D01*
X2815Y-162851D01*
X1549Y-161585D01*
X-105Y-160900D01*
D02*
G37*
G36*
X-157321Y-171270D02*
X-160980D01*
Y-174929D01*
X-159395Y-174273D01*
X-157977Y-172855D01*
X-157321Y-171270D01*
D02*
G37*
G36*
X-163520D02*
X-167179D01*
X-166523Y-172855D01*
X-165105Y-174273D01*
X-163520Y-174929D01*
Y-171270D01*
D02*
G37*
G36*
X-93605Y-166400D02*
X-95395D01*
X-97049Y-167085D01*
X-98315Y-168351D01*
X-99000Y-170005D01*
Y-171795D01*
X-98315Y-173449D01*
X-97049Y-174715D01*
X-95395Y-175400D01*
X-93605D01*
X-91951Y-174715D01*
X-90685Y-173449D01*
X-90000Y-171795D01*
Y-170005D01*
X-90685Y-168351D01*
X-91951Y-167085D01*
X-93605Y-166400D01*
D02*
G37*
G36*
X-125605D02*
X-127395D01*
X-129049Y-167085D01*
X-130315Y-168351D01*
X-131000Y-170005D01*
Y-171795D01*
X-130315Y-173449D01*
X-129049Y-174715D01*
X-127395Y-175400D01*
X-125605D01*
X-123951Y-174715D01*
X-122685Y-173449D01*
X-122000Y-171795D01*
Y-170005D01*
X-122685Y-168351D01*
X-123951Y-167085D01*
X-125605Y-166400D01*
D02*
G37*
G36*
X-183765Y-160561D02*
X-191204Y-168000D01*
X-178108Y-181096D01*
X-170670Y-173657D01*
X-183765Y-160561D01*
D02*
G37*
G36*
X14164Y-172934D02*
X13520D01*
Y-186204D01*
X26790D01*
Y-185560D01*
X26118Y-183052D01*
X27183Y-182118D01*
X28105Y-182500D01*
X29895D01*
X31549Y-181815D01*
X32815Y-180549D01*
X33500Y-178895D01*
Y-177105D01*
X32815Y-175451D01*
X31549Y-174185D01*
X29895Y-173500D01*
X28105D01*
X26451Y-174185D01*
X25185Y-175451D01*
X24500Y-177105D01*
Y-177365D01*
X23230Y-177891D01*
X21178Y-175839D01*
X17862Y-173925D01*
X14164Y-172934D01*
D02*
G37*
G36*
X-52717Y-180217D02*
X-57987D01*
Y-185737D01*
X-52717D01*
Y-180217D01*
D02*
G37*
G36*
X-60527D02*
X-65797D01*
Y-185737D01*
X-60527D01*
Y-180217D01*
D02*
G37*
G36*
X10980Y-172934D02*
X10336D01*
X6638Y-173925D01*
X3322Y-175839D01*
X615Y-178546D01*
X-1299Y-181862D01*
X-2290Y-185560D01*
Y-186204D01*
X10980D01*
Y-172934D01*
D02*
G37*
G36*
X-171105Y-179500D02*
X-172895D01*
X-174549Y-180185D01*
X-175815Y-181451D01*
X-176500Y-183105D01*
Y-184895D01*
X-175815Y-186549D01*
X-174549Y-187815D01*
X-172895Y-188500D01*
X-171105D01*
X-169451Y-187815D01*
X-168185Y-186549D01*
X-167500Y-184895D01*
Y-183105D01*
X-168185Y-181451D01*
X-169451Y-180185D01*
X-171105Y-179500D01*
D02*
G37*
G36*
X-173105Y-190500D02*
X-174895D01*
X-176549Y-191185D01*
X-177815Y-192451D01*
X-178500Y-194105D01*
Y-195895D01*
X-177815Y-197549D01*
X-176549Y-198815D01*
X-174895Y-199500D01*
X-173105D01*
X-171451Y-198815D01*
X-170185Y-197549D01*
X-169500Y-195895D01*
Y-194105D01*
X-170185Y-192451D01*
X-171451Y-191185D01*
X-173105Y-190500D01*
D02*
G37*
G36*
X63540Y-195960D02*
X58270D01*
Y-201480D01*
X63540D01*
Y-195960D01*
D02*
G37*
G36*
X55730D02*
X50460D01*
Y-201480D01*
X55730D01*
Y-195960D01*
D02*
G37*
G36*
X26790Y-188744D02*
X13520D01*
Y-202014D01*
X14164D01*
X17862Y-201023D01*
X21178Y-199109D01*
X23885Y-196402D01*
X25799Y-193086D01*
X26790Y-189388D01*
Y-188744D01*
D02*
G37*
G36*
X10980D02*
X-2290D01*
Y-189388D01*
X-1299Y-193086D01*
X615Y-196402D01*
X3322Y-199109D01*
X6638Y-201023D01*
X10336Y-202014D01*
X10980D01*
Y-188744D01*
D02*
G37*
G36*
X-52717Y-188277D02*
X-65797D01*
Y-193797D01*
X-65257D01*
Y-205757D01*
X-53257D01*
Y-193797D01*
X-52717D01*
Y-188277D01*
D02*
G37*
G36*
X-28754Y-205571D02*
Y-209230D01*
X-25095D01*
X-25751Y-207645D01*
X-27169Y-206227D01*
X-28754Y-205571D01*
D02*
G37*
G36*
X-31294D02*
X-32879Y-206227D01*
X-34297Y-207645D01*
X-34953Y-209230D01*
X-31294D01*
Y-205571D01*
D02*
G37*
G36*
X-25095Y-211770D02*
X-28754D01*
Y-215429D01*
X-27169Y-214773D01*
X-25751Y-213355D01*
X-25095Y-211770D01*
D02*
G37*
G36*
X-31294D02*
X-34953D01*
X-34297Y-213355D01*
X-32879Y-214773D01*
X-31294Y-215429D01*
Y-211770D01*
D02*
G37*
G36*
X-118157Y-189000D02*
X-121843D01*
X-125404Y-189954D01*
X-128596Y-191797D01*
X-131203Y-194404D01*
X-133046Y-197596D01*
X-134000Y-201157D01*
Y-204843D01*
X-133046Y-208404D01*
X-131203Y-211596D01*
X-128596Y-214203D01*
X-125404Y-216046D01*
X-121843Y-217000D01*
X-118157D01*
X-114596Y-216046D01*
X-111404Y-214203D01*
X-108797Y-211596D01*
X-106954Y-208404D01*
X-106000Y-204843D01*
Y-201157D01*
X-106954Y-197596D01*
X-108797Y-194404D01*
X-111404Y-191797D01*
X-114596Y-189954D01*
X-118157Y-189000D01*
D02*
G37*
G36*
X-43105Y-214500D02*
X-44895D01*
X-46549Y-215185D01*
X-47815Y-216451D01*
X-48500Y-218105D01*
Y-219895D01*
X-47815Y-221549D01*
X-46549Y-222815D01*
X-44895Y-223500D01*
X-43105D01*
X-41451Y-222815D01*
X-40185Y-221549D01*
X-39500Y-219895D01*
Y-218105D01*
X-40185Y-216451D01*
X-41451Y-215185D01*
X-43105Y-214500D01*
D02*
G37*
G36*
X96195Y-240850D02*
X94405D01*
X92751Y-241535D01*
X91485Y-242801D01*
X90800Y-244455D01*
Y-246245D01*
X91485Y-247899D01*
X92751Y-249165D01*
X94405Y-249850D01*
X96195D01*
X97849Y-249165D01*
X99115Y-247899D01*
X99800Y-246245D01*
Y-244455D01*
X99115Y-242801D01*
X97849Y-241535D01*
X96195Y-240850D01*
D02*
G37*
G36*
X-48105Y-227500D02*
X-49895D01*
X-51549Y-228185D01*
X-52815Y-229451D01*
X-53500Y-231105D01*
Y-232895D01*
X-52815Y-234549D01*
X-51549Y-235815D01*
X-50547Y-236230D01*
X-50794Y-237473D01*
X-51178Y-237500D01*
X-51255Y-237500D01*
X-66000D01*
Y-252500D01*
X-50000D01*
X-50000Y-237726D01*
X-49978Y-237466D01*
X-49748Y-237114D01*
X-49689Y-237093D01*
X-49424Y-237093D01*
X-48311Y-237093D01*
X-48252Y-237114D01*
X-48022Y-237466D01*
X-48000Y-237726D01*
X-48000Y-238418D01*
Y-252500D01*
X-32000D01*
Y-237500D01*
X-46745D01*
X-46822Y-237500D01*
X-47206Y-237473D01*
X-47453Y-236230D01*
X-46451Y-235815D01*
X-45185Y-234549D01*
X-44500Y-232895D01*
Y-231105D01*
X-45185Y-229451D01*
X-46451Y-228185D01*
X-48105Y-227500D01*
D02*
G37*
G36*
X14093Y-228474D02*
X10407D01*
X6846Y-229428D01*
X3654Y-231271D01*
X1047Y-233878D01*
X-796Y-237070D01*
X-1750Y-240631D01*
Y-244317D01*
X-796Y-247878D01*
X1047Y-251070D01*
X3654Y-253677D01*
X6846Y-255520D01*
X10407Y-256474D01*
X14093D01*
X17654Y-255520D01*
X20846Y-253677D01*
X23453Y-251070D01*
X25296Y-247878D01*
X26250Y-244317D01*
Y-240631D01*
X25296Y-237070D01*
X23453Y-233878D01*
X20846Y-231271D01*
X17654Y-229428D01*
X14093Y-228474D01*
D02*
G37*
G36*
X37895Y-250500D02*
X36105D01*
X34451Y-251185D01*
X33185Y-252451D01*
X32500Y-254105D01*
Y-255895D01*
X33185Y-257549D01*
X34451Y-258815D01*
X36105Y-259500D01*
X37895D01*
X39549Y-258815D01*
X40815Y-257549D01*
X41500Y-255895D01*
Y-254105D01*
X40815Y-252451D01*
X39549Y-251185D01*
X37895Y-250500D01*
D02*
G37*
G36*
X181040Y-189270D02*
X173770D01*
Y-193040D01*
X181040D01*
Y-189270D01*
D02*
G37*
G36*
X171230D02*
X163960D01*
Y-193040D01*
X171230D01*
Y-189270D01*
D02*
G37*
G36*
X198590Y-112270D02*
X190145D01*
Y-118590D01*
X196000Y-118590D01*
X196250Y-118540D01*
X198540D01*
Y-116250D01*
X198590Y-116000D01*
Y-112270D01*
D02*
G37*
G36*
X-522013Y-154500D02*
X-523987D01*
X-525895Y-155011D01*
X-527605Y-155998D01*
X-529002Y-157395D01*
X-529989Y-159105D01*
X-530500Y-161013D01*
Y-162987D01*
X-529989Y-164895D01*
X-529002Y-166605D01*
X-527605Y-168001D01*
X-525895Y-168989D01*
X-523987Y-169500D01*
X-522013D01*
X-520105Y-168989D01*
X-518395Y-168001D01*
X-516998Y-166605D01*
X-516011Y-164895D01*
X-515500Y-162987D01*
Y-161013D01*
X-516011Y-159105D01*
X-516998Y-157395D01*
X-518395Y-155998D01*
X-520105Y-155011D01*
X-522013Y-154500D01*
D02*
G37*
G36*
X-599270Y-168460D02*
X-599388D01*
X-602068Y-169178D01*
X-604472Y-170566D01*
X-606434Y-172528D01*
X-607822Y-174932D01*
X-608540Y-177612D01*
Y-177730D01*
X-599270D01*
Y-168460D01*
D02*
G37*
G36*
X-596612D02*
X-596730D01*
Y-179000D01*
Y-189540D01*
X-596612D01*
X-593932Y-188822D01*
X-591528Y-187434D01*
X-589566Y-185472D01*
X-588419Y-183486D01*
X-587203Y-183371D01*
X-586984Y-183439D01*
X-586002Y-185140D01*
X-584140Y-187002D01*
X-581860Y-188319D01*
X-581059Y-188533D01*
Y-211000D01*
X-581059Y-211000D01*
X-580826Y-212171D01*
X-580163Y-213163D01*
X-552163Y-241163D01*
X-551171Y-241826D01*
X-550000Y-242059D01*
X-523305D01*
X-522549Y-242815D01*
X-520895Y-243500D01*
X-519105D01*
X-517451Y-242815D01*
X-516185Y-241549D01*
X-515500Y-239895D01*
Y-238105D01*
X-516185Y-236451D01*
X-517451Y-235185D01*
X-519105Y-234500D01*
X-520895D01*
X-522549Y-235185D01*
X-523305Y-235941D01*
X-548733D01*
X-574941Y-209733D01*
Y-188533D01*
X-574140Y-188319D01*
X-571860Y-187002D01*
X-569998Y-185140D01*
X-568681Y-182860D01*
X-568657Y-182770D01*
X-567343D01*
X-567318Y-182860D01*
X-566002Y-185140D01*
X-564140Y-187002D01*
X-561860Y-188319D01*
X-559316Y-189000D01*
X-556684D01*
X-554140Y-188319D01*
X-551860Y-187002D01*
X-549998Y-185140D01*
X-548681Y-182860D01*
X-548657Y-182770D01*
X-547343D01*
X-547318Y-182860D01*
X-546002Y-185140D01*
X-544140Y-187002D01*
X-541860Y-188319D01*
X-539316Y-189000D01*
X-536684D01*
X-534140Y-188319D01*
X-531860Y-187002D01*
X-529998Y-185140D01*
X-528681Y-182860D01*
X-528000Y-180317D01*
Y-177684D01*
X-528681Y-175140D01*
X-529998Y-172860D01*
X-531860Y-170998D01*
X-534140Y-169681D01*
X-536684Y-169000D01*
X-539316D01*
X-541860Y-169681D01*
X-544140Y-170998D01*
X-546002Y-172860D01*
X-547318Y-175140D01*
X-547343Y-175230D01*
X-548657D01*
X-548681Y-175140D01*
X-549998Y-172860D01*
X-551860Y-170998D01*
X-554140Y-169681D01*
X-556684Y-169000D01*
X-559316D01*
X-561860Y-169681D01*
X-564140Y-170998D01*
X-566002Y-172860D01*
X-567318Y-175140D01*
X-567343Y-175230D01*
X-568657D01*
X-568681Y-175140D01*
X-569998Y-172860D01*
X-571860Y-170998D01*
X-574140Y-169681D01*
X-576684Y-169000D01*
X-579316D01*
X-581860Y-169681D01*
X-584140Y-170998D01*
X-586002Y-172860D01*
X-586984Y-174561D01*
X-587203Y-174629D01*
X-588419Y-174514D01*
X-589566Y-172528D01*
X-591528Y-170566D01*
X-593932Y-169178D01*
X-596612Y-168460D01*
D02*
G37*
G36*
X-599270Y-180270D02*
X-608540D01*
Y-180388D01*
X-607822Y-183068D01*
X-606434Y-185472D01*
X-604472Y-187434D01*
X-602068Y-188822D01*
X-599388Y-189540D01*
X-599270D01*
Y-180270D01*
D02*
G37*
%LPD*%
D14*
X48000Y239250D02*
Y243000D01*
X47000Y238250D02*
X48000Y239250D01*
X70000Y-215500D02*
Y-202000D01*
X70000Y-215500D02*
X70000Y-215500D01*
X143000Y160000D02*
X144500D01*
X150500Y154000D01*
X161250D01*
X180750D02*
X180950Y153800D01*
Y122005D02*
Y153800D01*
X129389Y138000D02*
X163000D01*
X194712Y179288D02*
X206000Y168000D01*
X175000Y186000D02*
X193650Y167350D01*
Y144500D02*
Y167350D01*
X189490Y179288D02*
X194712D01*
X175000Y186000D02*
Y197000D01*
X189212Y179566D02*
X189490Y179288D01*
X-194328Y-88828D02*
Y-77328D01*
X-234500Y-90000D02*
X-195500D01*
X-194328Y-77328D02*
X-194000Y-77000D01*
X-195500Y-90000D02*
X-194328Y-88828D01*
X-590875Y169375D02*
X-586500Y165000D01*
X57125Y-215375D02*
X69875D01*
X57000Y-215250D02*
X57125Y-215375D01*
X69875D02*
X70000Y-215500D01*
X102000Y-117500D02*
Y-117000D01*
X101000Y-116000D02*
X102000Y-117000D01*
X-235000Y-75500D02*
Y-66000D01*
X124000Y-220000D02*
Y-208000D01*
X126000Y-206000D01*
Y-202500D01*
X92617Y-201804D02*
X93000Y-202187D01*
X124000Y-229000D02*
Y-220000D01*
X158000Y-199000D02*
X159000Y-198000D01*
X83804Y-201804D02*
X92617D01*
X83000Y-201000D02*
X83804Y-201804D01*
X158000Y-202500D02*
Y-199000D01*
X97980Y-137072D02*
Y-136531D01*
X102000Y-132510D01*
Y-117500D01*
X87250Y-116000D02*
X101000D01*
X78000Y214000D02*
Y220500D01*
X78000Y220500D01*
X52000D02*
X78000D01*
X47000Y225500D02*
X52000Y220500D01*
X47000Y225500D02*
Y225750D01*
X-578000Y-211000D02*
X-550000Y-239000D01*
X-578000Y-211000D02*
Y-179000D01*
X-577000Y-50000D02*
X-549000Y-78000D01*
X-577000Y-50000D02*
Y-18000D01*
X193650Y122005D02*
Y144500D01*
X206000Y122355D02*
X206350Y122005D01*
X206000Y122355D02*
Y168000D01*
X37000Y192400D02*
X39750Y195150D01*
Y199750D01*
X36500Y178400D02*
X37000D01*
X20574Y194326D02*
X36500Y178400D01*
X20574Y194326D02*
Y199176D01*
X20000Y199750D02*
X20574Y199176D01*
X-83000Y147000D02*
X-82750D01*
X-79750Y150000D01*
Y153974D01*
X-83500Y133000D02*
X-83000D01*
X-99750Y149250D02*
X-83500Y133000D01*
X-99750Y149250D02*
Y154750D01*
X37000Y178400D02*
X37750Y177650D01*
X25000Y146000D02*
X33000D01*
X37750Y150750D02*
Y177650D01*
X33000Y146000D02*
X37750Y150750D01*
X-30000Y-195124D02*
X-27250Y-192374D01*
X-30000Y-199500D02*
Y-195124D01*
X-27250Y-178374D02*
X-26750D01*
X-10824Y-194300D01*
Y-198926D02*
Y-194300D01*
Y-198926D02*
X-10250Y-199500D01*
X60724Y-163000D02*
X61536D01*
X62536Y-164000D02*
X87500D01*
X61536Y-163000D02*
X62536Y-164000D01*
X-30589Y-152510D02*
Y-151698D01*
Y-152510D02*
X-27250Y-155849D01*
Y-178374D02*
Y-155849D01*
X-30250Y-151698D02*
Y-151359D01*
X-24865Y-145974D01*
X-15250D01*
X60000Y-186000D02*
Y-185188D01*
X62037Y-183151D01*
Y-181673D01*
X63451Y-180259D01*
X87241D01*
X87500Y-180000D01*
X14750Y-100374D02*
Y-97974D01*
X42250D01*
X42250Y-125374D02*
Y-111974D01*
X-24750Y-123974D02*
X-24350Y-124374D01*
X-24750D02*
Y-107474D01*
X-24350Y-124374D02*
X-17250D01*
X72638Y-142500D02*
X73179D01*
X77679Y-147000D02*
X86500D01*
X87500Y-148000D01*
X73179Y-142500D02*
X77679Y-147000D01*
X42250Y-125374D02*
X42750D01*
X15750Y-144474D02*
X42250D01*
X15750D02*
Y-138374D01*
X-159500Y-159750D02*
Y-152900D01*
X-159500Y-152900D01*
X-159000Y-139000D02*
X-158900D01*
X-143324Y-159426D02*
Y-154576D01*
X-158900Y-139000D02*
X-143324Y-154576D01*
X-157000Y-84500D02*
Y-83500D01*
X-168612Y-79500D02*
X-161000D01*
X-157000Y-84500D02*
Y-68000D01*
X-161000Y-79500D02*
X-157000Y-83500D01*
X-159500Y-107672D02*
X-158328Y-106500D01*
X-147500D01*
X-159500Y-138900D02*
Y-107672D01*
X108000Y-227500D02*
Y-227250D01*
X105000Y-230500D02*
X108000Y-227500D01*
X101000Y-230500D02*
X105000D01*
X100500Y-231000D02*
X101000Y-230500D01*
X99000Y-231000D02*
X100500D01*
X95500Y-234500D02*
X99000Y-231000D01*
X94000Y-234500D02*
X95500D01*
X108000Y-215000D02*
Y-214750D01*
X103000Y-220000D02*
X108000Y-215000D01*
X102757Y-220000D02*
X103000D01*
X99757Y-223000D02*
X102757Y-220000D01*
X96000Y-223000D02*
X99757D01*
X94000Y-225000D02*
X96000Y-223000D01*
X75743Y-240500D02*
X81743Y-234500D01*
X94000D01*
X116500Y-228444D02*
Y-214050D01*
Y-228444D02*
X116528Y-228472D01*
X37500Y-240500D02*
X75743D01*
X31000Y-234000D02*
X37500Y-240500D01*
X-116500Y-105000D02*
Y-98900D01*
X150000Y-210443D02*
X152000Y-212443D01*
X150000Y-210443D02*
Y-202500D01*
X152000Y-213000D02*
Y-212443D01*
X-57500Y-245000D02*
X-56000D01*
X72000Y184000D02*
X81485D01*
X99500Y150722D02*
Y165985D01*
X67500Y188750D02*
Y189000D01*
X81485Y184000D02*
X99500Y165985D01*
X67500Y187000D02*
Y188750D01*
X94500Y145722D02*
X99500Y150722D01*
X94500Y-215000D02*
X99500D01*
X94000Y-215500D02*
X94500Y-215000D01*
X53000Y126000D02*
X53000Y126000D01*
X60000D01*
X79000Y145000D02*
X81000Y147000D01*
X79000Y116500D02*
Y145000D01*
X134000Y-133709D02*
Y-117500D01*
X131250Y-137000D02*
Y-136459D01*
X134000Y-133709D01*
X195686Y-155000D02*
X212000D01*
X181500Y-155452D02*
X185452Y-151500D01*
X173048Y-155452D02*
X181500D01*
X172500Y-156000D02*
X173048Y-155452D01*
X212000Y-155000D02*
X212000Y-155000D01*
X192186Y-151500D02*
X195686Y-155000D01*
X185452Y-151500D02*
X192186D01*
X172500Y-164000D02*
X198000D01*
X199000Y-165000D01*
X173000Y-147500D02*
X198500D01*
X199000Y-147000D01*
X172500Y-140000D02*
X186000D01*
X172500Y-148000D02*
X173000Y-147500D01*
X-624000Y186000D02*
X-614000Y196000D01*
X-594000D01*
X-471000Y116500D02*
Y116750D01*
Y116500D02*
X-461500Y107000D01*
X-442000D01*
Y82000D02*
X-440000Y80000D01*
X-442000Y82000D02*
Y107000D01*
X-624000Y84000D02*
X-620000Y80000D01*
X-624000Y84000D02*
Y126000D01*
X-594000Y182000D02*
X-593875D01*
X-590875Y179000D01*
Y169375D02*
Y179000D01*
X-594000Y182000D02*
X-593000Y183000D01*
X-577000D01*
X-588000Y130000D02*
Y146125D01*
X-442000Y167000D02*
X-423000D01*
X-442000Y147000D02*
X-423000D01*
X-471000Y129250D02*
Y167000D01*
X-457000Y147000D02*
X-442000D01*
X-457000Y167000D02*
X-442000D01*
X163000Y138000D02*
X166250Y134750D01*
X128278Y139111D02*
X129389Y138000D01*
X121722Y139111D02*
X128278D01*
X120355Y140478D02*
X121722Y139111D01*
X107744Y140478D02*
X120355D01*
X104267Y137000D02*
X107744Y140478D01*
X94500Y137000D02*
X104267D01*
X125426Y121426D02*
Y133037D01*
X126000Y133611D01*
X163672Y202500D02*
X169500D01*
X175000Y197000D01*
X166250Y122000D02*
Y134750D01*
X180945Y122000D02*
X180950Y122005D01*
X166250Y122000D02*
X180945D01*
X187000Y-173000D02*
X188000Y-174000D01*
X173500Y-173000D02*
X187000D01*
X172500Y-172000D02*
X173500Y-173000D01*
X239250Y-35000D02*
X242500D01*
X138750Y-42500D02*
Y-30213D01*
X151000Y0D02*
X171000D01*
X231000Y-26750D02*
X239250Y-35000D01*
X231000Y-26750D02*
Y0D01*
X251000D01*
X219050Y12193D02*
Y17995D01*
Y12193D02*
X231000Y243D01*
Y0D02*
Y243D01*
X206350Y7639D02*
Y17995D01*
Y7639D02*
X211000Y2989D01*
Y0D02*
Y2989D01*
X192995Y17340D02*
X193650Y17995D01*
X192995Y1995D02*
Y17340D01*
X191000Y0D02*
X192995Y1995D01*
X180295Y17340D02*
X180950Y17995D01*
X180295Y9295D02*
Y17340D01*
X171000Y0D02*
X180295Y9295D01*
X-116500Y-105000D02*
X-90000D01*
X234500Y-35000D02*
X239250D01*
X225000Y-25500D02*
X234500Y-35000D01*
X225000Y-25500D02*
Y-25000D01*
X172250D02*
X225000D01*
X165500Y-31750D02*
X172250Y-25000D01*
X165500Y-32243D02*
Y-31750D01*
X161071Y-36672D02*
X165500Y-32243D01*
X157328Y-36672D02*
X161071D01*
X151500Y-42500D02*
X157328Y-36672D01*
X151250Y-42500D02*
X151500D01*
X172500Y-132000D02*
Y-111000D01*
X-222000Y82000D02*
X-191000D01*
X-204000Y102000D02*
X-191000D01*
X61500Y-149861D02*
X67639Y-156000D01*
X137184Y-154341D02*
X142000Y-149526D01*
X131010Y-154341D02*
X137184D01*
X115000Y-188821D02*
X115360Y-189181D01*
X115000Y-188821D02*
Y-175985D01*
X165974Y-178474D02*
X166000Y-178500D01*
X171000D01*
X172500Y-180000D01*
X160474Y-178474D02*
X165974D01*
X87500Y-172000D02*
X100000D01*
X97000Y244500D02*
Y246000D01*
X-222000Y96000D02*
X-222000Y96000D01*
X-210000D01*
X-204000Y102000D01*
X146500Y-223000D02*
Y-215050D01*
X143000Y-211550D02*
X146500Y-215050D01*
X73736Y163750D02*
X79986Y170000D01*
X67500Y163750D02*
X73736D01*
X67500D02*
Y176250D01*
X94500Y137000D02*
Y145722D01*
X102443Y184146D02*
X109552D01*
X100589Y186000D02*
X102443Y184146D01*
X90860Y186000D02*
X100589D01*
X109552Y184146D02*
X118000Y192595D01*
X67500Y189000D02*
X70500Y192000D01*
X80000D01*
X81000Y193000D01*
X148250Y198000D02*
X150944Y195306D01*
X157039D01*
X139500Y210000D02*
X140000D01*
X135750Y206250D02*
X139500Y210000D01*
X135750Y198000D02*
Y206250D01*
X129000Y224000D02*
X140000D01*
X121541Y198000D02*
X134625D01*
X110000Y-186485D02*
Y-172500D01*
X103000Y-155000D02*
Y-144500D01*
X121762Y-171795D02*
X124000Y-169556D01*
X116000Y-170485D02*
X119000Y-167485D01*
X115000Y-175985D02*
X116000Y-174985D01*
Y-170485D01*
X121762Y-187220D02*
Y-171795D01*
X124000Y-169556D02*
Y-160444D01*
X109360Y-187125D02*
X110000Y-186485D01*
X119000Y-167485D02*
Y-162515D01*
X-235000Y-89500D02*
X-234500Y-90000D01*
X155646Y174000D02*
X156146Y174500D01*
X164500D01*
X165000Y175000D01*
X-550000Y-239000D02*
X-520000D01*
X-549000Y-78000D02*
X-519000D01*
X78541Y-138000D02*
X79541Y-139000D01*
X86500D01*
X78000Y-138000D02*
X78541D01*
X110000Y-137500D02*
Y-117500D01*
X103000Y-144500D02*
X110000Y-137500D01*
X125000Y-107000D02*
X144950D01*
X69000Y187000D02*
X72000Y184000D01*
X67500Y187000D02*
X69000D01*
X118000Y201000D02*
Y205909D01*
X128000Y225541D02*
Y227450D01*
X102050Y229500D02*
X125950D01*
X128000Y225541D02*
X129000Y224541D01*
X125950Y229500D02*
X128000Y227450D01*
X129000Y224000D02*
Y224541D01*
X118000Y192595D02*
Y201000D01*
X81000Y193000D02*
X83860D01*
X90860Y186000D01*
X120250Y205909D02*
Y222000D01*
X118000Y201000D02*
X118541D01*
X118000Y205909D02*
X120250D01*
X118541Y201000D02*
X121541Y198000D01*
X86500Y-139000D02*
X87500Y-140000D01*
X67639Y-156000D02*
X87500D01*
X121762Y-158205D02*
Y-127188D01*
X116762Y-160276D02*
Y-125117D01*
Y-160276D02*
X119000Y-162515D01*
X121762Y-158205D02*
X124000Y-160444D01*
X142000Y-149526D02*
Y-117500D01*
X116762Y-125117D02*
X117000Y-124879D01*
X121762Y-127188D02*
X125000Y-123950D01*
X121762Y-187220D02*
X125000Y-190459D01*
Y-191000D02*
Y-190459D01*
X135000Y-208950D02*
X138000Y-211950D01*
X135000Y-208950D02*
Y-203500D01*
X138000Y-220000D02*
Y-211950D01*
X117000Y-124879D02*
Y-118500D01*
X172500Y-180000D02*
X173000Y-179500D01*
X98000Y-188000D02*
X101617Y-184383D01*
X103617D01*
X104000Y-184000D01*
X87500Y-188000D02*
X98000D01*
X110000Y-202500D02*
Y-192306D01*
X109360Y-191666D02*
Y-187125D01*
Y-191666D02*
X110000Y-192306D01*
X134000Y-202500D02*
X135000Y-203500D01*
X158000Y-117500D02*
Y-107000D01*
X116500Y-214050D02*
X117550Y-213000D01*
Y-202950D01*
X118000Y-202500D01*
X117000Y-118500D02*
X118000Y-117500D01*
X125000Y-118500D02*
X126000Y-117500D01*
X125000Y-123950D02*
Y-118500D01*
X98500Y225950D02*
X102050Y229500D01*
X98500Y222000D02*
Y225950D01*
X97000Y220500D02*
X98500Y222000D01*
X124000Y120000D02*
X125426Y121426D01*
X143000Y-211550D02*
Y-203500D01*
X149000Y-116500D02*
X150000Y-117500D01*
X149000Y-116500D02*
Y-111050D01*
X144950Y-107000D02*
X149000Y-111050D01*
X142000Y-202500D02*
X143000Y-203500D01*
X153500Y122250D02*
X153750Y122000D01*
X164500Y189500D02*
X165000Y190000D01*
X154500Y189500D02*
X164500D01*
X154000Y189000D02*
X154500Y189500D01*
X67500Y151000D02*
Y151250D01*
Y151000D02*
X71500Y147000D01*
X81000D01*
X67500Y151250D02*
Y151500D01*
X150000Y-22250D02*
Y0D01*
Y-22250D02*
X152750Y-25000D01*
X34500Y107500D02*
Y124000D01*
X138750Y20000D02*
X138775Y20025D01*
X138750Y11250D02*
X150000Y0D01*
X138750Y11250D02*
Y20000D01*
Y-30213D02*
X143966Y-24997D01*
X152747D02*
X152750Y-25000D01*
X143966Y-24997D02*
X152747D01*
X-95000Y100600D02*
X-80000D01*
Y108238D01*
X-79661Y108577D01*
X-83000D02*
X-79661D01*
X-83000D02*
Y133000D01*
X-85500Y62100D02*
Y79000D01*
X-85900D02*
X-85500Y78600D01*
X-93000Y79000D02*
X-85900D01*
X-32500Y144500D02*
X-6000D01*
Y138400D02*
Y144500D01*
X-33000Y125400D02*
X-32500D01*
X-5000Y98000D02*
Y100400D01*
X-32500Y98000D02*
X-5000D01*
X-32500Y112000D02*
Y125400D01*
X-90000Y-85900D02*
X-89500D01*
X-117500Y-60900D02*
Y-58500D01*
X-90000D01*
X-90000Y-85900D02*
Y-72500D01*
X-152500Y99100D02*
X-126000D01*
Y93000D02*
Y99100D01*
X-153000Y80000D02*
X-152500D01*
Y66600D02*
Y80000D01*
X-125000Y52600D02*
Y55000D01*
X-152500Y52600D02*
X-125000D01*
X-307665Y-330002D02*
X-304332Y-331668D01*
X-301000Y-335000D01*
Y-338332D01*
X-302666Y-339998D01*
X-305998D01*
X-307665Y-338332D01*
Y-336666D01*
X-305998Y-335000D01*
X-301000D01*
D21*
X178500Y154000D02*
D03*
X163500D02*
D03*
D22*
X-10750Y-107474D02*
D03*
X-24750Y-107474D02*
D03*
X-471000Y167000D02*
D03*
X-457000D02*
D03*
X34500Y107500D02*
D03*
X20500D02*
D03*
X-157000Y-68000D02*
D03*
X-143000D02*
D03*
X-99500Y62100D02*
D03*
X-85500D02*
D03*
X138000Y-220000D02*
D03*
X124000D02*
D03*
X194000Y139000D02*
D03*
X180000D02*
D03*
X-471000Y147000D02*
D03*
X-457000D02*
D03*
D23*
X74750Y-116000D02*
D03*
X87250D02*
D03*
X138750Y20000D02*
D03*
X151250D02*
D03*
X138750Y-42500D02*
D03*
X151250D02*
D03*
X153750Y122000D02*
D03*
X166250D02*
D03*
X148250Y198000D02*
D03*
X135750D02*
D03*
X107750Y222000D02*
D03*
X120250D02*
D03*
D24*
X37000Y192400D02*
D03*
X-27250Y-178374D02*
D03*
X-27250Y-192374D02*
D03*
X42250Y-111974D02*
D03*
Y-97974D02*
D03*
X-235000Y-89500D02*
D03*
Y-75500D02*
D03*
X37000Y178400D02*
D03*
X-159500Y-138900D02*
D03*
Y-152900D02*
D03*
X-32500Y98000D02*
D03*
Y112000D02*
D03*
X-90000Y-58500D02*
D03*
Y-72500D02*
D03*
X-83000Y147000D02*
D03*
X-83000Y133000D02*
D03*
X-152500Y52600D02*
D03*
X-152500Y66600D02*
D03*
X-222000Y82000D02*
D03*
Y96000D02*
D03*
X140000Y210000D02*
D03*
Y224000D02*
D03*
X-594000Y182000D02*
D03*
Y196000D02*
D03*
D25*
X-471000Y129250D02*
D03*
Y116750D02*
D03*
X-59257Y-187007D02*
D03*
Y-199507D02*
D03*
X67500Y151250D02*
D03*
Y163750D02*
D03*
Y176250D02*
D03*
Y188750D02*
D03*
X47000Y238250D02*
D03*
Y225750D02*
D03*
X108000Y-227250D02*
D03*
Y-214750D02*
D03*
X57000Y-202750D02*
D03*
Y-215250D02*
D03*
X-70000Y219750D02*
D03*
Y232250D02*
D03*
D26*
X60000Y107000D02*
D03*
Y126000D02*
D03*
X79000Y116500D02*
D03*
D32*
X81000Y147000D02*
D03*
D33*
X142500Y170000D02*
D03*
D34*
X81000D02*
D03*
Y193000D02*
D03*
D35*
X87500Y-164000D02*
D03*
Y-180000D02*
D03*
Y-148000D02*
D03*
Y-140000D02*
D03*
Y-172000D02*
D03*
Y-188000D02*
D03*
Y-156000D02*
D03*
X172500Y-132000D02*
D03*
Y-140000D02*
D03*
Y-148000D02*
D03*
Y-156000D02*
D03*
Y-164000D02*
D03*
Y-172000D02*
D03*
Y-180000D02*
D03*
Y-188000D02*
D03*
X87500Y-132000D02*
D03*
D36*
X150000Y-202500D02*
D03*
X142000D02*
D03*
X134000D02*
D03*
X118000D02*
D03*
X110000D02*
D03*
X102000D02*
D03*
X110000Y-117500D02*
D03*
X118000D02*
D03*
X126000D02*
D03*
X134000D02*
D03*
X142000D02*
D03*
X150000D02*
D03*
X158000D02*
D03*
Y-202500D02*
D03*
X126000D02*
D03*
X102000Y-117500D02*
D03*
D43*
X152750Y-25000D02*
D03*
X172250D02*
D03*
D44*
X-193000Y-168000D02*
D03*
D45*
Y168000D02*
D03*
D47*
X-440000Y80000D02*
D03*
X242500Y-35000D02*
D03*
X-620000Y80000D02*
D03*
D48*
X193650Y122005D02*
D03*
X206350D02*
D03*
X219050D02*
D03*
Y17995D02*
D03*
X206350D02*
D03*
X193650D02*
D03*
X180950D02*
D03*
D49*
Y122005D02*
D03*
D85*
X-588000Y130000D02*
D03*
X188000Y-135000D02*
D03*
X165000Y175000D02*
D03*
X199000Y-164000D02*
D03*
X165000Y190000D02*
D03*
X188000Y-174000D02*
D03*
X124000Y120000D02*
D03*
X199000Y-147000D02*
D03*
X212000Y-155000D02*
D03*
X45000Y256000D02*
D03*
X83000Y-201000D02*
D03*
X-423000Y167000D02*
D03*
Y147000D02*
D03*
X-577000Y183000D02*
D03*
D87*
X172500Y-111000D02*
D03*
X193500D02*
D03*
D90*
X325000Y625000D02*
D03*
X-625000D02*
D03*
X325000Y-325000D02*
D03*
D91*
X14750Y-100374D02*
D03*
X-125000Y55000D02*
D03*
X-5000Y100400D02*
D03*
X-117500Y-60900D02*
D03*
D92*
X14750Y-139974D02*
D03*
X-125000Y94600D02*
D03*
X-5000Y140000D02*
D03*
X-117500Y-100500D02*
D03*
D93*
X12250Y-242474D02*
D03*
Y-187474D02*
D03*
X-122500Y142100D02*
D03*
Y197100D02*
D03*
X-2500Y187500D02*
D03*
Y242500D02*
D03*
X-120000Y-148000D02*
D03*
Y-203000D02*
D03*
D94*
X-605000Y297000D02*
D03*
X-585000D02*
D03*
X-565000D02*
D03*
X-442000Y107000D02*
D03*
Y127000D02*
D03*
Y147000D02*
D03*
Y167000D02*
D03*
Y187000D02*
D03*
Y207000D02*
D03*
X-624000Y126000D02*
D03*
Y146000D02*
D03*
Y166000D02*
D03*
Y186000D02*
D03*
X-538000Y-179000D02*
D03*
X-558000D02*
D03*
X-578000D02*
D03*
X-598000D02*
D03*
X251000Y0D02*
D03*
X231000D02*
D03*
X211000D02*
D03*
X191000D02*
D03*
X171000D02*
D03*
X151000D02*
D03*
X-597000Y-18000D02*
D03*
X-577000D02*
D03*
X-557000D02*
D03*
X-537000D02*
D03*
D95*
X112900Y238850D02*
D03*
X62100Y228690D02*
D03*
Y249010D02*
D03*
X108000Y-239000D02*
D03*
X57200Y-249160D02*
D03*
Y-228840D02*
D03*
D96*
X58000Y-67000D02*
D03*
X70000Y-53000D02*
D03*
D97*
X-55000Y185000D02*
D03*
X48000Y243000D02*
D03*
X70000Y-202000D02*
D03*
X189212Y179566D02*
D03*
X197111Y-137690D02*
D03*
X206700Y-138011D02*
D03*
X-65000Y205000D02*
D03*
X-85000Y213000D02*
D03*
X-170172Y-67000D02*
D03*
X-170172Y-87000D02*
D03*
X-180000Y-54000D02*
D03*
X-170172Y-97000D02*
D03*
X161000Y-203250D02*
D03*
X-60000Y-126000D02*
D03*
Y-58000D02*
D03*
Y-201000D02*
D03*
X97980Y-137072D02*
D03*
X-235000Y-66000D02*
D03*
X93000Y-202187D02*
D03*
X124000Y-229000D02*
D03*
X127762Y-129673D02*
D03*
X150000Y-144000D02*
D03*
X90061Y199939D02*
D03*
X-10000Y221000D02*
D03*
X-60000Y88000D02*
D03*
X-191000Y62000D02*
D03*
X69000Y214000D02*
D03*
X78000D02*
D03*
X94000Y153000D02*
D03*
X117000Y152000D02*
D03*
X39750Y199750D02*
D03*
X20000D02*
D03*
X-55250Y154250D02*
D03*
X-79750Y153974D02*
D03*
X-99750Y154750D02*
D03*
X-80500Y164974D02*
D03*
X50000Y152000D02*
D03*
X-136800Y155400D02*
D03*
X-141000Y161000D02*
D03*
X-30000Y-199500D02*
D03*
X-30024Y-210500D02*
D03*
X-10250Y-199500D02*
D03*
X60724Y-163000D02*
D03*
X-30589Y-151698D02*
D03*
X-1000Y-165400D02*
D03*
X112159Y-165841D02*
D03*
X60000Y-186000D02*
D03*
X-17250Y-124374D02*
D03*
X-17125Y-88000D02*
D03*
X70500Y-85969D02*
D03*
X72638Y-142500D02*
D03*
X-194000Y-77000D02*
D03*
X-126500Y-170900D02*
D03*
X-159500Y-159750D02*
D03*
X-162250Y-170000D02*
D03*
X-142750Y-160000D02*
D03*
X-168612Y-79500D02*
D03*
X-172000Y-184000D02*
D03*
X-174000Y-195000D02*
D03*
X116528Y-228472D02*
D03*
X82600Y-245350D02*
D03*
X95300D02*
D03*
X47000Y256000D02*
D03*
X131745Y232745D02*
D03*
X124000Y235500D02*
D03*
X152000Y-213000D02*
D03*
X-57500Y-245000D02*
D03*
X-42000D02*
D03*
X93000Y164000D02*
D03*
X95000Y180000D02*
D03*
X94383Y194433D02*
D03*
X99500Y-215000D02*
D03*
X42000Y-213750D02*
D03*
X66000Y107000D02*
D03*
X65000Y137000D02*
D03*
X53000Y126000D02*
D03*
X131250Y-137000D02*
D03*
X-586500Y149000D02*
D03*
Y165000D02*
D03*
X42000Y-233000D02*
D03*
X135000Y-208950D02*
D03*
X37000Y-255000D02*
D03*
X124000Y144611D02*
D03*
X126000Y133611D02*
D03*
X102744Y143256D02*
D03*
X110022Y134978D02*
D03*
X117792Y134725D02*
D03*
X163672Y202500D02*
D03*
X235000Y-110000D02*
D03*
X-69000Y-70000D02*
D03*
X161000Y-190750D02*
D03*
X146000Y-183500D02*
D03*
Y-167000D02*
D03*
X70000Y-172500D02*
D03*
X108000Y-214750D02*
D03*
X-191000Y82000D02*
D03*
X-191000Y92000D02*
D03*
X-191000Y102000D02*
D03*
X-191000Y72000D02*
D03*
X29000Y-178000D02*
D03*
X59750Y-143000D02*
D03*
X61500Y-149861D02*
D03*
X131010Y-154341D02*
D03*
X115360Y-189181D02*
D03*
X160474Y-178474D02*
D03*
X100000Y-172000D02*
D03*
X59000Y83000D02*
D03*
X100322Y245325D02*
D03*
X107750Y222000D02*
D03*
X143000Y174000D02*
D03*
Y160000D02*
D03*
X68000Y165000D02*
D03*
X-69875Y219875D02*
D03*
X49000Y177000D02*
D03*
X-20000Y177500D02*
D03*
X59000Y148281D02*
D03*
X39750Y209974D02*
D03*
X27000Y124400D02*
D03*
X-39000Y-87000D02*
D03*
X110000Y-172500D02*
D03*
X103000Y-155000D02*
D03*
X-45389Y-165389D02*
D03*
X-24000Y-80000D02*
D03*
X-132526Y-120000D02*
D03*
X-94500Y-170900D02*
D03*
X-68490Y-140510D02*
D03*
X31000Y-234000D02*
D03*
X-44000Y-219000D02*
D03*
X-49000Y-232000D02*
D03*
X-52500Y-150500D02*
D03*
X179000Y169000D02*
D03*
X155646Y174000D02*
D03*
X106567Y189646D02*
D03*
X-159000Y170000D02*
D03*
X-520000Y-239000D02*
D03*
X-519000Y-78000D02*
D03*
X77000Y-131072D02*
D03*
X78000Y-138000D02*
D03*
X91000Y-106000D02*
D03*
X125000Y-107000D02*
D03*
X94500Y137000D02*
D03*
X129000Y224000D02*
D03*
X-165000Y48000D02*
D03*
X111000Y205909D02*
D03*
X118000D02*
D03*
X125000Y-191000D02*
D03*
X64750Y-116000D02*
D03*
X146500Y-223000D02*
D03*
X104000Y-184000D02*
D03*
X158000Y-107000D02*
D03*
X135735Y189500D02*
D03*
X-39000Y224517D02*
D03*
X157039Y195306D02*
D03*
X154000Y189000D02*
D03*
X-65000Y137000D02*
D03*
X-79661Y108577D02*
D03*
X-93000Y79000D02*
D03*
D98*
X160000Y43000D02*
D03*
X162000Y20000D02*
D03*
D99*
X-5750Y-123974D02*
D03*
X-24750D02*
D03*
X-15250Y-145974D02*
D03*
X-104500Y78600D02*
D03*
X-85500Y78600D02*
D03*
X-95000Y100600D02*
D03*
X34500Y124000D02*
D03*
X25000Y146000D02*
D03*
X15500Y124000D02*
D03*
X-157000Y-84500D02*
D03*
X-147500Y-106500D02*
D03*
X-138000Y-84500D02*
D03*
D100*
X42250Y-144474D02*
D03*
Y-125474D02*
D03*
X-152500Y80100D02*
D03*
X-152500Y99100D02*
D03*
X-32500Y125500D02*
D03*
Y144500D02*
D03*
X-90000Y-86000D02*
D03*
Y-105000D02*
D03*
D101*
X-40000Y-245000D02*
D03*
X-58000D02*
D03*
D102*
X94000Y-215500D02*
D03*
Y-234500D02*
D03*
X70000D02*
D03*
X94000Y-225000D02*
D03*
X70000Y-215500D02*
D03*
D103*
X176875Y-111000D02*
D03*
D104*
X188875Y-111000D02*
D03*
D105*
X97000Y220500D02*
D03*
X78000Y244500D02*
D03*
Y220500D02*
D03*
X87500D02*
D03*
X97000Y244500D02*
D03*
M02*
