G04*
G04 #@! TF.GenerationSoftware,Altium Limited,Altium Designer,26.2.0 (7)*
G04*
G04 Layer_Color=128*
%FSLAX44Y44*%
%MOMM*%
G71*
G04*
G04 #@! TF.SameCoordinates,EBB4E75D-4282-4596-973B-B83497B218A8*
G04*
G04*
G04 #@! TF.FilePolarity,Positive*
G04*
G01*
G75*
%ADD112C,0.0508*%
D112*
X6500Y-100374D02*
X23000D01*
X14750Y-108624D02*
Y-92124D01*
X6500Y-139974D02*
X23000D01*
X14750Y-148224D02*
Y-131724D01*
X5250Y-242474D02*
X19250D01*
X12250Y-249474D02*
Y-235474D01*
X5250Y-187474D02*
X19250D01*
X12250Y-194474D02*
Y-180474D01*
X-609350Y297000D02*
X-600650D01*
X-605000Y292650D02*
Y301350D01*
X-589350Y297000D02*
X-580650D01*
X-585000Y292650D02*
Y301350D01*
X-569350Y297000D02*
X-560650D01*
X-565000Y292650D02*
Y301350D01*
X-555500Y314000D02*
X-544500D01*
X-550000Y308500D02*
Y319500D01*
X107925Y238850D02*
X117875D01*
X112900Y233875D02*
Y243825D01*
X57125Y228690D02*
X67075D01*
X62100Y223715D02*
Y233665D01*
X57125Y249010D02*
X67075D01*
X62100Y244035D02*
Y253985D01*
X-527000Y62000D02*
X-519000D01*
X-523000Y58000D02*
Y66000D01*
X-539000Y62000D02*
X-531000D01*
X-535000Y58000D02*
Y66000D01*
X-551000Y62000D02*
X-543000D01*
X-547000Y58000D02*
Y66000D01*
X-133250Y94600D02*
X-116750D01*
X-125000Y86350D02*
Y102850D01*
X-133250Y55000D02*
X-116750D01*
X-125000Y46750D02*
Y63250D01*
X-446350Y107000D02*
X-437650D01*
X-442000Y102650D02*
Y111350D01*
X-446350Y127000D02*
X-437650D01*
X-442000Y122650D02*
Y131350D01*
X-446350Y147000D02*
X-437650D01*
X-442000Y142650D02*
Y151350D01*
X-446350Y167000D02*
X-437650D01*
X-442000Y162650D02*
Y171350D01*
X-446350Y187000D02*
X-437650D01*
X-442000Y182650D02*
Y191350D01*
X-446350Y207000D02*
X-437650D01*
X-442000Y202650D02*
Y211350D01*
X-464500Y222000D02*
X-453500D01*
X-459000Y216500D02*
Y227500D01*
X-628350Y126000D02*
X-619650D01*
X-624000Y121650D02*
Y130350D01*
X-628350Y146000D02*
X-619650D01*
X-624000Y141650D02*
Y150350D01*
X-628350Y166000D02*
X-619650D01*
X-624000Y161650D02*
Y170350D01*
X-628350Y186000D02*
X-619650D01*
X-624000Y181650D02*
Y190350D01*
X-646500Y201000D02*
X-635500D01*
X-641000Y195500D02*
Y206500D01*
X-528500Y-162000D02*
X-517500D01*
X-523000Y-167500D02*
Y-156500D01*
X-542350Y-179000D02*
X-533650D01*
X-538000Y-183350D02*
Y-174650D01*
X-562350Y-179000D02*
X-553650D01*
X-558000Y-183350D02*
Y-174650D01*
X-582350Y-179000D02*
X-573650D01*
X-578000Y-183350D02*
Y-174650D01*
X-602350Y-179000D02*
X-593650D01*
X-598000Y-183350D02*
Y-174650D01*
X-13250Y140000D02*
X3250D01*
X-5000Y131750D02*
Y148250D01*
X-13250Y100400D02*
X3250D01*
X-5000Y92150D02*
Y108650D01*
X-125750Y-100500D02*
X-109250D01*
X-117500Y-108750D02*
Y-92250D01*
X-125750Y-60900D02*
X-109250D01*
X-117500Y-69150D02*
Y-52650D01*
X103025Y-239000D02*
X112975D01*
X108000Y-243975D02*
Y-234025D01*
X52225Y-249160D02*
X62175D01*
X57200Y-254135D02*
Y-244185D01*
X52225Y-228840D02*
X62175D01*
X57200Y-233815D02*
Y-223865D01*
X246650Y0D02*
X255350D01*
X251000Y-4350D02*
Y4350D01*
X226650Y0D02*
X235350D01*
X231000Y-4350D02*
Y4350D01*
X206650Y0D02*
X215350D01*
X211000Y-4350D02*
Y4350D01*
X186650Y0D02*
X195350D01*
X191000Y-4350D02*
Y4350D01*
X166650Y0D02*
X175350D01*
X171000Y-4350D02*
Y4350D01*
X146650Y0D02*
X155350D01*
X151000Y-4350D02*
Y4350D01*
X130500Y-17000D02*
X141500D01*
X136000Y-22500D02*
Y-11500D01*
X-129500Y142100D02*
X-115500D01*
X-122500Y135100D02*
Y149100D01*
X-129500Y197100D02*
X-115500D01*
X-122500Y190100D02*
Y204100D01*
X-9500Y187500D02*
X4500D01*
X-2500Y180500D02*
Y194500D01*
X-9500Y242500D02*
X4500D01*
X-2500Y235500D02*
Y249500D01*
X-127000Y-148000D02*
X-113000D01*
X-120000Y-155000D02*
Y-141000D01*
X-127000Y-203000D02*
X-113000D01*
X-120000Y-210000D02*
Y-196000D01*
X-601350Y-18000D02*
X-592650D01*
X-597000Y-22350D02*
Y-13650D01*
X-581350Y-18000D02*
X-572650D01*
X-577000Y-22350D02*
Y-13650D01*
X-561350Y-18000D02*
X-552650D01*
X-557000Y-22350D02*
Y-13650D01*
X-541350Y-18000D02*
X-532650D01*
X-537000Y-22350D02*
Y-13650D01*
X-527500Y-1000D02*
X-516500D01*
X-522000Y-6500D02*
Y4500D01*
X-426000Y-134000D02*
X-418000D01*
X-422000Y-138000D02*
Y-130000D01*
X-426000Y-146000D02*
X-418000D01*
X-422000Y-150000D02*
Y-142000D01*
X-426000Y-158000D02*
X-418000D01*
X-422000Y-162000D02*
Y-154000D01*
X-551000Y38000D02*
X-543000D01*
X-547000Y34000D02*
Y42000D01*
X-539000Y38000D02*
X-531000D01*
X-535000Y34000D02*
Y42000D01*
X-527000Y38000D02*
X-519000D01*
X-523000Y34000D02*
Y42000D01*
X-526000Y318000D02*
X-518000D01*
X-522000Y314000D02*
Y322000D01*
X-514000Y318000D02*
X-506000D01*
X-510000Y314000D02*
Y322000D01*
X-502000Y318000D02*
X-494000D01*
X-498000Y314000D02*
Y322000D01*
X-416000Y212000D02*
X-408000D01*
X-412000Y208000D02*
Y216000D01*
X-416000Y200000D02*
X-408000D01*
X-412000Y196000D02*
Y204000D01*
X-416000Y188000D02*
X-408000D01*
X-412000Y184000D02*
Y192000D01*
X54000Y-67000D02*
X62000D01*
X58000Y-71000D02*
Y-63000D01*
X66000Y-53000D02*
X74000D01*
X70000Y-57000D02*
Y-49000D01*
X157000Y496000D02*
X197000D01*
X177000Y476000D02*
Y516000D01*
X-200841Y-192734D02*
X-192841D01*
X-196841Y-196734D02*
Y-188734D01*
X-218000Y-173000D02*
X-210000D01*
X-214000Y-177000D02*
Y-169000D01*
X-208750Y-182000D02*
X-200750D01*
X-204750Y-186000D02*
Y-178000D01*
X-200841Y192734D02*
X-192841D01*
X-196841Y188734D02*
Y196734D01*
X-218000Y173000D02*
X-210000D01*
X-214000Y169000D02*
Y177000D01*
X-208750Y182000D02*
X-200750D01*
X-204750Y178000D02*
Y186000D01*
X192841Y-192734D02*
X200841D01*
X196841Y-196734D02*
Y-188734D01*
X210000Y-173000D02*
X218000D01*
X214000Y-177000D02*
Y-169000D01*
X200750Y-182000D02*
X208750D01*
X204750Y-186000D02*
Y-178000D01*
X200750Y182000D02*
X208750D01*
X204750Y178000D02*
Y186000D01*
X210000Y173000D02*
X218000D01*
X214000Y169000D02*
Y177000D01*
X192841Y192734D02*
X200841D01*
X196841Y188734D02*
Y196734D01*
X-56500Y185000D02*
X-53500D01*
X-55000Y183500D02*
Y186500D01*
X46500Y243000D02*
X49500D01*
X48000Y241500D02*
Y244500D01*
X68500Y-202000D02*
X71500D01*
X70000Y-203500D02*
Y-200500D01*
X187712Y179566D02*
X190712D01*
X189212Y178066D02*
Y181066D01*
X194611Y-137690D02*
X199611D01*
X197111Y-140190D02*
Y-135190D01*
X204200Y-138011D02*
X209200D01*
X206700Y-140511D02*
Y-135511D01*
X-66500Y205000D02*
X-63500D01*
X-65000Y203500D02*
Y206500D01*
X-86500Y213000D02*
X-83500D01*
X-85000Y211500D02*
Y214500D01*
X-171672Y-67000D02*
X-168672D01*
X-170172Y-68500D02*
Y-65500D01*
X-171672Y-87000D02*
X-168672D01*
X-170172Y-88500D02*
Y-85500D01*
X-181500Y-54000D02*
X-178500D01*
X-180000Y-55500D02*
Y-52500D01*
X-171672Y-97000D02*
X-168672D01*
X-170172Y-98500D02*
Y-95500D01*
X159500Y-203250D02*
X162500D01*
X161000Y-204750D02*
Y-201750D01*
X-61500Y-126000D02*
X-58500D01*
X-60000Y-127500D02*
Y-124500D01*
X-61500Y-58000D02*
X-58500D01*
X-60000Y-59500D02*
Y-56500D01*
X-61500Y-201000D02*
X-58500D01*
X-60000Y-202500D02*
Y-199500D01*
X96480Y-137072D02*
X99480D01*
X97980Y-138572D02*
Y-135572D01*
X-236500Y-66000D02*
X-233500D01*
X-235000Y-67500D02*
Y-64500D01*
X91500Y-202187D02*
X94500D01*
X93000Y-203687D02*
Y-200686D01*
X122500Y-229000D02*
X125500D01*
X124000Y-230500D02*
Y-227500D01*
X126262Y-129673D02*
X129262D01*
X127762Y-131173D02*
Y-128173D01*
X148500Y-144000D02*
X151500D01*
X150000Y-145500D02*
Y-142500D01*
X88561Y199939D02*
X91561D01*
X90061Y198439D02*
Y201439D01*
X-11500Y221000D02*
X-8500D01*
X-10000Y219500D02*
Y222500D01*
X-61500Y88000D02*
X-58500D01*
X-60000Y86500D02*
Y89500D01*
X-192500Y62000D02*
X-189500D01*
X-191000Y60500D02*
Y63500D01*
X67500Y214000D02*
X70500D01*
X69000Y212500D02*
Y215500D01*
X76500Y214000D02*
X79500D01*
X78000Y212500D02*
Y215500D01*
X92500Y153000D02*
X95500D01*
X94000Y151500D02*
Y154500D01*
X115500Y152000D02*
X118500D01*
X117000Y150500D02*
Y153500D01*
X38250Y199750D02*
X41250D01*
X39750Y198250D02*
Y201250D01*
X18500Y199750D02*
X21500D01*
X20000Y198250D02*
Y201250D01*
X-56750Y154250D02*
X-53750D01*
X-55250Y152750D02*
Y155750D01*
X-81250Y153974D02*
X-78250D01*
X-79750Y152474D02*
Y155474D01*
X-101250Y154750D02*
X-98250D01*
X-99750Y153250D02*
Y156250D01*
X-82000Y164974D02*
X-79000D01*
X-80500Y163474D02*
Y166474D01*
X48500Y152000D02*
X51500D01*
X50000Y150500D02*
Y153500D01*
X-138300Y155400D02*
X-135300D01*
X-136800Y153900D02*
Y156900D01*
X-142500Y161000D02*
X-139500D01*
X-141000Y159500D02*
Y162500D01*
X-31500Y-199500D02*
X-28500D01*
X-30000Y-201000D02*
Y-198000D01*
X-31524Y-210500D02*
X-28524D01*
X-30024Y-212000D02*
Y-209000D01*
X-11750Y-199500D02*
X-8750D01*
X-10250Y-201000D02*
Y-198000D01*
X59224Y-163000D02*
X62224D01*
X60724Y-164500D02*
Y-161500D01*
X-32089Y-151698D02*
X-29089D01*
X-30589Y-153198D02*
Y-150198D01*
X-2500Y-165400D02*
X500D01*
X-1000Y-166900D02*
Y-163900D01*
X110659Y-165841D02*
X113659D01*
X112159Y-167341D02*
Y-164341D01*
X58500Y-186000D02*
X61500D01*
X60000Y-187500D02*
Y-184500D01*
X-18750Y-124374D02*
X-15750D01*
X-17250Y-125874D02*
Y-122874D01*
X-18625Y-88000D02*
X-15625D01*
X-17125Y-89500D02*
Y-86500D01*
X69000Y-85969D02*
X72000D01*
X70500Y-87469D02*
Y-84469D01*
X71138Y-142500D02*
X74138D01*
X72638Y-144000D02*
Y-141000D01*
X-195500Y-77000D02*
X-192500D01*
X-194000Y-78500D02*
Y-75500D01*
X-128000Y-170900D02*
X-125000D01*
X-126500Y-172400D02*
Y-169400D01*
X-161000Y-159750D02*
X-158000D01*
X-159500Y-161250D02*
Y-158250D01*
X-163750Y-170000D02*
X-160750D01*
X-162250Y-171500D02*
Y-168500D01*
X-144250Y-160000D02*
X-141250D01*
X-142750Y-161500D02*
Y-158500D01*
X-170112Y-79500D02*
X-167113D01*
X-168612Y-81000D02*
Y-78000D01*
X-173500Y-184000D02*
X-170500D01*
X-172000Y-185500D02*
Y-182500D01*
X-175500Y-195000D02*
X-172500D01*
X-174000Y-196500D02*
Y-193500D01*
X115028Y-228472D02*
X118028D01*
X116528Y-229972D02*
Y-226972D01*
X81100Y-245350D02*
X84100D01*
X82600Y-246850D02*
Y-243850D01*
X93800Y-245350D02*
X96800D01*
X95300Y-246850D02*
Y-243850D01*
X45500Y256000D02*
X48500D01*
X47000Y254500D02*
Y257500D01*
X130245Y232745D02*
X133245D01*
X131745Y231245D02*
Y234245D01*
X122500Y235500D02*
X125500D01*
X124000Y234000D02*
Y237000D01*
X150500Y-213000D02*
X153500D01*
X152000Y-214500D02*
Y-211500D01*
X-59000Y-245000D02*
X-56000D01*
X-57500Y-246500D02*
Y-243500D01*
X-43500Y-245000D02*
X-40500D01*
X-42000Y-246500D02*
Y-243500D01*
X91500Y164000D02*
X94500D01*
X93000Y162500D02*
Y165500D01*
X93500Y180000D02*
X96500D01*
X95000Y178500D02*
Y181500D01*
X92883Y194433D02*
X95883D01*
X94383Y192933D02*
Y195933D01*
X98000Y-215000D02*
X101000D01*
X99500Y-216500D02*
Y-213500D01*
X40500Y-213750D02*
X43500D01*
X42000Y-215250D02*
Y-212250D01*
X64500Y107000D02*
X67500D01*
X66000Y105500D02*
Y108500D01*
X63500Y137000D02*
X66500D01*
X65000Y135500D02*
Y138500D01*
X51500Y126000D02*
X54500D01*
X53000Y124500D02*
Y127500D01*
X129750Y-137000D02*
X132750D01*
X131250Y-138500D02*
Y-135500D01*
X-588000Y149000D02*
X-585000D01*
X-586500Y147500D02*
Y150500D01*
X-588000Y165000D02*
X-585000D01*
X-586500Y163500D02*
Y166500D01*
X40500Y-233000D02*
X43500D01*
X42000Y-234500D02*
Y-231500D01*
X133500Y-208950D02*
X136500D01*
X135000Y-210450D02*
Y-207450D01*
X35500Y-255000D02*
X38500D01*
X37000Y-256500D02*
Y-253500D01*
X158500Y43000D02*
X161500D01*
X160000Y41500D02*
Y44500D01*
X160500Y20000D02*
X163500D01*
X162000Y18500D02*
Y21500D01*
X122500Y144611D02*
X125500D01*
X124000Y143111D02*
Y146111D01*
X124500Y133611D02*
X127500D01*
X126000Y132111D02*
Y135111D01*
X101244Y143256D02*
X104244D01*
X102744Y141756D02*
Y144756D01*
X108522Y134978D02*
X111522D01*
X110022Y133478D02*
Y136478D01*
X116292Y134725D02*
X119292D01*
X117792Y133225D02*
Y136225D01*
X162172Y202500D02*
X165172D01*
X163672Y201000D02*
Y204000D01*
X233500Y-110000D02*
X236500D01*
X235000Y-111500D02*
Y-108500D01*
X-70500Y-70000D02*
X-67500D01*
X-69000Y-71500D02*
Y-68500D01*
X159500Y-190750D02*
X162500D01*
X161000Y-192250D02*
Y-189250D01*
X144500Y-183500D02*
X147500D01*
X146000Y-185000D02*
Y-182000D01*
X144500Y-167000D02*
X147500D01*
X146000Y-168500D02*
Y-165500D01*
X68500Y-172500D02*
X71500D01*
X70000Y-174000D02*
Y-171000D01*
X106500Y-214750D02*
X109500D01*
X108000Y-216250D02*
Y-213250D01*
X-192500Y82000D02*
X-189500D01*
X-191000Y80500D02*
Y83500D01*
X-192500Y92000D02*
X-189500D01*
X-191000Y90500D02*
Y93500D01*
X-192500Y102000D02*
X-189500D01*
X-191000Y100500D02*
Y103500D01*
X-192500Y72000D02*
X-189500D01*
X-191000Y70500D02*
Y73500D01*
X27500Y-178000D02*
X30500D01*
X29000Y-179500D02*
Y-176500D01*
X58250Y-143000D02*
X61250D01*
X59750Y-144500D02*
Y-141500D01*
X60000Y-149861D02*
X63000D01*
X61500Y-151362D02*
Y-148362D01*
X129510Y-154341D02*
X132510D01*
X131010Y-155841D02*
Y-152841D01*
X113860Y-189181D02*
X116860D01*
X115360Y-190681D02*
Y-187681D01*
X158974Y-178474D02*
X161974D01*
X160474Y-179974D02*
Y-176974D01*
X98500Y-172000D02*
X101500D01*
X100000Y-173500D02*
Y-170500D01*
X57500Y83000D02*
X60500D01*
X59000Y81500D02*
Y84500D01*
X98822Y245325D02*
X101822D01*
X100322Y243825D02*
Y246825D01*
X106250Y222000D02*
X109250D01*
X107750Y220500D02*
Y223500D01*
X141500Y174000D02*
X144500D01*
X143000Y172500D02*
Y175500D01*
X141500Y160000D02*
X144500D01*
X143000Y158500D02*
Y161500D01*
X66500Y165000D02*
X69500D01*
X68000Y163500D02*
Y166500D01*
X-71375Y219875D02*
X-68375D01*
X-69875Y218375D02*
Y221375D01*
X47500Y177000D02*
X50500D01*
X49000Y175500D02*
Y178500D01*
X-21500Y177500D02*
X-18500D01*
X-20000Y176000D02*
Y179000D01*
X57500Y148281D02*
X60500D01*
X59000Y146781D02*
Y149781D01*
X38250Y209974D02*
X41250D01*
X39750Y208474D02*
Y211474D01*
X25500Y124400D02*
X28500D01*
X27000Y122900D02*
Y125900D01*
X-40500Y-87000D02*
X-37500D01*
X-39000Y-88500D02*
Y-85500D01*
X108500Y-172500D02*
X111500D01*
X110000Y-174000D02*
Y-171000D01*
X101500Y-155000D02*
X104500D01*
X103000Y-156500D02*
Y-153500D01*
X-46889Y-165389D02*
X-43889D01*
X-45389Y-166889D02*
Y-163889D01*
X-25500Y-80000D02*
X-22500D01*
X-24000Y-81500D02*
Y-78500D01*
X-134026Y-120000D02*
X-131026D01*
X-132526Y-121500D02*
Y-118500D01*
X-96000Y-170900D02*
X-93000D01*
X-94500Y-172400D02*
Y-169400D01*
X-69990Y-140510D02*
X-66990D01*
X-68490Y-142010D02*
Y-139010D01*
X29500Y-234000D02*
X32500D01*
X31000Y-235500D02*
Y-232500D01*
X-45500Y-219000D02*
X-42500D01*
X-44000Y-220500D02*
Y-217500D01*
X-50500Y-232000D02*
X-47500D01*
X-49000Y-233500D02*
Y-230500D01*
X-54000Y-150500D02*
X-51000D01*
X-52500Y-152000D02*
Y-149000D01*
X177500Y169000D02*
X180500D01*
X179000Y167500D02*
Y170500D01*
X154146Y174000D02*
X157146D01*
X155646Y172500D02*
Y175500D01*
X105067Y189646D02*
X108067D01*
X106567Y188146D02*
Y191146D01*
X-160500Y170000D02*
X-157500D01*
X-159000Y168500D02*
Y171500D01*
X-521500Y-239000D02*
X-518500D01*
X-520000Y-240500D02*
Y-237500D01*
X-520500Y-78000D02*
X-517500D01*
X-519000Y-79500D02*
Y-76500D01*
X75500Y-131072D02*
X78500D01*
X77000Y-132572D02*
Y-129572D01*
X76500Y-138000D02*
X79500D01*
X78000Y-139500D02*
Y-136500D01*
X89500Y-106000D02*
X92500D01*
X91000Y-107500D02*
Y-104500D01*
X123500Y-107000D02*
X126500D01*
X125000Y-108500D02*
Y-105500D01*
X93000Y137000D02*
X96000D01*
X94500Y135500D02*
Y138500D01*
X127500Y224000D02*
X130500D01*
X129000Y222500D02*
Y225500D01*
X-166500Y48000D02*
X-163500D01*
X-165000Y46500D02*
Y49500D01*
X109500Y205909D02*
X112500D01*
X111000Y204409D02*
Y207409D01*
X116500Y205909D02*
X119500D01*
X118000Y204409D02*
Y207409D01*
X123500Y-191000D02*
X126500D01*
X125000Y-192500D02*
Y-189500D01*
X63250Y-116000D02*
X66250D01*
X64750Y-117500D02*
Y-114500D01*
X145000Y-223000D02*
X148000D01*
X146500Y-224500D02*
Y-221500D01*
X102500Y-184000D02*
X105500D01*
X104000Y-185500D02*
Y-182500D01*
X156500Y-107000D02*
X159500D01*
X158000Y-108500D02*
Y-105500D01*
X134235Y189500D02*
X137234D01*
X135735Y188000D02*
Y191000D01*
X-40500Y224517D02*
X-37500D01*
X-39000Y223017D02*
Y226017D01*
X155539Y195306D02*
X158539D01*
X157039Y193806D02*
Y196806D01*
X152500Y189000D02*
X155500D01*
X154000Y187500D02*
Y190500D01*
X-66500Y137000D02*
X-63500D01*
X-65000Y135500D02*
Y138500D01*
X-81161Y108577D02*
X-78161D01*
X-79661Y107077D02*
Y110077D01*
X-94500Y79000D02*
X-91500D01*
X-93000Y77500D02*
Y80500D01*
M02*
