G04*
G04 #@! TF.GenerationSoftware,Altium Limited,Altium Designer,26.2.0 (7)*
G04*
G04 Layer_Color=39423*
%FSLAX44Y44*%
%MOMM*%
G71*
G04*
G04 #@! TF.SameCoordinates,EBB4E75D-4282-4596-973B-B83497B218A8*
G04*
G04*
G04 #@! TF.FilePolarity,Positive*
G04*
G01*
G75*
%ADD15C,0.1000*%
%ADD111C,2.0000*%
D15*
X275000Y0D02*
G03*
X275000Y0I-275000J0D01*
G01*
D111*
X-224542Y175587D02*
G03*
X-224542Y-175587I224542J-175587D01*
G01*
X224326Y-175863D02*
G03*
X224516Y175621I-224326J175863D01*
G01*
X31000Y0D02*
G03*
X31000Y0I-31000J0D01*
G01*
X201556Y201556D02*
G03*
X-201556Y201556I-201556J-201556D01*
G01*
Y-201556D02*
G03*
X201556Y-201556I201556J201556D01*
G01*
X-400000Y50000D02*
Y183000D01*
X-410000Y50000D02*
X-400000D01*
X-518000D02*
X-410000D01*
X-650000D02*
X-552000D01*
X-280000Y15000D02*
X-240000D01*
X-280000Y0D02*
X-240000D01*
X-280000Y-15000D02*
Y15000D01*
X-240000Y-15000D02*
Y15000D01*
X-280000Y-15000D02*
X-240000D01*
X-410000Y-129000D02*
Y50000D01*
Y-350000D02*
Y-163000D01*
X-493000Y330000D02*
X-400000D01*
X245000Y-62500D02*
X267500D01*
X245000Y85000D02*
X267500D01*
X245000Y-77500D02*
X267500D01*
X245000Y100000D02*
X267500D01*
X245000Y70000D02*
Y100000D01*
Y-92500D02*
Y-62500D01*
Y-92500D02*
X267500D01*
X-650000Y330000D02*
X-527000D01*
X-400000Y217000D02*
Y330000D01*
X267500Y70000D02*
Y100000D01*
Y-92500D02*
Y-62500D01*
X245000Y70000D02*
X267500D01*
M02*
