G04*
G04 #@! TF.GenerationSoftware,Altium Limited,Altium Designer,26.2.0 (7)*
G04*
G04 Layer_Physical_Order=1*
G04 Layer_Color=255*
%FSLAX44Y44*%
%MOMM*%
G71*
G04*
G04 #@! TF.SameCoordinates,EBB4E75D-4282-4596-973B-B83497B218A8*
G04*
G04*
G04 #@! TF.FilePolarity,Positive*
G04*
G01*
G75*
%ADD11C,0.2500*%
%ADD14C,0.2000*%
%ADD20R,0.3048X0.8128*%
%ADD21R,1.1000X1.4000*%
%ADD22R,0.8000X0.9000*%
%ADD23R,0.8500X0.8000*%
%ADD24R,0.9000X0.8000*%
%ADD25R,0.8000X0.8500*%
%ADD26R,1.9000X0.6000*%
%ADD27R,1.1000X1.2000*%
%ADD29R,1.4000X1.0000*%
%ADD30R,2.7000X3.3000*%
%ADD31R,2.7000X0.9000*%
%ADD32R,1.4542X0.8821*%
G04:AMPARAMS|DCode=33|XSize=1.4542mm|YSize=3.1821mm|CornerRadius=0.4435mm|HoleSize=0mm|Usage=FLASHONLY|Rotation=0.000|XOffset=0mm|YOffset=0mm|HoleType=Round|Shape=RoundedRectangle|*
%AMROUNDEDRECTD33*
21,1,1.4542,2.2951,0,0,0.0*
21,1,0.5671,3.1821,0,0,0.0*
1,1,0.8870,0.2836,-1.1476*
1,1,0.8870,-0.2836,-1.1476*
1,1,0.8870,-0.2836,1.1476*
1,1,0.8870,0.2836,1.1476*
%
%ADD33ROUNDEDRECTD33*%
G04:AMPARAMS|DCode=34|XSize=1.4542mm|YSize=0.8821mm|CornerRadius=0.4411mm|HoleSize=0mm|Usage=FLASHONLY|Rotation=0.000|XOffset=0mm|YOffset=0mm|HoleType=Round|Shape=RoundedRectangle|*
%AMROUNDEDRECTD34*
21,1,1.4542,0.0000,0,0,0.0*
21,1,0.5720,0.8821,0,0,0.0*
1,1,0.8821,0.2860,0.0000*
1,1,0.8821,-0.2860,0.0000*
1,1,0.8821,-0.2860,0.0000*
1,1,0.8821,0.2860,0.0000*
%
%ADD34ROUNDEDRECTD34*%
%ADD35R,1.2000X0.5000*%
%ADD36R,0.5000X1.2000*%
%ADD37R,1.6539X0.5421*%
G04:AMPARAMS|DCode=38|XSize=1.6539mm|YSize=0.5421mm|CornerRadius=0.2711mm|HoleSize=0mm|Usage=FLASHONLY|Rotation=0.000|XOffset=0mm|YOffset=0mm|HoleType=Round|Shape=RoundedRectangle|*
%AMROUNDEDRECTD38*
21,1,1.6539,0.0000,0,0,0.0*
21,1,1.1118,0.5421,0,0,0.0*
1,1,0.5421,0.5559,0.0000*
1,1,0.5421,-0.5559,0.0000*
1,1,0.5421,-0.5559,0.0000*
1,1,0.5421,0.5559,0.0000*
%
%ADD38ROUNDEDRECTD38*%
%ADD39R,1.3000X0.3000*%
%ADD40R,2.2000X1.8000*%
%ADD41R,1.6000X1.5500*%
%ADD42R,1.1000X1.5000*%
%ADD43R,1.5500X1.6000*%
G04:AMPARAMS|DCode=44|XSize=3.45mm|YSize=1.85mm|CornerRadius=0mm|HoleSize=0mm|Usage=FLASHONLY|Rotation=135.000|XOffset=0mm|YOffset=0mm|HoleType=Round|Shape=Rectangle|*
%AMROTATEDRECTD44*
4,1,4,1.8738,-0.5657,0.5657,-1.8738,-1.8738,0.5657,-0.5657,1.8738,1.8738,-0.5657,0.0*
%
%ADD44ROTATEDRECTD44*%

G04:AMPARAMS|DCode=45|XSize=3.45mm|YSize=1.85mm|CornerRadius=0mm|HoleSize=0mm|Usage=FLASHONLY|Rotation=45.000|XOffset=0mm|YOffset=0mm|HoleType=Round|Shape=Rectangle|*
%AMROTATEDRECTD45*
4,1,4,-0.5657,-1.8738,-1.8738,-0.5657,0.5657,1.8738,1.8738,0.5657,-0.5657,-1.8738,0.0*
%
%ADD45ROTATEDRECTD45*%

%ADD47R,3.4500X1.8500*%
G04:AMPARAMS|DCode=48|XSize=1.6539mm|YSize=0.5421mm|CornerRadius=0.2711mm|HoleSize=0mm|Usage=FLASHONLY|Rotation=90.000|XOffset=0mm|YOffset=0mm|HoleType=Round|Shape=RoundedRectangle|*
%AMROUNDEDRECTD48*
21,1,1.6539,0.0000,0,0,90.0*
21,1,1.1118,0.5421,0,0,90.0*
1,1,0.5421,0.0000,0.5559*
1,1,0.5421,0.0000,-0.5559*
1,1,0.5421,0.0000,-0.5559*
1,1,0.5421,0.0000,0.5559*
%
%ADD48ROUNDEDRECTD48*%
%ADD49R,0.5421X1.6539*%
%AMCUSTOMSHAPE82*
4,1,5,-0.5000,-0.6875,-0.5000,0.6875,0.0000,0.1875,0.5000,0.6875,0.5000,-0.6875,-0.5000,-0.6875,0.0*%
%ADD82CUSTOMSHAPE82*%

%AMCUSTOMSHAPE83*
4,1,5,0.5000,0.7125,0.5000,-0.2125,0.0000,-0.7125,-0.5000,-0.2125,-0.5000,0.7125,0.5000,0.7125,0.0*%
%ADD83CUSTOMSHAPE83*%

%ADD84R,1.0000X0.5000*%
%ADD85C,1.0000*%
%ADD86C,0.7900*%
%ADD87R,0.5000X1.0000*%
%AMCUSTOMSHAPE88*
4,1,5,0.7125,-0.5000,-0.2125,-0.5000,-0.7125,-0.0000,-0.2125,0.5000,0.7125,0.5000,0.7125,-0.5000,0.0*%
%ADD88CUSTOMSHAPE88*%

%AMCUSTOMSHAPE89*
4,1,5,-0.6875,0.5000,0.6875,0.5000,0.1875,0.0000,0.6875,-0.5000,-0.6875,-0.5000,-0.6875,0.5000,0.0*%
%ADD89CUSTOMSHAPE89*%

%ADD90C,1.0160*%
%ADD91R,2.8448X2.8448*%
%ADD92C,2.8448*%
%ADD93C,2.4000*%
%ADD94C,1.6000*%
%ADD95C,0.9000*%
%ADD96C,1.5000*%
%ADD97C,0.5000*%
%ADD98C,0.8000*%
G36*
X-503087Y314601D02*
X-501399Y312913D01*
X-499193Y312000D01*
X-496806D01*
X-494601Y312913D01*
X-492913Y314601D01*
X-492790Y314898D01*
X-415102D01*
Y217210D01*
X-415399Y217087D01*
X-417086Y215399D01*
X-418000Y213193D01*
Y210807D01*
X-417086Y208601D01*
X-415399Y206914D01*
X-414853Y206687D01*
Y205313D01*
X-415399Y205087D01*
X-417086Y203399D01*
X-418000Y201194D01*
Y198806D01*
X-417086Y196601D01*
X-415399Y194914D01*
X-414853Y194687D01*
Y193313D01*
X-415399Y193087D01*
X-417086Y191399D01*
X-418000Y189193D01*
Y186807D01*
X-417086Y184601D01*
X-415399Y182913D01*
X-415102Y182790D01*
Y65102D01*
X-509879D01*
Y241000D01*
X-510362Y245901D01*
X-511791Y250613D01*
X-514113Y254956D01*
X-517237Y258763D01*
X-521044Y261887D01*
X-525387Y264209D01*
X-530099Y265638D01*
X-535000Y266121D01*
X-646941D01*
Y314898D01*
X-557500D01*
Y313013D01*
X-556989Y311105D01*
X-556002Y309395D01*
X-554605Y307999D01*
X-552895Y307011D01*
X-550987Y306500D01*
X-549013D01*
X-547105Y307011D01*
X-545395Y307999D01*
X-543998Y309395D01*
X-543011Y311105D01*
X-542500Y313013D01*
Y314898D01*
X-527210D01*
X-527087Y314601D01*
X-525399Y312913D01*
X-523194Y312000D01*
X-520807D01*
X-518601Y312913D01*
X-516913Y314601D01*
X-516687Y315147D01*
X-515313D01*
X-515087Y314601D01*
X-513399Y312913D01*
X-511194Y312000D01*
X-508806D01*
X-506601Y312913D01*
X-504913Y314601D01*
X-504687Y315147D01*
X-503313D01*
X-503087Y314601D01*
D02*
G37*
G36*
X-77500Y257425D02*
Y252559D01*
X-85000D01*
X-86171Y252326D01*
X-87163Y251663D01*
X-87826Y250671D01*
X-88059Y249500D01*
Y249000D01*
X-92500D01*
Y233000D01*
X-77500D01*
Y239230D01*
X-77500Y240500D01*
X-63770D01*
X-62500Y240500D01*
X-61230Y240500D01*
X-47500Y240500D01*
X-47500Y239230D01*
Y230770D01*
X-47500Y229500D01*
X-48770Y229500D01*
X-61230D01*
X-62500Y229500D01*
X-63770Y229500D01*
X-77500D01*
X-77500Y231000D01*
X-92500D01*
Y225039D01*
X-143000D01*
X-143780Y224884D01*
X-144442Y224442D01*
X-144884Y223780D01*
X-145039Y223000D01*
Y180000D01*
X-144884Y179220D01*
X-144442Y178558D01*
X-143780Y178116D01*
X-143000Y177961D01*
X-105497D01*
Y174372D01*
X-105342Y173592D01*
X-104900Y172930D01*
X-104238Y172488D01*
X-103458Y172333D01*
X-86819D01*
X-86189Y171439D01*
X-86405Y171039D01*
X-101500D01*
X-101506Y171038D01*
X-103524D01*
Y169076D01*
X-103539Y169000D01*
Y168033D01*
X-110000D01*
Y171500D01*
X-122000D01*
Y158500D01*
X-110000D01*
Y161915D01*
X-103539D01*
Y161000D01*
X-103524Y160924D01*
Y158910D01*
X-103274D01*
Y157590D01*
X-103565Y157299D01*
X-104250Y155645D01*
Y153855D01*
X-103565Y152201D01*
X-103274Y151910D01*
Y148562D01*
X-76726D01*
Y150634D01*
X-75935Y151425D01*
X-75250Y153079D01*
Y154869D01*
X-75935Y156523D01*
X-76512Y157100D01*
X-76436Y158370D01*
X-76436D01*
Y161910D01*
X-76227Y162119D01*
X-75571Y163704D01*
X-80500D01*
Y166244D01*
X-75571D01*
X-76227Y167829D01*
X-76436Y168038D01*
Y171257D01*
X-76366Y171751D01*
X-75996Y172666D01*
X-75600Y172930D01*
X-75158Y173592D01*
X-75003Y174372D01*
Y177999D01*
X-74417Y178116D01*
X-73755Y178558D01*
X-73313Y179220D01*
X-73158Y180000D01*
Y210500D01*
X-66799D01*
X-66547Y209230D01*
X-67549Y208815D01*
X-68815Y207549D01*
X-69500Y205895D01*
Y204105D01*
X-68815Y202451D01*
X-67549Y201185D01*
X-65895Y200500D01*
X-64105D01*
X-63556Y200727D01*
X-62500Y200022D01*
Y195000D01*
X-47810D01*
X-47500Y195000D01*
X-47216Y194779D01*
Y194024D01*
X-48395Y193000D01*
X-62500D01*
Y177000D01*
X-50652D01*
X-50000Y176000D01*
X-50000Y175730D01*
Y164000D01*
X-50500Y164000D01*
Y157607D01*
X-51770Y157134D01*
X-52701Y158065D01*
X-54355Y158750D01*
X-56145D01*
X-57799Y158065D01*
X-59065Y156799D01*
X-59750Y155145D01*
Y153355D01*
X-59065Y151701D01*
X-57799Y150435D01*
X-56145Y149750D01*
X-54355D01*
X-52701Y150435D01*
X-51770Y151366D01*
X-50500Y151000D01*
X-50455Y151000D01*
X-47559D01*
Y91500D01*
X-50500D01*
Y78500D01*
X-38500D01*
Y91500D01*
X-41441D01*
Y151000D01*
X-38500D01*
Y161569D01*
X-37332Y162627D01*
X-37046Y162568D01*
X-37040Y162562D01*
Y158770D01*
X-30500D01*
X-23960D01*
Y164540D01*
X-24460D01*
Y168730D01*
X-31250D01*
Y171270D01*
X-24460D01*
Y174163D01*
X-23190Y174326D01*
X-22549Y173685D01*
X-20895Y173000D01*
X-19105D01*
X-17451Y173685D01*
X-16185Y174951D01*
X-15500Y176605D01*
Y178395D01*
X-15502Y178401D01*
X-14361Y178964D01*
X-14135Y178572D01*
X-11428Y175865D01*
X-8112Y173951D01*
X-4414Y172960D01*
X-3770D01*
Y186230D01*
X-17040D01*
Y185586D01*
X-16049Y181888D01*
X-15805Y181465D01*
X-16821Y180685D01*
X-17451Y181315D01*
X-19105Y182000D01*
X-20460D01*
Y186730D01*
X-27500D01*
Y188000D01*
X-28770D01*
Y194540D01*
X-32562D01*
X-32568Y194546D01*
X-32627Y194832D01*
X-31569Y196000D01*
X-21000D01*
Y207341D01*
X-16000D01*
Y203900D01*
X-4000D01*
Y216900D01*
X-5940D01*
X-6466Y218170D01*
X-6185Y218451D01*
X-5500Y220105D01*
Y221895D01*
X-5670Y222305D01*
X-4964Y223361D01*
X14753D01*
Y219372D01*
X14908Y218592D01*
X15350Y217930D01*
X16012Y217488D01*
X16792Y217333D01*
X33431D01*
X34061Y216439D01*
X33845Y216039D01*
X18750D01*
X18744Y216038D01*
X16726D01*
Y214076D01*
X16711Y214000D01*
Y213033D01*
X10000D01*
Y216900D01*
X-2000D01*
Y203900D01*
X10000D01*
Y206915D01*
X16256D01*
X16726Y205840D01*
X16726Y205840D01*
X16726D01*
X16726Y205840D01*
Y202840D01*
X16185Y202299D01*
X15500Y200645D01*
Y198855D01*
X16185Y197201D01*
X16726Y196660D01*
Y193712D01*
X43274D01*
Y195924D01*
X43289Y196000D01*
Y196925D01*
X43565Y197201D01*
X44250Y198855D01*
Y200645D01*
X43647Y202100D01*
X43814Y203370D01*
X43814D01*
Y206910D01*
X44023Y207119D01*
X44679Y208704D01*
X39750D01*
Y211244D01*
X44679D01*
X44023Y212829D01*
X43814Y213038D01*
Y216257D01*
X43884Y216751D01*
X44254Y217666D01*
X44650Y217930D01*
X45092Y218592D01*
X45247Y219372D01*
Y223449D01*
X45583Y223516D01*
X46245Y223958D01*
X46687Y224620D01*
X46842Y225400D01*
Y237856D01*
X46997Y237960D01*
X49002D01*
X50855Y238727D01*
X52273Y240145D01*
X52929Y241730D01*
X48000D01*
Y244270D01*
X52929D01*
X52273Y245855D01*
X50855Y247273D01*
X49002Y248040D01*
X46997D01*
X46842Y248144D01*
Y251500D01*
X47895D01*
X49549Y252185D01*
X50305Y252941D01*
X55046D01*
X55681Y251841D01*
X55600Y251702D01*
X55125Y249928D01*
Y248092D01*
X55600Y246318D01*
X56519Y244727D01*
X57817Y243429D01*
X59408Y242510D01*
X61182Y242035D01*
X63018D01*
X64792Y242510D01*
X66383Y243429D01*
X67100Y244146D01*
X68476Y243726D01*
X68752Y242695D01*
X69607Y241215D01*
X70815Y240007D01*
X72169Y239225D01*
X72264Y238736D01*
X72200Y237863D01*
X71430Y237544D01*
X69756Y235870D01*
X68850Y233683D01*
Y233489D01*
X68025Y233124D01*
X67580Y233074D01*
X66383Y234271D01*
X64792Y235190D01*
X63018Y235665D01*
X61182D01*
X59408Y235190D01*
X57817Y234271D01*
X56519Y232973D01*
X55600Y231382D01*
X55125Y229608D01*
Y227772D01*
X55600Y225998D01*
X56519Y224407D01*
X57817Y223109D01*
X59408Y222190D01*
X61182Y221715D01*
X62815D01*
X63173Y221220D01*
X63398Y220502D01*
X52837Y209941D01*
X52174Y208949D01*
X51941Y207778D01*
X51941Y207778D01*
Y191317D01*
X50702Y190601D01*
X49399Y189298D01*
X48477Y187702D01*
X48000Y185922D01*
Y184078D01*
X48351Y182770D01*
X48197Y181978D01*
X47594Y181288D01*
X46451Y180815D01*
X46420Y180784D01*
X45247Y181271D01*
Y190378D01*
X45092Y191158D01*
X44650Y191820D01*
X43988Y192262D01*
X43208Y192417D01*
X16792D01*
X16012Y192262D01*
X15350Y191820D01*
X14908Y191158D01*
X14753Y190378D01*
Y173439D01*
X14000D01*
X13220Y173284D01*
X12558Y172842D01*
X12116Y172180D01*
X11961Y171400D01*
Y146178D01*
X10691Y145925D01*
X9856Y147941D01*
X8021Y150686D01*
X5686Y153021D01*
X2941Y154856D01*
X-110Y156120D01*
X-3349Y156764D01*
X-3730D01*
Y140000D01*
X-5000D01*
Y138730D01*
X-21764D01*
Y138349D01*
X-21120Y135110D01*
X-19856Y132059D01*
X-18021Y129314D01*
X-15686Y126979D01*
X-12941Y125144D01*
X-9890Y123880D01*
X-9030Y123709D01*
X-9155Y122439D01*
X-25000D01*
X-25780Y122284D01*
X-26442Y121842D01*
X-26884Y121180D01*
X-27039Y120400D01*
Y91500D01*
X-36500D01*
Y78500D01*
X-27039D01*
Y77400D01*
X-26884Y76620D01*
X-26442Y75958D01*
X-25780Y75516D01*
X-25000Y75361D01*
X-22909D01*
X-22731Y74103D01*
X-25637Y73266D01*
X-33679Y69935D01*
X-41297Y65725D01*
X-48397Y60687D01*
X-54887Y54887D01*
X-60687Y48397D01*
X-65725Y41297D01*
X-67731Y37667D01*
X-68961Y37984D01*
Y126000D01*
X-69116Y126780D01*
X-69558Y127442D01*
X-70220Y127884D01*
X-71000Y128039D01*
X-74753D01*
Y145228D01*
X-74908Y146008D01*
X-75350Y146670D01*
X-76012Y147112D01*
X-76792Y147267D01*
X-103208D01*
X-103988Y147112D01*
X-104650Y146670D01*
X-105092Y146008D01*
X-105247Y145228D01*
Y128039D01*
X-106000D01*
X-106780Y127884D01*
X-107442Y127442D01*
X-107884Y126780D01*
X-108039Y126000D01*
Y100778D01*
X-109309Y100525D01*
X-110144Y102541D01*
X-111979Y105286D01*
X-114314Y107621D01*
X-117059Y109456D01*
X-120110Y110720D01*
X-123349Y111364D01*
X-123730D01*
Y94600D01*
X-125000D01*
Y93330D01*
X-141764D01*
Y92949D01*
X-141120Y89710D01*
X-139856Y86659D01*
X-138021Y83913D01*
X-135686Y81579D01*
X-132941Y79744D01*
X-129890Y78480D01*
X-129030Y78309D01*
X-129155Y77039D01*
X-145000D01*
X-145780Y76884D01*
X-146442Y76442D01*
X-146884Y75780D01*
X-147039Y75000D01*
Y46100D01*
X-156500D01*
Y33100D01*
X-147039D01*
Y32000D01*
X-146884Y31220D01*
X-146442Y30558D01*
X-145780Y30116D01*
X-145000Y29961D01*
X-72618D01*
X-71913Y28905D01*
X-73266Y25637D01*
X-73415Y25121D01*
X-228764Y25121D01*
X-230018Y26375D01*
X-230436Y26654D01*
X-230791Y27009D01*
X-232429Y28104D01*
X-232893Y28296D01*
X-233311Y28575D01*
X-235131Y29329D01*
X-235624Y29427D01*
X-236087Y29619D01*
X-238020Y30004D01*
X-238522D01*
X-239015Y30102D01*
X-267201D01*
X-268048Y31048D01*
X-267364Y37203D01*
X-264899Y51926D01*
X-261623Y66489D01*
X-257548Y80849D01*
X-252686Y94962D01*
X-247050Y108784D01*
X-240659Y122274D01*
X-233532Y135390D01*
X-225691Y148092D01*
X-217140Y160369D01*
X-216262Y161525D01*
X-214600Y161613D01*
X-207892Y154904D01*
X-193898Y168898D01*
X-179904Y182892D01*
X-187343Y190330D01*
X-197735Y179939D01*
X-198811Y180658D01*
X-198750Y180807D01*
Y183193D01*
X-199616Y185284D01*
X-199621Y185488D01*
X-199086Y186618D01*
X-198920Y186628D01*
X-198227Y186814D01*
X-198034Y186734D01*
X-195647D01*
X-193442Y187647D01*
X-191754Y189335D01*
X-191283Y190473D01*
X-190904Y190852D01*
X-185474Y196131D01*
X-174158Y206244D01*
X-162320Y215685D01*
X-149971Y224447D01*
X-137150Y232503D01*
X-123898Y239827D01*
X-110255Y246397D01*
X-96266Y252191D01*
X-81975Y257192D01*
X-78515Y258189D01*
X-77500Y257425D01*
D02*
G37*
G36*
X37735Y267290D02*
X44803Y266089D01*
Y259961D01*
X44451Y259815D01*
X43185Y258549D01*
X42500Y256895D01*
Y255105D01*
X43185Y253451D01*
X44451Y252185D01*
X44803Y252039D01*
Y246167D01*
X44185Y245549D01*
X43500Y243895D01*
Y242105D01*
X44185Y240451D01*
X44803Y239833D01*
Y225400D01*
X43208D01*
Y219372D01*
X16792D01*
Y225400D01*
X-8864D01*
X-9105Y225500D01*
X-10895D01*
X-11136Y225400D01*
X-23000D01*
Y268400D01*
X27879D01*
X37735Y267290D01*
D02*
G37*
G36*
X95156Y229130D02*
X96830Y227456D01*
X99017Y226550D01*
X101383D01*
X103570Y227456D01*
X104046Y227931D01*
X104623Y227816D01*
X104623Y227816D01*
X118209D01*
X118735Y226546D01*
X116337Y224148D01*
X115674Y223156D01*
X115441Y221985D01*
X115441Y221985D01*
Y218000D01*
X90559D01*
Y227327D01*
X90870Y227456D01*
X92544Y229130D01*
X93163Y230623D01*
X94537D01*
X95156Y229130D01*
D02*
G37*
G36*
X114941Y191000D02*
X114941Y191000D01*
X115174Y189830D01*
X115837Y188837D01*
X124837Y179837D01*
X124837Y179837D01*
X125829Y179174D01*
X127000Y178941D01*
X127000Y178941D01*
X137000D01*
X137000Y178941D01*
X138170Y179174D01*
X139163Y179837D01*
X148230Y188904D01*
X149500Y188378D01*
Y188105D01*
X150185Y186451D01*
X151451Y185185D01*
X151521Y185156D01*
X151748Y184013D01*
X152411Y183020D01*
X155595Y179837D01*
X155695Y179770D01*
X155310Y178500D01*
X154751D01*
X153097Y177815D01*
X151831Y176549D01*
X151146Y174895D01*
Y173105D01*
X151831Y171451D01*
X153097Y170185D01*
X154751Y169500D01*
X156541D01*
X157000Y169193D01*
Y159000D01*
Y151000D01*
Y143000D01*
Y135000D01*
X168674D01*
X175961Y127713D01*
Y124000D01*
X176000Y123803D01*
Y122000D01*
X177803D01*
X178000Y121961D01*
X191750D01*
X191750Y121961D01*
X192530Y122116D01*
X192795Y122293D01*
X192918Y122169D01*
X193759Y121607D01*
X194750Y121410D01*
X195605D01*
Y129000D01*
Y136589D01*
X194750Y136589D01*
X193759Y136392D01*
X193759Y136392D01*
X192918Y135831D01*
X192795Y135707D01*
X192530Y135884D01*
X191750Y136039D01*
X178000D01*
X177803Y136000D01*
X176326D01*
X173000Y139326D01*
Y143941D01*
X191189D01*
X191227Y143798D01*
X192149Y142202D01*
X193452Y140899D01*
X195048Y139977D01*
X196828Y139500D01*
X198672D01*
X200452Y139977D01*
X202048Y140899D01*
X203351Y142202D01*
X204273Y143798D01*
X204750Y145578D01*
Y147422D01*
X204273Y149202D01*
X203351Y150798D01*
X202048Y152101D01*
X200452Y153023D01*
X198672Y153500D01*
X196828D01*
X195048Y153023D01*
X193452Y152101D01*
X192149Y150798D01*
X191722Y150059D01*
X187691D01*
X186963Y151329D01*
X187523Y152298D01*
X188000Y154078D01*
Y155922D01*
X187523Y157702D01*
X186711Y159109D01*
X187120Y160379D01*
X191147D01*
X191899Y159077D01*
X193202Y157774D01*
X194798Y156852D01*
X196578Y156375D01*
X198421D01*
X200202Y156852D01*
X201798Y157774D01*
X203101Y159077D01*
X204023Y160673D01*
X204500Y162453D01*
Y164296D01*
X204023Y166077D01*
X203101Y167673D01*
X201798Y168976D01*
X200202Y169898D01*
X198421Y170375D01*
X196578D01*
X194798Y169898D01*
X193202Y168976D01*
X191899Y167673D01*
X191219Y166496D01*
X183977D01*
X183271Y167552D01*
X183500Y168105D01*
Y169895D01*
X182815Y171549D01*
X182059Y172305D01*
Y174000D01*
X185500D01*
Y175255D01*
X186770Y175707D01*
X188317Y175066D01*
X190107D01*
X191761Y175751D01*
X193027Y177017D01*
X193712Y178671D01*
Y180461D01*
X193027Y182115D01*
X191761Y183381D01*
X190107Y184066D01*
X188317D01*
X186770Y183425D01*
X185500Y183877D01*
Y186000D01*
X177449D01*
X176913Y186735D01*
X177436Y188000D01*
X185500D01*
Y194475D01*
X186670Y194969D01*
X190903Y190853D01*
X191283Y190473D01*
X191754Y189335D01*
X193442Y187647D01*
X195647Y186734D01*
X198034D01*
X198239Y186819D01*
X199113Y186645D01*
X199569Y185613D01*
X199603Y185252D01*
X198750Y183193D01*
Y180807D01*
X199664Y178601D01*
X201351Y176913D01*
X203556Y176000D01*
X205944D01*
X207670Y176715D01*
X208645Y175750D01*
X208000Y174193D01*
Y171807D01*
X208913Y169601D01*
X210601Y167913D01*
X211771Y167429D01*
X211809Y167354D01*
X212599Y166345D01*
X217117Y160401D01*
X225672Y148121D01*
X233516Y135417D01*
X240646Y122299D01*
X243493Y116293D01*
X243493Y116253D01*
X243271Y115665D01*
X242726Y114945D01*
X241087Y114619D01*
X240623Y114427D01*
X240131Y114329D01*
X238311Y113575D01*
X237893Y113296D01*
X237429Y113104D01*
X235791Y112009D01*
X235436Y111654D01*
X235018Y111375D01*
X233764Y110121D01*
X166625D01*
X166285Y111391D01*
X166298Y111399D01*
X167601Y112702D01*
X168523Y114298D01*
X169000Y116078D01*
Y117922D01*
X168523Y119702D01*
X167601Y121298D01*
X166298Y122601D01*
X164702Y123523D01*
X162922Y124000D01*
X161078D01*
X159298Y123523D01*
X157702Y122601D01*
X156399Y121298D01*
X156270Y121075D01*
X155000Y121416D01*
Y133000D01*
X153559D01*
Y135328D01*
X153326Y136499D01*
X152663Y137491D01*
X135991Y154163D01*
X134999Y154826D01*
X133828Y155059D01*
X133828Y155059D01*
X120305D01*
X119549Y155815D01*
X117895Y156500D01*
X116105D01*
X114451Y155815D01*
X113185Y154549D01*
X112500Y152895D01*
Y151105D01*
X113185Y149451D01*
X114451Y148185D01*
X116105Y147500D01*
X117895D01*
X119549Y148185D01*
X120217Y147192D01*
X120185Y147160D01*
X119500Y145506D01*
Y143716D01*
X120185Y142062D01*
X121451Y140796D01*
X123105Y140111D01*
X124895D01*
X126549Y140796D01*
X127120Y141367D01*
X128337Y141263D01*
X129330Y140600D01*
X130500Y140367D01*
X131057D01*
X137251Y134173D01*
X136765Y133000D01*
X130500D01*
Y134506D01*
X129815Y136160D01*
X128549Y137426D01*
X126895Y138111D01*
X125105D01*
X123451Y137426D01*
X123075Y137050D01*
X121607Y137274D01*
X120341Y138540D01*
X118687Y139225D01*
X116897D01*
X115243Y138540D01*
X114863Y138160D01*
X113837Y137527D01*
X112571Y138792D01*
X110918Y139478D01*
X109127D01*
X107473Y138792D01*
X107248Y138567D01*
X106070Y139030D01*
X105950Y140097D01*
X106559Y140707D01*
X107244Y142361D01*
Y144151D01*
X106559Y145805D01*
X105293Y147071D01*
X103639Y147756D01*
X101849D01*
X100195Y147071D01*
X98929Y145805D01*
X98244Y144151D01*
Y142361D01*
X98929Y140707D01*
X98014Y139850D01*
X97049Y140815D01*
X95395Y141500D01*
X93605D01*
X91951Y140815D01*
X90685Y139549D01*
X90000Y137895D01*
Y136105D01*
X90685Y134451D01*
X90866Y134270D01*
X90340Y133000D01*
X90000D01*
Y129000D01*
X78540D01*
Y129540D01*
X73020D01*
Y123000D01*
Y116460D01*
X78540D01*
Y117000D01*
X133566D01*
X133837Y116594D01*
X136594Y113837D01*
X136594Y113837D01*
X137587Y113174D01*
X138757Y112941D01*
X138757Y112941D01*
X156260D01*
X156399Y112702D01*
X157702Y111399D01*
X157715Y111391D01*
X157375Y110121D01*
X105000D01*
X100099Y109638D01*
X95387Y108209D01*
X91044Y105887D01*
X87237Y102763D01*
X84113Y98956D01*
X81791Y94613D01*
X80362Y89901D01*
X79879Y85000D01*
Y25121D01*
X73415D01*
X73266Y25637D01*
X69935Y33679D01*
X65725Y41297D01*
X60687Y48397D01*
X54887Y54887D01*
X48397Y60687D01*
X41297Y65725D01*
X33679Y69935D01*
X25637Y73266D01*
X22731Y74103D01*
X22909Y75361D01*
X49000D01*
X49780Y75516D01*
X50442Y75958D01*
X50884Y76620D01*
X51039Y77400D01*
Y120799D01*
X52095Y121504D01*
X52105Y121500D01*
X53895D01*
X55549Y122185D01*
X56815Y123451D01*
X57500Y125105D01*
Y126895D01*
X56815Y128549D01*
X55549Y129815D01*
X53895Y130500D01*
X52105D01*
X52095Y130496D01*
X51039Y131201D01*
Y147543D01*
X51036Y147558D01*
X52549Y148185D01*
X53230Y148866D01*
X54500Y148340D01*
Y147386D01*
X55185Y145732D01*
X56451Y144466D01*
X58105Y143781D01*
X59895D01*
X61549Y144466D01*
X61915Y144832D01*
X70311D01*
X71460Y144540D01*
Y140770D01*
X80000D01*
X88540D01*
Y144540D01*
X88000D01*
Y151000D01*
Y160691D01*
X89945D01*
X90451Y160185D01*
X92105Y159500D01*
X93895D01*
X95549Y160185D01*
X96815Y161451D01*
X97500Y163105D01*
Y164895D01*
X96815Y166549D01*
X95549Y167815D01*
X93895Y168500D01*
X92105D01*
X90451Y167815D01*
X89445Y166809D01*
X88000D01*
Y176691D01*
X91945D01*
X92451Y176185D01*
X94105Y175500D01*
X95895D01*
X97549Y176185D01*
X98815Y177451D01*
X99500Y179105D01*
Y180895D01*
X98815Y182549D01*
X97549Y183815D01*
X95895Y184500D01*
X94105D01*
X92451Y183815D01*
X91445Y182809D01*
X88000D01*
Y190881D01*
X91571D01*
X91834Y190618D01*
X93488Y189933D01*
X95278D01*
X96932Y190618D01*
X98198Y191884D01*
X98883Y193538D01*
Y195328D01*
X98198Y196982D01*
X96932Y198248D01*
X95278Y198933D01*
X94635D01*
X94561Y199044D01*
Y200834D01*
X94515Y200944D01*
X95221Y202000D01*
X98588D01*
X99441Y201165D01*
X99674Y199994D01*
X100337Y199002D01*
X103508Y195831D01*
Y192952D01*
X102752Y192195D01*
X102067Y190541D01*
Y188751D01*
X102752Y187097D01*
X104018Y185832D01*
X105672Y185146D01*
X107462D01*
X109116Y185832D01*
X110382Y187097D01*
X111067Y188751D01*
Y190541D01*
X110382Y192195D01*
X109625Y192952D01*
Y197098D01*
X109626Y197098D01*
X109393Y198269D01*
X108730Y199261D01*
X108729Y199261D01*
X107164Y200827D01*
X107650Y202000D01*
X108677D01*
X110105Y201409D01*
X111895D01*
X113323Y202000D01*
X114941D01*
Y191000D01*
D02*
G37*
G36*
X34750Y203750D02*
X41250D01*
Y196000D01*
X25250D01*
Y206000D01*
X18750D01*
Y214000D01*
X34750D01*
Y203750D01*
D02*
G37*
G36*
X-560121Y65102D02*
X-646941D01*
Y194675D01*
X-645768Y195161D01*
X-645605Y194998D01*
X-643895Y194011D01*
X-641987Y193500D01*
X-640013D01*
X-638105Y194011D01*
X-636395Y194998D01*
X-634999Y196395D01*
X-634011Y198105D01*
X-633500Y200013D01*
Y201987D01*
X-634011Y203895D01*
X-634999Y205605D01*
X-636395Y207001D01*
X-638105Y207989D01*
X-640013Y208500D01*
X-641987D01*
X-643895Y207989D01*
X-645605Y207001D01*
X-645768Y206838D01*
X-646941Y207325D01*
Y215879D01*
X-560121D01*
Y65102D01*
D02*
G37*
G36*
X-92500Y215000D02*
X-90185D01*
X-89480Y213944D01*
X-89500Y213895D01*
Y212105D01*
X-88815Y210451D01*
X-87549Y209185D01*
X-85895Y208500D01*
X-84105D01*
X-82451Y209185D01*
X-81185Y210451D01*
X-80500Y212105D01*
Y213895D01*
X-80520Y213944D01*
X-79815Y215000D01*
X-77500D01*
X-77500Y213730D01*
Y210500D01*
X-75197D01*
Y180000D01*
X-77042D01*
Y174372D01*
X-103458D01*
Y180000D01*
X-143000D01*
Y223000D01*
X-92500D01*
Y215000D01*
D02*
G37*
G36*
X65837Y169337D02*
X66830Y168674D01*
X68000Y168441D01*
X72000D01*
Y158559D01*
X54278D01*
X54278Y158559D01*
X53108Y158326D01*
X52309Y157793D01*
X51423Y158052D01*
X51039Y158268D01*
Y171400D01*
X50884Y172180D01*
X51137Y173014D01*
X51549Y173185D01*
X52305Y173941D01*
X61233D01*
X65837Y169337D01*
D02*
G37*
G36*
X-85500Y158750D02*
X-79000D01*
Y151000D01*
X-95000D01*
Y161000D01*
X-101500D01*
Y169000D01*
X-85500D01*
Y158750D01*
D02*
G37*
G36*
X43208Y171400D02*
X49000D01*
Y156456D01*
X47451Y155815D01*
X46185Y154549D01*
X45500Y152895D01*
Y151105D01*
X46185Y149451D01*
X47451Y148185D01*
X49000Y147543D01*
Y128102D01*
X48500Y126895D01*
Y125105D01*
X49000Y123898D01*
Y77400D01*
X3954D01*
X0Y77622D01*
X-3954Y77400D01*
X-25000D01*
Y120400D01*
X14000D01*
Y171400D01*
X16792D01*
Y190378D01*
X43208D01*
Y171400D01*
D02*
G37*
G36*
X187500Y59000D02*
X187500Y58609D01*
Y56059D01*
X186000D01*
Y58500D01*
X174000D01*
Y46540D01*
X173460D01*
Y41020D01*
X180000D01*
Y39750D01*
X181270D01*
Y32960D01*
X186247D01*
X186540Y32960D01*
X186671Y32964D01*
X187941Y31779D01*
Y9533D01*
X187140Y9319D01*
X184860Y8002D01*
X182998Y6140D01*
X181681Y3860D01*
X181657Y3770D01*
X180343D01*
X180319Y3860D01*
X179002Y6140D01*
X177140Y8002D01*
X174860Y9319D01*
X172316Y10000D01*
X169683D01*
X167140Y9319D01*
X164860Y8002D01*
X162998Y6140D01*
X161681Y3860D01*
X161657Y3770D01*
X160343D01*
X160319Y3860D01*
X159002Y6140D01*
X157140Y8002D01*
X154860Y9319D01*
X152317Y10000D01*
X149809D01*
Y31960D01*
X158730D01*
Y42500D01*
Y53040D01*
X149710D01*
Y52500D01*
X131391D01*
X130750Y52500D01*
X130121Y53509D01*
Y59879D01*
X186594D01*
X187500Y59000D01*
D02*
G37*
G36*
X235018Y58625D02*
X235436Y58346D01*
X235721Y58060D01*
X235699Y57765D01*
X235302Y56790D01*
X222710D01*
Y46270D01*
X242500D01*
X262290D01*
Y54898D01*
X264230D01*
X264897Y51937D01*
X267363Y37212D01*
X269011Y22373D01*
X269839Y7430D01*
X269942Y0D01*
X269838Y-7442D01*
X269008Y-22409D01*
X267355Y-37272D01*
X265656Y-47398D01*
X244015D01*
X243522Y-47496D01*
X243020D01*
X241087Y-47881D01*
X240623Y-48073D01*
X240131Y-48171D01*
X238311Y-48925D01*
X237893Y-49204D01*
X237429Y-49396D01*
X235791Y-50491D01*
X235436Y-50846D01*
X235018Y-51125D01*
X233764Y-52379D01*
X130121D01*
Y-23387D01*
X131294Y-22901D01*
X131395Y-23001D01*
X133105Y-23989D01*
X135013Y-24500D01*
X136987D01*
X138895Y-23989D01*
X140605Y-23001D01*
X142001Y-21605D01*
X142989Y-19895D01*
X143500Y-17987D01*
Y-16013D01*
X142989Y-14105D01*
X142001Y-12395D01*
X140605Y-10999D01*
X138895Y-10011D01*
X136987Y-9500D01*
X135013D01*
X133105Y-10011D01*
X131395Y-10999D01*
X131294Y-11099D01*
X130121Y-10613D01*
Y31491D01*
X130750Y32500D01*
X131391Y32500D01*
X143691D01*
Y6833D01*
X142998Y6140D01*
X141681Y3860D01*
X141000Y1317D01*
Y-1317D01*
X141681Y-3860D01*
X142998Y-6140D01*
X144860Y-8002D01*
X147140Y-9319D01*
X149684Y-10000D01*
X152317D01*
X154860Y-9319D01*
X157140Y-8002D01*
X159002Y-6140D01*
X160319Y-3860D01*
X160343Y-3770D01*
X161657D01*
X161681Y-3860D01*
X162998Y-6140D01*
X164860Y-8002D01*
X167140Y-9319D01*
X169683Y-10000D01*
X172316D01*
X174860Y-9319D01*
X175578Y-8904D01*
X178241Y-11567D01*
Y-24819D01*
X177904Y-25045D01*
X176863Y-26603D01*
X176497Y-28441D01*
Y-39559D01*
X176863Y-41397D01*
X177904Y-42955D01*
X179462Y-43996D01*
X181300Y-44362D01*
X183138Y-43996D01*
X184696Y-42955D01*
X185737Y-41397D01*
X186103Y-39559D01*
Y-28441D01*
X185737Y-26603D01*
X184696Y-25045D01*
X184359Y-24819D01*
Y-10300D01*
X184126Y-9129D01*
X183977Y-8906D01*
X184860Y-8002D01*
X187140Y-9319D01*
X189683Y-10000D01*
X190287D01*
Y-25520D01*
X189563Y-26603D01*
X189197Y-28441D01*
Y-39559D01*
X189563Y-41397D01*
X190604Y-42955D01*
X192162Y-43996D01*
X194000Y-44362D01*
X195838Y-43996D01*
X197396Y-42955D01*
X198437Y-41397D01*
X198803Y-39559D01*
Y-28441D01*
X198437Y-26603D01*
X197396Y-25045D01*
X196404Y-24382D01*
Y-8427D01*
X197140Y-8002D01*
X199002Y-6140D01*
X200319Y-3860D01*
X200343Y-3770D01*
X201657D01*
X201681Y-3860D01*
X202998Y-6140D01*
X203858Y-7000D01*
X203641Y-8088D01*
X203641Y-8088D01*
Y-24819D01*
X203304Y-25045D01*
X202263Y-26603D01*
X201897Y-28441D01*
Y-39559D01*
X202263Y-41397D01*
X203304Y-42955D01*
X204862Y-43996D01*
X206700Y-44362D01*
X208538Y-43996D01*
X210096Y-42955D01*
X211137Y-41397D01*
X211503Y-39559D01*
Y-28441D01*
X211137Y-26603D01*
X210096Y-25045D01*
X209759Y-24819D01*
Y-10000D01*
X212316D01*
X214860Y-9319D01*
X217140Y-8002D01*
X219002Y-6140D01*
X219984Y-4439D01*
X220203Y-4371D01*
X221420Y-4486D01*
X222566Y-6472D01*
X224528Y-8434D01*
X226932Y-9822D01*
X229612Y-10540D01*
X229730D01*
Y0D01*
Y10540D01*
X229612D01*
X226932Y9822D01*
X224528Y8434D01*
X222566Y6472D01*
X221420Y4486D01*
X220203Y4371D01*
X219984Y4439D01*
X219002Y6140D01*
X217140Y8002D01*
X214860Y9319D01*
X213559Y9667D01*
Y36000D01*
X213500Y36296D01*
Y45000D01*
X201770D01*
X200500Y45000D01*
X199230Y45000D01*
X187810D01*
X187500Y45000D01*
X187216Y45221D01*
Y45897D01*
X188395Y47000D01*
X199230D01*
X200500Y47000D01*
Y47000D01*
X200500D01*
Y47000D01*
X213500D01*
Y58609D01*
X213500Y59000D01*
X214406Y59879D01*
X233764D01*
X235018Y58625D01*
D02*
G37*
G36*
X-76792Y126000D02*
X-71000D01*
Y32000D01*
X-145000D01*
Y75000D01*
X-106000D01*
Y126000D01*
X-103208D01*
Y145228D01*
X-76792D01*
Y126000D01*
D02*
G37*
G36*
X-540087Y34601D02*
X-538399Y32913D01*
X-536194Y32000D01*
X-533806D01*
X-531601Y32913D01*
X-529913Y34601D01*
X-529687Y35147D01*
X-528313D01*
X-528087Y34601D01*
X-526399Y32913D01*
X-524193Y32000D01*
X-521806D01*
X-519601Y32913D01*
X-517913Y34601D01*
X-517790Y34898D01*
X-425102D01*
Y-128790D01*
X-425399Y-128913D01*
X-427086Y-130601D01*
X-428000Y-132807D01*
Y-135194D01*
X-427086Y-137399D01*
X-425399Y-139087D01*
X-424853Y-139313D01*
Y-140687D01*
X-425399Y-140913D01*
X-427086Y-142601D01*
X-428000Y-144806D01*
Y-145000D01*
X-646941D01*
Y34898D01*
X-552210D01*
X-552087Y34601D01*
X-550399Y32913D01*
X-548194Y32000D01*
X-545807D01*
X-543601Y32913D01*
X-541913Y34601D01*
X-541687Y35147D01*
X-540313D01*
X-540087Y34601D01*
D02*
G37*
G36*
X346941Y10000D02*
X300052D01*
X299235Y24745D01*
X299200Y24883D01*
X299212Y25026D01*
X297409Y41252D01*
X297366Y41388D01*
X297370Y41531D01*
X294674Y57632D01*
X294623Y57766D01*
X294619Y57909D01*
X291138Y73384D01*
X292209Y75387D01*
X293638Y80099D01*
X294121Y85000D01*
X293638Y89901D01*
X292209Y94613D01*
X289887Y98956D01*
X286763Y102763D01*
X282957Y105887D01*
X280864Y107006D01*
X280796Y107107D01*
X280604Y107571D01*
X279762Y108830D01*
X274841Y120898D01*
X274762Y121018D01*
X274727Y121156D01*
X267736Y135909D01*
X267651Y136024D01*
X267609Y136160D01*
X259813Y150504D01*
X259721Y150614D01*
X259671Y150748D01*
X251094Y164638D01*
X250997Y164743D01*
X250939Y164874D01*
X241607Y178269D01*
X241504Y178368D01*
X241440Y178496D01*
X236411Y184925D01*
X236411Y184925D01*
X235599Y185963D01*
X235094Y186398D01*
X234649Y186895D01*
X232545Y188479D01*
X231944Y188768D01*
X231386Y189134D01*
X228943Y190119D01*
X228288Y190243D01*
X227655Y190452D01*
X225040Y190771D01*
X224375Y190721D01*
X223709Y190759D01*
X221101Y190391D01*
X220471Y190170D01*
X219819Y190034D01*
X217395Y189004D01*
X216844Y188628D01*
X216248Y188327D01*
X214174Y186705D01*
X213327Y186673D01*
X211246Y188754D01*
X211308Y190023D01*
X212284Y190824D01*
X212759Y191403D01*
X213289Y191933D01*
X214937Y194400D01*
X215224Y195092D01*
X215577Y195753D01*
X216439Y198593D01*
X216512Y199338D01*
X216658Y200072D01*
Y202542D01*
X216560Y203034D01*
Y203536D01*
X216176Y205469D01*
X215984Y205933D01*
X215886Y206425D01*
X215132Y208246D01*
X214853Y208663D01*
X214660Y209127D01*
X213566Y210766D01*
X213211Y211121D01*
X212932Y211538D01*
X212235Y212235D01*
X206381Y218089D01*
X206261Y218169D01*
X206174Y218285D01*
X193828Y229317D01*
X193703Y229391D01*
X193610Y229502D01*
X180666Y239825D01*
X180537Y239891D01*
X180437Y239997D01*
X166934Y249577D01*
X166802Y249637D01*
X166696Y249736D01*
X152678Y258545D01*
X152542Y258597D01*
X152431Y258690D01*
X137941Y266699D01*
X137803Y266743D01*
X137687Y266830D01*
X122770Y274014D01*
X122629Y274050D01*
X122509Y274130D01*
X107213Y280466D01*
X107070Y280495D01*
X106945Y280568D01*
X91318Y286037D01*
X91174Y286057D01*
X91046Y286123D01*
X75136Y290707D01*
X74992Y290719D01*
X74859Y290778D01*
X58718Y294462D01*
X58573Y294466D01*
X58438Y294518D01*
X42115Y297292D01*
X41970Y297287D01*
X41832Y297332D01*
X25380Y299185D01*
X25235Y299173D01*
X25094Y299209D01*
X8564Y300138D01*
X8421Y300117D01*
X8278Y300146D01*
X-8278D01*
X-8421Y300117D01*
X-8564Y300138D01*
X-25094Y299209D01*
X-25235Y299173D01*
X-25380Y299185D01*
X-41832Y297332D01*
X-41970Y297287D01*
X-42115Y297292D01*
X-58438Y294518D01*
X-58573Y294466D01*
X-58718Y294462D01*
X-74859Y290778D01*
X-74992Y290719D01*
X-75136Y290707D01*
X-91046Y286123D01*
X-91174Y286057D01*
X-91318Y286037D01*
X-106945Y280568D01*
X-107070Y280495D01*
X-107213Y280466D01*
X-122509Y274130D01*
X-122629Y274050D01*
X-122770Y274014D01*
X-137687Y266830D01*
X-137803Y266743D01*
X-137941Y266699D01*
X-152431Y258690D01*
X-152542Y258597D01*
X-152678Y258545D01*
X-166696Y249736D01*
X-166802Y249637D01*
X-166934Y249577D01*
X-180437Y239997D01*
X-180537Y239891D01*
X-180666Y239825D01*
X-193610Y229502D01*
X-193703Y229391D01*
X-193828Y229317D01*
X-206174Y218285D01*
X-206261Y218169D01*
X-206381Y218089D01*
X-213166Y211304D01*
X-213537Y210749D01*
X-213976Y210248D01*
X-215294Y207967D01*
X-215508Y207335D01*
X-215803Y206737D01*
X-216485Y204193D01*
X-216528Y203528D01*
X-216658Y202873D01*
Y200239D01*
X-216528Y199585D01*
X-216485Y198920D01*
X-215803Y196376D01*
X-215508Y195778D01*
X-215294Y195146D01*
X-213976Y192865D01*
X-213537Y192364D01*
X-213166Y191809D01*
X-211304Y189947D01*
X-210749Y189576D01*
X-210248Y189136D01*
X-208882Y188348D01*
X-208593Y187111D01*
X-209529Y185706D01*
X-209837Y185399D01*
X-210005Y184993D01*
X-210554Y184169D01*
X-212096Y184145D01*
X-213153Y185627D01*
X-213726Y186166D01*
X-214253Y186751D01*
X-216756Y188621D01*
X-217466Y188960D01*
X-218146Y189356D01*
X-221099Y190374D01*
X-221879Y190480D01*
X-222647Y190651D01*
X-225770Y190720D01*
X-226545Y190583D01*
X-227329Y190512D01*
X-230324Y189625D01*
X-231021Y189259D01*
X-231745Y188952D01*
X-234328Y187195D01*
X-234880Y186634D01*
X-235476Y186120D01*
X-241465Y178461D01*
X-241530Y178334D01*
X-241633Y178235D01*
X-250961Y164841D01*
X-251018Y164710D01*
X-251116Y164605D01*
X-259689Y150717D01*
X-259739Y150583D01*
X-259830Y150473D01*
X-267623Y136132D01*
X-267666Y135995D01*
X-267751Y135880D01*
X-274739Y121130D01*
X-274774Y120992D01*
X-274853Y120872D01*
X-281014Y105758D01*
X-281042Y105618D01*
X-281114Y105495D01*
X-286431Y90063D01*
X-286450Y89922D01*
X-286515Y89794D01*
X-290971Y74093D01*
X-290983Y73950D01*
X-291041Y73819D01*
X-294622Y57896D01*
X-294625Y57753D01*
X-294676Y57619D01*
X-297372Y41521D01*
X-297367Y41378D01*
X-297411Y41242D01*
X-299212Y25020D01*
X-299200Y24878D01*
X-299236Y24739D01*
X-300138Y8443D01*
X-300118Y8301D01*
X-300146Y8161D01*
Y6525D01*
X-300638Y4901D01*
X-301121Y-0D01*
X-300638Y-4901D01*
X-300146Y-6525D01*
Y-8161D01*
X-300118Y-8301D01*
X-300138Y-8443D01*
X-299236Y-24739D01*
X-299200Y-24878D01*
X-299212Y-25020D01*
X-297411Y-41242D01*
X-297367Y-41378D01*
X-297372Y-41521D01*
X-294676Y-57619D01*
X-294625Y-57753D01*
X-294622Y-57896D01*
X-291041Y-73820D01*
X-290983Y-73950D01*
X-290971Y-74093D01*
X-286515Y-89794D01*
X-286450Y-89922D01*
X-286431Y-90063D01*
X-281114Y-105495D01*
X-281042Y-105618D01*
X-281014Y-105759D01*
X-274853Y-120872D01*
X-274774Y-120992D01*
X-274739Y-121130D01*
X-267751Y-135880D01*
X-267666Y-135995D01*
X-267623Y-136132D01*
X-259830Y-150473D01*
X-259739Y-150583D01*
X-259689Y-150717D01*
X-251116Y-164606D01*
X-251018Y-164710D01*
X-250961Y-164841D01*
X-241633Y-178235D01*
X-241530Y-178334D01*
X-241465Y-178461D01*
X-236438Y-184890D01*
X-236438Y-184890D01*
X-235476Y-186120D01*
X-234880Y-186634D01*
X-234328Y-187195D01*
X-231745Y-188952D01*
X-231021Y-189259D01*
X-230324Y-189625D01*
X-227329Y-190512D01*
X-226545Y-190583D01*
X-225770Y-190720D01*
X-222647Y-190651D01*
X-221879Y-190480D01*
X-221099Y-190374D01*
X-218146Y-189356D01*
X-217466Y-188960D01*
X-216756Y-188621D01*
X-214253Y-186751D01*
X-213727Y-186167D01*
X-213288Y-185754D01*
X-210728Y-187947D01*
X-210643Y-188158D01*
X-210745Y-189571D01*
X-210749Y-189576D01*
X-211304Y-189947D01*
X-213166Y-191809D01*
X-213537Y-192364D01*
X-213976Y-192865D01*
X-215294Y-195146D01*
X-215508Y-195778D01*
X-215803Y-196376D01*
X-216485Y-198920D01*
X-216528Y-199585D01*
X-216658Y-200239D01*
Y-202873D01*
X-216528Y-203528D01*
X-216485Y-204193D01*
X-215803Y-206737D01*
X-215508Y-207335D01*
X-215294Y-207967D01*
X-213976Y-210248D01*
X-213537Y-210749D01*
X-213166Y-211304D01*
X-212235Y-212235D01*
X-212235Y-212235D01*
X-206381Y-218089D01*
X-206261Y-218169D01*
X-206174Y-218285D01*
X-193828Y-229317D01*
X-193703Y-229391D01*
X-193610Y-229502D01*
X-180666Y-239825D01*
X-180537Y-239891D01*
X-180437Y-239997D01*
X-166934Y-249577D01*
X-166802Y-249637D01*
X-166696Y-249736D01*
X-152678Y-258545D01*
X-152542Y-258597D01*
X-152431Y-258690D01*
X-137941Y-266699D01*
X-137803Y-266743D01*
X-137687Y-266830D01*
X-122770Y-274014D01*
X-122629Y-274050D01*
X-122509Y-274130D01*
X-107213Y-280466D01*
X-107070Y-280495D01*
X-106945Y-280568D01*
X-91318Y-286037D01*
X-91174Y-286057D01*
X-91046Y-286123D01*
X-75136Y-290707D01*
X-74992Y-290719D01*
X-74859Y-290778D01*
X-58718Y-294463D01*
X-58573Y-294466D01*
X-58438Y-294518D01*
X-42115Y-297292D01*
X-41970Y-297288D01*
X-41832Y-297332D01*
X-25380Y-299185D01*
X-25235Y-299173D01*
X-25094Y-299209D01*
X-8564Y-300138D01*
X-8421Y-300117D01*
X-8278Y-300146D01*
X8278D01*
X8421Y-300117D01*
X8564Y-300138D01*
X25094Y-299209D01*
X25235Y-299173D01*
X25380Y-299185D01*
X41832Y-297332D01*
X41970Y-297288D01*
X42115Y-297292D01*
X58438Y-294518D01*
X58573Y-294466D01*
X58718Y-294463D01*
X74859Y-290778D01*
X74992Y-290719D01*
X75136Y-290707D01*
X91046Y-286123D01*
X91174Y-286057D01*
X91318Y-286037D01*
X106945Y-280568D01*
X107070Y-280495D01*
X107213Y-280466D01*
X122509Y-274130D01*
X122629Y-274050D01*
X122770Y-274014D01*
X137687Y-266830D01*
X137803Y-266743D01*
X137941Y-266699D01*
X152431Y-258690D01*
X152542Y-258597D01*
X152678Y-258545D01*
X166696Y-249736D01*
X166802Y-249637D01*
X166934Y-249577D01*
X180437Y-239997D01*
X180537Y-239891D01*
X180666Y-239825D01*
X193610Y-229502D01*
X193703Y-229391D01*
X193828Y-229317D01*
X206174Y-218285D01*
X206261Y-218169D01*
X206381Y-218089D01*
X212235Y-212235D01*
X212932Y-211538D01*
X213211Y-211121D01*
X213566Y-210766D01*
X214660Y-209127D01*
X214853Y-208663D01*
X215132Y-208246D01*
X215886Y-206425D01*
X215984Y-205933D01*
X216176Y-205469D01*
X216560Y-203536D01*
Y-203034D01*
X216658Y-202542D01*
Y-200072D01*
X216512Y-199338D01*
X216439Y-198593D01*
X215577Y-195753D01*
X215224Y-195092D01*
X214937Y-194400D01*
X213289Y-191933D01*
X212759Y-191403D01*
X212284Y-190824D01*
X209990Y-188941D01*
X209329Y-188588D01*
X209288Y-188561D01*
X209085Y-187051D01*
X211252Y-185154D01*
X212516Y-185286D01*
X213041Y-185985D01*
X213538Y-186430D01*
X213972Y-186936D01*
X216045Y-188561D01*
X216640Y-188862D01*
X217190Y-189238D01*
X219613Y-190271D01*
X220266Y-190408D01*
X220895Y-190629D01*
X223503Y-191000D01*
X224169Y-190963D01*
X224834Y-191014D01*
X227449Y-190697D01*
X228082Y-190490D01*
X228738Y-190366D01*
X231182Y-189384D01*
X231740Y-189019D01*
X232341Y-188730D01*
X234447Y-187148D01*
X234892Y-186652D01*
X235398Y-186217D01*
X236211Y-185181D01*
X236211Y-185181D01*
X241255Y-178746D01*
X241320Y-178619D01*
X241423Y-178519D01*
X250784Y-165112D01*
X250841Y-164981D01*
X250939Y-164876D01*
X259542Y-150970D01*
X259592Y-150836D01*
X259684Y-150726D01*
X267505Y-136365D01*
X267547Y-136229D01*
X267633Y-136114D01*
X274646Y-121342D01*
X274681Y-121203D01*
X274760Y-121084D01*
X280944Y-105946D01*
X280971Y-105806D01*
X281044Y-105682D01*
X283247Y-99301D01*
X284956Y-98387D01*
X288763Y-95263D01*
X291887Y-91456D01*
X294209Y-87113D01*
X295638Y-82401D01*
X296121Y-77500D01*
X295638Y-72599D01*
X294209Y-67887D01*
X292918Y-65472D01*
X294601Y-58002D01*
X294605Y-57859D01*
X294656Y-57724D01*
X297362Y-41598D01*
X297357Y-41455D01*
X297400Y-41318D01*
X299209Y-25067D01*
X299196Y-24924D01*
X299232Y-24785D01*
X300138Y-8458D01*
X300118Y-8317D01*
X300146Y-8176D01*
X300146Y-1270D01*
X301416Y0D01*
X346941D01*
Y-346941D01*
X-297000D01*
Y-326000D01*
X-372000D01*
Y-343998D01*
Y-346941D01*
X-394898D01*
Y-163000D01*
Y-161683D01*
X-395028Y-161029D01*
X-395072Y-160364D01*
X-395754Y-157819D01*
X-396049Y-157221D01*
X-396263Y-156590D01*
X-397580Y-154309D01*
X-398020Y-153807D01*
X-398390Y-153253D01*
X-400253Y-151390D01*
X-400807Y-151020D01*
X-401309Y-150580D01*
X-403590Y-149263D01*
X-404221Y-149049D01*
X-404819Y-148754D01*
X-407364Y-148072D01*
X-408029Y-148028D01*
X-408683Y-147898D01*
X-410000D01*
Y-144102D01*
X-408683D01*
X-408029Y-143972D01*
X-407364Y-143928D01*
X-404819Y-143246D01*
X-404221Y-142951D01*
X-403590Y-142737D01*
X-401309Y-141420D01*
X-400807Y-140980D01*
X-400253Y-140610D01*
X-398390Y-138747D01*
X-398020Y-138193D01*
X-397580Y-137691D01*
X-396263Y-135410D01*
X-396049Y-134779D01*
X-395754Y-134181D01*
X-395072Y-131636D01*
X-395028Y-130971D01*
X-394898Y-130317D01*
Y-129000D01*
Y35767D01*
X-393311Y36425D01*
X-392893Y36704D01*
X-392429Y36896D01*
X-390791Y37991D01*
X-390436Y38346D01*
X-390018Y38625D01*
X-388625Y40018D01*
X-388346Y40436D01*
X-387991Y40791D01*
X-386896Y42429D01*
X-386704Y42893D01*
X-386425Y43310D01*
X-385671Y45131D01*
X-385573Y45623D01*
X-385381Y46087D01*
X-384996Y48020D01*
Y48522D01*
X-384898Y49015D01*
Y50000D01*
Y183000D01*
Y184317D01*
X-385028Y184971D01*
X-385072Y185637D01*
X-385754Y188181D01*
X-386049Y188779D01*
X-386263Y189410D01*
X-387580Y191691D01*
X-388020Y192193D01*
X-388390Y192747D01*
X-390253Y194610D01*
X-390807Y194980D01*
X-391309Y195420D01*
X-393590Y196737D01*
X-394221Y196951D01*
X-394819Y197246D01*
X-397364Y197928D01*
X-398029Y197972D01*
X-398683Y198102D01*
X-400000D01*
Y201898D01*
X-398683D01*
X-398029Y202028D01*
X-397364Y202072D01*
X-394819Y202754D01*
X-394221Y203049D01*
X-393590Y203263D01*
X-391309Y204580D01*
X-390807Y205020D01*
X-390253Y205390D01*
X-388390Y207253D01*
X-388020Y207807D01*
X-387580Y208309D01*
X-386263Y210590D01*
X-386049Y211221D01*
X-385754Y211819D01*
X-385072Y214363D01*
X-385028Y215029D01*
X-384898Y215683D01*
Y217000D01*
Y330000D01*
Y330985D01*
X-384996Y331478D01*
Y331980D01*
X-385381Y333913D01*
X-385573Y334376D01*
X-385671Y334869D01*
X-386425Y336689D01*
X-386704Y337107D01*
X-386896Y337571D01*
X-387991Y339209D01*
X-388346Y339564D01*
X-388625Y339982D01*
X-390018Y341375D01*
X-390436Y341654D01*
X-390791Y342009D01*
X-392429Y343104D01*
X-392893Y343296D01*
X-393311Y343575D01*
X-395131Y344329D01*
X-395624Y344427D01*
X-396087Y344619D01*
X-398020Y345004D01*
X-398522D01*
X-399015Y345102D01*
X-494317D01*
X-494971Y344972D01*
X-495636Y344928D01*
X-498181Y344246D01*
X-498779Y343951D01*
X-499410Y343737D01*
X-501692Y342420D01*
X-502193Y341980D01*
X-502747Y341610D01*
X-504610Y339747D01*
X-504980Y339193D01*
X-505420Y338691D01*
X-506737Y336410D01*
X-506951Y335779D01*
X-507246Y335181D01*
X-507928Y332636D01*
X-507972Y331971D01*
X-508102Y331317D01*
Y330000D01*
X-511898D01*
Y330985D01*
X-511996Y331478D01*
Y331980D01*
X-512381Y333913D01*
X-512573Y334376D01*
X-512671Y334869D01*
X-513425Y336689D01*
X-513704Y337107D01*
X-513896Y337571D01*
X-514991Y339209D01*
X-515346Y339564D01*
X-515625Y339982D01*
X-517018Y341375D01*
X-517436Y341654D01*
X-517791Y342009D01*
X-519429Y343104D01*
X-519893Y343296D01*
X-520311Y343575D01*
X-522131Y344329D01*
X-522623Y344427D01*
X-523087Y344619D01*
X-525020Y345004D01*
X-525522D01*
X-526015Y345102D01*
X-646941D01*
Y646941D01*
X346941D01*
X346941Y10000D01*
D02*
G37*
G36*
X79879Y-46031D02*
X78561Y-46606D01*
X77879Y-46680D01*
X76165Y-44966D01*
X73875Y-43644D01*
X71322Y-42960D01*
X71270D01*
Y-53000D01*
Y-63040D01*
X71322D01*
X73875Y-62356D01*
X76165Y-61034D01*
X77879Y-59320D01*
X78561Y-59394D01*
X79879Y-59969D01*
Y-77500D01*
X80198Y-80734D01*
X78277Y-81643D01*
X66947Y-70313D01*
X67500Y-68251D01*
Y-65749D01*
X67224Y-64721D01*
X68607Y-63122D01*
X68730Y-63080D01*
Y-53000D01*
Y-42960D01*
X68678D01*
X66603Y-43516D01*
X65510Y-42328D01*
X65305Y-41888D01*
X65725Y-41297D01*
X69935Y-33679D01*
X73266Y-25637D01*
X73415Y-25121D01*
X79879D01*
Y-46031D01*
D02*
G37*
G36*
X-73266Y-25637D02*
X-69935Y-33679D01*
X-65725Y-41297D01*
X-60687Y-48397D01*
X-57448Y-52022D01*
X-58635Y-53695D01*
X-59105Y-53500D01*
X-60895D01*
X-62549Y-54185D01*
X-63815Y-55451D01*
X-64500Y-57105D01*
Y-58895D01*
X-63815Y-60549D01*
X-62549Y-61815D01*
X-60895Y-62500D01*
X-59105D01*
X-57451Y-61815D01*
X-56185Y-60549D01*
X-55500Y-58895D01*
Y-57105D01*
X-55555Y-56973D01*
X-53882Y-55786D01*
X-48397Y-60687D01*
X-41297Y-65725D01*
X-33679Y-69935D01*
X-25637Y-73266D01*
X-25059Y-73433D01*
X-24945Y-75049D01*
X-26584Y-76177D01*
X-27716Y-75932D01*
X-27883Y-75820D01*
X-28025Y-75679D01*
X-28210Y-75602D01*
X-28377Y-75490D01*
X-28574Y-75451D01*
X-28760Y-75374D01*
X-28961D01*
X-29158Y-75335D01*
X-39250D01*
X-40030Y-75490D01*
X-40692Y-75932D01*
X-41134Y-76594D01*
X-41289Y-77374D01*
Y-82500D01*
X-41183Y-83034D01*
X-41549Y-83185D01*
X-42815Y-84451D01*
X-43500Y-86105D01*
Y-87895D01*
X-42815Y-89549D01*
X-41549Y-90815D01*
X-41183Y-90967D01*
X-41289Y-91500D01*
Y-160297D01*
X-41848Y-160756D01*
X-43289Y-161388D01*
X-44494Y-160889D01*
X-46284D01*
X-47938Y-161574D01*
X-49204Y-162840D01*
X-49889Y-164494D01*
Y-166284D01*
X-49204Y-167938D01*
X-47938Y-169204D01*
X-46284Y-169889D01*
X-44494D01*
X-43289Y-169390D01*
X-41848Y-170022D01*
X-41289Y-170482D01*
Y-171374D01*
X-41134Y-172154D01*
X-40692Y-172816D01*
X-40030Y-173258D01*
X-39250Y-173413D01*
X-35497D01*
X-35497Y-190378D01*
X-35342Y-191158D01*
X-34900Y-191820D01*
X-34473Y-192105D01*
X-33524Y-193712D01*
Y-195924D01*
X-33539Y-196000D01*
Y-196675D01*
X-33815Y-196951D01*
X-34500Y-198605D01*
Y-200395D01*
X-34101Y-201359D01*
X-34064Y-203344D01*
X-34064D01*
Y-207412D01*
X-34297Y-207645D01*
X-34953Y-209230D01*
X-30024D01*
Y-211770D01*
X-34953D01*
X-34297Y-213355D01*
X-34064Y-213588D01*
Y-216552D01*
X-35058Y-218140D01*
X-35342Y-218566D01*
X-35497Y-219346D01*
Y-223423D01*
X-35833Y-223490D01*
X-36495Y-223932D01*
X-36937Y-224594D01*
X-37092Y-225374D01*
Y-240715D01*
X-39092Y-241544D01*
X-39451Y-241185D01*
X-41105Y-240500D01*
X-42895D01*
X-44549Y-241185D01*
X-45815Y-242451D01*
X-46500Y-244105D01*
Y-245895D01*
X-45815Y-247549D01*
X-44549Y-248815D01*
X-42895Y-249500D01*
X-41105D01*
X-39451Y-248815D01*
X-39092Y-248456D01*
X-37092Y-249285D01*
Y-265511D01*
X-39092Y-267059D01*
X-52663Y-264753D01*
X-67425Y-261384D01*
X-81974Y-257192D01*
X-87606Y-255222D01*
X-87271Y-253250D01*
X-80000D01*
X-80000Y-254500D01*
X-67000D01*
X-65000Y-254500D01*
X-63000Y-254500D01*
X-50000D01*
Y-236570D01*
X-49895Y-236500D01*
X-48105D01*
X-46451Y-235815D01*
X-45185Y-234549D01*
X-44500Y-232895D01*
Y-231105D01*
X-45185Y-229451D01*
X-46451Y-228185D01*
X-48105Y-227500D01*
X-49895D01*
X-51549Y-228185D01*
X-52555Y-229191D01*
X-80000D01*
Y-226500D01*
X-80000Y-224500D01*
X-78000Y-224500D01*
X-67000D01*
X-65000Y-224500D01*
Y-224500D01*
X-65000D01*
Y-224500D01*
X-50000D01*
Y-221500D01*
X-48000Y-221102D01*
X-47815Y-221549D01*
X-46549Y-222815D01*
X-44895Y-223500D01*
X-43105D01*
X-41451Y-222815D01*
X-40185Y-221549D01*
X-39500Y-219895D01*
Y-218105D01*
X-40185Y-216451D01*
X-40941Y-215695D01*
Y-210550D01*
X-40941Y-210550D01*
X-41174Y-209380D01*
X-41837Y-208387D01*
X-41837Y-208387D01*
X-50941Y-199283D01*
Y-198515D01*
X-51174Y-197344D01*
X-51837Y-196352D01*
X-57094Y-191094D01*
X-58087Y-190431D01*
X-59257Y-190199D01*
X-59257Y-190199D01*
X-62976D01*
X-65000Y-188174D01*
Y-175500D01*
X-80000D01*
Y-191500D01*
X-72275D01*
X-72118Y-191736D01*
X-73060Y-193500D01*
X-80000D01*
Y-209500D01*
Y-217250D01*
X-80000Y-219250D01*
X-82000Y-219250D01*
X-95000D01*
Y-235250D01*
X-89555D01*
X-89399Y-235422D01*
X-90210Y-237250D01*
X-95000D01*
Y-250845D01*
X-97000Y-251887D01*
X-110255Y-246397D01*
X-123898Y-239827D01*
X-136360Y-232939D01*
X-135844Y-230939D01*
X-99500D01*
X-98720Y-230784D01*
X-98058Y-230342D01*
X-97616Y-229680D01*
X-97461Y-228900D01*
Y-185900D01*
X-97616Y-185120D01*
X-98058Y-184458D01*
X-98720Y-184016D01*
X-99500Y-183861D01*
X-137253D01*
Y-179372D01*
X-137408Y-178592D01*
X-137850Y-177930D01*
X-138277Y-177645D01*
X-138833Y-176704D01*
X-139138Y-175959D01*
X-138909Y-175345D01*
X-137807Y-173959D01*
X-132500D01*
Y-177400D01*
X-120500D01*
Y-164540D01*
X-120500Y-164400D01*
X-118500Y-164400D01*
X-118500Y-164523D01*
X-118500Y-165903D01*
Y-177400D01*
X-106500D01*
Y-173959D01*
X-97805D01*
X-97049Y-174715D01*
X-95395Y-175400D01*
X-93605D01*
X-91951Y-174715D01*
X-90685Y-173449D01*
X-90000Y-171795D01*
Y-170005D01*
X-88994Y-168500D01*
X-88500D01*
Y-168000D01*
X-76500D01*
Y-156040D01*
X-75960D01*
Y-150520D01*
X-82500D01*
Y-149250D01*
X-83770D01*
Y-142460D01*
X-87960D01*
Y-141960D01*
X-93730D01*
Y-148500D01*
X-95000D01*
Y-149770D01*
X-102040D01*
Y-154724D01*
X-102040Y-155040D01*
X-102040D01*
X-101500Y-156500D01*
X-101500Y-156500D01*
Y-167841D01*
X-106500D01*
Y-164400D01*
X-116500D01*
X-117300Y-164400D01*
X-117563Y-162400D01*
X-116865Y-162213D01*
X-114388Y-161549D01*
X-111072Y-159635D01*
X-108365Y-156928D01*
X-106451Y-153612D01*
X-105460Y-149914D01*
Y-149270D01*
X-134540D01*
Y-149914D01*
X-133549Y-153612D01*
X-131635Y-156928D01*
X-128928Y-159635D01*
X-125612Y-161549D01*
X-122437Y-162400D01*
X-122700Y-164400D01*
X-132500D01*
Y-167841D01*
X-139211D01*
Y-166000D01*
X-139226Y-165924D01*
Y-162840D01*
X-138935Y-162549D01*
X-138250Y-160895D01*
Y-159105D01*
X-138935Y-157451D01*
X-139226Y-157160D01*
X-139226Y-154007D01*
X-138833Y-153046D01*
X-138277Y-152105D01*
X-137850Y-151820D01*
X-137408Y-151158D01*
X-137253Y-150378D01*
Y-134789D01*
X-136500D01*
X-135720Y-134634D01*
X-135058Y-134192D01*
X-134616Y-133530D01*
X-134461Y-132750D01*
Y-125195D01*
X-133421Y-124500D01*
X-131631D01*
X-129977Y-123815D01*
X-128711Y-122549D01*
X-128026Y-120895D01*
Y-119105D01*
X-128711Y-117451D01*
X-129977Y-116185D01*
X-131631Y-115500D01*
X-133421D01*
X-134461Y-114805D01*
Y-108586D01*
X-132461Y-108188D01*
X-132356Y-108441D01*
X-130521Y-111186D01*
X-128186Y-113521D01*
X-125441Y-115356D01*
X-122390Y-116620D01*
X-119151Y-117264D01*
X-118770D01*
Y-100500D01*
X-117500D01*
Y-99230D01*
X-100736D01*
Y-98849D01*
X-101380Y-95610D01*
X-102644Y-92559D01*
X-104479Y-89814D01*
X-106814Y-87479D01*
X-109559Y-85644D01*
X-111261Y-84939D01*
X-110863Y-82939D01*
X-97500D01*
X-96720Y-82784D01*
X-96058Y-82342D01*
X-95616Y-81680D01*
X-95461Y-80900D01*
Y-52000D01*
X-86000D01*
Y-39000D01*
X-95461D01*
Y-37900D01*
X-95616Y-37120D01*
X-96058Y-36458D01*
X-96720Y-36016D01*
X-97500Y-35861D01*
X-171500D01*
X-172280Y-36016D01*
X-172942Y-36458D01*
X-173384Y-37120D01*
X-173539Y-37900D01*
Y-53010D01*
X-175500Y-53105D01*
X-176185Y-51451D01*
X-177451Y-50185D01*
X-179105Y-49500D01*
X-180895D01*
X-182549Y-50185D01*
X-183815Y-51451D01*
X-184500Y-53105D01*
Y-53500D01*
X-188000D01*
Y-53941D01*
X-231500D01*
X-232670Y-54174D01*
X-233663Y-54837D01*
X-233663Y-54837D01*
X-237163Y-58337D01*
X-237826Y-59330D01*
X-238059Y-60500D01*
X-238059Y-60500D01*
Y-62695D01*
X-238815Y-63451D01*
X-239500Y-65105D01*
Y-66895D01*
X-238815Y-68549D01*
X-237549Y-69815D01*
X-235895Y-70500D01*
X-234105D01*
X-232451Y-69815D01*
X-231185Y-68549D01*
X-230500Y-66895D01*
Y-65105D01*
X-231185Y-63451D01*
X-231941Y-62695D01*
Y-61767D01*
X-230233Y-60059D01*
X-188540D01*
Y-60730D01*
X-179500D01*
Y-63270D01*
X-188540D01*
Y-66040D01*
X-188540D01*
X-188540Y-67960D01*
X-188540D01*
Y-70730D01*
X-179500D01*
Y-73270D01*
X-188540D01*
Y-73941D01*
X-190695D01*
X-191451Y-73185D01*
X-193105Y-72500D01*
X-194895D01*
X-196549Y-73185D01*
X-197815Y-74451D01*
X-198500Y-76105D01*
Y-77895D01*
X-197815Y-79549D01*
X-196549Y-80815D01*
X-194895Y-81500D01*
X-193105D01*
X-191451Y-80815D01*
X-190695Y-80059D01*
X-188540D01*
Y-80730D01*
X-179500D01*
Y-83270D01*
X-188540D01*
Y-86040D01*
X-188540D01*
X-188540Y-87960D01*
X-188540D01*
Y-90730D01*
X-179500D01*
Y-93270D01*
X-188540D01*
Y-96040D01*
X-188540D01*
X-188540Y-97960D01*
X-188540D01*
Y-100730D01*
X-179500D01*
Y-102000D01*
X-178230D01*
Y-106040D01*
X-173539D01*
Y-132750D01*
X-173384Y-133530D01*
X-172942Y-134192D01*
X-172280Y-134634D01*
X-171500Y-134789D01*
X-167747D01*
Y-150378D01*
X-167592Y-151158D01*
X-167150Y-151820D01*
X-166723Y-152105D01*
X-166167Y-153046D01*
X-165774Y-154007D01*
X-165774Y-154390D01*
Y-155924D01*
X-165789Y-156000D01*
Y-163370D01*
X-166314D01*
Y-166936D01*
X-166523Y-167145D01*
X-167179Y-168730D01*
X-162250D01*
Y-171270D01*
X-167179D01*
X-166523Y-172855D01*
X-166314Y-173064D01*
Y-175569D01*
X-166386Y-176360D01*
X-167115Y-177858D01*
X-167308Y-178166D01*
X-167592Y-178592D01*
X-167696Y-179112D01*
X-168605Y-179668D01*
X-169747Y-180062D01*
X-171105Y-179500D01*
X-172895D01*
X-174549Y-180185D01*
X-175657Y-178644D01*
X-170670Y-173657D01*
X-183765Y-160561D01*
X-191204Y-168000D01*
X-178108Y-181096D01*
X-177356Y-180343D01*
X-175815Y-181451D01*
X-176500Y-183105D01*
Y-184895D01*
X-175815Y-186549D01*
X-174549Y-187815D01*
X-172895Y-188500D01*
X-172614D01*
X-171500Y-189746D01*
X-172945Y-190566D01*
X-173105Y-190500D01*
X-174895D01*
X-176549Y-191185D01*
X-177815Y-192451D01*
X-178500Y-194105D01*
Y-195895D01*
X-177815Y-197549D01*
X-176549Y-198815D01*
X-174895Y-199500D01*
X-173105D01*
X-171451Y-198815D01*
X-171342Y-198706D01*
X-169342Y-199535D01*
Y-207780D01*
X-171144Y-208648D01*
X-174158Y-206244D01*
X-185475Y-196131D01*
X-190903Y-190853D01*
X-191283Y-190473D01*
X-191754Y-189335D01*
X-193442Y-187647D01*
X-195647Y-186734D01*
X-198034D01*
X-198056Y-186743D01*
X-199212Y-185186D01*
X-199331Y-184598D01*
X-199331Y-184596D01*
X-198750Y-183193D01*
Y-181752D01*
X-196750Y-180924D01*
X-187343Y-190330D01*
X-179904Y-182892D01*
X-193898Y-168898D01*
X-207892Y-154904D01*
X-214079Y-161092D01*
X-216728Y-160912D01*
X-217140Y-160370D01*
X-225691Y-148092D01*
X-233532Y-135390D01*
X-240659Y-122274D01*
X-247050Y-108784D01*
X-252686Y-94962D01*
X-257548Y-80849D01*
X-261623Y-66489D01*
X-264899Y-51926D01*
X-267364Y-37203D01*
X-267987Y-31592D01*
X-266653Y-30102D01*
X-239015D01*
X-238522Y-30004D01*
X-238020D01*
X-236087Y-29619D01*
X-235624Y-29427D01*
X-235131Y-29329D01*
X-233311Y-28575D01*
X-232893Y-28296D01*
X-232429Y-28104D01*
X-230791Y-27009D01*
X-230436Y-26654D01*
X-230018Y-26375D01*
X-228764Y-25121D01*
X-225292D01*
X-225000Y-27121D01*
Y-49000D01*
X-199000D01*
Y-27121D01*
X-199000Y-27000D01*
X-198708Y-25121D01*
X-73415Y-25121D01*
X-73266Y-25637D01*
D02*
G37*
G36*
X34750Y-120374D02*
X-4250D01*
Y-162286D01*
X-4815Y-162851D01*
X-5500Y-164505D01*
Y-166295D01*
X-4815Y-167949D01*
X-4250Y-168514D01*
Y-171374D01*
X-7042D01*
X-7042Y-190378D01*
X-33458D01*
X-33458Y-171374D01*
X-39250D01*
Y-91500D01*
X-38105D01*
X-36451Y-90815D01*
X-35185Y-89549D01*
X-34500Y-87895D01*
Y-86105D01*
X-35185Y-84451D01*
X-36451Y-83185D01*
X-38105Y-82500D01*
X-39250D01*
Y-77374D01*
X-29158D01*
X-28309Y-78644D01*
X-28500Y-79105D01*
Y-80895D01*
X-27815Y-82549D01*
X-26549Y-83815D01*
X-24895Y-84500D01*
X-23105D01*
X-21451Y-83815D01*
X-20185Y-82549D01*
X-19500Y-80895D01*
Y-79105D01*
X-19691Y-78644D01*
X-18842Y-77374D01*
X-4418D01*
X0Y-77622D01*
X4418Y-77374D01*
X34750D01*
Y-120374D01*
D02*
G37*
G36*
X235018Y-103875D02*
X235436Y-104154D01*
X235791Y-104509D01*
X237429Y-105604D01*
X237893Y-105796D01*
X238311Y-106075D01*
X240131Y-106829D01*
X240623Y-106927D01*
X241087Y-107119D01*
X243020Y-107504D01*
X243522D01*
X244015Y-107602D01*
X245729D01*
X246668Y-109602D01*
X240552Y-122484D01*
X233400Y-135617D01*
X225532Y-148334D01*
X216951Y-160625D01*
X212419Y-166574D01*
X211738Y-167443D01*
X210601Y-167913D01*
X208913Y-169601D01*
X208000Y-171807D01*
Y-174193D01*
X208247Y-174789D01*
X206716Y-176320D01*
X205944Y-176000D01*
X203556D01*
X201351Y-176913D01*
X199664Y-178601D01*
X198750Y-180807D01*
Y-183193D01*
X199318Y-184565D01*
X199112Y-185079D01*
X198034Y-186734D01*
X195647D01*
X193442Y-187647D01*
X191754Y-189335D01*
X191283Y-190473D01*
X190904Y-190852D01*
X185474Y-196131D01*
X181826Y-199392D01*
X180000Y-198575D01*
Y-192500D01*
X167540D01*
Y-190500D01*
X180000D01*
Y-178500D01*
X181207Y-177000D01*
X192000D01*
Y-159500D01*
X201000D01*
Y-147118D01*
X203000Y-146511D01*
X203304Y-146966D01*
X204862Y-148007D01*
X206700Y-148372D01*
X208538Y-148007D01*
X210096Y-146966D01*
X211137Y-145407D01*
X211503Y-143569D01*
Y-132451D01*
X211137Y-130613D01*
X210096Y-129055D01*
X208538Y-128014D01*
X206700Y-127649D01*
X204862Y-128014D01*
X203304Y-129055D01*
X202263Y-130613D01*
X201923Y-132320D01*
X201470Y-132628D01*
X199897Y-133280D01*
X198803Y-132592D01*
Y-132451D01*
X198437Y-130613D01*
X197396Y-129055D01*
X195838Y-128014D01*
X194000Y-127649D01*
X192162Y-128014D01*
X190604Y-129055D01*
X189563Y-130613D01*
X189197Y-132451D01*
Y-143569D01*
X189382Y-144500D01*
X189000Y-146500D01*
X189000D01*
Y-159000D01*
X187000D01*
Y-146500D01*
X186011D01*
Y-127741D01*
X176589D01*
Y-134952D01*
X174317D01*
X173702Y-134337D01*
X172710Y-133674D01*
X171539Y-133441D01*
X171539Y-133441D01*
X166267D01*
X164500Y-131674D01*
Y-124000D01*
X152540D01*
Y-123460D01*
X147020D01*
Y-130000D01*
Y-136540D01*
X149941D01*
Y-139500D01*
X149105D01*
X147451Y-140185D01*
X146185Y-141451D01*
X145500Y-143105D01*
Y-144895D01*
X146185Y-146549D01*
X147451Y-147815D01*
X149105Y-148500D01*
X150895D01*
X152549Y-147815D01*
X153815Y-146549D01*
X154500Y-144895D01*
Y-143826D01*
X155163Y-143163D01*
X155163Y-143163D01*
X155826Y-142170D01*
X156059Y-141000D01*
X156059Y-141000D01*
Y-136267D01*
X156326Y-136000D01*
X160174D01*
X162837Y-138663D01*
X162837Y-138663D01*
X163829Y-139326D01*
X165000Y-139559D01*
X170272D01*
X170887Y-140173D01*
X170887Y-140173D01*
X171879Y-140836D01*
X173050Y-141069D01*
X176589D01*
Y-146500D01*
X175000D01*
Y-158460D01*
X170770D01*
Y-168000D01*
X169500D01*
Y-169270D01*
X161460D01*
Y-173913D01*
X161369Y-173974D01*
X159579D01*
X157925Y-174659D01*
X157621Y-174963D01*
X155621Y-174135D01*
Y-173770D01*
X147020D01*
Y-191011D01*
X148586D01*
X150407Y-190771D01*
X152103Y-190068D01*
X152460Y-189795D01*
X154460Y-190781D01*
Y-197540D01*
X155000D01*
Y-200191D01*
X133559D01*
Y-170488D01*
X133559Y-170488D01*
X133326Y-169317D01*
X132663Y-168325D01*
X128569Y-164231D01*
Y-159874D01*
X130115Y-158841D01*
X131905D01*
X133559Y-158156D01*
X134825Y-156890D01*
X135510Y-155236D01*
Y-153446D01*
X134825Y-151792D01*
X133559Y-150526D01*
X131905Y-149841D01*
X130115D01*
X128569Y-148808D01*
Y-142925D01*
X130355Y-141500D01*
X132145D01*
X133799Y-140815D01*
X135065Y-139549D01*
X135750Y-137895D01*
Y-136105D01*
X135065Y-134451D01*
X133799Y-133185D01*
X133269Y-132965D01*
X132147Y-132473D01*
X132262Y-130568D01*
Y-128778D01*
X131576Y-127124D01*
X130311Y-125858D01*
X128657Y-125173D01*
X126867D01*
X125213Y-125858D01*
X123947Y-127124D01*
X123500Y-128203D01*
X121500Y-127805D01*
Y-125000D01*
X102500D01*
Y-116000D01*
X121500D01*
Y-112477D01*
X123500Y-111249D01*
X124105Y-111500D01*
X125895D01*
X127549Y-110815D01*
X128815Y-109549D01*
X129500Y-107895D01*
Y-106105D01*
X128885Y-104621D01*
X129193Y-103759D01*
X129813Y-102621D01*
X153187D01*
X153807Y-103759D01*
X154115Y-104621D01*
X153500Y-106105D01*
Y-107895D01*
X154185Y-109549D01*
X155451Y-110815D01*
X157105Y-111500D01*
X158895D01*
X160549Y-110815D01*
X161815Y-109549D01*
X162500Y-107895D01*
Y-106105D01*
X161885Y-104621D01*
X162193Y-103759D01*
X162813Y-102621D01*
X233764D01*
X235018Y-103875D01*
D02*
G37*
G36*
X-97500Y-80900D02*
X-136500D01*
Y-117835D01*
X-137026Y-119105D01*
Y-120895D01*
X-136500Y-122165D01*
Y-132750D01*
X-139292D01*
Y-150378D01*
X-165708D01*
Y-132750D01*
X-171500D01*
Y-105500D01*
X-171000D01*
Y-101500D01*
X-169277D01*
X-167623Y-100815D01*
X-166357Y-99549D01*
X-165672Y-97895D01*
Y-96105D01*
X-166357Y-94451D01*
X-167623Y-93185D01*
X-168858Y-92673D01*
X-168858Y-91327D01*
X-167623Y-90815D01*
X-166357Y-89549D01*
X-165672Y-87895D01*
Y-86105D01*
X-166357Y-84451D01*
X-166137Y-83345D01*
X-166063Y-83315D01*
X-164798Y-82049D01*
X-164112Y-80395D01*
Y-78605D01*
X-164798Y-76951D01*
X-166063Y-75685D01*
X-167717Y-75000D01*
X-169508D01*
X-169730Y-75092D01*
X-171000Y-74244D01*
Y-71500D01*
X-169277D01*
X-167623Y-70815D01*
X-166357Y-69549D01*
X-165672Y-67895D01*
Y-66105D01*
X-166357Y-64451D01*
X-167623Y-63185D01*
X-169277Y-62500D01*
X-171000D01*
Y-60500D01*
X-171000D01*
Y-53500D01*
X-171500D01*
Y-37900D01*
X-97500D01*
Y-80900D01*
D02*
G37*
G36*
X49904Y-62022D02*
X49148Y-63333D01*
X48500Y-65749D01*
Y-68251D01*
X49148Y-70667D01*
X50398Y-72833D01*
X52167Y-74602D01*
X54333Y-75853D01*
X56749Y-76500D01*
X56687Y-78474D01*
X48250D01*
Y-91474D01*
X51191D01*
Y-150974D01*
X48250D01*
X48250Y-150974D01*
X46790Y-150434D01*
Y-150434D01*
X46474Y-150434D01*
X41520D01*
Y-157474D01*
X40250D01*
Y-158744D01*
X33710D01*
Y-164514D01*
X34210D01*
Y-168704D01*
X41000D01*
Y-169974D01*
X42270D01*
Y-176514D01*
X47790D01*
Y-175974D01*
X59750D01*
Y-168300D01*
X60550Y-167500D01*
X61619D01*
X63152Y-168668D01*
X63460Y-170540D01*
Y-171960D01*
X63460D01*
X63460Y-172540D01*
Y-177480D01*
X70000D01*
Y-180020D01*
X63460D01*
Y-180483D01*
X61460Y-181734D01*
X60895Y-181500D01*
X59105D01*
X58256Y-181852D01*
X56290Y-181934D01*
X56290Y-181934D01*
X56290Y-181934D01*
X51020D01*
Y-188724D01*
X48480D01*
Y-181934D01*
X44290D01*
Y-181434D01*
X38520D01*
Y-187974D01*
X35980D01*
Y-181434D01*
X34543D01*
X33277Y-179434D01*
X33500Y-178895D01*
Y-178220D01*
X34035Y-176934D01*
X35348Y-176514D01*
X39730D01*
Y-171244D01*
X34210D01*
Y-174018D01*
X32210Y-174846D01*
X31549Y-174185D01*
X29895Y-173500D01*
X28105D01*
X26451Y-174185D01*
X25185Y-175451D01*
X24726Y-176559D01*
X23119Y-177144D01*
X22500Y-177161D01*
X21178Y-175839D01*
X17862Y-173925D01*
X14164Y-172934D01*
X13520D01*
Y-187474D01*
X10980D01*
Y-172934D01*
X10336D01*
X6638Y-173925D01*
X4059Y-175414D01*
X2059Y-174450D01*
Y-168705D01*
X2815Y-167949D01*
X3500Y-166295D01*
Y-164505D01*
X2815Y-162851D01*
X1549Y-161585D01*
X-105Y-160900D01*
X-1895D01*
X-2211Y-160689D01*
Y-148060D01*
X-211Y-147662D01*
X-106Y-147915D01*
X1729Y-150660D01*
X4064Y-152995D01*
X6809Y-154830D01*
X9860Y-156094D01*
X13099Y-156738D01*
X13480D01*
Y-139974D01*
X14750D01*
Y-138704D01*
X31514D01*
Y-138323D01*
X30870Y-135084D01*
X29606Y-132033D01*
X27771Y-129288D01*
X25436Y-126952D01*
X22691Y-125118D01*
X20989Y-124413D01*
X21387Y-122413D01*
X34750D01*
X35530Y-122258D01*
X36192Y-121816D01*
X36634Y-121154D01*
X36789Y-120374D01*
Y-91474D01*
X46250D01*
Y-78474D01*
X36789D01*
Y-77374D01*
X36634Y-76594D01*
X36192Y-75932D01*
X35530Y-75490D01*
X34750Y-75335D01*
X25610D01*
X25331Y-73355D01*
X25637Y-73266D01*
X33679Y-69935D01*
X41297Y-65725D01*
X48397Y-60687D01*
X49904Y-62022D01*
D02*
G37*
G36*
X121500Y-135000D02*
X122452Y-136606D01*
Y-165498D01*
X122452Y-165498D01*
X122684Y-166669D01*
X123348Y-167661D01*
X127441Y-171755D01*
Y-185467D01*
X125895Y-186500D01*
X124105D01*
X122451Y-187185D01*
X121711Y-187925D01*
X121702Y-187927D01*
X119673Y-187574D01*
X119531Y-187492D01*
X119175Y-186632D01*
X117909Y-185366D01*
X116255Y-184681D01*
X114465D01*
X112811Y-185366D01*
X111545Y-186632D01*
X110860Y-188286D01*
Y-190076D01*
X111545Y-191730D01*
X112811Y-192996D01*
X114465Y-193681D01*
X116255D01*
X117909Y-192996D01*
X118649Y-192256D01*
X118658Y-192254D01*
X120688Y-192607D01*
X120829Y-192689D01*
X121185Y-193549D01*
X122451Y-194815D01*
X124105Y-195500D01*
X125895D01*
X127441Y-196533D01*
Y-200191D01*
X107920D01*
X101066Y-193337D01*
X100073Y-192674D01*
X98903Y-192441D01*
X98903Y-192441D01*
X92776D01*
X91732Y-190878D01*
X89611Y-189461D01*
X87110Y-188964D01*
X81390D01*
X78889Y-189461D01*
X78000Y-190055D01*
X76000Y-188986D01*
Y-185540D01*
X76540D01*
Y-179840D01*
X78540Y-178843D01*
X79575Y-179272D01*
X81390Y-179511D01*
X82980D01*
Y-172500D01*
Y-165489D01*
X81390D01*
X79575Y-165728D01*
X78540Y-166157D01*
X76540Y-165160D01*
Y-165020D01*
X70000D01*
Y-162480D01*
X76540D01*
Y-156960D01*
X78105Y-155911D01*
X93521D01*
Y-147237D01*
X93826Y-146781D01*
X94059Y-145610D01*
Y-142318D01*
X94403Y-141959D01*
X96059Y-141147D01*
X97085Y-141572D01*
X98875D01*
X100529Y-140887D01*
X101795Y-139621D01*
X102480Y-137967D01*
Y-136177D01*
X103266Y-135000D01*
X112941D01*
Y-160192D01*
X111792Y-161341D01*
X111264D01*
X109610Y-162026D01*
X108344Y-163292D01*
X107659Y-164946D01*
Y-166736D01*
X108317Y-168326D01*
X107451Y-168685D01*
X106185Y-169951D01*
X104021Y-169949D01*
X103815Y-169451D01*
X102549Y-168185D01*
X100895Y-167500D01*
X99105D01*
X97451Y-168185D01*
X96185Y-169451D01*
X95816Y-170341D01*
X95146Y-170460D01*
X93695Y-170235D01*
X93181Y-168995D01*
X92067Y-167543D01*
X90615Y-166429D01*
X88925Y-165728D01*
X87110Y-165489D01*
X85520D01*
Y-172500D01*
Y-179511D01*
X87110D01*
X88925Y-179272D01*
X90615Y-178571D01*
X92067Y-177457D01*
X93181Y-176005D01*
X93882Y-174314D01*
X93892Y-174239D01*
X95945Y-173969D01*
X96185Y-174549D01*
X97451Y-175815D01*
X99105Y-176500D01*
X100895D01*
X102549Y-175815D01*
X103815Y-174549D01*
X105979Y-174551D01*
X106185Y-175049D01*
X107451Y-176315D01*
X109105Y-177000D01*
X110895D01*
X112549Y-176315D01*
X113815Y-175049D01*
X114500Y-173395D01*
Y-171605D01*
X113841Y-170015D01*
X114708Y-169656D01*
X115974Y-168390D01*
X116659Y-166736D01*
Y-165126D01*
X118163Y-163622D01*
X118826Y-162629D01*
X119059Y-161459D01*
Y-135000D01*
X121500D01*
D02*
G37*
G36*
X-147750Y-166000D02*
X-141250D01*
Y-174000D01*
X-157250D01*
Y-163750D01*
X-163750D01*
Y-156000D01*
X-147750D01*
Y-166000D01*
D02*
G37*
G36*
X64000Y-193558D02*
Y-197500D01*
X65308D01*
X66185Y-199451D01*
X65500Y-201105D01*
Y-202895D01*
X66185Y-204549D01*
X67451Y-205815D01*
X69105Y-206500D01*
X70895D01*
X72549Y-205815D01*
X73815Y-204549D01*
X74500Y-202895D01*
Y-201105D01*
X75873Y-199194D01*
X76133Y-199172D01*
X76768Y-200122D01*
X78889Y-201539D01*
X81390Y-202036D01*
X87110D01*
X87204Y-202018D01*
X88500Y-203082D01*
X89185Y-204736D01*
X89941Y-205492D01*
Y-221520D01*
X84475Y-226986D01*
X83784Y-226700D01*
X81417D01*
X79230Y-227606D01*
X77681Y-229154D01*
X77396Y-229275D01*
X75415Y-229222D01*
X75093Y-228665D01*
X73885Y-227457D01*
X72405Y-226602D01*
X71170Y-226271D01*
Y-232650D01*
X68630D01*
Y-226271D01*
X67395Y-226602D01*
X66093Y-227354D01*
X65694Y-227375D01*
X63847Y-226697D01*
X63700Y-226148D01*
X62781Y-224557D01*
X61483Y-223259D01*
X59892Y-222340D01*
X58118Y-221865D01*
X56282D01*
X54508Y-222340D01*
X52917Y-223259D01*
X51619Y-224557D01*
X50700Y-226148D01*
X50225Y-227922D01*
Y-229758D01*
X50700Y-231532D01*
X51619Y-233123D01*
X52917Y-234421D01*
X54508Y-235340D01*
X56282Y-235815D01*
X58118D01*
X59892Y-235340D01*
X61483Y-234421D01*
X61564Y-234341D01*
X63794Y-234938D01*
X63852Y-235155D01*
X64707Y-236635D01*
X65915Y-237843D01*
X66472Y-238165D01*
X66523Y-240050D01*
X66352Y-240213D01*
X64552Y-240908D01*
X62666Y-239022D01*
X61674Y-238359D01*
X60503Y-238126D01*
X60503Y-238126D01*
X53897D01*
X52726Y-238359D01*
X51734Y-239022D01*
X51734Y-239022D01*
X47980Y-242776D01*
X46165D01*
X46165Y-242776D01*
X44994Y-243009D01*
X44002Y-243672D01*
X39304Y-248370D01*
X37922Y-248000D01*
X36079D01*
X34789Y-247011D01*
Y-239071D01*
X34750Y-238874D01*
Y-238673D01*
X34673Y-238488D01*
X34634Y-238291D01*
X34522Y-238124D01*
X34446Y-237938D01*
X34304Y-237796D01*
X34192Y-237629D01*
X34815Y-236549D01*
X35500Y-234895D01*
Y-233105D01*
X34815Y-231451D01*
X34446Y-230062D01*
X34522Y-229876D01*
X34634Y-229709D01*
X34673Y-229512D01*
X34750Y-229327D01*
Y-229126D01*
X34789Y-228929D01*
Y-225374D01*
X34634Y-224594D01*
X34192Y-223932D01*
X33530Y-223490D01*
X32750Y-223335D01*
X-5003D01*
Y-219346D01*
X-5158Y-218566D01*
X-5600Y-217904D01*
X-6027Y-217619D01*
X-6976Y-216012D01*
Y-214076D01*
X-6961Y-214000D01*
Y-213433D01*
X-250D01*
Y-216874D01*
X11750D01*
Y-203874D01*
X13750D01*
Y-216874D01*
X25750D01*
Y-213433D01*
X35476D01*
X35477Y-213433D01*
X36647Y-213200D01*
X37639Y-212537D01*
X39913Y-210263D01*
X39913Y-210263D01*
X40576Y-209271D01*
X40809Y-208100D01*
Y-207974D01*
X43750D01*
Y-207474D01*
X55750D01*
Y-199300D01*
X56424Y-198625D01*
X57156Y-198137D01*
X61629Y-193663D01*
X61630Y-193663D01*
X62000Y-193108D01*
X64000Y-193558D01*
D02*
G37*
G36*
X-15500Y-206000D02*
X-9000D01*
Y-214000D01*
X-25000D01*
Y-203750D01*
X-31500D01*
Y-196000D01*
X-15500D01*
Y-206000D01*
D02*
G37*
G36*
X132451Y-212765D02*
X132897Y-212949D01*
X133377Y-215298D01*
X124174Y-224500D01*
X123105D01*
X121451Y-225185D01*
X120652Y-225984D01*
X120343Y-225923D01*
X119077Y-224657D01*
X117423Y-223972D01*
X115633D01*
X113979Y-224657D01*
X112713Y-225923D01*
X112028Y-227577D01*
X111505Y-228006D01*
X111303Y-227966D01*
X111303Y-227966D01*
X104697D01*
X104697Y-227966D01*
X103526Y-228199D01*
X102534Y-228862D01*
X102534Y-228862D01*
X102321Y-229075D01*
X100344Y-229280D01*
X98670Y-227606D01*
X96484Y-226700D01*
X96241D01*
X95579Y-225626D01*
X95330Y-224700D01*
X95826Y-223957D01*
X96059Y-222787D01*
X96059Y-222787D01*
Y-220536D01*
X98059Y-219274D01*
X98605Y-219500D01*
X100395D01*
X102049Y-218815D01*
X103315Y-217549D01*
X104000Y-215895D01*
Y-214826D01*
X106817Y-212008D01*
X131695D01*
X132451Y-212765D01*
D02*
G37*
G36*
X-139292Y-185900D02*
X-99500D01*
Y-228900D01*
X-142884D01*
X-149971Y-224447D01*
X-162320Y-215685D01*
X-167303Y-211711D01*
Y-185900D01*
X-165708D01*
Y-179372D01*
X-139292D01*
Y-185900D01*
D02*
G37*
G36*
X-7042Y-225374D02*
X32750D01*
Y-228929D01*
X31895Y-229500D01*
X30105D01*
X28451Y-230185D01*
X27185Y-231451D01*
X26500Y-233105D01*
Y-234895D01*
X27185Y-236549D01*
X28451Y-237815D01*
X30105Y-238500D01*
X31895D01*
X32750Y-239071D01*
Y-249371D01*
X32702Y-249399D01*
X31399Y-250702D01*
X30477Y-252298D01*
X30000Y-254078D01*
Y-255922D01*
X30477Y-257702D01*
X31399Y-259298D01*
X32702Y-260601D01*
X32750Y-260629D01*
Y-267851D01*
X28110Y-268374D01*
X-28110D01*
X-35053Y-267592D01*
Y-225374D01*
X-33458D01*
Y-219346D01*
X-7042Y-219346D01*
Y-225374D01*
D02*
G37*
G36*
X-427086Y-149399D02*
X-425399Y-151087D01*
X-424853Y-151313D01*
Y-152687D01*
X-425399Y-152913D01*
X-427086Y-154601D01*
X-428000Y-156806D01*
Y-159193D01*
X-427086Y-161399D01*
X-425399Y-163086D01*
X-425102Y-163210D01*
Y-346941D01*
X-646941D01*
Y-147500D01*
X-427873D01*
X-427086Y-149399D01*
D02*
G37*
%LPC*%
G36*
X-586270Y307540D02*
X-586388D01*
X-589068Y306822D01*
X-591472Y305434D01*
X-593434Y303472D01*
X-594267Y302029D01*
X-595733D01*
X-596566Y303472D01*
X-598528Y305434D01*
X-600932Y306822D01*
X-603612Y307540D01*
X-603730D01*
Y297000D01*
Y286460D01*
X-603612D01*
X-600932Y287178D01*
X-598528Y288566D01*
X-596566Y290528D01*
X-595733Y291971D01*
X-594267D01*
X-593434Y290528D01*
X-591472Y288566D01*
X-589068Y287178D01*
X-586388Y286460D01*
X-586270D01*
Y297000D01*
Y307540D01*
D02*
G37*
G36*
X-606270D02*
X-606388D01*
X-609068Y306822D01*
X-611472Y305434D01*
X-613434Y303472D01*
X-614822Y301068D01*
X-615540Y298388D01*
Y298270D01*
X-606270D01*
Y307540D01*
D02*
G37*
G36*
Y295730D02*
X-615540D01*
Y295612D01*
X-614822Y292932D01*
X-613434Y290528D01*
X-611472Y288566D01*
X-609068Y287178D01*
X-606388Y286460D01*
X-606270D01*
Y295730D01*
D02*
G37*
G36*
X-475460Y282040D02*
X-490230D01*
Y276270D01*
X-475460D01*
Y282040D01*
D02*
G37*
G36*
X-416460Y294040D02*
X-431230D01*
Y276270D01*
X-416460D01*
Y294040D01*
D02*
G37*
G36*
X-433770D02*
X-448540D01*
Y276270D01*
X-433770D01*
Y294040D01*
D02*
G37*
G36*
X-515270Y279480D02*
X-520540D01*
Y273960D01*
X-515270D01*
Y279480D01*
D02*
G37*
G36*
X-475460Y273730D02*
X-490230D01*
Y267960D01*
X-475460D01*
Y273730D01*
D02*
G37*
G36*
X-583612Y307540D02*
X-583730D01*
Y297000D01*
Y286460D01*
X-583612D01*
X-580932Y287178D01*
X-578528Y288566D01*
X-576566Y290528D01*
X-575420Y292514D01*
X-574203Y292629D01*
X-573984Y292561D01*
X-573002Y290860D01*
X-571140Y288998D01*
X-568860Y287682D01*
X-566316Y287000D01*
X-563684D01*
X-561140Y287682D01*
X-558860Y288998D01*
X-556998Y290860D01*
X-555681Y293140D01*
X-555467Y293941D01*
X-553000D01*
X-553000Y293941D01*
X-551829Y294174D01*
X-550837Y294837D01*
X-548733Y296941D01*
X-520000D01*
Y287540D01*
X-520540D01*
Y282020D01*
X-514000D01*
Y280750D01*
X-512730D01*
Y273960D01*
X-507540D01*
Y267960D01*
X-492770D01*
Y275000D01*
Y282040D01*
X-507460D01*
Y287540D01*
X-508000D01*
Y290848D01*
X-507000Y291500D01*
X-476000D01*
Y304500D01*
X-507000D01*
Y303059D01*
X-550000D01*
X-551171Y302826D01*
X-552163Y302163D01*
X-554267Y300059D01*
X-555467D01*
X-555681Y300860D01*
X-556998Y303140D01*
X-558860Y305002D01*
X-561140Y306318D01*
X-563684Y307000D01*
X-566316D01*
X-568860Y306318D01*
X-571140Y305002D01*
X-573002Y303140D01*
X-573984Y301439D01*
X-574203Y301371D01*
X-575420Y301486D01*
X-576566Y303472D01*
X-578528Y305434D01*
X-580932Y306822D01*
X-583612Y307540D01*
D02*
G37*
G36*
X-416460Y273730D02*
X-431230D01*
Y255960D01*
X-416460D01*
Y273730D01*
D02*
G37*
G36*
X-433770D02*
X-448540D01*
Y255960D01*
X-433770D01*
Y273730D01*
D02*
G37*
G36*
X-469460Y207040D02*
X-474730D01*
Y201520D01*
X-469460D01*
Y207040D01*
D02*
G37*
G36*
X-477270D02*
X-482540D01*
Y201520D01*
X-477270D01*
Y207040D01*
D02*
G37*
G36*
X-484460Y206730D02*
X-493730D01*
Y197710D01*
X-484460D01*
Y206730D01*
D02*
G37*
G36*
X-496270D02*
X-505540D01*
Y197710D01*
X-496270D01*
Y206730D01*
D02*
G37*
G36*
X-476000Y258500D02*
X-507000D01*
Y245500D01*
X-490559D01*
Y238479D01*
X-490559Y238479D01*
X-490559Y238479D01*
Y237250D01*
X-505000D01*
Y218290D01*
X-505540D01*
Y209270D01*
X-484460D01*
Y218290D01*
X-485000D01*
Y229994D01*
X-483827Y230480D01*
X-458184Y204837D01*
X-457191Y204174D01*
X-456021Y203941D01*
X-456021Y203941D01*
X-451533D01*
X-451319Y203140D01*
X-450002Y200860D01*
X-448140Y198998D01*
X-445860Y197682D01*
X-445770Y197657D01*
Y196343D01*
X-445860Y196318D01*
X-448140Y195002D01*
X-450002Y193140D01*
X-451319Y190860D01*
X-451533Y190059D01*
X-459486D01*
X-459486Y190059D01*
X-460656Y189826D01*
X-461649Y189163D01*
X-461649Y189163D01*
X-468730Y182082D01*
X-470000Y182608D01*
Y193460D01*
X-469460D01*
Y198980D01*
X-476000D01*
X-482540D01*
Y193460D01*
X-482000D01*
Y181500D01*
X-482871Y180591D01*
X-483392Y180487D01*
X-484950Y179446D01*
X-485991Y177888D01*
X-486357Y176050D01*
X-485991Y174212D01*
X-484950Y172654D01*
X-483392Y171613D01*
X-481554Y171247D01*
X-470436D01*
X-468598Y171613D01*
X-467040Y172654D01*
X-465998Y174212D01*
X-465633Y176050D01*
X-465712Y176448D01*
X-458219Y183941D01*
X-451533D01*
X-451319Y183140D01*
X-450002Y180860D01*
X-448140Y178998D01*
X-445860Y177682D01*
X-445770Y177657D01*
Y176343D01*
X-445860Y176318D01*
X-448140Y175002D01*
X-450002Y173140D01*
X-451319Y170860D01*
X-451533Y170059D01*
X-466010D01*
X-466010Y170059D01*
X-467180Y169826D01*
X-468173Y169163D01*
X-469390Y167945D01*
X-470436Y168153D01*
X-481554D01*
X-483392Y167787D01*
X-484950Y166746D01*
X-485991Y165188D01*
X-486357Y163350D01*
X-485991Y161512D01*
X-484950Y159954D01*
X-483392Y158913D01*
X-481554Y158547D01*
X-470436D01*
X-468598Y158913D01*
X-467040Y159954D01*
X-465998Y161512D01*
X-465707Y162977D01*
X-464743Y163941D01*
X-451533D01*
X-451319Y163140D01*
X-450002Y160860D01*
X-448140Y158998D01*
X-445860Y157682D01*
X-445770Y157657D01*
Y156343D01*
X-445860Y156319D01*
X-448140Y155002D01*
X-450002Y153140D01*
X-451319Y150860D01*
X-451533Y150059D01*
X-464743D01*
X-465707Y151023D01*
X-465998Y152488D01*
X-467040Y154046D01*
X-468598Y155087D01*
X-470436Y155453D01*
X-481554D01*
X-483392Y155087D01*
X-484950Y154046D01*
X-485991Y152488D01*
X-486357Y150650D01*
X-485991Y148812D01*
X-484950Y147254D01*
X-483392Y146213D01*
X-481554Y145847D01*
X-470436D01*
X-469390Y146055D01*
X-468173Y144837D01*
X-468172Y144837D01*
X-467180Y144174D01*
X-466010Y143941D01*
X-451533D01*
X-451319Y143140D01*
X-450002Y140860D01*
X-448140Y138998D01*
X-446439Y138016D01*
X-446371Y137797D01*
X-446486Y136580D01*
X-448472Y135434D01*
X-450434Y133472D01*
X-451822Y131068D01*
X-452540Y128388D01*
Y128270D01*
X-442000D01*
X-431460D01*
Y128388D01*
X-432178Y131068D01*
X-433566Y133472D01*
X-435528Y135434D01*
X-437514Y136580D01*
X-437629Y137797D01*
X-437561Y138016D01*
X-435860Y138998D01*
X-433998Y140860D01*
X-432682Y143140D01*
X-432000Y145683D01*
Y148316D01*
X-432682Y150860D01*
X-433998Y153140D01*
X-435860Y155002D01*
X-438140Y156319D01*
X-438230Y156343D01*
Y157657D01*
X-438140Y157682D01*
X-435860Y158998D01*
X-433998Y160860D01*
X-432682Y163140D01*
X-432000Y165683D01*
Y168316D01*
X-432682Y170860D01*
X-433998Y173140D01*
X-435860Y175002D01*
X-438140Y176318D01*
X-438230Y176343D01*
Y177657D01*
X-438140Y177682D01*
X-435860Y178998D01*
X-433998Y180860D01*
X-432682Y183140D01*
X-432000Y185683D01*
Y188316D01*
X-432682Y190860D01*
X-433998Y193140D01*
X-435860Y195002D01*
X-438140Y196318D01*
X-438230Y196343D01*
Y197657D01*
X-438140Y197682D01*
X-435860Y198998D01*
X-433998Y200860D01*
X-432682Y203140D01*
X-432000Y205683D01*
Y208316D01*
X-432682Y210860D01*
X-433998Y213140D01*
X-435860Y215002D01*
X-438140Y216318D01*
X-440684Y217000D01*
X-443316D01*
X-445860Y216318D01*
X-448140Y215002D01*
X-450002Y213140D01*
X-451319Y210860D01*
X-451533Y210059D01*
X-454754D01*
X-458011Y213316D01*
X-457529Y214630D01*
X-456105Y215011D01*
X-454395Y215998D01*
X-452999Y217395D01*
X-452011Y219105D01*
X-451500Y221013D01*
Y222987D01*
X-452011Y224895D01*
X-452999Y226605D01*
X-454395Y228001D01*
X-456105Y228989D01*
X-458013Y229500D01*
X-459987D01*
X-461895Y228989D01*
X-463605Y228001D01*
X-465001Y226605D01*
X-465989Y224895D01*
X-466370Y223471D01*
X-467684Y222989D01*
X-484441Y239746D01*
Y245500D01*
X-476000D01*
Y258500D01*
D02*
G37*
G36*
X-470436Y143303D02*
X-474725D01*
Y139220D01*
X-465335D01*
X-465490Y139999D01*
X-466650Y141735D01*
X-468387Y142896D01*
X-470436Y143303D01*
D02*
G37*
G36*
X-477265D02*
X-481554D01*
X-483602Y142896D01*
X-485339Y141735D01*
X-486500Y139999D01*
X-486655Y139220D01*
X-477265D01*
Y143303D01*
D02*
G37*
G36*
X-465335Y136680D02*
X-474725D01*
Y132597D01*
X-470436D01*
X-468387Y133004D01*
X-466650Y134164D01*
X-465490Y135901D01*
X-465335Y136680D01*
D02*
G37*
G36*
X-477265D02*
X-486655D01*
X-486500Y135901D01*
X-485339Y134164D01*
X-483602Y133004D01*
X-481554Y132597D01*
X-477265D01*
Y136680D01*
D02*
G37*
G36*
X-431460Y125730D02*
X-442000D01*
X-452540D01*
Y125612D01*
X-451822Y122932D01*
X-450434Y120528D01*
X-448472Y118566D01*
X-447029Y117733D01*
Y116267D01*
X-448472Y115434D01*
X-450434Y113472D01*
X-451822Y111068D01*
X-452540Y108388D01*
Y108270D01*
X-442000D01*
X-431460D01*
Y108388D01*
X-432178Y111068D01*
X-433566Y113472D01*
X-435528Y115434D01*
X-436970Y116267D01*
Y117733D01*
X-435528Y118566D01*
X-433566Y120528D01*
X-432178Y122932D01*
X-431460Y125612D01*
Y125730D01*
D02*
G37*
G36*
Y105730D02*
X-440730D01*
Y96460D01*
X-440612D01*
X-437932Y97178D01*
X-435528Y98566D01*
X-433566Y100528D01*
X-432178Y102932D01*
X-431460Y105612D01*
Y105730D01*
D02*
G37*
G36*
X-443270D02*
X-452540D01*
Y105612D01*
X-451822Y102932D01*
X-450434Y100528D01*
X-448472Y98566D01*
X-446068Y97178D01*
X-443388Y96460D01*
X-443270D01*
Y105730D01*
D02*
G37*
G36*
X-20460Y194540D02*
X-26230D01*
Y189270D01*
X-20460D01*
Y194540D01*
D02*
G37*
G36*
X-586Y202040D02*
X-1230D01*
Y188770D01*
X12040D01*
Y189414D01*
X11049Y193112D01*
X9135Y196428D01*
X6428Y199135D01*
X3112Y201049D01*
X-586Y202040D01*
D02*
G37*
G36*
X-3770D02*
X-4414D01*
X-8112Y201049D01*
X-11428Y199135D01*
X-14135Y196428D01*
X-16049Y193112D01*
X-17040Y189414D01*
Y188770D01*
X-3770D01*
Y202040D01*
D02*
G37*
G36*
X12040Y186230D02*
X-1230D01*
Y172960D01*
X-586D01*
X3112Y173951D01*
X6428Y175865D01*
X9135Y178572D01*
X11049Y181888D01*
X12040Y185586D01*
Y186230D01*
D02*
G37*
G36*
X-158105Y174500D02*
X-159895D01*
X-161549Y173815D01*
X-162815Y172549D01*
X-163500Y170895D01*
Y169105D01*
X-162815Y167451D01*
X-161549Y166185D01*
X-159895Y165500D01*
X-158105D01*
X-156451Y166185D01*
X-155185Y167451D01*
X-154500Y169105D01*
Y170895D01*
X-155185Y172549D01*
X-156451Y173815D01*
X-158105Y174500D01*
D02*
G37*
G36*
X-178108Y181096D02*
X-191204Y168000D01*
X-183765Y160561D01*
X-170670Y173657D01*
X-178108Y181096D01*
D02*
G37*
G36*
X-23960Y156230D02*
X-29230D01*
Y150460D01*
X-23960D01*
Y156230D01*
D02*
G37*
G36*
X-31770D02*
X-37040D01*
Y150460D01*
X-31770D01*
Y156230D01*
D02*
G37*
G36*
X-193000Y166204D02*
X-206096Y153108D01*
X-198657Y145670D01*
X-185561Y158765D01*
X-193000Y166204D01*
D02*
G37*
G36*
X-140460Y149140D02*
X-146230D01*
Y143870D01*
X-140460D01*
Y149140D01*
D02*
G37*
G36*
X-120586Y156640D02*
X-121230D01*
Y143370D01*
X-107960D01*
Y144014D01*
X-108951Y147712D01*
X-110865Y151028D01*
X-113572Y153735D01*
X-116888Y155649D01*
X-120586Y156640D01*
D02*
G37*
G36*
X-124000Y171500D02*
X-136000D01*
Y168059D01*
X-148000D01*
X-149171Y167826D01*
X-150163Y167163D01*
X-150826Y166171D01*
X-151059Y165000D01*
Y162600D01*
X-154000D01*
X-154000Y162100D01*
X-166000D01*
Y150140D01*
X-166540D01*
Y144620D01*
X-160000D01*
Y143350D01*
X-158730D01*
Y136560D01*
X-154540D01*
Y136060D01*
X-148770D01*
Y142600D01*
Y149140D01*
X-152562D01*
X-152568Y149146D01*
X-152627Y149432D01*
X-151569Y150600D01*
X-141000D01*
Y151440D01*
X-139730Y151966D01*
X-139349Y151585D01*
X-137695Y150900D01*
X-135905D01*
X-135603Y151025D01*
X-134719Y150017D01*
X-136049Y147712D01*
X-137040Y144014D01*
Y143370D01*
X-123770D01*
Y156640D01*
X-124414D01*
X-128112Y155649D01*
X-131187Y153874D01*
X-132008Y154340D01*
X-132300Y154644D01*
Y156295D01*
X-132687Y157230D01*
X-131877Y158500D01*
X-124000D01*
Y171500D01*
D02*
G37*
G36*
X-6270Y156764D02*
X-6651D01*
X-9890Y156120D01*
X-12941Y154856D01*
X-15686Y153021D01*
X-18021Y150686D01*
X-19856Y147941D01*
X-21120Y144890D01*
X-21764Y141651D01*
Y141270D01*
X-6270D01*
Y156764D01*
D02*
G37*
G36*
X-161270Y142080D02*
X-166540D01*
Y136560D01*
X-161270D01*
Y142080D01*
D02*
G37*
G36*
X-140460Y141330D02*
X-146230D01*
Y136060D01*
X-140460D01*
Y141330D01*
D02*
G37*
G36*
X-64105Y141500D02*
X-65895D01*
X-67549Y140815D01*
X-68815Y139549D01*
X-69500Y137895D01*
Y136105D01*
X-68815Y134451D01*
X-67549Y133185D01*
X-65895Y132500D01*
X-64105D01*
X-62451Y133185D01*
X-61185Y134451D01*
X-60500Y136105D01*
Y137895D01*
X-61185Y139549D01*
X-62451Y140815D01*
X-64105Y141500D01*
D02*
G37*
G36*
X-107960Y140830D02*
X-121230D01*
Y127560D01*
X-120586D01*
X-116888Y128551D01*
X-113572Y130465D01*
X-110865Y133172D01*
X-108951Y136488D01*
X-107960Y140186D01*
Y140830D01*
D02*
G37*
G36*
X-123770D02*
X-137040D01*
Y140186D01*
X-136049Y136488D01*
X-134135Y133172D01*
X-131428Y130465D01*
X-128112Y128551D01*
X-124414Y127560D01*
X-123770D01*
Y140830D01*
D02*
G37*
G36*
X-144460Y131140D02*
X-149980D01*
Y125870D01*
X-144460D01*
Y131140D01*
D02*
G37*
G36*
X-152520D02*
X-158040D01*
Y130600D01*
X-170000D01*
Y118600D01*
X-170500Y118600D01*
X-170500Y106815D01*
X-170500Y106711D01*
X-170508Y106545D01*
X-170971Y105562D01*
X-171700Y105502D01*
X-171773Y105500D01*
X-171950Y105500D01*
X-188000D01*
X-188000Y105500D01*
Y105500D01*
X-188301Y105710D01*
X-188451Y105815D01*
X-189035Y106057D01*
X-190105Y106500D01*
X-191895D01*
X-193549Y105815D01*
X-194815Y104549D01*
X-195500Y102895D01*
Y101105D01*
X-194815Y99451D01*
X-193549Y98185D01*
X-192313Y97673D01*
X-192313Y96327D01*
X-193549Y95815D01*
X-194815Y94549D01*
X-195500Y92895D01*
Y91105D01*
X-194815Y89451D01*
X-193549Y88185D01*
X-192313Y87673D01*
X-192314Y86327D01*
X-193549Y85815D01*
X-194815Y84549D01*
X-195500Y82895D01*
Y81105D01*
X-194815Y79451D01*
X-193549Y78185D01*
X-192313Y77673D01*
X-192313Y76327D01*
X-193549Y75815D01*
X-194815Y74549D01*
X-195500Y72895D01*
Y71105D01*
X-194815Y69451D01*
X-193549Y68185D01*
X-192313Y67673D01*
Y66327D01*
X-193549Y65815D01*
X-194815Y64549D01*
X-195500Y62895D01*
Y61105D01*
X-194815Y59451D01*
X-193549Y58185D01*
X-191895Y57500D01*
X-190105D01*
X-189596Y57711D01*
X-188540Y57005D01*
Y52960D01*
X-180770D01*
Y57000D01*
X-179500D01*
Y58270D01*
X-170460D01*
Y61040D01*
X-171000D01*
Y62960D01*
X-170460D01*
Y65730D01*
X-179500D01*
Y68270D01*
X-170460D01*
Y71040D01*
X-171000D01*
Y72960D01*
X-170460D01*
Y75730D01*
X-179500D01*
Y78270D01*
X-170460D01*
Y81040D01*
X-171000D01*
Y82960D01*
X-170460D01*
Y85730D01*
X-179500D01*
Y88270D01*
X-170460D01*
Y91040D01*
X-171000D01*
Y92960D01*
X-170460D01*
Y95730D01*
X-179500D01*
Y98270D01*
X-170460D01*
Y101040D01*
X-171000D01*
X-171000Y104285D01*
X-171000Y104389D01*
X-170992Y104555D01*
X-170529Y105538D01*
X-169799Y105598D01*
X-169727Y105600D01*
X-169550Y105600D01*
X-167559D01*
Y51805D01*
X-168815Y50549D01*
X-169500Y48895D01*
Y47105D01*
X-170172Y46100D01*
X-170500D01*
Y33100D01*
X-158500D01*
Y46100D01*
X-159829D01*
X-160500Y47105D01*
Y48895D01*
X-161185Y50549D01*
X-161441Y50805D01*
Y105600D01*
X-158500D01*
Y116169D01*
X-157332Y117227D01*
X-157046Y117168D01*
X-157040Y117162D01*
Y113370D01*
X-150500D01*
X-143960D01*
Y119140D01*
X-144460D01*
Y123330D01*
X-151250D01*
Y124600D01*
X-152520D01*
Y131140D01*
D02*
G37*
G36*
X-199000Y132000D02*
X-225000D01*
Y110000D01*
X-199000D01*
Y132000D01*
D02*
G37*
G36*
X-143960Y110830D02*
X-149230D01*
Y105060D01*
X-143960D01*
Y110830D01*
D02*
G37*
G36*
X-151770D02*
X-157040D01*
Y105060D01*
X-151770D01*
Y110830D01*
D02*
G37*
G36*
X-126270Y111364D02*
X-126651D01*
X-129890Y110720D01*
X-132941Y109456D01*
X-135686Y107621D01*
X-138021Y105286D01*
X-139856Y102541D01*
X-141120Y99490D01*
X-141764Y96251D01*
Y95870D01*
X-126270D01*
Y111364D01*
D02*
G37*
G36*
X-59105Y92500D02*
X-60895D01*
X-62549Y91815D01*
X-63815Y90549D01*
X-64500Y88895D01*
Y87105D01*
X-63815Y85451D01*
X-62549Y84185D01*
X-60895Y83500D01*
X-59105D01*
X-57451Y84185D01*
X-56185Y85451D01*
X-55500Y87105D01*
Y88895D01*
X-56185Y90549D01*
X-57451Y91815D01*
X-59105Y92500D01*
D02*
G37*
G36*
X-170460Y55730D02*
X-178230D01*
Y52960D01*
X-170460D01*
Y55730D01*
D02*
G37*
G36*
X-199000Y49000D02*
X-225000D01*
Y27000D01*
X-199000D01*
Y49000D01*
D02*
G37*
G36*
X94895Y157500D02*
X93105D01*
X91451Y156815D01*
X90185Y155549D01*
X89500Y153895D01*
Y152105D01*
X90185Y150451D01*
X91451Y149185D01*
X93105Y148500D01*
X94895D01*
X96549Y149185D01*
X97815Y150451D01*
X98500Y152105D01*
Y153895D01*
X97815Y155549D01*
X96549Y156815D01*
X94895Y157500D01*
D02*
G37*
G36*
X88540Y138230D02*
X81270D01*
Y134460D01*
X88540D01*
Y138230D01*
D02*
G37*
G36*
X78730D02*
X71460D01*
Y134460D01*
X78730D01*
Y138230D01*
D02*
G37*
G36*
X204000Y136590D02*
X198145Y136590D01*
Y130270D01*
X206590D01*
Y134000D01*
X206540Y134250D01*
Y136540D01*
X204251D01*
X204000Y136590D01*
D02*
G37*
G36*
X70480Y129540D02*
X64960D01*
Y124270D01*
X70480D01*
Y129540D01*
D02*
G37*
G36*
X206590Y127730D02*
X198145D01*
Y121410D01*
X204000D01*
X204250Y121460D01*
X206540D01*
Y123750D01*
X206590Y124000D01*
Y127730D01*
D02*
G37*
G36*
X70480Y121730D02*
X64960D01*
Y116460D01*
X70480D01*
Y121730D01*
D02*
G37*
G36*
X66895Y111500D02*
X65105D01*
X63451Y110815D01*
X62185Y109549D01*
X61500Y107895D01*
Y106105D01*
X62185Y104451D01*
X63451Y103185D01*
X65105Y102500D01*
X66895D01*
X68549Y103185D01*
X69815Y104451D01*
X70500Y106105D01*
Y107895D01*
X69815Y109549D01*
X68549Y110815D01*
X66895Y111500D01*
D02*
G37*
G36*
X59895Y87500D02*
X58105D01*
X56451Y86815D01*
X55185Y85549D01*
X54500Y83895D01*
Y82105D01*
X55185Y80451D01*
X56451Y79185D01*
X58105Y78500D01*
X59895D01*
X61549Y79185D01*
X62815Y80451D01*
X63500Y82105D01*
Y83895D01*
X62815Y85549D01*
X61549Y86815D01*
X59895Y87500D01*
D02*
G37*
G36*
X-574460Y209040D02*
X-579730D01*
Y203520D01*
X-574460D01*
Y209040D01*
D02*
G37*
G36*
X-582270D02*
X-587540D01*
Y203520D01*
X-582270D01*
Y209040D01*
D02*
G37*
G36*
X-574460Y200980D02*
X-581000D01*
X-587540D01*
Y195460D01*
X-587000D01*
Y184765D01*
X-587000Y184595D01*
X-588194Y183424D01*
X-588616Y183427D01*
X-593351Y188163D01*
X-594344Y188826D01*
X-595514Y189059D01*
X-595514Y189059D01*
X-614467D01*
X-614682Y189860D01*
X-615998Y192140D01*
X-617860Y194002D01*
X-620140Y195319D01*
X-622683Y196000D01*
X-625317D01*
X-627860Y195319D01*
X-630140Y194002D01*
X-632002Y192140D01*
X-633318Y189860D01*
X-634000Y187316D01*
Y184683D01*
X-633318Y182140D01*
X-632002Y179860D01*
X-630140Y177998D01*
X-627860Y176681D01*
X-627770Y176657D01*
Y175343D01*
X-627860Y175319D01*
X-630140Y174002D01*
X-632002Y172140D01*
X-633318Y169860D01*
X-634000Y167316D01*
Y164683D01*
X-633318Y162140D01*
X-632002Y159860D01*
X-630140Y157998D01*
X-627860Y156681D01*
X-627770Y156657D01*
Y155343D01*
X-627860Y155318D01*
X-630140Y154002D01*
X-632002Y152140D01*
X-633318Y149860D01*
X-634000Y147317D01*
Y144684D01*
X-633318Y142140D01*
X-632002Y139860D01*
X-630140Y137998D01*
X-628439Y137016D01*
X-628371Y136797D01*
X-628486Y135581D01*
X-630472Y134434D01*
X-632434Y132472D01*
X-633822Y130068D01*
X-634540Y127388D01*
Y127270D01*
X-624000D01*
X-613460D01*
Y127388D01*
X-614178Y130068D01*
X-615566Y132472D01*
X-617528Y134434D01*
X-619514Y135581D01*
X-619629Y136797D01*
X-619561Y137016D01*
X-617860Y137998D01*
X-615998Y139860D01*
X-614682Y142140D01*
X-614467Y142941D01*
X-590214D01*
X-590214Y142941D01*
X-589669Y143050D01*
X-589173Y141853D01*
X-589350Y141735D01*
X-590510Y139999D01*
X-590665Y139220D01*
X-581275D01*
Y143303D01*
X-584685D01*
X-585427Y143303D01*
X-585605Y144500D01*
X-583951Y145185D01*
X-583289Y145847D01*
X-574446D01*
X-572608Y146213D01*
X-571050Y147254D01*
X-570009Y148812D01*
X-569643Y150650D01*
X-570009Y152488D01*
X-571050Y154046D01*
X-572608Y155087D01*
X-574446Y155453D01*
X-585564D01*
X-587402Y155087D01*
X-588960Y154046D01*
X-590001Y152488D01*
X-590157Y151707D01*
X-590315Y151549D01*
X-591000Y149895D01*
Y149540D01*
X-591481Y149059D01*
X-614467D01*
X-614682Y149860D01*
X-615998Y152140D01*
X-617860Y154002D01*
X-620140Y155318D01*
X-620230Y155343D01*
Y156657D01*
X-620140Y156681D01*
X-617860Y157998D01*
X-615998Y159860D01*
X-615371Y160946D01*
X-589623D01*
X-588960Y159954D01*
X-587402Y158913D01*
X-585564Y158547D01*
X-574446D01*
X-572608Y158913D01*
X-571050Y159954D01*
X-570009Y161512D01*
X-569643Y163350D01*
X-570009Y165188D01*
X-571050Y166746D01*
X-572608Y167787D01*
X-574446Y168153D01*
X-583289D01*
X-583951Y168815D01*
X-585605Y169500D01*
X-587395D01*
X-589049Y168815D01*
X-590315Y167549D01*
X-590516Y167063D01*
X-614000D01*
Y167316D01*
X-614682Y169860D01*
X-615998Y172140D01*
X-617860Y174002D01*
X-620140Y175319D01*
X-620230Y175343D01*
Y176657D01*
X-620140Y176681D01*
X-617860Y177998D01*
X-615998Y179860D01*
X-614682Y182140D01*
X-614467Y182941D01*
X-596781D01*
X-590275Y176435D01*
Y171339D01*
X-569736D01*
Y180761D01*
X-576946D01*
Y183500D01*
X-575000D01*
Y195460D01*
X-574460D01*
Y200980D01*
D02*
G37*
G36*
X-578735Y143303D02*
Y139220D01*
X-569345D01*
X-569500Y139999D01*
X-570661Y141735D01*
X-572397Y142896D01*
X-574446Y143303D01*
X-578735D01*
D02*
G37*
G36*
X-569345Y136680D02*
X-578735D01*
Y132597D01*
X-574446D01*
X-572397Y133004D01*
X-570661Y134164D01*
X-569500Y135901D01*
X-569345Y136680D01*
D02*
G37*
G36*
X-581275D02*
X-590665D01*
X-590510Y135901D01*
X-589350Y134164D01*
X-587613Y133004D01*
X-585564Y132597D01*
X-581275D01*
Y136680D01*
D02*
G37*
G36*
X-613460Y124730D02*
X-622730D01*
Y115460D01*
X-622612D01*
X-619932Y116178D01*
X-617528Y117566D01*
X-615566Y119528D01*
X-614178Y121932D01*
X-613460Y124612D01*
Y124730D01*
D02*
G37*
G36*
X-625270D02*
X-634540D01*
Y124612D01*
X-633822Y121932D01*
X-632434Y119528D01*
X-630472Y117566D01*
X-628068Y116178D01*
X-625388Y115460D01*
X-625270D01*
Y124730D01*
D02*
G37*
G36*
X27895Y128900D02*
X26105D01*
X24451Y128215D01*
X23185Y126949D01*
X22500Y125295D01*
Y123505D01*
X23185Y121851D01*
X24451Y120585D01*
X26105Y119900D01*
X27895D01*
X29549Y120585D01*
X30815Y121851D01*
X31500Y123505D01*
Y125295D01*
X30815Y126949D01*
X29549Y128215D01*
X27895Y128900D01*
D02*
G37*
G36*
X170290Y53040D02*
X161270D01*
Y43770D01*
X170290D01*
Y53040D01*
D02*
G37*
G36*
X178730Y38480D02*
X173460D01*
Y32960D01*
X178730D01*
Y38480D01*
D02*
G37*
G36*
X170290Y41230D02*
X161270D01*
Y31960D01*
X170290D01*
Y41230D01*
D02*
G37*
G36*
X262290Y43730D02*
X243770D01*
Y33210D01*
X262290D01*
Y43730D01*
D02*
G37*
G36*
X241230D02*
X222710D01*
Y33210D01*
X241230D01*
Y43730D01*
D02*
G37*
G36*
X249730Y10540D02*
X249612D01*
X246932Y9822D01*
X244528Y8434D01*
X242566Y6472D01*
X241733Y5030D01*
X240267D01*
X239434Y6472D01*
X237472Y8434D01*
X235068Y9822D01*
X232388Y10540D01*
X232270D01*
Y0D01*
Y-10540D01*
X232388D01*
X235068Y-9822D01*
X237472Y-8434D01*
X239434Y-6472D01*
X240267Y-5030D01*
X241733D01*
X242566Y-6472D01*
X244528Y-8434D01*
X246932Y-9822D01*
X249612Y-10540D01*
X249730D01*
Y0D01*
Y10540D01*
D02*
G37*
G36*
X252388D02*
X252270D01*
Y1270D01*
X261540D01*
Y1388D01*
X260822Y4068D01*
X259434Y6472D01*
X257472Y8434D01*
X255068Y9822D01*
X252388Y10540D01*
D02*
G37*
G36*
X261540Y-1270D02*
X252270D01*
Y-10540D01*
X252388D01*
X255068Y-9822D01*
X257472Y-8434D01*
X259434Y-6472D01*
X260822Y-4068D01*
X261540Y-1388D01*
Y-1270D01*
D02*
G37*
G36*
X220670Y-23340D02*
Y-32730D01*
X224753D01*
Y-28441D01*
X224346Y-26392D01*
X223186Y-24655D01*
X221449Y-23495D01*
X220670Y-23340D01*
D02*
G37*
G36*
X218130Y-23340D02*
X217351Y-23495D01*
X215614Y-24655D01*
X214454Y-26392D01*
X214046Y-28441D01*
Y-32730D01*
X218130D01*
Y-23340D01*
D02*
G37*
G36*
X224753Y-35270D02*
X220670D01*
Y-44660D01*
X221449Y-44505D01*
X223186Y-43344D01*
X224346Y-41608D01*
X224753Y-39559D01*
Y-35270D01*
D02*
G37*
G36*
X218130D02*
X214046D01*
Y-39559D01*
X214454Y-41608D01*
X215614Y-43344D01*
X217351Y-44505D01*
X218130Y-44660D01*
Y-35270D01*
D02*
G37*
G36*
X-78766Y113077D02*
X-80556D01*
X-82210Y112392D01*
X-83476Y111126D01*
X-84161Y109473D01*
Y107682D01*
X-83476Y106028D01*
X-82210Y104762D01*
X-80556Y104077D01*
X-78766D01*
X-77112Y104762D01*
X-75846Y106028D01*
X-75161Y107682D01*
Y109473D01*
X-75846Y111126D01*
X-77112Y112392D01*
X-78766Y113077D01*
D02*
G37*
G36*
X-92105Y83500D02*
X-93895D01*
X-95549Y82815D01*
X-96815Y81549D01*
X-97500Y79895D01*
Y78105D01*
X-96815Y76451D01*
X-95549Y75185D01*
X-93895Y74500D01*
X-92105D01*
X-90451Y75185D01*
X-89185Y76451D01*
X-88500Y78105D01*
Y79895D01*
X-89185Y81549D01*
X-90451Y82815D01*
X-92105Y83500D01*
D02*
G37*
G36*
X-521013Y6500D02*
X-522987D01*
X-524895Y5989D01*
X-526605Y5002D01*
X-528002Y3605D01*
X-528989Y1895D01*
X-529500Y-13D01*
Y-1987D01*
X-528989Y-3895D01*
X-528002Y-5605D01*
X-526605Y-7002D01*
X-524895Y-7989D01*
X-522987Y-8500D01*
X-521013D01*
X-519105Y-7989D01*
X-517395Y-7002D01*
X-515998Y-5605D01*
X-515011Y-3895D01*
X-514500Y-1987D01*
Y-13D01*
X-515011Y1895D01*
X-515998Y3605D01*
X-517395Y5002D01*
X-519105Y5989D01*
X-521013Y6500D01*
D02*
G37*
G36*
X-598270Y-7460D02*
X-598388D01*
X-601068Y-8178D01*
X-603472Y-9566D01*
X-605434Y-11528D01*
X-606822Y-13932D01*
X-607540Y-16612D01*
Y-16730D01*
X-598270D01*
Y-7460D01*
D02*
G37*
G36*
Y-19270D02*
X-607540D01*
Y-19388D01*
X-606822Y-22068D01*
X-605434Y-24472D01*
X-603472Y-26434D01*
X-601068Y-27822D01*
X-598388Y-28540D01*
X-598270D01*
Y-19270D01*
D02*
G37*
G36*
X-457000Y-38500D02*
X-483000D01*
Y-60500D01*
X-457000D01*
Y-38500D01*
D02*
G37*
G36*
X-595612Y-7460D02*
X-595730D01*
Y-18000D01*
Y-28540D01*
X-595612D01*
X-592932Y-27822D01*
X-590528Y-26434D01*
X-588566Y-24472D01*
X-587420Y-22486D01*
X-586203Y-22371D01*
X-585984Y-22439D01*
X-585002Y-24140D01*
X-583140Y-26002D01*
X-580860Y-27318D01*
X-578316Y-28000D01*
X-575684D01*
X-573140Y-27318D01*
X-570860Y-26002D01*
X-568998Y-24140D01*
X-567682Y-21860D01*
X-567657Y-21770D01*
X-566343D01*
X-566319Y-21860D01*
X-565002Y-24140D01*
X-563140Y-26002D01*
X-560860Y-27318D01*
X-560059Y-27533D01*
Y-39757D01*
X-560059Y-39757D01*
X-559826Y-40928D01*
X-559163Y-41920D01*
X-545256Y-55827D01*
X-545742Y-57000D01*
X-558000D01*
Y-71000D01*
X-552059D01*
X-551826Y-72171D01*
X-551163Y-73163D01*
X-523663Y-100663D01*
X-522671Y-101326D01*
X-521500Y-101559D01*
X-521500Y-101559D01*
X-511540D01*
Y-102230D01*
X-502500D01*
X-493460D01*
Y-99460D01*
X-494000D01*
Y-97540D01*
X-493460D01*
Y-94770D01*
X-502500D01*
Y-92230D01*
X-493460D01*
Y-89460D01*
X-494000D01*
Y-87540D01*
X-493460D01*
Y-84770D01*
X-502500D01*
Y-82230D01*
X-493460D01*
Y-79460D01*
X-494000D01*
Y-77540D01*
X-493460D01*
Y-74770D01*
X-502500D01*
X-511540D01*
Y-75191D01*
X-515445D01*
X-516451Y-74185D01*
X-518105Y-73500D01*
X-519895D01*
X-521549Y-74185D01*
X-522815Y-75451D01*
X-523500Y-77105D01*
Y-77378D01*
X-524770Y-77904D01*
X-533889Y-68785D01*
Y-59810D01*
X-534122Y-58639D01*
X-534785Y-57647D01*
X-553941Y-38490D01*
Y-27533D01*
X-553140Y-27318D01*
X-550860Y-26002D01*
X-548998Y-24140D01*
X-547682Y-21860D01*
X-547657Y-21770D01*
X-546343D01*
X-546319Y-21860D01*
X-545002Y-24140D01*
X-543140Y-26002D01*
X-540860Y-27318D01*
X-538316Y-28000D01*
X-535684D01*
X-533140Y-27318D01*
X-530860Y-26002D01*
X-528998Y-24140D01*
X-527682Y-21860D01*
X-527500Y-21184D01*
X-509552D01*
X-508873Y-22454D01*
X-508884Y-22470D01*
X-509039Y-23250D01*
Y-37000D01*
X-509000Y-37197D01*
Y-39000D01*
X-507197D01*
X-507000Y-39039D01*
X-505559D01*
Y-65000D01*
X-511000D01*
Y-69460D01*
X-511540D01*
Y-72230D01*
X-502500D01*
X-493460D01*
Y-69460D01*
X-494000D01*
Y-65000D01*
X-499441D01*
Y-39039D01*
X-497000D01*
X-496803Y-39000D01*
X-495000D01*
Y-37197D01*
X-494961Y-37000D01*
Y-23250D01*
X-494961Y-23250D01*
X-495116Y-22470D01*
X-495525Y-21750D01*
X-495116Y-21031D01*
X-494961Y-20250D01*
Y-11000D01*
X-495000Y-10803D01*
Y-9000D01*
X-496803D01*
X-497000Y-8961D01*
X-507000D01*
X-507197Y-9000D01*
X-509000D01*
Y-10803D01*
X-509039Y-11000D01*
X-509039Y-14168D01*
X-509937Y-15066D01*
X-527433D01*
X-527682Y-14140D01*
X-528998Y-11860D01*
X-530860Y-9998D01*
X-533140Y-8681D01*
X-535684Y-8000D01*
X-538316D01*
X-540860Y-8681D01*
X-543140Y-9998D01*
X-545002Y-11860D01*
X-546319Y-14140D01*
X-546343Y-14230D01*
X-547657D01*
X-547682Y-14140D01*
X-548998Y-11860D01*
X-550860Y-9998D01*
X-553140Y-8681D01*
X-555684Y-8000D01*
X-558316D01*
X-560860Y-8681D01*
X-563140Y-9998D01*
X-565002Y-11860D01*
X-566319Y-14140D01*
X-566343Y-14230D01*
X-567657D01*
X-567682Y-14140D01*
X-568998Y-11860D01*
X-570860Y-9998D01*
X-573140Y-8681D01*
X-575684Y-8000D01*
X-578316D01*
X-580860Y-8681D01*
X-583140Y-9998D01*
X-585002Y-11860D01*
X-585984Y-13561D01*
X-586203Y-13629D01*
X-587420Y-13514D01*
X-588566Y-11528D01*
X-590528Y-9566D01*
X-592932Y-8178D01*
X-595612Y-7460D01*
D02*
G37*
G36*
X-585000Y-57000D02*
X-603000D01*
Y-71000D01*
X-597059D01*
Y-80000D01*
X-597059Y-80000D01*
X-596826Y-81171D01*
X-596163Y-82163D01*
X-567663Y-110663D01*
X-566670Y-111326D01*
X-565500Y-111559D01*
X-511540D01*
Y-112230D01*
X-502500D01*
X-493460D01*
Y-109460D01*
X-494000D01*
Y-107540D01*
X-493460D01*
Y-104770D01*
X-502500D01*
X-511540D01*
Y-105441D01*
X-564233D01*
X-590941Y-78733D01*
Y-71000D01*
X-585000D01*
Y-57000D01*
D02*
G37*
G36*
X-493460Y-114770D02*
X-501230D01*
Y-117540D01*
X-493460D01*
Y-114770D01*
D02*
G37*
G36*
X-503770D02*
X-511540D01*
Y-117540D01*
X-503770D01*
Y-114770D01*
D02*
G37*
G36*
X-584460Y-126460D02*
X-592730D01*
Y-132730D01*
X-584460D01*
Y-126460D01*
D02*
G37*
G36*
X-595270D02*
X-603540D01*
Y-132730D01*
X-595270D01*
Y-126460D01*
D02*
G37*
G36*
X-539460D02*
X-547730D01*
Y-132730D01*
X-539460D01*
Y-126460D01*
D02*
G37*
G36*
X-550270D02*
X-558540D01*
Y-132730D01*
X-550270D01*
Y-126460D01*
D02*
G37*
G36*
X-539460Y-135270D02*
X-547730D01*
Y-141540D01*
X-539460D01*
Y-135270D01*
D02*
G37*
G36*
X-550270D02*
X-558540D01*
Y-141540D01*
X-550270D01*
Y-135270D01*
D02*
G37*
G36*
X-584460Y-135270D02*
X-592730D01*
Y-141540D01*
X-584460D01*
Y-135270D01*
D02*
G37*
G36*
X-595270D02*
X-603540D01*
Y-141540D01*
X-595270D01*
Y-135270D01*
D02*
G37*
G36*
X-457000Y-121500D02*
X-483000D01*
Y-143500D01*
X-457000D01*
Y-121500D01*
D02*
G37*
G36*
X325000Y635591D02*
X322259Y635230D01*
X319705Y634172D01*
X317511Y632489D01*
X315828Y630295D01*
X314770Y627741D01*
X314409Y625000D01*
X314770Y622259D01*
X315828Y619705D01*
X317511Y617511D01*
X319705Y615828D01*
X322259Y614770D01*
X325000Y614409D01*
X327741Y614770D01*
X330295Y615828D01*
X332489Y617511D01*
X334172Y619705D01*
X335230Y622259D01*
X335591Y625000D01*
X335230Y627741D01*
X334172Y630295D01*
X332489Y632489D01*
X330295Y634172D01*
X327741Y635230D01*
X325000Y635591D01*
D02*
G37*
G36*
X-625000D02*
X-627741Y635230D01*
X-630295Y634172D01*
X-632489Y632489D01*
X-634172Y630295D01*
X-635230Y627741D01*
X-635591Y625000D01*
X-635230Y622259D01*
X-634172Y619705D01*
X-632489Y617511D01*
X-630295Y615828D01*
X-627741Y614770D01*
X-625000Y614409D01*
X-622259Y614770D01*
X-619705Y615828D01*
X-617511Y617511D01*
X-615828Y619705D01*
X-614770Y622259D01*
X-614409Y625000D01*
X-614770Y627741D01*
X-615828Y630295D01*
X-617511Y632489D01*
X-619705Y634172D01*
X-622259Y635230D01*
X-625000Y635591D01*
D02*
G37*
G36*
X179167Y518000D02*
X174833D01*
X170583Y517155D01*
X166579Y515496D01*
X162976Y513088D01*
X159911Y510024D01*
X157504Y506421D01*
X155845Y502417D01*
X155000Y498167D01*
Y493833D01*
X155845Y489583D01*
X157504Y485579D01*
X159911Y481976D01*
X162976Y478912D01*
X166579Y476504D01*
X170583Y474846D01*
X174833Y474000D01*
X179167D01*
X183417Y474846D01*
X187421Y476504D01*
X191024Y478912D01*
X194088Y481976D01*
X196496Y485579D01*
X198155Y489583D01*
X199000Y493833D01*
Y498167D01*
X198155Y502417D01*
X196496Y506421D01*
X194088Y510024D01*
X191024Y513088D01*
X187421Y515496D01*
X183417Y517155D01*
X179167Y518000D01*
D02*
G37*
G36*
X325000Y-314409D02*
X322259Y-314770D01*
X319705Y-315828D01*
X317511Y-317511D01*
X315828Y-319705D01*
X314770Y-322259D01*
X314409Y-325000D01*
X314770Y-327741D01*
X315828Y-330295D01*
X317511Y-332489D01*
X319705Y-334172D01*
X322259Y-335230D01*
X325000Y-335591D01*
X327741Y-335230D01*
X330295Y-334172D01*
X332489Y-332489D01*
X334172Y-330295D01*
X335230Y-327741D01*
X335591Y-325000D01*
X335230Y-322259D01*
X334172Y-319705D01*
X332489Y-317511D01*
X330295Y-315828D01*
X327741Y-314770D01*
X325000Y-314409D01*
D02*
G37*
G36*
X77798Y-315504D02*
X-39500D01*
Y-337000D01*
X77798D01*
Y-315504D01*
D02*
G37*
%LPD*%
G36*
X327447Y634132D02*
X329727Y633187D01*
X331685Y631685D01*
X333187Y629727D01*
X334132Y627447D01*
X334454Y625000D01*
X334132Y622553D01*
X333187Y620273D01*
X331685Y618315D01*
X329727Y616813D01*
X327447Y615868D01*
X325000Y615546D01*
X322553Y615868D01*
X320273Y616813D01*
X318315Y618315D01*
X316813Y620273D01*
X315868Y622553D01*
X315546Y625000D01*
X315868Y627447D01*
X316813Y629727D01*
X318315Y631685D01*
X320273Y633187D01*
X322553Y634132D01*
X325000Y634454D01*
X327447Y634132D01*
D02*
G37*
%LPC*%
G36*
X325932Y632080D02*
X324068D01*
X322267Y631598D01*
X320653Y630665D01*
X319335Y629347D01*
X318403Y627733D01*
X317920Y625932D01*
Y624068D01*
X318403Y622267D01*
X319335Y620653D01*
X320653Y619335D01*
X322267Y618402D01*
X324068Y617920D01*
X325932D01*
X327733Y618402D01*
X329347Y619335D01*
X330665Y620653D01*
X331598Y622267D01*
X332080Y624068D01*
Y625932D01*
X331598Y627733D01*
X330665Y629347D01*
X329347Y630665D01*
X327733Y631598D01*
X325932Y632080D01*
D02*
G37*
%LPD*%
G36*
X-622553Y634132D02*
X-620273Y633187D01*
X-618315Y631685D01*
X-616813Y629727D01*
X-615868Y627447D01*
X-615546Y625000D01*
X-615868Y622553D01*
X-616813Y620273D01*
X-618315Y618315D01*
X-620273Y616813D01*
X-622553Y615868D01*
X-625000Y615546D01*
X-627447Y615868D01*
X-629727Y616813D01*
X-631685Y618315D01*
X-633187Y620273D01*
X-634132Y622553D01*
X-634454Y625000D01*
X-634132Y627447D01*
X-633187Y629727D01*
X-631685Y631685D01*
X-629727Y633187D01*
X-627447Y634132D01*
X-625000Y634454D01*
X-622553Y634132D01*
D02*
G37*
%LPC*%
G36*
X-624068Y632080D02*
X-625932D01*
X-627733Y631598D01*
X-629347Y630665D01*
X-630665Y629347D01*
X-631598Y627733D01*
X-632080Y625932D01*
Y624068D01*
X-631598Y622267D01*
X-630665Y620653D01*
X-629347Y619335D01*
X-627733Y618402D01*
X-625932Y617920D01*
X-624068D01*
X-622267Y618402D01*
X-620653Y619335D01*
X-619335Y620653D01*
X-618402Y622267D01*
X-617920Y624068D01*
Y625932D01*
X-618402Y627733D01*
X-619335Y629347D01*
X-620653Y630665D01*
X-622267Y631598D01*
X-624068Y632080D01*
D02*
G37*
%LPD*%
G36*
X327447Y-315868D02*
X329727Y-316813D01*
X331685Y-318315D01*
X333187Y-320273D01*
X334132Y-322553D01*
X334454Y-325000D01*
X334132Y-327447D01*
X333187Y-329727D01*
X331685Y-331685D01*
X329727Y-333187D01*
X327447Y-334132D01*
X325000Y-334454D01*
X322553Y-334132D01*
X320273Y-333187D01*
X318315Y-331685D01*
X316813Y-329727D01*
X315868Y-327447D01*
X315546Y-325000D01*
X315868Y-322553D01*
X316813Y-320273D01*
X318315Y-318315D01*
X320273Y-316813D01*
X322553Y-315868D01*
X325000Y-315546D01*
X327447Y-315868D01*
D02*
G37*
%LPC*%
G36*
X325932Y-317920D02*
X324068D01*
X322267Y-318403D01*
X320653Y-319335D01*
X319335Y-320653D01*
X318403Y-322267D01*
X317920Y-324068D01*
Y-325932D01*
X318403Y-327733D01*
X319335Y-329347D01*
X320653Y-330665D01*
X322267Y-331598D01*
X324068Y-332080D01*
X325932D01*
X327733Y-331598D01*
X329347Y-330665D01*
X330665Y-329347D01*
X331598Y-327733D01*
X332080Y-325932D01*
Y-324068D01*
X331598Y-322267D01*
X330665Y-320653D01*
X329347Y-319335D01*
X327733Y-318403D01*
X325932Y-317920D01*
D02*
G37*
G36*
X-180770Y-103270D02*
X-188540D01*
Y-106040D01*
X-180770D01*
Y-103270D01*
D02*
G37*
G36*
X-72000Y-39000D02*
X-84000D01*
Y-52000D01*
X-81059D01*
Y-111500D01*
X-84000D01*
X-84000Y-111500D01*
X-85460Y-110960D01*
Y-110960D01*
X-85776Y-110960D01*
X-90730D01*
Y-118000D01*
X-92000D01*
Y-119270D01*
X-98540D01*
Y-125040D01*
X-98040D01*
Y-129230D01*
X-91250D01*
Y-130500D01*
X-89980D01*
Y-137040D01*
X-84460D01*
Y-136500D01*
X-76826D01*
X-72990Y-140336D01*
Y-141405D01*
X-72305Y-143059D01*
X-71039Y-144325D01*
X-69385Y-145010D01*
X-67595D01*
X-65941Y-144325D01*
X-64675Y-143059D01*
X-63990Y-141405D01*
Y-139615D01*
X-64675Y-137961D01*
X-65941Y-136695D01*
X-67595Y-136010D01*
X-68664D01*
X-72500Y-132174D01*
Y-124500D01*
X-72000Y-124500D01*
Y-111500D01*
X-74941D01*
Y-52000D01*
X-72000D01*
Y-39000D01*
D02*
G37*
G36*
X-93270Y-110960D02*
X-98540D01*
Y-116730D01*
X-93270D01*
Y-110960D01*
D02*
G37*
G36*
X-100736Y-101770D02*
X-116230D01*
Y-117264D01*
X-115849D01*
X-112610Y-116620D01*
X-109559Y-115356D01*
X-106814Y-113521D01*
X-104479Y-111186D01*
X-102644Y-108441D01*
X-101380Y-105390D01*
X-100736Y-102151D01*
Y-101770D01*
D02*
G37*
G36*
X-59105Y-121500D02*
X-60895D01*
X-62549Y-122185D01*
X-63815Y-123451D01*
X-64500Y-125105D01*
Y-126895D01*
X-63815Y-128549D01*
X-62549Y-129815D01*
X-60895Y-130500D01*
X-59105D01*
X-57451Y-129815D01*
X-56185Y-128549D01*
X-55500Y-126895D01*
Y-125105D01*
X-56185Y-123451D01*
X-57451Y-122185D01*
X-59105Y-121500D01*
D02*
G37*
G36*
X-199000Y-110000D02*
X-225000D01*
Y-132000D01*
X-199000D01*
Y-110000D01*
D02*
G37*
G36*
X-92520Y-131770D02*
X-98040D01*
Y-137040D01*
X-92520D01*
Y-131770D01*
D02*
G37*
G36*
X-118086Y-133460D02*
X-118730D01*
Y-146730D01*
X-105460D01*
Y-146086D01*
X-106451Y-142388D01*
X-108365Y-139072D01*
X-111072Y-136365D01*
X-114388Y-134451D01*
X-118086Y-133460D01*
D02*
G37*
G36*
X-121270D02*
X-121914D01*
X-125612Y-134451D01*
X-128928Y-136365D01*
X-131635Y-139072D01*
X-133549Y-142388D01*
X-134540Y-146086D01*
Y-146730D01*
X-121270D01*
Y-133460D01*
D02*
G37*
G36*
X-96270Y-141960D02*
X-102040D01*
Y-147230D01*
X-96270D01*
Y-141960D01*
D02*
G37*
G36*
X-75960Y-142460D02*
X-81230D01*
Y-147980D01*
X-75960D01*
Y-142460D01*
D02*
G37*
G36*
X-51605Y-146000D02*
X-53395D01*
X-55049Y-146685D01*
X-56315Y-147951D01*
X-57000Y-149605D01*
Y-151395D01*
X-56315Y-153049D01*
X-55049Y-154315D01*
X-53395Y-155000D01*
X-51605D01*
X-49951Y-154315D01*
X-48685Y-153049D01*
X-48000Y-151395D01*
Y-149605D01*
X-48685Y-147951D01*
X-49951Y-146685D01*
X-51605Y-146000D01*
D02*
G37*
G36*
X-198657Y-145670D02*
X-206096Y-153108D01*
X-193000Y-166204D01*
X-185561Y-158765D01*
X-198657Y-145670D01*
D02*
G37*
G36*
X-16230Y-83500D02*
X-18020D01*
X-19674Y-84185D01*
X-20940Y-85451D01*
X-21625Y-87105D01*
Y-88895D01*
X-20940Y-90549D01*
X-19674Y-91815D01*
X-18020Y-92500D01*
X-16230D01*
X-14576Y-91815D01*
X-13310Y-90549D01*
X-12625Y-88895D01*
Y-87105D01*
X-13310Y-85451D01*
X-14576Y-84185D01*
X-16230Y-83500D01*
D02*
G37*
G36*
X-16355Y-119874D02*
X-18145D01*
X-19799Y-120559D01*
X-21065Y-121825D01*
X-21750Y-123479D01*
Y-125269D01*
X-21065Y-126923D01*
X-19799Y-128189D01*
X-18145Y-128874D01*
X-16355D01*
X-14701Y-128189D01*
X-13435Y-126923D01*
X-12750Y-125269D01*
Y-123479D01*
X-13435Y-121825D01*
X-14701Y-120559D01*
X-16355Y-119874D01*
D02*
G37*
G36*
X-29694Y-147198D02*
X-31484D01*
X-33138Y-147883D01*
X-34404Y-149149D01*
X-35089Y-150803D01*
Y-152593D01*
X-34404Y-154247D01*
X-33138Y-155513D01*
X-31484Y-156198D01*
X-29694D01*
X-28040Y-155513D01*
X-26774Y-154247D01*
X-26089Y-152593D01*
Y-150803D01*
X-26774Y-149149D01*
X-28040Y-147883D01*
X-29694Y-147198D01*
D02*
G37*
G36*
X144480Y-123460D02*
X138960D01*
Y-128730D01*
X144480D01*
Y-123460D01*
D02*
G37*
G36*
Y-131270D02*
X138960D01*
Y-136540D01*
X144480D01*
Y-131270D01*
D02*
G37*
G36*
X220670Y-127351D02*
Y-136741D01*
X224753D01*
Y-132451D01*
X224346Y-130403D01*
X223186Y-128666D01*
X221449Y-127506D01*
X220670Y-127351D01*
D02*
G37*
G36*
X218130D02*
X217351Y-127506D01*
X215614Y-128666D01*
X214454Y-130403D01*
X214046Y-132451D01*
Y-136741D01*
X218130D01*
Y-127351D01*
D02*
G37*
G36*
X224753Y-139281D02*
X220670D01*
Y-148670D01*
X221449Y-148516D01*
X223186Y-147355D01*
X224346Y-145618D01*
X224753Y-143569D01*
Y-139281D01*
D02*
G37*
G36*
X218130D02*
X214046D01*
Y-143569D01*
X214454Y-145618D01*
X215614Y-147355D01*
X217351Y-148516D01*
X218130Y-148670D01*
Y-139281D01*
D02*
G37*
G36*
X168230Y-158460D02*
X161460D01*
Y-166730D01*
X168230D01*
Y-158460D01*
D02*
G37*
G36*
X148586Y-153989D02*
X147020D01*
Y-171230D01*
X155621D01*
Y-161024D01*
X155381Y-159204D01*
X154678Y-157507D01*
X153560Y-156050D01*
X152103Y-154932D01*
X150407Y-154229D01*
X148586Y-153989D01*
D02*
G37*
G36*
X144480D02*
X142914D01*
X141094Y-154229D01*
X139397Y-154932D01*
X137940Y-156050D01*
X136822Y-157507D01*
X136119Y-159204D01*
X135879Y-161024D01*
Y-171230D01*
X144480D01*
Y-153989D01*
D02*
G37*
G36*
Y-173770D02*
X135879D01*
Y-183976D01*
X136119Y-185796D01*
X136822Y-187493D01*
X137940Y-188950D01*
X139397Y-190068D01*
X141094Y-190771D01*
X142914Y-191011D01*
X144480D01*
Y-173770D01*
D02*
G37*
G36*
X38980Y-150434D02*
X33710D01*
Y-156204D01*
X38980D01*
Y-150434D01*
D02*
G37*
G36*
X31514Y-141244D02*
X16020D01*
Y-156738D01*
X16401D01*
X19640Y-156094D01*
X22691Y-154830D01*
X25436Y-152995D01*
X27771Y-150660D01*
X29606Y-147915D01*
X30870Y-144864D01*
X31514Y-141625D01*
Y-141244D01*
D02*
G37*
G36*
X103895Y-150500D02*
X102105D01*
X100451Y-151185D01*
X99185Y-152451D01*
X98500Y-154105D01*
Y-155895D01*
X99185Y-157549D01*
X100451Y-158815D01*
X102105Y-159500D01*
X103895D01*
X105549Y-158815D01*
X106815Y-157549D01*
X107500Y-155895D01*
Y-154105D01*
X106815Y-152451D01*
X105549Y-151185D01*
X103895Y-150500D01*
D02*
G37*
G36*
X104895Y-179500D02*
X103105D01*
X101451Y-180185D01*
X100185Y-181451D01*
X99500Y-183105D01*
Y-184895D01*
X100185Y-186549D01*
X101451Y-187815D01*
X103105Y-188500D01*
X104895D01*
X106549Y-187815D01*
X107815Y-186549D01*
X108500Y-184895D01*
Y-183105D01*
X107815Y-181451D01*
X106549Y-180185D01*
X104895Y-179500D01*
D02*
G37*
G36*
X-522013Y-154500D02*
X-523987D01*
X-525895Y-155011D01*
X-527605Y-155998D01*
X-529002Y-157395D01*
X-529989Y-159105D01*
X-530500Y-161013D01*
Y-162987D01*
X-529989Y-164895D01*
X-529002Y-166605D01*
X-527605Y-168001D01*
X-525895Y-168989D01*
X-523987Y-169500D01*
X-522013D01*
X-520105Y-168989D01*
X-518395Y-168001D01*
X-516998Y-166605D01*
X-516011Y-164895D01*
X-515500Y-162987D01*
Y-161013D01*
X-516011Y-159105D01*
X-516998Y-157395D01*
X-518395Y-155998D01*
X-520105Y-155011D01*
X-522013Y-154500D01*
D02*
G37*
G36*
X-599270Y-168460D02*
X-599388D01*
X-602068Y-169178D01*
X-604472Y-170566D01*
X-606434Y-172528D01*
X-607822Y-174932D01*
X-608540Y-177612D01*
Y-177730D01*
X-599270D01*
Y-168460D01*
D02*
G37*
G36*
Y-180270D02*
X-608540D01*
Y-180388D01*
X-607822Y-183068D01*
X-606434Y-185472D01*
X-604472Y-187434D01*
X-602068Y-188822D01*
X-599388Y-189540D01*
X-599270D01*
Y-180270D01*
D02*
G37*
G36*
X-458000Y-199500D02*
X-484000D01*
Y-221500D01*
X-458000D01*
Y-199500D01*
D02*
G37*
G36*
X-596612Y-168460D02*
X-596730D01*
Y-179000D01*
Y-189540D01*
X-596612D01*
X-593932Y-188822D01*
X-591528Y-187434D01*
X-589566Y-185472D01*
X-588419Y-183486D01*
X-587203Y-183371D01*
X-586984Y-183439D01*
X-586002Y-185140D01*
X-584140Y-187002D01*
X-581860Y-188319D01*
X-579316Y-189000D01*
X-576684D01*
X-574140Y-188319D01*
X-571860Y-187002D01*
X-569998Y-185140D01*
X-568681Y-182860D01*
X-568657Y-182770D01*
X-567343D01*
X-567318Y-182860D01*
X-566002Y-185140D01*
X-564140Y-187002D01*
X-561860Y-188319D01*
X-561059Y-188533D01*
Y-200757D01*
X-561059Y-200757D01*
X-560826Y-201928D01*
X-560163Y-202920D01*
X-546256Y-216827D01*
X-546742Y-218000D01*
X-559000D01*
Y-232000D01*
X-553059D01*
X-552826Y-233171D01*
X-552163Y-234163D01*
X-524663Y-261663D01*
X-523671Y-262326D01*
X-522500Y-262559D01*
X-522500Y-262559D01*
X-512540D01*
Y-263230D01*
X-503500D01*
X-494460D01*
Y-260460D01*
X-495000D01*
Y-258540D01*
X-494460D01*
Y-255770D01*
X-503500D01*
Y-253230D01*
X-494460D01*
Y-250460D01*
X-495000D01*
Y-248540D01*
X-494460D01*
Y-245770D01*
X-503500D01*
Y-243230D01*
X-494460D01*
Y-240460D01*
X-495000D01*
Y-238540D01*
X-494460D01*
Y-235770D01*
X-503500D01*
X-512540D01*
Y-236191D01*
X-516445D01*
X-517451Y-235185D01*
X-519105Y-234500D01*
X-520895D01*
X-522549Y-235185D01*
X-523815Y-236451D01*
X-524500Y-238105D01*
Y-238378D01*
X-525770Y-238904D01*
X-534602Y-230072D01*
Y-221097D01*
X-534835Y-219926D01*
X-535498Y-218934D01*
X-535498Y-218934D01*
X-554941Y-199490D01*
Y-188533D01*
X-554140Y-188319D01*
X-551860Y-187002D01*
X-549998Y-185140D01*
X-548681Y-182860D01*
X-548657Y-182770D01*
X-547343D01*
X-547318Y-182860D01*
X-546002Y-185140D01*
X-544140Y-187002D01*
X-541860Y-188319D01*
X-539316Y-189000D01*
X-536684D01*
X-534140Y-188319D01*
X-531860Y-187002D01*
X-529998Y-185140D01*
X-528681Y-182860D01*
X-528232Y-181184D01*
X-511552D01*
X-510873Y-182454D01*
X-510884Y-182470D01*
X-511039Y-183250D01*
Y-197000D01*
X-511000Y-197197D01*
Y-199000D01*
X-509197D01*
X-509000Y-199039D01*
X-506559D01*
Y-226000D01*
X-512000D01*
Y-230460D01*
X-512540D01*
Y-233230D01*
X-503500D01*
X-494460D01*
Y-230460D01*
X-495000D01*
Y-226000D01*
X-500441D01*
Y-199039D01*
X-499000D01*
X-498803Y-199000D01*
X-497000D01*
Y-197197D01*
X-496961Y-197000D01*
Y-183250D01*
X-496961Y-183250D01*
X-497116Y-182470D01*
X-497525Y-181750D01*
X-497116Y-181031D01*
X-496961Y-180250D01*
Y-171000D01*
X-497000Y-170803D01*
Y-169000D01*
X-498803D01*
X-499000Y-168961D01*
X-509000D01*
X-509197Y-169000D01*
X-511000D01*
Y-170803D01*
X-511039Y-171000D01*
X-511039Y-174168D01*
X-511937Y-175066D01*
X-528724D01*
X-529998Y-172860D01*
X-531860Y-170998D01*
X-534140Y-169681D01*
X-536684Y-169000D01*
X-539316D01*
X-541860Y-169681D01*
X-544140Y-170998D01*
X-546002Y-172860D01*
X-547318Y-175140D01*
X-547343Y-175230D01*
X-548657D01*
X-548681Y-175140D01*
X-549998Y-172860D01*
X-551860Y-170998D01*
X-554140Y-169681D01*
X-556684Y-169000D01*
X-559316D01*
X-561860Y-169681D01*
X-564140Y-170998D01*
X-566002Y-172860D01*
X-567318Y-175140D01*
X-567343Y-175230D01*
X-568657D01*
X-568681Y-175140D01*
X-569998Y-172860D01*
X-571860Y-170998D01*
X-574140Y-169681D01*
X-576684Y-169000D01*
X-579316D01*
X-581860Y-169681D01*
X-584140Y-170998D01*
X-586002Y-172860D01*
X-586984Y-174561D01*
X-587203Y-174629D01*
X-588419Y-174514D01*
X-589566Y-172528D01*
X-591528Y-170566D01*
X-593932Y-169178D01*
X-596612Y-168460D01*
D02*
G37*
G36*
X-586000Y-218000D02*
X-604000D01*
Y-232000D01*
X-598059D01*
Y-241000D01*
X-598059Y-241000D01*
X-597826Y-242171D01*
X-597163Y-243163D01*
X-568663Y-271663D01*
X-567671Y-272326D01*
X-566500Y-272559D01*
X-512540D01*
Y-273230D01*
X-503500D01*
X-494460D01*
Y-270460D01*
X-495000D01*
Y-268540D01*
X-494460D01*
Y-265770D01*
X-503500D01*
X-512540D01*
Y-266441D01*
X-565233D01*
X-591941Y-239733D01*
Y-232000D01*
X-586000D01*
Y-218000D01*
D02*
G37*
G36*
X-494460Y-275770D02*
X-502230D01*
Y-278540D01*
X-494460D01*
Y-275770D01*
D02*
G37*
G36*
X-504770D02*
X-512540D01*
Y-278540D01*
X-504770D01*
Y-275770D01*
D02*
G37*
G36*
X-585460Y-287460D02*
X-593730D01*
Y-293730D01*
X-585460D01*
Y-287460D01*
D02*
G37*
G36*
X-596270D02*
X-604540D01*
Y-293730D01*
X-596270D01*
Y-287460D01*
D02*
G37*
G36*
X-540460D02*
X-548730D01*
Y-293730D01*
X-540460D01*
Y-287460D01*
D02*
G37*
G36*
X-551270D02*
X-559540D01*
Y-293730D01*
X-551270D01*
Y-287460D01*
D02*
G37*
G36*
X-540460Y-296270D02*
X-548730D01*
Y-302540D01*
X-540460D01*
Y-296270D01*
D02*
G37*
G36*
X-551270D02*
X-559540D01*
Y-302540D01*
X-551270D01*
Y-296270D01*
D02*
G37*
G36*
X-585460Y-296270D02*
X-593730D01*
Y-302540D01*
X-585460D01*
Y-296270D01*
D02*
G37*
G36*
X-596270D02*
X-604540D01*
Y-302540D01*
X-596270D01*
Y-296270D01*
D02*
G37*
G36*
X-458000Y-282500D02*
X-484000D01*
Y-304500D01*
X-458000D01*
Y-282500D01*
D02*
G37*
%LPD*%
D11*
X-35000Y-320004D02*
Y-332500D01*
Y-328335D01*
X-26669Y-320004D01*
X-32917Y-326252D01*
X-26669Y-332500D01*
X-22504Y-320004D02*
Y-332500D01*
X-16256D01*
X-14173Y-330417D01*
Y-322087D01*
X-16256Y-320004D01*
X-22504D01*
X-10008Y-332500D02*
Y-324169D01*
X-5843Y-320004D01*
X-1677Y-324169D01*
Y-332500D01*
Y-326252D01*
X-10008D01*
X14984Y-332500D02*
Y-320004D01*
X21232D01*
X23314Y-322087D01*
Y-326252D01*
X21232Y-328335D01*
X14984D01*
X19149D02*
X23314Y-332500D01*
X33728D02*
X29562D01*
X27480Y-330417D01*
Y-326252D01*
X29562Y-324169D01*
X33728D01*
X35810Y-326252D01*
Y-328335D01*
X27480D01*
X39976Y-324169D02*
X44141Y-332500D01*
X48306Y-324169D01*
X64968Y-320004D02*
Y-332500D01*
X71216D01*
X73298Y-330417D01*
Y-328335D01*
X71216Y-326252D01*
X64968D01*
X71216D01*
X73298Y-324169D01*
Y-322087D01*
X71216Y-320004D01*
X64968D01*
D14*
X-54500Y185500D02*
Y187000D01*
X-55000Y185000D02*
X-54500Y185500D01*
X26750Y132150D02*
Y164724D01*
X-5000Y100400D02*
X26750Y132150D01*
X53973Y243000D02*
X55938Y241035D01*
X48000Y243000D02*
X53973D01*
X-149250Y-124724D02*
Y-92650D01*
X-117500Y-60900D01*
X70000Y-202000D02*
Y-191250D01*
X-85000Y223000D02*
Y225000D01*
Y213000D02*
Y223000D01*
X194000Y-152000D02*
Y-138011D01*
Y-152000D02*
X195000Y-153000D01*
X146000Y-167000D02*
X147000Y-168000D01*
X169500D01*
X169500Y-168000D01*
X181000Y-164500D02*
X184500Y-168000D01*
X181000Y-164500D02*
Y-153000D01*
X181300D02*
Y-138011D01*
X194321Y-137690D02*
X197111D01*
X194000Y-138011D02*
X194321Y-137690D01*
X-55000Y203000D02*
Y220000D01*
X-85000Y241000D02*
Y249500D01*
X-170172Y-67000D02*
X-170172Y-67000D01*
X-179500Y-67000D02*
X-170172D01*
X-179500Y-67000D02*
X-179500Y-67000D01*
X-179500Y-87000D02*
X-170172D01*
X-170172Y-87000D01*
X-180000Y-56500D02*
X-179500Y-57000D01*
X-179500D01*
X-180000Y-56500D02*
Y-54000D01*
X-231500Y-57000D02*
X-179500D01*
X-235000Y-60500D02*
X-231500Y-57000D01*
X-235000Y-66000D02*
Y-60500D01*
X-170172Y-97000D02*
X-170172Y-97000D01*
X-179500Y-97000D02*
X-179500Y-97000D01*
X-170172D01*
X-565000Y297000D02*
X-553000D01*
X-550000Y300000D01*
X-513000D02*
X-489500D01*
X-622005Y164005D02*
X-580660D01*
X-624000Y146000D02*
X-590214D01*
X-585564Y150650D01*
X-580005D01*
X-624000Y166000D02*
X-622005Y164005D01*
X-580660D02*
X-580005Y163350D01*
X70000Y-191500D02*
X72500Y-194000D01*
X125510Y-165498D02*
X130500Y-170488D01*
X125510Y-165498D02*
Y-132736D01*
X127762Y-130485D01*
Y-129673D01*
X124000Y-229000D02*
X142000Y-211000D01*
X150000Y-144000D02*
X153000Y-141000D01*
Y-135000D01*
X93000Y-222787D02*
Y-202187D01*
X81023Y-234764D02*
X93000Y-222787D01*
X161000Y-203250D02*
X168250D01*
X173000Y-198500D01*
X173500D01*
X153000Y-135000D02*
X158000Y-130000D01*
X158250D02*
X158500D01*
X165000Y-136500D01*
X171539D01*
X173050Y-138011D01*
X82986Y-195750D02*
X84000D01*
X173050Y-138011D02*
X181300D01*
X84250Y-195500D02*
X98903D01*
X106653Y-203250D01*
X130500D02*
X142000D01*
X119028Y-233972D02*
X124000Y-229000D01*
X114250Y-233972D02*
X119028D01*
X111303Y-231025D02*
X114250Y-233972D01*
X103072Y-232650D02*
X104697Y-231025D01*
X95300Y-232650D02*
X103072D01*
X-60000Y-212500D02*
Y-201000D01*
Y-212500D02*
X-57500Y-215000D01*
X83136Y-194386D02*
X84250Y-195500D01*
X73136Y-194386D02*
X83136D01*
X72750Y-194000D02*
X73136Y-194386D01*
X72500Y-194000D02*
X72750D01*
X106653Y-203250D02*
X130500D01*
Y-170488D01*
X142000Y-211000D02*
Y-203250D01*
X161000D01*
X104697Y-231025D02*
X111303D01*
X79000Y188500D02*
X80000Y187500D01*
X-191000Y62000D02*
X-179500D01*
X-10000Y210400D02*
Y221000D01*
X87500Y203312D02*
X90061Y200751D01*
X87500Y203312D02*
Y232500D01*
X150500Y125000D02*
Y135328D01*
X90061Y199939D02*
Y200751D01*
X117000Y152000D02*
X133828D01*
X150500Y135328D01*
X-10000Y210400D02*
Y210400D01*
X-40000Y201400D02*
X-28000D01*
X69000Y213459D02*
Y214000D01*
Y213459D02*
X70500Y211959D01*
Y191550D02*
Y211959D01*
Y191550D02*
X73550Y188500D01*
X79000D01*
X-28000Y210400D02*
X-10000D01*
X-28000Y202400D02*
Y210400D01*
X-40000Y201250D02*
Y201400D01*
X-538000Y-179000D02*
X-537125Y-178125D01*
X-504000D01*
X-504000Y-190125D02*
X-503500Y-190625D01*
Y-229500D02*
Y-190625D01*
X-558000Y-200757D02*
Y-179000D01*
Y-200757D02*
X-537661Y-221097D01*
Y-231339D02*
Y-221097D01*
Y-231339D02*
X-519750Y-249250D01*
X-537000Y-18000D02*
X-536875Y-18125D01*
X-502000D01*
X-502500Y-30625D02*
X-502000Y-30125D01*
X-502500Y-68500D02*
Y-30625D01*
X-536948Y-70052D02*
X-519000Y-88000D01*
X-536948Y-70052D02*
Y-59810D01*
X-557000Y-39757D02*
X-536948Y-59810D01*
X-557000Y-39757D02*
Y-18000D01*
X20000Y199750D02*
X20026Y199776D01*
X20250D01*
X4000Y210400D02*
X4426Y209974D01*
X20250D01*
X-116000Y165000D02*
X-115974Y164974D01*
X-100000D01*
X-99750Y154626D02*
Y154750D01*
X50778Y152000D02*
X54278Y155500D01*
X50000Y152000D02*
X50778D01*
X54278Y155500D02*
X80000D01*
X-141000Y161000D02*
Y165000D01*
X-10500Y-199750D02*
X-10250Y-199500D01*
X-10500Y-199776D02*
Y-199750D01*
Y-209948D02*
X-10074Y-210374D01*
X5750D01*
X54250Y-157374D02*
Y-84974D01*
X14750Y-100374D02*
Y-84974D01*
X40250D01*
X53750Y-157374D02*
X54250D01*
X53750Y-169974D02*
Y-157374D01*
X40250Y-170374D02*
X40750D01*
X40250D02*
Y-157474D01*
X53750Y-169974D02*
X60724Y-163000D01*
X19750Y-210374D02*
X35477D01*
X37750Y-208100D01*
Y-202374D01*
Y-201374D02*
X49750D01*
X36750Y-188724D02*
Y-188374D01*
X12250Y-187474D02*
X37750D01*
X36750Y-188724D02*
X49750D01*
X37750Y-188374D02*
Y-187474D01*
X-3250Y-193894D02*
X5750Y-202894D01*
X-3250Y-193894D02*
Y-181054D01*
X-1000Y-178804D01*
Y-165400D01*
X5750Y-210374D02*
Y-202894D01*
X112159Y-165300D02*
X116000Y-161459D01*
X112159Y-165841D02*
Y-165300D01*
X110000Y-130000D02*
X114500D01*
X116000Y-161459D02*
Y-131500D01*
X114500Y-130000D02*
X116000Y-131500D01*
X49750Y-201374D02*
Y-200974D01*
X54750Y-195974D02*
X54993D01*
X49750Y-200974D02*
X54750Y-195974D01*
X54993D02*
X59467Y-191500D01*
Y-186533D01*
X60000Y-186000D01*
X-194000Y-77000D02*
X-194000Y-77000D01*
X-179500D01*
X-145250Y-170000D02*
X-144350Y-170900D01*
X-126500D01*
X-142750Y-160000D02*
Y-159776D01*
X-95500Y-149250D02*
X-82500D01*
X70623Y-245051D02*
X71429Y-245857D01*
X64370Y-245051D02*
X70623D01*
X60503Y-241185D02*
X64370Y-245051D01*
X37000Y-255000D02*
X46165Y-245835D01*
X49247D01*
X53897Y-241185D02*
X60503D01*
X49247Y-245835D02*
X53897Y-241185D01*
X69800Y-232650D02*
Y-224700D01*
X-92000Y-130900D02*
Y-118000D01*
X-94500Y-148900D02*
Y-148000D01*
X-120000D02*
X-94500D01*
X47000Y256000D02*
X57812D01*
X58797Y256985D01*
X77015D01*
X118500Y221985D02*
X125906Y229392D01*
X127580D01*
X130934Y232745D01*
X131745D01*
X119375Y230875D02*
X124000Y235500D01*
X104623Y230875D02*
X119375D01*
X140000Y224000D02*
X141250Y222750D01*
Y211250D02*
Y222750D01*
Y211250D02*
X142500Y210000D01*
X92750Y163750D02*
X93000Y164000D01*
X80250Y163750D02*
X92750D01*
X94750Y179750D02*
X95000Y180000D01*
X80250Y179750D02*
X94750D01*
X87575Y193939D02*
X93348D01*
X93841Y194433D02*
X94383D01*
X93348Y193939D02*
X93841Y194433D01*
X80000Y179500D02*
X80250Y179750D01*
X99500Y-215000D02*
X105550Y-208950D01*
X55938Y241035D02*
X65403D01*
X58000Y-67000D02*
X59309D01*
X81000Y-88691D01*
Y-100000D02*
Y-88691D01*
X165000Y139500D02*
X168500D01*
X179000Y129000D01*
X184875D01*
X171000Y0D02*
X181300Y-10300D01*
Y-34000D02*
Y-10300D01*
X191000Y0D02*
X193345Y-2345D01*
Y-33345D02*
Y-2345D01*
Y-33345D02*
X194000Y-34000D01*
X211000Y-3788D02*
Y0D01*
X206700Y-8088D02*
X211000Y-3788D01*
X206700Y-34000D02*
Y-8088D01*
X219400Y-11600D02*
X231000Y0D01*
X219400Y-34000D02*
Y-11600D01*
X105550Y-208950D02*
X135000D01*
X-495000Y208000D02*
X-494750D01*
X-487000Y200250D01*
X-476000D01*
X-487500Y235000D02*
Y238479D01*
X-488000Y234500D02*
X-487500Y235000D01*
X-488000Y234250D02*
Y234500D01*
X-494750Y227500D02*
X-488000Y234250D01*
X-495000Y227500D02*
X-494750D01*
X-513000Y275000D02*
Y279750D01*
X-514000Y280750D02*
X-513000Y279750D01*
Y294250D02*
Y300000D01*
X-514000Y293250D02*
X-513000Y294250D01*
X-456021Y207000D02*
X-442000D01*
X-487500Y238479D02*
X-456021Y207000D01*
X-487500Y238479D02*
Y252000D01*
X-565000Y275000D02*
X-487500D01*
X-590000Y300000D02*
X-565000Y275000D01*
X-489500Y300000D02*
X-487500Y298000D01*
X-550000Y300000D02*
X-513000D01*
X-475995Y137950D02*
X-470436D01*
X-459486Y127000D01*
X-442000D01*
Y107000D02*
Y127000D01*
X-475995Y150650D02*
X-469660D01*
X-466010Y147000D01*
X-442000D01*
X-475995Y163350D02*
X-469660D01*
X-466010Y167000D01*
X-442000D01*
X-476000Y187750D02*
X-475995Y187745D01*
Y176050D02*
Y187745D01*
Y176050D02*
X-470436D01*
X-459486Y187000D01*
X-442000D01*
Y207000D01*
X-585564Y137950D02*
X-580005D01*
X-597514Y126000D02*
X-585564Y137950D01*
X-624000Y126000D02*
X-597514D01*
X-581000Y189750D02*
X-580005Y188755D01*
Y176050D02*
Y188755D01*
X-585564Y176050D02*
X-580005D01*
X-595514Y186000D02*
X-585564Y176050D01*
X-624000Y186000D02*
X-595514D01*
X124185Y144426D02*
X129500D01*
X130500Y143426D01*
X126000Y133611D02*
X126250Y133361D01*
X118146Y125354D02*
Y134371D01*
X110022Y134978D02*
X110250Y134750D01*
X117792Y134725D02*
X118146Y134371D01*
X126250Y125250D02*
Y133361D01*
X102744Y143256D02*
X102750Y143250D01*
X124000Y144611D02*
X124185Y144426D01*
X102750Y125250D02*
Y143250D01*
X118146Y125354D02*
X118500Y125000D01*
X130500Y143426D02*
X132324D01*
X126250Y125250D02*
X126500Y125000D01*
X110250Y125250D02*
X110500Y125000D01*
X110250Y125250D02*
Y134750D01*
X197437Y163437D02*
X197500Y163375D01*
X165063Y163437D02*
X197437D01*
X165000Y163500D02*
X165063Y163437D01*
X180750Y155250D02*
X181000Y155000D01*
X165250Y155250D02*
X180750D01*
X165000Y155500D02*
X165250Y155250D01*
X160000Y42500D02*
X162750Y39750D01*
X180000D01*
Y52250D02*
X180750Y53000D01*
X207000D01*
X191000Y0D02*
Y36000D01*
X194000Y39000D01*
X210500Y500D02*
X211000Y0D01*
X210500Y500D02*
Y36000D01*
X207500Y39000D02*
X210500Y36000D01*
X207000Y39000D02*
X207500D01*
X170500Y-181500D02*
X173500Y-184500D01*
X164312Y-181500D02*
X170500D01*
X161286Y-178474D02*
X164312Y-181500D01*
X160474Y-178474D02*
X161286D01*
X-92000Y-130900D02*
X-91500D01*
X-95500Y-149250D02*
Y-148900D01*
X70000Y-172500D02*
X84250D01*
X70000Y-172500D02*
X70000Y-172500D01*
X70000Y-172500D02*
Y-163750D01*
Y-178750D02*
Y-172500D01*
X69800Y-224700D02*
X76000Y-218500D01*
X-191000Y82000D02*
X-179500D01*
X-191000Y92000D02*
X-179500D01*
X-191000Y102000D02*
X-191000Y102000D01*
X-179500D01*
X-191000Y72000D02*
X-179500D01*
X58750Y-141459D02*
Y-107250D01*
Y-141459D02*
X59750Y-142459D01*
X58750Y-107250D02*
X66000Y-100000D01*
X59750Y-143000D02*
Y-142459D01*
X-164500Y39600D02*
Y112000D01*
X100322Y245322D02*
Y245325D01*
X100200Y245200D02*
X100322Y245322D01*
X70075Y245707D02*
X74293D01*
X74800Y245200D01*
X65403Y241035D02*
X70075Y245707D01*
X87500Y245200D02*
Y246500D01*
X77015Y256985D02*
X87500Y246500D01*
X118500Y210000D02*
Y221985D01*
X-72500Y-215000D02*
Y-199500D01*
X55000Y207778D02*
X74800Y227578D01*
X55000Y185000D02*
Y207778D01*
X62500Y177000D02*
X68000Y171500D01*
X49000Y177000D02*
X62500D01*
X68000Y171500D02*
X80000D01*
X79609Y147891D02*
X80000Y147500D01*
X59391Y147891D02*
X79609D01*
X59000Y148281D02*
X59391Y147891D01*
X80000Y131250D02*
Y139500D01*
X75000Y126250D02*
X80000Y131250D01*
X75000Y126000D02*
Y126250D01*
X72000Y123000D02*
X75000Y126000D01*
X71750Y123000D02*
X72000D01*
X84250D02*
X86250Y125000D01*
X94500D01*
X102500Y201165D02*
X106567Y197098D01*
X102500Y201165D02*
Y210000D01*
X74800Y227578D02*
Y232500D01*
X104127Y231371D02*
X104623Y230875D01*
X118000Y191000D02*
Y205909D01*
Y191000D02*
X127000Y182000D01*
X137000D01*
X150500Y195500D01*
Y210000D01*
X-36950Y177500D02*
X-20000D01*
X-5000Y85000D02*
Y100400D01*
X-78000Y-117900D02*
Y-45500D01*
X-112500Y-170900D02*
X-94500D01*
X-68490Y-140510D02*
Y-140510D01*
X-78500Y-130500D02*
X-68490Y-140510D01*
X-94500Y-170900D02*
Y-162900D01*
X-49250Y-232250D02*
X-49000Y-232000D01*
X-87500Y-229250D02*
X-87250Y-229000D01*
Y-232250D02*
X-49250D01*
X-44000Y-219000D02*
Y-210550D01*
X-54000Y-200550D02*
X-44000Y-210550D01*
X-54000Y-200550D02*
Y-198515D01*
X-64243Y-193257D02*
X-59257D01*
X-54000Y-198515D01*
X-72000Y-185500D02*
X-64243Y-193257D01*
X-72500Y-185500D02*
X-72000D01*
X179000Y169000D02*
Y180000D01*
X106567Y189646D02*
Y197098D01*
X163500Y173000D02*
X165000Y171500D01*
X157458Y173000D02*
X163500D01*
X156458Y174000D02*
X157458Y173000D01*
X155646Y174000D02*
X156458D01*
X80000Y195500D02*
X81000Y194500D01*
X87015D01*
X87575Y193939D01*
X-598000Y-196000D02*
Y-179000D01*
X-609000Y-258000D02*
Y-207000D01*
X-598000Y-196000D01*
X-595000Y-295000D02*
Y-272000D01*
X-609000Y-258000D02*
X-595000Y-272000D01*
Y-295000D02*
X-550000D01*
X-522500Y-259500D02*
X-503500D01*
X-550000Y-232000D02*
Y-225000D01*
Y-232000D02*
X-522500Y-259500D01*
X-519750Y-239250D02*
X-503750D01*
X-503500Y-239500D01*
X-520000Y-239000D02*
X-519750Y-239250D01*
Y-249250D02*
X-503750D01*
X-503500Y-249500D01*
X-566500Y-269500D02*
X-503500D01*
X-595000Y-241000D02*
Y-225000D01*
Y-241000D02*
X-566500Y-269500D01*
X-490000Y-244000D02*
Y-237000D01*
X-490500Y-244500D02*
X-490000Y-244000D01*
Y-255000D02*
Y-244000D01*
X-490500Y-254500D02*
X-490000Y-255000D01*
X-492500Y-234500D02*
X-490000Y-237000D01*
X-503500Y-234500D02*
X-492500D01*
X-503500Y-254500D02*
X-490500D01*
X-503500Y-244500D02*
X-490500D01*
X-490000Y-265000D02*
Y-255000D01*
X-490500Y-264500D02*
X-490000Y-265000D01*
Y-272000D02*
Y-265000D01*
X-492000Y-274000D02*
X-490000Y-272000D01*
X-503500Y-274500D02*
X-503000Y-274000D01*
X-503500Y-264500D02*
X-490500D01*
X-503000Y-274000D02*
X-492000D01*
X-508500Y-274500D02*
X-503500D01*
X-529000Y-295000D02*
X-508500Y-274500D01*
X-550000Y-295000D02*
X-529000D01*
X-502750Y-88250D02*
X-502500Y-88500D01*
X-518750Y-88250D02*
X-502750D01*
X-519000Y-88000D02*
X-518750Y-88250D01*
X-502750Y-78250D02*
X-502500Y-78500D01*
X-518750Y-78250D02*
X-502750D01*
X-519000Y-78000D02*
X-518750Y-78250D01*
X-594000Y-134000D02*
Y-111000D01*
X-608000Y-97000D02*
X-594000Y-111000D01*
X-608000Y-97000D02*
Y-46000D01*
X-597000Y-35000D01*
Y-18000D01*
X-489500Y-83500D02*
X-489000Y-83000D01*
X-502500Y-83500D02*
X-489500D01*
X-489000Y-83000D02*
Y-76000D01*
X-489500Y-93500D02*
X-489000Y-94000D01*
X-502500Y-93500D02*
X-489500D01*
X-489000Y-94000D02*
Y-83000D01*
X-489500Y-103500D02*
X-489000Y-104000D01*
X-502500Y-103500D02*
X-489500D01*
X-489000Y-104000D02*
Y-94000D01*
X-502500Y-113500D02*
X-502000Y-113000D01*
X-491000D01*
X-489000Y-111000D01*
Y-104000D01*
X-491500Y-73500D02*
X-489000Y-76000D01*
X-502500Y-73500D02*
X-491500D01*
X-507500Y-113500D02*
X-502500D01*
X-528000Y-134000D02*
X-507500Y-113500D01*
X-549000Y-134000D02*
X-528000D01*
X-549000Y-71000D02*
X-521500Y-98500D01*
X-502500D01*
X-549000Y-71000D02*
Y-64000D01*
X-565500Y-108500D02*
X-502500D01*
X-594000Y-80000D02*
X-565500Y-108500D01*
X-594000Y-80000D02*
Y-64000D01*
Y-134000D02*
X-549000D01*
X77000Y-117050D02*
X81000Y-113050D01*
X77000Y-131072D02*
Y-117050D01*
X91812Y-106000D02*
X94812Y-109000D01*
X108000D01*
X91000Y-106000D02*
X91812D01*
X108000Y-109000D02*
X110000Y-111000D01*
X94500Y125000D02*
Y137000D01*
X80000Y163500D02*
X80250Y163750D01*
X129000Y223459D02*
Y224000D01*
X110500Y206409D02*
X111000Y205909D01*
X110500Y206409D02*
Y210000D01*
X138757Y116000D02*
X161000D01*
X136000Y118757D02*
X138757Y116000D01*
X161000D02*
X162000Y117000D01*
X70000Y-151250D02*
X70875Y-150375D01*
X83375D01*
X84250Y-149500D01*
X87110D01*
X91000Y-145610D01*
Y-120500D01*
X81000Y-113050D02*
Y-100000D01*
X-78750Y-130500D02*
X-78500D01*
X-44500Y169950D02*
X-36950Y177500D01*
X-44500Y157500D02*
Y169950D01*
X126500Y220959D02*
X129000Y223459D01*
X126500Y210000D02*
Y220959D01*
X134500Y191276D02*
Y210000D01*
Y191276D02*
X135735Y190041D01*
Y189500D02*
Y190041D01*
X-85000Y249500D02*
X-70500D01*
X-70000Y250000D01*
X-55000D02*
X-53000Y252000D01*
X-40000D01*
X-39000Y224517D02*
Y237000D01*
X101329Y231371D02*
X104127D01*
X-74000Y-246500D02*
X-72500Y-245000D01*
X-87500Y-246500D02*
X-74000D01*
X-44500Y85000D02*
Y157400D01*
X-148000Y157000D02*
Y165000D01*
X-141000D01*
X132324Y143426D02*
X142500Y133250D01*
Y125000D02*
Y133250D01*
X100200Y232500D02*
X101329Y231371D01*
X197250Y147000D02*
X197750Y146500D01*
X165500Y147000D02*
X197250D01*
X165000Y147500D02*
X165500Y147000D01*
X174250Y184250D02*
X178500Y180000D01*
X174250Y184250D02*
Y184743D01*
X172493Y186500D02*
X174250Y184743D01*
X166000Y186500D02*
X172493D01*
X165000Y187500D02*
X166000Y186500D01*
X157039Y195306D02*
X157136Y195403D01*
X164903D01*
X165000Y195500D01*
X150500Y210000D02*
X163950D01*
X176000Y197950D01*
Y196500D02*
Y197950D01*
X154000Y189000D02*
X154574Y188426D01*
Y185183D02*
Y188426D01*
Y185183D02*
X157757Y182000D01*
X159000D01*
X161500Y179500D01*
X165000D01*
X102500Y125000D02*
X102750Y125250D01*
X-40000Y238000D02*
X-39000Y237000D01*
X-141000Y165000D02*
X-130000D01*
X-160000Y143350D02*
X-147000D01*
X-148000Y142100D02*
X-122500D01*
X-147000Y143000D02*
Y143350D01*
X-148000Y142100D02*
Y143000D01*
X176000Y196500D02*
X178500Y194000D01*
X134500Y125000D02*
X136000Y123500D01*
Y118757D02*
Y123500D01*
X150000Y0D02*
Y3518D01*
X146750Y6768D02*
X150000Y3518D01*
X146750Y6768D02*
Y36250D01*
X140500Y42500D02*
X146750Y36250D01*
X178500Y194000D02*
X179000D01*
X-27000Y188400D02*
Y188750D01*
X-28000Y187500D02*
X-2500D01*
X-40000Y188750D02*
X-27000D01*
X-28000Y187500D02*
Y188400D01*
X-30500Y85000D02*
X-5000D01*
X-31000Y170400D02*
X-30500D01*
Y157500D02*
Y170400D01*
X-94500Y-161900D02*
X-82500D01*
Y-161750D01*
X-117500Y-60900D02*
Y-45500D01*
X-92000D01*
X-78500Y-130500D02*
Y-117900D01*
X-78000D01*
X-150500Y112100D02*
Y125000D01*
X-151000D02*
X-150500D01*
X-125000Y39600D02*
Y55000D01*
X-150500Y39600D02*
X-125000D01*
X-164500Y112000D02*
X-164000D01*
Y124600D01*
X-163750D01*
X-160000Y156000D02*
X-148000D01*
X-160000Y155850D02*
Y156000D01*
X-368000Y-339998D02*
X-364668D01*
X-366334D01*
Y-330002D01*
X-368000Y-331668D01*
D20*
X39750Y199776D02*
D03*
X33250D02*
D03*
X26750D02*
D03*
X20250D02*
D03*
Y164724D02*
D03*
X26750D02*
D03*
X33250D02*
D03*
X39750D02*
D03*
X-162250Y-159776D02*
D03*
X-155750D02*
D03*
X-149250D02*
D03*
X-142750D02*
D03*
Y-124724D02*
D03*
X-149250D02*
D03*
X-155750D02*
D03*
X-162250D02*
D03*
X20250Y209974D02*
D03*
X26750D02*
D03*
X33250D02*
D03*
X-30000Y-199776D02*
D03*
X-23500D02*
D03*
X-17000D02*
D03*
X-10500D02*
D03*
X-10500Y-164724D02*
D03*
X-17000D02*
D03*
X-23500D02*
D03*
X-30000D02*
D03*
Y-209948D02*
D03*
X-10500D02*
D03*
X-17000D02*
D03*
X-23500D02*
D03*
X-30000Y-245000D02*
D03*
X-23500D02*
D03*
X-17000D02*
D03*
X-10500D02*
D03*
X-100000Y200026D02*
D03*
X-93500Y200026D02*
D03*
X-87000D02*
D03*
X-80500D02*
D03*
X-87000Y164974D02*
D03*
X-93500D02*
D03*
X-100000D02*
D03*
X-80500D02*
D03*
X-142750Y-169974D02*
D03*
X-149250D02*
D03*
X-155750D02*
D03*
X-162250Y-205026D02*
D03*
X-155750D02*
D03*
X-149250D02*
D03*
X-142750D02*
D03*
X-162250Y-169974D02*
D03*
X20250Y245026D02*
D03*
X26750D02*
D03*
X33250D02*
D03*
X39750D02*
D03*
Y209974D02*
D03*
X-80250Y119574D02*
D03*
X-86750D02*
D03*
X-93250D02*
D03*
X-99750D02*
D03*
X-93250Y154626D02*
D03*
X-86750D02*
D03*
X-80250D02*
D03*
X-99750D02*
D03*
D21*
X184500Y-168000D02*
D03*
X169500D02*
D03*
D22*
X4000Y210400D02*
D03*
X40250Y-84974D02*
D03*
X54250D02*
D03*
X40250Y-157474D02*
D03*
X54250D02*
D03*
X19750Y-210374D02*
D03*
X5750D02*
D03*
X-126500Y-170900D02*
D03*
X-112500D02*
D03*
X-10000Y210400D02*
D03*
X-130000Y165000D02*
D03*
X-116000Y165000D02*
D03*
X195000Y-153000D02*
D03*
X181000D02*
D03*
X-78000Y-118000D02*
D03*
X-92000D02*
D03*
X-78000Y-45500D02*
D03*
X-92000D02*
D03*
X-44500Y85000D02*
D03*
X-30500D02*
D03*
X-44500Y157500D02*
D03*
X-30500D02*
D03*
X-164500Y39600D02*
D03*
X-150500D02*
D03*
X-164500Y112100D02*
D03*
X-150500D02*
D03*
D23*
X41000Y-169974D02*
D03*
X53500D02*
D03*
X71750Y123000D02*
D03*
X84250D02*
D03*
X145750Y-130000D02*
D03*
X158250D02*
D03*
X-78750Y-130500D02*
D03*
X-91250D02*
D03*
X-43750Y170000D02*
D03*
X-31250D02*
D03*
X-163750Y124600D02*
D03*
X-151250D02*
D03*
D24*
X37250Y-187974D02*
D03*
X37250Y-201974D02*
D03*
X173500Y-184500D02*
D03*
Y-198500D02*
D03*
X179000Y180000D02*
D03*
Y194000D02*
D03*
X-95000Y-162500D02*
D03*
Y-148500D02*
D03*
X-27500Y202000D02*
D03*
Y188000D02*
D03*
X-147500Y156600D02*
D03*
X-147500Y142600D02*
D03*
X194000Y53000D02*
D03*
Y39000D02*
D03*
X207000Y53000D02*
D03*
Y39000D02*
D03*
D25*
X49750Y-188724D02*
D03*
X49750Y-201224D02*
D03*
X161000Y-190750D02*
D03*
Y-203250D02*
D03*
X70000Y-151250D02*
D03*
Y-163750D02*
D03*
Y-178750D02*
D03*
Y-191250D02*
D03*
X-82500Y-161750D02*
D03*
Y-149250D02*
D03*
X-40000Y201250D02*
D03*
Y188750D02*
D03*
X-160000Y155850D02*
D03*
X-160000Y143350D02*
D03*
X180000Y52250D02*
D03*
Y39750D02*
D03*
X-514000Y293250D02*
D03*
Y280750D02*
D03*
X-476000Y187750D02*
D03*
Y200250D02*
D03*
X-581000Y189750D02*
D03*
Y202250D02*
D03*
D26*
X110000Y-130000D02*
D03*
X91000Y-120500D02*
D03*
X110000Y-111000D02*
D03*
D27*
X-55000Y185000D02*
D03*
Y203000D02*
D03*
X-72500Y-183500D02*
D03*
Y-201500D02*
D03*
X-40000Y236000D02*
D03*
Y254000D02*
D03*
X-87500Y-227250D02*
D03*
Y-245250D02*
D03*
X-85000Y223000D02*
D03*
Y241000D02*
D03*
D29*
X-595000Y-295000D02*
D03*
Y-225000D02*
D03*
X-549000Y-134000D02*
D03*
Y-64000D02*
D03*
X-550000Y-295000D02*
D03*
Y-225000D02*
D03*
X-594000Y-134000D02*
D03*
Y-64000D02*
D03*
D30*
X-432500Y275000D02*
D03*
D31*
X-491500Y252000D02*
D03*
Y275000D02*
D03*
Y298000D02*
D03*
D32*
X84250Y-149500D02*
D03*
D33*
X145750Y-172500D02*
D03*
D34*
X84250D02*
D03*
Y-195500D02*
D03*
D35*
X80000Y187500D02*
D03*
Y155500D02*
D03*
X165000Y187500D02*
D03*
Y179500D02*
D03*
Y171500D02*
D03*
Y163500D02*
D03*
Y139500D02*
D03*
X80000Y163500D02*
D03*
Y171500D02*
D03*
Y179500D02*
D03*
Y195500D02*
D03*
Y139500D02*
D03*
X165000Y195500D02*
D03*
Y147500D02*
D03*
Y155500D02*
D03*
X80000Y147500D02*
D03*
D36*
X134500Y125000D02*
D03*
X126500D02*
D03*
X118500D02*
D03*
X110500D02*
D03*
X102500D02*
D03*
X94500Y210000D02*
D03*
X110500D02*
D03*
X126500D02*
D03*
X134500D02*
D03*
X142500D02*
D03*
X150500Y125000D02*
D03*
X142500D02*
D03*
X94500D02*
D03*
X118500Y210000D02*
D03*
X150500D02*
D03*
X102500D02*
D03*
D37*
X-580005Y176050D02*
D03*
D38*
Y163350D02*
D03*
Y150650D02*
D03*
Y137950D02*
D03*
X-475995D02*
D03*
Y150650D02*
D03*
Y163350D02*
D03*
Y176050D02*
D03*
D39*
X-502500Y-73500D02*
D03*
X-502500Y-68500D02*
D03*
X-502500Y-93500D02*
D03*
X-502500Y-78500D02*
D03*
X-502500Y-83500D02*
D03*
X-502500Y-88500D02*
D03*
X-502500Y-103500D02*
D03*
X-502500Y-113500D02*
D03*
X-502500Y-98500D02*
D03*
X-502500Y-108500D02*
D03*
X-179500Y-97000D02*
D03*
X-179500Y-77000D02*
D03*
X-179500Y-87000D02*
D03*
X-179500Y-67000D02*
D03*
X-179500Y-62000D02*
D03*
X-179500Y-82000D02*
D03*
X-179500Y-92000D02*
D03*
X-179500Y-72000D02*
D03*
X-179500Y-102000D02*
D03*
X-179500Y-57000D02*
D03*
X-179500Y62000D02*
D03*
X-179500Y57000D02*
D03*
X-179500Y82000D02*
D03*
Y87000D02*
D03*
X-179500Y67000D02*
D03*
X-179500Y72000D02*
D03*
X-179500Y77000D02*
D03*
X-179500Y92000D02*
D03*
X-179500Y97000D02*
D03*
X-179500Y102000D02*
D03*
X-503500Y-234500D02*
D03*
X-503500Y-229500D02*
D03*
X-503500Y-254500D02*
D03*
Y-259500D02*
D03*
X-503500Y-239500D02*
D03*
X-503500Y-244500D02*
D03*
X-503500Y-249500D02*
D03*
X-503500Y-264500D02*
D03*
X-503500Y-269500D02*
D03*
X-503500Y-274500D02*
D03*
D40*
X-470000Y-132500D02*
D03*
X-470000Y-49500D02*
D03*
X-212000Y-38000D02*
D03*
X-212000Y-121000D02*
D03*
X-212000Y121000D02*
D03*
X-212000Y38000D02*
D03*
X-471000Y-293500D02*
D03*
X-471000Y-210500D02*
D03*
D41*
X-495000Y227500D02*
D03*
Y208000D02*
D03*
D42*
X-55000Y220000D02*
D03*
Y250000D02*
D03*
X-70000D02*
D03*
Y220000D02*
D03*
X-72500Y-215000D02*
D03*
Y-245000D02*
D03*
X-57500D02*
D03*
Y-215000D02*
D03*
D43*
X140500Y42500D02*
D03*
X160000D02*
D03*
D44*
X-193000Y-168000D02*
D03*
D45*
Y168000D02*
D03*
D47*
X242500Y45000D02*
D03*
D48*
X194000Y-138011D02*
D03*
X206700D02*
D03*
X219400D02*
D03*
Y-34000D02*
D03*
X206700D02*
D03*
X194000D02*
D03*
X181300D02*
D03*
D49*
Y-138011D02*
D03*
D82*
X-504000Y-190125D02*
D03*
X-502000Y-30125D02*
D03*
D83*
X-504000Y-178125D02*
D03*
X-502000Y-18125D02*
D03*
D84*
X-504000Y-173500D02*
D03*
Y-194500D02*
D03*
X-502000Y-13500D02*
D03*
Y-34500D02*
D03*
D85*
X140000Y224000D02*
D03*
X197750Y146500D02*
D03*
X81000Y-100000D02*
D03*
X181000Y155000D02*
D03*
X197500Y163375D02*
D03*
X55000Y185000D02*
D03*
X37000Y-255000D02*
D03*
X66000Y-100000D02*
D03*
X162000Y117000D02*
D03*
X150000Y-213000D02*
D03*
D86*
X100200Y245200D02*
D03*
Y232500D02*
D03*
X87500Y245200D02*
D03*
Y232500D02*
D03*
X74800Y245200D02*
D03*
Y232500D02*
D03*
X95300Y-245350D02*
D03*
X82600Y-232650D02*
D03*
Y-245350D02*
D03*
X69900D02*
D03*
Y-232650D02*
D03*
X95300D02*
D03*
D87*
X180500Y129000D02*
D03*
X201500D02*
D03*
D88*
X196875Y129000D02*
D03*
D89*
X184875Y129000D02*
D03*
D90*
X325000Y-325000D02*
D03*
X-625000Y625000D02*
D03*
X325000D02*
D03*
D91*
X14750Y-100374D02*
D03*
X-125000Y55000D02*
D03*
X-5000Y100400D02*
D03*
X-117500Y-60900D02*
D03*
D92*
X14750Y-139974D02*
D03*
X-125000Y94600D02*
D03*
X-5000Y140000D02*
D03*
X-117500Y-100500D02*
D03*
D93*
X12250Y-242474D02*
D03*
Y-187474D02*
D03*
X-122500Y142100D02*
D03*
Y197100D02*
D03*
X-2500Y187500D02*
D03*
Y242500D02*
D03*
X-120000Y-148000D02*
D03*
Y-203000D02*
D03*
D94*
X-605000Y297000D02*
D03*
X-585000D02*
D03*
X-565000D02*
D03*
X-442000Y107000D02*
D03*
Y127000D02*
D03*
Y147000D02*
D03*
Y167000D02*
D03*
Y187000D02*
D03*
Y207000D02*
D03*
X-624000Y126000D02*
D03*
Y146000D02*
D03*
Y166000D02*
D03*
Y186000D02*
D03*
X-538000Y-179000D02*
D03*
X-558000D02*
D03*
X-578000D02*
D03*
X-598000D02*
D03*
X251000Y0D02*
D03*
X231000D02*
D03*
X211000D02*
D03*
X191000D02*
D03*
X171000D02*
D03*
X151000D02*
D03*
X-597000Y-18000D02*
D03*
X-577000D02*
D03*
X-557000D02*
D03*
X-537000D02*
D03*
D95*
X112900Y238850D02*
D03*
X62100Y228690D02*
D03*
Y249010D02*
D03*
X108000Y-239000D02*
D03*
X57200Y-249160D02*
D03*
Y-228840D02*
D03*
D96*
X58000Y-67000D02*
D03*
X70000Y-53000D02*
D03*
D97*
X-55000Y185000D02*
D03*
X48000Y243000D02*
D03*
X70000Y-202000D02*
D03*
X189212Y179566D02*
D03*
X197111Y-137690D02*
D03*
X206700Y-138011D02*
D03*
X-65000Y205000D02*
D03*
X-85000Y213000D02*
D03*
X-170172Y-67000D02*
D03*
X-170172Y-87000D02*
D03*
X-180000Y-54000D02*
D03*
X-170172Y-97000D02*
D03*
X161000Y-203250D02*
D03*
X-60000Y-126000D02*
D03*
Y-58000D02*
D03*
Y-201000D02*
D03*
X97980Y-137072D02*
D03*
X-235000Y-66000D02*
D03*
X93000Y-202187D02*
D03*
X124000Y-229000D02*
D03*
X127762Y-129673D02*
D03*
X150000Y-144000D02*
D03*
X90061Y199939D02*
D03*
X-10000Y221000D02*
D03*
X-60000Y88000D02*
D03*
X-191000Y62000D02*
D03*
X69000Y214000D02*
D03*
X78000D02*
D03*
X94000Y153000D02*
D03*
X117000Y152000D02*
D03*
X39750Y199750D02*
D03*
X20000D02*
D03*
X-55250Y154250D02*
D03*
X-79750Y153974D02*
D03*
X-99750Y154750D02*
D03*
X-80500Y164974D02*
D03*
X50000Y152000D02*
D03*
X-136800Y155400D02*
D03*
X-141000Y161000D02*
D03*
X-30000Y-199500D02*
D03*
X-30024Y-210500D02*
D03*
X-10250Y-199500D02*
D03*
X60724Y-163000D02*
D03*
X-30589Y-151698D02*
D03*
X-1000Y-165400D02*
D03*
X112159Y-165841D02*
D03*
X60000Y-186000D02*
D03*
X-17250Y-124374D02*
D03*
X-17125Y-88000D02*
D03*
X70500Y-85969D02*
D03*
X72638Y-142500D02*
D03*
X-194000Y-77000D02*
D03*
X-126500Y-170900D02*
D03*
X-159500Y-159750D02*
D03*
X-162250Y-170000D02*
D03*
X-142750Y-160000D02*
D03*
X-168612Y-79500D02*
D03*
X-172000Y-184000D02*
D03*
X-174000Y-195000D02*
D03*
X116528Y-228472D02*
D03*
X82600Y-245350D02*
D03*
X95300D02*
D03*
X47000Y256000D02*
D03*
X131745Y232745D02*
D03*
X124000Y235500D02*
D03*
X152000Y-213000D02*
D03*
X-57500Y-245000D02*
D03*
X-42000D02*
D03*
X93000Y164000D02*
D03*
X95000Y180000D02*
D03*
X94383Y194433D02*
D03*
X99500Y-215000D02*
D03*
X42000Y-213750D02*
D03*
X66000Y107000D02*
D03*
X65000Y137000D02*
D03*
X53000Y126000D02*
D03*
X131250Y-137000D02*
D03*
X-586500Y149000D02*
D03*
Y165000D02*
D03*
X42000Y-233000D02*
D03*
X135000Y-208950D02*
D03*
X37000Y-255000D02*
D03*
X124000Y144611D02*
D03*
X126000Y133611D02*
D03*
X102744Y143256D02*
D03*
X110022Y134978D02*
D03*
X117792Y134725D02*
D03*
X163672Y202500D02*
D03*
X235000Y-110000D02*
D03*
X-69000Y-70000D02*
D03*
X161000Y-190750D02*
D03*
X146000Y-183500D02*
D03*
Y-167000D02*
D03*
X70000Y-172500D02*
D03*
X108000Y-214750D02*
D03*
X-191000Y82000D02*
D03*
X-191000Y92000D02*
D03*
X-191000Y102000D02*
D03*
X-191000Y72000D02*
D03*
X29000Y-178000D02*
D03*
X59750Y-143000D02*
D03*
X61500Y-149861D02*
D03*
X131010Y-154341D02*
D03*
X115360Y-189181D02*
D03*
X160474Y-178474D02*
D03*
X100000Y-172000D02*
D03*
X59000Y83000D02*
D03*
X100322Y245325D02*
D03*
X107750Y222000D02*
D03*
X143000Y174000D02*
D03*
Y160000D02*
D03*
X68000Y165000D02*
D03*
X-69875Y219875D02*
D03*
X49000Y177000D02*
D03*
X-20000Y177500D02*
D03*
X59000Y148281D02*
D03*
X39750Y209974D02*
D03*
X27000Y124400D02*
D03*
X-39000Y-87000D02*
D03*
X110000Y-172500D02*
D03*
X103000Y-155000D02*
D03*
X-45389Y-165389D02*
D03*
X-24000Y-80000D02*
D03*
X-132526Y-120000D02*
D03*
X-94500Y-170900D02*
D03*
X-68490Y-140510D02*
D03*
X31000Y-234000D02*
D03*
X-44000Y-219000D02*
D03*
X-49000Y-232000D02*
D03*
X-52500Y-150500D02*
D03*
X179000Y169000D02*
D03*
X155646Y174000D02*
D03*
X106567Y189646D02*
D03*
X-159000Y170000D02*
D03*
X-520000Y-239000D02*
D03*
X-519000Y-78000D02*
D03*
X77000Y-131072D02*
D03*
X78000Y-138000D02*
D03*
X91000Y-106000D02*
D03*
X125000Y-107000D02*
D03*
X94500Y137000D02*
D03*
X129000Y224000D02*
D03*
X-165000Y48000D02*
D03*
X111000Y205909D02*
D03*
X118000D02*
D03*
X125000Y-191000D02*
D03*
X64750Y-116000D02*
D03*
X146500Y-223000D02*
D03*
X104000Y-184000D02*
D03*
X158000Y-107000D02*
D03*
X135735Y189500D02*
D03*
X-39000Y224517D02*
D03*
X157039Y195306D02*
D03*
X154000Y189000D02*
D03*
X-65000Y137000D02*
D03*
X-79661Y108577D02*
D03*
X-93000Y79000D02*
D03*
D98*
X160000Y43000D02*
D03*
X162000Y20000D02*
D03*
M02*
