0
SECTION
2
HEADER
9
$INSUNITS
70
4
9
$ACADVER
1
AC1014
9
$HANDSEED
5
FFFF
0
ENDSEC
0
SECTION
2
TABLES
0
TABLE
2
VPORT
5
8
100
AcDbSymbolTable
0
ENDTAB
0
TABLE
2
LTYPE
5
5
100
AcDbSymbolTable
0
LTYPE
5
14
100
AcDbSymbolTableRecord
100
AcDbLinetypeTableRecord
2
BYBLOCK
70
0
0
LTYPE
5
15
100
AcDbSymbolTableRecord
100
AcDbLinetypeTableRecord
2
BYLAYER
70
0
0
LTYPE
5
16
100
AcDbSymbolTableRecord
100
AcDbLinetypeTableRecord
2
DASHED
70
0
3
Dashed __ __ __ __ __ __ __ __ __ __ __ __ __ _
72
65
73
2
40
0.75
49
0.5
74
0
49
-0.25
74
0
0
ENDTAB
0
TABLE
2
LAYER
5
2
100
AcDbSymbolTable
70
2
0
LAYER
5
50
100
AcDbSymbolTableRecord
100
AcDbLayerTableRecord
2
0
70
0
62
7
6
CONTINUOUS
0
ENDTAB
0
TABLE
2
STYLE
5
3
100
AcDbSymbolTable
70
1
0
STYLE
5
11
100
AcDbSymbolTableRecord
100
AcDbTextStyleTableRecord
2
STANDARD
70
0
0
ENDTAB
0
TABLE
2
VIEW
5
6
100
AcDbSymbolTable
70
0
0
ENDTAB
0
TABLE
2
UCS
5
7
100
AcDbSymbolTable
70
0
0
ENDTAB
0
TABLE
2
APPID
5
9
100
AcDbSymbolTable
70
2
0
APPID
5
12
100
AcDbSymbolTableRecord
100
AcDbRegAppTableRecord
2
ACAD
70
0
0
ENDTAB
0
TABLE
2
DIMSTYLE
5
A
100
AcDbSymbolTable
70
1
0
ENDTAB
0
TABLE
2
BLOCK_RECORD
5
1
100
AcDbSymbolTable
70
1
0
BLOCK_RECORD
5
1F
100
AcDbSymbolTableRecord
100
AcDbBlockTableRecord
2
*MODEL_SPACE
0
BLOCK_RECORD
5
1B
100
AcDbSymbolTableRecord
100
AcDbBlockTableRecord
2
*PAPER_SPACE
0
ENDTAB
0
ENDSEC
0
SECTION
2
BLOCKS
0
BLOCK
5
20
100
AcDbEntity
100
AcDbBlockBegin
2
*MODEL_SPACE
0
ENDBLK
5
21
100
AcDbEntity
100
AcDbBlockEnd
0
BLOCK
5
1C
100
AcDbEntity
100
AcDbBlockBegin
2
*PAPER_SPACE
0
ENDBLK
5
1D
100
AcDbEntity
100
AcDbBlockEnd
0
ENDSEC
0
SECTION
2
ENTITIES
0
SPLINE
5
100
100
AcDbEntity
8
0
100
AcDbSpline
70
4
71
5
72
236
73
230
74
0
42
0.000000001
43
0.0000000001
44
0.0000000001
40
0
40
0
40
0
40
0
40
0
40
0
40
0.0044444444444444444
40
0.0088888888888888889
40
0.013333333333333332
40
0.017777777777777778
40
0.022222222222222223
40
0.026666666666666668
40
0.031111111111111114
40
0.035555555555555556
40
0.040000000000000001
40
0.044444444444444446
40
0.048888888888888891
40
0.053333333333333337
40
0.057777777777777782
40
0.062222222222222227
40
0.066666666666666666
40
0.071111111111111111
40
0.075555555555555556
40
0.080000000000000002
40
0.084444444444444447
40
0.088888888888888892
40
0.093333333333333338
40
0.097777777777777783
40
0.10222222222222223
40
0.10666666666666667
40
0.11111111111111112
40
0.11555555555555556
40
0.12000000000000001
40
0.12444444444444445
40
0.12888888888888889
40
0.13333333333333333
40
0.13777777777777778
40
0.14222222222222222
40
0.14666666666666667
40
0.15111111111111111
40
0.15555555555555556
40
0.16
40
0.16444444444444445
40
0.16888888888888889
40
0.17333333333333334
40
0.17777777777777778
40
0.18222222222222223
40
0.18666666666666668
40
0.19111111111111112
40
0.19555555555555557
40
0.20000000000000001
40
0.20444444444444446
40
0.2088888888888889
40
0.21333333333333335
40
0.21777777777777779
40
0.22222222222222224
40
0.22666666666666668
40
0.23111111111111113
40
0.23555555555555557
40
0.24000000000000002
40
0.24444444444444446
40
0.24888888888888891
40
0.25333333333333335
40
0.25777777777777777
40
0.26222222222222219
40
0.26666666666666661
40
0.27111111111111103
40
0.27555555555555544
40
0.27999999999999986
40
0.28444444444444428
40
0.2888888888888887
40
0.29333333333333311
40
0.29777777777777753
40
0.30222222222222195
40
0.30666666666666637
40
0.31111111111111078
40
0.3155555555555552
40
0.31999999999999962
40
0.32444444444444404
40
0.32888888888888845
40
0.33333333333333287
40
0.33777777777777729
40
0.34222222222222171
40
0.34666666666666612
40
0.35111111111111054
40
0.35555555555555496
40
0.35999999999999938
40
0.36444444444444379
40
0.36888888888888821
40
0.37333333333333263
40
0.37777777777777705
40
0.38222222222222146
40
0.38666666666666588
40
0.3911111111111103
40
0.39555555555555472
40
0.39999999999999913
40
0.40444444444444355
40
0.40888888888888797
40
0.41333333333333239
40
0.4177777777777768
40
0.42222222222222122
40
0.42666666666666564
40
0.43111111111111006
40
0.43555555555555447
40
0.43999999999999889
40
0.44444444444444331
40
0.44888888888888773
40
0.45333333333333214
40
0.45777777777777656
40
0.46222222222222098
40
0.4666666666666654
40
0.47111111111110981
40
0.47555555555555423
40
0.47999999999999865
40
0.48444444444444307
40
0.48888888888888749
40
0.4933333333333319
40
0.49777777777777632
40
0.50222222222222079
40
0.50666666666666527
40
0.51111111111110974
40
0.51555555555555421
40
0.51999999999999869
40
0.52444444444444316
40
0.52888888888888763
40
0.5333333333333321
40
0.53777777777777658
40
0.54222222222222105
40
0.54666666666666552
40
0.55111111111111
40
0.55555555555555447
40
0.55999999999999894
40
0.56444444444444342
40
0.56888888888888789
40
0.57333333333333236
40
0.57777777777777684
40
0.58222222222222131
40
0.58666666666666578
40
0.59111111111111025
40
0.59555555555555473
40
0.5999999999999992
40
0.60444444444444367
40
0.60888888888888815
40
0.61333333333333262
40
0.61777777777777709
40
0.62222222222222157
40
0.62666666666666604
40
0.63111111111111051
40
0.63555555555555499
40
0.63999999999999946
40
0.64444444444444393
40
0.6488888888888884
40
0.65333333333333288
40
0.65777777777777735
40
0.66222222222222182
40
0.6666666666666663
40
0.67111111111111077
40
0.67555555555555524
40
0.67999999999999972
40
0.68444444444444419
40
0.68888888888888866
40
0.69333333333333313
40
0.69777777777777761
40
0.70222222222222208
40
0.70666666666666655
40
0.71111111111111103
40
0.7155555555555555
40
0.71999999999999997
40
0.72444444444444445
40
0.72888888888888892
40
0.73333333333333339
40
0.73777777777777787
40
0.74222222222222234
40
0.74666666666666681
40
0.75111111111111128
40
0.75555555555555576
40
0.76000000000000023
40
0.7644444444444447
40
0.76888888888888918
40
0.77333333333333365
40
0.77777777777777812
40
0.7822222222222226
40
0.78666666666666707
40
0.79111111111111154
40
0.79555555555555602
40
0.80000000000000049
40
0.80444444444444496
40
0.80888888888888943
40
0.81333333333333391
40
0.81777777777777838
40
0.82222222222222285
40
0.82666666666666733
40
0.8311111111111118
40
0.83555555555555627
40
0.84000000000000075
40
0.84444444444444522
40
0.84888888888888969
40
0.85333333333333417
40
0.85777777777777864
40
0.86222222222222311
40
0.86666666666666758
40
0.87111111111111206
40
0.87555555555555653
40
0.880000000000001
40
0.88444444444444548
40
0.88888888888888995
40
0.89333333333333442
40
0.8977777777777789
40
0.90222222222222337
40
0.90666666666666784
40
0.91111111111111232
40
0.91555555555555679
40
0.92000000000000126
40
0.92444444444444573
40
0.92888888888889021
40
0.93333333333333468
40
0.93777777777777915
40
0.94222222222222363
40
0.9466666666666681
40
0.95111111111111257
40
0.95555555555555705
40
0.96000000000000152
40
0.96444444444444599
40
0.96888888888889046
40
0.97333333333333494
40
0.97777777777777941
40
0.98222222222222388
40
0.98666666666666836
40
0.99111111111111283
40
0.9955555555555573
40
1
40
1
40
1
40
1
40
1
40
1
41
1
41
1
41
1
41
1
41
1
41
1
41
1
41
1
41
1
41
1
41
1
41
1
41
1
41
1
41
1
41
1
41
1
41
1
41
1
41
1
41
1
41
1
41
1
41
1
41
1
41
1
41
1
41
1
41
1
41
1
41
1
41
1
41
1
41
1
41
1
41
1
41
1
41
1
41
1
41
1
41
1
41
1
41
1
41
1
41
1
41
1
41
1
41
1
41
1
41
1
41
1
41
1
41
1
41
1
41
1
41
1
41
1
41
1
41
1
41
1
41
1
41
1
41
1
41
1
41
1
41
1
41
1
41
1
41
1
41
1
41
1
41
1
41
1
41
1
41
1
41
1
41
1
41
1
41
1
41
1
41
1
41
1
41
1
41
1
41
1
41
1
41
1
41
1
41
1
41
1
41
1
41
1
41
1
41
1
41
1
41
1
41
1
41
1
41
1
41
1
41
1
41
1
41
1
41
1
41
1
41
1
41
1
41
1
41
1
41
1
41
1
41
1
41
1
41
1
41
1
41
1
41
1
41
1
41
1
41
1
41
1
41
1
41
1
41
1
41
1
41
1
41
1
41
1
41
1
41
1
41
1
41
1
41
1
41
1
41
1
41
1
41
1
41
1
41
1
41
1
41
1
41
1
41
1
41
1
41
1
41
1
41
1
41
1
41
1
41
1
41
1
41
1
41
1
41
1
41
1
41
1
41
1
41
1
41
1
41
1
41
1
41
1
41
1
41
1
41
1
41
1
41
1
41
1
41
1
41
1
41
1
41
1
41
1
41
1
41
1
41
1
41
1
41
1
41
1
41
1
41
1
41
1
41
1
41
1
41
1
41
1
41
1
41
1
41
1
41
1
41
1
41
1
41
1
41
1
41
1
41
1
41
1
41
1
41
1
41
1
41
1
41
1
41
1
41
1
41
1
41
1
41
1
41
1
41
1
41
1
41
1
41
1
41
1
41
1
41
1
41
1
41
1
41
1
41
1
41
1
41
1
41
1
41
1
41
1
41
1
41
1
41
1
41
1
41
1
41
1
10
-19.93361255765614
20
-29.467578764053517
30
0
10
-19.889946754059778
20
-29.423755652304951
30
0
10
-19.80237696973013
20
-29.335860065862803
30
0
10
-19.670307756117449
20
-29.203268581512752
30
0
10
-19.492786400612093
20
-29.024983815706822
30
0
10
-19.268478837356234
20
-28.79954270485257
30
0
10
-19.04169453107459
20
-28.571244612033905
30
0
10
-18.812290451914791
20
-28.339541717229469
30
0
10
-18.580031989410614
20
-28.103530917998857
30
0
10
-18.344558581275013
20
-27.861833021266428
30
0
10
-18.105433971613333
20
-27.612706823429569
30
0
10
-17.86222523856248
20
-27.354242799431773
30
0
10
-17.614571873188069
20
-27.084529636101827
30
0
10
-17.362259999679086
20
-26.801833928413366
30
0
10
-17.105292111005255
20
-26.50476995969295
30
0
10
-16.843964966419939
20
-26.19248537781942
30
0
10
-16.57882375080704
20
-25.864614902087496
30
0
10
-16.310607657405772
20
-25.521217850553711
30
0
10
-16.040198408155973
20
-25.162721676501484
30
0
10
-15.768567964078585
20
-24.78986273730348
30
0
10
-15.496725652427944
20
-24.403628958628786
30
0
10
-15.225667778959149
20
-24.005200167283505
30
0
10
-14.956320297303066
20
-23.595893563083564
30
0
10
-14.689539554681083
20
-23.177068104006381
30
0
10
-14.426123557384244
20
-22.750021128181544
30
0
10
-14.166819534117739
20
-22.315888407471963
30
0
10
-13.9123331130509
20
-21.875541096524636
30
0
10
-13.663336649919884
20
-21.429487784978647
30
0
10
-13.420478263511789
20
-20.977765474198829
30
0
10
-13.184389747924826
20
-20.519855986500438
30
0
10
-12.955697048976692
20
-20.054538346176617
30
0
10
-12.735017726923823
20
-19.580071465245656
30
0
10
-12.522953162777103
20
-19.094510409562226
30
0
10
-12.320082467530815
20
-18.595979711133452
30
0
10
-12.126955662932268
20
-18.082963993353069
30
0
10
-11.944087206522793
20
-17.554592550557029
30
0
10
-11.771949279573013
20
-17.010923484790116
30
0
10
-11.610965365343846
20
-16.453235415292294
30
0
10
-11.461503236088756
20
-15.884298939693629
30
0
10
-11.323869423251818
20
-15.308703166422728
30
0
10
-11.198283204130297
20
-14.732421404505182
30
0
10
-11.084848688411702
20
-14.162308021499225
30
0
10
-10.983527656249709
20
-13.605620521057187
30
0
10
-10.894111870894749
20
-13.069530244713052
30
0
10
-10.816196031236284
20
-12.560639836122466
30
0
10
-10.749149406577597
20
-12.084493399948022
30
0
10
-10.692090372557461
20
-11.645099770114456
30
0
10
-10.64385402427396
20
-11.244425919999642
30
0
10
-10.602979262578421
20
-10.881972275861587
30
0
10
-10.567882037573227
20
-10.555069206486905
30
0
10
-10.537008113062125
20
-10.259120462333101
30
0
10
-10.509002945017055
20
-9.9878493036723484
30
0
10
-10.482853003601528
20
-9.7335829131191396
30
0
10
-10.458093282304048
20
-9.4874194701240828
30
0
10
-10.434713101944544
20
-9.239966848296028
30
0
10
-10.412892921395017
20
-8.9824358509207016
30
0
10
-10.392809198924628
20
-8.7075417038787535
30
0
10
-10.374375267090993
20
-8.4106729753151317
30
0
10
-10.357129584474871
20
-8.0903163016343136
30
0
10
-10.340390538312779
20
-7.7470658819512126
30
0
10
-10.323353196567339
20
-7.3829477820193423
30
0
10
-10.305212202469452
20
-7.000594873465551
30
0
10
-10.28526660899383
20
-6.6025404964063608
30
0
10
-10.263050265549424
20
-6.1903197056698787
30
0
10
-10.238333839083918
20
-5.7645857406822598
30
0
10
-10.211088287158264
20
-5.3255326705758153
30
0
10
-10.181461099298163
20
-4.8732203278260773
30
0
10
-10.149747303690003
20
-4.4079311071637282
30
0
10
-10.116362568164057
20
-3.9305337679380208
30
0
10
-10.081815825434642
20
-3.442795988436143
30
0
10
-10.046681104007192
20
-2.9478390266258652
30
0
10
-10.011573902013108
20
-2.4500374767023505
30
0
10
-9.9771319171295278
20
-1.9544253116507124
30
0
10
-9.9439943907936978
20
-1.4662431429162415
30
0
10
-9.9127823653892335
20
-0.99042146693404376
30
0
10
-9.8840777591642137
20
-0.53110547001291553
30
0
10
-9.8584047788259141
20
-0.091128976935171288
30
0
10
-9.8362060094502315
20
0.32841259070918261
30
0
10
-9.8178319754653849
20
0.72883278705258026
30
0
10
-9.8034472638778336
20
1.113027928738312
30
0
10
-9.7929106072810885
20
1.484184445911064
30
0
10
-9.7856665367332738
20
1.8446945468208416
30
0
10
-9.7806257432625685
20
2.1948692061737458
30
0
10
-9.776065101860036
20
2.5320066782353381
30
0
10
-9.7694820131525066
20
2.8486334394640904
30
0
10
-9.7576323447170061
20
3.1341804229149526
30
0
10
-9.7366745256091196
20
3.3790478383210503
30
0
10
-9.7023089595946086
20
3.5778327289238874
30
0
10
-9.6498595843514181
20
3.7331857363894212
30
0
10
-9.5745333281921479
20
3.8586341730299707
30
0
10
-9.4729082533835136
20
3.9716395843748042
30
0
10
-9.3448116554106146
20
4.0861435436380678
30
0
10
-9.1937713086368493
20
4.2082513361210934
30
0
10
-9.0236170859526474
20
4.3407949095721863
30
0
10
-8.8358385840882026
20
4.4861746895257584
30
0
10
-8.626575911256074
20
4.6499479475530947
30
0
10
-8.3892465003834342
20
4.8388133944481861
30
0
10
-8.1171209668814974
20
5.0587089597579276
30
0
10
-7.8060507458849804
20
5.3127510850977835
30
0
10
-7.4568353690722509
20
5.599490049926481
30
0
10
-7.0785011117060312
20
5.9103938573734025
30
0
10
-6.6867873046313822
20
6.2313579646265875
30
0
10
-6.3008024139320327
20
6.5457445890581401
30
0
10
-5.940224507834559
20
6.8369775462834834
30
0
10
-5.6223880367196335
20
7.0912048474431577
30
0
10
-5.3591580388214499
20
7.3002037052361359
30
0
10
-5.1545059744785027
20
7.4635476111685559
30
0
10
-5.0002567881986213
20
7.5926755845961296
30
0
10
-4.8793868308267161
20
7.7071479737715052
30
0
10
-4.7738547725036717
20
7.8263130713622413
30
0
10
-4.6720197527250154
20
7.96120906529337
30
0
10
-4.5734951616188422
20
8.1096675166398473
30
0
10
-4.4834273961185849
20
8.2640715705642371
30
0
10
-4.408300114270963
20
8.4173556799495568
30
0
10
-4.3519473166200466
20
8.5685601448882931
30
0
10
-4.3157690899679393
20
8.7222127472362239
30
0
10
-4.2980297995739321
20
8.8893143168795667
30
0
10
-4.2940928247028332
20
9.0860179464255779
30
0
10
-4.2981999414385701
20
9.3274631198424274
30
0
10
-4.3048710627165683
20
9.6229881004519076
30
0
10
-4.3106992435807951
20
9.9696963513123293
30
0
10
-4.3141852556310916
20
10.35474606353575
30
0
10
-4.3150885079525212
20
10.759844781006937
30
0
10
-4.3139515908602029
20
11.164918907032133
30
0
10
-4.311527385241126
20
11.552311703122665
30
0
10
-4.3083061633358604
20
11.910326471001685
30
0
10
-4.3038509069894682
20
12.238147405916166
30
0
10
-4.2970831259670836
20
12.543794732955275
30
0
10
-4.286923859720158
20
12.83950418052253
30
0
10
-4.2728319626338953
20
13.13778438313231
30
0
10
-4.2553571380895514
20
13.447547457787248
30
0
10
-4.2367569054165886
20
13.769332732030364
30
0
10
-4.2212813691482021
20
14.094428220784263
30
0
10
-4.2149788156410226
20
14.407996246813253
30
0
10
-4.2258395910408559
20
14.69093409259979
30
0
10
-4.2633511595279341
20
14.922615221369417
30
0
10
-4.3394012188826618
20
15.082372383062845
30
0
10
-4.464428510874364
20
15.154787549909745
30
0
10
-4.6406357352967795
20
15.136755470749382
30
0
10
-4.8536870305883273
20
15.046702007063598
30
0
10
-5.0785134195724169
20
14.91763881917554
30
0
10
-5.2907655966546798
20
14.783920779631472
30
0
10
-5.4758897439255074
20
14.670612180212023
30
0
10
-5.640469738722941
20
14.580429089666699
30
0
10
-5.8039597575069024
20
14.501463706119704
30
0
10
-5.9895925649983131
20
14.41588860712076
30
0
10
-6.2140109564841008
20
14.309744848324808
30
0
10
-6.4833360590563691
20
14.1768915158144
30
0
10
-6.7963626894924296
20
14.016420401240282
30
0
10
-7.1458367376968255
20
13.831857870900579
30
0
10
-7.5205092328749643
20
13.629585336413006
30
0
10
-7.906871251280351
20
13.417713028979975
30
0
10
-8.2909883550402039
20
13.204500975077313
30
0
10
-8.6594007809171138
20
13.000926998780509
30
0
10
-9.0000112960403928
20
12.820807103776051
30
0
10
-9.303109764850916
20
12.686359688806077
30
0
10
-9.5620376310738973
20
12.621205314937123
30
0
10
-9.7747173943571397
20
12.672841705563872
30
0
10
-9.9429425503437976
20
12.858989547933021
30
0
10
-10.069771880893336
20
13.121075662818242
30
0
10
-10.16021549068364
20
13.388614118363533
30
0
10
-10.220735786701034
20
13.603234284565421
30
0
10
-10.259319449431818
20
13.763146484915064
30
0
10
-10.284274531423737
20
13.89889034286006
30
0
10
-10.303163424059951
20
14.049000961666643
30
0
10
-10.321411353161963
20
14.232138381262274
30
0
10
-10.34320281278675
20
14.449442636100994
30
0
10
-10.372617062233637
20
14.692361194529092
30
0
10
-10.415065887881539
20
14.949442927327754
30
0
10
-10.477207285781653
20
15.210418535022205
30
0
10
-10.564882538522749
20
15.465603637409737
30
0
10
-10.681619276105776
20
15.706569017488356
30
0
10
-10.826784483511659
20
15.926286765268571
30
0
10
-10.994225288083804
20
16.119515830813825
30
0
10
-11.175451834226424
20
16.283261308251504
30
0
10
-11.362536498318203
20
16.417275846826019
30
0
10
-11.551077778833264
20
16.524517672932383
30
0
10
-11.743248839078941
20
16.611693501688045
30
0
10
-11.945766532291842
20
16.687290601830384
30
0
10
-12.167776045116376
20
16.759650880092426
30
0
10
-12.418654990550683
20
16.834817890522057
30
0
10
-12.706191567499195
20
16.915122875260366
30
0
10
-13.036042378968675
20
17.000253352099225
30
0
10
-13.411004292964526
20
17.087894656488174
30
0
10
-13.830296262201989
20
17.17456302329612
30
0
10
-14.288981131211127
20
17.25630204298405
30
0
10
-14.776968427105858
20
17.32957331155491
30
0
10
-15.279657926543571
20
17.391510679305
30
0
10
-15.780070575872136
20
17.439617595313322
30
0
10
-16.260573704893993
20
17.471616272714709
30
0
10
-16.704753065691961
20
17.485239772068038
30
0
10
-17.099266419029707
20
17.478036952797737
30
0
10
-17.435602190337722
20
17.44719885372313
30
0
10
-17.712126600493807
20
17.38931118557009
30
0
10
-17.935263584918687
20
17.30033433120737
30
0
10
-18.116080743753919
20
17.176827929159259
30
0
10
-18.267538961521758
20
17.016971532764909
30
0
10
-18.401325433217799
20
16.821758632315412
30
0
10
-18.525319464702608
20
16.595850025521447
30
0
10
-18.644871659506691
20
16.346238794090389
30
0
10
-18.763781706441371
20
16.081057939069712
30
0
10
-18.885263268231981
20
15.808477597423947
30
0
10
-19.013232621851163
20
15.535204991225019
30
0
10
-19.151662717397915
20
15.267176982726367
30
0
10
-19.303215165899569
20
15.011050919899356
30
0
10
-19.467983710805768
20
14.775590785867427
30
0
10
-19.642467188103993
20
14.572751305192948
30
0
10
-19.81773527716512
20
14.419780015238022
30
0
10
-19.983562407360104
20
14.333773688067001
30
0
10
-20.132968944712889
20
14.325647367683821
30
0
10
-20.268064635231561
20
14.392620758927404
30
0
10
-20.40078058399105
20
14.516695657812893
30
0
10
-20.544314796960549
20
14.674502003562345
30
0
10
-20.705056544017989
20
14.845944566657037
30
0
10
-20.879186580771329
20
15.019355787613343
30
0
10
-21.058876672268944
20
15.188882298921847
30
0
10
-21.235851141907833
20
15.353770363462987
30
0
10
-21.406772516340936
20
15.516858826310003
30
0
10
-21.575271077619369
20
15.683487203961032
30
0
10
-21.748844066863139
20
15.860384953489666
30
0
10
-21.9369479403478
20
16.054632992262569
30
0
10
-22.148444429782689
20
16.272509435064666
30
0
10
-22.389834772486914
20
16.518641913714841
30
0
10
-22.665808044435423
20
16.796360039455177
30
0
10
-22.979466857538746
20
17.107869336424471
30
0
10
-23.33267755849516
20
17.454494760098854
30
0
10
-23.647629236713698
20
17.760414454392265
30
0
10
-23.902196906864184
20
18.006050580904986
30
0
10
-24.080065654055034
20
18.177006111307822
30
0
10
-24.171039273149304
20
18.264283406777267
30
0
0
SPLINE
5
101
100
AcDbEntity
8
0
100
AcDbSpline
70
4
71
5
72
166
73
160
74
0
42
0.000000001
43
0.0000000001
44
0.0000000001
40
0
40
0
40
0
40
0
40
0
40
0
40
0.0064516129032258064
40
0.012903225806451613
40
0.01935483870967742
40
0.025806451612903226
40
0.032258064516129031
40
0.03870967741935484
40
0.045161290322580649
40
0.051612903225806459
40
0.058064516129032268
40
0.064516129032258077
40
0.070967741935483886
40
0.077419354838709695
40
0.083870967741935504
40
0.090322580645161313
40
0.096774193548387122
40
0.10322580645161293
40
0.10967741935483874
40
0.11612903225806455
40
0.12258064516129036
40
0.12903225806451615
40
0.13548387096774195
40
0.14193548387096774
40
0.14838709677419354
40
0.15483870967741933
40
0.16129032258064513
40
0.16774193548387092
40
0.17419354838709672
40
0.18064516129032251
40
0.18709677419354831
40
0.1935483870967741
40
0.1999999999999999
40
0.2064516129032257
40
0.21290322580645149
40
0.21935483870967729
40
0.22580645161290308
40
0.23225806451612888
40
0.23870967741935467
40
0.24516129032258047
40
0.25161290322580626
40
0.25806451612903208
40
0.26451612903225791
40
0.27096774193548373
40
0.27741935483870955
40
0.28387096774193538
40
0.2903225806451612
40
0.29677419354838702
40
0.30322580645161284
40
0.30967741935483867
40
0.31612903225806449
40
0.32258064516129031
40
0.32903225806451614
40
0.33548387096774196
40
0.34193548387096778
40
0.34838709677419361
40
0.35483870967741943
40
0.36129032258064525
40
0.36774193548387107
40
0.3741935483870969
40
0.38064516129032272
40
0.38709677419354854
40
0.39354838709677437
40
0.40000000000000019
40
0.40645161290322601
40
0.41290322580645183
40
0.41935483870967766
40
0.42580645161290348
40
0.4322580645161293
40
0.43870967741935513
40
0.44516129032258095
40
0.45161290322580677
40
0.4580645161290326
40
0.46451612903225842
40
0.47096774193548424
40
0.47741935483871006
40
0.48387096774193589
40
0.49032258064516171
40
0.49677419354838753
40
0.5032258064516133
40
0.50967741935483912
40
0.51612903225806495
40
0.52258064516129077
40
0.52903225806451659
40
0.53548387096774241
40
0.54193548387096824
40
0.54838709677419406
40
0.55483870967741988
40
0.56129032258064571
40
0.56774193548387153
40
0.57419354838709735
40
0.58064516129032318
40
0.587096774193549
40
0.59354838709677482
40
0.60000000000000064
40
0.60645161290322647
40
0.61290322580645229
40
0.61935483870967811
40
0.62580645161290394
40
0.63225806451612976
40
0.63870967741935558
40
0.6451612903225814
40
0.65161290322580723
40
0.65806451612903305
40
0.66451612903225887
40
0.6709677419354847
40
0.67741935483871052
40
0.68387096774193634
40
0.69032258064516216
40
0.69677419354838799
40
0.70322580645161381
40
0.70967741935483963
40
0.71612903225806546
40
0.72258064516129128
40
0.7290322580645171
40
0.73548387096774293
40
0.74193548387096875
40
0.74838709677419457
40
0.75483870967742039
40
0.76129032258064622
40
0.76774193548387204
40
0.77419354838709786
40
0.78064516129032369
40
0.78709677419354951
40
0.79354838709677533
40
0.80000000000000115
40
0.80645161290322698
40
0.8129032258064528
40
0.81935483870967862
40
0.82580645161290445
40
0.83225806451613027
40
0.83870967741935609
40
0.84516129032258192
40
0.85161290322580774
40
0.85806451612903356
40
0.86451612903225938
40
0.87096774193548521
40
0.87741935483871103
40
0.88387096774193685
40
0.89032258064516268
40
0.8967741935483885
40
0.90322580645161432
40
0.90967741935484014
40
0.91612903225806597
40
0.92258064516129179
40
0.92903225806451761
40
0.93548387096774344
40
0.94193548387096926
40
0.94838709677419508
40
0.9548387096774209
40
0.96129032258064673
40
0.96774193548387255
40
0.97419354838709837
40
0.9806451612903242
40
0.98709677419355002
40
0.99354838709677584
40
1
40
1
40
1
40
1
40
1
40
1
41
1
41
1
41
1
41
1
41
1
41
1
41
1
41
1
41
1
41
1
41
1
41
1
41
1
41
1
41
1
41
1
41
1
41
1
41
1
41
1
41
1
41
1
41
1
41
1
41
1
41
1
41
1
41
1
41
1
41
1
41
1
41
1
41
1
41
1
41
1
41
1
41
1
41
1
41
1
41
1
41
1
41
1
41
1
41
1
41
1
41
1
41
1
41
1
41
1
41
1
41
1
41
1
41
1
41
1
41
1
41
1
41
1
41
1
41
1
41
1
41
1
41
1
41
1
41
1
41
1
41
1
41
1
41
1
41
1
41
1
41
1
41
1
41
1
41
1
41
1
41
1
41
1
41
1
41
1
41
1
41
1
41
1
41
1
41
1
41
1
41
1
41
1
41
1
41
1
41
1
41
1
41
1
41
1
41
1
41
1
41
1
41
1
41
1
41
1
41
1
41
1
41
1
41
1
41
1
41
1
41
1
41
1
41
1
41
1
41
1
41
1
41
1
41
1
41
1
41
1
41
1
41
1
41
1
41
1
41
1
41
1
41
1
41
1
41
1
41
1
41
1
41
1
41
1
41
1
41
1
41
1
41
1
41
1
41
1
41
1
41
1
41
1
41
1
41
1
41
1
41
1
41
1
41
1
41
1
41
1
41
1
41
1
41
1
41
1
41
1
41
1
41
1
41
1
41
1
41
1
41
1
41
1
41
1
41
1
41
1
10
-24.171039273149304
20
18.264283406777267
30
0
10
-24.190087182872322
20
18.282649997637467
30
0
10
-24.226945767336943
20
18.315735080197708
30
0
10
-24.27851222229117
20
18.354399437480705
30
0
10
-24.339909006715608
20
18.384189556116972
30
0
10
-24.407591833801753
20
18.390362257054356
30
0
10
-24.477627670890271
20
18.384631113528116
30
0
10
-24.55821806913896
20
18.376775862477622
30
0
10
-24.6399986670089
20
18.338178078785997
30
0
10
-24.710840189893588
20
18.237050976686497
30
0
10
-24.769813764795892
20
18.071883494631187
30
0
10
-24.822374670938004
20
17.858399584915794
30
0
10
-24.876036129590481
20
17.617852191840381
30
0
10
-24.935227033851845
20
17.363083787476508
30
0
10
-25.001279064538167
20
17.098611111063903
30
0
10
-25.073645417801053
20
16.824076568930533
30
0
10
-25.150697884477616
20
16.536546902990441
30
0
10
-25.230705497622544
20
16.233308941209231
30
0
10
-25.312720627606456
20
15.914410457680452
30
0
10
-25.396343901241014
20
15.581976412474871
30
0
10
-25.481493236935183
20
15.239540924172843
30
0
10
-25.568169851791151
20
14.891365462013717
30
0
10
-25.656231022656335
20
14.541787043360831
30
0
10
-25.745146903738018
20
14.194496401475345
30
0
10
-25.833802775648916
20
13.852017386071449
30
0
10
-25.920579244516343
20
13.516464731475079
30
0
10
-26.003398407297297
20
13.190116268385243
30
0
10
-26.079787343628471
20
12.876136656822796
30
0
10
-26.1469242234589
20
12.579054189872284
30
0
10
-26.201715949945328
20
12.305786855339953
30
0
10
-26.240776049185058
20
12.064933512987491
30
0
10
-26.260118291973914
20
11.862014792440599
30
0
10
-26.254991291126931
20
11.69595737980546
30
0
10
-26.219477068041513
20
11.554196644819179
30
0
10
-26.146734792148504
20
11.411039295634646
30
0
10
-26.031948231625826
20
11.239061198597929
30
0
10
-25.874796856913189
20
11.018367749770743
30
0
10
-25.682307937582745
20
10.747260232212987
30
0
10
-25.466447963352671
20
10.437348648680565
30
0
10
-25.241467684765055
20
10.1080092554134
30
0
10
-25.021363635305992
20
9.7811270803304691
30
0
10
-24.817228009258304
20
9.475600761931732
30
0
10
-24.634793063384496
20
9.2022283033871837
30
0
10
-24.471497726775727
20
8.9576819632727016
30
0
10
-24.318989788108961
20
8.7287953450282547
30
0
10
-24.166170526305418
20
8.497877613087784
30
0
10
-24.002149821046487
20
8.2478608208902173
30
0
10
-23.819000865590422
20
7.967061471759127
30
0
10
-23.615208752749037
20
7.6552725279350646
30
0
10
-23.395272619501142
20
7.322471279829232
30
0
10
-23.167801714140452
20
6.9846091858703989
30
0
10
-22.944106929148678
20
6.6604071030998284
30
0
10
-22.736578053028808
20
6.3676138515712459
30
0
10
-22.557173273243215
20
6.119769890975034
30
0
10
-22.415812682148033
20
5.9220835932288534
30
0
10
-22.31896427261124
20
5.7700165399095269
30
0
10
-22.268373143694625
20
5.6522775074513598
30
0
10
-22.259934406970835
20
5.5528140431678104
30
0
10
-22.282049216875699
20
5.4531754986226124
30
0
10
-22.320435629162468
20
5.3352917974020153
30
0
10
-22.365532217313504
20
5.1846825140267505
30
0
10
-22.413598281690422
20
4.9925458484649221
30
0
10
-22.463763561716135
20
4.7568904862712253
30
0
10
-22.516100641554569
20
4.4842985050166631
30
0
10
-22.569670430885612
20
4.1904478162358503
30
0
10
-22.62326619263936
20
3.8946501528667126
30
0
10
-22.675784234184221
20
3.6149159014688337
30
0
10
-22.72670227184171
20
3.3632079443840945
30
0
10
-22.776607969694847
20
3.1396881092615434
30
0
10
-22.827402336570785
20
2.9303191401965387
30
0
10
-22.881398586435623
20
2.7149673180835352
30
0
10
-22.940638168510397
20
2.4734961797506001
30
0
10
-23.006076290546321
20
2.1930087813874217
30
0
10
-23.076950822072675
20
1.8735805671748043
30
0
10
-23.151421144834362
20
1.523905409622923
30
0
10
-23.227090830159192
20
1.1578443879077245
30
0
10
-23.30158774583218
20
0.79055309748990898
30
0
10
-23.373088999831037
20
0.4349724103221051
30
0
10
-23.44094331889108
20
0.097722539557131088
30
0
10
-23.506023520875626
20
-0.22338335702067005
30
0
10
-23.57010943637864
20
-0.53604640908379864
30
0
10
-23.63543437343057
20
-0.85115229904972878
30
0
10
-23.704147414474654
20
-1.1799675705967356
30
0
10
-23.777858040097879
20
-1.5317623481523861
30
0
10
-23.857031113223385
20
-1.910698645152149
30
0
10
-23.940882028811622
20
-2.3151377771048574
30
0
10
-24.027825077598834
20
-2.7396163139042624
30
0
10
-24.11577908295002
20
-3.1761323685521554
30
0
10
-24.202526309930121
20
-3.6156927459909509
30
0
10
-24.286059234090228
20
-4.0497918391123555
30
0
10
-24.364907558772412
20
-4.4718177848960909
30
0
10
-24.438534258901207
20
-4.8787370010517677
30
0
10
-24.507506464783031
20
-5.2718606898720388
30
0
10
-24.573104691806353
20
-5.6553175183867594
30
0
10
-24.637038189865784
20
-6.0349593803161987
30
0
10
-24.701124060040524
20
-6.4171202088884192
30
0
10
-24.7669686985585
20
-6.8073817438091302
30
0
10
-24.835679025493537
20
-7.2094670051928844
30
0
10
-24.907484326078166
20
-7.6237538955359474
30
0
10
-24.981708577969634
20
-8.0472762733594649
30
0
10
-25.05705961607736
20
-8.4750674304337608
30
0
10
-25.131831330475507
20
-8.9011382008364492
30
0
10
-25.20413804575314
20
-9.3195839709792025
30
0
10
-25.272142694620353
20
-9.7256834943312427
30
0
10
-25.334269814485872
20
-10.116891681469083
30
0
10
-25.389468579852981
20
-10.494145926945794
30
0
10
-25.437304051392218
20
-10.862113098534426
30
0
10
-25.477754360657162
20
-11.227629227138907
30
0
10
-25.511074141936195
20
-11.598544686266152
30
0
10
-25.537633285345876
20
-11.982421107138491
30
0
10
-25.557761989232773
20
-12.385258592857554
30
0
10
-25.571603222864621
20
-12.810287440511637
30
0
10
-25.578935196496889
20
-13.256525285517476
30
0
10
-25.579275988917544
20
-13.719510782747816
30
0
10
-25.572034197964939
20
-14.192393480668377
30
0
10
-25.556644296344125
20
-14.666900674120814
30
0
10
-25.532706408711377
20
-15.134349488527711
30
0
10
-25.500128883848276
20
-15.586653293352907
30
0
10
-25.459258903055041
20
-16.017298121385714
30
0
10
-25.411044277664768
20
-16.42241013837587
30
0
10
-25.35710444855345
20
-16.801551978619315
30
0
10
-25.299321508191184
20
-17.157078672055512
30
0
10
-25.239491488876617
20
-17.493675157243523
30
0
10
-25.178952397960654
20
-17.817824128899233
30
0
10
-25.118221837897629
20
-18.137304110728824
30
0
10
-25.056630809219271
20
-18.460674977633211
30
0
10
-24.991957409355983
20
-18.796769119660265
30
0
10
-24.920905783093872
20
-19.154111623050692
30
0
10
-24.839587607903432
20
-19.540340200907139
30
0
10
-24.744001265400577
20
-19.961627018993791
30
0
10
-24.630514532369368
20
-20.422094654725814
30
0
10
-24.496339773372306
20
-20.923244892325513
30
0
10
-24.340026950312861
20
-21.463355454389802
30
0
10
-24.161908427093216
20
-22.036963034665984
30
0
10
-23.963761589455899
20
-22.635749999517955
30
0
10
-23.748513195655519
20
-23.249356231956803
30
0
10
-23.519928418795022
20
-23.866218227044968
30
0
10
-23.282306439194656
20
-24.474397038196809
30
0
10
-23.040173925261882
20
-25.062408873902321
30
0
10
-22.797978315603284
20
-25.620059164864276
30
0
10
-22.559783988820413
20
-26.139264874648504
30
0
10
-22.328960600096526
20
-26.614907009962941
30
0
10
-22.107889974429426
20
-27.045612878051976
30
0
10
-21.897623259387732
20
-27.434726367495436
30
0
10
-21.698231838303261
20
-27.788661417890957
30
0
10
-21.509227222939234
20
-28.114997372719522
30
0
10
-21.32994414440239
20
-28.420708059588279
30
0
10
-21.15996571224202
20
-28.710243224200077
30
0
10
-20.999468702659399
20
-28.98388460621636
30
0
10
-20.849752504594598
20
-29.235472337844786
30
0
10
-20.71321048792662
20
-29.452030031659625
30
0
10
-20.591519325143736
20
-29.619293628367991
30
0
10
-20.484260952764274
20
-29.725950371323847
30
0
10
-20.387119492332168
20
-29.768920231464087
30
0
10
-20.290976576664992
20
-29.75668124128309
30
0
10
-20.186610952360695
20
-29.700555003715742
30
0
10
-20.092696752181833
20
-29.625349786671549
30
0
10
-20.015706265078279
20
-29.552755430555543
30
0
10
-19.961463043521796
20
-29.497169484437201
30
0
10
-19.93361255765614
20
-29.467578764053517
30
0
0
SPLINE
5
102
100
AcDbEntity
8
0
100
AcDbSpline
70
6
71
5
72
241
73
235
74
0
42
0.000000001
43
0.0000000001
44
0.0000000001
40
0
40
0
40
0
40
0
40
0
40
0
40
0.0043478260869565218
40
0.0086956521739130436
40
0.013043478260869566
40
0.017391304347826087
40
0.021739130434782608
40
0.026086956521739129
40
0.03043478260869565
40
0.034782608695652174
40
0.039130434782608699
40
0.043478260869565223
40
0.047826086956521748
40
0.052173913043478272
40
0.056521739130434796
40
0.060869565217391321
40
0.065217391304347838
40
0.069565217391304363
40
0.073913043478260887
40
0.078260869565217411
40
0.082608695652173936
40
0.08695652173913046
40
0.091304347826086985
40
0.095652173913043509
40
0.10000000000000003
40
0.10434782608695656
40
0.10869565217391308
40
0.11304347826086961
40
0.11739130434782613
40
0.12173913043478266
40
0.12608695652173918
40
0.1304347826086957
40
0.13478260869565223
40
0.13913043478260875
40
0.14347826086956528
40
0.1478260869565218
40
0.15217391304347833
40
0.15652173913043485
40
0.16086956521739137
40
0.1652173913043479
40
0.16956521739130442
40
0.17391304347826095
40
0.17826086956521747
40
0.182608695652174
40
0.18695652173913052
40
0.19130434782608705
40
0.19565217391304357
40
0.20000000000000009
40
0.20434782608695662
40
0.20869565217391314
40
0.21304347826086967
40
0.21739130434782619
40
0.22173913043478272
40
0.22608695652173924
40
0.23043478260869577
40
0.23478260869565229
40
0.23913043478260881
40
0.24347826086956534
40
0.24782608695652186
40
0.25217391304347836
40
0.25652173913043486
40
0.26086956521739135
40
0.26521739130434785
40
0.26956521739130435
40
0.27391304347826084
40
0.27826086956521734
40
0.28260869565217384
40
0.28695652173913033
40
0.29130434782608683
40
0.29565217391304333
40
0.29999999999999982
40
0.30434782608695632
40
0.30869565217391282
40
0.31304347826086931
40
0.31739130434782581
40
0.32173913043478231
40
0.3260869565217388
40
0.3304347826086953
40
0.3347826086956518
40
0.33913043478260829
40
0.34347826086956479
40
0.34782608695652129
40
0.35217391304347778
40
0.35652173913043428
40
0.36086956521739078
40
0.36521739130434727
40
0.36956521739130377
40
0.37391304347826027
40
0.37826086956521676
40
0.38260869565217326
40
0.38695652173912976
40
0.39130434782608625
40
0.39565217391304275
40
0.39999999999999925
40
0.40434782608695574
40
0.40869565217391224
40
0.41304347826086873
40
0.41739130434782523
40
0.42173913043478173
40
0.42608695652173822
40
0.43043478260869472
40
0.43478260869565122
40
0.43913043478260771
40
0.44347826086956421
40
0.44782608695652071
40
0.4521739130434772
40
0.4565217391304337
40
0.4608695652173902
40
0.46521739130434669
40
0.46956521739130319
40
0.47391304347825969
40
0.47826086956521618
40
0.48260869565217268
40
0.48695652173912918
40
0.49130434782608567
40
0.49565217391304217
40
0.49999999999999867
40
0.50434782608695516
40
0.50869565217391166
40
0.51304347826086816
40
0.51739130434782465
40
0.52173913043478115
40
0.52608695652173765
40
0.53043478260869414
40
0.53478260869565064
40
0.53913043478260714
40
0.54347826086956363
40
0.54782608695652013
40
0.55217391304347663
40
0.55652173913043312
40
0.56086956521738962
40
0.56521739130434612
40
0.56956521739130261
40
0.57391304347825911
40
0.57826086956521561
40
0.5826086956521721
40
0.5869565217391286
40
0.5913043478260851
40
0.59565217391304159
40
0.59999999999999809
40
0.60434782608695459
40
0.60869565217391108
40
0.61304347826086758
40
0.61739130434782408
40
0.62173913043478057
40
0.62608695652173707
40
0.63043478260869357
40
0.63478260869565006
40
0.63913043478260656
40
0.64347826086956306
40
0.64782608695651955
40
0.65217391304347605
40
0.65652173913043255
40
0.66086956521738904
40
0.66521739130434554
40
0.66956521739130204
40
0.67391304347825853
40
0.67826086956521503
40
0.68260869565217153
40
0.68695652173912802
40
0.69130434782608452
40
0.69565217391304102
40
0.69999999999999751
40
0.70434782608695401
40
0.70869565217391051
40
0.713043478260867
40
0.7173913043478235
40
0.72173913043478
40
0.72608695652173649
40
0.73043478260869299
40
0.73478260869564949
40
0.73913043478260598
40
0.74347826086956248
40
0.74782608695651898
40
0.75217391304347547
40
0.75652173913043197
40
0.76086956521738847
40
0.76521739130434496
40
0.76956521739130146
40
0.77391304347825796
40
0.77826086956521445
40
0.78260869565217095
40
0.78695652173912745
40
0.79130434782608394
40
0.79565217391304044
40
0.79999999999999694
40
0.80434782608695343
40
0.80869565217390993
40
0.81304347826086643
40
0.81739130434782292
40
0.82173913043477942
40
0.82608695652173592
40
0.83043478260869241
40
0.83478260869564891
40
0.83913043478260541
40
0.8434782608695619
40
0.8478260869565184
40
0.8521739130434749
40
0.85652173913043139
40
0.86086956521738789
40
0.86521739130434439
40
0.86956521739130088
40
0.87391304347825738
40
0.87826086956521388
40
0.88260869565217037
40
0.88695652173912687
40
0.89130434782608337
40
0.89565217391303986
40
0.89999999999999636
40
0.90434782608695286
40
0.90869565217390935
40
0.91304347826086585
40
0.91739130434782235
40
0.92173913043477884
40
0.92608695652173534
40
0.93043478260869183
40
0.93478260869564833
40
0.93913043478260483
40
0.94347826086956132
40
0.94782608695651782
40
0.95217391304347432
40
0.95652173913043081
40
0.96086956521738731
40
0.96521739130434381
40
0.9695652173913003
40
0.9739130434782568
40
0.9782608695652133
40
0.98260869565216979
40
0.98695652173912629
40
0.99130434782608279
40
0.99565217391303928
40
1
40
1
40
1
40
1
40
1
40
1
41
1
41
1
41
1
41
1
41
1
41
1
41
1
41
1
41
1
41
1
41
1
41
1
41
1
41
1
41
1
41
1
41
1
41
1
41
1
41
1
41
1
41
1
41
1
41
1
41
1
41
1
41
1
41
1
41
1
41
1
41
1
41
1
41
1
41
1
41
1
41
1
41
1
41
1
41
1
41
1
41
1
41
1
41
1
41
1
41
1
41
1
41
1
41
1
41
1
41
1
41
1
41
1
41
1
41
1
41
1
41
1
41
1
41
1
41
1
41
1
41
1
41
1
41
1
41
1
41
1
41
1
41
1
41
1
41
1
41
1
41
1
41
1
41
1
41
1
41
1
41
1
41
1
41
1
41
1
41
1
41
1
41
1
41
1
41
1
41
1
41
1
41
1
41
1
41
1
41
1
41
1
41
1
41
1
41
1
41
1
41
1
41
1
41
1
41
1
41
1
41
1
41
1
41
1
41
1
41
1
41
1
41
1
41
1
41
1
41
1
41
1
41
1
41
1
41
1
41
1
41
1
41
1
41
1
41
1
41
1
41
1
41
1
41
1
41
1
41
1
41
1
41
1
41
1
41
1
41
1
41
1
41
1
41
1
41
1
41
1
41
1
41
1
41
1
41
1
41
1
41
1
41
1
41
1
41
1
41
1
41
1
41
1
41
1
41
1
41
1
41
1
41
1
41
1
41
1
41
1
41
1
41
1
41
1
41
1
41
1
41
1
41
1
41
1
41
1
41
1
41
1
41
1
41
1
41
1
41
1
41
1
41
1
41
1
41
1
41
1
41
1
41
1
41
1
41
1
41
1
41
1
41
1
41
1
41
1
41
1
41
1
41
1
41
1
41
1
41
1
41
1
41
1
41
1
41
1
41
1
41
1
41
1
41
1
41
1
41
1
41
1
41
1
41
1
41
1
41
1
41
1
41
1
41
1
41
1
41
1
41
1
41
1
41
1
41
1
41
1
41
1
41
1
41
1
41
1
41
1
41
1
41
1
41
1
41
1
41
1
41
1
41
1
41
1
41
1
41
1
41
1
41
1
41
1
41
1
41
1
10
-12.623429109395609
20
29.662428224762891
30
0
10
-12.611465779768146
20
29.648750419552286
30
0
10
-12.586413874289651
20
29.617593592572877
30
0
10
-12.544602709720799
20
29.559046345592435
30
0
10
-12.478234557641816
20
29.457270906968574
30
0
10
-12.377325564588912
20
29.295951633559394
30
0
10
-12.261599190022107
20
29.109337203875057
30
0
10
-12.135987032513549
20
28.907368395792584
30
0
10
-12.005667766228976
20
28.699024806498329
30
0
10
-11.874241223943422
20
28.489764484223169
30
0
10
-11.743619188753794
20
28.281599929763939
30
0
10
-11.614539453760662
20
28.074114366581838
30
0
10
-11.486876435358923
20
27.865173105840011
30
0
10
-11.360031649405332
20
27.651751728901772
30
0
10
-11.233301347437658
20
27.430737618549546
30
0
10
-11.106226918136171
20
27.199687429578496
30
0
10
-10.979022540679335
20
26.957746861269257
30
0
10
-10.852515527022515
20
26.705568939341525
30
0
10
-10.7279284381141
20
26.444908680687597
30
0
10
-10.606714513063299
20
26.178326202653736
30
0
10
-10.490369640220552
20
25.908843402468811
30
0
10
-10.380257183803964
20
25.639623420166096
30
0
10
-10.277420823382394
20
25.373633873267643
30
0
10
-10.182417675749404
20
25.113332247525019
30
0
10
-10.095102917256902
20
24.86030189329151
30
0
10
-10.014763285602005
20
24.615239229719279
30
0
10
-9.9403252292202549
20
24.378017320942483
30
0
10
-9.8705385686721119
20
24.147721678297845
30
0
10
-9.8041676564859852
20
23.922700790453504
30
0
10
-9.7401856730292966
20
23.700602883542206
30
0
10
-9.6779526446645079
20
23.478435769140667
30
0
10
-9.6174393763621033
20
23.252571843880979
30
0
10
-9.5591502974030256
20
23.019099494300349
30
0
10
-9.5039662385632866
20
22.774263603759263
30
0
10
-9.4530136877567532
20
22.514881140345715
30
0
10
-9.4075244933345257
20
22.238755648077387
30
0
10
-9.3686962118697021
20
21.945119119892791
30
0
10
-9.337560293919271
20
21.634999706188218
30
0
10
-9.3148269744719681
20
21.311775004218788
30
0
10
-9.3008134725172162
20
20.981080471732124
30
0
10
-9.2954806004356545
20
20.649882220542519
30
0
10
-9.2984421844099643
20
20.325760147801965
30
0
10
-9.3089852986443429
20
20.016104769719888
30
0
10
-9.3260862176712429
20
19.72735349098653
30
0
10
-9.3484272640879382
20
19.464204006992773
30
0
10
-9.37441533799608
20
19.228850855930563
30
0
10
-9.4021946594080568
20
19.02017959076694
30
0
10
-9.4296766955816516
20
18.833070732546094
30
0
10
-9.4550522076333809
20
18.660417296500277
30
0
10
-9.4772681346031078
20
18.494997526976032
30
0
10
-9.4965505464441549
20
18.331481166379913
30
0
10
-9.5148329608770066
20
18.16819748110661
30
0
10
-9.5364232339559791
20
18.009481206051941
30
0
10
-9.5669130658592678
20
17.863903888099522
30
0
10
-9.611612736716193
20
17.741530480533996
30
0
10
-9.6742920249657196
20
17.651599890290242
30
0
10
-9.755448838722721
20
17.599808272054666
30
0
10
-9.8522507589381387
20
17.586830076078094
30
0
10
-9.959737643744603
20
17.608303365351674
30
0
10
-10.071670068201934
20
17.653456090443086
30
0
10
-10.181486231918491
20
17.708102201428254
30
0
10
-10.283156321695227
20
17.760731555457838
30
0
10
-10.37208719479716
20
17.807829074747186
30
0
10
-10.445975546166377
20
17.859197923838956
30
0
10
-10.504235380247644
20
17.928557849950263
30
0
10
-10.547457510365037
20
18.024539980410605
30
0
10
-10.57685661376172
20
18.141591882517481
30
0
10
-10.594382199564247
20
18.267683632405859
30
0
10
-10.602766845202707
20
18.390961098806805
30
0
10
-10.605706953399213
20
18.508474040272212
30
0
10
-10.607573671860521
20
18.627716726323651
30
0
10
-10.612544442906593
20
18.759822430146627
30
0
10
-10.623960931272642
20
18.915390558454487
30
0
10
-10.643418995663671
20
19.098188265390831
30
0
10
-10.67084678225682
20
19.30499885940765
30
0
10
-10.705087074034525
20
19.528393752419021
30
0
10
-10.744316996378657
20
19.758579147445548
30
0
10
-10.786550640331349
20
19.985703058262295
30
0
10
-10.83006966505447
20
20.20178306291443
30
0
10
-10.873977810374459
20
20.403261080920917
30
0
10
-10.918183456991276
20
20.590701442894982
30
0
10
-10.963146336483966
20
20.76731757258819
30
0
10
-11.009697305741122
20
20.937855404654488
30
0
10
-11.058833500306395
20
21.107370303101366
30
0
10
-11.111510434032661
20
21.279950439454133
30
0
10
-11.168477000021573
20
21.457765856934017
30
0
10
-11.230319475389765
20
21.641635222813157
30
0
10
-11.297473941414406
20
21.831363207323871
30
0
10
-11.370252400242515
20
22.026180624389479
30
0
10
-11.448859928855155
20
22.22511032038841
30
0
10
-11.533423498418964
20
22.427441418800882
30
0
10
-11.62397763890649
20
22.632784836869398
30
0
10
-11.72042637851102
20
22.840897477478656
30
0
10
-11.822512652497711
20
23.051577578313985
30
0
10
-11.929784051812387
20
23.264529596313778
30
0
10
-12.041561386299485
20
23.479244515247537
30
0
10
-12.156902971443827
20
23.694867838100887
30
0
10
-12.274579855086351
20
23.910089768558311
30
0
10
-12.393120700889623
20
24.1231609229445
30
0
10
-12.510845598266906
20
24.331889942430553
30
0
10
-12.625910450069309
20
24.533656175631954
30
0
10
-12.736332416199229
20
24.725397313674094
30
0
10
-12.840057117070515
20
24.903651085335788
30
0
10
-12.934924581992178
20
25.064466005392006
30
0
10
-13.019013013022168
20
25.203808234511634
30
0
10
-13.091343150959379
20
25.318484959659344
30
0
10
-13.152483442769787
20
25.406863123947407
30
0
10
-13.205196818284632
20
25.469808979652328
30
0
10
-13.255066070194019
20
25.511213745017955
30
0
10
-13.308932391037382
20
25.534120253712686
30
0
10
-13.373400474563383
20
25.534825960247026
30
0
10
-13.453091314936996
20
25.504819707033185
30
0
10
-13.548472103780933
20
25.440474943736703
30
0
10
-13.654156037082792
20
25.349660351682083
30
0
10
-13.762301389974716
20
25.245852066869901
30
0
10
-13.86560532253583
20
25.142894193514636
30
0
10
-13.960617198085048
20
25.049266705441198
30
0
10
-14.050443710981286
20
24.963313595869245
30
0
10
-14.141564514402017
20
24.877792212578939
30
0
10
-14.241194198616313
20
24.7835786030086
30
0
10
-14.354235644509467
20
24.673966559005748
30
0
10
-14.480992767422361
20
24.547918662255533
30
0
10
-14.618788304386452
20
24.408022004488863
30
0
10
-14.76310507692072
20
24.259086675835015
30
0
10
-14.908951548341843
20
24.106443847756118
30
0
10
-15.052037623653902
20
23.954494188838815
30
0
10
-15.190274597440851
20
23.804833527334416
30
0
10
-15.323574260175734
20
23.656588918373835
30
0
10
-15.453105196097823
20
23.507459793342033
30
0
10
-15.580729660325414
20
23.354524300038278
30
0
10
-15.708363150188895
20
23.195146859831013
30
0
10
-15.837371846326999
20
23.027834662568839
30
0
10
-15.967940855060846
20
22.853137421994049
30
0
10
-16.099344050958265
20
22.673017570039033
30
0
10
-16.230229190572921
20
22.490188802849467
30
0
10
-16.358894412036339
20
22.307480428534205
30
0
10
-16.483575233067764
20
22.127158674692261
30
0
10
-16.602710822306005
20
21.95034177509239
30
0
10
-16.715261121784504
20
21.776179447137132
30
0
10
-16.820717803590416
20
21.602463656793944
30
0
10
-16.919025749596436
20
21.426668910644928
30
0
10
-17.010532753416712
20
21.246838000696641
30
0
10
-17.095931484807952
20
21.062556086786401
30
0
10
-17.176195439297025
20
20.875831606799878
30
0
10
-17.252541872993209
20
20.692165812443637
30
0
10
-17.325981162569196
20
20.51856325151368
30
0
10
-17.39688355646868
20
20.361432249288285
30
0
10
-17.464455502373546
20
20.224371048877401
30
0
10
-17.526445479665306
20
20.106352835322006
30
0
10
-17.578258908760091
20
19.998835967313788
30
0
10
-17.6155449354514
20
19.889274065436208
30
0
10
-17.637808830024312
20
19.766580734199646
30
0
10
-17.651780643402638
20
19.626013816841287
30
0
10
-17.674639620211885
20
19.47411783445893
30
0
10
-17.727096996327088
20
19.324327957956157
30
0
10
-17.826226713523141
20
19.192623539407311
30
0
10
-17.97932400668001
20
19.093513497079879
30
0
10
-18.175031044878139
20
19.035013896596059
30
0
10
-18.38668888853973
20
19.018271828891745
30
0
10
-18.582262182508554
20
19.039823814664111
30
0
10
-18.732818082559323
20
19.093056525121451
30
0
10
-18.820327135168938
20
19.169967467684423
30
0
10
-18.848932962249432
20
19.262874268463655
30
0
10
-18.840049269634623
20
19.365706457567832
30
0
10
-18.819033874858189
20
19.47473792272319
30
0
10
-18.801975004320685
20
19.589913614429047
30
0
10
-18.791979393247452
20
19.714281724105298
30
0
10
-18.7858248070016
20
19.851664983423934
30
0
10
-18.777346108712031
20
20.004994683572729
30
0
10
-18.762884198471394
20
20.173953084634547
30
0
10
-18.741624192752685
20
20.355370024672261
30
0
10
-18.714441297483923
20
20.54456507849725
30
0
10
-18.683182067912959
20
20.736429732434665
30
0
10
-18.64982923365632
20
20.926517112101976
30
0
10
-18.615559383447767
20
21.112376488904253
30
0
10
-18.580488633363835
20
21.293769804262684
30
0
10
-18.544081027614727
20
21.471858410724426
30
0
10
-18.505373814256792
20
21.648669505546216
30
0
10
-18.463269089199255
20
21.826467767727038
30
0
10
-18.416817768499683
20
22.0071206637367
30
0
10
-18.365443163048671
20
22.191610421567539
30
0
10
-18.308865458968675
20
22.380217022562292
30
0
10
-18.247072882204492
20
22.57259807482906
30
0
10
-18.180274859928549
20
22.767907494526547
30
0
10
-18.108862158576894
20
22.964901221037117
30
0
10
-18.033365883463532
20
23.162039299910965
30
0
10
-17.95440861823154
20
23.357631084591567
30
0
10
-17.872647753754649
20
23.550017123165674
30
0
10
-17.788722240785823
20
23.737735610228196
30
0
10
-17.703195673238973
20
23.91970491822012
30
0
10
-17.616506175463385
20
24.095376756914995
30
0
10
-17.528899994952226
20
24.264959435576372
30
0
10
-17.440446343035738
20
24.429292077487858
30
0
10
-17.351085584527386
20
24.589576182103396
30
0
10
-17.260668257734554
20
24.747145332969932
30
0
10
-17.168994424735139
20
24.903236259078923
30
0
10
-17.075861241909422
20
25.058717844913776
30
0
10
-16.981078969191138
20
25.213977217213902
30
0
10
-16.884422487257961
20
25.369127758689981
30
0
10
-16.785595781890191
20
25.524149745758752
30
0
10
-16.684193002644346
20
25.679054711948961
30
0
10
-16.57965680616746
20
25.834047225662253
30
0
10
-16.471250000241728
20
25.989665984672243
30
0
10
-16.35822260234329
20
26.146588655002031
30
0
10
-16.23995940479573
20
26.305465378515045
30
0
10
-16.116147689310086
20
26.466730270156347
30
0
10
-15.986907349752592
20
26.630447557725265
30
0
10
-15.85300888957792
20
26.796080394626074
30
0
10
-15.715771248607355
20
26.962538391351334
30
0
10
-15.576621650643075
20
27.128516561998811
30
0
10
-15.43675891713956
20
27.292748222978368
30
0
10
-15.296747179263622
20
27.4543097655908
30
0
10
-15.156202497938338
20
27.612864553503815
30
0
10
-15.013285078436605
20
27.769027610628576
30
0
10
-14.864828818856601
20
27.92433909929283
30
0
10
-14.707377147677294
20
28.08068224245984
30
0
10
-14.538004520382435
20
28.23983339012613
30
0
10
-14.355214027084976
20
28.402963453699819
30
0
10
-14.15982688631239
20
28.570149104389863
30
0
10
-13.955818367387554
20
28.739905543009861
30
0
10
-13.751333402754453
20
28.90863958051602
30
0
10
-13.55676895533075
20
29.071387252116587
30
0
10
-13.382549219658131
20
29.222671817915597
30
0
10
-13.237137042794005
20
29.357290565588166
30
0
10
-13.124663181003486
20
29.471193987817671
30
0
10
-13.043377478119289
20
29.562179980462933
30
0
10
-12.982095604790629
20
29.631034852596233
30
0
10
-12.925355679749735
20
29.680661271433827
30
0
10
-12.861702423366474
20
29.714243425645908
30
0
10
-12.793610665297035
20
29.733562272660883
30
0
10
-12.73179394303944
20
29.737632954171495
30
0
10
-12.689877800392162
20
29.723996721278475
30
0
10
-12.658193852054467
20
29.699660423836516
30
0
10
-12.635392439023081
20
29.676106029973507
30
0
10
-12.623429109395609
20
29.662428224762891
30
0
0
ELLIPSE
5
103
100
AcDbEntity
8
0
100
AcDbEllipse
10
-18.048010858657364
20
-11.613949331046999
30
0
11
-0.065678851673346472
21
-3.2708068133328765
31
0.0
40
0.87700270993974061
41
0
42
6.2831853071795862
0
SPLINE
5
104
100
AcDbEntity
8
0
100
AcDbSpline
70
4
71
5
72
26
73
20
74
0
42
0.000000001
43
0.0000000001
44
0.0000000001
40
0
40
0
40
0
40
0
40
0
40
0
40
0.066666666666666666
40
0.13333333333333333
40
0.20000000000000001
40
0.26666666666666666
40
0.33333333333333331
40
0.39999999999999997
40
0.46666666666666662
40
0.53333333333333333
40
0.59999999999999998
40
0.66666666666666663
40
0.73333333333333328
40
0.79999999999999993
40
0.86666666666666659
40
0.93333333333333324
40
1
40
1
40
1
40
1
40
1
40
1
41
1
41
1
41
1
41
1
41
1
41
1
41
1
41
1
41
1
41
1
41
1
41
1
41
1
41
1
41
1
41
1
41
1
41
1
41
1
41
1
10
-10.158468802144842
20
13.393937360496142
30
0
10
-10.163822864483942
20
13.424871855424428
30
0
10
-10.174858515765779
20
13.485641917245903
30
0
10
-10.192394503778209
20
13.573500405829657
30
0
10
-10.217755757857422
20
13.684002274765348
30
0
10
-10.252359915605055
20
13.811985910284452
30
0
10
-10.288524330829382
20
13.933112922972533
30
0
10
-10.32339367661752
20
14.054490210806343
30
0
10
-10.352073229605416
20
14.188405231473077
30
0
10
-10.368672336044929
20
14.349687793976191
30
0
10
-10.367293609564252
20
14.553219562928604
30
0
10
-10.343034659745038
20
14.811418122141237
30
0
10
-10.293156099346403
20
15.131314605812831
30
0
10
-10.216536776002068
20
15.515894314669918
30
0
10
-10.113093074257321
20
15.96553122565885
30
0
10
-9.9833350036853261
20
16.479086148645887
30
0
10
-9.8590516760949001
20
16.939707284728314
30
0
10
-9.754599675278504
20
17.312502491688264
30
0
10
-9.6800058272727245
20
17.573091098595068
30
0
10
-9.6414691019506442
20
17.706400034082435
30
0
0
SPLINE
5
105
100
AcDbEntity
8
0
100
AcDbSpline
70
4
71
5
72
26
73
20
74
0
42
0.000000001
43
0.0000000001
44
0.0000000001
40
0
40
0
40
0
40
0
40
0
40
0
40
0.066666666666666666
40
0.13333333333333333
40
0.20000000000000001
40
0.26666666666666666
40
0.33333333333333331
40
0.39999999999999997
40
0.46666666666666662
40
0.53333333333333333
40
0.59999999999999998
40
0.66666666666666663
40
0.73333333333333328
40
0.79999999999999993
40
0.86666666666666659
40
0.93333333333333324
40
1
40
1
40
1
40
1
40
1
40
1
41
1
41
1
41
1
41
1
41
1
41
1
41
1
41
1
41
1
41
1
41
1
41
1
41
1
41
1
41
1
41
1
41
1
41
1
41
1
41
1
10
-18.782988369189823
20
19.897334449837174
30
0
10
-18.806499389115018
20
19.909975656458784
30
0
10
-18.847286952759681
20
19.923448772597496
30
0
10
-18.889769736465947
20
19.908233586736667
30
0
10
-18.908701937233779
20
19.816555452820861
30
0
10
-18.872061228335479
20
19.582453356391348
30
0
10
-18.784927750034459
20
19.232304225139938
30
0
10
-18.671004665963434
20
18.778471232621023
30
0
10
-18.565522992524734
20
18.24227075914774
30
0
10
-18.505300832502773
20
17.650707335008725
30
0
10
-18.522671279564666
20
17.034386857852265
30
0
10
-18.634217275657367
20
16.425822663436115
30
0
10
-18.838973626349013
20
15.856539074932956
30
0
10
-19.092526382317509
20
15.357704832051102
30
0
10
-19.358007125039343
20
14.948238872943092
30
0
10
-19.617219907370963
20
14.636681433211631
30
0
10
-19.811638266232709
20
14.467792513495848
30
0
10
-19.949035490349335
20
14.385989624811311
30
0
10
-20.036894214548205
20
14.351252970532226
30
0
10
-20.079890217938903
20
14.338834116213535
30
0
0
ENDSEC
0
SECTION
2
OBJECTS
0
DICTIONARY
5
C
100
AcDbDictionary
3
ACAD_GROUP
350
D
3
ACAD_MLINESTYLE
350
17
0
DICTIONARY
5
D
100
AcDbDictionary
0
DICTIONARY
5
1A
330
C
100
AcDbDictionary
0
DICTIONARY
5
17
100
AcDbDictionary
0
ENDSEC
0
EOF
