<svg id="svg" xmlns="http://www.w3.org/2000/svg" xmlns:xlink="http://www.w3.org/1999/xlink" width="400" height="266.5625" viewBox="0, 0, 400,266.5625"><g id="svgg"><path id="path0" d="M153.125 23.785 C 151.162 23.899,149.377 24.182,148.682 24.488 C 148.043 24.770,147.263 25.000,146.949 25.000 C 144.294 25.000,136.406 30.574,133.461 34.531 C 129.747 39.523,129.219 41.448,129.219 50.000 C 129.219 58.102,129.554 59.740,131.528 61.288 C 132.248 61.853,132.362 62.207,132.500 64.323 L 132.656 66.719 134.896 66.810 C 137.072 66.899,137.145 66.928,137.463 67.840 C 137.643 68.357,138.090 69.159,138.456 69.624 L 139.123 70.469 136.227 70.625 C 134.547 70.716,133.284 70.924,133.219 71.122 C 133.120 71.420,136.835 75.276,139.063 77.189 C 139.492 77.558,140.335 78.306,140.936 78.851 C 141.536 79.395,142.867 80.540,143.894 81.395 C 144.921 82.249,145.985 83.164,146.258 83.427 C 146.532 83.691,148.224 85.028,150.018 86.399 C 153.580 89.121,153.592 89.222,150.387 89.338 C 149.173 89.382,146.571 90.459,141.563 92.991 C 140.273 93.643,138.234 94.672,137.031 95.279 C 135.828 95.886,134.773 96.477,134.688 96.594 C 134.602 96.710,134.039 97.029,133.438 97.302 C 132.836 97.576,132.133 97.931,131.875 98.090 C 130.810 98.751,126.662 101.121,125.938 101.483 C 125.508 101.699,124.734 102.156,124.219 102.500 C 123.703 102.845,122.848 103.329,122.319 103.576 C 121.790 103.824,121.175 104.245,120.952 104.513 C 120.730 104.781,120.428 105.000,120.280 105.000 C 120.133 105.000,119.218 105.527,118.248 106.172 C 117.278 106.816,116.255 107.487,115.976 107.661 C 114.264 108.731,112.642 109.877,112.552 110.078 C 112.495 110.207,112.296 110.313,112.110 110.313 C 111.923 110.312,111.548 110.532,111.276 110.800 C 111.004 111.068,110.024 111.845,109.099 112.526 C 101.507 118.117,101.732 119.497,111.523 127.424 C 120.171 134.427,123.591 137.269,123.698 137.544 C 123.755 137.692,123.996 137.812,124.234 137.813 C 124.471 137.813,124.816 138.094,125.000 138.438 C 125.184 138.781,125.481 139.063,125.660 139.063 C 125.839 139.063,126.417 139.494,126.943 140.020 L 127.901 140.978 111.060 140.880 L 94.219 140.781 94.139 171.487 L 94.059 202.192 114.139 202.112 L 134.219 202.031 134.303 195.039 C 134.362 190.145,134.280 187.918,134.030 187.617 C 133.739 187.266,131.455 187.188,121.524 187.188 L 109.375 187.188 109.375 182.504 L 109.375 177.821 119.453 177.739 L 129.531 177.656 129.531 170.938 L 129.531 164.219 119.453 164.136 L 109.375 164.054 109.375 160.152 L 109.375 156.250 120.703 156.246 C 126.934 156.243,132.328 156.162,132.690 156.065 C 133.449 155.861,134.157 158.905,134.722 164.801 C 134.885 166.496,135.295 169.308,135.633 171.051 C 135.971 172.793,136.248 174.781,136.248 175.469 C 136.248 176.156,136.520 178.336,136.853 180.313 C 137.186 182.289,137.693 185.594,137.981 187.656 C 139.057 195.382,139.038 194.738,138.204 195.456 C 136.741 196.714,137.125 200.315,138.847 201.484 C 141.508 203.291,145.313 201.572,145.313 198.564 L 145.313 197.721 146.032 198.498 C 146.772 199.296,151.611 201.775,153.281 202.212 C 153.797 202.346,154.992 202.676,155.938 202.943 C 164.379 205.334,175.546 202.020,181.875 195.246 C 186.084 190.740,187.161 188.406,185.452 187.491 C 185.032 187.266,184.688 186.965,184.688 186.822 C 184.688 186.679,184.478 186.563,184.221 186.563 C 183.965 186.563,183.580 186.281,183.365 185.938 C 183.150 185.594,182.853 185.313,182.703 185.313 C 182.554 185.313,182.131 185.035,181.763 184.695 C 180.993 183.985,177.710 181.392,176.413 180.469 C 175.930 180.125,175.313 179.598,175.042 179.297 C 174.771 178.996,174.385 178.750,174.186 178.750 C 173.986 178.750,173.744 178.996,173.647 179.297 C 173.395 180.083,171.629 183.119,170.784 184.219 C 170.121 185.082,169.748 185.474,168.207 186.925 C 164.451 190.463,156.749 188.196,153.703 182.656 C 146.556 169.656,154.977 150.826,165.738 155.748 C 168.116 156.836,172.188 161.096,172.188 162.497 C 172.188 163.462,173.155 162.905,177.879 159.223 C 179.205 158.189,181.139 156.718,182.176 155.954 C 183.214 155.190,184.063 154.343,184.063 154.072 C 184.063 153.557,181.698 149.236,180.918 148.324 C 177.431 144.252,172.938 141.282,169.219 140.591 C 168.531 140.464,167.336 140.192,166.563 139.988 C 164.536 139.452,158.292 139.515,156.563 140.089 C 155.789 140.345,154.682 140.641,154.102 140.746 C 151.809 141.162,145.280 145.060,144.734 146.339 C 144.674 146.480,144.306 146.905,143.918 147.282 C 143.102 148.076,140.652 151.376,140.084 152.447 C 139.796 152.991,139.776 153.704,140.004 155.260 C 140.172 156.406,140.600 159.805,140.955 162.813 C 141.309 165.820,141.888 170.320,142.242 172.813 C 142.595 175.305,142.996 178.539,143.134 180.000 C 143.271 181.461,143.599 184.133,143.863 185.938 C 144.126 187.742,144.495 190.555,144.681 192.188 C 144.868 193.820,145.087 195.578,145.168 196.094 C 145.249 196.609,145.227 196.820,145.119 196.563 C 144.819 195.849,143.367 194.375,142.963 194.375 C 142.597 194.375,141.554 188.345,141.557 186.250 C 141.558 185.648,141.279 183.539,140.938 181.563 C 140.596 179.586,140.316 177.309,140.315 176.504 C 140.313 175.698,139.961 172.996,139.531 170.499 C 139.102 168.003,138.750 165.341,138.750 164.583 C 138.750 163.826,138.522 161.958,138.243 160.432 C 137.261 155.060,137.209 151.949,138.085 150.881 C 138.271 150.654,139.148 149.488,140.033 148.290 C 143.044 144.214,146.174 141.458,149.766 139.719 C 151.522 138.869,151.875 138.569,151.875 137.929 C 151.875 135.598,153.458 127.226,154.881 122.031 C 156.633 115.631,156.968 114.453,157.497 112.813 C 157.802 111.867,158.429 109.828,158.892 108.281 C 159.354 106.734,159.991 104.695,160.307 103.750 C 160.623 102.805,161.266 100.766,161.735 99.219 C 162.204 97.672,162.836 95.703,163.139 94.844 C 163.443 93.984,163.766 93.045,163.858 92.756 C 163.968 92.414,164.523 92.157,165.454 92.017 C 166.240 91.899,167.264 91.503,167.730 91.136 C 168.951 90.176,172.391 90.194,174.450 91.172 C 175.264 91.559,176.073 91.875,176.248 91.875 C 176.422 91.875,177.090 92.156,177.731 92.500 C 178.372 92.844,179.071 93.125,179.284 93.125 C 179.497 93.125,180.272 93.390,181.007 93.715 C 181.742 94.039,183.188 94.661,184.219 95.096 C 185.250 95.532,187.446 96.462,189.100 97.163 C 190.753 97.864,192.229 98.437,192.381 98.437 C 192.532 98.436,193.254 98.717,193.984 99.062 C 194.715 99.406,195.910 99.969,196.641 100.313 C 197.371 100.658,198.083 100.939,198.222 100.938 C 198.362 100.938,199.206 101.266,200.097 101.667 C 200.989 102.068,202.492 102.721,203.438 103.119 C 204.383 103.517,205.752 104.103,206.481 104.421 C 207.210 104.740,207.899 105.000,208.013 105.000 C 208.631 105.000,224.083 113.008,224.733 113.666 C 225.345 114.285,224.606 115.251,221.799 117.500 C 220.405 118.617,218.931 119.848,218.524 120.234 C 218.117 120.621,217.651 120.938,217.488 120.938 C 217.326 120.938,217.017 121.219,216.802 121.563 C 216.588 121.906,216.295 122.188,216.152 122.188 C 216.009 122.188,214.672 123.182,213.181 124.398 C 211.689 125.613,210.221 126.809,209.918 127.054 C 209.616 127.299,209.234 127.500,209.070 127.500 C 208.906 127.500,208.621 127.781,208.438 128.125 C 208.254 128.469,207.897 128.750,207.645 128.750 C 207.393 128.750,207.188 128.874,207.188 129.026 C 207.188 129.178,206.551 129.775,205.773 130.354 C 204.994 130.933,202.525 132.848,200.286 134.609 C 195.564 138.324,196.110 138.152,194.100 136.562 C 193.230 135.875,192.379 135.312,192.208 135.312 C 190.864 135.313,192.178 132.146,193.932 131.156 C 194.176 131.019,194.375 130.702,194.375 130.453 C 194.375 130.204,194.491 130.000,194.633 130.000 C 194.775 130.000,195.654 129.053,196.586 127.896 C 198.211 125.880,199.290 124.632,200.578 123.281 C 200.906 122.938,201.663 122.004,202.261 121.207 C 203.424 119.655,203.511 119.550,205.178 117.685 C 206.747 115.928,207.203 116.272,196.406 111.077 C 188.984 107.506,181.150 103.699,179.957 103.085 C 178.711 102.443,177.946 102.344,177.671 102.788 C 176.941 103.970,176.048 114.872,175.622 127.813 C 175.182 141.141,175.078 139.804,176.641 140.839 C 177.371 141.323,179.120 142.880,180.527 144.299 C 182.054 145.840,183.170 146.742,183.296 146.538 C 183.503 146.203,183.224 141.265,182.941 140.277 C 182.833 139.897,183.166 139.673,184.289 139.368 C 185.110 139.146,186.413 138.634,187.185 138.232 C 189.043 137.263,188.999 137.253,190.895 139.139 L 192.542 140.777 191.786 141.404 C 190.476 142.491,189.773 142.904,188.066 143.590 C 186.862 144.074,186.406 144.423,186.406 144.863 C 186.406 145.791,189.891 145.718,192.140 144.743 C 194.164 143.866,194.232 143.913,193.461 145.655 C 191.897 149.188,189.474 150.716,186.604 149.980 C 184.708 149.495,184.393 149.684,185.261 150.787 C 186.146 151.912,187.022 154.978,186.583 155.417 C 186.061 155.939,186.191 157.422,186.869 158.688 C 191.266 166.897,191.251 166.721,188.221 174.219 C 186.626 178.167,186.161 179.269,185.436 180.812 C 184.337 183.154,184.456 183.689,186.426 185.234 C 188.653 186.982,188.677 186.960,190.612 181.563 C 190.828 180.961,191.206 179.906,191.454 179.219 C 191.701 178.531,192.178 177.373,192.514 176.644 C 192.850 175.915,193.130 175.142,193.136 174.925 C 193.141 174.709,193.418 173.969,193.750 173.281 C 194.082 172.594,194.359 171.859,194.364 171.649 C 194.370 171.439,194.655 170.665,194.998 169.930 C 195.341 169.195,196.480 166.414,197.529 163.750 C 198.579 161.086,199.705 158.238,200.031 157.422 C 200.358 156.605,200.888 155.270,201.210 154.453 C 201.532 153.637,202.024 152.547,202.302 152.031 C 202.581 151.516,202.810 150.922,202.811 150.711 C 202.812 150.352,203.119 149.617,204.864 145.781 C 205.256 144.922,205.811 143.656,206.100 142.969 C 208.109 138.178,208.211 138.047,216.711 129.440 C 226.154 119.877,226.022 120.016,227.611 118.035 C 230.117 114.911,229.525 110.798,226.317 109.060 C 225.679 108.714,224.945 108.314,224.688 108.170 C 222.737 107.086,221.514 106.485,217.969 104.871 C 216.594 104.245,214.906 103.469,214.219 103.146 C 213.531 102.823,212.125 102.176,211.094 101.709 C 210.063 101.241,208.164 100.372,206.875 99.777 C 205.586 99.182,203.758 98.342,202.813 97.910 C 201.867 97.478,200.531 96.862,199.844 96.542 C 195.791 94.655,192.436 93.125,192.349 93.125 C 192.294 93.125,191.005 92.554,189.484 91.856 C 185.029 89.811,184.141 89.409,182.649 88.763 C 181.872 88.427,180.641 87.867,179.915 87.518 C 179.188 87.170,178.039 86.695,177.361 86.464 C 175.778 85.923,175.698 85.600,176.861 84.437 C 177.385 83.914,177.813 83.368,177.813 83.224 C 177.813 83.080,178.094 82.787,178.438 82.573 C 178.781 82.358,179.063 81.984,179.063 81.742 C 179.063 81.500,179.168 81.255,179.297 81.198 C 179.690 81.023,181.875 78.197,181.875 77.864 C 181.875 77.692,181.982 77.505,182.113 77.448 C 182.436 77.307,186.558 71.430,188.989 67.646 C 189.206 67.308,189.663 66.609,190.003 66.094 C 191.069 64.481,189.883 63.750,186.201 63.750 C 185.113 63.750,184.966 63.672,185.167 63.203 C 187.241 58.348,187.241 45.671,185.167 41.694 C 184.905 41.192,184.690 40.610,184.689 40.402 C 184.687 39.985,183.371 37.511,182.455 36.202 C 182.136 35.746,181.875 35.258,181.875 35.119 C 181.875 34.980,181.597 34.580,181.258 34.230 C 179.264 32.175,177.104 30.085,176.490 29.615 C 176.100 29.317,175.429 28.806,174.999 28.481 C 174.569 28.155,173.303 27.435,172.187 26.879 C 171.070 26.324,169.903 25.739,169.594 25.579 C 169.285 25.419,168.441 25.160,167.719 25.003 C 166.997 24.846,165.703 24.519,164.844 24.275 C 162.973 23.744,157.649 23.521,153.125 23.785 M162.969 27.461 C 171.345 28.554,180.539 36.131,181.975 43.125 C 182.064 43.555,182.350 44.659,182.611 45.580 L 183.086 47.253 182.246 47.074 C 173.711 45.256,165.090 45.008,138.828 45.826 C 131.567 46.052,132.045 46.291,133.109 42.969 C 135.022 36.995,140.379 31.338,146.943 28.359 L 148.105 27.832 147.457 29.074 C 147.102 29.757,146.682 30.395,146.525 30.492 C 146.369 30.589,146.030 31.115,145.772 31.662 C 145.514 32.209,144.848 33.430,144.292 34.375 C 143.736 35.320,142.877 37.008,142.384 38.125 C 141.890 39.242,141.360 40.405,141.205 40.710 C 141.050 41.014,140.837 41.893,140.732 42.663 L 140.540 44.063 145.875 44.063 C 152.415 44.063,152.701 43.978,152.897 41.973 C 153.275 38.099,159.094 26.574,160.431 27.050 C 160.624 27.119,161.766 27.304,162.969 27.461 M148.052 52.335 C 148.098 52.374,148.292 53.620,148.484 55.103 C 149.128 60.093,150.341 60.921,157.365 61.164 C 164.463 61.410,166.563 59.872,166.563 54.422 L 166.563 52.188 168.750 52.188 L 170.938 52.188 170.938 54.307 C 170.938 55.473,170.745 57.125,170.510 57.979 C 170.275 58.833,169.863 60.330,169.595 61.306 C 166.541 72.436,153.572 79.500,146.450 73.915 C 144.754 72.584,140.938 67.625,140.938 66.752 C 140.938 66.694,141.605 66.394,142.422 66.084 C 144.484 65.300,147.188 63.389,147.188 62.714 C 147.188 62.530,146.486 62.497,145.391 62.628 C 140.522 63.211,136.413 63.388,136.182 63.025 C 135.315 61.659,137.883 56.760,141.142 53.566 L 142.765 51.976 145.367 52.120 C 146.798 52.199,148.006 52.296,148.052 52.335 M182.284 52.805 C 182.851 53.325,182.911 56.554,182.376 57.741 C 181.668 59.312,178.739 60.931,174.663 62.004 L 173.233 62.380 173.954 58.925 C 174.351 57.024,174.678 54.749,174.682 53.869 L 174.688 52.270 178.359 52.422 C 180.379 52.505,182.145 52.677,182.284 52.805 M159.832 64.971 C 159.101 65.679,151.472 68.020,148.914 68.321 C 146.780 68.571,146.584 69.246,148.560 69.542 C 153.433 70.273,158.855 69.087,160.307 66.973 C 161.217 65.648,160.827 64.007,159.832 64.971 M182.161 69.297 C 181.775 69.941,181.272 70.691,181.042 70.962 C 180.813 71.233,180.625 71.620,180.625 71.821 C 180.625 72.023,180.498 72.188,180.343 72.188 C 180.188 72.188,179.774 72.675,179.422 73.272 C 179.070 73.868,177.756 75.709,176.501 77.363 C 175.246 79.017,174.078 80.584,173.906 80.845 C 173.734 81.107,173.242 81.706,172.813 82.177 C 172.383 82.648,171.117 84.044,170.000 85.281 C 168.393 87.059,166.156 88.750,165.410 88.750 C 165.127 88.750,165.407 87.504,165.938 86.406 C 166.270 85.719,166.546 84.976,166.552 84.755 C 166.558 84.535,166.914 83.660,167.344 82.813 C 167.773 81.965,168.125 81.068,168.125 80.821 C 168.125 80.574,168.388 79.831,168.709 79.170 C 169.031 78.509,169.652 77.125,170.089 76.094 C 170.527 75.063,171.094 73.727,171.350 73.125 C 171.606 72.523,172.018 71.539,172.266 70.937 L 172.716 69.842 176.749 69.110 C 178.967 68.707,180.922 68.332,181.094 68.276 C 181.266 68.220,181.734 68.163,182.135 68.150 L 182.863 68.125 182.161 69.297 M144.642 106.016 C 144.135 106.918,143.375 108.219,142.955 108.906 C 142.534 109.594,141.671 111.070,141.035 112.188 C 140.400 113.305,139.786 114.289,139.670 114.375 C 139.554 114.461,139.155 115.094,138.784 115.781 C 138.413 116.469,137.811 117.523,137.447 118.125 C 134.220 123.462,131.875 128.504,131.875 130.109 C 131.875 131.516,131.552 131.547,130.546 130.234 C 129.814 129.280,128.093 127.300,127.081 126.250 C 126.832 125.992,125.492 124.382,124.103 122.673 C 121.204 119.106,121.199 119.220,124.354 117.433 C 125.311 116.891,126.164 116.367,126.250 116.270 C 126.439 116.055,129.682 114.063,129.842 114.063 C 129.905 114.063,130.803 113.500,131.838 112.813 C 132.873 112.125,133.845 111.563,133.999 111.563 C 134.152 111.563,134.533 111.281,134.844 110.938 C 135.155 110.594,135.521 110.313,135.658 110.313 C 135.794 110.313,137.214 109.476,138.812 108.454 C 140.411 107.431,142.422 106.221,143.281 105.765 C 144.141 105.308,144.977 104.808,145.141 104.655 C 145.647 104.178,145.593 104.325,144.642 106.016 M186.344 111.144 C 186.481 111.374,186.724 111.563,186.884 111.563 C 187.044 111.563,188.943 112.758,191.103 114.219 C 193.263 115.680,195.157 116.875,195.312 116.875 C 195.467 116.875,195.706 117.054,195.844 117.273 C 195.981 117.491,196.774 118.105,197.605 118.637 L 199.117 119.604 198.075 120.817 C 197.501 121.485,196.960 122.102,196.871 122.188 C 196.782 122.273,196.008 123.222,195.151 124.296 C 194.295 125.369,193.488 126.248,193.359 126.249 C 193.230 126.249,193.125 126.454,193.125 126.703 C 193.125 126.952,192.926 127.269,192.683 127.406 C 192.439 127.544,191.831 128.172,191.330 128.803 L 190.421 129.950 189.743 129.116 C 189.370 128.657,188.501 127.438,187.811 126.406 C 187.121 125.375,186.174 123.969,185.707 123.281 C 185.239 122.594,184.713 121.805,184.538 121.529 C 183.245 119.493,182.367 118.266,182.141 118.177 C 181.995 118.120,181.875 115.893,181.875 113.228 L 181.875 108.384 183.984 109.555 C 185.145 110.199,186.206 110.914,186.344 111.144 M183.544 126.563 C 184.368 128.107,185.329 129.732,185.635 130.097 C 187.247 132.020,187.812 133.531,187.084 133.969 C 186.855 134.106,186.257 134.961,185.756 135.868 C 184.600 137.959,183.645 138.055,183.504 136.094 C 183.455 135.406,183.068 132.863,182.645 130.442 C 182.221 128.021,181.878 125.630,181.882 125.129 L 181.889 124.219 182.508 125.000 C 182.848 125.430,183.315 126.133,183.544 126.563 M271.250 139.583 C 261.386 140.351,252.237 146.760,247.903 155.938 C 246.342 159.243,245.938 160.225,245.938 160.707 C 245.938 160.959,245.630 162.344,245.254 163.785 C 243.845 169.185,244.438 178.021,246.584 183.600 C 246.916 184.462,247.188 185.309,247.188 185.480 C 247.188 185.652,247.539 186.310,247.969 186.942 C 248.398 187.574,248.750 188.234,248.750 188.407 C 248.750 189.620,253.619 195.363,256.510 197.559 C 257.484 198.299,258.356 199.005,258.448 199.127 C 258.540 199.250,259.876 199.970,261.417 200.727 C 275.454 207.624,291.608 201.663,298.952 186.875 C 300.892 182.969,302.135 177.845,302.402 172.656 C 302.555 169.672,302.456 168.767,301.243 162.097 C 301.094 161.275,300.753 160.163,300.486 159.628 C 300.219 159.092,300.000 158.511,300.000 158.336 C 300.000 157.982,298.118 153.996,297.834 153.750 C 297.735 153.664,297.149 152.819,296.530 151.872 C 293.262 146.867,286.253 141.865,280.781 140.634 C 280.094 140.479,278.969 140.217,278.281 140.052 C 276.725 139.679,273.115 139.438,271.250 139.583 M200.995 140.569 C 201.468 140.760,201.436 140.955,200.666 142.522 L 199.812 144.262 198.650 143.491 C 196.736 142.221,198.780 139.674,200.995 140.569 M77.667 140.938 L 74.240 141.094 74.024 142.031 C 73.904 142.547,73.662 143.672,73.486 144.531 C 73.082 146.496,72.306 149.550,71.534 152.210 C 71.206 153.339,70.938 154.514,70.938 154.821 C 70.938 155.127,70.605 156.524,70.199 157.924 C 69.793 159.323,69.152 161.664,68.775 163.125 C 68.397 164.586,67.756 166.977,67.350 168.438 C 66.945 169.898,66.314 172.359,65.949 173.906 C 65.584 175.453,65.030 177.773,64.717 179.063 L 64.150 181.406 63.945 180.156 C 63.833 179.469,63.470 177.992,63.139 176.875 C 62.808 175.758,62.403 174.281,62.239 173.594 C 62.074 172.906,61.564 170.938,61.106 169.219 C 59.267 162.328,57.101 153.836,56.881 152.656 C 56.753 151.969,56.427 150.563,56.156 149.531 C 55.886 148.500,55.273 146.145,54.794 144.297 L 53.923 140.938 45.712 140.938 L 37.500 140.938 37.500 141.990 C 37.500 142.568,37.767 143.728,38.092 144.568 C 38.418 145.407,39.068 147.359,39.535 148.906 C 40.003 150.453,40.638 152.492,40.947 153.438 C 41.255 154.383,41.891 156.422,42.360 157.969 C 42.829 159.516,43.454 161.484,43.749 162.344 C 44.044 163.203,44.678 165.172,45.159 166.719 C 45.639 168.266,46.292 170.218,46.610 171.057 C 46.928 171.897,47.191 172.881,47.195 173.245 C 47.199 173.609,47.550 174.750,47.975 175.781 C 48.400 176.813,48.748 177.884,48.749 178.161 C 48.749 178.439,49.012 179.353,49.333 180.193 C 49.654 181.032,50.299 182.984,50.767 184.531 C 51.235 186.078,51.868 188.117,52.174 189.063 C 52.480 190.008,53.115 192.047,53.586 193.594 C 54.057 195.141,54.697 197.109,55.008 197.969 C 55.319 198.828,55.732 200.131,55.926 200.865 L 56.278 202.198 64.112 202.115 L 71.945 202.031 72.500 200.469 C 73.418 197.883,75.000 192.667,75.000 192.226 C 75.000 191.999,75.202 191.370,75.448 190.828 C 75.695 190.287,76.098 189.070,76.344 188.125 C 76.590 187.180,77.012 185.773,77.283 185.000 C 77.553 184.227,78.086 182.539,78.466 181.250 C 78.846 179.961,79.471 177.922,79.855 176.719 C 80.239 175.516,80.833 173.617,81.176 172.500 C 81.520 171.383,82.153 169.344,82.585 167.969 C 83.017 166.594,83.686 164.414,84.073 163.125 C 84.461 161.836,85.026 160.008,85.330 159.063 C 85.634 158.117,86.268 156.078,86.740 154.531 C 87.212 152.984,87.857 150.975,88.174 150.066 C 88.491 149.158,88.750 148.155,88.750 147.839 C 88.750 147.522,89.093 146.508,89.512 145.585 C 89.932 144.662,90.318 143.245,90.372 142.436 L 90.469 140.966 85.781 140.873 C 83.203 140.823,79.552 140.852,77.667 140.938 M210.103 141.484 C 209.825 142.285,208.181 146.184,207.436 147.813 C 207.082 148.586,206.551 149.781,206.256 150.469 C 205.961 151.156,205.329 152.582,204.851 153.636 C 203.664 156.254,203.713 156.290,208.387 156.230 L 212.344 156.179 212.400 179.105 L 212.457 202.031 220.057 202.031 L 227.656 202.031 227.736 179.146 L 227.817 156.262 235.080 156.178 L 242.344 156.094 242.427 148.516 L 242.511 140.938 226.402 140.938 C 211.341 140.938,210.281 140.973,210.103 141.484 M308.125 171.563 L 308.125 202.188 315.781 202.188 L 323.438 202.188 323.438 192.188 L 323.438 182.188 327.031 182.188 C 329.587 182.188,330.625 182.294,330.625 182.557 C 330.625 182.760,331.265 184.272,332.047 185.916 C 332.829 187.561,333.722 189.469,334.031 190.156 C 334.341 190.844,334.976 192.250,335.444 193.281 C 336.471 195.548,337.107 196.966,338.388 199.844 L 339.362 202.031 347.806 202.114 C 353.907 202.174,356.250 202.100,356.250 201.846 C 356.250 201.652,355.847 200.701,355.353 199.731 C 353.087 195.276,345.737 179.933,345.490 179.141 C 345.352 178.698,345.401 178.438,345.623 178.438 C 347.347 178.438,352.119 171.736,352.855 168.281 C 353.038 167.422,353.308 166.156,353.455 165.469 C 354.379 161.149,352.221 150.539,350.256 149.740 C 350.115 149.682,350.000 149.449,350.000 149.222 C 350.000 148.317,345.506 144.637,342.892 143.401 C 338.202 141.183,336.024 140.938,321.071 140.938 L 308.125 140.938 308.125 171.563 M197.536 147.767 C 197.967 148.524,197.980 148.766,197.626 149.406 C 197.397 149.819,197.205 150.369,197.199 150.630 C 197.192 150.890,196.906 151.628,196.563 152.269 C 196.219 152.910,195.938 153.572,195.938 153.740 C 195.938 153.907,195.586 154.813,195.156 155.752 C 194.727 156.691,194.375 157.615,194.375 157.805 C 194.375 158.384,193.116 160.657,192.879 160.506 C 192.647 160.358,192.312 159.709,190.633 156.150 C 190.079 154.978,189.676 153.994,189.735 153.963 C 189.795 153.932,190.372 153.638,191.017 153.310 C 192.035 152.791,193.711 151.317,194.893 149.897 C 195.092 149.659,195.552 148.881,195.915 148.169 C 196.696 146.638,196.870 146.595,197.536 147.767 M277.883 155.902 C 286.019 159.644,289.512 171.342,285.125 180.156 C 282.854 184.719,280.384 186.944,276.406 188.011 C 273.689 188.740,269.138 188.231,267.836 187.052 C 267.538 186.783,267.146 186.563,266.964 186.563 C 265.350 186.563,261.493 180.472,260.434 176.250 C 257.276 163.659,267.875 151.299,277.883 155.902 M333.702 155.986 C 336.599 156.654,338.125 158.845,338.125 162.336 C 338.125 167.232,335.801 168.767,328.047 168.995 L 323.438 169.131 323.438 162.378 L 323.438 155.625 327.789 155.625 C 330.182 155.625,332.843 155.787,333.702 155.986 M296.908 194.440 C 294.443 195.770,294.473 199.938,296.958 201.405 C 300.196 203.319,303.683 200.634,302.960 196.783 C 302.544 194.566,299.127 193.243,296.908 194.440 M79.407 195.480 C 76.157 199.181,81.212 204.545,84.970 201.383 C 86.856 199.797,86.928 196.449,85.107 195.017 C 83.626 193.852,80.622 194.096,79.407 195.480 M185.560 195.234 C 183.863 197.042,184.031 200.085,185.899 201.380 C 190.250 204.395,194.740 199.013,191.156 195.078 C 190.131 193.952,186.673 194.049,185.560 195.234 M232.880 194.863 C 230.703 196.388,230.746 200.188,232.955 201.554 C 237.136 204.138,241.586 198.726,238.126 195.265 C 237.067 194.206,234.139 193.981,232.880 194.863 M362.484 195.381 C 358.993 199.203,364.378 204.635,368.270 201.218 C 369.849 199.831,369.922 196.845,368.413 195.337 C 366.954 193.877,363.836 193.901,362.484 195.381 " stroke="none" fill="#000000" fill-rule="evenodd"></path></g></svg>