M48
;Layer_Color=9474304
;FILE_FORMAT=4:4
METRIC,LZ
T11F00S00C2.0000
%
G90
G05
T11
G00X-00551999Y00049996
M15
G01X-00551998Y00049997
G01X-00551998Y00049997
G01X-00551997Y00049998
G01X-00551997Y00049998
G01X-00551996Y00049999
G01X-00551996Y0005
G01X-00551996Y0005
G01X-00551996Y00050001
G01X-00551997Y00050002
G01X-00551997Y00050002
G01X-00551998Y00050003
G01X-00551998Y00050003
G01X-00551999Y00050004
G01X-00552Y00050004
G01X-00650001Y00050004
G01X-00650002Y00050004
G01X-00650002Y00050003
G01X-00650003Y00050002
G01X-00650004Y00050002
G01X-00650004Y00050001
G01X-00650004Y00049999
G01X-00650004Y00049998
G01X-00650003Y00049998
G01X-00650002Y00049997
G01X-00650002Y00049996
G01X-00650001Y00049996
G01X-00552Y00049996
G01X-00551999Y00049996
M16
G00X-00399999Y00049996
M15
G01X-00399998Y00049997
G01X-00399998Y00049997
G01X-00399997Y00049998
G01X-00399997Y00049998
G01X-00399996Y00049999
G01X-00399996Y0005
G01X-00399996Y00183
G01X-00399996Y00183001
G01X-00399997Y00183002
G01X-00399998Y00183003
G01X-00399998Y00183004
G01X-004Y00183004
G01X-004Y00183004
G01X-00400002Y00183004
G01X-00400002Y00183003
G01X-00400003Y00183002
G01X-00400004Y00183002
G01X-00400004Y00183
G01X-00400004Y00060004
G01X-00400509Y00056867
G01X-00401972Y00054047
G01X-00404246Y00051828
G01X-00407102Y00050434
G01X-0041Y00050004
G01X-0041Y00050004
G01X-00410001Y00050004
G01X-00410002Y00050003
G01X-00410003Y00050002
G01X-00410004Y00050001
G01X-00410004Y00050001
G01X-00410004Y0005
G01X-00410004Y00049998
G01X-00410003Y00049998
G01X-00410002Y00049997
G01X-00410001Y00049996
G01X-00410001Y00049996
G01X-004Y00049996
G01X-00399999Y00049996
M16
G00X-00399998Y00216996
M15
G01X-00399998Y00216997
G01X-00399997Y00216998
G01X-00399996Y00216998
G01X-00399996Y00217
G01X-00399996Y0033
G01X-00399996Y00330001
G01X-00399997Y00330002
G01X-00399997Y00330002
G01X-00399998Y00330003
G01X-00399998Y00330003
G01X-00399999Y00330004
G01X-004Y00330004
G01X-00493001Y00330004
G01X-00493002Y00330004
G01X-00493002Y00330003
G01X-00493003Y00330002
G01X-00493004Y00330002
G01X-00493004Y0033
G01X-00493004Y00329999
G01X-00493004Y00329998
G01X-00493003Y00329998
G01X-00493002Y00329997
G01X-00493002Y00329996
G01X-00493001Y00329996
G01X-00410004Y00329996
G01X-00406867Y00329491
G01X-00404047Y00328028
G01X-00401828Y00325754
G01X-00400434Y00322898
G01X-00400004Y00319996
G01X-00400004Y00216999
G01X-00400004Y00216998
G01X-00400003Y00216998
G01X-00400002Y00216997
G01X-00400002Y00216996
G01X-00400001Y00216996
G01X-00399999Y00216996
G01X-00399998Y00216996
M16
G00X-00526999Y00329996
M15
G01X-00526998Y00329997
G01X-00526998Y00329997
G01X-00526997Y00329998
G01X-00526997Y00329998
G01X-00526996Y00329999
G01X-00526996Y0033
G01X-00526996Y0033
G01X-00526996Y00330001
G01X-00526997Y00330002
G01X-00526997Y00330002
G01X-00526998Y00330003
G01X-00526998Y00330003
G01X-00526999Y00330004
G01X-00527Y00330004
G01X-00650001Y00330004
G01X-00650002Y00330004
G01X-00650002Y00330003
G01X-00650003Y00330002
G01X-00650004Y00330002
G01X-00650004Y0033
G01X-00650004Y00329999
G01X-00650004Y00329998
G01X-00650003Y00329998
G01X-00650002Y00329997
G01X-00650002Y00329996
G01X-00650001Y00329996
G01X-00527Y00329996
G01X-00526999Y00329996
M16
G00X00267501Y-00077504
M15
G01X00267502Y-00077503
G01X00267502Y-00077503
G01X00267503Y-00077502
G01X00267503Y-00077502
G01X00267504Y-00077501
G01X00267504Y-000775
G01X00267504Y-000775
G01X00267504Y-00077499
G01X00267503Y-00077498
G01X00267503Y-00077498
G01X00267502Y-00077497
G01X00267502Y-00077497
G01X00267501Y-00077496
G01X002675Y-00077496
G01X00244999Y-00077496
G01X00244998Y-00077496
G01X00244998Y-00077497
G01X00244997Y-00077498
G01X00244996Y-00077498
G01X00244996Y-00077499
G01X00244996Y-00077501
G01X00244996Y-00077502
G01X00244997Y-00077502
G01X00244998Y-00077503
G01X00244998Y-00077504
G01X00244999Y-00077504
G01X002675Y-00077504
G01X00267501Y-00077504
M16
G00X00267501Y00084996
M15
G01X00267502Y00084997
G01X00267502Y00084997
G01X00267503Y00084998
G01X00267503Y00084998
G01X00267504Y00084999
G01X00267504Y00085
G01X00267504Y00085
G01X00267504Y00085001
G01X00267503Y00085002
G01X00267503Y00085002
G01X00267502Y00085003
G01X00267502Y00085003
G01X00267501Y00085004
G01X002675Y00085004
G01X00244999Y00085004
G01X00244998Y00085004
G01X00244998Y00085003
G01X00244997Y00085002
G01X00244996Y00085002
G01X00244996Y00085001
G01X00244996Y00084999
G01X00244996Y00084998
G01X00244997Y00084998
G01X00244998Y00084997
G01X00244998Y00084996
G01X00244999Y00084996
G01X002675Y00084996
G01X00267501Y00084996
M16
G00X-00239999Y-00000004
M15
G01X-00239998Y-00000003
G01X-00239998Y-00000003
G01X-00239997Y-00000002
G01X-00239997Y-00000002
G01X-00239996Y-00000001
G01X-00239996Y0
G01X-00239996Y0
G01X-00239996Y00000001
G01X-00239997Y00000002
G01X-00239997Y00000002
G01X-00239998Y00000003
G01X-00239998Y00000003
G01X-00239999Y00000004
G01X-0024Y00000004
G01X-0028Y00000004
G01X-00280002Y00000004
G01X-00280002Y00000003
G01X-00280003Y00000002
G01X-00280004Y00000002
G01X-00280004Y00000001
G01X-00280004Y-00000001
G01X-00280004Y-00000002
G01X-00280003Y-00000002
G01X-00280002Y-00000003
G01X-00280002Y-00000004
G01X-00280001Y-00000004
G01X-0024Y-00000004
G01X-00239999Y-00000004
M16
G00X-00224541Y-00175591
M15
G01X-0022454Y-00175591
G01X-00224539Y-0017559
G01X-00224539Y-00175589
G01X-00224538Y-00175588
G01X-00224538Y-00175587
G01X-00224538Y-00175586
G01X-00224538Y-00175586
G01X-00224541Y-00175581
G01X-00224623Y-00175475
G01X-00229469Y-00169085
G01X-00238465Y-00156142
G01X-00246731Y-00142722
G01X-00254243Y-00128865
G01X-00260977Y-00114615
G01X-00266914Y-00100013
G01X-00272034Y-00085107
G01X-00276323Y-00069939
G01X-00279766Y-00054558
G01X-00282354Y-0003901
G01X-00284079Y-00023343
G01X-00284935Y-00007605
G01X-0028492Y00008157
G01X-00284033Y00023894
G01X-00282278Y00039558
G01X-0027966Y00055101
G01X-00276186Y00070475
G01X-00271869Y00085634
G01X-00266719Y00100531
G01X-00260755Y00115121
G01X-00253992Y00129358
G01X-00246454Y001432
G01X-00238161Y00156604
G01X-00229225Y0016942
G01X-00224539Y00175585
G01X-00224539Y00175585
G01X-00224538Y00175586
G01X-00224538Y00175586
G01X-00224538Y00175587
G01X-00224538Y00175588
G01X-00224539Y00175589
G01X-00224539Y0017559
G01X-0022454Y00175591
G01X-00224541Y00175591
G01X-00224542Y00175591
G01X-00224544Y00175591
G01X-00224545Y0017559
G01X-00229402Y00169379
G01X-00238414Y00156439
G01X-00246697Y00143022
G01X-00254225Y00129166
G01X-00260976Y00114916
G01X-00266929Y00100315
G01X-00272066Y00085406
G01X-00276371Y00070237
G01X-00279831Y00054853
G01X-00282435Y00039301
G01X-00284176Y00023629
G01X-00285048Y00007884
G01X-00285048Y-00007884
G01X-00284176Y-00023629
G01X-00282435Y-00039301
G01X-00279831Y-00054853
G01X-00276371Y-00070237
G01X-00272066Y-00085406
G01X-00266929Y-00100315
G01X-00260976Y-00114916
G01X-00254225Y-00129166
G01X-00246697Y-00143022
G01X-00238414Y-00156439
G01X-00229402Y-00169379
G01X-00224545Y-0017559
G01X-00224544Y-00175591
G01X-00224542Y-00175591
G01X-00224541Y-00175591
M16
G00X00224327Y-00175867
M15
G01X00224328Y-00175867
G01X00224328Y-00175866
G01X00229202Y-0016965
G01X00238245Y-00156696
G01X00246558Y-00143262
G01X00254113Y-00129388
G01X00260888Y-00115117
G01X00266863Y-00100493
G01X00272018Y-0008556
G01X00276339Y-00070364
G01X00279812Y-00054953
G01X00282426Y-00039373
G01X00284173Y-00023673
G01X00285048Y-00007899
G01X00285048Y00007886
G01X00284176Y00023634
G01X00282434Y0003931
G01X00279829Y00054865
G01X00276367Y00070252
G01X0027206Y00085425
G01X00266921Y00100336
G01X00260965Y00114941
G01X00254211Y00129193
G01X00246679Y00143051
G01X00238393Y0015647
G01X00229377Y00169412
G01X00224518Y00175624
G01X00224517Y00175624
G01X00224516Y00175625
G01X00224515Y00175625
G01X00224514Y00175625
G01X00224514Y00175624
G01X00224513Y00175624
G01X00224512Y00175623
G01X00224512Y00175622
G01X00224512Y00175621
G01X00224512Y0017562
G01X00224514Y00175616
G01X00224597Y00175509
G01X00229445Y00169118
G01X00238444Y00156173
G01X00246714Y00142751
G01X00254229Y00128892
G01X00260967Y00114639
G01X00266906Y00100035
G01X00272028Y00085125
G01X00276319Y00069955
G01X00279764Y0005457
G01X00282353Y00039019
G01X00284078Y00023348
G01X00284934Y00007744
G01X00285039Y-00000139
G01X00284919Y-00008172
G01X00284029Y-00023938
G01X00282268Y-00039631
G01X0027964Y-00055202
G01X00276154Y-00070603
G01X0027182Y-00085788
G01X00266652Y-00100709
G01X00260666Y-00115322
G01X00253879Y-0012958
G01X00246314Y-00143441
G01X00237992Y-00156861
G01X00229025Y-00169691
G01X00224323Y-00175861
G01X00224322Y-00175861
G01X00224322Y-00175862
G01X00224322Y-00175863
G01X00224322Y-00175864
G01X00224322Y-00175865
G01X00224323Y-00175866
G01X00224324Y-00175867
G01X00224325Y-00175867
G01X00224326Y-00175867
G01X00224327Y-00175867
M16
G00X-00409998Y-00350004
M15
G01X-00409998Y-00350003
G01X-00409997Y-00350002
G01X-00409996Y-00350002
G01X-00409996Y-00350001
G01X-00409996Y-00163
G01X-00409996Y-00162999
G01X-00409997Y-00162998
G01X-00409998Y-00162997
G01X-00409998Y-00162996
G01X-0041Y-00162996
G01X-0041Y-00162996
G01X-00410002Y-00162996
G01X-00410002Y-00162997
G01X-00410003Y-00162998
G01X-00410004Y-00162998
G01X-00410004Y-00163
G01X-00410004Y-00350001
G01X-00410004Y-00350002
G01X-00410003Y-00350002
G01X-00410002Y-00350003
G01X-00410002Y-00350004
G01X-00410001Y-00350004
G01X-00409999Y-00350004
G01X-00409998Y-00350004
M16
G00X-00409998Y-00129004
M15
G01X-00409998Y-00129003
G01X-00409997Y-00129002
G01X-00409996Y-00129001
G01X-00409996Y-00129
G01X-00409996Y0005
G01X-00409996Y00050001
G01X-00409997Y00050002
G01X-00409997Y00050002
G01X-00409998Y00050003
G01X-00409998Y00050003
G01X-00409999Y00050004
G01X-0041Y00050004
G01X-00518001Y00050004
G01X-00518002Y00050004
G01X-00518002Y00050003
G01X-00518003Y00050002
G01X-00518004Y00050002
G01X-00518004Y00050001
G01X-00518004Y00049999
G01X-00518004Y00049998
G01X-00518003Y00049998
G01X-00518002Y00049997
G01X-00518002Y00049996
G01X-00518001Y00049996
G01X-00420004Y00049996
G01X-00416867Y00049491
G01X-00414047Y00048028
G01X-00411828Y00045754
G01X-00410434Y00042898
G01X-00410004Y00039996
G01X-00410004Y-00129001
G01X-00410004Y-00129002
G01X-00410003Y-00129002
G01X-00410002Y-00129003
G01X-00410002Y-00129004
G01X-00410001Y-00129004
G01X-00409999Y-00129004
G01X-00409998Y-00129004
M16
G00X00023968Y-00284151
M15
G01X00039863Y-0028236
G01X00055632Y-00279681
G01X00071226Y-00276121
G01X00086596Y-00271693
G01X00101694Y-0026641
G01X00116472Y-00260289
G01X00130883Y-00253349
G01X00144883Y-00245612
G01X00158426Y-00237102
G01X00171471Y-00227846
G01X00183977Y-00217873
G01X00195904Y-00207215
G01X00201559Y-00201559
G01X0020156Y-00201558
G01X0020156Y-00201558
G01X0020156Y-00201557
G01X0020156Y-00201556
G01X0020156Y-00201555
G01X00201559Y-00201554
G01X00201558Y-00201553
G01X00201557Y-00201553
G01X00201556Y-00201553
G01X00201555Y-00201553
G01X00201551Y-00201555
G01X00201454Y-00201652
G01X00195615Y-00207317
G01X00183683Y-00217959
G01X00171173Y-00227916
G01X00158124Y-00237155
G01X00144578Y-00245648
G01X00130577Y-00253368
G01X00116165Y-00260291
G01X00101388Y-00266395
G01X00086292Y-0027166
G01X00070924Y-00276072
G01X00055333Y-00279614
G01X00039568Y-00282277
G01X00023678Y-00284051
G01X00007714Y-00284932
G01X-00008275Y-00284916
G01X-00024237Y-00284004
G01X-00040123Y-00282198
G01X-00055883Y-00279505
G01X-00071467Y-00275931
G01X-00086826Y-0027149
G01X-00101912Y-00266195
G01X-00116677Y-00260062
G01X-00131076Y-0025311
G01X-00145061Y-00245363
G01X-00158591Y-00236843
G01X-00171621Y-00227578
G01X-00184112Y-00217597
G01X-00195923Y-0020703
G01X-00201554Y-00201554
G01X-00201554Y-00201553
G01X-00201555Y-00201553
G01X-00201556Y-00201553
G01X-00201557Y-00201553
G01X-00201558Y-00201553
G01X-00201559Y-00201553
G01X-0020156Y-00201554
G01X-0020156Y-00201555
G01X-0020156Y-00201556
G01X-0020156Y-00201557
G01X-0020156Y-00201558
G01X-0020156Y-00201559
G01X-00195904Y-00207215
G01X-00183977Y-00217873
G01X-00171471Y-00227846
G01X-00158426Y-00237102
G01X-00144883Y-00245612
G01X-00130883Y-00253349
G01X-00116472Y-00260289
G01X-00101694Y-0026641
G01X-00086596Y-00271693
G01X-00071226Y-00276121
G01X-00055632Y-00279681
G01X-00039863Y-0028236
G01X-00023968Y-00284151
G01X-00007997Y-00285048
G01X00007997Y-00285048
G01X00023968Y-00284151
M16
G00X00201557Y00201553
M15
G01X00201558Y00201553
G01X00201559Y00201554
G01X0020156Y00201555
G01X0020156Y00201556
G01X0020156Y00201557
G01X0020156Y00201558
G01X0020156Y00201558
G01X00201559Y00201559
G01X00195904Y00207215
G01X00183977Y00217873
G01X00171471Y00227846
G01X00158426Y00237102
G01X00144883Y00245612
G01X00130883Y00253349
G01X00116472Y00260289
G01X00101694Y0026641
G01X00086596Y00271693
G01X00071226Y00276121
G01X00055632Y00279681
G01X00039863Y0028236
G01X00023968Y00284151
G01X00007997Y00285048
G01X-00007997Y00285048
G01X-00023968Y00284151
G01X-00039863Y0028236
G01X-00055632Y00279681
G01X-00071226Y00276121
G01X-00086596Y00271693
G01X-00101694Y0026641
G01X-00116472Y00260289
G01X-00130883Y00253349
G01X-00144883Y00245612
G01X-00158426Y00237102
G01X-00171471Y00227846
G01X-00183977Y00217873
G01X-00195904Y00207215
G01X-0020156Y00201559
G01X-0020156Y00201558
G01X-0020156Y00201557
G01X-0020156Y00201556
G01X-0020156Y00201555
G01X-0020156Y00201554
G01X-00201559Y00201553
G01X-00201558Y00201553
G01X-00201557Y00201553
G01X-00201556Y00201553
G01X-00201555Y00201553
G01X-00201551Y00201555
G01X-00201454Y00201652
G01X-00195615Y00207317
G01X-00183683Y00217959
G01X-00171173Y00227915
G01X-00158124Y00237155
G01X-00144578Y00245648
G01X-00130577Y00253368
G01X-00116165Y00260291
G01X-00101388Y00266395
G01X-00086292Y0027166
G01X-00070924Y00276072
G01X-00055333Y00279614
G01X-00039568Y00282277
G01X-00023678Y00284051
G01X-00007714Y00284932
G01X00008275Y00284916
G01X00024237Y00284004
G01X00040123Y00282198
G01X00055883Y00279504
G01X00071467Y00275931
G01X00086826Y0027149
G01X00101912Y00266195
G01X00116677Y00260062
G01X00131076Y0025311
G01X00145061Y00245363
G01X00158591Y00236843
G01X00171621Y00227578
G01X00184112Y00217597
G01X00195923Y0020703
G01X00201554Y00201554
G01X00201554Y00201553
G01X00201555Y00201553
G01X00201556Y00201553
G01X00201557Y00201553
M16
G00X00267501Y00069996
M15
G01X00267502Y00069997
G01X00267502Y00069997
G01X00267503Y00069998
G01X00267503Y00069998
G01X00267504Y00069999
G01X00267504Y0007
G01X00267504Y0007
G01X00267504Y00070001
G01X00267503Y00070002
G01X00267503Y00070002
G01X00267502Y00070003
G01X00267502Y00070003
G01X00267501Y00070004
G01X002675Y00070004
G01X00255004Y00070004
G01X00251867Y00070509
G01X00249047Y00071972
G01X00246828Y00074246
G01X00245434Y00077102
G01X00245004Y00080004
G01X00245004Y00089996
G01X00245509Y00093133
G01X00246972Y00095953
G01X00249246Y00098172
G01X00252102Y00099566
G01X00255004Y00099996
G01X002675Y00099996
G01X00267501Y00099996
G01X00267502Y00099997
G01X00267502Y00099997
G01X00267503Y00099998
G01X00267503Y00099998
G01X00267504Y00099999
G01X00267504Y001
G01X00267504Y001
G01X00267504Y00100001
G01X00267503Y00100002
G01X00267503Y00100002
G01X00267502Y00100003
G01X00267502Y00100003
G01X00267501Y00100004
G01X002675Y00100004
G01X00245Y00100004
G01X00244999Y00100004
G01X00244998Y00100003
G01X00244998Y00100003
G01X00244997Y00100002
G01X00244997Y00100002
G01X00244996Y00100001
G01X00244996Y001
G01X00244996Y0007
G01X00244996Y00069999
G01X00244997Y00069998
G01X00244997Y00069998
G01X00244998Y00069997
G01X00244998Y00069997
G01X00244999Y00069996
G01X00245Y00069996
G01X002675Y00069996
G01X00267501Y00069996
M16
G00X00267501Y-00092504
M15
G01X00267502Y-00092503
G01X00267502Y-00092503
G01X00267503Y-00092502
G01X00267503Y-00092502
G01X00267504Y-00092501
G01X00267504Y-000925
G01X00267504Y-000925
G01X00267504Y-00092499
G01X00267503Y-00092498
G01X00267503Y-00092498
G01X00267502Y-00092497
G01X00267502Y-00092497
G01X00267501Y-00092496
G01X002675Y-00092496
G01X00255004Y-00092496
G01X00251867Y-00091991
G01X00249047Y-00090528
G01X00246828Y-00088254
G01X00245434Y-00085398
G01X00245004Y-00082496
G01X00245004Y-00072504
G01X00245509Y-00069367
G01X00246972Y-00066547
G01X00249246Y-00064328
G01X00252102Y-00062934
G01X00255004Y-00062504
G01X002675Y-00062504
G01X00267501Y-00062504
G01X00267502Y-00062503
G01X00267502Y-00062503
G01X00267503Y-00062502
G01X00267503Y-00062502
G01X00267504Y-00062501
G01X00267504Y-000625
G01X00267504Y-000625
G01X00267504Y-00062499
G01X00267503Y-00062498
G01X00267503Y-00062498
G01X00267502Y-00062497
G01X00267502Y-00062497
G01X00267501Y-00062496
G01X002675Y-00062496
G01X00245Y-00062496
G01X00244999Y-00062496
G01X00244998Y-00062497
G01X00244998Y-00062497
G01X00244997Y-00062498
G01X00244997Y-00062498
G01X00244996Y-00062499
G01X00244996Y-000625
G01X00244996Y-000925
G01X00244996Y-00092501
G01X00244997Y-00092502
G01X00244997Y-00092502
G01X00244998Y-00092503
G01X00244998Y-00092503
G01X00244999Y-00092504
G01X00245Y-00092504
G01X002675Y-00092504
G01X00267501Y-00092504
M16
G00X-00239999Y-00015004
M15
G01X-00239998Y-00015003
G01X-00239998Y-00015003
G01X-00239997Y-00015002
G01X-00239997Y-00015002
G01X-00239996Y-00015001
G01X-00239996Y-00015
G01X-00239996Y00015
G01X-00239996Y00015001
G01X-00239997Y00015002
G01X-00239997Y00015002
G01X-00239998Y00015003
G01X-00239998Y00015003
G01X-00239999Y00015004
G01X-0024Y00015004
G01X-0028Y00015004
G01X-00280002Y00015004
G01X-00280002Y00015003
G01X-00280003Y00015002
G01X-00280004Y00015002
G01X-00280004Y00015001
G01X-00280004Y00014999
G01X-00280004Y00014998
G01X-00280003Y00014998
G01X-00280002Y00014997
G01X-00280002Y00014996
G01X-00280001Y00014996
G01X-00250004Y00014996
G01X-00246867Y00014491
G01X-00244047Y00013028
G01X-00241828Y00010754
G01X-00240434Y00007898
G01X-00240004Y00004996
G01X-00240004Y-00004996
G01X-00240509Y-00008133
G01X-00241972Y-00010953
G01X-00244246Y-00013172
G01X-00247102Y-00014566
G01X-00250004Y-00014996
G01X-0028Y-00014996
G01X-00280002Y-00014996
G01X-00280002Y-00014997
G01X-00280003Y-00014998
G01X-00280004Y-00014998
G01X-00280004Y-00014999
G01X-00280004Y-00015001
G01X-00280004Y-00015002
G01X-00280003Y-00015002
G01X-00280002Y-00015003
G01X-00280002Y-00015004
G01X-00280001Y-00015004
G01X-0024Y-00015004
G01X-00239999Y-00015004
M16
G00X00006061Y-0003047
M15
G01X00009986Y-00029418
G01X0001374Y-00027863
G01X0001726Y-00025831
G01X00020483Y-00023357
G01X00023357Y-00020484
G01X00025831Y-0001726
G01X00027863Y-0001374
G01X00029418Y-00009986
G01X0003047Y-00006061
G01X00031Y-00002032
G01X00031Y00002032
G01X0003047Y00006061
G01X00029418Y00009986
G01X00027863Y0001374
G01X00025831Y0001726
G01X00023357Y00020483
G01X00020483Y00023357
G01X0001726Y00025831
G01X0001374Y00027863
G01X00009986Y00029418
G01X00006061Y0003047
G01X00002032Y00031
G01X-00002032Y00031
G01X-00006061Y0003047
G01X-00009986Y00029418
G01X-0001374Y00027863
G01X-0001726Y00025831
G01X-00020484Y00023357
G01X-00023357Y00020483
G01X-00025831Y0001726
G01X-00027863Y0001374
G01X-00029418Y00009986
G01X-0003047Y00006061
G01X-00031Y00002032
G01X-00031Y-00002032
G01X-0003047Y-00006061
G01X-00029418Y-00009986
G01X-00027863Y-0001374
G01X-00025831Y-0001726
G01X-00023357Y-00020484
G01X-00020484Y-00023357
G01X-0001726Y-00025831
G01X-0001374Y-00027863
G01X-00009986Y-00029418
G01X-00006061Y-0003047
G01X-00002032Y-00031
G01X00002032Y-00031
G01X00006061Y-0003047
M16
G00X00353137Y-00359495
M15
G01X00355957Y-00358032
G01X00358176Y-00355758
G01X0035957Y-00352902
G01X0036Y-0035
G01X0036Y0065
G01X00359495Y00653137
G01X00358032Y00655957
G01X00355758Y00658176
G01X00352902Y0065957
G01X0035Y0066
G01X-0065Y0066
G01X-00653137Y00659495
G01X-00655957Y00658032
G01X-00658176Y00655758
G01X-0065957Y00652902
G01X-0066Y0065
G01X-0066Y-0035
G01X-00659495Y-00353137
G01X-00658032Y-00355957
G01X-00655758Y-00358176
G01X-00652902Y-0035957
G01X-0065Y-0036
G01X0035Y-0036
G01X00353137Y-00359495
M16
M17
M30
