M48
;Layer_Color=9474304
;FILE_FORMAT=4:4
METRIC,LZ
;TYPE=PLATED
T01F00S00C0.3000
T02F00S00C0.5000
T03F00S00C0.8000
T04F00S00C0.8700
T05F00S00C0.9950
T06F00S00C1.4000
T07F00S00C1.6500
T08F00S00C4.0000
%
T01
X-0052Y-00239
X-000575Y-00245
X-00042
X-00049Y-00232
X00031Y-00234
X00042Y-00233
X00037Y-00255
X000826Y-0024535
X000953
X00116528Y-00228472
X00124Y-00229
X001465Y-00223
X00235Y-0011
X00179Y00169
X00155646Y00174
X00143Y00174
Y0016
X00117Y00152
X00124Y00144611
X00126Y00133611
X00117792Y00134725
X00110022Y00134978
X00102744Y00143256
X000945Y00137
X00094Y00153
X00093Y00164
X00068Y00165
X00059Y00148281
X0005Y00152
X00053Y00126
X00065Y00137
X00066Y00107
X00059Y00083
X00027Y001244
X-00065Y00137
X-0005525Y0015425
X-0007975Y00153974
X-000805Y00164974
X-0009975Y0015475
X-001368Y001554
X-00141Y00161
X-00159Y0017
X-00191Y00102
X-00191Y00092
X-00191Y00082
X-00191Y00072
Y00062
X-00165Y00048
X-00093Y00079
X-0006Y00088
X-00079661Y00108577
X-0006Y-00058
X-00069Y-0007
X-00039Y-00087
X-00024Y-0008
X-00017125Y-00088
X-0001725Y-00124374
X-00030589Y-00151698
X-000525Y-001505
X-00045389Y-00165389
X-00001Y-001654
X00029Y-00178
X0006Y-00186
X0007Y-001725
X00060724Y-00163
X000615Y-00149861
X0005975Y-00143
X00072638Y-001425
X00078Y-00138
X00077Y-00131072
X0009798Y-00137072
X00103Y-00155
X00112159Y-00165841
X0011Y-001725
X001Y-00172
X00104Y-00184
X0011536Y-00189181
X00125Y-00191
X00135Y-0020895
X00152Y-00213
X00161Y-0020325
Y-0019075
X00160474Y-00178474
X00146Y-001835
Y-00167
X0015Y-00144
X0013125Y-00137
X00127762Y-00129673
X00125Y-00107
X00158
X00091Y-00106
X0006475Y-00116
X000705Y-00085969
X0007Y-00202
X00093Y-00202187
X000995Y-00215
X00108Y-0021475
X00042Y-0021375
X-0001025Y-001995
X-0003
X-00030024Y-002105
X-00044Y-00219
X-0006Y-00201
X-000945Y-001709
X-001265
X-0014275Y-0016
X-001595Y-0015975
X-0016225Y-0017
X-00172Y-00184
X-00174Y-00195
X-00170172Y-00097
X-00170172Y-00087
X-00168612Y-000795
X-00170172Y-00067
X-0018Y-00054
X-00194Y-00077
X-00132526Y-0012
X-0006Y-00126
X-0006849Y-0014051
X0013101Y-00154341
X00162Y0002
X0016Y00043
X-00235Y-00066
X-00519Y-00078
X-005865Y00149
Y00165
X-00085Y00213
X-00069875Y00219875
X-00065Y00205
X-00055Y00185
X-0002Y001775
X-0001Y00221
X-00039Y00224517
X0002Y0019975
X0003975
Y00209974
X00069Y00214
X00078
X00090061Y00199939
X00094383Y00194433
X00095Y0018
X00106567Y00189646
X00111Y00205909
X00118
X0010775Y00222
X00129Y00224
X00131745Y00232745
X00124Y002355
X00100322Y00245325
X00048Y00243
X00047Y00256
X00049Y00177
X00135735Y001895
X00154Y00189
X00157039Y00195306
X00163672Y002025
X00189212Y00179566
T02
X00197111Y-0013769
X002067Y-00138011
T03
X00196841Y-00192734
X0020475Y-00182
X00214Y-00173
Y00173
X0007Y-00053
X00058Y-00067
X-0020475Y-00182
X-00214Y-00173
X-00196841Y-00192734
X-00214Y00173
X-0020475Y00182
X-00196841Y00192734
X00196841
X0020475Y00182
T04
X00191Y0
X00211
X00231
X00251
X00171
X00151
X-00442Y00107
Y00127
Y00147
Y00167
X-00537Y-00018
X-00557
X-00577
X-00597
X-00598Y-00179
X-00578
X-00558
X-00538
X-00624Y00126
Y00146
Y00166
Y00186
X-00605Y00297
X-00585
X-00565
X-00442Y00207
Y00187
T05
X000572Y-0024916
Y-0022884
X00108Y-00239
X001129Y0023885
X000621Y0022869
Y0024901
T06
X0001225Y-00242474
Y-00187474
X-0012Y-00203
Y-00148
X-001225Y001421
Y001971
X-000025Y001875
Y002425
T07
X-001175Y-001005
Y-000609
X-00125Y00055
Y000946
X-00005Y001004
Y0014
X0001475Y-00100374
Y-00139974
T08
X00177Y00496
M30
