M48
;Layer_Color=9474304
;FILE_FORMAT=4:4
METRIC,LZ
;TYPE=NON_PLATED
T10F00S00C0.8000
T11F00S00C1.1000
%
T10
X-00422Y-00158
Y-00146
Y-00134
X-00523Y00038
X-00535
X-00547
Y00062
X-00535
X-00523
X-00412Y00188
Y002
Y00212
X-00498Y00318
X-0051
X-00522
T11
X00136Y-00017
X-00522Y-00001
X-00523Y-00162
X-00641Y00201
X-00459Y00222
M30
